<svg id="function random() { [native code] }" xmlns="http://www.w3.org/2000/svg" version="1.1" width="200px" height="150px" viewBox="0 0 200 150">\n\t<style> #function random() { [native code] } {pointer-events:none; }  #function random() { [native code] } .event  { pointer-events:all;}  </style>\n\t<text x="153" y="123" font-family=" Helvetica" font-weight="900" font-size="12" fill="rgb(48,80,248)">N</text>\n\t<text x="153" y="111" font-family=" Helvetica" font-weight="900" font-size="12" fill="rgb(48,80,248)">H</text>\n\t<text x="100" y="134" font-family=" Helvetica" font-weight="900" font-size="12" fill="rgb(48,80,248)">N</text>\n\t<text x="100" y="146" font-family=" Helvetica" font-weight="900" font-size="12" fill="rgb(48,80,248)">H</text>\n\t<text x="168" y="28" font-family=" Helvetica" font-weight="900" font-size="12" fill="rgb(255,13,13)">O</text>\n\t<text x="139" y="11" font-family=" Helvetica" font-weight="900" font-size="12" fill="rgb(255,13,13)">O</text>\n\t<text x="100" y="93" font-family=" Helvetica" font-weight="900" font-size="12" fill="rgb(48,80,248)">N</text>\n\t<text x="78" y="42" font-family=" Helvetica" font-weight="900" font-size="12" fill="rgb(48,80,248)">N</text>\n\t<text x="86" y="42" font-family=" Helvetica" font-weight="900" font-size="12" fill="rgb(48,80,248)">H</text>\n\t<text x="64" y="134" font-family=" Helvetica" font-weight="900" font-size="12" fill="rgb(255,13,13)">O</text>\n\t<line x1="69" y1="89" x2="86" y2="99" style="stroke:rgb(0,0,0);stroke-width:1"/>\n\t<line x1="72" y1="87" x2="86" y2="95" style="stroke:rgb(0,0,0);stroke-width:1"/>\n\t<line x1="86" y1="58" x2="69" y2="68" style="stroke:rgb(0,0,0);stroke-width:1"/>\n\t<line x1="83" y1="57" x2="69" y2="64" style="stroke:rgb(0,0,0);stroke-width:1"/>\n\t<line x1="139" y1="68" x2="122" y2="58" style="stroke:rgb(0,0,0);stroke-width:1"/>\n\t<line x1="139" y1="65" x2="125" y2="57" style="stroke:rgb(0,0,0);stroke-width:1"/>\n\t<line x1="157" y1="38" x2="157" y2="58" style="stroke:rgb(0,0,0);stroke-width:1"/>\n\t<line x1="154" y1="40" x2="154" y2="56" style="stroke:rgb(0,0,0);stroke-width:1"/>\n\t<line x1="122" y1="38" x2="139" y2="27" style="stroke:rgb(0,0,0);stroke-width:1"/>\n\t<line x1="125" y1="39" x2="139" y2="31" style="stroke:rgb(0,0,0);stroke-width:1"/>\n\t<line x1="104" y1="68" x2="104" y2="83" style="stroke:rgb(0,0,0);stroke-width:1"/>\n\t<line x1="101" y1="70" x2="101" y2="83" style="stroke:rgb(0,0,0);stroke-width:1"/>\n\t<line x1="50" y1="19" x2="62" y2="36" style="stroke:rgb(0,0,0);stroke-width:1"/>\n\t<line x1="49" y1="23" x2="58" y2="36" style="stroke:rgb(0,0,0);stroke-width:1"/>\n\t<line x1="21" y1="40" x2="30" y2="22" style="stroke:rgb(0,0,0);stroke-width:1"/>\n\t<line x1="25" y1="40" x2="31" y2="25" style="stroke:rgb(0,0,0);stroke-width:1"/>\n\t<line x1="54" y1="55" x2="33" y2="57" style="stroke:rgb(0,0,0);stroke-width:1"/>\n\t<line x1="51" y1="52" x2="35" y2="54" style="stroke:rgb(0,0,0);stroke-width:1"/>\n\t<line x1="86" y1="118" x2="74" y2="125" style="stroke:rgb(0,0,0);stroke-width:1"/>\n\t<line x1="88" y1="120" x2="75" y2="128" style="stroke:rgb(0,0,0);stroke-width:1"/>\n\t<line x1="162" y1="122" x2="175" y2="130" style="stroke:rgb(0,0,0);stroke-width:1"/>\n\t<line x1="139" y1="130" x2="152" y2="122" style="stroke:rgb(0,0,0);stroke-width:1"/>\n\t<line x1="122" y1="119" x2="139" y2="130" style="stroke:rgb(0,0,0);stroke-width:1"/>\n\t<line x1="109" y1="127" x2="122" y2="119" style="stroke:rgb(0,0,0);stroke-width:1"/>\n\t<line x1="86" y1="119" x2="99" y2="127" style="stroke:rgb(0,0,0);stroke-width:1"/>\n\t<line x1="86" y1="99" x2="86" y2="119" style="stroke:rgb(0,0,0);stroke-width:1"/>\n\t<line x1="69" y1="68" x2="69" y2="89" style="stroke:rgb(0,0,0);stroke-width:1"/>\n\t<line x1="104" y1="68" x2="86" y2="58" style="stroke:rgb(0,0,0);stroke-width:1"/>\n\t<line x1="122" y1="58" x2="104" y2="68" style="stroke:rgb(0,0,0);stroke-width:1"/>\n\t<line x1="157" y1="58" x2="139" y2="68" style="stroke:rgb(0,0,0);stroke-width:1"/>\n\t<line x1="167" y1="29" x2="157" y2="38" style="stroke:rgb(0,0,0);stroke-width:1"/>\n\t<line x1="164" y1="5" x2="170" y2="18" style="stroke:rgb(0,0,0);stroke-width:1"/>\n\t<line x1="149" y1="7" x2="164" y2="5" style="stroke:rgb(0,0,0);stroke-width:1"/>\n\t<line x1="139" y1="27" x2="142" y2="13" style="stroke:rgb(0,0,0);stroke-width:1"/>\n\t<line x1="139" y1="27" x2="157" y2="38" style="stroke:rgb(0,0,0);stroke-width:1"/>\n\t<line x1="122" y1="38" x2="122" y2="58" style="stroke:rgb(0,0,0);stroke-width:1"/>\n\t<line x1="99" y1="92" x2="86" y2="99" style="stroke:rgb(0,0,0);stroke-width:1"/>\n\t<line x1="83" y1="44" x2="86" y2="58" style="stroke:rgb(0,0,0);stroke-width:1"/>\n\t<line x1="62" y1="36" x2="77" y2="38" style="stroke:rgb(0,0,0);stroke-width:1"/>\n\t<line x1="30" y1="22" x2="50" y2="19" style="stroke:rgb(0,0,0);stroke-width:1"/>\n\t<line x1="33" y1="57" x2="21" y2="40" style="stroke:rgb(0,0,0);stroke-width:1"/>\n\t<line x1="54" y1="55" x2="62" y2="36" style="stroke:rgb(0,0,0);stroke-width:1"/>\n\t<line x1="54" y1="55" x2="69" y2="68" style="stroke:rgb(0,0,0);stroke-width:1"/>\n\t<line id="function random() { [native code] }:Bond:7-6" class="event" x1="69" y1="89" x2="86" y2="99" stroke-width="8" stroke-opacity="0"/>\n\t<line id="function random() { [native code] }:Bond:9-8" class="event" x1="86" y1="58" x2="69" y2="68" stroke-width="8" stroke-opacity="0"/>\n\t<line id="function random() { [native code] }:Bond:12-11" class="event" x1="139" y1="68" x2="122" y2="58" stroke-width="8" stroke-opacity="0"/>\n\t<line id="function random() { [native code] }:Bond:14-13" class="event" x1="157" y1="38" x2="157" y2="58" stroke-width="8" stroke-opacity="0"/>\n\t<line id="function random() { [native code] }:Bond:19-18" class="event" x1="122" y1="38" x2="139" y2="27" stroke-width="8" stroke-opacity="0"/>\n\t<line id="function random() { [native code] }:Bond:20-10" class="event" x1="104" y1="89" x2="104" y2="68" stroke-width="8" stroke-opacity="0"/>\n\t<line id="function random() { [native code] }:Bond:23-22" class="event" x1="50" y1="19" x2="62" y2="36" stroke-width="8" stroke-opacity="0"/>\n\t<line id="function random() { [native code] }:Bond:25-24" class="event" x1="21" y1="40" x2="30" y2="22" stroke-width="8" stroke-opacity="0"/>\n\t<line id="function random() { [native code] }:Bond:27-26" class="event" x1="54" y1="55" x2="33" y2="57" stroke-width="8" stroke-opacity="0"/>\n\t<line id="function random() { [native code] }:Bond:28-5" class="event" x1="69" y1="130" x2="86" y2="119" stroke-width="8" stroke-opacity="0"/>\n\t<line id="function random() { [native code] }:Bond:1-0" class="event" x1="157" y1="119" x2="175" y2="130" stroke-width="8" stroke-opacity="0"/>\n\t<line id="function random() { [native code] }:Bond:2-1" class="event" x1="139" y1="130" x2="157" y2="119" stroke-width="8" stroke-opacity="0"/>\n\t<line id="function random() { [native code] }:Bond:3-2" class="event" x1="122" y1="119" x2="139" y2="130" stroke-width="8" stroke-opacity="0"/>\n\t<line id="function random() { [native code] }:Bond:4-3" class="event" x1="104" y1="130" x2="122" y2="119" stroke-width="8" stroke-opacity="0"/>\n\t<line id="function random() { [native code] }:Bond:5-4" class="event" x1="86" y1="119" x2="104" y2="130" stroke-width="8" stroke-opacity="0"/>\n\t<line id="function random() { [native code] }:Bond:6-5" class="event" x1="86" y1="99" x2="86" y2="119" stroke-width="8" stroke-opacity="0"/>\n\t<line id="function random() { [native code] }:Bond:8-7" class="event" x1="69" y1="68" x2="69" y2="89" stroke-width="8" stroke-opacity="0"/>\n\t<line id="function random() { [native code] }:Bond:10-9" class="event" x1="104" y1="68" x2="86" y2="58" stroke-width="8" stroke-opacity="0"/>\n\t<line id="function random() { [native code] }:Bond:11-10" class="event" x1="122" y1="58" x2="104" y2="68" stroke-width="8" stroke-opacity="0"/>\n\t<line id="function random() { [native code] }:Bond:13-12" class="event" x1="157" y1="58" x2="139" y2="68" stroke-width="8" stroke-opacity="0"/>\n\t<line id="function random() { [native code] }:Bond:15-14" class="event" x1="172" y1="24" x2="157" y2="38" stroke-width="8" stroke-opacity="0"/>\n\t<line id="function random() { [native code] }:Bond:16-15" class="event" x1="164" y1="5" x2="172" y2="24" stroke-width="8" stroke-opacity="0"/>\n\t<line id="function random() { [native code] }:Bond:17-16" class="event" x1="144" y1="7" x2="164" y2="5" stroke-width="8" stroke-opacity="0"/>\n\t<line id="function random() { [native code] }:Bond:18-17" class="event" x1="139" y1="27" x2="144" y2="7" stroke-width="8" stroke-opacity="0"/>\n\t<line id="function random() { [native code] }:Bond:18-14" class="event" x1="139" y1="27" x2="157" y2="38" stroke-width="8" stroke-opacity="0"/>\n\t<line id="function random() { [native code] }:Bond:19-11" class="event" x1="122" y1="38" x2="122" y2="58" stroke-width="8" stroke-opacity="0"/>\n\t<line id="function random() { [native code] }:Bond:20-6" class="event" x1="104" y1="89" x2="86" y2="99" stroke-width="8" stroke-opacity="0"/>\n\t<line id="function random() { [native code] }:Bond:21-9" class="event" x1="82" y1="38" x2="86" y2="58" stroke-width="8" stroke-opacity="0"/>\n\t<line id="function random() { [native code] }:Bond:22-21" class="event" x1="62" y1="36" x2="82" y2="38" stroke-width="8" stroke-opacity="0"/>\n\t<line id="function random() { [native code] }:Bond:24-23" class="event" x1="30" y1="22" x2="50" y2="19" stroke-width="8" stroke-opacity="0"/>\n\t<line id="function random() { [native code] }:Bond:26-25" class="event" x1="33" y1="57" x2="21" y2="40" stroke-width="8" stroke-opacity="0"/>\n\t<line id="function random() { [native code] }:Bond:27-22" class="event" x1="54" y1="55" x2="62" y2="36" stroke-width="8" stroke-opacity="0"/>\n\t<line id="function random() { [native code] }:Bond:27-8" class="event" x1="54" y1="55" x2="69" y2="68" stroke-width="8" stroke-opacity="0"/>\n\t<circle id="function random() { [native code] }:Atom:0" class="event" cx="175" cy="130" r="8" fill-opacity="0"/>\n\t<circle id="function random() { [native code] }:Atom:1" class="event" cx="157" cy="119" r="8" fill-opacity="0"/>\n\t<circle id="function random() { [native code] }:Atom:2" class="event" cx="139" cy="130" r="8" fill-opacity="0"/>\n\t<circle id="function random() { [native code] }:Atom:3" class="event" cx="122" cy="119" r="8" fill-opacity="0"/>\n\t<circle id="function random() { [native code] }:Atom:4" class="event" cx="104" cy="130" r="8" fill-opacity="0"/>\n\t<circle id="function random() { [native code] }:Atom:5" class="event" cx="86" cy="119" r="8" fill-opacity="0"/>\n\t<circle id="function random() { [native code] }:Atom:6" class="event" cx="86" cy="99" r="8" fill-opacity="0"/>\n\t<circle id="function random() { [native code] }:Atom:7" class="event" cx="69" cy="89" r="8" fill-opacity="0"/>\n\t<circle id="function random() { [native code] }:Atom:8" class="event" cx="69" cy="68" r="8" fill-opacity="0"/>\n\t<circle id="function random() { [native code] }:Atom:9" class="event" cx="86" cy="58" r="8" fill-opacity="0"/>\n\t<circle id="function random() { [native code] }:Atom:10" class="event" cx="104" cy="68" r="8" fill-opacity="0"/>\n\t<circle id="function random() { [native code] }:Atom:11" class="event" cx="122" cy="58" r="8" fill-opacity="0"/>\n\t<circle id="function random() { [native code] }:Atom:12" class="event" cx="139" cy="68" r="8" fill-opacity="0"/>\n\t<circle id="function random() { [native code] }:Atom:13" class="event" cx="157" cy="58" r="8" fill-opacity="0"/>\n\t<circle id="function random() { [native code] }:Atom:14" class="event" cx="157" cy="38" r="8" fill-opacity="0"/>\n\t<circle id="function random() { [native code] }:Atom:15" class="event" cx="172" cy="24" r="8" fill-opacity="0"/>\n\t<circle id="function random() { [native code] }:Atom:16" class="event" cx="164" cy="5" r="8" fill-opacity="0"/>\n\t<circle id="function random() { [native code] }:Atom:17" class="event" cx="144" cy="7" r="8" fill-opacity="0"/>\n\t<circle id="function random() { [native code] }:Atom:18" class="event" cx="139" cy="27" r="8" fill-opacity="0"/>\n\t<circle id="function random() { [native code] }:Atom:19" class="event" cx="122" cy="38" r="8" fill-opacity="0"/>\n\t<circle id="function random() { [native code] }:Atom:20" class="event" cx="104" cy="89" r="8" fill-opacity="0"/>\n\t<circle id="function random() { [native code] }:Atom:21" class="event" cx="82" cy="38" r="8" fill-opacity="0"/>\n\t<circle id="function random() { [native code] }:Atom:22" class="event" cx="62" cy="36" r="8" fill-opacity="0"/>\n\t<circle id="function random() { [native code] }:Atom:23" class="event" cx="50" cy="19" r="8" fill-opacity="0"/>\n\t<circle id="function random() { [native code] }:Atom:24" class="event" cx="30" cy="22" r="8" fill-opacity="0"/>\n\t<circle id="function random() { [native code] }:Atom:25" class="event" cx="21" cy="40" r="8" fill-opacity="0"/>\n\t<circle id="function random() { [native code] }:Atom:26" class="event" cx="33" cy="57" r="8" fill-opacity="0"/>\n\t<circle id="function random() { [native code] }:Atom:27" class="event" cx="54" cy="55" r="8" fill-opacity="0"/>\n\t<circle id="function random() { [native code] }:Atom:28" class="event" cx="69" cy="130" r="8" fill-opacity="0"/>\n</svg>