<svg id="function random() { [native code] }" xmlns="http://www.w3.org/2000/svg" version="1.1" width="200px" height="150px" viewBox="0 0 200 150">\n\t<style> #function random() { [native code] } {pointer-events:none; }  #function random() { [native code] } .event  { pointer-events:all;}  </style>\n\t<text x="178" y="61" font-family=" Helvetica" font-weight="900" font-size="10" fill="rgb(48,80,248)">N</text>\n\t<text x="192" y="64" font-family=" Helvetica" font-weight="900" font-size="7" fill="rgb(48,80,248)">2</text>\n\t<text x="185" y="61" font-family=" Helvetica" font-weight="900" font-size="10" fill="rgb(48,80,248)">H</text>\n\t<text x="134" y="69" font-family=" Helvetica" font-weight="900" font-size="10" fill="rgb(48,80,248)">N</text>\n\t<text x="134" y="79" font-family=" Helvetica" font-weight="900" font-size="10" fill="rgb(48,80,248)">H</text>\n\t<text x="119" y="44" font-family=" Helvetica" font-weight="900" font-size="10" fill="rgb(255,13,13)">O</text>\n\t<text x="90" y="61" font-family=" Helvetica" font-weight="900" font-size="10" fill="rgb(48,80,248)">N</text>\n\t<text x="46" y="18" font-family=" Helvetica" font-weight="900" font-size="10" fill="rgb(144,224,80)">F</text>\n\t<text x="8" y="50" font-family=" Helvetica" font-weight="900" font-size="10" fill="rgb(144,224,80)">F</text>\n\t<text x="2" y="27" font-family=" Helvetica" font-weight="900" font-size="10" fill="rgb(144,224,80)">F</text>\n\t<text x="25" y="20" font-family=" Helvetica" font-weight="900" font-size="10" fill="rgb(144,224,80)">F</text>\n\t<text x="63" y="97" font-family=" Helvetica" font-weight="900" font-size="10" fill="rgb(48,80,248)">N</text>\n\t<text x="55" y="97" font-family=" Helvetica" font-weight="900" font-size="10" fill="rgb(48,80,248)">H</text>\n\t<line x1="124" y1="58" x2="124" y2="46" style="stroke:rgb(0,0,0);stroke-width:1"/>\n\t<line x1="122" y1="58" x2="122" y2="46" style="stroke:rgb(0,0,0);stroke-width:1"/>\n\t<line x1="108" y1="66" x2="98" y2="60" style="stroke:rgb(0,0,0);stroke-width:1"/>\n\t<line x1="105" y1="67" x2="97" y2="63" style="stroke:rgb(0,0,0);stroke-width:1"/>\n\t<line x1="64" y1="41" x2="64" y2="58" style="stroke:rgb(0,0,0);stroke-width:1"/>\n\t<line x1="62" y1="42" x2="62" y2="56" style="stroke:rgb(0,0,0);stroke-width:1"/>\n\t<line x1="35" y1="41" x2="49" y2="32" style="stroke:rgb(0,0,0);stroke-width:1"/>\n\t<line x1="38" y1="42" x2="49" y2="35" style="stroke:rgb(0,0,0);stroke-width:1"/>\n\t<line x1="49" y1="66" x2="35" y2="58" style="stroke:rgb(0,0,0);stroke-width:1"/>\n\t<line x1="49" y1="63" x2="38" y2="56" style="stroke:rgb(0,0,0);stroke-width:1"/>\n\t<line x1="79" y1="83" x2="79" y2="66" style="stroke:rgb(0,0,0);stroke-width:1"/>\n\t<line x1="81" y1="81" x2="81" y2="68" style="stroke:rgb(0,0,0);stroke-width:1"/>\n\t<line x1="90" y1="108" x2="73" y2="110" style="stroke:rgb(0,0,0);stroke-width:1"/>\n\t<line x1="88" y1="106" x2="75" y2="107" style="stroke:rgb(0,0,0);stroke-width:1"/>\n\t<line x1="93" y1="137" x2="100" y2="122" style="stroke:rgb(0,0,0);stroke-width:1"/>\n\t<line x1="91" y1="135" x2="97" y2="122" style="stroke:rgb(0,0,0);stroke-width:1"/>\n\t<line x1="66" y1="125" x2="76" y2="139" style="stroke:rgb(0,0,0);stroke-width:1"/>\n\t<line x1="69" y1="125" x2="77" y2="136" style="stroke:rgb(0,0,0);stroke-width:1"/>\n\t<line x1="108" y1="83" x2="93" y2="92" style="stroke:rgb(0,0,0);stroke-width:1"/>\n\t<line x1="105" y1="82" x2="94" y2="88" style="stroke:rgb(0,0,0);stroke-width:1"/>\n\t<line x1="167" y1="66" x2="177" y2="60" style="stroke:rgb(0,0,0);stroke-width:1"/>\n\t<line x1="152" y1="58" x2="167" y2="66" style="stroke:rgb(0,0,0);stroke-width:1"/>\n\t<line x1="142" y1="63" x2="152" y2="58" style="stroke:rgb(0,0,0);stroke-width:1"/>\n\t<line x1="123" y1="58" x2="133" y2="63" style="stroke:rgb(0,0,0);stroke-width:1"/>\n\t<line x1="108" y1="66" x2="123" y2="58" style="stroke:rgb(0,0,0);stroke-width:1"/>\n\t<line x1="79" y1="66" x2="89" y2="60" style="stroke:rgb(0,0,0);stroke-width:1"/>\n\t<line x1="64" y1="58" x2="79" y2="66" style="stroke:rgb(0,0,0);stroke-width:1"/>\n\t<line x1="49" y1="32" x2="64" y2="41" style="stroke:rgb(0,0,0);stroke-width:1"/>\n\t<line x1="49" y1="20" x2="49" y2="32" style="stroke:rgb(0,0,0);stroke-width:1"/>\n\t<line x1="20" y1="32" x2="35" y2="41" style="stroke:rgb(0,0,0);stroke-width:1"/>\n\t<line x1="14" y1="42" x2="20" y2="32" style="stroke:rgb(0,0,0);stroke-width:1"/>\n\t<line x1="9" y1="26" x2="20" y2="32" style="stroke:rgb(0,0,0);stroke-width:1"/>\n\t<line x1="26" y1="22" x2="20" y2="32" style="stroke:rgb(0,0,0);stroke-width:1"/>\n\t<line x1="35" y1="58" x2="35" y2="41" style="stroke:rgb(0,0,0);stroke-width:1"/>\n\t<line x1="49" y1="66" x2="64" y2="58" style="stroke:rgb(0,0,0);stroke-width:1"/>\n\t<line x1="71" y1="90" x2="79" y2="83" style="stroke:rgb(0,0,0);stroke-width:1"/>\n\t<line x1="73" y1="110" x2="68" y2="99" style="stroke:rgb(0,0,0);stroke-width:1"/>\n\t<line x1="100" y1="122" x2="90" y2="108" style="stroke:rgb(0,0,0);stroke-width:1"/>\n\t<line x1="76" y1="139" x2="93" y2="137" style="stroke:rgb(0,0,0);stroke-width:1"/>\n\t<line x1="66" y1="125" x2="73" y2="110" style="stroke:rgb(0,0,0);stroke-width:1"/>\n\t<line x1="93" y1="92" x2="90" y2="108" style="stroke:rgb(0,0,0);stroke-width:1"/>\n\t<line x1="93" y1="92" x2="79" y2="83" style="stroke:rgb(0,0,0);stroke-width:1"/>\n\t<line x1="108" y1="83" x2="108" y2="66" style="stroke:rgb(0,0,0);stroke-width:1"/>\n\t<line id="function random() { [native code] }:Bond:5-4" class="event" x1="123" y1="41" x2="123" y2="58" stroke-width="8" stroke-opacity="0"/>\n\t<line id="function random() { [native code] }:Bond:7-6" class="event" x1="93" y1="58" x2="108" y2="66" stroke-width="8" stroke-opacity="0"/>\n\t<line id="function random() { [native code] }:Bond:10-9" class="event" x1="64" y1="41" x2="64" y2="58" stroke-width="8" stroke-opacity="0"/>\n\t<line id="function random() { [native code] }:Bond:13-11" class="event" x1="35" y1="41" x2="49" y2="32" stroke-width="8" stroke-opacity="0"/>\n\t<line id="function random() { [native code] }:Bond:19-18" class="event" x1="49" y1="66" x2="35" y2="58" stroke-width="8" stroke-opacity="0"/>\n\t<line id="function random() { [native code] }:Bond:20-8" class="event" x1="79" y1="83" x2="79" y2="66" stroke-width="8" stroke-opacity="0"/>\n\t<line id="function random() { [native code] }:Bond:23-22" class="event" x1="90" y1="108" x2="73" y2="110" stroke-width="8" stroke-opacity="0"/>\n\t<line id="function random() { [native code] }:Bond:25-24" class="event" x1="93" y1="137" x2="100" y2="122" stroke-width="8" stroke-opacity="0"/>\n\t<line id="function random() { [native code] }:Bond:27-26" class="event" x1="66" y1="125" x2="76" y2="139" stroke-width="8" stroke-opacity="0"/>\n\t<line id="function random() { [native code] }:Bond:29-28" class="event" x1="108" y1="83" x2="93" y2="92" stroke-width="8" stroke-opacity="0"/>\n\t<line id="function random() { [native code] }:Bond:1-0" class="event" x1="167" y1="66" x2="182" y2="58" stroke-width="8" stroke-opacity="0"/>\n\t<line id="function random() { [native code] }:Bond:2-1" class="event" x1="152" y1="58" x2="167" y2="66" stroke-width="8" stroke-opacity="0"/>\n\t<line id="function random() { [native code] }:Bond:3-2" class="event" x1="137" y1="66" x2="152" y2="58" stroke-width="8" stroke-opacity="0"/>\n\t<line id="function random() { [native code] }:Bond:4-3" class="event" x1="123" y1="58" x2="137" y2="66" stroke-width="8" stroke-opacity="0"/>\n\t<line id="function random() { [native code] }:Bond:6-4" class="event" x1="108" y1="66" x2="123" y2="58" stroke-width="8" stroke-opacity="0"/>\n\t<line id="function random() { [native code] }:Bond:8-7" class="event" x1="79" y1="66" x2="93" y2="58" stroke-width="8" stroke-opacity="0"/>\n\t<line id="function random() { [native code] }:Bond:9-8" class="event" x1="64" y1="58" x2="79" y2="66" stroke-width="8" stroke-opacity="0"/>\n\t<line id="function random() { [native code] }:Bond:11-10" class="event" x1="49" y1="32" x2="64" y2="41" stroke-width="8" stroke-opacity="0"/>\n\t<line id="function random() { [native code] }:Bond:12-11" class="event" x1="49" y1="15" x2="49" y2="32" stroke-width="8" stroke-opacity="0"/>\n\t<line id="function random() { [native code] }:Bond:14-13" class="event" x1="20" y1="32" x2="35" y2="41" stroke-width="8" stroke-opacity="0"/>\n\t<line id="function random() { [native code] }:Bond:15-14" class="event" x1="12" y1="47" x2="20" y2="32" stroke-width="8" stroke-opacity="0"/>\n\t<line id="function random() { [native code] }:Bond:16-14" class="event" x1="5" y1="24" x2="20" y2="32" stroke-width="8" stroke-opacity="0"/>\n\t<line id="function random() { [native code] }:Bond:17-14" class="event" x1="28" y1="17" x2="20" y2="32" stroke-width="8" stroke-opacity="0"/>\n\t<line id="function random() { [native code] }:Bond:18-13" class="event" x1="35" y1="58" x2="35" y2="41" stroke-width="8" stroke-opacity="0"/>\n\t<line id="function random() { [native code] }:Bond:19-9" class="event" x1="49" y1="66" x2="64" y2="58" stroke-width="8" stroke-opacity="0"/>\n\t<line id="function random() { [native code] }:Bond:21-20" class="event" x1="66" y1="94" x2="79" y2="83" stroke-width="8" stroke-opacity="0"/>\n\t<line id="function random() { [native code] }:Bond:22-21" class="event" x1="73" y1="110" x2="66" y2="94" stroke-width="8" stroke-opacity="0"/>\n\t<line id="function random() { [native code] }:Bond:24-23" class="event" x1="100" y1="122" x2="90" y2="108" stroke-width="8" stroke-opacity="0"/>\n\t<line id="function random() { [native code] }:Bond:26-25" class="event" x1="76" y1="139" x2="93" y2="137" stroke-width="8" stroke-opacity="0"/>\n\t<line id="function random() { [native code] }:Bond:27-22" class="event" x1="66" y1="125" x2="73" y2="110" stroke-width="8" stroke-opacity="0"/>\n\t<line id="function random() { [native code] }:Bond:28-23" class="event" x1="93" y1="92" x2="90" y2="108" stroke-width="8" stroke-opacity="0"/>\n\t<line id="function random() { [native code] }:Bond:28-20" class="event" x1="93" y1="92" x2="79" y2="83" stroke-width="8" stroke-opacity="0"/>\n\t<line id="function random() { [native code] }:Bond:29-6" class="event" x1="108" y1="83" x2="108" y2="66" stroke-width="8" stroke-opacity="0"/>\n\t<circle id="function random() { [native code] }:Atom:0" class="event" cx="182" cy="58" r="8" fill-opacity="0"/>\n\t<circle id="function random() { [native code] }:Atom:1" class="event" cx="167" cy="66" r="8" fill-opacity="0"/>\n\t<circle id="function random() { [native code] }:Atom:2" class="event" cx="152" cy="58" r="8" fill-opacity="0"/>\n\t<circle id="function random() { [native code] }:Atom:3" class="event" cx="137" cy="66" r="8" fill-opacity="0"/>\n\t<circle id="function random() { [native code] }:Atom:4" class="event" cx="123" cy="58" r="8" fill-opacity="0"/>\n\t<circle id="function random() { [native code] }:Atom:5" class="event" cx="123" cy="41" r="8" fill-opacity="0"/>\n\t<circle id="function random() { [native code] }:Atom:6" class="event" cx="108" cy="66" r="8" fill-opacity="0"/>\n\t<circle id="function random() { [native code] }:Atom:7" class="event" cx="93" cy="58" r="8" fill-opacity="0"/>\n\t<circle id="function random() { [native code] }:Atom:8" class="event" cx="79" cy="66" r="8" fill-opacity="0"/>\n\t<circle id="function random() { [native code] }:Atom:9" class="event" cx="64" cy="58" r="8" fill-opacity="0"/>\n\t<circle id="function random() { [native code] }:Atom:10" class="event" cx="64" cy="41" r="8" fill-opacity="0"/>\n\t<circle id="function random() { [native code] }:Atom:11" class="event" cx="49" cy="32" r="8" fill-opacity="0"/>\n\t<circle id="function random() { [native code] }:Atom:12" class="event" cx="49" cy="15" r="8" fill-opacity="0"/>\n\t<circle id="function random() { [native code] }:Atom:13" class="event" cx="35" cy="41" r="8" fill-opacity="0"/>\n\t<circle id="function random() { [native code] }:Atom:14" class="event" cx="20" cy="32" r="8" fill-opacity="0"/>\n\t<circle id="function random() { [native code] }:Atom:15" class="event" cx="12" cy="47" r="8" fill-opacity="0"/>\n\t<circle id="function random() { [native code] }:Atom:16" class="event" cx="5" cy="24" r="8" fill-opacity="0"/>\n\t<circle id="function random() { [native code] }:Atom:17" class="event" cx="28" cy="17" r="8" fill-opacity="0"/>\n\t<circle id="function random() { [native code] }:Atom:18" class="event" cx="35" cy="58" r="8" fill-opacity="0"/>\n\t<circle id="function random() { [native code] }:Atom:19" class="event" cx="49" cy="66" r="8" fill-opacity="0"/>\n\t<circle id="function random() { [native code] }:Atom:20" class="event" cx="79" cy="83" r="8" fill-opacity="0"/>\n\t<circle id="function random() { [native code] }:Atom:21" class="event" cx="66" cy="94" r="8" fill-opacity="0"/>\n\t<circle id="function random() { [native code] }:Atom:22" class="event" cx="73" cy="110" r="8" fill-opacity="0"/>\n\t<circle id="function random() { [native code] }:Atom:23" class="event" cx="90" cy="108" r="8" fill-opacity="0"/>\n\t<circle id="function random() { [native code] }:Atom:24" class="event" cx="100" cy="122" r="8" fill-opacity="0"/>\n\t<circle id="function random() { [native code] }:Atom:25" class="event" cx="93" cy="137" r="8" fill-opacity="0"/>\n\t<circle id="function random() { [native code] }:Atom:26" class="event" cx="76" cy="139" r="8" fill-opacity="0"/>\n\t<circle id="function random() { [native code] }:Atom:27" class="event" cx="66" cy="125" r="8" fill-opacity="0"/>\n\t<circle id="function random() { [native code] }:Atom:28" class="event" cx="93" cy="92" r="8" fill-opacity="0"/>\n\t<circle id="function random() { [native code] }:Atom:29" class="event" cx="108" cy="83" r="8" fill-opacity="0"/>\n</svg>