<svg id="function random() { [native code] }" xmlns="http://www.w3.org/2000/svg" version="1.1" width="200px" height="150px" viewBox="0 0 200 150">\n\t<style> #function random() { [native code] } {pointer-events:none; }  #function random() { [native code] } .event  { pointer-events:all;}  </style>\n\t<text x="110" y="127" font-family=" Helvetica" font-weight="900" font-size="13" fill="rgb(255,13,13)">O</text>\n\t<text x="110" y="84" font-family=" Helvetica" font-weight="900" font-size="13" fill="rgb(48,80,248)">N</text>\n\t<text x="184" y="18" font-family=" Helvetica" font-weight="900" font-size="13" fill="rgb(31,240,31)">Cl</text>\n\t<text x="87" y="30" font-family=" Helvetica" font-weight="900" font-size="13" fill="rgb(48,80,248)">N</text>\n\t<text x="96" y="30" font-family=" Helvetica" font-weight="900" font-size="13" fill="rgb(48,80,248)">H</text>\n\t<text x="72" y="127" font-family=" Helvetica" font-weight="900" font-size="13" fill="rgb(48,80,248)">N</text>\n\t<text x="72" y="140" font-family=" Helvetica" font-weight="900" font-size="13" fill="rgb(48,80,248)">H</text>\n\t<text x="16" y="116" font-family=" Helvetica" font-weight="900" font-size="13" fill="rgb(48,80,248)">N</text>\n\t<text x="16" y="103" font-family=" Helvetica" font-weight="900" font-size="13" fill="rgb(48,80,248)">H</text>\n\t<line x1="94" y1="113" x2="108" y2="121" style="stroke:rgb(0,0,0);stroke-width:1"/>\n\t<line x1="96" y1="111" x2="110" y2="118" style="stroke:rgb(0,0,0);stroke-width:1"/>\n\t<line x1="96" y1="91" x2="109" y2="83" style="stroke:rgb(0,0,0);stroke-width:1"/>\n\t<line x1="96" y1="87" x2="107" y2="80" style="stroke:rgb(0,0,0);stroke-width:1"/>\n\t<line x1="152" y1="58" x2="134" y2="47" style="stroke:rgb(0,0,0);stroke-width:1"/>\n\t<line x1="152" y1="54" x2="137" y2="45" style="stroke:rgb(0,0,0);stroke-width:1"/>\n\t<line x1="171" y1="25" x2="171" y2="47" style="stroke:rgb(0,0,0);stroke-width:1"/>\n\t<line x1="168" y1="28" x2="168" y2="45" style="stroke:rgb(0,0,0);stroke-width:1"/>\n\t<line x1="134" y1="25" x2="152" y2="14" style="stroke:rgb(0,0,0);stroke-width:1"/>\n\t<line x1="137" y1="27" x2="152" y2="18" style="stroke:rgb(0,0,0);stroke-width:1"/>\n\t<line x1="96" y1="47" x2="115" y2="58" style="stroke:rgb(0,0,0);stroke-width:1"/>\n\t<line x1="96" y1="51" x2="111" y2="60" style="stroke:rgb(0,0,0);stroke-width:1"/>\n\t<line x1="57" y1="6" x2="70" y2="24" style="stroke:rgb(0,0,0);stroke-width:1"/>\n\t<line x1="56" y1="10" x2="66" y2="24" style="stroke:rgb(0,0,0);stroke-width:1"/>\n\t<line x1="26" y1="28" x2="35" y2="8" style="stroke:rgb(0,0,0);stroke-width:1"/>\n\t<line x1="30" y1="27" x2="37" y2="12" style="stroke:rgb(0,0,0);stroke-width:1"/>\n\t<line x1="61" y1="43" x2="39" y2="46" style="stroke:rgb(0,0,0);stroke-width:1"/>\n\t<line x1="58" y1="40" x2="41" y2="42" style="stroke:rgb(0,0,0);stroke-width:1"/>\n\t<line x1="77" y1="80" x2="77" y2="58" style="stroke:rgb(0,0,0);stroke-width:1"/>\n\t<line x1="80" y1="77" x2="80" y2="60" style="stroke:rgb(0,0,0);stroke-width:1"/>\n\t<line x1="96" y1="91" x2="96" y2="112" style="stroke:rgb(0,0,0);stroke-width:1"/>\n\t<line x1="115" y1="58" x2="115" y2="74" style="stroke:rgb(0,0,0);stroke-width:1"/>\n\t<line x1="134" y1="47" x2="115" y2="58" style="stroke:rgb(0,0,0);stroke-width:1"/>\n\t<line x1="171" y1="47" x2="152" y2="58" style="stroke:rgb(0,0,0);stroke-width:1"/>\n\t<line x1="152" y1="14" x2="171" y2="25" style="stroke:rgb(0,0,0);stroke-width:1"/>\n\t<line x1="134" y1="25" x2="134" y2="47" style="stroke:rgb(0,0,0);stroke-width:1"/>\n\t<line x1="183" y1="19" x2="171" y2="25" style="stroke:rgb(0,0,0);stroke-width:1"/>\n\t<line x1="93" y1="32" x2="96" y2="47" style="stroke:rgb(0,0,0);stroke-width:1"/>\n\t<line x1="70" y1="24" x2="86" y2="25" style="stroke:rgb(0,0,0);stroke-width:1"/>\n\t<line x1="35" y1="8" x2="57" y2="6" style="stroke:rgb(0,0,0);stroke-width:1"/>\n\t<line x1="39" y1="46" x2="26" y2="28" style="stroke:rgb(0,0,0);stroke-width:1"/>\n\t<line x1="61" y1="43" x2="70" y2="24" style="stroke:rgb(0,0,0);stroke-width:1"/>\n\t<line x1="77" y1="58" x2="61" y2="43" style="stroke:rgb(0,0,0);stroke-width:1"/>\n\t<line x1="77" y1="58" x2="96" y2="47" style="stroke:rgb(0,0,0);stroke-width:1"/>\n\t<line x1="77" y1="80" x2="96" y2="91" style="stroke:rgb(0,0,0);stroke-width:1"/>\n\t<line x1="83" y1="120" x2="96" y2="112" style="stroke:rgb(0,0,0);stroke-width:1"/>\n\t<line x1="58" y1="112" x2="71" y2="120" style="stroke:rgb(0,0,0);stroke-width:1"/>\n\t<line x1="39" y1="123" x2="58" y2="112" style="stroke:rgb(0,0,0);stroke-width:1"/>\n\t<line x1="26" y1="116" x2="39" y2="123" style="stroke:rgb(0,0,0);stroke-width:1"/>\n\t<line x1="2" y1="123" x2="15" y2="116" style="stroke:rgb(0,0,0);stroke-width:1"/>\n\t<line id="function random() { [native code] }:Bond:1-0" class="event" x1="96" y1="112" x2="115" y2="123" stroke-width="8" stroke-opacity="0"/>\n\t<line id="function random() { [native code] }:Bond:3-2" class="event" x1="115" y1="80" x2="96" y2="91" stroke-width="8" stroke-opacity="0"/>\n\t<line id="function random() { [native code] }:Bond:6-5" class="event" x1="152" y1="58" x2="134" y2="47" stroke-width="8" stroke-opacity="0"/>\n\t<line id="function random() { [native code] }:Bond:8-7" class="event" x1="171" y1="25" x2="171" y2="47" stroke-width="8" stroke-opacity="0"/>\n\t<line id="function random() { [native code] }:Bond:10-9" class="event" x1="134" y1="25" x2="152" y2="14" stroke-width="8" stroke-opacity="0"/>\n\t<line id="function random() { [native code] }:Bond:12-4" class="event" x1="96" y1="47" x2="115" y2="58" stroke-width="8" stroke-opacity="0"/>\n\t<line id="function random() { [native code] }:Bond:15-14" class="event" x1="57" y1="6" x2="70" y2="24" stroke-width="8" stroke-opacity="0"/>\n\t<line id="function random() { [native code] }:Bond:17-16" class="event" x1="26" y1="28" x2="35" y2="8" stroke-width="8" stroke-opacity="0"/>\n\t<line id="function random() { [native code] }:Bond:19-18" class="event" x1="61" y1="43" x2="39" y2="46" stroke-width="8" stroke-opacity="0"/>\n\t<line id="function random() { [native code] }:Bond:21-20" class="event" x1="77" y1="80" x2="77" y2="58" stroke-width="8" stroke-opacity="0"/>\n\t<line id="function random() { [native code] }:Bond:2-1" class="event" x1="96" y1="91" x2="96" y2="112" stroke-width="8" stroke-opacity="0"/>\n\t<line id="function random() { [native code] }:Bond:4-3" class="event" x1="115" y1="58" x2="115" y2="80" stroke-width="8" stroke-opacity="0"/>\n\t<line id="function random() { [native code] }:Bond:5-4" class="event" x1="134" y1="47" x2="115" y2="58" stroke-width="8" stroke-opacity="0"/>\n\t<line id="function random() { [native code] }:Bond:7-6" class="event" x1="171" y1="47" x2="152" y2="58" stroke-width="8" stroke-opacity="0"/>\n\t<line id="function random() { [native code] }:Bond:9-8" class="event" x1="152" y1="14" x2="171" y2="25" stroke-width="8" stroke-opacity="0"/>\n\t<line id="function random() { [native code] }:Bond:10-5" class="event" x1="134" y1="25" x2="134" y2="47" stroke-width="8" stroke-opacity="0"/>\n\t<line id="function random() { [native code] }:Bond:11-8" class="event" x1="190" y1="14" x2="171" y2="25" stroke-width="8" stroke-opacity="0"/>\n\t<line id="function random() { [native code] }:Bond:13-12" class="event" x1="91" y1="26" x2="96" y2="47" stroke-width="8" stroke-opacity="0"/>\n\t<line id="function random() { [native code] }:Bond:14-13" class="event" x1="70" y1="24" x2="91" y2="26" stroke-width="8" stroke-opacity="0"/>\n\t<line id="function random() { [native code] }:Bond:16-15" class="event" x1="35" y1="8" x2="57" y2="6" stroke-width="8" stroke-opacity="0"/>\n\t<line id="function random() { [native code] }:Bond:18-17" class="event" x1="39" y1="46" x2="26" y2="28" stroke-width="8" stroke-opacity="0"/>\n\t<line id="function random() { [native code] }:Bond:19-14" class="event" x1="61" y1="43" x2="70" y2="24" stroke-width="8" stroke-opacity="0"/>\n\t<line id="function random() { [native code] }:Bond:20-19" class="event" x1="77" y1="58" x2="61" y2="43" stroke-width="8" stroke-opacity="0"/>\n\t<line id="function random() { [native code] }:Bond:20-12" class="event" x1="77" y1="58" x2="96" y2="47" stroke-width="8" stroke-opacity="0"/>\n\t<line id="function random() { [native code] }:Bond:21-2" class="event" x1="77" y1="80" x2="96" y2="91" stroke-width="8" stroke-opacity="0"/>\n\t<line id="function random() { [native code] }:Bond:22-1" class="event" x1="77" y1="123" x2="96" y2="112" stroke-width="8" stroke-opacity="0"/>\n\t<line id="function random() { [native code] }:Bond:23-22" class="event" x1="58" y1="112" x2="77" y2="123" stroke-width="8" stroke-opacity="0"/>\n\t<line id="function random() { [native code] }:Bond:24-23" class="event" x1="39" y1="123" x2="58" y2="112" stroke-width="8" stroke-opacity="0"/>\n\t<line id="function random() { [native code] }:Bond:25-24" class="event" x1="21" y1="112" x2="39" y2="123" stroke-width="8" stroke-opacity="0"/>\n\t<line id="function random() { [native code] }:Bond:26-25" class="event" x1="2" y1="123" x2="21" y2="112" stroke-width="8" stroke-opacity="0"/>\n\t<circle id="function random() { [native code] }:Atom:0" class="event" cx="115" cy="123" r="8" fill-opacity="0"/>\n\t<circle id="function random() { [native code] }:Atom:1" class="event" cx="96" cy="112" r="8" fill-opacity="0"/>\n\t<circle id="function random() { [native code] }:Atom:2" class="event" cx="96" cy="91" r="8" fill-opacity="0"/>\n\t<circle id="function random() { [native code] }:Atom:3" class="event" cx="115" cy="80" r="8" fill-opacity="0"/>\n\t<circle id="function random() { [native code] }:Atom:4" class="event" cx="115" cy="58" r="8" fill-opacity="0"/>\n\t<circle id="function random() { [native code] }:Atom:5" class="event" cx="134" cy="47" r="8" fill-opacity="0"/>\n\t<circle id="function random() { [native code] }:Atom:6" class="event" cx="152" cy="58" r="8" fill-opacity="0"/>\n\t<circle id="function random() { [native code] }:Atom:7" class="event" cx="171" cy="47" r="8" fill-opacity="0"/>\n\t<circle id="function random() { [native code] }:Atom:8" class="event" cx="171" cy="25" r="8" fill-opacity="0"/>\n\t<circle id="function random() { [native code] }:Atom:9" class="event" cx="152" cy="14" r="8" fill-opacity="0"/>\n\t<circle id="function random() { [native code] }:Atom:10" class="event" cx="134" cy="25" r="8" fill-opacity="0"/>\n\t<circle id="function random() { [native code] }:Atom:11" class="event" cx="190" cy="14" r="8" fill-opacity="0"/>\n\t<circle id="function random() { [native code] }:Atom:12" class="event" cx="96" cy="47" r="8" fill-opacity="0"/>\n\t<circle id="function random() { [native code] }:Atom:13" class="event" cx="91" cy="26" r="8" fill-opacity="0"/>\n\t<circle id="function random() { [native code] }:Atom:14" class="event" cx="70" cy="24" r="8" fill-opacity="0"/>\n\t<circle id="function random() { [native code] }:Atom:15" class="event" cx="57" cy="6" r="8" fill-opacity="0"/>\n\t<circle id="function random() { [native code] }:Atom:16" class="event" cx="35" cy="8" r="8" fill-opacity="0"/>\n\t<circle id="function random() { [native code] }:Atom:17" class="event" cx="26" cy="28" r="8" fill-opacity="0"/>\n\t<circle id="function random() { [native code] }:Atom:18" class="event" cx="39" cy="46" r="8" fill-opacity="0"/>\n\t<circle id="function random() { [native code] }:Atom:19" class="event" cx="61" cy="43" r="8" fill-opacity="0"/>\n\t<circle id="function random() { [native code] }:Atom:20" class="event" cx="77" cy="58" r="8" fill-opacity="0"/>\n\t<circle id="function random() { [native code] }:Atom:21" class="event" cx="77" cy="80" r="8" fill-opacity="0"/>\n\t<circle id="function random() { [native code] }:Atom:22" class="event" cx="77" cy="123" r="8" fill-opacity="0"/>\n\t<circle id="function random() { [native code] }:Atom:23" class="event" cx="58" cy="112" r="8" fill-opacity="0"/>\n\t<circle id="function random() { [native code] }:Atom:24" class="event" cx="39" cy="123" r="8" fill-opacity="0"/>\n\t<circle id="function random() { [native code] }:Atom:25" class="event" cx="21" cy="112" r="8" fill-opacity="0"/>\n\t<circle id="function random() { [native code] }:Atom:26" class="event" cx="2" cy="123" r="8" fill-opacity="0"/>\n</svg>