<svg id="function random() { [native code] }" xmlns="http://www.w3.org/2000/svg" version="1.1" width="200px" height="150px" viewBox="0 0 200 150">\n\t<style> #function random() { [native code] } {pointer-events:none; }  #function random() { [native code] } .event  { pointer-events:all;}  </style>\n\t<text x="148" y="26" font-family=" Helvetica" font-weight="900" font-size="12" fill="rgb(255,13,13)">O</text>\n\t<text x="115" y="26" font-family=" Helvetica" font-weight="900" font-size="12" fill="rgb(48,80,248)">N</text>\n\t<text x="115" y="14" font-family=" Helvetica" font-weight="900" font-size="12" fill="rgb(48,80,248)">H</text>\n\t<text x="64" y="36" font-family=" Helvetica" font-weight="900" font-size="12" fill="rgb(48,80,248)">N</text>\n\t<text x="64" y="48" font-family=" Helvetica" font-weight="900" font-size="12" fill="rgb(48,80,248)">H</text>\n\t<text x="14" y="26" font-family=" Helvetica" font-weight="900" font-size="12" fill="rgb(255,13,13)">O</text>\n\t<text x="30" y="55" font-family=" Helvetica" font-weight="900" font-size="12" fill="rgb(255,13,13)">O</text>\n\t<text x="115" y="65" font-family=" Helvetica" font-weight="900" font-size="12" fill="rgb(48,80,248)">N</text>\n\t<text x="46" y="84" font-family=" Helvetica" font-weight="900" font-size="12" fill="rgb(31,240,31)">Cl</text>\n\t<text x="46" y="123" font-family=" Helvetica" font-weight="900" font-size="12" fill="rgb(31,240,31)">Cl</text>\n\t<text x="135" y="113" font-family=" Helvetica" font-weight="900" font-size="12" fill="rgb(48,80,248)">N</text>\n\t<text x="127" y="113" font-family=" Helvetica" font-weight="900" font-size="12" fill="rgb(48,80,248)">H</text>\n\t<line x1="136" y1="34" x2="148" y2="27" style="stroke:rgb(0,0,0);stroke-width:1"/>\n\t<line x1="134" y1="31" x2="146" y2="24" style="stroke:rgb(0,0,0);stroke-width:1"/>\n\t<line x1="34" y1="31" x2="34" y2="45" style="stroke:rgb(0,0,0);stroke-width:1"/>\n\t<line x1="36" y1="31" x2="36" y2="45" style="stroke:rgb(0,0,0);stroke-width:1"/>\n\t<line x1="136" y1="51" x2="124" y2="58" style="stroke:rgb(0,0,0);stroke-width:1"/>\n\t<line x1="135" y1="55" x2="126" y2="60" style="stroke:rgb(0,0,0);stroke-width:1"/>\n\t<line x1="85" y1="80" x2="102" y2="90" style="stroke:rgb(0,0,0);stroke-width:1"/>\n\t<line x1="86" y1="84" x2="99" y2="92" style="stroke:rgb(0,0,0);stroke-width:1"/>\n\t<line x1="69" y1="109" x2="69" y2="90" style="stroke:rgb(0,0,0);stroke-width:1"/>\n\t<line x1="71" y1="107" x2="71" y2="92" style="stroke:rgb(0,0,0);stroke-width:1"/>\n\t<line x1="102" y1="109" x2="85" y2="119" style="stroke:rgb(0,0,0);stroke-width:1"/>\n\t<line x1="99" y1="108" x2="86" y2="116" style="stroke:rgb(0,0,0);stroke-width:1"/>\n\t<line x1="136" y1="90" x2="119" y2="80" style="stroke:rgb(0,0,0);stroke-width:1"/>\n\t<line x1="135" y1="87" x2="122" y2="79" style="stroke:rgb(0,0,0);stroke-width:1"/>\n\t<line x1="170" y1="127" x2="159" y2="111" style="stroke:rgb(0,0,0);stroke-width:1"/>\n\t<line x1="172" y1="123" x2="163" y2="111" style="stroke:rgb(0,0,0);stroke-width:1"/>\n\t<line x1="198" y1="107" x2="190" y2="125" style="stroke:rgb(0,0,0);stroke-width:1"/>\n\t<line x1="194" y1="108" x2="188" y2="122" style="stroke:rgb(0,0,0);stroke-width:1"/>\n\t<line x1="167" y1="93" x2="186" y2="91" style="stroke:rgb(0,0,0);stroke-width:1"/>\n\t<line x1="169" y1="96" x2="184" y2="94" style="stroke:rgb(0,0,0);stroke-width:1"/>\n\t<line x1="152" y1="61" x2="152" y2="80" style="stroke:rgb(0,0,0);stroke-width:1"/>\n\t<line x1="150" y1="63" x2="150" y2="78" style="stroke:rgb(0,0,0);stroke-width:1"/>\n\t<line x1="124" y1="25" x2="136" y2="32" style="stroke:rgb(0,0,0);stroke-width:1"/>\n\t<line x1="102" y1="32" x2="114" y2="25" style="stroke:rgb(0,0,0);stroke-width:1"/>\n\t<line x1="85" y1="22" x2="102" y2="32" style="stroke:rgb(0,0,0);stroke-width:1"/>\n\t<line x1="74" y1="29" x2="85" y2="22" style="stroke:rgb(0,0,0);stroke-width:1"/>\n\t<line x1="52" y1="22" x2="63" y2="29" style="stroke:rgb(0,0,0);stroke-width:1"/>\n\t<line x1="35" y1="32" x2="52" y2="22" style="stroke:rgb(0,0,0);stroke-width:1"/>\n\t<line x1="24" y1="25" x2="35" y2="32" style="stroke:rgb(0,0,0);stroke-width:1"/>\n\t<line x1="1" y1="32" x2="13" y2="25" style="stroke:rgb(0,0,0);stroke-width:1"/>\n\t<line x1="136" y1="51" x2="136" y2="32" style="stroke:rgb(0,0,0);stroke-width:1"/>\n\t<line x1="119" y1="80" x2="119" y2="67" style="stroke:rgb(0,0,0);stroke-width:1"/>\n\t<line x1="102" y1="90" x2="119" y2="80" style="stroke:rgb(0,0,0);stroke-width:1"/>\n\t<line x1="69" y1="90" x2="85" y2="80" style="stroke:rgb(0,0,0);stroke-width:1"/>\n\t<line x1="58" y1="84" x2="69" y2="90" style="stroke:rgb(0,0,0);stroke-width:1"/>\n\t<line x1="58" y1="115" x2="69" y2="109" style="stroke:rgb(0,0,0);stroke-width:1"/>\n\t<line x1="85" y1="119" x2="69" y2="109" style="stroke:rgb(0,0,0);stroke-width:1"/>\n\t<line x1="102" y1="109" x2="102" y2="90" style="stroke:rgb(0,0,0);stroke-width:1"/>\n\t<line x1="138" y1="103" x2="136" y2="90" style="stroke:rgb(0,0,0);stroke-width:1"/>\n\t<line x1="159" y1="111" x2="145" y2="110" style="stroke:rgb(0,0,0);stroke-width:1"/>\n\t<line x1="163" y1="144" x2="170" y2="127" style="stroke:rgb(0,0,0);stroke-width:1"/>\n\t<line x1="190" y1="125" x2="170" y2="127" style="stroke:rgb(0,0,0);stroke-width:1"/>\n\t<line x1="186" y1="91" x2="198" y2="107" style="stroke:rgb(0,0,0);stroke-width:1"/>\n\t<line x1="167" y1="93" x2="159" y2="111" style="stroke:rgb(0,0,0);stroke-width:1"/>\n\t<line x1="152" y1="80" x2="167" y2="93" style="stroke:rgb(0,0,0);stroke-width:1"/>\n\t<line x1="152" y1="80" x2="136" y2="90" style="stroke:rgb(0,0,0);stroke-width:1"/>\n\t<line x1="152" y1="61" x2="136" y2="51" style="stroke:rgb(0,0,0);stroke-width:1"/>\n\t<line id="function random() { [native code] }:Bond:1-0" class="event" x1="136" y1="32" x2="152" y2="22" stroke-width="8" stroke-opacity="0"/>\n\t<line id="function random() { [native code] }:Bond:10-7" class="event" x1="35" y1="51" x2="35" y2="32" stroke-width="8" stroke-opacity="0"/>\n\t<line id="function random() { [native code] }:Bond:12-11" class="event" x1="119" y1="61" x2="136" y2="51" stroke-width="8" stroke-opacity="0"/>\n\t<line id="function random() { [native code] }:Bond:15-14" class="event" x1="85" y1="80" x2="102" y2="90" stroke-width="8" stroke-opacity="0"/>\n\t<line id="function random() { [native code] }:Bond:18-16" class="event" x1="69" y1="109" x2="69" y2="90" stroke-width="8" stroke-opacity="0"/>\n\t<line id="function random() { [native code] }:Bond:21-20" class="event" x1="102" y1="109" x2="85" y2="119" stroke-width="8" stroke-opacity="0"/>\n\t<line id="function random() { [native code] }:Bond:22-13" class="event" x1="136" y1="90" x2="119" y2="80" stroke-width="8" stroke-opacity="0"/>\n\t<line id="function random() { [native code] }:Bond:25-24" class="event" x1="170" y1="127" x2="159" y2="111" stroke-width="8" stroke-opacity="0"/>\n\t<line id="function random() { [native code] }:Bond:28-27" class="event" x1="198" y1="107" x2="190" y2="125" stroke-width="8" stroke-opacity="0"/>\n\t<line id="function random() { [native code] }:Bond:30-29" class="event" x1="167" y1="93" x2="186" y2="91" stroke-width="8" stroke-opacity="0"/>\n\t<line id="function random() { [native code] }:Bond:32-31" class="event" x1="152" y1="61" x2="152" y2="80" stroke-width="8" stroke-opacity="0"/>\n\t<line id="function random() { [native code] }:Bond:2-1" class="event" x1="119" y1="22" x2="136" y2="32" stroke-width="8" stroke-opacity="0"/>\n\t<line id="function random() { [native code] }:Bond:3-2" class="event" x1="102" y1="32" x2="119" y2="22" stroke-width="8" stroke-opacity="0"/>\n\t<line id="function random() { [native code] }:Bond:4-3" class="event" x1="85" y1="22" x2="102" y2="32" stroke-width="8" stroke-opacity="0"/>\n\t<line id="function random() { [native code] }:Bond:5-4" class="event" x1="69" y1="32" x2="85" y2="22" stroke-width="8" stroke-opacity="0"/>\n\t<line id="function random() { [native code] }:Bond:6-5" class="event" x1="52" y1="22" x2="69" y2="32" stroke-width="8" stroke-opacity="0"/>\n\t<line id="function random() { [native code] }:Bond:7-6" class="event" x1="35" y1="32" x2="52" y2="22" stroke-width="8" stroke-opacity="0"/>\n\t<line id="function random() { [native code] }:Bond:8-7" class="event" x1="18" y1="22" x2="35" y2="32" stroke-width="8" stroke-opacity="0"/>\n\t<line id="function random() { [native code] }:Bond:9-8" class="event" x1="1" y1="32" x2="18" y2="22" stroke-width="8" stroke-opacity="0"/>\n\t<line id="function random() { [native code] }:Bond:11-1" class="event" x1="136" y1="51" x2="136" y2="32" stroke-width="8" stroke-opacity="0"/>\n\t<line id="function random() { [native code] }:Bond:13-12" class="event" x1="119" y1="80" x2="119" y2="61" stroke-width="8" stroke-opacity="0"/>\n\t<line id="function random() { [native code] }:Bond:14-13" class="event" x1="102" y1="90" x2="119" y2="80" stroke-width="8" stroke-opacity="0"/>\n\t<line id="function random() { [native code] }:Bond:16-15" class="event" x1="69" y1="90" x2="85" y2="80" stroke-width="8" stroke-opacity="0"/>\n\t<line id="function random() { [native code] }:Bond:17-16" class="event" x1="52" y1="80" x2="69" y2="90" stroke-width="8" stroke-opacity="0"/>\n\t<line id="function random() { [native code] }:Bond:19-18" class="event" x1="52" y1="119" x2="69" y2="109" stroke-width="8" stroke-opacity="0"/>\n\t<line id="function random() { [native code] }:Bond:20-18" class="event" x1="85" y1="119" x2="69" y2="109" stroke-width="8" stroke-opacity="0"/>\n\t<line id="function random() { [native code] }:Bond:21-14" class="event" x1="102" y1="109" x2="102" y2="90" stroke-width="8" stroke-opacity="0"/>\n\t<line id="function random() { [native code] }:Bond:23-22" class="event" x1="140" y1="109" x2="136" y2="90" stroke-width="8" stroke-opacity="0"/>\n\t<line id="function random() { [native code] }:Bond:24-23" class="event" x1="159" y1="111" x2="140" y2="109" stroke-width="8" stroke-opacity="0"/>\n\t<line id="function random() { [native code] }:Bond:26-25" class="event" x1="163" y1="144" x2="170" y2="127" stroke-width="8" stroke-opacity="0"/>\n\t<line id="function random() { [native code] }:Bond:27-25" class="event" x1="190" y1="125" x2="170" y2="127" stroke-width="8" stroke-opacity="0"/>\n\t<line id="function random() { [native code] }:Bond:29-28" class="event" x1="186" y1="91" x2="198" y2="107" stroke-width="8" stroke-opacity="0"/>\n\t<line id="function random() { [native code] }:Bond:30-24" class="event" x1="167" y1="93" x2="159" y2="111" stroke-width="8" stroke-opacity="0"/>\n\t<line id="function random() { [native code] }:Bond:31-30" class="event" x1="152" y1="80" x2="167" y2="93" stroke-width="8" stroke-opacity="0"/>\n\t<line id="function random() { [native code] }:Bond:31-22" class="event" x1="152" y1="80" x2="136" y2="90" stroke-width="8" stroke-opacity="0"/>\n\t<line id="function random() { [native code] }:Bond:32-11" class="event" x1="152" y1="61" x2="136" y2="51" stroke-width="8" stroke-opacity="0"/>\n\t<circle id="function random() { [native code] }:Atom:0" class="event" cx="152" cy="22" r="8" fill-opacity="0"/>\n\t<circle id="function random() { [native code] }:Atom:1" class="event" cx="136" cy="32" r="8" fill-opacity="0"/>\n\t<circle id="function random() { [native code] }:Atom:2" class="event" cx="119" cy="22" r="8" fill-opacity="0"/>\n\t<circle id="function random() { [native code] }:Atom:3" class="event" cx="102" cy="32" r="8" fill-opacity="0"/>\n\t<circle id="function random() { [native code] }:Atom:4" class="event" cx="85" cy="22" r="8" fill-opacity="0"/>\n\t<circle id="function random() { [native code] }:Atom:5" class="event" cx="69" cy="32" r="8" fill-opacity="0"/>\n\t<circle id="function random() { [native code] }:Atom:6" class="event" cx="52" cy="22" r="8" fill-opacity="0"/>\n\t<circle id="function random() { [native code] }:Atom:7" class="event" cx="35" cy="32" r="8" fill-opacity="0"/>\n\t<circle id="function random() { [native code] }:Atom:8" class="event" cx="18" cy="22" r="8" fill-opacity="0"/>\n\t<circle id="function random() { [native code] }:Atom:9" class="event" cx="1" cy="32" r="8" fill-opacity="0"/>\n\t<circle id="function random() { [native code] }:Atom:10" class="event" cx="35" cy="51" r="8" fill-opacity="0"/>\n\t<circle id="function random() { [native code] }:Atom:11" class="event" cx="136" cy="51" r="8" fill-opacity="0"/>\n\t<circle id="function random() { [native code] }:Atom:12" class="event" cx="119" cy="61" r="8" fill-opacity="0"/>\n\t<circle id="function random() { [native code] }:Atom:13" class="event" cx="119" cy="80" r="8" fill-opacity="0"/>\n\t<circle id="function random() { [native code] }:Atom:14" class="event" cx="102" cy="90" r="8" fill-opacity="0"/>\n\t<circle id="function random() { [native code] }:Atom:15" class="event" cx="85" cy="80" r="8" fill-opacity="0"/>\n\t<circle id="function random() { [native code] }:Atom:16" class="event" cx="69" cy="90" r="8" fill-opacity="0"/>\n\t<circle id="function random() { [native code] }:Atom:17" class="event" cx="52" cy="80" r="8" fill-opacity="0"/>\n\t<circle id="function random() { [native code] }:Atom:18" class="event" cx="69" cy="109" r="8" fill-opacity="0"/>\n\t<circle id="function random() { [native code] }:Atom:19" class="event" cx="52" cy="119" r="8" fill-opacity="0"/>\n\t<circle id="function random() { [native code] }:Atom:20" class="event" cx="85" cy="119" r="8" fill-opacity="0"/>\n\t<circle id="function random() { [native code] }:Atom:21" class="event" cx="102" cy="109" r="8" fill-opacity="0"/>\n\t<circle id="function random() { [native code] }:Atom:22" class="event" cx="136" cy="90" r="8" fill-opacity="0"/>\n\t<circle id="function random() { [native code] }:Atom:23" class="event" cx="140" cy="109" r="8" fill-opacity="0"/>\n\t<circle id="function random() { [native code] }:Atom:24" class="event" cx="159" cy="111" r="8" fill-opacity="0"/>\n\t<circle id="function random() { [native code] }:Atom:25" class="event" cx="170" cy="127" r="8" fill-opacity="0"/>\n\t<circle id="function random() { [native code] }:Atom:26" class="event" cx="163" cy="144" r="8" fill-opacity="0"/>\n\t<circle id="function random() { [native code] }:Atom:27" class="event" cx="190" cy="125" r="8" fill-opacity="0"/>\n\t<circle id="function random() { [native code] }:Atom:28" class="event" cx="198" cy="107" r="8" fill-opacity="0"/>\n\t<circle id="function random() { [native code] }:Atom:29" class="event" cx="186" cy="91" r="8" fill-opacity="0"/>\n\t<circle id="function random() { [native code] }:Atom:30" class="event" cx="167" cy="93" r="8" fill-opacity="0"/>\n\t<circle id="function random() { [native code] }:Atom:31" class="event" cx="152" cy="80" r="8" fill-opacity="0"/>\n\t<circle id="function random() { [native code] }:Atom:32" class="event" cx="152" cy="61" r="8" fill-opacity="0"/>\n</svg>