<svg id="function random() { [native code] }" xmlns="http://www.w3.org/2000/svg" version="1.1" width="200px" height="150px" viewBox="0 0 200 150">\n\t<style> #function random() { [native code] } {pointer-events:none; }  #function random() { [native code] } .event  { pointer-events:all;}  </style>\n\t<text x="178" y="65" font-family=" Helvetica" font-weight="900" font-size="10" fill="rgb(48,80,248)">N</text>\n\t<text x="192" y="68" font-family=" Helvetica" font-weight="900" font-size="7" fill="rgb(48,80,248)">2</text>\n\t<text x="185" y="65" font-family=" Helvetica" font-weight="900" font-size="10" fill="rgb(48,80,248)">H</text>\n\t<text x="134" y="73" font-family=" Helvetica" font-weight="900" font-size="10" fill="rgb(48,80,248)">N</text>\n\t<text x="134" y="83" font-family=" Helvetica" font-weight="900" font-size="10" fill="rgb(48,80,248)">H</text>\n\t<text x="119" y="48" font-family=" Helvetica" font-weight="900" font-size="10" fill="rgb(255,13,13)">O</text>\n\t<text x="90" y="65" font-family=" Helvetica" font-weight="900" font-size="10" fill="rgb(48,80,248)">N</text>\n\t<text x="16" y="39" font-family=" Helvetica" font-weight="900" font-size="10" fill="rgb(255,13,13)">O</text>\n\t<text x="32" y="14" font-family=" Helvetica" font-weight="900" font-size="10" fill="rgb(144,224,80)">F</text>\n\t<text x="2" y="14" font-family=" Helvetica" font-weight="900" font-size="10" fill="rgb(144,224,80)">F</text>\n\t<text x="63" y="102" font-family=" Helvetica" font-weight="900" font-size="10" fill="rgb(48,80,248)">N</text>\n\t<text x="55" y="102" font-family=" Helvetica" font-weight="900" font-size="10" fill="rgb(48,80,248)">H</text>\n\t<line x1="124" y1="63" x2="124" y2="50" style="stroke:rgb(0,0,0);stroke-width:1"/>\n\t<line x1="122" y1="63" x2="122" y2="50" style="stroke:rgb(0,0,0);stroke-width:1"/>\n\t<line x1="108" y1="70" x2="98" y2="65" style="stroke:rgb(0,0,0);stroke-width:1"/>\n\t<line x1="105" y1="72" x2="97" y2="67" style="stroke:rgb(0,0,0);stroke-width:1"/>\n\t<line x1="64" y1="45" x2="64" y2="62" style="stroke:rgb(0,0,0);stroke-width:1"/>\n\t<line x1="62" y1="47" x2="62" y2="60" style="stroke:rgb(0,0,0);stroke-width:1"/>\n\t<line x1="35" y1="45" x2="49" y2="36" style="stroke:rgb(0,0,0);stroke-width:1"/>\n\t<line x1="38" y1="46" x2="49" y2="40" style="stroke:rgb(0,0,0);stroke-width:1"/>\n\t<line x1="49" y1="70" x2="35" y2="62" style="stroke:rgb(0,0,0);stroke-width:1"/>\n\t<line x1="49" y1="67" x2="38" y2="61" style="stroke:rgb(0,0,0);stroke-width:1"/>\n\t<line x1="79" y1="87" x2="79" y2="70" style="stroke:rgb(0,0,0);stroke-width:1"/>\n\t<line x1="81" y1="85" x2="81" y2="72" style="stroke:rgb(0,0,0);stroke-width:1"/>\n\t<line x1="90" y1="112" x2="73" y2="114" style="stroke:rgb(0,0,0);stroke-width:1"/>\n\t<line x1="88" y1="110" x2="75" y2="111" style="stroke:rgb(0,0,0);stroke-width:1"/>\n\t<line x1="93" y1="142" x2="100" y2="126" style="stroke:rgb(0,0,0);stroke-width:1"/>\n\t<line x1="91" y1="139" x2="97" y2="127" style="stroke:rgb(0,0,0);stroke-width:1"/>\n\t<line x1="66" y1="130" x2="76" y2="143" style="stroke:rgb(0,0,0);stroke-width:1"/>\n\t<line x1="69" y1="130" x2="77" y2="140" style="stroke:rgb(0,0,0);stroke-width:1"/>\n\t<line x1="108" y1="87" x2="93" y2="96" style="stroke:rgb(0,0,0);stroke-width:1"/>\n\t<line x1="105" y1="86" x2="94" y2="93" style="stroke:rgb(0,0,0);stroke-width:1"/>\n\t<line x1="167" y1="70" x2="177" y2="65" style="stroke:rgb(0,0,0);stroke-width:1"/>\n\t<line x1="152" y1="62" x2="167" y2="70" style="stroke:rgb(0,0,0);stroke-width:1"/>\n\t<line x1="142" y1="68" x2="152" y2="62" style="stroke:rgb(0,0,0);stroke-width:1"/>\n\t<line x1="123" y1="62" x2="133" y2="68" style="stroke:rgb(0,0,0);stroke-width:1"/>\n\t<line x1="108" y1="70" x2="123" y2="62" style="stroke:rgb(0,0,0);stroke-width:1"/>\n\t<line x1="79" y1="70" x2="89" y2="65" style="stroke:rgb(0,0,0);stroke-width:1"/>\n\t<line x1="64" y1="62" x2="79" y2="70" style="stroke:rgb(0,0,0);stroke-width:1"/>\n\t<line x1="49" y1="36" x2="64" y2="45" style="stroke:rgb(0,0,0);stroke-width:1"/>\n\t<line x1="25" y1="39" x2="35" y2="45" style="stroke:rgb(0,0,0);stroke-width:1"/>\n\t<line x1="20" y1="19" x2="20" y2="31" style="stroke:rgb(0,0,0);stroke-width:1"/>\n\t<line x1="31" y1="13" x2="20" y2="19" style="stroke:rgb(0,0,0);stroke-width:1"/>\n\t<line x1="9" y1="13" x2="20" y2="19" style="stroke:rgb(0,0,0);stroke-width:1"/>\n\t<line x1="35" y1="62" x2="35" y2="45" style="stroke:rgb(0,0,0);stroke-width:1"/>\n\t<line x1="49" y1="70" x2="64" y2="62" style="stroke:rgb(0,0,0);stroke-width:1"/>\n\t<line x1="71" y1="94" x2="79" y2="87" style="stroke:rgb(0,0,0);stroke-width:1"/>\n\t<line x1="73" y1="114" x2="68" y2="104" style="stroke:rgb(0,0,0);stroke-width:1"/>\n\t<line x1="100" y1="126" x2="90" y2="112" style="stroke:rgb(0,0,0);stroke-width:1"/>\n\t<line x1="76" y1="143" x2="93" y2="142" style="stroke:rgb(0,0,0);stroke-width:1"/>\n\t<line x1="66" y1="130" x2="73" y2="114" style="stroke:rgb(0,0,0);stroke-width:1"/>\n\t<line x1="93" y1="96" x2="90" y2="112" style="stroke:rgb(0,0,0);stroke-width:1"/>\n\t<line x1="93" y1="96" x2="79" y2="87" style="stroke:rgb(0,0,0);stroke-width:1"/>\n\t<line x1="108" y1="87" x2="108" y2="70" style="stroke:rgb(0,0,0);stroke-width:1"/>\n\t<line id="function random() { [native code] }:Bond:5-4" class="event" x1="123" y1="45" x2="123" y2="62" stroke-width="8" stroke-opacity="0"/>\n\t<line id="function random() { [native code] }:Bond:7-6" class="event" x1="93" y1="62" x2="108" y2="70" stroke-width="8" stroke-opacity="0"/>\n\t<line id="function random() { [native code] }:Bond:10-9" class="event" x1="64" y1="45" x2="64" y2="62" stroke-width="8" stroke-opacity="0"/>\n\t<line id="function random() { [native code] }:Bond:12-11" class="event" x1="35" y1="45" x2="49" y2="36" stroke-width="8" stroke-opacity="0"/>\n\t<line id="function random() { [native code] }:Bond:18-17" class="event" x1="49" y1="70" x2="35" y2="62" stroke-width="8" stroke-opacity="0"/>\n\t<line id="function random() { [native code] }:Bond:19-8" class="event" x1="79" y1="87" x2="79" y2="70" stroke-width="8" stroke-opacity="0"/>\n\t<line id="function random() { [native code] }:Bond:22-21" class="event" x1="90" y1="112" x2="73" y2="114" stroke-width="8" stroke-opacity="0"/>\n\t<line id="function random() { [native code] }:Bond:24-23" class="event" x1="93" y1="142" x2="100" y2="126" stroke-width="8" stroke-opacity="0"/>\n\t<line id="function random() { [native code] }:Bond:26-25" class="event" x1="66" y1="130" x2="76" y2="143" stroke-width="8" stroke-opacity="0"/>\n\t<line id="function random() { [native code] }:Bond:28-27" class="event" x1="108" y1="87" x2="93" y2="96" stroke-width="8" stroke-opacity="0"/>\n\t<line id="function random() { [native code] }:Bond:1-0" class="event" x1="167" y1="70" x2="182" y2="62" stroke-width="8" stroke-opacity="0"/>\n\t<line id="function random() { [native code] }:Bond:2-1" class="event" x1="152" y1="62" x2="167" y2="70" stroke-width="8" stroke-opacity="0"/>\n\t<line id="function random() { [native code] }:Bond:3-2" class="event" x1="137" y1="70" x2="152" y2="62" stroke-width="8" stroke-opacity="0"/>\n\t<line id="function random() { [native code] }:Bond:4-3" class="event" x1="123" y1="62" x2="137" y2="70" stroke-width="8" stroke-opacity="0"/>\n\t<line id="function random() { [native code] }:Bond:6-4" class="event" x1="108" y1="70" x2="123" y2="62" stroke-width="8" stroke-opacity="0"/>\n\t<line id="function random() { [native code] }:Bond:8-7" class="event" x1="79" y1="70" x2="93" y2="62" stroke-width="8" stroke-opacity="0"/>\n\t<line id="function random() { [native code] }:Bond:9-8" class="event" x1="64" y1="62" x2="79" y2="70" stroke-width="8" stroke-opacity="0"/>\n\t<line id="function random() { [native code] }:Bond:11-10" class="event" x1="49" y1="36" x2="64" y2="45" stroke-width="8" stroke-opacity="0"/>\n\t<line id="function random() { [native code] }:Bond:13-12" class="event" x1="20" y1="36" x2="35" y2="45" stroke-width="8" stroke-opacity="0"/>\n\t<line id="function random() { [native code] }:Bond:14-13" class="event" x1="20" y1="19" x2="20" y2="36" stroke-width="8" stroke-opacity="0"/>\n\t<line id="function random() { [native code] }:Bond:15-14" class="event" x1="35" y1="11" x2="20" y2="19" stroke-width="8" stroke-opacity="0"/>\n\t<line id="function random() { [native code] }:Bond:16-14" class="event" x1="5" y1="11" x2="20" y2="19" stroke-width="8" stroke-opacity="0"/>\n\t<line id="function random() { [native code] }:Bond:17-12" class="event" x1="35" y1="62" x2="35" y2="45" stroke-width="8" stroke-opacity="0"/>\n\t<line id="function random() { [native code] }:Bond:18-9" class="event" x1="49" y1="70" x2="64" y2="62" stroke-width="8" stroke-opacity="0"/>\n\t<line id="function random() { [native code] }:Bond:20-19" class="event" x1="66" y1="99" x2="79" y2="87" stroke-width="8" stroke-opacity="0"/>\n\t<line id="function random() { [native code] }:Bond:21-20" class="event" x1="73" y1="114" x2="66" y2="99" stroke-width="8" stroke-opacity="0"/>\n\t<line id="function random() { [native code] }:Bond:23-22" class="event" x1="100" y1="126" x2="90" y2="112" stroke-width="8" stroke-opacity="0"/>\n\t<line id="function random() { [native code] }:Bond:25-24" class="event" x1="76" y1="143" x2="93" y2="142" stroke-width="8" stroke-opacity="0"/>\n\t<line id="function random() { [native code] }:Bond:26-21" class="event" x1="66" y1="130" x2="73" y2="114" stroke-width="8" stroke-opacity="0"/>\n\t<line id="function random() { [native code] }:Bond:27-22" class="event" x1="93" y1="96" x2="90" y2="112" stroke-width="8" stroke-opacity="0"/>\n\t<line id="function random() { [native code] }:Bond:27-19" class="event" x1="93" y1="96" x2="79" y2="87" stroke-width="8" stroke-opacity="0"/>\n\t<line id="function random() { [native code] }:Bond:28-6" class="event" x1="108" y1="87" x2="108" y2="70" stroke-width="8" stroke-opacity="0"/>\n\t<circle id="function random() { [native code] }:Atom:0" class="event" cx="182" cy="62" r="8" fill-opacity="0"/>\n\t<circle id="function random() { [native code] }:Atom:1" class="event" cx="167" cy="70" r="8" fill-opacity="0"/>\n\t<circle id="function random() { [native code] }:Atom:2" class="event" cx="152" cy="62" r="8" fill-opacity="0"/>\n\t<circle id="function random() { [native code] }:Atom:3" class="event" cx="137" cy="70" r="8" fill-opacity="0"/>\n\t<circle id="function random() { [native code] }:Atom:4" class="event" cx="123" cy="62" r="8" fill-opacity="0"/>\n\t<circle id="function random() { [native code] }:Atom:5" class="event" cx="123" cy="45" r="8" fill-opacity="0"/>\n\t<circle id="function random() { [native code] }:Atom:6" class="event" cx="108" cy="70" r="8" fill-opacity="0"/>\n\t<circle id="function random() { [native code] }:Atom:7" class="event" cx="93" cy="62" r="8" fill-opacity="0"/>\n\t<circle id="function random() { [native code] }:Atom:8" class="event" cx="79" cy="70" r="8" fill-opacity="0"/>\n\t<circle id="function random() { [native code] }:Atom:9" class="event" cx="64" cy="62" r="8" fill-opacity="0"/>\n\t<circle id="function random() { [native code] }:Atom:10" class="event" cx="64" cy="45" r="8" fill-opacity="0"/>\n\t<circle id="function random() { [native code] }:Atom:11" class="event" cx="49" cy="36" r="8" fill-opacity="0"/>\n\t<circle id="function random() { [native code] }:Atom:12" class="event" cx="35" cy="45" r="8" fill-opacity="0"/>\n\t<circle id="function random() { [native code] }:Atom:13" class="event" cx="20" cy="36" r="8" fill-opacity="0"/>\n\t<circle id="function random() { [native code] }:Atom:14" class="event" cx="20" cy="19" r="8" fill-opacity="0"/>\n\t<circle id="function random() { [native code] }:Atom:15" class="event" cx="35" cy="11" r="8" fill-opacity="0"/>\n\t<circle id="function random() { [native code] }:Atom:16" class="event" cx="5" cy="11" r="8" fill-opacity="0"/>\n\t<circle id="function random() { [native code] }:Atom:17" class="event" cx="35" cy="62" r="8" fill-opacity="0"/>\n\t<circle id="function random() { [native code] }:Atom:18" class="event" cx="49" cy="70" r="8" fill-opacity="0"/>\n\t<circle id="function random() { [native code] }:Atom:19" class="event" cx="79" cy="87" r="8" fill-opacity="0"/>\n\t<circle id="function random() { [native code] }:Atom:20" class="event" cx="66" cy="99" r="8" fill-opacity="0"/>\n\t<circle id="function random() { [native code] }:Atom:21" class="event" cx="73" cy="114" r="8" fill-opacity="0"/>\n\t<circle id="function random() { [native code] }:Atom:22" class="event" cx="90" cy="112" r="8" fill-opacity="0"/>\n\t<circle id="function random() { [native code] }:Atom:23" class="event" cx="100" cy="126" r="8" fill-opacity="0"/>\n\t<circle id="function random() { [native code] }:Atom:24" class="event" cx="93" cy="142" r="8" fill-opacity="0"/>\n\t<circle id="function random() { [native code] }:Atom:25" class="event" cx="76" cy="143" r="8" fill-opacity="0"/>\n\t<circle id="function random() { [native code] }:Atom:26" class="event" cx="66" cy="130" r="8" fill-opacity="0"/>\n\t<circle id="function random() { [native code] }:Atom:27" class="event" cx="93" cy="96" r="8" fill-opacity="0"/>\n\t<circle id="function random() { [native code] }:Atom:28" class="event" cx="108" cy="87" r="8" fill-opacity="0"/>\n</svg>