<svg id="function random() { [native code] }" xmlns="http://www.w3.org/2000/svg" version="1.1" width="200px" height="150px" viewBox="0 0 200 150">\n\t<style> #function random() { [native code] } {pointer-events:none; }  #function random() { [native code] } .event  { pointer-events:all;}  </style>\n\t<text x="170" y="59" font-family=" Helvetica" font-weight="900" font-size="12" fill="rgb(48,80,248)">N</text>\n\t<text x="187" y="61" font-family=" Helvetica" font-weight="900" font-size="8" fill="rgb(48,80,248)">2</text>\n\t<text x="178" y="59" font-family=" Helvetica" font-weight="900" font-size="12" fill="rgb(48,80,248)">H</text>\n\t<text x="120" y="69" font-family=" Helvetica" font-weight="900" font-size="12" fill="rgb(48,80,248)">N</text>\n\t<text x="120" y="81" font-family=" Helvetica" font-weight="900" font-size="12" fill="rgb(48,80,248)">H</text>\n\t<text x="103" y="40" font-family=" Helvetica" font-weight="900" font-size="12" fill="rgb(255,13,13)">O</text>\n\t<text x="70" y="59" font-family=" Helvetica" font-weight="900" font-size="12" fill="rgb(48,80,248)">N</text>\n\t<text x="21" y="11" font-family=" Helvetica" font-weight="900" font-size="12" fill="rgb(144,224,80)">F</text>\n\t<text x="39" y="101" font-family=" Helvetica" font-weight="900" font-size="12" fill="rgb(48,80,248)">N</text>\n\t<text x="30" y="101" font-family=" Helvetica" font-weight="900" font-size="12" fill="rgb(48,80,248)">H</text>\n\t<line x1="109" y1="56" x2="109" y2="42" style="stroke:rgb(0,0,0);stroke-width:1"/>\n\t<line x1="106" y1="56" x2="106" y2="42" style="stroke:rgb(0,0,0);stroke-width:1"/>\n\t<line x1="91" y1="65" x2="80" y2="58" style="stroke:rgb(0,0,0);stroke-width:1"/>\n\t<line x1="88" y1="66" x2="79" y2="61" style="stroke:rgb(0,0,0);stroke-width:1"/>\n\t<line x1="41" y1="36" x2="41" y2="55" style="stroke:rgb(0,0,0);stroke-width:1"/>\n\t<line x1="38" y1="38" x2="38" y2="53" style="stroke:rgb(0,0,0);stroke-width:1"/>\n\t<line x1="8" y1="36" x2="24" y2="26" style="stroke:rgb(0,0,0);stroke-width:1"/>\n\t<line x1="11" y1="37" x2="24" y2="30" style="stroke:rgb(0,0,0);stroke-width:1"/>\n\t<line x1="24" y1="65" x2="8" y2="55" style="stroke:rgb(0,0,0);stroke-width:1"/>\n\t<line x1="24" y1="61" x2="11" y2="54" style="stroke:rgb(0,0,0);stroke-width:1"/>\n\t<line x1="58" y1="84" x2="58" y2="65" style="stroke:rgb(0,0,0);stroke-width:1"/>\n\t<line x1="60" y1="82" x2="60" y2="67" style="stroke:rgb(0,0,0);stroke-width:1"/>\n\t<line x1="70" y1="112" x2="51" y2="114" style="stroke:rgb(0,0,0);stroke-width:1"/>\n\t<line x1="67" y1="110" x2="53" y2="111" style="stroke:rgb(0,0,0);stroke-width:1"/>\n\t<line x1="74" y1="146" x2="82" y2="128" style="stroke:rgb(0,0,0);stroke-width:1"/>\n\t<line x1="72" y1="143" x2="78" y2="129" style="stroke:rgb(0,0,0);stroke-width:1"/>\n\t<line x1="43" y1="132" x2="55" y2="148" style="stroke:rgb(0,0,0);stroke-width:1"/>\n\t<line x1="47" y1="132" x2="56" y2="144" style="stroke:rgb(0,0,0);stroke-width:1"/>\n\t<line x1="91" y1="84" x2="74" y2="94" style="stroke:rgb(0,0,0);stroke-width:1"/>\n\t<line x1="88" y1="83" x2="75" y2="90" style="stroke:rgb(0,0,0);stroke-width:1"/>\n\t<line x1="157" y1="65" x2="169" y2="58" style="stroke:rgb(0,0,0);stroke-width:1"/>\n\t<line x1="141" y1="55" x2="157" y2="65" style="stroke:rgb(0,0,0);stroke-width:1"/>\n\t<line x1="130" y1="62" x2="141" y2="55" style="stroke:rgb(0,0,0);stroke-width:1"/>\n\t<line x1="108" y1="55" x2="119" y2="62" style="stroke:rgb(0,0,0);stroke-width:1"/>\n\t<line x1="91" y1="65" x2="108" y2="55" style="stroke:rgb(0,0,0);stroke-width:1"/>\n\t<line x1="58" y1="65" x2="69" y2="58" style="stroke:rgb(0,0,0);stroke-width:1"/>\n\t<line x1="41" y1="55" x2="58" y2="65" style="stroke:rgb(0,0,0);stroke-width:1"/>\n\t<line x1="24" y1="26" x2="41" y2="36" style="stroke:rgb(0,0,0);stroke-width:1"/>\n\t<line x1="24" y1="13" x2="24" y2="26" style="stroke:rgb(0,0,0);stroke-width:1"/>\n\t<line x1="8" y1="55" x2="8" y2="36" style="stroke:rgb(0,0,0);stroke-width:1"/>\n\t<line x1="24" y1="65" x2="41" y2="55" style="stroke:rgb(0,0,0);stroke-width:1"/>\n\t<line x1="49" y1="92" x2="58" y2="84" style="stroke:rgb(0,0,0);stroke-width:1"/>\n\t<line x1="51" y1="114" x2="46" y2="103" style="stroke:rgb(0,0,0);stroke-width:1"/>\n\t<line x1="82" y1="128" x2="70" y2="112" style="stroke:rgb(0,0,0);stroke-width:1"/>\n\t<line x1="55" y1="148" x2="74" y2="146" style="stroke:rgb(0,0,0);stroke-width:1"/>\n\t<line x1="43" y1="132" x2="51" y2="114" style="stroke:rgb(0,0,0);stroke-width:1"/>\n\t<line x1="74" y1="94" x2="70" y2="112" style="stroke:rgb(0,0,0);stroke-width:1"/>\n\t<line x1="74" y1="94" x2="58" y2="84" style="stroke:rgb(0,0,0);stroke-width:1"/>\n\t<line x1="91" y1="84" x2="91" y2="65" style="stroke:rgb(0,0,0);stroke-width:1"/>\n\t<line id="function random() { [native code] }:Bond:5-4" class="event" x1="108" y1="36" x2="108" y2="55" stroke-width="8" stroke-opacity="0"/>\n\t<line id="function random() { [native code] }:Bond:7-6" class="event" x1="74" y1="55" x2="91" y2="65" stroke-width="8" stroke-opacity="0"/>\n\t<line id="function random() { [native code] }:Bond:10-9" class="event" x1="41" y1="36" x2="41" y2="55" stroke-width="8" stroke-opacity="0"/>\n\t<line id="function random() { [native code] }:Bond:13-11" class="event" x1="8" y1="36" x2="24" y2="26" stroke-width="8" stroke-opacity="0"/>\n\t<line id="function random() { [native code] }:Bond:15-14" class="event" x1="24" y1="65" x2="8" y2="55" stroke-width="8" stroke-opacity="0"/>\n\t<line id="function random() { [native code] }:Bond:16-8" class="event" x1="58" y1="84" x2="58" y2="65" stroke-width="8" stroke-opacity="0"/>\n\t<line id="function random() { [native code] }:Bond:19-18" class="event" x1="70" y1="112" x2="51" y2="114" stroke-width="8" stroke-opacity="0"/>\n\t<line id="function random() { [native code] }:Bond:21-20" class="event" x1="74" y1="146" x2="82" y2="128" stroke-width="8" stroke-opacity="0"/>\n\t<line id="function random() { [native code] }:Bond:23-22" class="event" x1="43" y1="132" x2="55" y2="148" stroke-width="8" stroke-opacity="0"/>\n\t<line id="function random() { [native code] }:Bond:25-24" class="event" x1="91" y1="84" x2="74" y2="94" stroke-width="8" stroke-opacity="0"/>\n\t<line id="function random() { [native code] }:Bond:1-0" class="event" x1="157" y1="65" x2="174" y2="55" stroke-width="8" stroke-opacity="0"/>\n\t<line id="function random() { [native code] }:Bond:2-1" class="event" x1="141" y1="55" x2="157" y2="65" stroke-width="8" stroke-opacity="0"/>\n\t<line id="function random() { [native code] }:Bond:3-2" class="event" x1="124" y1="65" x2="141" y2="55" stroke-width="8" stroke-opacity="0"/>\n\t<line id="function random() { [native code] }:Bond:4-3" class="event" x1="108" y1="55" x2="124" y2="65" stroke-width="8" stroke-opacity="0"/>\n\t<line id="function random() { [native code] }:Bond:6-4" class="event" x1="91" y1="65" x2="108" y2="55" stroke-width="8" stroke-opacity="0"/>\n\t<line id="function random() { [native code] }:Bond:8-7" class="event" x1="58" y1="65" x2="74" y2="55" stroke-width="8" stroke-opacity="0"/>\n\t<line id="function random() { [native code] }:Bond:9-8" class="event" x1="41" y1="55" x2="58" y2="65" stroke-width="8" stroke-opacity="0"/>\n\t<line id="function random() { [native code] }:Bond:11-10" class="event" x1="24" y1="26" x2="41" y2="36" stroke-width="8" stroke-opacity="0"/>\n\t<line id="function random() { [native code] }:Bond:12-11" class="event" x1="24" y1="7" x2="24" y2="26" stroke-width="8" stroke-opacity="0"/>\n\t<line id="function random() { [native code] }:Bond:14-13" class="event" x1="8" y1="55" x2="8" y2="36" stroke-width="8" stroke-opacity="0"/>\n\t<line id="function random() { [native code] }:Bond:15-9" class="event" x1="24" y1="65" x2="41" y2="55" stroke-width="8" stroke-opacity="0"/>\n\t<line id="function random() { [native code] }:Bond:17-16" class="event" x1="43" y1="97" x2="58" y2="84" stroke-width="8" stroke-opacity="0"/>\n\t<line id="function random() { [native code] }:Bond:18-17" class="event" x1="51" y1="114" x2="43" y2="97" stroke-width="8" stroke-opacity="0"/>\n\t<line id="function random() { [native code] }:Bond:20-19" class="event" x1="82" y1="128" x2="70" y2="112" stroke-width="8" stroke-opacity="0"/>\n\t<line id="function random() { [native code] }:Bond:22-21" class="event" x1="55" y1="148" x2="74" y2="146" stroke-width="8" stroke-opacity="0"/>\n\t<line id="function random() { [native code] }:Bond:23-18" class="event" x1="43" y1="132" x2="51" y2="114" stroke-width="8" stroke-opacity="0"/>\n\t<line id="function random() { [native code] }:Bond:24-19" class="event" x1="74" y1="94" x2="70" y2="112" stroke-width="8" stroke-opacity="0"/>\n\t<line id="function random() { [native code] }:Bond:24-16" class="event" x1="74" y1="94" x2="58" y2="84" stroke-width="8" stroke-opacity="0"/>\n\t<line id="function random() { [native code] }:Bond:25-6" class="event" x1="91" y1="84" x2="91" y2="65" stroke-width="8" stroke-opacity="0"/>\n\t<circle id="function random() { [native code] }:Atom:0" class="event" cx="174" cy="55" r="8" fill-opacity="0"/>\n\t<circle id="function random() { [native code] }:Atom:1" class="event" cx="157" cy="65" r="8" fill-opacity="0"/>\n\t<circle id="function random() { [native code] }:Atom:2" class="event" cx="141" cy="55" r="8" fill-opacity="0"/>\n\t<circle id="function random() { [native code] }:Atom:3" class="event" cx="124" cy="65" r="8" fill-opacity="0"/>\n\t<circle id="function random() { [native code] }:Atom:4" class="event" cx="108" cy="55" r="8" fill-opacity="0"/>\n\t<circle id="function random() { [native code] }:Atom:5" class="event" cx="108" cy="36" r="8" fill-opacity="0"/>\n\t<circle id="function random() { [native code] }:Atom:6" class="event" cx="91" cy="65" r="8" fill-opacity="0"/>\n\t<circle id="function random() { [native code] }:Atom:7" class="event" cx="74" cy="55" r="8" fill-opacity="0"/>\n\t<circle id="function random() { [native code] }:Atom:8" class="event" cx="58" cy="65" r="8" fill-opacity="0"/>\n\t<circle id="function random() { [native code] }:Atom:9" class="event" cx="41" cy="55" r="8" fill-opacity="0"/>\n\t<circle id="function random() { [native code] }:Atom:10" class="event" cx="41" cy="36" r="8" fill-opacity="0"/>\n\t<circle id="function random() { [native code] }:Atom:11" class="event" cx="24" cy="26" r="8" fill-opacity="0"/>\n\t<circle id="function random() { [native code] }:Atom:12" class="event" cx="24" cy="7" r="8" fill-opacity="0"/>\n\t<circle id="function random() { [native code] }:Atom:13" class="event" cx="8" cy="36" r="8" fill-opacity="0"/>\n\t<circle id="function random() { [native code] }:Atom:14" class="event" cx="8" cy="55" r="8" fill-opacity="0"/>\n\t<circle id="function random() { [native code] }:Atom:15" class="event" cx="24" cy="65" r="8" fill-opacity="0"/>\n\t<circle id="function random() { [native code] }:Atom:16" class="event" cx="58" cy="84" r="8" fill-opacity="0"/>\n\t<circle id="function random() { [native code] }:Atom:17" class="event" cx="43" cy="97" r="8" fill-opacity="0"/>\n\t<circle id="function random() { [native code] }:Atom:18" class="event" cx="51" cy="114" r="8" fill-opacity="0"/>\n\t<circle id="function random() { [native code] }:Atom:19" class="event" cx="70" cy="112" r="8" fill-opacity="0"/>\n\t<circle id="function random() { [native code] }:Atom:20" class="event" cx="82" cy="128" r="8" fill-opacity="0"/>\n\t<circle id="function random() { [native code] }:Atom:21" class="event" cx="74" cy="146" r="8" fill-opacity="0"/>\n\t<circle id="function random() { [native code] }:Atom:22" class="event" cx="55" cy="148" r="8" fill-opacity="0"/>\n\t<circle id="function random() { [native code] }:Atom:23" class="event" cx="43" cy="132" r="8" fill-opacity="0"/>\n\t<circle id="function random() { [native code] }:Atom:24" class="event" cx="74" cy="94" r="8" fill-opacity="0"/>\n\t<circle id="function random() { [native code] }:Atom:25" class="event" cx="91" cy="84" r="8" fill-opacity="0"/>\n</svg>