<svg id="function random() { [native code] }" xmlns="http://www.w3.org/2000/svg" version="1.1" width="200px" height="150px" viewBox="0 0 200 150">\n\t<style> #function random() { [native code] } {pointer-events:none; }  #function random() { [native code] } .event  { pointer-events:all;}  </style>\n\t<text x="138" y="90" font-family=" Helvetica" font-weight="900" font-size="11" fill="rgb(48,80,248)">N</text>\n\t<text x="146" y="90" font-family=" Helvetica" font-weight="900" font-size="11" fill="rgb(48,80,248)">H</text>\n\t<text x="108" y="50" font-family=" Helvetica" font-weight="900" font-size="11" fill="rgb(48,80,248)">N</text>\n\t<text x="186" y="59" font-family=" Helvetica" font-weight="900" font-size="11" fill="rgb(31,240,31)">Cl</text>\n\t<text x="186" y="23" font-family=" Helvetica" font-weight="900" font-size="11" fill="rgb(31,240,31)">Cl</text>\n\t<text x="61" y="59" font-family=" Helvetica" font-weight="900" font-size="11" fill="rgb(48,80,248)">N</text>\n\t<text x="61" y="70" font-family=" Helvetica" font-weight="900" font-size="11" fill="rgb(48,80,248)">H</text>\n\t<text x="13" y="50" font-family=" Helvetica" font-weight="900" font-size="11" fill="rgb(48,80,248)">N</text>\n\t<text x="76" y="32" font-family=" Helvetica" font-weight="900" font-size="11" fill="rgb(255,13,13)">O</text>\n\t<line x1="134" y1="103" x2="142" y2="120" style="stroke:rgb(0,0,0);stroke-width:1"/>\n\t<line x1="132" y1="106" x2="138" y2="120" style="stroke:rgb(0,0,0);stroke-width:1"/>\n\t<line x1="112" y1="84" x2="128" y2="75" style="stroke:rgb(0,0,0);stroke-width:1"/>\n\t<line x1="116" y1="85" x2="127" y2="78" style="stroke:rgb(0,0,0);stroke-width:1"/>\n\t<line x1="105" y1="116" x2="116" y2="102" style="stroke:rgb(0,0,0);stroke-width:1"/>\n\t<line x1="109" y1="116" x2="117" y2="105" style="stroke:rgb(0,0,0);stroke-width:1"/>\n\t<line x1="131" y1="135" x2="113" y2="133" style="stroke:rgb(0,0,0);stroke-width:1"/>\n\t<line x1="129" y1="132" x2="115" y2="131" style="stroke:rgb(0,0,0);stroke-width:1"/>\n\t<line x1="96" y1="56" x2="96" y2="75" style="stroke:rgb(0,0,0);stroke-width:1"/>\n\t<line x1="99" y1="58" x2="99" y2="73" style="stroke:rgb(0,0,0);stroke-width:1"/>\n\t<line x1="128" y1="56" x2="117" y2="50" style="stroke:rgb(0,0,0);stroke-width:1"/>\n\t<line x1="125" y1="58" x2="116" y2="52" style="stroke:rgb(0,0,0);stroke-width:1"/>\n\t<line x1="160" y1="56" x2="144" y2="47" style="stroke:rgb(0,0,0);stroke-width:1"/>\n\t<line x1="159" y1="53" x2="147" y2="46" style="stroke:rgb(0,0,0);stroke-width:1"/>\n\t<line x1="176" y1="29" x2="176" y2="47" style="stroke:rgb(0,0,0);stroke-width:1"/>\n\t<line x1="173" y1="31" x2="173" y2="45" style="stroke:rgb(0,0,0);stroke-width:1"/>\n\t<line x1="144" y1="29" x2="160" y2="20" style="stroke:rgb(0,0,0);stroke-width:1"/>\n\t<line x1="147" y1="30" x2="159" y2="23" style="stroke:rgb(0,0,0);stroke-width:1"/>\n\t<line x1="82" y1="48" x2="82" y2="34" style="stroke:rgb(0,0,0);stroke-width:1"/>\n\t<line x1="79" y1="48" x2="79" y2="34" style="stroke:rgb(0,0,0);stroke-width:1"/>\n\t<line x1="142" y1="120" x2="160" y2="122" style="stroke:rgb(0,0,0);stroke-width:1"/>\n\t<line x1="139" y1="92" x2="134" y2="103" style="stroke:rgb(0,0,0);stroke-width:1"/>\n\t<line x1="128" y1="75" x2="137" y2="82" style="stroke:rgb(0,0,0);stroke-width:1"/>\n\t<line x1="116" y1="102" x2="112" y2="84" style="stroke:rgb(0,0,0);stroke-width:1"/>\n\t<line x1="116" y1="102" x2="134" y2="103" style="stroke:rgb(0,0,0);stroke-width:1"/>\n\t<line x1="113" y1="133" x2="105" y2="116" style="stroke:rgb(0,0,0);stroke-width:1"/>\n\t<line x1="131" y1="135" x2="142" y2="120" style="stroke:rgb(0,0,0);stroke-width:1"/>\n\t<line x1="96" y1="75" x2="112" y2="84" style="stroke:rgb(0,0,0);stroke-width:1"/>\n\t<line x1="107" y1="50" x2="96" y2="56" style="stroke:rgb(0,0,0);stroke-width:1"/>\n\t<line x1="128" y1="56" x2="128" y2="75" style="stroke:rgb(0,0,0);stroke-width:1"/>\n\t<line x1="144" y1="47" x2="128" y2="56" style="stroke:rgb(0,0,0);stroke-width:1"/>\n\t<line x1="176" y1="47" x2="160" y2="56" style="stroke:rgb(0,0,0);stroke-width:1"/>\n\t<line x1="185" y1="53" x2="176" y2="47" style="stroke:rgb(0,0,0);stroke-width:1"/>\n\t<line x1="160" y1="20" x2="176" y2="29" style="stroke:rgb(0,0,0);stroke-width:1"/>\n\t<line x1="144" y1="29" x2="144" y2="47" style="stroke:rgb(0,0,0);stroke-width:1"/>\n\t<line x1="185" y1="23" x2="176" y2="29" style="stroke:rgb(0,0,0);stroke-width:1"/>\n\t<line x1="81" y1="47" x2="96" y2="56" style="stroke:rgb(0,0,0);stroke-width:1"/>\n\t<line x1="70" y1="53" x2="81" y2="47" style="stroke:rgb(0,0,0);stroke-width:1"/>\n\t<line x1="49" y1="47" x2="60" y2="53" style="stroke:rgb(0,0,0);stroke-width:1"/>\n\t<line x1="33" y1="56" x2="49" y2="47" style="stroke:rgb(0,0,0);stroke-width:1"/>\n\t<line x1="22" y1="50" x2="33" y2="56" style="stroke:rgb(0,0,0);stroke-width:1"/>\n\t<line x1="17" y1="29" x2="17" y2="42" style="stroke:rgb(0,0,0);stroke-width:1"/>\n\t<line x1="1" y1="56" x2="12" y2="50" style="stroke:rgb(0,0,0);stroke-width:1"/>\n\t<line id="function random() { [native code] }:Bond:2-1" class="event" x1="134" y1="103" x2="142" y2="120" stroke-width="8" stroke-opacity="0"/>\n\t<line id="function random() { [native code] }:Bond:5-4" class="event" x1="112" y1="84" x2="128" y2="75" stroke-width="8" stroke-opacity="0"/>\n\t<line id="function random() { [native code] }:Bond:7-6" class="event" x1="105" y1="116" x2="116" y2="102" stroke-width="8" stroke-opacity="0"/>\n\t<line id="function random() { [native code] }:Bond:9-8" class="event" x1="131" y1="135" x2="113" y2="133" stroke-width="8" stroke-opacity="0"/>\n\t<line id="function random() { [native code] }:Bond:11-10" class="event" x1="96" y1="56" x2="96" y2="75" stroke-width="8" stroke-opacity="0"/>\n\t<line id="function random() { [native code] }:Bond:13-12" class="event" x1="128" y1="56" x2="112" y2="47" stroke-width="8" stroke-opacity="0"/>\n\t<line id="function random() { [native code] }:Bond:15-14" class="event" x1="160" y1="56" x2="144" y2="47" stroke-width="8" stroke-opacity="0"/>\n\t<line id="function random() { [native code] }:Bond:18-16" class="event" x1="176" y1="29" x2="176" y2="47" stroke-width="8" stroke-opacity="0"/>\n\t<line id="function random() { [native code] }:Bond:20-19" class="event" x1="144" y1="29" x2="160" y2="20" stroke-width="8" stroke-opacity="0"/>\n\t<line id="function random() { [native code] }:Bond:29-22" class="event" x1="81" y1="29" x2="81" y2="47" stroke-width="8" stroke-opacity="0"/>\n\t<line id="function random() { [native code] }:Bond:1-0" class="event" x1="142" y1="120" x2="160" y2="122" stroke-width="8" stroke-opacity="0"/>\n\t<line id="function random() { [native code] }:Bond:3-2" class="event" x1="142" y1="87" x2="134" y2="103" stroke-width="8" stroke-opacity="0"/>\n\t<line id="function random() { [native code] }:Bond:4-3" class="event" x1="128" y1="75" x2="142" y2="87" stroke-width="8" stroke-opacity="0"/>\n\t<line id="function random() { [native code] }:Bond:6-5" class="event" x1="116" y1="102" x2="112" y2="84" stroke-width="8" stroke-opacity="0"/>\n\t<line id="function random() { [native code] }:Bond:6-2" class="event" x1="116" y1="102" x2="134" y2="103" stroke-width="8" stroke-opacity="0"/>\n\t<line id="function random() { [native code] }:Bond:8-7" class="event" x1="113" y1="133" x2="105" y2="116" stroke-width="8" stroke-opacity="0"/>\n\t<line id="function random() { [native code] }:Bond:9-1" class="event" x1="131" y1="135" x2="142" y2="120" stroke-width="8" stroke-opacity="0"/>\n\t<line id="function random() { [native code] }:Bond:10-5" class="event" x1="96" y1="75" x2="112" y2="84" stroke-width="8" stroke-opacity="0"/>\n\t<line id="function random() { [native code] }:Bond:12-11" class="event" x1="112" y1="47" x2="96" y2="56" stroke-width="8" stroke-opacity="0"/>\n\t<line id="function random() { [native code] }:Bond:13-4" class="event" x1="128" y1="56" x2="128" y2="75" stroke-width="8" stroke-opacity="0"/>\n\t<line id="function random() { [native code] }:Bond:14-13" class="event" x1="144" y1="47" x2="128" y2="56" stroke-width="8" stroke-opacity="0"/>\n\t<line id="function random() { [native code] }:Bond:16-15" class="event" x1="176" y1="47" x2="160" y2="56" stroke-width="8" stroke-opacity="0"/>\n\t<line id="function random() { [native code] }:Bond:17-16" class="event" x1="191" y1="56" x2="176" y2="47" stroke-width="8" stroke-opacity="0"/>\n\t<line id="function random() { [native code] }:Bond:19-18" class="event" x1="160" y1="20" x2="176" y2="29" stroke-width="8" stroke-opacity="0"/>\n\t<line id="function random() { [native code] }:Bond:20-14" class="event" x1="144" y1="29" x2="144" y2="47" stroke-width="8" stroke-opacity="0"/>\n\t<line id="function random() { [native code] }:Bond:21-18" class="event" x1="191" y1="20" x2="176" y2="29" stroke-width="8" stroke-opacity="0"/>\n\t<line id="function random() { [native code] }:Bond:22-11" class="event" x1="81" y1="47" x2="96" y2="56" stroke-width="8" stroke-opacity="0"/>\n\t<line id="function random() { [native code] }:Bond:23-22" class="event" x1="65" y1="56" x2="81" y2="47" stroke-width="8" stroke-opacity="0"/>\n\t<line id="function random() { [native code] }:Bond:24-23" class="event" x1="49" y1="47" x2="65" y2="56" stroke-width="8" stroke-opacity="0"/>\n\t<line id="function random() { [native code] }:Bond:25-24" class="event" x1="33" y1="56" x2="49" y2="47" stroke-width="8" stroke-opacity="0"/>\n\t<line id="function random() { [native code] }:Bond:26-25" class="event" x1="17" y1="47" x2="33" y2="56" stroke-width="8" stroke-opacity="0"/>\n\t<line id="function random() { [native code] }:Bond:27-26" class="event" x1="17" y1="29" x2="17" y2="47" stroke-width="8" stroke-opacity="0"/>\n\t<line id="function random() { [native code] }:Bond:28-26" class="event" x1="1" y1="56" x2="17" y2="47" stroke-width="8" stroke-opacity="0"/>\n\t<circle id="function random() { [native code] }:Atom:0" class="event" cx="160" cy="122" r="8" fill-opacity="0"/>\n\t<circle id="function random() { [native code] }:Atom:1" class="event" cx="142" cy="120" r="8" fill-opacity="0"/>\n\t<circle id="function random() { [native code] }:Atom:2" class="event" cx="134" cy="103" r="8" fill-opacity="0"/>\n\t<circle id="function random() { [native code] }:Atom:3" class="event" cx="142" cy="87" r="8" fill-opacity="0"/>\n\t<circle id="function random() { [native code] }:Atom:4" class="event" cx="128" cy="75" r="8" fill-opacity="0"/>\n\t<circle id="function random() { [native code] }:Atom:5" class="event" cx="112" cy="84" r="8" fill-opacity="0"/>\n\t<circle id="function random() { [native code] }:Atom:6" class="event" cx="116" cy="102" r="8" fill-opacity="0"/>\n\t<circle id="function random() { [native code] }:Atom:7" class="event" cx="105" cy="116" r="8" fill-opacity="0"/>\n\t<circle id="function random() { [native code] }:Atom:8" class="event" cx="113" cy="133" r="8" fill-opacity="0"/>\n\t<circle id="function random() { [native code] }:Atom:9" class="event" cx="131" cy="135" r="8" fill-opacity="0"/>\n\t<circle id="function random() { [native code] }:Atom:10" class="event" cx="96" cy="75" r="8" fill-opacity="0"/>\n\t<circle id="function random() { [native code] }:Atom:11" class="event" cx="96" cy="56" r="8" fill-opacity="0"/>\n\t<circle id="function random() { [native code] }:Atom:12" class="event" cx="112" cy="47" r="8" fill-opacity="0"/>\n\t<circle id="function random() { [native code] }:Atom:13" class="event" cx="128" cy="56" r="8" fill-opacity="0"/>\n\t<circle id="function random() { [native code] }:Atom:14" class="event" cx="144" cy="47" r="8" fill-opacity="0"/>\n\t<circle id="function random() { [native code] }:Atom:15" class="event" cx="160" cy="56" r="8" fill-opacity="0"/>\n\t<circle id="function random() { [native code] }:Atom:16" class="event" cx="176" cy="47" r="8" fill-opacity="0"/>\n\t<circle id="function random() { [native code] }:Atom:17" class="event" cx="191" cy="56" r="8" fill-opacity="0"/>\n\t<circle id="function random() { [native code] }:Atom:18" class="event" cx="176" cy="29" r="8" fill-opacity="0"/>\n\t<circle id="function random() { [native code] }:Atom:19" class="event" cx="160" cy="20" r="8" fill-opacity="0"/>\n\t<circle id="function random() { [native code] }:Atom:20" class="event" cx="144" cy="29" r="8" fill-opacity="0"/>\n\t<circle id="function random() { [native code] }:Atom:21" class="event" cx="191" cy="20" r="8" fill-opacity="0"/>\n\t<circle id="function random() { [native code] }:Atom:22" class="event" cx="81" cy="47" r="8" fill-opacity="0"/>\n\t<circle id="function random() { [native code] }:Atom:23" class="event" cx="65" cy="56" r="8" fill-opacity="0"/>\n\t<circle id="function random() { [native code] }:Atom:24" class="event" cx="49" cy="47" r="8" fill-opacity="0"/>\n\t<circle id="function random() { [native code] }:Atom:25" class="event" cx="33" cy="56" r="8" fill-opacity="0"/>\n\t<circle id="function random() { [native code] }:Atom:26" class="event" cx="17" cy="47" r="8" fill-opacity="0"/>\n\t<circle id="function random() { [native code] }:Atom:27" class="event" cx="17" cy="29" r="8" fill-opacity="0"/>\n\t<circle id="function random() { [native code] }:Atom:28" class="event" cx="1" cy="56" r="8" fill-opacity="0"/>\n\t<circle id="function random() { [native code] }:Atom:29" class="event" cx="81" cy="29" r="8" fill-opacity="0"/>\n</svg>