<svg id="function random() { [native code] }" xmlns="http://www.w3.org/2000/svg" version="1.1" width="200px" height="150px" viewBox="0 0 200 150">\n\t<style> #function random() { [native code] } {pointer-events:none; }  #function random() { [native code] } .event  { pointer-events:all;}  </style>\n\t<text x="154" y="90" font-family=" Helvetica" font-weight="900" font-size="11" fill="rgb(48,80,248)">N</text>\n\t<text x="162" y="90" font-family=" Helvetica" font-weight="900" font-size="11" fill="rgb(48,80,248)">H</text>\n\t<text x="105" y="96" font-family=" Helvetica" font-weight="900" font-size="11" fill="rgb(48,80,248)">N</text>\n\t<text x="151" y="32" font-family=" Helvetica" font-weight="900" font-size="11" fill="rgb(31,240,31)">Cl</text>\n\t<text x="120" y="14" font-family=" Helvetica" font-weight="900" font-size="11" fill="rgb(31,240,31)">Cl</text>\n\t<text x="74" y="114" font-family=" Helvetica" font-weight="900" font-size="11" fill="rgb(48,80,248)">N</text>\n\t<text x="74" y="103" font-family=" Helvetica" font-weight="900" font-size="11" fill="rgb(48,80,248)">H</text>\n\t<text x="26" y="123" font-family=" Helvetica" font-weight="900" font-size="11" fill="rgb(48,80,248)">N</text>\n\t<text x="89" y="141" font-family=" Helvetica" font-weight="900" font-size="11" fill="rgb(255,13,13)">O</text>\n\t<line x1="169" y1="102" x2="187" y2="104" style="stroke:rgb(0,0,0);stroke-width:1"/>\n\t<line x1="170" y1="105" x2="185" y2="106" style="stroke:rgb(0,0,0);stroke-width:1"/>\n\t<line x1="141" y1="111" x2="141" y2="93" style="stroke:rgb(0,0,0);stroke-width:1"/>\n\t<line x1="143" y1="109" x2="143" y2="95" style="stroke:rgb(0,0,0);stroke-width:1"/>\n\t<line x1="166" y1="133" x2="158" y2="117" style="stroke:rgb(0,0,0);stroke-width:1"/>\n\t<line x1="167" y1="130" x2="161" y2="117" style="stroke:rgb(0,0,0);stroke-width:1"/>\n\t<line x1="194" y1="120" x2="184" y2="135" style="stroke:rgb(0,0,0);stroke-width:1"/>\n\t<line x1="191" y1="120" x2="183" y2="132" style="stroke:rgb(0,0,0);stroke-width:1"/>\n\t<line x1="109" y1="111" x2="125" y2="120" style="stroke:rgb(0,0,0);stroke-width:1"/>\n\t<line x1="112" y1="110" x2="125" y2="117" style="stroke:rgb(0,0,0);stroke-width:1"/>\n\t<line x1="125" y1="84" x2="114" y2="90" style="stroke:rgb(0,0,0);stroke-width:1"/>\n\t<line x1="125" y1="87" x2="116" y2="92" style="stroke:rgb(0,0,0);stroke-width:1"/>\n\t<line x1="141" y1="56" x2="125" y2="65" style="stroke:rgb(0,0,0);stroke-width:1"/>\n\t<line x1="138" y1="55" x2="125" y2="62" style="stroke:rgb(0,0,0);stroke-width:1"/>\n\t<line x1="125" y1="29" x2="141" y2="38" style="stroke:rgb(0,0,0);stroke-width:1"/>\n\t<line x1="125" y1="32" x2="138" y2="39" style="stroke:rgb(0,0,0);stroke-width:1"/>\n\t<line x1="109" y1="56" x2="109" y2="38" style="stroke:rgb(0,0,0);stroke-width:1"/>\n\t<line x1="112" y1="54" x2="112" y2="40" style="stroke:rgb(0,0,0);stroke-width:1"/>\n\t<line x1="92" y1="119" x2="92" y2="133" style="stroke:rgb(0,0,0);stroke-width:1"/>\n\t<line x1="95" y1="119" x2="95" y2="133" style="stroke:rgb(0,0,0);stroke-width:1"/>\n\t<line x1="187" y1="104" x2="198" y2="89" style="stroke:rgb(0,0,0);stroke-width:1"/>\n\t<line x1="162" y1="92" x2="169" y2="102" style="stroke:rgb(0,0,0);stroke-width:1"/>\n\t<line x1="141" y1="93" x2="153" y2="89" style="stroke:rgb(0,0,0);stroke-width:1"/>\n\t<line x1="158" y1="117" x2="141" y2="111" style="stroke:rgb(0,0,0);stroke-width:1"/>\n\t<line x1="158" y1="117" x2="169" y2="102" style="stroke:rgb(0,0,0);stroke-width:1"/>\n\t<line x1="184" y1="135" x2="166" y2="133" style="stroke:rgb(0,0,0);stroke-width:1"/>\n\t<line x1="194" y1="120" x2="187" y2="104" style="stroke:rgb(0,0,0);stroke-width:1"/>\n\t<line x1="125" y1="120" x2="141" y2="111" style="stroke:rgb(0,0,0);stroke-width:1"/>\n\t<line x1="109" y1="98" x2="109" y2="111" style="stroke:rgb(0,0,0);stroke-width:1"/>\n\t<line x1="125" y1="84" x2="141" y2="93" style="stroke:rgb(0,0,0);stroke-width:1"/>\n\t<line x1="125" y1="65" x2="125" y2="84" style="stroke:rgb(0,0,0);stroke-width:1"/>\n\t<line x1="141" y1="38" x2="141" y2="56" style="stroke:rgb(0,0,0);stroke-width:1"/>\n\t<line x1="150" y1="32" x2="141" y2="38" style="stroke:rgb(0,0,0);stroke-width:1"/>\n\t<line x1="109" y1="38" x2="125" y2="29" style="stroke:rgb(0,0,0);stroke-width:1"/>\n\t<line x1="109" y1="56" x2="125" y2="65" style="stroke:rgb(0,0,0);stroke-width:1"/>\n\t<line x1="125" y1="16" x2="125" y2="29" style="stroke:rgb(0,0,0);stroke-width:1"/>\n\t<line x1="93" y1="120" x2="109" y2="111" style="stroke:rgb(0,0,0);stroke-width:1"/>\n\t<line x1="83" y1="114" x2="93" y2="120" style="stroke:rgb(0,0,0);stroke-width:1"/>\n\t<line x1="62" y1="120" x2="73" y2="114" style="stroke:rgb(0,0,0);stroke-width:1"/>\n\t<line x1="46" y1="111" x2="62" y2="120" style="stroke:rgb(0,0,0);stroke-width:1"/>\n\t<line x1="35" y1="117" x2="46" y2="111" style="stroke:rgb(0,0,0);stroke-width:1"/>\n\t<line x1="14" y1="113" x2="25" y2="118" style="stroke:rgb(0,0,0);stroke-width:1"/>\n\t<line x1="1" y1="126" x2="14" y2="113" style="stroke:rgb(0,0,0);stroke-width:1"/>\n\t<line x1="10" y1="142" x2="1" y2="126" style="stroke:rgb(0,0,0);stroke-width:1"/>\n\t<line x1="28" y1="138" x2="10" y2="142" style="stroke:rgb(0,0,0);stroke-width:1"/>\n\t<line x1="28" y1="138" x2="30" y2="125" style="stroke:rgb(0,0,0);stroke-width:1"/>\n\t<line id="function random() { [native code] }:Bond:2-1" class="event" x1="169" y1="102" x2="187" y2="104" stroke-width="8" stroke-opacity="0"/>\n\t<line id="function random() { [native code] }:Bond:5-4" class="event" x1="141" y1="111" x2="141" y2="93" stroke-width="8" stroke-opacity="0"/>\n\t<line id="function random() { [native code] }:Bond:7-6" class="event" x1="166" y1="133" x2="158" y2="117" stroke-width="8" stroke-opacity="0"/>\n\t<line id="function random() { [native code] }:Bond:9-8" class="event" x1="194" y1="120" x2="184" y2="135" stroke-width="8" stroke-opacity="0"/>\n\t<line id="function random() { [native code] }:Bond:11-10" class="event" x1="109" y1="111" x2="125" y2="120" stroke-width="8" stroke-opacity="0"/>\n\t<line id="function random() { [native code] }:Bond:13-12" class="event" x1="125" y1="84" x2="109" y2="93" stroke-width="8" stroke-opacity="0"/>\n\t<line id="function random() { [native code] }:Bond:15-14" class="event" x1="141" y1="56" x2="125" y2="65" stroke-width="8" stroke-opacity="0"/>\n\t<line id="function random() { [native code] }:Bond:18-16" class="event" x1="125" y1="29" x2="141" y2="38" stroke-width="8" stroke-opacity="0"/>\n\t<line id="function random() { [native code] }:Bond:20-19" class="event" x1="109" y1="56" x2="109" y2="38" stroke-width="8" stroke-opacity="0"/>\n\t<line id="function random() { [native code] }:Bond:31-22" class="event" x1="93" y1="138" x2="93" y2="120" stroke-width="8" stroke-opacity="0"/>\n\t<line id="function random() { [native code] }:Bond:1-0" class="event" x1="187" y1="104" x2="198" y2="89" stroke-width="8" stroke-opacity="0"/>\n\t<line id="function random() { [native code] }:Bond:3-2" class="event" x1="158" y1="87" x2="169" y2="102" stroke-width="8" stroke-opacity="0"/>\n\t<line id="function random() { [native code] }:Bond:4-3" class="event" x1="141" y1="93" x2="158" y2="87" stroke-width="8" stroke-opacity="0"/>\n\t<line id="function random() { [native code] }:Bond:6-5" class="event" x1="158" y1="117" x2="141" y2="111" stroke-width="8" stroke-opacity="0"/>\n\t<line id="function random() { [native code] }:Bond:6-2" class="event" x1="158" y1="117" x2="169" y2="102" stroke-width="8" stroke-opacity="0"/>\n\t<line id="function random() { [native code] }:Bond:8-7" class="event" x1="184" y1="135" x2="166" y2="133" stroke-width="8" stroke-opacity="0"/>\n\t<line id="function random() { [native code] }:Bond:9-1" class="event" x1="194" y1="120" x2="187" y2="104" stroke-width="8" stroke-opacity="0"/>\n\t<line id="function random() { [native code] }:Bond:10-5" class="event" x1="125" y1="120" x2="141" y2="111" stroke-width="8" stroke-opacity="0"/>\n\t<line id="function random() { [native code] }:Bond:12-11" class="event" x1="109" y1="93" x2="109" y2="111" stroke-width="8" stroke-opacity="0"/>\n\t<line id="function random() { [native code] }:Bond:13-4" class="event" x1="125" y1="84" x2="141" y2="93" stroke-width="8" stroke-opacity="0"/>\n\t<line id="function random() { [native code] }:Bond:14-13" class="event" x1="125" y1="65" x2="125" y2="84" stroke-width="8" stroke-opacity="0"/>\n\t<line id="function random() { [native code] }:Bond:16-15" class="event" x1="141" y1="38" x2="141" y2="56" stroke-width="8" stroke-opacity="0"/>\n\t<line id="function random() { [native code] }:Bond:17-16" class="event" x1="157" y1="29" x2="141" y2="38" stroke-width="8" stroke-opacity="0"/>\n\t<line id="function random() { [native code] }:Bond:19-18" class="event" x1="109" y1="38" x2="125" y2="29" stroke-width="8" stroke-opacity="0"/>\n\t<line id="function random() { [native code] }:Bond:20-14" class="event" x1="109" y1="56" x2="125" y2="65" stroke-width="8" stroke-opacity="0"/>\n\t<line id="function random() { [native code] }:Bond:21-18" class="event" x1="125" y1="11" x2="125" y2="29" stroke-width="8" stroke-opacity="0"/>\n\t<line id="function random() { [native code] }:Bond:22-11" class="event" x1="93" y1="120" x2="109" y2="111" stroke-width="8" stroke-opacity="0"/>\n\t<line id="function random() { [native code] }:Bond:23-22" class="event" x1="78" y1="111" x2="93" y2="120" stroke-width="8" stroke-opacity="0"/>\n\t<line id="function random() { [native code] }:Bond:24-23" class="event" x1="62" y1="120" x2="78" y2="111" stroke-width="8" stroke-opacity="0"/>\n\t<line id="function random() { [native code] }:Bond:25-24" class="event" x1="46" y1="111" x2="62" y2="120" stroke-width="8" stroke-opacity="0"/>\n\t<line id="function random() { [native code] }:Bond:26-25" class="event" x1="30" y1="120" x2="46" y2="111" stroke-width="8" stroke-opacity="0"/>\n\t<line id="function random() { [native code] }:Bond:27-26" class="event" x1="14" y1="113" x2="30" y2="120" stroke-width="8" stroke-opacity="0"/>\n\t<line id="function random() { [native code] }:Bond:28-27" class="event" x1="1" y1="126" x2="14" y2="113" stroke-width="8" stroke-opacity="0"/>\n\t<line id="function random() { [native code] }:Bond:29-28" class="event" x1="10" y1="142" x2="1" y2="126" stroke-width="8" stroke-opacity="0"/>\n\t<line id="function random() { [native code] }:Bond:30-29" class="event" x1="28" y1="138" x2="10" y2="142" stroke-width="8" stroke-opacity="0"/>\n\t<line id="function random() { [native code] }:Bond:30-26" class="event" x1="28" y1="138" x2="30" y2="120" stroke-width="8" stroke-opacity="0"/>\n\t<circle id="function random() { [native code] }:Atom:0" class="event" cx="198" cy="89" r="8" fill-opacity="0"/>\n\t<circle id="function random() { [native code] }:Atom:1" class="event" cx="187" cy="104" r="8" fill-opacity="0"/>\n\t<circle id="function random() { [native code] }:Atom:2" class="event" cx="169" cy="102" r="8" fill-opacity="0"/>\n\t<circle id="function random() { [native code] }:Atom:3" class="event" cx="158" cy="87" r="8" fill-opacity="0"/>\n\t<circle id="function random() { [native code] }:Atom:4" class="event" cx="141" cy="93" r="8" fill-opacity="0"/>\n\t<circle id="function random() { [native code] }:Atom:5" class="event" cx="141" cy="111" r="8" fill-opacity="0"/>\n\t<circle id="function random() { [native code] }:Atom:6" class="event" cx="158" cy="117" r="8" fill-opacity="0"/>\n\t<circle id="function random() { [native code] }:Atom:7" class="event" cx="166" cy="133" r="8" fill-opacity="0"/>\n\t<circle id="function random() { [native code] }:Atom:8" class="event" cx="184" cy="135" r="8" fill-opacity="0"/>\n\t<circle id="function random() { [native code] }:Atom:9" class="event" cx="194" cy="120" r="8" fill-opacity="0"/>\n\t<circle id="function random() { [native code] }:Atom:10" class="event" cx="125" cy="120" r="8" fill-opacity="0"/>\n\t<circle id="function random() { [native code] }:Atom:11" class="event" cx="109" cy="111" r="8" fill-opacity="0"/>\n\t<circle id="function random() { [native code] }:Atom:12" class="event" cx="109" cy="93" r="8" fill-opacity="0"/>\n\t<circle id="function random() { [native code] }:Atom:13" class="event" cx="125" cy="84" r="8" fill-opacity="0"/>\n\t<circle id="function random() { [native code] }:Atom:14" class="event" cx="125" cy="65" r="8" fill-opacity="0"/>\n\t<circle id="function random() { [native code] }:Atom:15" class="event" cx="141" cy="56" r="8" fill-opacity="0"/>\n\t<circle id="function random() { [native code] }:Atom:16" class="event" cx="141" cy="38" r="8" fill-opacity="0"/>\n\t<circle id="function random() { [native code] }:Atom:17" class="event" cx="157" cy="29" r="8" fill-opacity="0"/>\n\t<circle id="function random() { [native code] }:Atom:18" class="event" cx="125" cy="29" r="8" fill-opacity="0"/>\n\t<circle id="function random() { [native code] }:Atom:19" class="event" cx="109" cy="38" r="8" fill-opacity="0"/>\n\t<circle id="function random() { [native code] }:Atom:20" class="event" cx="109" cy="56" r="8" fill-opacity="0"/>\n\t<circle id="function random() { [native code] }:Atom:21" class="event" cx="125" cy="11" r="8" fill-opacity="0"/>\n\t<circle id="function random() { [native code] }:Atom:22" class="event" cx="93" cy="120" r="8" fill-opacity="0"/>\n\t<circle id="function random() { [native code] }:Atom:23" class="event" cx="78" cy="111" r="8" fill-opacity="0"/>\n\t<circle id="function random() { [native code] }:Atom:24" class="event" cx="62" cy="120" r="8" fill-opacity="0"/>\n\t<circle id="function random() { [native code] }:Atom:25" class="event" cx="46" cy="111" r="8" fill-opacity="0"/>\n\t<circle id="function random() { [native code] }:Atom:26" class="event" cx="30" cy="120" r="8" fill-opacity="0"/>\n\t<circle id="function random() { [native code] }:Atom:27" class="event" cx="14" cy="113" r="8" fill-opacity="0"/>\n\t<circle id="function random() { [native code] }:Atom:28" class="event" cx="1" cy="126" r="8" fill-opacity="0"/>\n\t<circle id="function random() { [native code] }:Atom:29" class="event" cx="10" cy="142" r="8" fill-opacity="0"/>\n\t<circle id="function random() { [native code] }:Atom:30" class="event" cx="28" cy="138" r="8" fill-opacity="0"/>\n\t<circle id="function random() { [native code] }:Atom:31" class="event" cx="93" cy="138" r="8" fill-opacity="0"/>\n</svg>