<svg id="function random() { [native code] }" xmlns="http://www.w3.org/2000/svg" version="1.1" width="200px" height="150px" viewBox="0 0 200 150">\n\t<style> #function random() { [native code] } {pointer-events:none; }  #function random() { [native code] } .event  { pointer-events:all;}  </style>\n\t<text x="180" y="56" font-family=" Helvetica" font-weight="900" font-size="10" fill="rgb(48,80,248)">N</text>\n\t<text x="195" y="59" font-family=" Helvetica" font-weight="900" font-size="7" fill="rgb(48,80,248)">2</text>\n\t<text x="187" y="56" font-family=" Helvetica" font-weight="900" font-size="10" fill="rgb(48,80,248)">H</text>\n\t<text x="139" y="64" font-family=" Helvetica" font-weight="900" font-size="10" fill="rgb(48,80,248)">N</text>\n\t<text x="139" y="74" font-family=" Helvetica" font-weight="900" font-size="10" fill="rgb(48,80,248)">H</text>\n\t<text x="125" y="41" font-family=" Helvetica" font-weight="900" font-size="10" fill="rgb(255,13,13)">O</text>\n\t<text x="98" y="56" font-family=" Helvetica" font-weight="900" font-size="10" fill="rgb(48,80,248)">N</text>\n\t<text x="29" y="33" font-family=" Helvetica" font-weight="900" font-size="10" fill="rgb(255,13,13)">O</text>\n\t<text x="24" y="54" font-family=" Helvetica" font-weight="900" font-size="10" fill="rgb(144,224,80)">F</text>\n\t<text x="2" y="48" font-family=" Helvetica" font-weight="900" font-size="10" fill="rgb(144,224,80)">F</text>\n\t<text x="8" y="27" font-family=" Helvetica" font-weight="900" font-size="10" fill="rgb(144,224,80)">F</text>\n\t<text x="72" y="91" font-family=" Helvetica" font-weight="900" font-size="10" fill="rgb(48,80,248)">N</text>\n\t<text x="65" y="91" font-family=" Helvetica" font-weight="900" font-size="10" fill="rgb(48,80,248)">H</text>\n\t<line x1="130" y1="54" x2="130" y2="43" style="stroke:rgb(0,0,0);stroke-width:1"/>\n\t<line x1="128" y1="54" x2="128" y2="43" style="stroke:rgb(0,0,0);stroke-width:1"/>\n\t<line x1="115" y1="61" x2="106" y2="56" style="stroke:rgb(0,0,0);stroke-width:1"/>\n\t<line x1="112" y1="63" x2="105" y2="58" style="stroke:rgb(0,0,0);stroke-width:1"/>\n\t<line x1="74" y1="38" x2="74" y2="53" style="stroke:rgb(0,0,0);stroke-width:1"/>\n\t<line x1="71" y1="39" x2="71" y2="52" style="stroke:rgb(0,0,0);stroke-width:1"/>\n\t<line x1="46" y1="38" x2="60" y2="30" style="stroke:rgb(0,0,0);stroke-width:1"/>\n\t<line x1="49" y1="39" x2="60" y2="32" style="stroke:rgb(0,0,0);stroke-width:1"/>\n\t<line x1="60" y1="61" x2="46" y2="53" style="stroke:rgb(0,0,0);stroke-width:1"/>\n\t<line x1="60" y1="58" x2="49" y2="52" style="stroke:rgb(0,0,0);stroke-width:1"/>\n\t<line x1="88" y1="77" x2="88" y2="61" style="stroke:rgb(0,0,0);stroke-width:1"/>\n\t<line x1="90" y1="76" x2="90" y2="63" style="stroke:rgb(0,0,0);stroke-width:1"/>\n\t<line x1="98" y1="101" x2="82" y2="102" style="stroke:rgb(0,0,0);stroke-width:1"/>\n\t<line x1="96" y1="99" x2="84" y2="100" style="stroke:rgb(0,0,0);stroke-width:1"/>\n\t<line x1="101" y1="128" x2="107" y2="114" style="stroke:rgb(0,0,0);stroke-width:1"/>\n\t<line x1="99" y1="126" x2="104" y2="114" style="stroke:rgb(0,0,0);stroke-width:1"/>\n\t<line x1="76" y1="117" x2="85" y2="130" style="stroke:rgb(0,0,0);stroke-width:1"/>\n\t<line x1="79" y1="117" x2="86" y2="127" style="stroke:rgb(0,0,0);stroke-width:1"/>\n\t<line x1="115" y1="77" x2="101" y2="85" style="stroke:rgb(0,0,0);stroke-width:1"/>\n\t<line x1="112" y1="76" x2="102" y2="82" style="stroke:rgb(0,0,0);stroke-width:1"/>\n\t<line x1="170" y1="61" x2="179" y2="56" style="stroke:rgb(0,0,0);stroke-width:1"/>\n\t<line x1="156" y1="53" x2="170" y2="61" style="stroke:rgb(0,0,0);stroke-width:1"/>\n\t<line x1="147" y1="59" x2="156" y2="53" style="stroke:rgb(0,0,0);stroke-width:1"/>\n\t<line x1="129" y1="53" x2="138" y2="59" style="stroke:rgb(0,0,0);stroke-width:1"/>\n\t<line x1="115" y1="61" x2="129" y2="53" style="stroke:rgb(0,0,0);stroke-width:1"/>\n\t<line x1="88" y1="61" x2="97" y2="56" style="stroke:rgb(0,0,0);stroke-width:1"/>\n\t<line x1="74" y1="53" x2="88" y2="61" style="stroke:rgb(0,0,0);stroke-width:1"/>\n\t<line x1="60" y1="30" x2="74" y2="38" style="stroke:rgb(0,0,0);stroke-width:1"/>\n\t<line x1="37" y1="32" x2="46" y2="38" style="stroke:rgb(0,0,0);stroke-width:1"/>\n\t<line x1="19" y1="38" x2="28" y2="32" style="stroke:rgb(0,0,0);stroke-width:1"/>\n\t<line x1="24" y1="46" x2="19" y2="38" style="stroke:rgb(0,0,0);stroke-width:1"/>\n\t<line x1="9" y1="43" x2="19" y2="38" style="stroke:rgb(0,0,0);stroke-width:1"/>\n\t<line x1="14" y1="29" x2="19" y2="38" style="stroke:rgb(0,0,0);stroke-width:1"/>\n\t<line x1="46" y1="53" x2="46" y2="38" style="stroke:rgb(0,0,0);stroke-width:1"/>\n\t<line x1="60" y1="61" x2="74" y2="53" style="stroke:rgb(0,0,0);stroke-width:1"/>\n\t<line x1="80" y1="84" x2="88" y2="77" style="stroke:rgb(0,0,0);stroke-width:1"/>\n\t<line x1="82" y1="102" x2="78" y2="93" style="stroke:rgb(0,0,0);stroke-width:1"/>\n\t<line x1="107" y1="114" x2="98" y2="101" style="stroke:rgb(0,0,0);stroke-width:1"/>\n\t<line x1="85" y1="130" x2="101" y2="128" style="stroke:rgb(0,0,0);stroke-width:1"/>\n\t<line x1="76" y1="117" x2="82" y2="102" style="stroke:rgb(0,0,0);stroke-width:1"/>\n\t<line x1="101" y1="85" x2="98" y2="101" style="stroke:rgb(0,0,0);stroke-width:1"/>\n\t<line x1="101" y1="85" x2="88" y2="77" style="stroke:rgb(0,0,0);stroke-width:1"/>\n\t<line x1="115" y1="77" x2="115" y2="61" style="stroke:rgb(0,0,0);stroke-width:1"/>\n\t<line id="function random() { [native code] }:Bond:5-4" class="event" x1="129" y1="38" x2="129" y2="53" stroke-width="8" stroke-opacity="0"/>\n\t<line id="function random() { [native code] }:Bond:7-6" class="event" x1="101" y1="53" x2="115" y2="61" stroke-width="8" stroke-opacity="0"/>\n\t<line id="function random() { [native code] }:Bond:10-9" class="event" x1="74" y1="38" x2="74" y2="53" stroke-width="8" stroke-opacity="0"/>\n\t<line id="function random() { [native code] }:Bond:12-11" class="event" x1="46" y1="38" x2="60" y2="30" stroke-width="8" stroke-opacity="0"/>\n\t<line id="function random() { [native code] }:Bond:19-18" class="event" x1="60" y1="61" x2="46" y2="53" stroke-width="8" stroke-opacity="0"/>\n\t<line id="function random() { [native code] }:Bond:20-8" class="event" x1="88" y1="77" x2="88" y2="61" stroke-width="8" stroke-opacity="0"/>\n\t<line id="function random() { [native code] }:Bond:23-22" class="event" x1="98" y1="101" x2="82" y2="102" stroke-width="8" stroke-opacity="0"/>\n\t<line id="function random() { [native code] }:Bond:25-24" class="event" x1="101" y1="128" x2="107" y2="114" stroke-width="8" stroke-opacity="0"/>\n\t<line id="function random() { [native code] }:Bond:27-26" class="event" x1="76" y1="117" x2="85" y2="130" stroke-width="8" stroke-opacity="0"/>\n\t<line id="function random() { [native code] }:Bond:29-28" class="event" x1="115" y1="77" x2="101" y2="85" stroke-width="8" stroke-opacity="0"/>\n\t<line id="function random() { [native code] }:Bond:1-0" class="event" x1="170" y1="61" x2="184" y2="53" stroke-width="8" stroke-opacity="0"/>\n\t<line id="function random() { [native code] }:Bond:2-1" class="event" x1="156" y1="53" x2="170" y2="61" stroke-width="8" stroke-opacity="0"/>\n\t<line id="function random() { [native code] }:Bond:3-2" class="event" x1="143" y1="61" x2="156" y2="53" stroke-width="8" stroke-opacity="0"/>\n\t<line id="function random() { [native code] }:Bond:4-3" class="event" x1="129" y1="53" x2="143" y2="61" stroke-width="8" stroke-opacity="0"/>\n\t<line id="function random() { [native code] }:Bond:6-4" class="event" x1="115" y1="61" x2="129" y2="53" stroke-width="8" stroke-opacity="0"/>\n\t<line id="function random() { [native code] }:Bond:8-7" class="event" x1="88" y1="61" x2="101" y2="53" stroke-width="8" stroke-opacity="0"/>\n\t<line id="function random() { [native code] }:Bond:9-8" class="event" x1="74" y1="53" x2="88" y2="61" stroke-width="8" stroke-opacity="0"/>\n\t<line id="function random() { [native code] }:Bond:11-10" class="event" x1="60" y1="30" x2="74" y2="38" stroke-width="8" stroke-opacity="0"/>\n\t<line id="function random() { [native code] }:Bond:13-12" class="event" x1="32" y1="30" x2="46" y2="38" stroke-width="8" stroke-opacity="0"/>\n\t<line id="function random() { [native code] }:Bond:14-13" class="event" x1="19" y1="38" x2="32" y2="30" stroke-width="8" stroke-opacity="0"/>\n\t<line id="function random() { [native code] }:Bond:15-14" class="event" x1="27" y1="51" x2="19" y2="38" stroke-width="8" stroke-opacity="0"/>\n\t<line id="function random() { [native code] }:Bond:16-14" class="event" x1="5" y1="45" x2="19" y2="38" stroke-width="8" stroke-opacity="0"/>\n\t<line id="function random() { [native code] }:Bond:17-14" class="event" x1="11" y1="24" x2="19" y2="38" stroke-width="8" stroke-opacity="0"/>\n\t<line id="function random() { [native code] }:Bond:18-12" class="event" x1="46" y1="53" x2="46" y2="38" stroke-width="8" stroke-opacity="0"/>\n\t<line id="function random() { [native code] }:Bond:19-9" class="event" x1="60" y1="61" x2="74" y2="53" stroke-width="8" stroke-opacity="0"/>\n\t<line id="function random() { [native code] }:Bond:21-20" class="event" x1="76" y1="88" x2="88" y2="77" stroke-width="8" stroke-opacity="0"/>\n\t<line id="function random() { [native code] }:Bond:22-21" class="event" x1="82" y1="102" x2="76" y2="88" stroke-width="8" stroke-opacity="0"/>\n\t<line id="function random() { [native code] }:Bond:24-23" class="event" x1="107" y1="114" x2="98" y2="101" stroke-width="8" stroke-opacity="0"/>\n\t<line id="function random() { [native code] }:Bond:26-25" class="event" x1="85" y1="130" x2="101" y2="128" stroke-width="8" stroke-opacity="0"/>\n\t<line id="function random() { [native code] }:Bond:27-22" class="event" x1="76" y1="117" x2="82" y2="102" stroke-width="8" stroke-opacity="0"/>\n\t<line id="function random() { [native code] }:Bond:28-23" class="event" x1="101" y1="85" x2="98" y2="101" stroke-width="8" stroke-opacity="0"/>\n\t<line id="function random() { [native code] }:Bond:28-20" class="event" x1="101" y1="85" x2="88" y2="77" stroke-width="8" stroke-opacity="0"/>\n\t<line id="function random() { [native code] }:Bond:29-6" class="event" x1="115" y1="77" x2="115" y2="61" stroke-width="8" stroke-opacity="0"/>\n\t<circle id="function random() { [native code] }:Atom:0" class="event" cx="184" cy="53" r="8" fill-opacity="0"/>\n\t<circle id="function random() { [native code] }:Atom:1" class="event" cx="170" cy="61" r="8" fill-opacity="0"/>\n\t<circle id="function random() { [native code] }:Atom:2" class="event" cx="156" cy="53" r="8" fill-opacity="0"/>\n\t<circle id="function random() { [native code] }:Atom:3" class="event" cx="143" cy="61" r="8" fill-opacity="0"/>\n\t<circle id="function random() { [native code] }:Atom:4" class="event" cx="129" cy="53" r="8" fill-opacity="0"/>\n\t<circle id="function random() { [native code] }:Atom:5" class="event" cx="129" cy="38" r="8" fill-opacity="0"/>\n\t<circle id="function random() { [native code] }:Atom:6" class="event" cx="115" cy="61" r="8" fill-opacity="0"/>\n\t<circle id="function random() { [native code] }:Atom:7" class="event" cx="101" cy="53" r="8" fill-opacity="0"/>\n\t<circle id="function random() { [native code] }:Atom:8" class="event" cx="88" cy="61" r="8" fill-opacity="0"/>\n\t<circle id="function random() { [native code] }:Atom:9" class="event" cx="74" cy="53" r="8" fill-opacity="0"/>\n\t<circle id="function random() { [native code] }:Atom:10" class="event" cx="74" cy="38" r="8" fill-opacity="0"/>\n\t<circle id="function random() { [native code] }:Atom:11" class="event" cx="60" cy="30" r="8" fill-opacity="0"/>\n\t<circle id="function random() { [native code] }:Atom:12" class="event" cx="46" cy="38" r="8" fill-opacity="0"/>\n\t<circle id="function random() { [native code] }:Atom:13" class="event" cx="32" cy="30" r="8" fill-opacity="0"/>\n\t<circle id="function random() { [native code] }:Atom:14" class="event" cx="19" cy="38" r="8" fill-opacity="0"/>\n\t<circle id="function random() { [native code] }:Atom:15" class="event" cx="27" cy="51" r="8" fill-opacity="0"/>\n\t<circle id="function random() { [native code] }:Atom:16" class="event" cx="5" cy="45" r="8" fill-opacity="0"/>\n\t<circle id="function random() { [native code] }:Atom:17" class="event" cx="11" cy="24" r="8" fill-opacity="0"/>\n\t<circle id="function random() { [native code] }:Atom:18" class="event" cx="46" cy="53" r="8" fill-opacity="0"/>\n\t<circle id="function random() { [native code] }:Atom:19" class="event" cx="60" cy="61" r="8" fill-opacity="0"/>\n\t<circle id="function random() { [native code] }:Atom:20" class="event" cx="88" cy="77" r="8" fill-opacity="0"/>\n\t<circle id="function random() { [native code] }:Atom:21" class="event" cx="76" cy="88" r="8" fill-opacity="0"/>\n\t<circle id="function random() { [native code] }:Atom:22" class="event" cx="82" cy="102" r="8" fill-opacity="0"/>\n\t<circle id="function random() { [native code] }:Atom:23" class="event" cx="98" cy="101" r="8" fill-opacity="0"/>\n\t<circle id="function random() { [native code] }:Atom:24" class="event" cx="107" cy="114" r="8" fill-opacity="0"/>\n\t<circle id="function random() { [native code] }:Atom:25" class="event" cx="101" cy="128" r="8" fill-opacity="0"/>\n\t<circle id="function random() { [native code] }:Atom:26" class="event" cx="85" cy="130" r="8" fill-opacity="0"/>\n\t<circle id="function random() { [native code] }:Atom:27" class="event" cx="76" cy="117" r="8" fill-opacity="0"/>\n\t<circle id="function random() { [native code] }:Atom:28" class="event" cx="101" cy="85" r="8" fill-opacity="0"/>\n\t<circle id="function random() { [native code] }:Atom:29" class="event" cx="115" cy="77" r="8" fill-opacity="0"/>\n</svg>