<svg id="function random() { [native code] }" xmlns="http://www.w3.org/2000/svg" version="1.1" width="200px" height="150px" viewBox="0 0 200 150">\n\t<style> #function random() { [native code] } {pointer-events:none; }  #function random() { [native code] } .event  { pointer-events:all;}  </style>\n\t<text x="178" y="61" font-family=" Helvetica" font-weight="900" font-size="10" fill="rgb(48,80,248)">N</text>\n\t<text x="193" y="64" font-family=" Helvetica" font-weight="900" font-size="7" fill="rgb(48,80,248)">2</text>\n\t<text x="185" y="61" font-family=" Helvetica" font-weight="900" font-size="10" fill="rgb(48,80,248)">H</text>\n\t<text x="120" y="61" font-family=" Helvetica" font-weight="900" font-size="10" fill="rgb(48,80,248)">N</text>\n\t<text x="120" y="71" font-family=" Helvetica" font-weight="900" font-size="10" fill="rgb(48,80,248)">H</text>\n\t<text x="105" y="36" font-family=" Helvetica" font-weight="900" font-size="10" fill="rgb(255,13,13)">O</text>\n\t<text x="49" y="89" font-family=" Helvetica" font-weight="900" font-size="10" fill="rgb(48,80,248)">N</text>\n\t<text x="42" y="89" font-family=" Helvetica" font-weight="900" font-size="10" fill="rgb(48,80,248)">H</text>\n\t<text x="2" y="27" font-family=" Helvetica" font-weight="900" font-size="10" fill="rgb(31,240,31)">Cl</text>\n\t<text x="2" y="61" font-family=" Helvetica" font-weight="900" font-size="10" fill="rgb(31,240,31)">Cl</text>\n\t<text x="76" y="52" font-family=" Helvetica" font-weight="900" font-size="10" fill="rgb(48,80,248)">N</text>\n\t<line x1="110" y1="50" x2="110" y2="38" style="stroke:rgb(0,0,0);stroke-width:1"/>\n\t<line x1="108" y1="50" x2="108" y2="38" style="stroke:rgb(0,0,0);stroke-width:1"/>\n\t<line x1="94" y1="75" x2="94" y2="58" style="stroke:rgb(0,0,0);stroke-width:1"/>\n\t<line x1="92" y1="73" x2="92" y2="60" style="stroke:rgb(0,0,0);stroke-width:1"/>\n\t<line x1="65" y1="75" x2="80" y2="83" style="stroke:rgb(0,0,0);stroke-width:1"/>\n\t<line x1="66" y1="78" x2="77" y2="84" style="stroke:rgb(0,0,0);stroke-width:1"/>\n\t<line x1="53" y1="117" x2="60" y2="101" style="stroke:rgb(0,0,0);stroke-width:1"/>\n\t<line x1="56" y1="116" x2="61" y2="104" style="stroke:rgb(0,0,0);stroke-width:1"/>\n\t<line x1="79" y1="128" x2="63" y2="130" style="stroke:rgb(0,0,0);stroke-width:1"/>\n\t<line x1="77" y1="126" x2="64" y2="127" style="stroke:rgb(0,0,0);stroke-width:1"/>\n\t<line x1="76" y1="99" x2="86" y2="113" style="stroke:rgb(0,0,0);stroke-width:1"/>\n\t<line x1="75" y1="102" x2="83" y2="113" style="stroke:rgb(0,0,0);stroke-width:1"/>\n\t<line x1="51" y1="33" x2="51" y2="49" style="stroke:rgb(0,0,0);stroke-width:1"/>\n\t<line x1="48" y1="34" x2="48" y2="48" style="stroke:rgb(0,0,0);stroke-width:1"/>\n\t<line x1="22" y1="33" x2="36" y2="24" style="stroke:rgb(0,0,0);stroke-width:1"/>\n\t<line x1="24" y1="34" x2="36" y2="27" style="stroke:rgb(0,0,0);stroke-width:1"/>\n\t<line x1="36" y1="58" x2="22" y2="49" style="stroke:rgb(0,0,0);stroke-width:1"/>\n\t<line x1="36" y1="55" x2="24" y2="48" style="stroke:rgb(0,0,0);stroke-width:1"/>\n\t<line x1="65" y1="58" x2="75" y2="52" style="stroke:rgb(0,0,0);stroke-width:1"/>\n\t<line x1="68" y1="59" x2="76" y2="54" style="stroke:rgb(0,0,0);stroke-width:1"/>\n\t<line x1="167" y1="49" x2="177" y2="55" style="stroke:rgb(0,0,0);stroke-width:1"/>\n\t<line x1="153" y1="58" x2="167" y2="49" style="stroke:rgb(0,0,0);stroke-width:1"/>\n\t<line x1="138" y1="49" x2="153" y2="58" style="stroke:rgb(0,0,0);stroke-width:1"/>\n\t<line x1="128" y1="55" x2="138" y2="49" style="stroke:rgb(0,0,0);stroke-width:1"/>\n\t<line x1="109" y1="49" x2="119" y2="55" style="stroke:rgb(0,0,0);stroke-width:1"/>\n\t<line x1="94" y1="58" x2="109" y2="49" style="stroke:rgb(0,0,0);stroke-width:1"/>\n\t<line x1="80" y1="83" x2="94" y2="75" style="stroke:rgb(0,0,0);stroke-width:1"/>\n\t<line x1="57" y1="82" x2="65" y2="75" style="stroke:rgb(0,0,0);stroke-width:1"/>\n\t<line x1="60" y1="101" x2="55" y2="91" style="stroke:rgb(0,0,0);stroke-width:1"/>\n\t<line x1="63" y1="130" x2="53" y2="117" style="stroke:rgb(0,0,0);stroke-width:1"/>\n\t<line x1="86" y1="113" x2="79" y2="128" style="stroke:rgb(0,0,0);stroke-width:1"/>\n\t<line x1="76" y1="99" x2="60" y2="101" style="stroke:rgb(0,0,0);stroke-width:1"/>\n\t<line x1="76" y1="99" x2="80" y2="83" style="stroke:rgb(0,0,0);stroke-width:1"/>\n\t<line x1="65" y1="58" x2="65" y2="75" style="stroke:rgb(0,0,0);stroke-width:1"/>\n\t<line x1="51" y1="49" x2="65" y2="58" style="stroke:rgb(0,0,0);stroke-width:1"/>\n\t<line x1="36" y1="24" x2="51" y2="33" style="stroke:rgb(0,0,0);stroke-width:1"/>\n\t<line x1="13" y1="27" x2="22" y2="33" style="stroke:rgb(0,0,0);stroke-width:1"/>\n\t<line x1="22" y1="49" x2="22" y2="33" style="stroke:rgb(0,0,0);stroke-width:1"/>\n\t<line x1="13" y1="54" x2="22" y2="49" style="stroke:rgb(0,0,0);stroke-width:1"/>\n\t<line x1="36" y1="58" x2="51" y2="49" style="stroke:rgb(0,0,0);stroke-width:1"/>\n\t<line x1="84" y1="52" x2="94" y2="58" style="stroke:rgb(0,0,0);stroke-width:1"/>\n\t<line id="function random() { [native code] }:Bond:6-5" class="event" x1="109" y1="33" x2="109" y2="49" stroke-width="8" stroke-opacity="0"/>\n\t<line id="function random() { [native code] }:Bond:8-7" class="event" x1="94" y1="75" x2="94" y2="58" stroke-width="8" stroke-opacity="0"/>\n\t<line id="function random() { [native code] }:Bond:10-9" class="event" x1="65" y1="75" x2="80" y2="83" stroke-width="8" stroke-opacity="0"/>\n\t<line id="function random() { [native code] }:Bond:13-12" class="event" x1="53" y1="117" x2="60" y2="101" stroke-width="8" stroke-opacity="0"/>\n\t<line id="function random() { [native code] }:Bond:15-14" class="event" x1="79" y1="128" x2="63" y2="130" stroke-width="8" stroke-opacity="0"/>\n\t<line id="function random() { [native code] }:Bond:17-16" class="event" x1="76" y1="99" x2="86" y2="113" stroke-width="8" stroke-opacity="0"/>\n\t<line id="function random() { [native code] }:Bond:20-19" class="event" x1="51" y1="33" x2="51" y2="49" stroke-width="8" stroke-opacity="0"/>\n\t<line id="function random() { [native code] }:Bond:22-21" class="event" x1="22" y1="33" x2="36" y2="24" stroke-width="8" stroke-opacity="0"/>\n\t<line id="function random() { [native code] }:Bond:26-24" class="event" x1="36" y1="58" x2="22" y2="49" stroke-width="8" stroke-opacity="0"/>\n\t<line id="function random() { [native code] }:Bond:27-18" class="event" x1="80" y1="49" x2="65" y2="58" stroke-width="8" stroke-opacity="0"/>\n\t<line id="function random() { [native code] }:Bond:1-0" class="event" x1="167" y1="49" x2="182" y2="58" stroke-width="8" stroke-opacity="0"/>\n\t<line id="function random() { [native code] }:Bond:2-1" class="event" x1="153" y1="58" x2="167" y2="49" stroke-width="8" stroke-opacity="0"/>\n\t<line id="function random() { [native code] }:Bond:3-2" class="event" x1="138" y1="49" x2="153" y2="58" stroke-width="8" stroke-opacity="0"/>\n\t<line id="function random() { [native code] }:Bond:4-3" class="event" x1="123" y1="58" x2="138" y2="49" stroke-width="8" stroke-opacity="0"/>\n\t<line id="function random() { [native code] }:Bond:5-4" class="event" x1="109" y1="49" x2="123" y2="58" stroke-width="8" stroke-opacity="0"/>\n\t<line id="function random() { [native code] }:Bond:7-5" class="event" x1="94" y1="58" x2="109" y2="49" stroke-width="8" stroke-opacity="0"/>\n\t<line id="function random() { [native code] }:Bond:9-8" class="event" x1="80" y1="83" x2="94" y2="75" stroke-width="8" stroke-opacity="0"/>\n\t<line id="function random() { [native code] }:Bond:11-10" class="event" x1="53" y1="86" x2="65" y2="75" stroke-width="8" stroke-opacity="0"/>\n\t<line id="function random() { [native code] }:Bond:12-11" class="event" x1="60" y1="101" x2="53" y2="86" stroke-width="8" stroke-opacity="0"/>\n\t<line id="function random() { [native code] }:Bond:14-13" class="event" x1="63" y1="130" x2="53" y2="117" stroke-width="8" stroke-opacity="0"/>\n\t<line id="function random() { [native code] }:Bond:16-15" class="event" x1="86" y1="113" x2="79" y2="128" stroke-width="8" stroke-opacity="0"/>\n\t<line id="function random() { [native code] }:Bond:17-12" class="event" x1="76" y1="99" x2="60" y2="101" stroke-width="8" stroke-opacity="0"/>\n\t<line id="function random() { [native code] }:Bond:17-9" class="event" x1="76" y1="99" x2="80" y2="83" stroke-width="8" stroke-opacity="0"/>\n\t<line id="function random() { [native code] }:Bond:18-10" class="event" x1="65" y1="58" x2="65" y2="75" stroke-width="8" stroke-opacity="0"/>\n\t<line id="function random() { [native code] }:Bond:19-18" class="event" x1="51" y1="49" x2="65" y2="58" stroke-width="8" stroke-opacity="0"/>\n\t<line id="function random() { [native code] }:Bond:21-20" class="event" x1="36" y1="24" x2="51" y2="33" stroke-width="8" stroke-opacity="0"/>\n\t<line id="function random() { [native code] }:Bond:23-22" class="event" x1="7" y1="24" x2="22" y2="33" stroke-width="8" stroke-opacity="0"/>\n\t<line id="function random() { [native code] }:Bond:24-22" class="event" x1="22" y1="49" x2="22" y2="33" stroke-width="8" stroke-opacity="0"/>\n\t<line id="function random() { [native code] }:Bond:25-24" class="event" x1="7" y1="58" x2="22" y2="49" stroke-width="8" stroke-opacity="0"/>\n\t<line id="function random() { [native code] }:Bond:26-19" class="event" x1="36" y1="58" x2="51" y2="49" stroke-width="8" stroke-opacity="0"/>\n\t<line id="function random() { [native code] }:Bond:27-7" class="event" x1="80" y1="49" x2="94" y2="58" stroke-width="8" stroke-opacity="0"/>\n\t<circle id="function random() { [native code] }:Atom:0" class="event" cx="182" cy="58" r="8" fill-opacity="0"/>\n\t<circle id="function random() { [native code] }:Atom:1" class="event" cx="167" cy="49" r="8" fill-opacity="0"/>\n\t<circle id="function random() { [native code] }:Atom:2" class="event" cx="153" cy="58" r="8" fill-opacity="0"/>\n\t<circle id="function random() { [native code] }:Atom:3" class="event" cx="138" cy="49" r="8" fill-opacity="0"/>\n\t<circle id="function random() { [native code] }:Atom:4" class="event" cx="123" cy="58" r="8" fill-opacity="0"/>\n\t<circle id="function random() { [native code] }:Atom:5" class="event" cx="109" cy="49" r="8" fill-opacity="0"/>\n\t<circle id="function random() { [native code] }:Atom:6" class="event" cx="109" cy="33" r="8" fill-opacity="0"/>\n\t<circle id="function random() { [native code] }:Atom:7" class="event" cx="94" cy="58" r="8" fill-opacity="0"/>\n\t<circle id="function random() { [native code] }:Atom:8" class="event" cx="94" cy="75" r="8" fill-opacity="0"/>\n\t<circle id="function random() { [native code] }:Atom:9" class="event" cx="80" cy="83" r="8" fill-opacity="0"/>\n\t<circle id="function random() { [native code] }:Atom:10" class="event" cx="65" cy="75" r="8" fill-opacity="0"/>\n\t<circle id="function random() { [native code] }:Atom:11" class="event" cx="53" cy="86" r="8" fill-opacity="0"/>\n\t<circle id="function random() { [native code] }:Atom:12" class="event" cx="60" cy="101" r="8" fill-opacity="0"/>\n\t<circle id="function random() { [native code] }:Atom:13" class="event" cx="53" cy="117" r="8" fill-opacity="0"/>\n\t<circle id="function random() { [native code] }:Atom:14" class="event" cx="63" cy="130" r="8" fill-opacity="0"/>\n\t<circle id="function random() { [native code] }:Atom:15" class="event" cx="79" cy="128" r="8" fill-opacity="0"/>\n\t<circle id="function random() { [native code] }:Atom:16" class="event" cx="86" cy="113" r="8" fill-opacity="0"/>\n\t<circle id="function random() { [native code] }:Atom:17" class="event" cx="76" cy="99" r="8" fill-opacity="0"/>\n\t<circle id="function random() { [native code] }:Atom:18" class="event" cx="65" cy="58" r="8" fill-opacity="0"/>\n\t<circle id="function random() { [native code] }:Atom:19" class="event" cx="51" cy="49" r="8" fill-opacity="0"/>\n\t<circle id="function random() { [native code] }:Atom:20" class="event" cx="51" cy="33" r="8" fill-opacity="0"/>\n\t<circle id="function random() { [native code] }:Atom:21" class="event" cx="36" cy="24" r="8" fill-opacity="0"/>\n\t<circle id="function random() { [native code] }:Atom:22" class="event" cx="22" cy="33" r="8" fill-opacity="0"/>\n\t<circle id="function random() { [native code] }:Atom:23" class="event" cx="7" cy="24" r="8" fill-opacity="0"/>\n\t<circle id="function random() { [native code] }:Atom:24" class="event" cx="22" cy="49" r="8" fill-opacity="0"/>\n\t<circle id="function random() { [native code] }:Atom:25" class="event" cx="7" cy="58" r="8" fill-opacity="0"/>\n\t<circle id="function random() { [native code] }:Atom:26" class="event" cx="36" cy="58" r="8" fill-opacity="0"/>\n\t<circle id="function random() { [native code] }:Atom:27" class="event" cx="80" cy="49" r="8" fill-opacity="0"/>\n</svg>