<svg id="function random() { [native code] }" xmlns="http://www.w3.org/2000/svg" version="1.1" width="200px" height="150px" viewBox="0 0 200 150">\n\t<style> #function random() { [native code] } {pointer-events:none; }  #function random() { [native code] } .event  { pointer-events:all;}  </style>\n\t<text x="180" y="69" font-family=" Helvetica" font-weight="900" font-size="10" fill="rgb(48,80,248)">N</text>\n\t<text x="180" y="79" font-family=" Helvetica" font-weight="900" font-size="10" fill="rgb(48,80,248)">H</text>\n\t<text x="121" y="69" font-family=" Helvetica" font-weight="900" font-size="10" fill="rgb(48,80,248)">N</text>\n\t<text x="121" y="79" font-family=" Helvetica" font-weight="900" font-size="10" fill="rgb(48,80,248)">H</text>\n\t<text x="106" y="43" font-family=" Helvetica" font-weight="900" font-size="10" fill="rgb(255,13,13)">O</text>\n\t<text x="77" y="60" font-family=" Helvetica" font-weight="900" font-size="10" fill="rgb(48,80,248)">N</text>\n\t<text x="32" y="18" font-family=" Helvetica" font-weight="900" font-size="10" fill="rgb(31,240,31)">Cl</text>\n\t<text x="2" y="35" font-family=" Helvetica" font-weight="900" font-size="10" fill="rgb(31,240,31)">Cl</text>\n\t<text x="2" y="69" font-family=" Helvetica" font-weight="900" font-size="10" fill="rgb(31,240,31)">Cl</text>\n\t<text x="50" y="97" font-family=" Helvetica" font-weight="900" font-size="10" fill="rgb(48,80,248)">N</text>\n\t<text x="42" y="97" font-family=" Helvetica" font-weight="900" font-size="10" fill="rgb(48,80,248)">H</text>\n\t<line x1="111" y1="58" x2="111" y2="45" style="stroke:rgb(0,0,0);stroke-width:1"/>\n\t<line x1="109" y1="58" x2="109" y2="45" style="stroke:rgb(0,0,0);stroke-width:1"/>\n\t<line x1="95" y1="66" x2="85" y2="60" style="stroke:rgb(0,0,0);stroke-width:1"/>\n\t<line x1="92" y1="67" x2="84" y2="62" style="stroke:rgb(0,0,0);stroke-width:1"/>\n\t<line x1="51" y1="40" x2="51" y2="57" style="stroke:rgb(0,0,0);stroke-width:1"/>\n\t<line x1="49" y1="42" x2="49" y2="56" style="stroke:rgb(0,0,0);stroke-width:1"/>\n\t<line x1="22" y1="40" x2="36" y2="32" style="stroke:rgb(0,0,0);stroke-width:1"/>\n\t<line x1="25" y1="42" x2="36" y2="35" style="stroke:rgb(0,0,0);stroke-width:1"/>\n\t<line x1="36" y1="66" x2="22" y2="57" style="stroke:rgb(0,0,0);stroke-width:1"/>\n\t<line x1="36" y1="63" x2="25" y2="56" style="stroke:rgb(0,0,0);stroke-width:1"/>\n\t<line x1="66" y1="83" x2="66" y2="66" style="stroke:rgb(0,0,0);stroke-width:1"/>\n\t<line x1="68" y1="81" x2="68" y2="68" style="stroke:rgb(0,0,0);stroke-width:1"/>\n\t<line x1="53" y1="125" x2="60" y2="110" style="stroke:rgb(0,0,0);stroke-width:1"/>\n\t<line x1="56" y1="124" x2="62" y2="112" style="stroke:rgb(0,0,0);stroke-width:1"/>\n\t<line x1="80" y1="137" x2="63" y2="139" style="stroke:rgb(0,0,0);stroke-width:1"/>\n\t<line x1="78" y1="135" x2="65" y2="136" style="stroke:rgb(0,0,0);stroke-width:1"/>\n\t<line x1="77" y1="108" x2="87" y2="122" style="stroke:rgb(0,0,0);stroke-width:1"/>\n\t<line x1="76" y1="111" x2="84" y2="122" style="stroke:rgb(0,0,0);stroke-width:1"/>\n\t<line x1="95" y1="83" x2="80" y2="91" style="stroke:rgb(0,0,0);stroke-width:1"/>\n\t<line x1="92" y1="81" x2="81" y2="88" style="stroke:rgb(0,0,0);stroke-width:1"/>\n\t<line x1="188" y1="63" x2="198" y2="57" style="stroke:rgb(0,0,0);stroke-width:1"/>\n\t<line x1="168" y1="57" x2="179" y2="63" style="stroke:rgb(0,0,0);stroke-width:1"/>\n\t<line x1="154" y1="66" x2="168" y2="57" style="stroke:rgb(0,0,0);stroke-width:1"/>\n\t<line x1="139" y1="57" x2="154" y2="66" style="stroke:rgb(0,0,0);stroke-width:1"/>\n\t<line x1="129" y1="63" x2="139" y2="57" style="stroke:rgb(0,0,0);stroke-width:1"/>\n\t<line x1="110" y1="57" x2="120" y2="63" style="stroke:rgb(0,0,0);stroke-width:1"/>\n\t<line x1="95" y1="66" x2="110" y2="57" style="stroke:rgb(0,0,0);stroke-width:1"/>\n\t<line x1="66" y1="66" x2="76" y2="60" style="stroke:rgb(0,0,0);stroke-width:1"/>\n\t<line x1="51" y1="57" x2="66" y2="66" style="stroke:rgb(0,0,0);stroke-width:1"/>\n\t<line x1="36" y1="32" x2="51" y2="40" style="stroke:rgb(0,0,0);stroke-width:1"/>\n\t<line x1="36" y1="20" x2="36" y2="32" style="stroke:rgb(0,0,0);stroke-width:1"/>\n\t<line x1="13" y1="35" x2="22" y2="40" style="stroke:rgb(0,0,0);stroke-width:1"/>\n\t<line x1="22" y1="57" x2="22" y2="40" style="stroke:rgb(0,0,0);stroke-width:1"/>\n\t<line x1="13" y1="63" x2="22" y2="57" style="stroke:rgb(0,0,0);stroke-width:1"/>\n\t<line x1="36" y1="66" x2="51" y2="57" style="stroke:rgb(0,0,0);stroke-width:1"/>\n\t<line x1="58" y1="90" x2="66" y2="83" style="stroke:rgb(0,0,0);stroke-width:1"/>\n\t<line x1="60" y1="110" x2="55" y2="99" style="stroke:rgb(0,0,0);stroke-width:1"/>\n\t<line x1="63" y1="139" x2="53" y2="125" style="stroke:rgb(0,0,0);stroke-width:1"/>\n\t<line x1="87" y1="122" x2="80" y2="137" style="stroke:rgb(0,0,0);stroke-width:1"/>\n\t<line x1="77" y1="108" x2="60" y2="110" style="stroke:rgb(0,0,0);stroke-width:1"/>\n\t<line x1="80" y1="91" x2="77" y2="108" style="stroke:rgb(0,0,0);stroke-width:1"/>\n\t<line x1="80" y1="91" x2="66" y2="83" style="stroke:rgb(0,0,0);stroke-width:1"/>\n\t<line x1="95" y1="83" x2="95" y2="66" style="stroke:rgb(0,0,0);stroke-width:1"/>\n\t<line id="function random() { [native code] }:Bond:7-6" class="event" x1="110" y1="40" x2="110" y2="57" stroke-width="8" stroke-opacity="0"/>\n\t<line id="function random() { [native code] }:Bond:9-8" class="event" x1="80" y1="57" x2="95" y2="66" stroke-width="8" stroke-opacity="0"/>\n\t<line id="function random() { [native code] }:Bond:12-11" class="event" x1="51" y1="40" x2="51" y2="57" stroke-width="8" stroke-opacity="0"/>\n\t<line id="function random() { [native code] }:Bond:15-13" class="event" x1="22" y1="40" x2="36" y2="32" stroke-width="8" stroke-opacity="0"/>\n\t<line id="function random() { [native code] }:Bond:19-17" class="event" x1="36" y1="66" x2="22" y2="57" stroke-width="8" stroke-opacity="0"/>\n\t<line id="function random() { [native code] }:Bond:20-10" class="event" x1="66" y1="83" x2="66" y2="66" stroke-width="8" stroke-opacity="0"/>\n\t<line id="function random() { [native code] }:Bond:23-22" class="event" x1="53" y1="125" x2="60" y2="110" stroke-width="8" stroke-opacity="0"/>\n\t<line id="function random() { [native code] }:Bond:25-24" class="event" x1="80" y1="137" x2="63" y2="139" stroke-width="8" stroke-opacity="0"/>\n\t<line id="function random() { [native code] }:Bond:27-26" class="event" x1="77" y1="108" x2="87" y2="122" stroke-width="8" stroke-opacity="0"/>\n\t<line id="function random() { [native code] }:Bond:29-28" class="event" x1="95" y1="83" x2="80" y2="91" stroke-width="8" stroke-opacity="0"/>\n\t<line id="function random() { [native code] }:Bond:1-0" class="event" x1="183" y1="66" x2="198" y2="57" stroke-width="8" stroke-opacity="0"/>\n\t<line id="function random() { [native code] }:Bond:2-1" class="event" x1="168" y1="57" x2="183" y2="66" stroke-width="8" stroke-opacity="0"/>\n\t<line id="function random() { [native code] }:Bond:3-2" class="event" x1="154" y1="66" x2="168" y2="57" stroke-width="8" stroke-opacity="0"/>\n\t<line id="function random() { [native code] }:Bond:4-3" class="event" x1="139" y1="57" x2="154" y2="66" stroke-width="8" stroke-opacity="0"/>\n\t<line id="function random() { [native code] }:Bond:5-4" class="event" x1="124" y1="66" x2="139" y2="57" stroke-width="8" stroke-opacity="0"/>\n\t<line id="function random() { [native code] }:Bond:6-5" class="event" x1="110" y1="57" x2="124" y2="66" stroke-width="8" stroke-opacity="0"/>\n\t<line id="function random() { [native code] }:Bond:8-6" class="event" x1="95" y1="66" x2="110" y2="57" stroke-width="8" stroke-opacity="0"/>\n\t<line id="function random() { [native code] }:Bond:10-9" class="event" x1="66" y1="66" x2="80" y2="57" stroke-width="8" stroke-opacity="0"/>\n\t<line id="function random() { [native code] }:Bond:11-10" class="event" x1="51" y1="57" x2="66" y2="66" stroke-width="8" stroke-opacity="0"/>\n\t<line id="function random() { [native code] }:Bond:13-12" class="event" x1="36" y1="32" x2="51" y2="40" stroke-width="8" stroke-opacity="0"/>\n\t<line id="function random() { [native code] }:Bond:14-13" class="event" x1="36" y1="15" x2="36" y2="32" stroke-width="8" stroke-opacity="0"/>\n\t<line id="function random() { [native code] }:Bond:16-15" class="event" x1="7" y1="32" x2="22" y2="40" stroke-width="8" stroke-opacity="0"/>\n\t<line id="function random() { [native code] }:Bond:17-15" class="event" x1="22" y1="57" x2="22" y2="40" stroke-width="8" stroke-opacity="0"/>\n\t<line id="function random() { [native code] }:Bond:18-17" class="event" x1="7" y1="66" x2="22" y2="57" stroke-width="8" stroke-opacity="0"/>\n\t<line id="function random() { [native code] }:Bond:19-11" class="event" x1="36" y1="66" x2="51" y2="57" stroke-width="8" stroke-opacity="0"/>\n\t<line id="function random() { [native code] }:Bond:21-20" class="event" x1="53" y1="94" x2="66" y2="83" stroke-width="8" stroke-opacity="0"/>\n\t<line id="function random() { [native code] }:Bond:22-21" class="event" x1="60" y1="110" x2="53" y2="94" stroke-width="8" stroke-opacity="0"/>\n\t<line id="function random() { [native code] }:Bond:24-23" class="event" x1="63" y1="139" x2="53" y2="125" stroke-width="8" stroke-opacity="0"/>\n\t<line id="function random() { [native code] }:Bond:26-25" class="event" x1="87" y1="122" x2="80" y2="137" stroke-width="8" stroke-opacity="0"/>\n\t<line id="function random() { [native code] }:Bond:27-22" class="event" x1="77" y1="108" x2="60" y2="110" stroke-width="8" stroke-opacity="0"/>\n\t<line id="function random() { [native code] }:Bond:28-27" class="event" x1="80" y1="91" x2="77" y2="108" stroke-width="8" stroke-opacity="0"/>\n\t<line id="function random() { [native code] }:Bond:28-20" class="event" x1="80" y1="91" x2="66" y2="83" stroke-width="8" stroke-opacity="0"/>\n\t<line id="function random() { [native code] }:Bond:29-8" class="event" x1="95" y1="83" x2="95" y2="66" stroke-width="8" stroke-opacity="0"/>\n\t<circle id="function random() { [native code] }:Atom:0" class="event" cx="198" cy="57" r="8" fill-opacity="0"/>\n\t<circle id="function random() { [native code] }:Atom:1" class="event" cx="183" cy="66" r="8" fill-opacity="0"/>\n\t<circle id="function random() { [native code] }:Atom:2" class="event" cx="168" cy="57" r="8" fill-opacity="0"/>\n\t<circle id="function random() { [native code] }:Atom:3" class="event" cx="154" cy="66" r="8" fill-opacity="0"/>\n\t<circle id="function random() { [native code] }:Atom:4" class="event" cx="139" cy="57" r="8" fill-opacity="0"/>\n\t<circle id="function random() { [native code] }:Atom:5" class="event" cx="124" cy="66" r="8" fill-opacity="0"/>\n\t<circle id="function random() { [native code] }:Atom:6" class="event" cx="110" cy="57" r="8" fill-opacity="0"/>\n\t<circle id="function random() { [native code] }:Atom:7" class="event" cx="110" cy="40" r="8" fill-opacity="0"/>\n\t<circle id="function random() { [native code] }:Atom:8" class="event" cx="95" cy="66" r="8" fill-opacity="0"/>\n\t<circle id="function random() { [native code] }:Atom:9" class="event" cx="80" cy="57" r="8" fill-opacity="0"/>\n\t<circle id="function random() { [native code] }:Atom:10" class="event" cx="66" cy="66" r="8" fill-opacity="0"/>\n\t<circle id="function random() { [native code] }:Atom:11" class="event" cx="51" cy="57" r="8" fill-opacity="0"/>\n\t<circle id="function random() { [native code] }:Atom:12" class="event" cx="51" cy="40" r="8" fill-opacity="0"/>\n\t<circle id="function random() { [native code] }:Atom:13" class="event" cx="36" cy="32" r="8" fill-opacity="0"/>\n\t<circle id="function random() { [native code] }:Atom:14" class="event" cx="36" cy="15" r="8" fill-opacity="0"/>\n\t<circle id="function random() { [native code] }:Atom:15" class="event" cx="22" cy="40" r="8" fill-opacity="0"/>\n\t<circle id="function random() { [native code] }:Atom:16" class="event" cx="7" cy="32" r="8" fill-opacity="0"/>\n\t<circle id="function random() { [native code] }:Atom:17" class="event" cx="22" cy="57" r="8" fill-opacity="0"/>\n\t<circle id="function random() { [native code] }:Atom:18" class="event" cx="7" cy="66" r="8" fill-opacity="0"/>\n\t<circle id="function random() { [native code] }:Atom:19" class="event" cx="36" cy="66" r="8" fill-opacity="0"/>\n\t<circle id="function random() { [native code] }:Atom:20" class="event" cx="66" cy="83" r="8" fill-opacity="0"/>\n\t<circle id="function random() { [native code] }:Atom:21" class="event" cx="53" cy="94" r="8" fill-opacity="0"/>\n\t<circle id="function random() { [native code] }:Atom:22" class="event" cx="60" cy="110" r="8" fill-opacity="0"/>\n\t<circle id="function random() { [native code] }:Atom:23" class="event" cx="53" cy="125" r="8" fill-opacity="0"/>\n\t<circle id="function random() { [native code] }:Atom:24" class="event" cx="63" cy="139" r="8" fill-opacity="0"/>\n\t<circle id="function random() { [native code] }:Atom:25" class="event" cx="80" cy="137" r="8" fill-opacity="0"/>\n\t<circle id="function random() { [native code] }:Atom:26" class="event" cx="87" cy="122" r="8" fill-opacity="0"/>\n\t<circle id="function random() { [native code] }:Atom:27" class="event" cx="77" cy="108" r="8" fill-opacity="0"/>\n\t<circle id="function random() { [native code] }:Atom:28" class="event" cx="80" cy="91" r="8" fill-opacity="0"/>\n\t<circle id="function random() { [native code] }:Atom:29" class="event" cx="95" cy="83" r="8" fill-opacity="0"/>\n</svg>