<svg id="function random() { [native code] }" xmlns="http://www.w3.org/2000/svg" version="1.1" width="200px" height="150px" viewBox="0 0 200 150">\n\t<style> #function random() { [native code] } {pointer-events:none; }  #function random() { [native code] } .event  { pointer-events:all;}  </style>\n\t<text x="143" y="89" font-family=" Helvetica" font-weight="900" font-size="10" fill="rgb(48,80,248)">N</text>\n\t<text x="150" y="89" font-family=" Helvetica" font-weight="900" font-size="10" fill="rgb(48,80,248)">H</text>\n\t<text x="116" y="52" font-family=" Helvetica" font-weight="900" font-size="10" fill="rgb(48,80,248)">N</text>\n\t<text x="187" y="61" font-family=" Helvetica" font-weight="900" font-size="10" fill="rgb(31,240,31)">Cl</text>\n\t<text x="187" y="27" font-family=" Helvetica" font-weight="900" font-size="10" fill="rgb(31,240,31)">Cl</text>\n\t<text x="72" y="61" font-family=" Helvetica" font-weight="900" font-size="10" fill="rgb(48,80,248)">N</text>\n\t<text x="72" y="71" font-family=" Helvetica" font-weight="900" font-size="10" fill="rgb(48,80,248)">H</text>\n\t<text x="14" y="61" font-family=" Helvetica" font-weight="900" font-size="10" fill="rgb(48,80,248)">N</text>\n\t<text x="10" y="64" font-family=" Helvetica" font-weight="900" font-size="7" fill="rgb(48,80,248)">2</text>\n\t<text x="3" y="61" font-family=" Helvetica" font-weight="900" font-size="10" fill="rgb(48,80,248)">H</text>\n\t<text x="86" y="36" font-family=" Helvetica" font-weight="900" font-size="10" fill="rgb(255,13,13)">O</text>\n\t<line x1="139" y1="101" x2="146" y2="117" style="stroke:rgb(0,0,0);stroke-width:1"/>\n\t<line x1="138" y1="104" x2="143" y2="116" style="stroke:rgb(0,0,0);stroke-width:1"/>\n\t<line x1="119" y1="83" x2="134" y2="75" style="stroke:rgb(0,0,0);stroke-width:1"/>\n\t<line x1="122" y1="84" x2="133" y2="78" style="stroke:rgb(0,0,0);stroke-width:1"/>\n\t<line x1="113" y1="113" x2="123" y2="99" style="stroke:rgb(0,0,0);stroke-width:1"/>\n\t<line x1="116" y1="113" x2="124" y2="102" style="stroke:rgb(0,0,0);stroke-width:1"/>\n\t<line x1="136" y1="130" x2="120" y2="128" style="stroke:rgb(0,0,0);stroke-width:1"/>\n\t<line x1="135" y1="127" x2="122" y2="126" style="stroke:rgb(0,0,0);stroke-width:1"/>\n\t<line x1="105" y1="58" x2="105" y2="75" style="stroke:rgb(0,0,0);stroke-width:1"/>\n\t<line x1="107" y1="60" x2="107" y2="73" style="stroke:rgb(0,0,0);stroke-width:1"/>\n\t<line x1="134" y1="58" x2="124" y2="52" style="stroke:rgb(0,0,0);stroke-width:1"/>\n\t<line x1="131" y1="59" x2="123" y2="54" style="stroke:rgb(0,0,0);stroke-width:1"/>\n\t<line x1="163" y1="58" x2="148" y2="49" style="stroke:rgb(0,0,0);stroke-width:1"/>\n\t<line x1="163" y1="55" x2="151" y2="48" style="stroke:rgb(0,0,0);stroke-width:1"/>\n\t<line x1="177" y1="33" x2="177" y2="49" style="stroke:rgb(0,0,0);stroke-width:1"/>\n\t<line x1="175" y1="34" x2="175" y2="48" style="stroke:rgb(0,0,0);stroke-width:1"/>\n\t<line x1="148" y1="33" x2="163" y2="24" style="stroke:rgb(0,0,0);stroke-width:1"/>\n\t<line x1="151" y1="34" x2="163" y2="27" style="stroke:rgb(0,0,0);stroke-width:1"/>\n\t<line x1="91" y1="50" x2="91" y2="38" style="stroke:rgb(0,0,0);stroke-width:1"/>\n\t<line x1="89" y1="50" x2="89" y2="38" style="stroke:rgb(0,0,0);stroke-width:1"/>\n\t<line x1="146" y1="117" x2="163" y2="118" style="stroke:rgb(0,0,0);stroke-width:1"/>\n\t<line x1="144" y1="91" x2="139" y2="101" style="stroke:rgb(0,0,0);stroke-width:1"/>\n\t<line x1="134" y1="75" x2="142" y2="82" style="stroke:rgb(0,0,0);stroke-width:1"/>\n\t<line x1="123" y1="99" x2="119" y2="83" style="stroke:rgb(0,0,0);stroke-width:1"/>\n\t<line x1="123" y1="99" x2="139" y2="101" style="stroke:rgb(0,0,0);stroke-width:1"/>\n\t<line x1="120" y1="128" x2="113" y2="113" style="stroke:rgb(0,0,0);stroke-width:1"/>\n\t<line x1="136" y1="130" x2="146" y2="117" style="stroke:rgb(0,0,0);stroke-width:1"/>\n\t<line x1="105" y1="75" x2="119" y2="83" style="stroke:rgb(0,0,0);stroke-width:1"/>\n\t<line x1="115" y1="52" x2="105" y2="58" style="stroke:rgb(0,0,0);stroke-width:1"/>\n\t<line x1="134" y1="58" x2="134" y2="75" style="stroke:rgb(0,0,0);stroke-width:1"/>\n\t<line x1="148" y1="49" x2="134" y2="58" style="stroke:rgb(0,0,0);stroke-width:1"/>\n\t<line x1="177" y1="49" x2="163" y2="58" style="stroke:rgb(0,0,0);stroke-width:1"/>\n\t<line x1="186" y1="54" x2="177" y2="49" style="stroke:rgb(0,0,0);stroke-width:1"/>\n\t<line x1="163" y1="24" x2="177" y2="33" style="stroke:rgb(0,0,0);stroke-width:1"/>\n\t<line x1="148" y1="33" x2="148" y2="49" style="stroke:rgb(0,0,0);stroke-width:1"/>\n\t<line x1="186" y1="27" x2="177" y2="33" style="stroke:rgb(0,0,0);stroke-width:1"/>\n\t<line x1="90" y1="49" x2="105" y2="58" style="stroke:rgb(0,0,0);stroke-width:1"/>\n\t<line x1="80" y1="55" x2="90" y2="49" style="stroke:rgb(0,0,0);stroke-width:1"/>\n\t<line x1="61" y1="49" x2="71" y2="55" style="stroke:rgb(0,0,0);stroke-width:1"/>\n\t<line x1="46" y1="58" x2="61" y2="49" style="stroke:rgb(0,0,0);stroke-width:1"/>\n\t<line x1="32" y1="49" x2="46" y2="58" style="stroke:rgb(0,0,0);stroke-width:1"/>\n\t<line x1="22" y1="55" x2="32" y2="49" style="stroke:rgb(0,0,0);stroke-width:1"/>\n\t<line id="function random() { [native code] }:Bond:2-1" class="event" x1="139" y1="101" x2="146" y2="117" stroke-width="8" stroke-opacity="0"/>\n\t<line id="function random() { [native code] }:Bond:5-4" class="event" x1="119" y1="83" x2="134" y2="75" stroke-width="8" stroke-opacity="0"/>\n\t<line id="function random() { [native code] }:Bond:7-6" class="event" x1="113" y1="113" x2="123" y2="99" stroke-width="8" stroke-opacity="0"/>\n\t<line id="function random() { [native code] }:Bond:9-8" class="event" x1="136" y1="130" x2="120" y2="128" stroke-width="8" stroke-opacity="0"/>\n\t<line id="function random() { [native code] }:Bond:11-10" class="event" x1="105" y1="58" x2="105" y2="75" stroke-width="8" stroke-opacity="0"/>\n\t<line id="function random() { [native code] }:Bond:13-12" class="event" x1="134" y1="58" x2="119" y2="49" stroke-width="8" stroke-opacity="0"/>\n\t<line id="function random() { [native code] }:Bond:15-14" class="event" x1="163" y1="58" x2="148" y2="49" stroke-width="8" stroke-opacity="0"/>\n\t<line id="function random() { [native code] }:Bond:18-16" class="event" x1="177" y1="33" x2="177" y2="49" stroke-width="8" stroke-opacity="0"/>\n\t<line id="function random() { [native code] }:Bond:20-19" class="event" x1="148" y1="33" x2="163" y2="24" stroke-width="8" stroke-opacity="0"/>\n\t<line id="function random() { [native code] }:Bond:28-22" class="event" x1="90" y1="33" x2="90" y2="49" stroke-width="8" stroke-opacity="0"/>\n\t<line id="function random() { [native code] }:Bond:1-0" class="event" x1="146" y1="117" x2="163" y2="118" stroke-width="8" stroke-opacity="0"/>\n\t<line id="function random() { [native code] }:Bond:3-2" class="event" x1="146" y1="86" x2="139" y2="101" stroke-width="8" stroke-opacity="0"/>\n\t<line id="function random() { [native code] }:Bond:4-3" class="event" x1="134" y1="75" x2="146" y2="86" stroke-width="8" stroke-opacity="0"/>\n\t<line id="function random() { [native code] }:Bond:6-5" class="event" x1="123" y1="99" x2="119" y2="83" stroke-width="8" stroke-opacity="0"/>\n\t<line id="function random() { [native code] }:Bond:6-2" class="event" x1="123" y1="99" x2="139" y2="101" stroke-width="8" stroke-opacity="0"/>\n\t<line id="function random() { [native code] }:Bond:8-7" class="event" x1="120" y1="128" x2="113" y2="113" stroke-width="8" stroke-opacity="0"/>\n\t<line id="function random() { [native code] }:Bond:9-1" class="event" x1="136" y1="130" x2="146" y2="117" stroke-width="8" stroke-opacity="0"/>\n\t<line id="function random() { [native code] }:Bond:10-5" class="event" x1="105" y1="75" x2="119" y2="83" stroke-width="8" stroke-opacity="0"/>\n\t<line id="function random() { [native code] }:Bond:12-11" class="event" x1="119" y1="49" x2="105" y2="58" stroke-width="8" stroke-opacity="0"/>\n\t<line id="function random() { [native code] }:Bond:13-4" class="event" x1="134" y1="58" x2="134" y2="75" stroke-width="8" stroke-opacity="0"/>\n\t<line id="function random() { [native code] }:Bond:14-13" class="event" x1="148" y1="49" x2="134" y2="58" stroke-width="8" stroke-opacity="0"/>\n\t<line id="function random() { [native code] }:Bond:16-15" class="event" x1="177" y1="49" x2="163" y2="58" stroke-width="8" stroke-opacity="0"/>\n\t<line id="function random() { [native code] }:Bond:17-16" class="event" x1="192" y1="58" x2="177" y2="49" stroke-width="8" stroke-opacity="0"/>\n\t<line id="function random() { [native code] }:Bond:19-18" class="event" x1="163" y1="24" x2="177" y2="33" stroke-width="8" stroke-opacity="0"/>\n\t<line id="function random() { [native code] }:Bond:20-14" class="event" x1="148" y1="33" x2="148" y2="49" stroke-width="8" stroke-opacity="0"/>\n\t<line id="function random() { [native code] }:Bond:21-18" class="event" x1="192" y1="24" x2="177" y2="33" stroke-width="8" stroke-opacity="0"/>\n\t<line id="function random() { [native code] }:Bond:22-11" class="event" x1="90" y1="49" x2="105" y2="58" stroke-width="8" stroke-opacity="0"/>\n\t<line id="function random() { [native code] }:Bond:23-22" class="event" x1="76" y1="58" x2="90" y2="49" stroke-width="8" stroke-opacity="0"/>\n\t<line id="function random() { [native code] }:Bond:24-23" class="event" x1="61" y1="49" x2="76" y2="58" stroke-width="8" stroke-opacity="0"/>\n\t<line id="function random() { [native code] }:Bond:25-24" class="event" x1="46" y1="58" x2="61" y2="49" stroke-width="8" stroke-opacity="0"/>\n\t<line id="function random() { [native code] }:Bond:26-25" class="event" x1="32" y1="49" x2="46" y2="58" stroke-width="8" stroke-opacity="0"/>\n\t<line id="function random() { [native code] }:Bond:27-26" class="event" x1="17" y1="58" x2="32" y2="49" stroke-width="8" stroke-opacity="0"/>\n\t<circle id="function random() { [native code] }:Atom:0" class="event" cx="163" cy="118" r="8" fill-opacity="0"/>\n\t<circle id="function random() { [native code] }:Atom:1" class="event" cx="146" cy="117" r="8" fill-opacity="0"/>\n\t<circle id="function random() { [native code] }:Atom:2" class="event" cx="139" cy="101" r="8" fill-opacity="0"/>\n\t<circle id="function random() { [native code] }:Atom:3" class="event" cx="146" cy="86" r="8" fill-opacity="0"/>\n\t<circle id="function random() { [native code] }:Atom:4" class="event" cx="134" cy="75" r="8" fill-opacity="0"/>\n\t<circle id="function random() { [native code] }:Atom:5" class="event" cx="119" cy="83" r="8" fill-opacity="0"/>\n\t<circle id="function random() { [native code] }:Atom:6" class="event" cx="123" cy="99" r="8" fill-opacity="0"/>\n\t<circle id="function random() { [native code] }:Atom:7" class="event" cx="113" cy="113" r="8" fill-opacity="0"/>\n\t<circle id="function random() { [native code] }:Atom:8" class="event" cx="120" cy="128" r="8" fill-opacity="0"/>\n\t<circle id="function random() { [native code] }:Atom:9" class="event" cx="136" cy="130" r="8" fill-opacity="0"/>\n\t<circle id="function random() { [native code] }:Atom:10" class="event" cx="105" cy="75" r="8" fill-opacity="0"/>\n\t<circle id="function random() { [native code] }:Atom:11" class="event" cx="105" cy="58" r="8" fill-opacity="0"/>\n\t<circle id="function random() { [native code] }:Atom:12" class="event" cx="119" cy="49" r="8" fill-opacity="0"/>\n\t<circle id="function random() { [native code] }:Atom:13" class="event" cx="134" cy="58" r="8" fill-opacity="0"/>\n\t<circle id="function random() { [native code] }:Atom:14" class="event" cx="148" cy="49" r="8" fill-opacity="0"/>\n\t<circle id="function random() { [native code] }:Atom:15" class="event" cx="163" cy="58" r="8" fill-opacity="0"/>\n\t<circle id="function random() { [native code] }:Atom:16" class="event" cx="177" cy="49" r="8" fill-opacity="0"/>\n\t<circle id="function random() { [native code] }:Atom:17" class="event" cx="192" cy="58" r="8" fill-opacity="0"/>\n\t<circle id="function random() { [native code] }:Atom:18" class="event" cx="177" cy="33" r="8" fill-opacity="0"/>\n\t<circle id="function random() { [native code] }:Atom:19" class="event" cx="163" cy="24" r="8" fill-opacity="0"/>\n\t<circle id="function random() { [native code] }:Atom:20" class="event" cx="148" cy="33" r="8" fill-opacity="0"/>\n\t<circle id="function random() { [native code] }:Atom:21" class="event" cx="192" cy="24" r="8" fill-opacity="0"/>\n\t<circle id="function random() { [native code] }:Atom:22" class="event" cx="90" cy="49" r="8" fill-opacity="0"/>\n\t<circle id="function random() { [native code] }:Atom:23" class="event" cx="76" cy="58" r="8" fill-opacity="0"/>\n\t<circle id="function random() { [native code] }:Atom:24" class="event" cx="61" cy="49" r="8" fill-opacity="0"/>\n\t<circle id="function random() { [native code] }:Atom:25" class="event" cx="46" cy="58" r="8" fill-opacity="0"/>\n\t<circle id="function random() { [native code] }:Atom:26" class="event" cx="32" cy="49" r="8" fill-opacity="0"/>\n\t<circle id="function random() { [native code] }:Atom:27" class="event" cx="17" cy="58" r="8" fill-opacity="0"/>\n\t<circle id="function random() { [native code] }:Atom:28" class="event" cx="90" cy="33" r="8" fill-opacity="0"/>\n</svg>