<svg id="function random() { [native code] }" xmlns="http://www.w3.org/2000/svg" version="1.1" width="200px" height="150px" viewBox="0 0 200 150">\n\t<style> #function random() { [native code] } {pointer-events:none; }  #function random() { [native code] } .event  { pointer-events:all;}  </style>\n\t<text x="101" y="131" font-family=" Helvetica" font-weight="900" font-size="12" fill="rgb(255,13,13)">O</text>\n\t<text x="67" y="131" font-family=" Helvetica" font-weight="900" font-size="12" fill="rgb(48,80,248)">N</text>\n\t<text x="67" y="143" font-family=" Helvetica" font-weight="900" font-size="12" fill="rgb(48,80,248)">H</text>\n\t<text x="15" y="121" font-family=" Helvetica" font-weight="900" font-size="12" fill="rgb(48,80,248)">N</text>\n\t<text x="15" y="109" font-family=" Helvetica" font-weight="900" font-size="12" fill="rgb(48,80,248)">H</text>\n\t<text x="101" y="91" font-family=" Helvetica" font-weight="900" font-size="12" fill="rgb(48,80,248)">N</text>\n\t<text x="162" y="13" font-family=" Helvetica" font-weight="900" font-size="12" fill="rgb(144,224,80)">F</text>\n\t<text x="189" y="21" font-family=" Helvetica" font-weight="900" font-size="12" fill="rgb(144,224,80)">F</text>\n\t<text x="182" y="48" font-family=" Helvetica" font-weight="900" font-size="12" fill="rgb(144,224,80)">F</text>\n\t<text x="102" y="31" font-family=" Helvetica" font-weight="900" font-size="12" fill="rgb(144,224,80)">F</text>\n\t<text x="80" y="41" font-family=" Helvetica" font-weight="900" font-size="12" fill="rgb(48,80,248)">N</text>\n\t<text x="89" y="41" font-family=" Helvetica" font-weight="900" font-size="12" fill="rgb(48,80,248)">H</text>\n\t<line x1="87" y1="118" x2="99" y2="125" style="stroke:rgb(0,0,0);stroke-width:1"/>\n\t<line x1="88" y1="115" x2="101" y2="123" style="stroke:rgb(0,0,0);stroke-width:1"/>\n\t<line x1="88" y1="97" x2="100" y2="90" style="stroke:rgb(0,0,0);stroke-width:1"/>\n\t<line x1="89" y1="93" x2="99" y2="87" style="stroke:rgb(0,0,0);stroke-width:1"/>\n\t<line x1="141" y1="67" x2="123" y2="57" style="stroke:rgb(0,0,0);stroke-width:1"/>\n\t<line x1="140" y1="63" x2="127" y2="55" style="stroke:rgb(0,0,0);stroke-width:1"/>\n\t<line x1="158" y1="37" x2="158" y2="57" style="stroke:rgb(0,0,0);stroke-width:1"/>\n\t<line x1="155" y1="39" x2="155" y2="55" style="stroke:rgb(0,0,0);stroke-width:1"/>\n\t<line x1="123" y1="37" x2="141" y2="27" style="stroke:rgb(0,0,0);stroke-width:1"/>\n\t<line x1="127" y1="38" x2="140" y2="30" style="stroke:rgb(0,0,0);stroke-width:1"/>\n\t<line x1="88" y1="57" x2="106" y2="67" style="stroke:rgb(0,0,0);stroke-width:1"/>\n\t<line x1="89" y1="61" x2="102" y2="68" style="stroke:rgb(0,0,0);stroke-width:1"/>\n\t<line x1="52" y1="19" x2="64" y2="35" style="stroke:rgb(0,0,0);stroke-width:1"/>\n\t<line x1="51" y1="22" x2="61" y2="35" style="stroke:rgb(0,0,0);stroke-width:1"/>\n\t<line x1="24" y1="39" x2="33" y2="21" style="stroke:rgb(0,0,0);stroke-width:1"/>\n\t<line x1="28" y1="39" x2="34" y2="24" style="stroke:rgb(0,0,0);stroke-width:1"/>\n\t<line x1="56" y1="54" x2="36" y2="56" style="stroke:rgb(0,0,0);stroke-width:1"/>\n\t<line x1="54" y1="51" x2="38" y2="52" style="stroke:rgb(0,0,0);stroke-width:1"/>\n\t<line x1="71" y1="87" x2="71" y2="67" style="stroke:rgb(0,0,0);stroke-width:1"/>\n\t<line x1="74" y1="85" x2="74" y2="69" style="stroke:rgb(0,0,0);stroke-width:1"/>\n\t<line x1="76" y1="124" x2="88" y2="117" style="stroke:rgb(0,0,0);stroke-width:1"/>\n\t<line x1="54" y1="117" x2="66" y2="124" style="stroke:rgb(0,0,0);stroke-width:1"/>\n\t<line x1="36" y1="127" x2="54" y2="117" style="stroke:rgb(0,0,0);stroke-width:1"/>\n\t<line x1="24" y1="120" x2="36" y2="127" style="stroke:rgb(0,0,0);stroke-width:1"/>\n\t<line x1="2" y1="127" x2="14" y2="120" style="stroke:rgb(0,0,0);stroke-width:1"/>\n\t<line x1="88" y1="97" x2="88" y2="117" style="stroke:rgb(0,0,0);stroke-width:1"/>\n\t<line x1="106" y1="67" x2="106" y2="81" style="stroke:rgb(0,0,0);stroke-width:1"/>\n\t<line x1="123" y1="57" x2="106" y2="67" style="stroke:rgb(0,0,0);stroke-width:1"/>\n\t<line x1="158" y1="57" x2="141" y2="67" style="stroke:rgb(0,0,0);stroke-width:1"/>\n\t<line x1="175" y1="27" x2="158" y2="37" style="stroke:rgb(0,0,0);stroke-width:1"/>\n\t<line x1="169" y1="15" x2="175" y2="27" style="stroke:rgb(0,0,0);stroke-width:1"/>\n\t<line x1="188" y1="19" x2="175" y2="27" style="stroke:rgb(0,0,0);stroke-width:1"/>\n\t<line x1="182" y1="38" x2="175" y2="27" style="stroke:rgb(0,0,0);stroke-width:1"/>\n\t<line x1="141" y1="27" x2="158" y2="37" style="stroke:rgb(0,0,0);stroke-width:1"/>\n\t<line x1="123" y1="37" x2="123" y2="57" style="stroke:rgb(0,0,0);stroke-width:1"/>\n\t<line x1="110" y1="29" x2="123" y2="37" style="stroke:rgb(0,0,0);stroke-width:1"/>\n\t<line x1="86" y1="43" x2="88" y2="57" style="stroke:rgb(0,0,0);stroke-width:1"/>\n\t<line x1="64" y1="35" x2="79" y2="37" style="stroke:rgb(0,0,0);stroke-width:1"/>\n\t<line x1="33" y1="21" x2="52" y2="19" style="stroke:rgb(0,0,0);stroke-width:1"/>\n\t<line x1="36" y1="56" x2="24" y2="39" style="stroke:rgb(0,0,0);stroke-width:1"/>\n\t<line x1="56" y1="54" x2="64" y2="35" style="stroke:rgb(0,0,0);stroke-width:1"/>\n\t<line x1="71" y1="67" x2="56" y2="54" style="stroke:rgb(0,0,0);stroke-width:1"/>\n\t<line x1="71" y1="67" x2="88" y2="57" style="stroke:rgb(0,0,0);stroke-width:1"/>\n\t<line x1="71" y1="87" x2="88" y2="97" style="stroke:rgb(0,0,0);stroke-width:1"/>\n\t<line id="function random() { [native code] }:Bond:1-0" class="event" x1="88" y1="117" x2="106" y2="127" stroke-width="8" stroke-opacity="0"/>\n\t<line id="function random() { [native code] }:Bond:8-7" class="event" x1="106" y1="87" x2="88" y2="97" stroke-width="8" stroke-opacity="0"/>\n\t<line id="function random() { [native code] }:Bond:11-10" class="event" x1="141" y1="67" x2="123" y2="57" stroke-width="8" stroke-opacity="0"/>\n\t<line id="function random() { [native code] }:Bond:13-12" class="event" x1="158" y1="37" x2="158" y2="57" stroke-width="8" stroke-opacity="0"/>\n\t<line id="function random() { [native code] }:Bond:19-18" class="event" x1="123" y1="37" x2="141" y2="27" stroke-width="8" stroke-opacity="0"/>\n\t<line id="function random() { [native code] }:Bond:21-9" class="event" x1="88" y1="57" x2="106" y2="67" stroke-width="8" stroke-opacity="0"/>\n\t<line id="function random() { [native code] }:Bond:24-23" class="event" x1="52" y1="19" x2="64" y2="35" stroke-width="8" stroke-opacity="0"/>\n\t<line id="function random() { [native code] }:Bond:26-25" class="event" x1="24" y1="39" x2="33" y2="21" stroke-width="8" stroke-opacity="0"/>\n\t<line id="function random() { [native code] }:Bond:28-27" class="event" x1="56" y1="54" x2="36" y2="56" stroke-width="8" stroke-opacity="0"/>\n\t<line id="function random() { [native code] }:Bond:30-29" class="event" x1="71" y1="87" x2="71" y2="67" stroke-width="8" stroke-opacity="0"/>\n\t<line id="function random() { [native code] }:Bond:2-1" class="event" x1="71" y1="127" x2="88" y2="117" stroke-width="8" stroke-opacity="0"/>\n\t<line id="function random() { [native code] }:Bond:3-2" class="event" x1="54" y1="117" x2="71" y2="127" stroke-width="8" stroke-opacity="0"/>\n\t<line id="function random() { [native code] }:Bond:4-3" class="event" x1="36" y1="127" x2="54" y2="117" stroke-width="8" stroke-opacity="0"/>\n\t<line id="function random() { [native code] }:Bond:5-4" class="event" x1="19" y1="117" x2="36" y2="127" stroke-width="8" stroke-opacity="0"/>\n\t<line id="function random() { [native code] }:Bond:6-5" class="event" x1="2" y1="127" x2="19" y2="117" stroke-width="8" stroke-opacity="0"/>\n\t<line id="function random() { [native code] }:Bond:7-1" class="event" x1="88" y1="97" x2="88" y2="117" stroke-width="8" stroke-opacity="0"/>\n\t<line id="function random() { [native code] }:Bond:9-8" class="event" x1="106" y1="67" x2="106" y2="87" stroke-width="8" stroke-opacity="0"/>\n\t<line id="function random() { [native code] }:Bond:10-9" class="event" x1="123" y1="57" x2="106" y2="67" stroke-width="8" stroke-opacity="0"/>\n\t<line id="function random() { [native code] }:Bond:12-11" class="event" x1="158" y1="57" x2="141" y2="67" stroke-width="8" stroke-opacity="0"/>\n\t<line id="function random() { [native code] }:Bond:14-13" class="event" x1="175" y1="27" x2="158" y2="37" stroke-width="8" stroke-opacity="0"/>\n\t<line id="function random() { [native code] }:Bond:15-14" class="event" x1="165" y1="9" x2="175" y2="27" stroke-width="8" stroke-opacity="0"/>\n\t<line id="function random() { [native code] }:Bond:16-14" class="event" x1="193" y1="17" x2="175" y2="27" stroke-width="8" stroke-opacity="0"/>\n\t<line id="function random() { [native code] }:Bond:17-14" class="event" x1="185" y1="44" x2="175" y2="27" stroke-width="8" stroke-opacity="0"/>\n\t<line id="function random() { [native code] }:Bond:18-13" class="event" x1="141" y1="27" x2="158" y2="37" stroke-width="8" stroke-opacity="0"/>\n\t<line id="function random() { [native code] }:Bond:19-10" class="event" x1="123" y1="37" x2="123" y2="57" stroke-width="8" stroke-opacity="0"/>\n\t<line id="function random() { [native code] }:Bond:20-19" class="event" x1="106" y1="27" x2="123" y2="37" stroke-width="8" stroke-opacity="0"/>\n\t<line id="function random() { [native code] }:Bond:22-21" class="event" x1="84" y1="37" x2="88" y2="57" stroke-width="8" stroke-opacity="0"/>\n\t<line id="function random() { [native code] }:Bond:23-22" class="event" x1="64" y1="35" x2="84" y2="37" stroke-width="8" stroke-opacity="0"/>\n\t<line id="function random() { [native code] }:Bond:25-24" class="event" x1="33" y1="21" x2="52" y2="19" stroke-width="8" stroke-opacity="0"/>\n\t<line id="function random() { [native code] }:Bond:27-26" class="event" x1="36" y1="56" x2="24" y2="39" stroke-width="8" stroke-opacity="0"/>\n\t<line id="function random() { [native code] }:Bond:28-23" class="event" x1="56" y1="54" x2="64" y2="35" stroke-width="8" stroke-opacity="0"/>\n\t<line id="function random() { [native code] }:Bond:29-28" class="event" x1="71" y1="67" x2="56" y2="54" stroke-width="8" stroke-opacity="0"/>\n\t<line id="function random() { [native code] }:Bond:29-21" class="event" x1="71" y1="67" x2="88" y2="57" stroke-width="8" stroke-opacity="0"/>\n\t<line id="function random() { [native code] }:Bond:30-7" class="event" x1="71" y1="87" x2="88" y2="97" stroke-width="8" stroke-opacity="0"/>\n\t<circle id="function random() { [native code] }:Atom:0" class="event" cx="106" cy="127" r="8" fill-opacity="0"/>\n\t<circle id="function random() { [native code] }:Atom:1" class="event" cx="88" cy="117" r="8" fill-opacity="0"/>\n\t<circle id="function random() { [native code] }:Atom:2" class="event" cx="71" cy="127" r="8" fill-opacity="0"/>\n\t<circle id="function random() { [native code] }:Atom:3" class="event" cx="54" cy="117" r="8" fill-opacity="0"/>\n\t<circle id="function random() { [native code] }:Atom:4" class="event" cx="36" cy="127" r="8" fill-opacity="0"/>\n\t<circle id="function random() { [native code] }:Atom:5" class="event" cx="19" cy="117" r="8" fill-opacity="0"/>\n\t<circle id="function random() { [native code] }:Atom:6" class="event" cx="2" cy="127" r="8" fill-opacity="0"/>\n\t<circle id="function random() { [native code] }:Atom:7" class="event" cx="88" cy="97" r="8" fill-opacity="0"/>\n\t<circle id="function random() { [native code] }:Atom:8" class="event" cx="106" cy="87" r="8" fill-opacity="0"/>\n\t<circle id="function random() { [native code] }:Atom:9" class="event" cx="106" cy="67" r="8" fill-opacity="0"/>\n\t<circle id="function random() { [native code] }:Atom:10" class="event" cx="123" cy="57" r="8" fill-opacity="0"/>\n\t<circle id="function random() { [native code] }:Atom:11" class="event" cx="141" cy="67" r="8" fill-opacity="0"/>\n\t<circle id="function random() { [native code] }:Atom:12" class="event" cx="158" cy="57" r="8" fill-opacity="0"/>\n\t<circle id="function random() { [native code] }:Atom:13" class="event" cx="158" cy="37" r="8" fill-opacity="0"/>\n\t<circle id="function random() { [native code] }:Atom:14" class="event" cx="175" cy="27" r="8" fill-opacity="0"/>\n\t<circle id="function random() { [native code] }:Atom:15" class="event" cx="165" cy="9" r="8" fill-opacity="0"/>\n\t<circle id="function random() { [native code] }:Atom:16" class="event" cx="193" cy="17" r="8" fill-opacity="0"/>\n\t<circle id="function random() { [native code] }:Atom:17" class="event" cx="185" cy="44" r="8" fill-opacity="0"/>\n\t<circle id="function random() { [native code] }:Atom:18" class="event" cx="141" cy="27" r="8" fill-opacity="0"/>\n\t<circle id="function random() { [native code] }:Atom:19" class="event" cx="123" cy="37" r="8" fill-opacity="0"/>\n\t<circle id="function random() { [native code] }:Atom:20" class="event" cx="106" cy="27" r="8" fill-opacity="0"/>\n\t<circle id="function random() { [native code] }:Atom:21" class="event" cx="88" cy="57" r="8" fill-opacity="0"/>\n\t<circle id="function random() { [native code] }:Atom:22" class="event" cx="84" cy="37" r="8" fill-opacity="0"/>\n\t<circle id="function random() { [native code] }:Atom:23" class="event" cx="64" cy="35" r="8" fill-opacity="0"/>\n\t<circle id="function random() { [native code] }:Atom:24" class="event" cx="52" cy="19" r="8" fill-opacity="0"/>\n\t<circle id="function random() { [native code] }:Atom:25" class="event" cx="33" cy="21" r="8" fill-opacity="0"/>\n\t<circle id="function random() { [native code] }:Atom:26" class="event" cx="24" cy="39" r="8" fill-opacity="0"/>\n\t<circle id="function random() { [native code] }:Atom:27" class="event" cx="36" cy="56" r="8" fill-opacity="0"/>\n\t<circle id="function random() { [native code] }:Atom:28" class="event" cx="56" cy="54" r="8" fill-opacity="0"/>\n\t<circle id="function random() { [native code] }:Atom:29" class="event" cx="71" cy="67" r="8" fill-opacity="0"/>\n\t<circle id="function random() { [native code] }:Atom:30" class="event" cx="71" cy="87" r="8" fill-opacity="0"/>\n</svg>