<svg id="function random() { [native code] }" xmlns="http://www.w3.org/2000/svg" version="1.1" width="200px" height="150px" viewBox="0 0 200 150">\n\t<style> #function random() { [native code] } {pointer-events:none; }  #function random() { [native code] } .event  { pointer-events:all;}  </style>\n\t<text x="179" y="130" font-family=" Helvetica" font-weight="900" font-size="12" fill="rgb(255,13,13)">O</text>\n\t<text x="188" y="130" font-family=" Helvetica" font-weight="900" font-size="12" fill="rgb(255,13,13)">H</text>\n\t<text x="128" y="120" font-family=" Helvetica" font-weight="900" font-size="12" fill="rgb(48,80,248)">N</text>\n\t<text x="128" y="108" font-family=" Helvetica" font-weight="900" font-size="12" fill="rgb(48,80,248)">H</text>\n\t<text x="77" y="130" font-family=" Helvetica" font-weight="900" font-size="12" fill="rgb(48,80,248)">N</text>\n\t<text x="77" y="142" font-family=" Helvetica" font-weight="900" font-size="12" fill="rgb(48,80,248)">H</text>\n\t<text x="136" y="15" font-family=" Helvetica" font-weight="900" font-size="12" fill="rgb(144,224,80)">F</text>\n\t<text x="163" y="22" font-family=" Helvetica" font-weight="900" font-size="12" fill="rgb(144,224,80)">F</text>\n\t<text x="156" y="49" font-family=" Helvetica" font-weight="900" font-size="12" fill="rgb(144,224,80)">F</text>\n\t<text x="77" y="91" font-family=" Helvetica" font-weight="900" font-size="12" fill="rgb(48,80,248)">N</text>\n\t<text x="56" y="42" font-family=" Helvetica" font-weight="900" font-size="12" fill="rgb(48,80,248)">N</text>\n\t<text x="64" y="42" font-family=" Helvetica" font-weight="900" font-size="12" fill="rgb(48,80,248)">H</text>\n\t<text x="43" y="130" font-family=" Helvetica" font-weight="900" font-size="12" fill="rgb(255,13,13)">O</text>\n\t<line x1="47" y1="87" x2="64" y2="97" style="stroke:rgb(0,0,0);stroke-width:1"/>\n\t<line x1="50" y1="85" x2="64" y2="93" style="stroke:rgb(0,0,0);stroke-width:1"/>\n\t<line x1="64" y1="57" x2="47" y2="67" style="stroke:rgb(0,0,0);stroke-width:1"/>\n\t<line x1="61" y1="56" x2="48" y2="63" style="stroke:rgb(0,0,0);stroke-width:1"/>\n\t<line x1="115" y1="67" x2="98" y2="57" style="stroke:rgb(0,0,0);stroke-width:1"/>\n\t<line x1="115" y1="64" x2="102" y2="56" style="stroke:rgb(0,0,0);stroke-width:1"/>\n\t<line x1="132" y1="38" x2="132" y2="57" style="stroke:rgb(0,0,0);stroke-width:1"/>\n\t<line x1="129" y1="40" x2="129" y2="55" style="stroke:rgb(0,0,0);stroke-width:1"/>\n\t<line x1="98" y1="38" x2="115" y2="28" style="stroke:rgb(0,0,0);stroke-width:1"/>\n\t<line x1="102" y1="39" x2="115" y2="32" style="stroke:rgb(0,0,0);stroke-width:1"/>\n\t<line x1="81" y1="67" x2="81" y2="81" style="stroke:rgb(0,0,0);stroke-width:1"/>\n\t<line x1="78" y1="69" x2="78" y2="81" style="stroke:rgb(0,0,0);stroke-width:1"/>\n\t<line x1="29" y1="20" x2="41" y2="36" style="stroke:rgb(0,0,0);stroke-width:1"/>\n\t<line x1="28" y1="24" x2="37" y2="36" style="stroke:rgb(0,0,0);stroke-width:1"/>\n\t<line x1="1" y1="40" x2="9" y2="22" style="stroke:rgb(0,0,0);stroke-width:1"/>\n\t<line x1="5" y1="40" x2="11" y2="25" style="stroke:rgb(0,0,0);stroke-width:1"/>\n\t<line x1="33" y1="54" x2="13" y2="56" style="stroke:rgb(0,0,0);stroke-width:1"/>\n\t<line x1="30" y1="51" x2="15" y2="53" style="stroke:rgb(0,0,0);stroke-width:1"/>\n\t<line x1="64" y1="115" x2="52" y2="122" style="stroke:rgb(0,0,0);stroke-width:1"/>\n\t<line x1="66" y1="117" x2="54" y2="124" style="stroke:rgb(0,0,0);stroke-width:1"/>\n\t<line x1="166" y1="116" x2="178" y2="123" style="stroke:rgb(0,0,0);stroke-width:1"/>\n\t<line x1="149" y1="126" x2="166" y2="116" style="stroke:rgb(0,0,0);stroke-width:1"/>\n\t<line x1="138" y1="120" x2="149" y2="126" style="stroke:rgb(0,0,0);stroke-width:1"/>\n\t<line x1="115" y1="126" x2="127" y2="120" style="stroke:rgb(0,0,0);stroke-width:1"/>\n\t<line x1="98" y1="116" x2="115" y2="126" style="stroke:rgb(0,0,0);stroke-width:1"/>\n\t<line x1="87" y1="123" x2="98" y2="116" style="stroke:rgb(0,0,0);stroke-width:1"/>\n\t<line x1="64" y1="116" x2="76" y2="123" style="stroke:rgb(0,0,0);stroke-width:1"/>\n\t<line x1="64" y1="97" x2="64" y2="116" style="stroke:rgb(0,0,0);stroke-width:1"/>\n\t<line x1="47" y1="67" x2="47" y2="87" style="stroke:rgb(0,0,0);stroke-width:1"/>\n\t<line x1="81" y1="67" x2="64" y2="57" style="stroke:rgb(0,0,0);stroke-width:1"/>\n\t<line x1="98" y1="57" x2="81" y2="67" style="stroke:rgb(0,0,0);stroke-width:1"/>\n\t<line x1="132" y1="57" x2="115" y2="67" style="stroke:rgb(0,0,0);stroke-width:1"/>\n\t<line x1="115" y1="28" x2="132" y2="38" style="stroke:rgb(0,0,0);stroke-width:1"/>\n\t<line x1="98" y1="38" x2="98" y2="57" style="stroke:rgb(0,0,0);stroke-width:1"/>\n\t<line x1="149" y1="28" x2="132" y2="38" style="stroke:rgb(0,0,0);stroke-width:1"/>\n\t<line x1="143" y1="17" x2="149" y2="28" style="stroke:rgb(0,0,0);stroke-width:1"/>\n\t<line x1="162" y1="21" x2="149" y2="28" style="stroke:rgb(0,0,0);stroke-width:1"/>\n\t<line x1="156" y1="39" x2="149" y2="28" style="stroke:rgb(0,0,0);stroke-width:1"/>\n\t<line x1="76" y1="90" x2="64" y2="97" style="stroke:rgb(0,0,0);stroke-width:1"/>\n\t<line x1="61" y1="44" x2="64" y2="57" style="stroke:rgb(0,0,0);stroke-width:1"/>\n\t<line x1="41" y1="36" x2="55" y2="38" style="stroke:rgb(0,0,0);stroke-width:1"/>\n\t<line x1="9" y1="22" x2="29" y2="20" style="stroke:rgb(0,0,0);stroke-width:1"/>\n\t<line x1="13" y1="56" x2="1" y2="40" style="stroke:rgb(0,0,0);stroke-width:1"/>\n\t<line x1="33" y1="54" x2="41" y2="36" style="stroke:rgb(0,0,0);stroke-width:1"/>\n\t<line x1="33" y1="54" x2="47" y2="67" style="stroke:rgb(0,0,0);stroke-width:1"/>\n\t<line id="function random() { [native code] }:Bond:9-8" class="event" x1="47" y1="87" x2="64" y2="97" stroke-width="8" stroke-opacity="0"/>\n\t<line id="function random() { [native code] }:Bond:11-10" class="event" x1="64" y1="57" x2="47" y2="67" stroke-width="8" stroke-opacity="0"/>\n\t<line id="function random() { [native code] }:Bond:14-13" class="event" x1="115" y1="67" x2="98" y2="57" stroke-width="8" stroke-opacity="0"/>\n\t<line id="function random() { [native code] }:Bond:16-15" class="event" x1="132" y1="38" x2="132" y2="57" stroke-width="8" stroke-opacity="0"/>\n\t<line id="function random() { [native code] }:Bond:18-17" class="event" x1="98" y1="38" x2="115" y2="28" stroke-width="8" stroke-opacity="0"/>\n\t<line id="function random() { [native code] }:Bond:23-12" class="event" x1="81" y1="87" x2="81" y2="67" stroke-width="8" stroke-opacity="0"/>\n\t<line id="function random() { [native code] }:Bond:26-25" class="event" x1="29" y1="20" x2="41" y2="36" stroke-width="8" stroke-opacity="0"/>\n\t<line id="function random() { [native code] }:Bond:28-27" class="event" x1="1" y1="40" x2="9" y2="22" stroke-width="8" stroke-opacity="0"/>\n\t<line id="function random() { [native code] }:Bond:30-29" class="event" x1="33" y1="54" x2="13" y2="56" stroke-width="8" stroke-opacity="0"/>\n\t<line id="function random() { [native code] }:Bond:31-7" class="event" x1="47" y1="126" x2="64" y2="116" stroke-width="8" stroke-opacity="0"/>\n\t<line id="function random() { [native code] }:Bond:1-0" class="event" x1="166" y1="116" x2="183" y2="126" stroke-width="8" stroke-opacity="0"/>\n\t<line id="function random() { [native code] }:Bond:2-1" class="event" x1="149" y1="126" x2="166" y2="116" stroke-width="8" stroke-opacity="0"/>\n\t<line id="function random() { [native code] }:Bond:3-2" class="event" x1="132" y1="116" x2="149" y2="126" stroke-width="8" stroke-opacity="0"/>\n\t<line id="function random() { [native code] }:Bond:4-3" class="event" x1="115" y1="126" x2="132" y2="116" stroke-width="8" stroke-opacity="0"/>\n\t<line id="function random() { [native code] }:Bond:5-4" class="event" x1="98" y1="116" x2="115" y2="126" stroke-width="8" stroke-opacity="0"/>\n\t<line id="function random() { [native code] }:Bond:6-5" class="event" x1="81" y1="126" x2="98" y2="116" stroke-width="8" stroke-opacity="0"/>\n\t<line id="function random() { [native code] }:Bond:7-6" class="event" x1="64" y1="116" x2="81" y2="126" stroke-width="8" stroke-opacity="0"/>\n\t<line id="function random() { [native code] }:Bond:8-7" class="event" x1="64" y1="97" x2="64" y2="116" stroke-width="8" stroke-opacity="0"/>\n\t<line id="function random() { [native code] }:Bond:10-9" class="event" x1="47" y1="67" x2="47" y2="87" stroke-width="8" stroke-opacity="0"/>\n\t<line id="function random() { [native code] }:Bond:12-11" class="event" x1="81" y1="67" x2="64" y2="57" stroke-width="8" stroke-opacity="0"/>\n\t<line id="function random() { [native code] }:Bond:13-12" class="event" x1="98" y1="57" x2="81" y2="67" stroke-width="8" stroke-opacity="0"/>\n\t<line id="function random() { [native code] }:Bond:15-14" class="event" x1="132" y1="57" x2="115" y2="67" stroke-width="8" stroke-opacity="0"/>\n\t<line id="function random() { [native code] }:Bond:17-16" class="event" x1="115" y1="28" x2="132" y2="38" stroke-width="8" stroke-opacity="0"/>\n\t<line id="function random() { [native code] }:Bond:18-13" class="event" x1="98" y1="38" x2="98" y2="57" stroke-width="8" stroke-opacity="0"/>\n\t<line id="function random() { [native code] }:Bond:19-16" class="event" x1="149" y1="28" x2="132" y2="38" stroke-width="8" stroke-opacity="0"/>\n\t<line id="function random() { [native code] }:Bond:20-19" class="event" x1="140" y1="11" x2="149" y2="28" stroke-width="8" stroke-opacity="0"/>\n\t<line id="function random() { [native code] }:Bond:21-19" class="event" x1="166" y1="18" x2="149" y2="28" stroke-width="8" stroke-opacity="0"/>\n\t<line id="function random() { [native code] }:Bond:22-19" class="event" x1="159" y1="45" x2="149" y2="28" stroke-width="8" stroke-opacity="0"/>\n\t<line id="function random() { [native code] }:Bond:23-8" class="event" x1="81" y1="87" x2="64" y2="97" stroke-width="8" stroke-opacity="0"/>\n\t<line id="function random() { [native code] }:Bond:24-11" class="event" x1="60" y1="38" x2="64" y2="57" stroke-width="8" stroke-opacity="0"/>\n\t<line id="function random() { [native code] }:Bond:25-24" class="event" x1="41" y1="36" x2="60" y2="38" stroke-width="8" stroke-opacity="0"/>\n\t<line id="function random() { [native code] }:Bond:27-26" class="event" x1="9" y1="22" x2="29" y2="20" stroke-width="8" stroke-opacity="0"/>\n\t<line id="function random() { [native code] }:Bond:29-28" class="event" x1="13" y1="56" x2="1" y2="40" stroke-width="8" stroke-opacity="0"/>\n\t<line id="function random() { [native code] }:Bond:30-25" class="event" x1="33" y1="54" x2="41" y2="36" stroke-width="8" stroke-opacity="0"/>\n\t<line id="function random() { [native code] }:Bond:30-10" class="event" x1="33" y1="54" x2="47" y2="67" stroke-width="8" stroke-opacity="0"/>\n\t<circle id="function random() { [native code] }:Atom:0" class="event" cx="183" cy="126" r="8" fill-opacity="0"/>\n\t<circle id="function random() { [native code] }:Atom:1" class="event" cx="166" cy="116" r="8" fill-opacity="0"/>\n\t<circle id="function random() { [native code] }:Atom:2" class="event" cx="149" cy="126" r="8" fill-opacity="0"/>\n\t<circle id="function random() { [native code] }:Atom:3" class="event" cx="132" cy="116" r="8" fill-opacity="0"/>\n\t<circle id="function random() { [native code] }:Atom:4" class="event" cx="115" cy="126" r="8" fill-opacity="0"/>\n\t<circle id="function random() { [native code] }:Atom:5" class="event" cx="98" cy="116" r="8" fill-opacity="0"/>\n\t<circle id="function random() { [native code] }:Atom:6" class="event" cx="81" cy="126" r="8" fill-opacity="0"/>\n\t<circle id="function random() { [native code] }:Atom:7" class="event" cx="64" cy="116" r="8" fill-opacity="0"/>\n\t<circle id="function random() { [native code] }:Atom:8" class="event" cx="64" cy="97" r="8" fill-opacity="0"/>\n\t<circle id="function random() { [native code] }:Atom:9" class="event" cx="47" cy="87" r="8" fill-opacity="0"/>\n\t<circle id="function random() { [native code] }:Atom:10" class="event" cx="47" cy="67" r="8" fill-opacity="0"/>\n\t<circle id="function random() { [native code] }:Atom:11" class="event" cx="64" cy="57" r="8" fill-opacity="0"/>\n\t<circle id="function random() { [native code] }:Atom:12" class="event" cx="81" cy="67" r="8" fill-opacity="0"/>\n\t<circle id="function random() { [native code] }:Atom:13" class="event" cx="98" cy="57" r="8" fill-opacity="0"/>\n\t<circle id="function random() { [native code] }:Atom:14" class="event" cx="115" cy="67" r="8" fill-opacity="0"/>\n\t<circle id="function random() { [native code] }:Atom:15" class="event" cx="132" cy="57" r="8" fill-opacity="0"/>\n\t<circle id="function random() { [native code] }:Atom:16" class="event" cx="132" cy="38" r="8" fill-opacity="0"/>\n\t<circle id="function random() { [native code] }:Atom:17" class="event" cx="115" cy="28" r="8" fill-opacity="0"/>\n\t<circle id="function random() { [native code] }:Atom:18" class="event" cx="98" cy="38" r="8" fill-opacity="0"/>\n\t<circle id="function random() { [native code] }:Atom:19" class="event" cx="149" cy="28" r="8" fill-opacity="0"/>\n\t<circle id="function random() { [native code] }:Atom:20" class="event" cx="140" cy="11" r="8" fill-opacity="0"/>\n\t<circle id="function random() { [native code] }:Atom:21" class="event" cx="166" cy="18" r="8" fill-opacity="0"/>\n\t<circle id="function random() { [native code] }:Atom:22" class="event" cx="159" cy="45" r="8" fill-opacity="0"/>\n\t<circle id="function random() { [native code] }:Atom:23" class="event" cx="81" cy="87" r="8" fill-opacity="0"/>\n\t<circle id="function random() { [native code] }:Atom:24" class="event" cx="60" cy="38" r="8" fill-opacity="0"/>\n\t<circle id="function random() { [native code] }:Atom:25" class="event" cx="41" cy="36" r="8" fill-opacity="0"/>\n\t<circle id="function random() { [native code] }:Atom:26" class="event" cx="29" cy="20" r="8" fill-opacity="0"/>\n\t<circle id="function random() { [native code] }:Atom:27" class="event" cx="9" cy="22" r="8" fill-opacity="0"/>\n\t<circle id="function random() { [native code] }:Atom:28" class="event" cx="1" cy="40" r="8" fill-opacity="0"/>\n\t<circle id="function random() { [native code] }:Atom:29" class="event" cx="13" cy="56" r="8" fill-opacity="0"/>\n\t<circle id="function random() { [native code] }:Atom:30" class="event" cx="33" cy="54" r="8" fill-opacity="0"/>\n\t<circle id="function random() { [native code] }:Atom:31" class="event" cx="47" cy="126" r="8" fill-opacity="0"/>\n</svg>