<svg id="function random() { [native code] }" xmlns="http://www.w3.org/2000/svg" version="1.1" width="200px" height="150px" viewBox="0 0 200 150">\n\t<style> #function random() { [native code] } {pointer-events:none; }  #function random() { [native code] } .event  { pointer-events:all;}  </style>\n\t<text x="126" y="121" font-family=" Helvetica" font-weight="900" font-size="12" fill="rgb(48,80,248)">N</text>\n\t<text x="126" y="109" font-family=" Helvetica" font-weight="900" font-size="12" fill="rgb(48,80,248)">H</text>\n\t<text x="76" y="131" font-family=" Helvetica" font-weight="900" font-size="12" fill="rgb(48,80,248)">N</text>\n\t<text x="76" y="143" font-family=" Helvetica" font-weight="900" font-size="12" fill="rgb(48,80,248)">H</text>\n\t<text x="126" y="44" font-family=" Helvetica" font-weight="900" font-size="12" fill="rgb(48,80,248)">N</text>\n\t<text x="159" y="44" font-family=" Helvetica" font-weight="900" font-size="12" fill="rgb(255,13,13)">O</text>\n\t<text x="143" y="14" font-family=" Helvetica" font-weight="900" font-size="12" fill="rgb(255,13,13)">O</text>\n\t<text x="76" y="92" font-family=" Helvetica" font-weight="900" font-size="12" fill="rgb(48,80,248)">N</text>\n\t<text x="55" y="44" font-family=" Helvetica" font-weight="900" font-size="12" fill="rgb(48,80,248)">N</text>\n\t<text x="64" y="44" font-family=" Helvetica" font-weight="900" font-size="12" fill="rgb(48,80,248)">H</text>\n\t<text x="42" y="131" font-family=" Helvetica" font-weight="900" font-size="12" fill="rgb(255,13,13)">O</text>\n\t<line x1="47" y1="88" x2="63" y2="98" style="stroke:rgb(0,0,0);stroke-width:1"/>\n\t<line x1="50" y1="87" x2="63" y2="94" style="stroke:rgb(0,0,0);stroke-width:1"/>\n\t<line x1="63" y1="59" x2="47" y2="69" style="stroke:rgb(0,0,0);stroke-width:1"/>\n\t<line x1="60" y1="58" x2="47" y2="65" style="stroke:rgb(0,0,0);stroke-width:1"/>\n\t<line x1="149" y1="31" x2="149" y2="16" style="stroke:rgb(0,0,0);stroke-width:1"/>\n\t<line x1="146" y1="31" x2="146" y2="16" style="stroke:rgb(0,0,0);stroke-width:1"/>\n\t<line x1="80" y1="69" x2="80" y2="82" style="stroke:rgb(0,0,0);stroke-width:1"/>\n\t<line x1="77" y1="71" x2="77" y2="82" style="stroke:rgb(0,0,0);stroke-width:1"/>\n\t<line x1="29" y1="22" x2="40" y2="38" style="stroke:rgb(0,0,0);stroke-width:1"/>\n\t<line x1="27" y1="26" x2="36" y2="38" style="stroke:rgb(0,0,0);stroke-width:1"/>\n\t<line x1="1" y1="42" x2="9" y2="24" style="stroke:rgb(0,0,0);stroke-width:1"/>\n\t<line x1="5" y1="41" x2="11" y2="27" style="stroke:rgb(0,0,0);stroke-width:1"/>\n\t<line x1="32" y1="56" x2="13" y2="58" style="stroke:rgb(0,0,0);stroke-width:1"/>\n\t<line x1="30" y1="53" x2="15" y2="55" style="stroke:rgb(0,0,0);stroke-width:1"/>\n\t<line x1="63" y1="115" x2="51" y2="122" style="stroke:rgb(0,0,0);stroke-width:1"/>\n\t<line x1="65" y1="118" x2="53" y2="125" style="stroke:rgb(0,0,0);stroke-width:1"/>\n\t<line x1="136" y1="120" x2="147" y2="127" style="stroke:rgb(0,0,0);stroke-width:1"/>\n\t<line x1="114" y1="127" x2="125" y2="120" style="stroke:rgb(0,0,0);stroke-width:1"/>\n\t<line x1="97" y1="117" x2="114" y2="127" style="stroke:rgb(0,0,0);stroke-width:1"/>\n\t<line x1="85" y1="124" x2="97" y2="117" style="stroke:rgb(0,0,0);stroke-width:1"/>\n\t<line x1="63" y1="117" x2="75" y2="124" style="stroke:rgb(0,0,0);stroke-width:1"/>\n\t<line x1="63" y1="98" x2="63" y2="117" style="stroke:rgb(0,0,0);stroke-width:1"/>\n\t<line x1="47" y1="69" x2="47" y2="88" style="stroke:rgb(0,0,0);stroke-width:1"/>\n\t<line x1="80" y1="69" x2="63" y2="59" style="stroke:rgb(0,0,0);stroke-width:1"/>\n\t<line x1="97" y1="59" x2="80" y2="69" style="stroke:rgb(0,0,0);stroke-width:1"/>\n\t<line x1="114" y1="69" x2="97" y2="59" style="stroke:rgb(0,0,0);stroke-width:1"/>\n\t<line x1="130" y1="59" x2="114" y2="69" style="stroke:rgb(0,0,0);stroke-width:1"/>\n\t<line x1="130" y1="46" x2="130" y2="59" style="stroke:rgb(0,0,0);stroke-width:1"/>\n\t<line x1="114" y1="30" x2="125" y2="36" style="stroke:rgb(0,0,0);stroke-width:1"/>\n\t<line x1="97" y1="40" x2="114" y2="30" style="stroke:rgb(0,0,0);stroke-width:1"/>\n\t<line x1="97" y1="40" x2="97" y2="59" style="stroke:rgb(0,0,0);stroke-width:1"/>\n\t<line x1="147" y1="30" x2="136" y2="36" style="stroke:rgb(0,0,0);stroke-width:1"/>\n\t<line x1="158" y1="36" x2="147" y2="30" style="stroke:rgb(0,0,0);stroke-width:1"/>\n\t<line x1="181" y1="30" x2="170" y2="36" style="stroke:rgb(0,0,0);stroke-width:1"/>\n\t<line x1="171" y1="13" x2="181" y2="30" style="stroke:rgb(0,0,0);stroke-width:1"/>\n\t<line x1="198" y1="20" x2="181" y2="30" style="stroke:rgb(0,0,0);stroke-width:1"/>\n\t<line x1="190" y1="47" x2="181" y2="30" style="stroke:rgb(0,0,0);stroke-width:1"/>\n\t<line x1="75" y1="91" x2="63" y2="98" style="stroke:rgb(0,0,0);stroke-width:1"/>\n\t<line x1="61" y1="46" x2="63" y2="59" style="stroke:rgb(0,0,0);stroke-width:1"/>\n\t<line x1="40" y1="38" x2="54" y2="39" style="stroke:rgb(0,0,0);stroke-width:1"/>\n\t<line x1="9" y1="24" x2="29" y2="22" style="stroke:rgb(0,0,0);stroke-width:1"/>\n\t<line x1="13" y1="58" x2="1" y2="42" style="stroke:rgb(0,0,0);stroke-width:1"/>\n\t<line x1="32" y1="56" x2="40" y2="38" style="stroke:rgb(0,0,0);stroke-width:1"/>\n\t<line x1="32" y1="56" x2="47" y2="69" style="stroke:rgb(0,0,0);stroke-width:1"/>\n\t<line id="function random() { [native code] }:Bond:7-6" class="event" x1="47" y1="88" x2="63" y2="98" stroke-width="8" stroke-opacity="0"/>\n\t<line id="function random() { [native code] }:Bond:9-8" class="event" x1="63" y1="59" x2="47" y2="69" stroke-width="8" stroke-opacity="0"/>\n\t<line id="function random() { [native code] }:Bond:23-17" class="event" x1="147" y1="10" x2="147" y2="30" stroke-width="8" stroke-opacity="0"/>\n\t<line id="function random() { [native code] }:Bond:24-10" class="event" x1="80" y1="88" x2="80" y2="69" stroke-width="8" stroke-opacity="0"/>\n\t<line id="function random() { [native code] }:Bond:27-26" class="event" x1="29" y1="22" x2="40" y2="38" stroke-width="8" stroke-opacity="0"/>\n\t<line id="function random() { [native code] }:Bond:29-28" class="event" x1="1" y1="42" x2="9" y2="24" stroke-width="8" stroke-opacity="0"/>\n\t<line id="function random() { [native code] }:Bond:31-30" class="event" x1="32" y1="56" x2="13" y2="58" stroke-width="8" stroke-opacity="0"/>\n\t<line id="function random() { [native code] }:Bond:32-5" class="event" x1="47" y1="127" x2="63" y2="117" stroke-width="8" stroke-opacity="0"/>\n\t<line id="function random() { [native code] }:Bond:1-0" class="event" x1="130" y1="117" x2="147" y2="127" stroke-width="8" stroke-opacity="0"/>\n\t<line id="function random() { [native code] }:Bond:2-1" class="event" x1="114" y1="127" x2="130" y2="117" stroke-width="8" stroke-opacity="0"/>\n\t<line id="function random() { [native code] }:Bond:3-2" class="event" x1="97" y1="117" x2="114" y2="127" stroke-width="8" stroke-opacity="0"/>\n\t<line id="function random() { [native code] }:Bond:4-3" class="event" x1="80" y1="127" x2="97" y2="117" stroke-width="8" stroke-opacity="0"/>\n\t<line id="function random() { [native code] }:Bond:5-4" class="event" x1="63" y1="117" x2="80" y2="127" stroke-width="8" stroke-opacity="0"/>\n\t<line id="function random() { [native code] }:Bond:6-5" class="event" x1="63" y1="98" x2="63" y2="117" stroke-width="8" stroke-opacity="0"/>\n\t<line id="function random() { [native code] }:Bond:8-7" class="event" x1="47" y1="69" x2="47" y2="88" stroke-width="8" stroke-opacity="0"/>\n\t<line id="function random() { [native code] }:Bond:10-9" class="event" x1="80" y1="69" x2="63" y2="59" stroke-width="8" stroke-opacity="0"/>\n\t<line id="function random() { [native code] }:Bond:11-10" class="event" x1="97" y1="59" x2="80" y2="69" stroke-width="8" stroke-opacity="0"/>\n\t<line id="function random() { [native code] }:Bond:12-11" class="event" x1="114" y1="69" x2="97" y2="59" stroke-width="8" stroke-opacity="0"/>\n\t<line id="function random() { [native code] }:Bond:13-12" class="event" x1="130" y1="59" x2="114" y2="69" stroke-width="8" stroke-opacity="0"/>\n\t<line id="function random() { [native code] }:Bond:14-13" class="event" x1="130" y1="40" x2="130" y2="59" stroke-width="8" stroke-opacity="0"/>\n\t<line id="function random() { [native code] }:Bond:15-14" class="event" x1="114" y1="30" x2="130" y2="40" stroke-width="8" stroke-opacity="0"/>\n\t<line id="function random() { [native code] }:Bond:16-15" class="event" x1="97" y1="40" x2="114" y2="30" stroke-width="8" stroke-opacity="0"/>\n\t<line id="function random() { [native code] }:Bond:16-11" class="event" x1="97" y1="40" x2="97" y2="59" stroke-width="8" stroke-opacity="0"/>\n\t<line id="function random() { [native code] }:Bond:17-14" class="event" x1="147" y1="30" x2="130" y2="40" stroke-width="8" stroke-opacity="0"/>\n\t<line id="function random() { [native code] }:Bond:18-17" class="event" x1="164" y1="40" x2="147" y2="30" stroke-width="8" stroke-opacity="0"/>\n\t<line id="function random() { [native code] }:Bond:19-18" class="event" x1="181" y1="30" x2="164" y2="40" stroke-width="8" stroke-opacity="0"/>\n\t<line id="function random() { [native code] }:Bond:20-19" class="event" x1="171" y1="13" x2="181" y2="30" stroke-width="8" stroke-opacity="0"/>\n\t<line id="function random() { [native code] }:Bond:21-19" class="event" x1="198" y1="20" x2="181" y2="30" stroke-width="8" stroke-opacity="0"/>\n\t<line id="function random() { [native code] }:Bond:22-19" class="event" x1="190" y1="47" x2="181" y2="30" stroke-width="8" stroke-opacity="0"/>\n\t<line id="function random() { [native code] }:Bond:24-6" class="event" x1="80" y1="88" x2="63" y2="98" stroke-width="8" stroke-opacity="0"/>\n\t<line id="function random() { [native code] }:Bond:25-9" class="event" x1="59" y1="40" x2="63" y2="59" stroke-width="8" stroke-opacity="0"/>\n\t<line id="function random() { [native code] }:Bond:26-25" class="event" x1="40" y1="38" x2="59" y2="40" stroke-width="8" stroke-opacity="0"/>\n\t<line id="function random() { [native code] }:Bond:28-27" class="event" x1="9" y1="24" x2="29" y2="22" stroke-width="8" stroke-opacity="0"/>\n\t<line id="function random() { [native code] }:Bond:30-29" class="event" x1="13" y1="58" x2="1" y2="42" stroke-width="8" stroke-opacity="0"/>\n\t<line id="function random() { [native code] }:Bond:31-26" class="event" x1="32" y1="56" x2="40" y2="38" stroke-width="8" stroke-opacity="0"/>\n\t<line id="function random() { [native code] }:Bond:31-8" class="event" x1="32" y1="56" x2="47" y2="69" stroke-width="8" stroke-opacity="0"/>\n\t<circle id="function random() { [native code] }:Atom:0" class="event" cx="147" cy="127" r="8" fill-opacity="0"/>\n\t<circle id="function random() { [native code] }:Atom:1" class="event" cx="130" cy="117" r="8" fill-opacity="0"/>\n\t<circle id="function random() { [native code] }:Atom:2" class="event" cx="114" cy="127" r="8" fill-opacity="0"/>\n\t<circle id="function random() { [native code] }:Atom:3" class="event" cx="97" cy="117" r="8" fill-opacity="0"/>\n\t<circle id="function random() { [native code] }:Atom:4" class="event" cx="80" cy="127" r="8" fill-opacity="0"/>\n\t<circle id="function random() { [native code] }:Atom:5" class="event" cx="63" cy="117" r="8" fill-opacity="0"/>\n\t<circle id="function random() { [native code] }:Atom:6" class="event" cx="63" cy="98" r="8" fill-opacity="0"/>\n\t<circle id="function random() { [native code] }:Atom:7" class="event" cx="47" cy="88" r="8" fill-opacity="0"/>\n\t<circle id="function random() { [native code] }:Atom:8" class="event" cx="47" cy="69" r="8" fill-opacity="0"/>\n\t<circle id="function random() { [native code] }:Atom:9" class="event" cx="63" cy="59" r="8" fill-opacity="0"/>\n\t<circle id="function random() { [native code] }:Atom:10" class="event" cx="80" cy="69" r="8" fill-opacity="0"/>\n\t<circle id="function random() { [native code] }:Atom:11" class="event" cx="97" cy="59" r="8" fill-opacity="0"/>\n\t<circle id="function random() { [native code] }:Atom:12" class="event" cx="114" cy="69" r="8" fill-opacity="0"/>\n\t<circle id="function random() { [native code] }:Atom:13" class="event" cx="130" cy="59" r="8" fill-opacity="0"/>\n\t<circle id="function random() { [native code] }:Atom:14" class="event" cx="130" cy="40" r="8" fill-opacity="0"/>\n\t<circle id="function random() { [native code] }:Atom:15" class="event" cx="114" cy="30" r="8" fill-opacity="0"/>\n\t<circle id="function random() { [native code] }:Atom:16" class="event" cx="97" cy="40" r="8" fill-opacity="0"/>\n\t<circle id="function random() { [native code] }:Atom:17" class="event" cx="147" cy="30" r="8" fill-opacity="0"/>\n\t<circle id="function random() { [native code] }:Atom:18" class="event" cx="164" cy="40" r="8" fill-opacity="0"/>\n\t<circle id="function random() { [native code] }:Atom:19" class="event" cx="181" cy="30" r="8" fill-opacity="0"/>\n\t<circle id="function random() { [native code] }:Atom:20" class="event" cx="171" cy="13" r="8" fill-opacity="0"/>\n\t<circle id="function random() { [native code] }:Atom:21" class="event" cx="198" cy="20" r="8" fill-opacity="0"/>\n\t<circle id="function random() { [native code] }:Atom:22" class="event" cx="190" cy="47" r="8" fill-opacity="0"/>\n\t<circle id="function random() { [native code] }:Atom:23" class="event" cx="147" cy="10" r="8" fill-opacity="0"/>\n\t<circle id="function random() { [native code] }:Atom:24" class="event" cx="80" cy="88" r="8" fill-opacity="0"/>\n\t<circle id="function random() { [native code] }:Atom:25" class="event" cx="59" cy="40" r="8" fill-opacity="0"/>\n\t<circle id="function random() { [native code] }:Atom:26" class="event" cx="40" cy="38" r="8" fill-opacity="0"/>\n\t<circle id="function random() { [native code] }:Atom:27" class="event" cx="29" cy="22" r="8" fill-opacity="0"/>\n\t<circle id="function random() { [native code] }:Atom:28" class="event" cx="9" cy="24" r="8" fill-opacity="0"/>\n\t<circle id="function random() { [native code] }:Atom:29" class="event" cx="1" cy="42" r="8" fill-opacity="0"/>\n\t<circle id="function random() { [native code] }:Atom:30" class="event" cx="13" cy="58" r="8" fill-opacity="0"/>\n\t<circle id="function random() { [native code] }:Atom:31" class="event" cx="32" cy="56" r="8" fill-opacity="0"/>\n\t<circle id="function random() { [native code] }:Atom:32" class="event" cx="47" cy="127" r="8" fill-opacity="0"/>\n</svg>