<svg id="function random() { [native code] }" xmlns="http://www.w3.org/2000/svg" version="1.1" width="200px" height="150px" viewBox="0 0 200 150">\n\t<style> #function random() { [native code] } {pointer-events:none; }  #function random() { [native code] } .event  { pointer-events:all;}  </style>\n\t<text x="111" y="128" font-family=" Helvetica" font-weight="900" font-size="13" fill="rgb(255,13,13)">O</text>\n\t<text x="73" y="128" font-family=" Helvetica" font-weight="900" font-size="13" fill="rgb(48,80,248)">N</text>\n\t<text x="73" y="141" font-family=" Helvetica" font-weight="900" font-size="13" fill="rgb(48,80,248)">H</text>\n\t<text x="16" y="117" font-family=" Helvetica" font-weight="900" font-size="13" fill="rgb(48,80,248)">N</text>\n\t<text x="16" y="104" font-family=" Helvetica" font-weight="900" font-size="13" fill="rgb(48,80,248)">H</text>\n\t<text x="111" y="84" font-family=" Helvetica" font-weight="900" font-size="13" fill="rgb(48,80,248)">N</text>\n\t<text x="188" y="18" font-family=" Helvetica" font-weight="900" font-size="13" fill="rgb(144,224,80)">F</text>\n\t<text x="88" y="29" font-family=" Helvetica" font-weight="900" font-size="13" fill="rgb(48,80,248)">N</text>\n\t<text x="97" y="29" font-family=" Helvetica" font-weight="900" font-size="13" fill="rgb(48,80,248)">H</text>\n\t<line x1="95" y1="114" x2="109" y2="122" style="stroke:rgb(0,0,0);stroke-width:1"/>\n\t<line x1="97" y1="111" x2="111" y2="119" style="stroke:rgb(0,0,0);stroke-width:1"/>\n\t<line x1="97" y1="91" x2="110" y2="83" style="stroke:rgb(0,0,0);stroke-width:1"/>\n\t<line x1="97" y1="87" x2="109" y2="80" style="stroke:rgb(0,0,0);stroke-width:1"/>\n\t<line x1="154" y1="58" x2="135" y2="47" style="stroke:rgb(0,0,0);stroke-width:1"/>\n\t<line x1="154" y1="54" x2="139" y2="45" style="stroke:rgb(0,0,0);stroke-width:1"/>\n\t<line x1="173" y1="25" x2="173" y2="47" style="stroke:rgb(0,0,0);stroke-width:1"/>\n\t<line x1="170" y1="27" x2="170" y2="44" style="stroke:rgb(0,0,0);stroke-width:1"/>\n\t<line x1="135" y1="25" x2="154" y2="14" style="stroke:rgb(0,0,0);stroke-width:1"/>\n\t<line x1="139" y1="26" x2="154" y2="18" style="stroke:rgb(0,0,0);stroke-width:1"/>\n\t<line x1="97" y1="47" x2="116" y2="58" style="stroke:rgb(0,0,0);stroke-width:1"/>\n\t<line x1="97" y1="51" x2="112" y2="59" style="stroke:rgb(0,0,0);stroke-width:1"/>\n\t<line x1="58" y1="5" x2="71" y2="23" style="stroke:rgb(0,0,0);stroke-width:1"/>\n\t<line x1="56" y1="9" x2="66" y2="23" style="stroke:rgb(0,0,0);stroke-width:1"/>\n\t<line x1="27" y1="28" x2="36" y2="7" style="stroke:rgb(0,0,0);stroke-width:1"/>\n\t<line x1="31" y1="27" x2="38" y2="11" style="stroke:rgb(0,0,0);stroke-width:1"/>\n\t<line x1="62" y1="43" x2="40" y2="45" style="stroke:rgb(0,0,0);stroke-width:1"/>\n\t<line x1="59" y1="40" x2="42" y2="42" style="stroke:rgb(0,0,0);stroke-width:1"/>\n\t<line x1="78" y1="80" x2="78" y2="58" style="stroke:rgb(0,0,0);stroke-width:1"/>\n\t<line x1="81" y1="77" x2="81" y2="60" style="stroke:rgb(0,0,0);stroke-width:1"/>\n\t<line x1="84" y1="121" x2="97" y2="113" style="stroke:rgb(0,0,0);stroke-width:1"/>\n\t<line x1="59" y1="113" x2="72" y2="121" style="stroke:rgb(0,0,0);stroke-width:1"/>\n\t<line x1="40" y1="124" x2="59" y2="113" style="stroke:rgb(0,0,0);stroke-width:1"/>\n\t<line x1="26" y1="116" x2="40" y2="124" style="stroke:rgb(0,0,0);stroke-width:1"/>\n\t<line x1="2" y1="124" x2="15" y2="116" style="stroke:rgb(0,0,0);stroke-width:1"/>\n\t<line x1="97" y1="91" x2="97" y2="113" style="stroke:rgb(0,0,0);stroke-width:1"/>\n\t<line x1="116" y1="58" x2="116" y2="74" style="stroke:rgb(0,0,0);stroke-width:1"/>\n\t<line x1="135" y1="47" x2="116" y2="58" style="stroke:rgb(0,0,0);stroke-width:1"/>\n\t<line x1="173" y1="47" x2="154" y2="58" style="stroke:rgb(0,0,0);stroke-width:1"/>\n\t<line x1="187" y1="17" x2="173" y2="25" style="stroke:rgb(0,0,0);stroke-width:1"/>\n\t<line x1="154" y1="14" x2="173" y2="25" style="stroke:rgb(0,0,0);stroke-width:1"/>\n\t<line x1="135" y1="25" x2="135" y2="47" style="stroke:rgb(0,0,0);stroke-width:1"/>\n\t<line x1="94" y1="31" x2="97" y2="47" style="stroke:rgb(0,0,0);stroke-width:1"/>\n\t<line x1="71" y1="23" x2="87" y2="25" style="stroke:rgb(0,0,0);stroke-width:1"/>\n\t<line x1="36" y1="7" x2="58" y2="5" style="stroke:rgb(0,0,0);stroke-width:1"/>\n\t<line x1="40" y1="45" x2="27" y2="28" style="stroke:rgb(0,0,0);stroke-width:1"/>\n\t<line x1="62" y1="43" x2="71" y2="23" style="stroke:rgb(0,0,0);stroke-width:1"/>\n\t<line x1="78" y1="58" x2="62" y2="43" style="stroke:rgb(0,0,0);stroke-width:1"/>\n\t<line x1="78" y1="58" x2="97" y2="47" style="stroke:rgb(0,0,0);stroke-width:1"/>\n\t<line x1="78" y1="80" x2="97" y2="91" style="stroke:rgb(0,0,0);stroke-width:1"/>\n\t<line id="function random() { [native code] }:Bond:1-0" class="event" x1="97" y1="113" x2="116" y2="124" stroke-width="8" stroke-opacity="0"/>\n\t<line id="function random() { [native code] }:Bond:8-7" class="event" x1="116" y1="80" x2="97" y2="91" stroke-width="8" stroke-opacity="0"/>\n\t<line id="function random() { [native code] }:Bond:11-10" class="event" x1="154" y1="58" x2="135" y2="47" stroke-width="8" stroke-opacity="0"/>\n\t<line id="function random() { [native code] }:Bond:13-12" class="event" x1="173" y1="25" x2="173" y2="47" stroke-width="8" stroke-opacity="0"/>\n\t<line id="function random() { [native code] }:Bond:16-15" class="event" x1="135" y1="25" x2="154" y2="14" stroke-width="8" stroke-opacity="0"/>\n\t<line id="function random() { [native code] }:Bond:17-9" class="event" x1="97" y1="47" x2="116" y2="58" stroke-width="8" stroke-opacity="0"/>\n\t<line id="function random() { [native code] }:Bond:20-19" class="event" x1="58" y1="5" x2="71" y2="23" stroke-width="8" stroke-opacity="0"/>\n\t<line id="function random() { [native code] }:Bond:22-21" class="event" x1="27" y1="28" x2="36" y2="7" stroke-width="8" stroke-opacity="0"/>\n\t<line id="function random() { [native code] }:Bond:24-23" class="event" x1="62" y1="43" x2="40" y2="45" stroke-width="8" stroke-opacity="0"/>\n\t<line id="function random() { [native code] }:Bond:26-25" class="event" x1="78" y1="80" x2="78" y2="58" stroke-width="8" stroke-opacity="0"/>\n\t<line id="function random() { [native code] }:Bond:2-1" class="event" x1="78" y1="124" x2="97" y2="113" stroke-width="8" stroke-opacity="0"/>\n\t<line id="function random() { [native code] }:Bond:3-2" class="event" x1="59" y1="113" x2="78" y2="124" stroke-width="8" stroke-opacity="0"/>\n\t<line id="function random() { [native code] }:Bond:4-3" class="event" x1="40" y1="124" x2="59" y2="113" stroke-width="8" stroke-opacity="0"/>\n\t<line id="function random() { [native code] }:Bond:5-4" class="event" x1="21" y1="113" x2="40" y2="124" stroke-width="8" stroke-opacity="0"/>\n\t<line id="function random() { [native code] }:Bond:6-5" class="event" x1="2" y1="124" x2="21" y2="113" stroke-width="8" stroke-opacity="0"/>\n\t<line id="function random() { [native code] }:Bond:7-1" class="event" x1="97" y1="91" x2="97" y2="113" stroke-width="8" stroke-opacity="0"/>\n\t<line id="function random() { [native code] }:Bond:9-8" class="event" x1="116" y1="58" x2="116" y2="80" stroke-width="8" stroke-opacity="0"/>\n\t<line id="function random() { [native code] }:Bond:10-9" class="event" x1="135" y1="47" x2="116" y2="58" stroke-width="8" stroke-opacity="0"/>\n\t<line id="function random() { [native code] }:Bond:12-11" class="event" x1="173" y1="47" x2="154" y2="58" stroke-width="8" stroke-opacity="0"/>\n\t<line id="function random() { [native code] }:Bond:14-13" class="event" x1="192" y1="14" x2="173" y2="25" stroke-width="8" stroke-opacity="0"/>\n\t<line id="function random() { [native code] }:Bond:15-13" class="event" x1="154" y1="14" x2="173" y2="25" stroke-width="8" stroke-opacity="0"/>\n\t<line id="function random() { [native code] }:Bond:16-10" class="event" x1="135" y1="25" x2="135" y2="47" stroke-width="8" stroke-opacity="0"/>\n\t<line id="function random() { [native code] }:Bond:18-17" class="event" x1="92" y1="25" x2="97" y2="47" stroke-width="8" stroke-opacity="0"/>\n\t<line id="function random() { [native code] }:Bond:19-18" class="event" x1="71" y1="23" x2="92" y2="25" stroke-width="8" stroke-opacity="0"/>\n\t<line id="function random() { [native code] }:Bond:21-20" class="event" x1="36" y1="7" x2="58" y2="5" stroke-width="8" stroke-opacity="0"/>\n\t<line id="function random() { [native code] }:Bond:23-22" class="event" x1="40" y1="45" x2="27" y2="28" stroke-width="8" stroke-opacity="0"/>\n\t<line id="function random() { [native code] }:Bond:24-19" class="event" x1="62" y1="43" x2="71" y2="23" stroke-width="8" stroke-opacity="0"/>\n\t<line id="function random() { [native code] }:Bond:25-24" class="event" x1="78" y1="58" x2="62" y2="43" stroke-width="8" stroke-opacity="0"/>\n\t<line id="function random() { [native code] }:Bond:25-17" class="event" x1="78" y1="58" x2="97" y2="47" stroke-width="8" stroke-opacity="0"/>\n\t<line id="function random() { [native code] }:Bond:26-7" class="event" x1="78" y1="80" x2="97" y2="91" stroke-width="8" stroke-opacity="0"/>\n\t<circle id="function random() { [native code] }:Atom:0" class="event" cx="116" cy="124" r="8" fill-opacity="0"/>\n\t<circle id="function random() { [native code] }:Atom:1" class="event" cx="97" cy="113" r="8" fill-opacity="0"/>\n\t<circle id="function random() { [native code] }:Atom:2" class="event" cx="78" cy="124" r="8" fill-opacity="0"/>\n\t<circle id="function random() { [native code] }:Atom:3" class="event" cx="59" cy="113" r="8" fill-opacity="0"/>\n\t<circle id="function random() { [native code] }:Atom:4" class="event" cx="40" cy="124" r="8" fill-opacity="0"/>\n\t<circle id="function random() { [native code] }:Atom:5" class="event" cx="21" cy="113" r="8" fill-opacity="0"/>\n\t<circle id="function random() { [native code] }:Atom:6" class="event" cx="2" cy="124" r="8" fill-opacity="0"/>\n\t<circle id="function random() { [native code] }:Atom:7" class="event" cx="97" cy="91" r="8" fill-opacity="0"/>\n\t<circle id="function random() { [native code] }:Atom:8" class="event" cx="116" cy="80" r="8" fill-opacity="0"/>\n\t<circle id="function random() { [native code] }:Atom:9" class="event" cx="116" cy="58" r="8" fill-opacity="0"/>\n\t<circle id="function random() { [native code] }:Atom:10" class="event" cx="135" cy="47" r="8" fill-opacity="0"/>\n\t<circle id="function random() { [native code] }:Atom:11" class="event" cx="154" cy="58" r="8" fill-opacity="0"/>\n\t<circle id="function random() { [native code] }:Atom:12" class="event" cx="173" cy="47" r="8" fill-opacity="0"/>\n\t<circle id="function random() { [native code] }:Atom:13" class="event" cx="173" cy="25" r="8" fill-opacity="0"/>\n\t<circle id="function random() { [native code] }:Atom:14" class="event" cx="192" cy="14" r="8" fill-opacity="0"/>\n\t<circle id="function random() { [native code] }:Atom:15" class="event" cx="154" cy="14" r="8" fill-opacity="0"/>\n\t<circle id="function random() { [native code] }:Atom:16" class="event" cx="135" cy="25" r="8" fill-opacity="0"/>\n\t<circle id="function random() { [native code] }:Atom:17" class="event" cx="97" cy="47" r="8" fill-opacity="0"/>\n\t<circle id="function random() { [native code] }:Atom:18" class="event" cx="92" cy="25" r="8" fill-opacity="0"/>\n\t<circle id="function random() { [native code] }:Atom:19" class="event" cx="71" cy="23" r="8" fill-opacity="0"/>\n\t<circle id="function random() { [native code] }:Atom:20" class="event" cx="58" cy="5" r="8" fill-opacity="0"/>\n\t<circle id="function random() { [native code] }:Atom:21" class="event" cx="36" cy="7" r="8" fill-opacity="0"/>\n\t<circle id="function random() { [native code] }:Atom:22" class="event" cx="27" cy="28" r="8" fill-opacity="0"/>\n\t<circle id="function random() { [native code] }:Atom:23" class="event" cx="40" cy="45" r="8" fill-opacity="0"/>\n\t<circle id="function random() { [native code] }:Atom:24" class="event" cx="62" cy="43" r="8" fill-opacity="0"/>\n\t<circle id="function random() { [native code] }:Atom:25" class="event" cx="78" cy="58" r="8" fill-opacity="0"/>\n\t<circle id="function random() { [native code] }:Atom:26" class="event" cx="78" cy="80" r="8" fill-opacity="0"/>\n</svg>