<svg id="function random() { [native code] }" xmlns="http://www.w3.org/2000/svg" version="1.1" width="200px" height="150px" viewBox="0 0 200 150">\n\t<style> #function random() { [native code] } {pointer-events:none; }  #function random() { [native code] } .event  { pointer-events:all;}  </style>\n\t<text x="143" y="123" font-family=" Helvetica" font-weight="900" font-size="12" fill="rgb(48,80,248)">N</text>\n\t<text x="160" y="125" font-family=" Helvetica" font-weight="900" font-size="8" fill="rgb(48,80,248)">2</text>\n\t<text x="152" y="123" font-family=" Helvetica" font-weight="900" font-size="12" fill="rgb(48,80,248)">H</text>\n\t<text x="90" y="134" font-family=" Helvetica" font-weight="900" font-size="12" fill="rgb(48,80,248)">N</text>\n\t<text x="90" y="146" font-family=" Helvetica" font-weight="900" font-size="12" fill="rgb(48,80,248)">H</text>\n\t<text x="90" y="93" font-family=" Helvetica" font-weight="900" font-size="12" fill="rgb(48,80,248)">N</text>\n\t<text x="171" y="55" font-family=" Helvetica" font-weight="900" font-size="12" fill="rgb(144,224,80)">F</text>\n\t<text x="179" y="83" font-family=" Helvetica" font-weight="900" font-size="12" fill="rgb(144,224,80)">F</text>\n\t<text x="151" y="90" font-family=" Helvetica" font-weight="900" font-size="12" fill="rgb(144,224,80)">F</text>\n\t<text x="124" y="12" font-family=" Helvetica" font-weight="900" font-size="12" fill="rgb(166,41,41)">Br</text>\n\t<text x="68" y="42" font-family=" Helvetica" font-weight="900" font-size="12" fill="rgb(48,80,248)">N</text>\n\t<text x="77" y="42" font-family=" Helvetica" font-weight="900" font-size="12" fill="rgb(48,80,248)">H</text>\n\t<text x="55" y="134" font-family=" Helvetica" font-weight="900" font-size="12" fill="rgb(255,13,13)">O</text>\n\t<line x1="77" y1="99" x2="89" y2="92" style="stroke:rgb(0,0,0);stroke-width:1"/>\n\t<line x1="77" y1="95" x2="88" y2="89" style="stroke:rgb(0,0,0);stroke-width:1"/>\n\t<line x1="130" y1="69" x2="112" y2="58" style="stroke:rgb(0,0,0);stroke-width:1"/>\n\t<line x1="129" y1="65" x2="115" y2="57" style="stroke:rgb(0,0,0);stroke-width:1"/>\n\t<line x1="147" y1="38" x2="147" y2="58" style="stroke:rgb(0,0,0);stroke-width:1"/>\n\t<line x1="144" y1="40" x2="144" y2="56" style="stroke:rgb(0,0,0);stroke-width:1"/>\n\t<line x1="112" y1="38" x2="130" y2="28" style="stroke:rgb(0,0,0);stroke-width:1"/>\n\t<line x1="115" y1="40" x2="129" y2="32" style="stroke:rgb(0,0,0);stroke-width:1"/>\n\t<line x1="77" y1="58" x2="94" y2="69" style="stroke:rgb(0,0,0);stroke-width:1"/>\n\t<line x1="77" y1="62" x2="91" y2="70" style="stroke:rgb(0,0,0);stroke-width:1"/>\n\t<line x1="44" y1="55" x2="52" y2="36" style="stroke:rgb(0,0,0);stroke-width:1"/>\n\t<line x1="48" y1="54" x2="54" y2="40" style="stroke:rgb(0,0,0);stroke-width:1"/>\n\t<line x1="59" y1="89" x2="59" y2="69" style="stroke:rgb(0,0,0);stroke-width:1"/>\n\t<line x1="62" y1="87" x2="62" y2="71" style="stroke:rgb(0,0,0);stroke-width:1"/>\n\t<line x1="12" y1="41" x2="24" y2="57" style="stroke:rgb(0,0,0);stroke-width:1"/>\n\t<line x1="16" y1="41" x2="25" y2="53" style="stroke:rgb(0,0,0);stroke-width:1"/>\n\t<line x1="40" y1="20" x2="20" y2="22" style="stroke:rgb(0,0,0);stroke-width:1"/>\n\t<line x1="39" y1="23" x2="23" y2="25" style="stroke:rgb(0,0,0);stroke-width:1"/>\n\t<line x1="77" y1="118" x2="64" y2="125" style="stroke:rgb(0,0,0);stroke-width:1"/>\n\t<line x1="78" y1="120" x2="66" y2="128" style="stroke:rgb(0,0,0);stroke-width:1"/>\n\t<line x1="130" y1="130" x2="142" y2="122" style="stroke:rgb(0,0,0);stroke-width:1"/>\n\t<line x1="112" y1="119" x2="130" y2="130" style="stroke:rgb(0,0,0);stroke-width:1"/>\n\t<line x1="100" y1="126" x2="112" y2="119" style="stroke:rgb(0,0,0);stroke-width:1"/>\n\t<line x1="77" y1="119" x2="89" y2="126" style="stroke:rgb(0,0,0);stroke-width:1"/>\n\t<line x1="77" y1="99" x2="77" y2="119" style="stroke:rgb(0,0,0);stroke-width:1"/>\n\t<line x1="94" y1="69" x2="94" y2="83" style="stroke:rgb(0,0,0);stroke-width:1"/>\n\t<line x1="112" y1="58" x2="94" y2="69" style="stroke:rgb(0,0,0);stroke-width:1"/>\n\t<line x1="147" y1="58" x2="130" y2="69" style="stroke:rgb(0,0,0);stroke-width:1"/>\n\t<line x1="165" y1="69" x2="147" y2="58" style="stroke:rgb(0,0,0);stroke-width:1"/>\n\t<line x1="172" y1="57" x2="165" y2="69" style="stroke:rgb(0,0,0);stroke-width:1"/>\n\t<line x1="178" y1="76" x2="165" y2="69" style="stroke:rgb(0,0,0);stroke-width:1"/>\n\t<line x1="158" y1="80" x2="165" y2="69" style="stroke:rgb(0,0,0);stroke-width:1"/>\n\t<line x1="130" y1="28" x2="147" y2="38" style="stroke:rgb(0,0,0);stroke-width:1"/>\n\t<line x1="130" y1="14" x2="130" y2="28" style="stroke:rgb(0,0,0);stroke-width:1"/>\n\t<line x1="112" y1="38" x2="112" y2="58" style="stroke:rgb(0,0,0);stroke-width:1"/>\n\t<line x1="74" y1="44" x2="77" y2="58" style="stroke:rgb(0,0,0);stroke-width:1"/>\n\t<line x1="52" y1="36" x2="67" y2="38" style="stroke:rgb(0,0,0);stroke-width:1"/>\n\t<line x1="59" y1="69" x2="44" y2="55" style="stroke:rgb(0,0,0);stroke-width:1"/>\n\t<line x1="59" y1="69" x2="77" y2="58" style="stroke:rgb(0,0,0);stroke-width:1"/>\n\t<line x1="59" y1="89" x2="77" y2="99" style="stroke:rgb(0,0,0);stroke-width:1"/>\n\t<line x1="24" y1="57" x2="44" y2="55" style="stroke:rgb(0,0,0);stroke-width:1"/>\n\t<line x1="20" y1="22" x2="12" y2="41" style="stroke:rgb(0,0,0);stroke-width:1"/>\n\t<line x1="40" y1="20" x2="52" y2="36" style="stroke:rgb(0,0,0);stroke-width:1"/>\n\t<line id="function random() { [native code] }:Bond:6-5" class="event" x1="94" y1="89" x2="77" y2="99" stroke-width="8" stroke-opacity="0"/>\n\t<line id="function random() { [native code] }:Bond:9-8" class="event" x1="130" y1="69" x2="112" y2="58" stroke-width="8" stroke-opacity="0"/>\n\t<line id="function random() { [native code] }:Bond:15-10" class="event" x1="147" y1="38" x2="147" y2="58" stroke-width="8" stroke-opacity="0"/>\n\t<line id="function random() { [native code] }:Bond:18-16" class="event" x1="112" y1="38" x2="130" y2="28" stroke-width="8" stroke-opacity="0"/>\n\t<line id="function random() { [native code] }:Bond:19-7" class="event" x1="77" y1="58" x2="94" y2="69" stroke-width="8" stroke-opacity="0"/>\n\t<line id="function random() { [native code] }:Bond:22-21" class="event" x1="44" y1="55" x2="52" y2="36" stroke-width="8" stroke-opacity="0"/>\n\t<line id="function random() { [native code] }:Bond:24-23" class="event" x1="59" y1="89" x2="59" y2="69" stroke-width="8" stroke-opacity="0"/>\n\t<line id="function random() { [native code] }:Bond:26-25" class="event" x1="12" y1="41" x2="24" y2="57" stroke-width="8" stroke-opacity="0"/>\n\t<line id="function random() { [native code] }:Bond:28-27" class="event" x1="40" y1="20" x2="20" y2="22" stroke-width="8" stroke-opacity="0"/>\n\t<line id="function random() { [native code] }:Bond:29-4" class="event" x1="59" y1="130" x2="77" y2="119" stroke-width="8" stroke-opacity="0"/>\n\t<line id="function random() { [native code] }:Bond:1-0" class="event" x1="130" y1="130" x2="147" y2="119" stroke-width="8" stroke-opacity="0"/>\n\t<line id="function random() { [native code] }:Bond:2-1" class="event" x1="112" y1="119" x2="130" y2="130" stroke-width="8" stroke-opacity="0"/>\n\t<line id="function random() { [native code] }:Bond:3-2" class="event" x1="94" y1="130" x2="112" y2="119" stroke-width="8" stroke-opacity="0"/>\n\t<line id="function random() { [native code] }:Bond:4-3" class="event" x1="77" y1="119" x2="94" y2="130" stroke-width="8" stroke-opacity="0"/>\n\t<line id="function random() { [native code] }:Bond:5-4" class="event" x1="77" y1="99" x2="77" y2="119" stroke-width="8" stroke-opacity="0"/>\n\t<line id="function random() { [native code] }:Bond:7-6" class="event" x1="94" y1="69" x2="94" y2="89" stroke-width="8" stroke-opacity="0"/>\n\t<line id="function random() { [native code] }:Bond:8-7" class="event" x1="112" y1="58" x2="94" y2="69" stroke-width="8" stroke-opacity="0"/>\n\t<line id="function random() { [native code] }:Bond:10-9" class="event" x1="147" y1="58" x2="130" y2="69" stroke-width="8" stroke-opacity="0"/>\n\t<line id="function random() { [native code] }:Bond:11-10" class="event" x1="165" y1="69" x2="147" y2="58" stroke-width="8" stroke-opacity="0"/>\n\t<line id="function random() { [native code] }:Bond:12-11" class="event" x1="175" y1="51" x2="165" y2="69" stroke-width="8" stroke-opacity="0"/>\n\t<line id="function random() { [native code] }:Bond:13-11" class="event" x1="183" y1="79" x2="165" y2="69" stroke-width="8" stroke-opacity="0"/>\n\t<line id="function random() { [native code] }:Bond:14-11" class="event" x1="155" y1="86" x2="165" y2="69" stroke-width="8" stroke-opacity="0"/>\n\t<line id="function random() { [native code] }:Bond:16-15" class="event" x1="130" y1="28" x2="147" y2="38" stroke-width="8" stroke-opacity="0"/>\n\t<line id="function random() { [native code] }:Bond:17-16" class="event" x1="130" y1="8" x2="130" y2="28" stroke-width="8" stroke-opacity="0"/>\n\t<line id="function random() { [native code] }:Bond:18-8" class="event" x1="112" y1="38" x2="112" y2="58" stroke-width="8" stroke-opacity="0"/>\n\t<line id="function random() { [native code] }:Bond:20-19" class="event" x1="73" y1="38" x2="77" y2="58" stroke-width="8" stroke-opacity="0"/>\n\t<line id="function random() { [native code] }:Bond:21-20" class="event" x1="52" y1="36" x2="73" y2="38" stroke-width="8" stroke-opacity="0"/>\n\t<line id="function random() { [native code] }:Bond:23-22" class="event" x1="59" y1="69" x2="44" y2="55" stroke-width="8" stroke-opacity="0"/>\n\t<line id="function random() { [native code] }:Bond:23-19" class="event" x1="59" y1="69" x2="77" y2="58" stroke-width="8" stroke-opacity="0"/>\n\t<line id="function random() { [native code] }:Bond:24-5" class="event" x1="59" y1="89" x2="77" y2="99" stroke-width="8" stroke-opacity="0"/>\n\t<line id="function random() { [native code] }:Bond:25-22" class="event" x1="24" y1="57" x2="44" y2="55" stroke-width="8" stroke-opacity="0"/>\n\t<line id="function random() { [native code] }:Bond:27-26" class="event" x1="20" y1="22" x2="12" y2="41" stroke-width="8" stroke-opacity="0"/>\n\t<line id="function random() { [native code] }:Bond:28-21" class="event" x1="40" y1="20" x2="52" y2="36" stroke-width="8" stroke-opacity="0"/>\n\t<circle id="function random() { [native code] }:Atom:0" class="event" cx="147" cy="119" r="8" fill-opacity="0"/>\n\t<circle id="function random() { [native code] }:Atom:1" class="event" cx="130" cy="130" r="8" fill-opacity="0"/>\n\t<circle id="function random() { [native code] }:Atom:2" class="event" cx="112" cy="119" r="8" fill-opacity="0"/>\n\t<circle id="function random() { [native code] }:Atom:3" class="event" cx="94" cy="130" r="8" fill-opacity="0"/>\n\t<circle id="function random() { [native code] }:Atom:4" class="event" cx="77" cy="119" r="8" fill-opacity="0"/>\n\t<circle id="function random() { [native code] }:Atom:5" class="event" cx="77" cy="99" r="8" fill-opacity="0"/>\n\t<circle id="function random() { [native code] }:Atom:6" class="event" cx="94" cy="89" r="8" fill-opacity="0"/>\n\t<circle id="function random() { [native code] }:Atom:7" class="event" cx="94" cy="69" r="8" fill-opacity="0"/>\n\t<circle id="function random() { [native code] }:Atom:8" class="event" cx="112" cy="58" r="8" fill-opacity="0"/>\n\t<circle id="function random() { [native code] }:Atom:9" class="event" cx="130" cy="69" r="8" fill-opacity="0"/>\n\t<circle id="function random() { [native code] }:Atom:10" class="event" cx="147" cy="58" r="8" fill-opacity="0"/>\n\t<circle id="function random() { [native code] }:Atom:11" class="event" cx="165" cy="69" r="8" fill-opacity="0"/>\n\t<circle id="function random() { [native code] }:Atom:12" class="event" cx="175" cy="51" r="8" fill-opacity="0"/>\n\t<circle id="function random() { [native code] }:Atom:13" class="event" cx="183" cy="79" r="8" fill-opacity="0"/>\n\t<circle id="function random() { [native code] }:Atom:14" class="event" cx="155" cy="86" r="8" fill-opacity="0"/>\n\t<circle id="function random() { [native code] }:Atom:15" class="event" cx="147" cy="38" r="8" fill-opacity="0"/>\n\t<circle id="function random() { [native code] }:Atom:16" class="event" cx="130" cy="28" r="8" fill-opacity="0"/>\n\t<circle id="function random() { [native code] }:Atom:17" class="event" cx="130" cy="8" r="8" fill-opacity="0"/>\n\t<circle id="function random() { [native code] }:Atom:18" class="event" cx="112" cy="38" r="8" fill-opacity="0"/>\n\t<circle id="function random() { [native code] }:Atom:19" class="event" cx="77" cy="58" r="8" fill-opacity="0"/>\n\t<circle id="function random() { [native code] }:Atom:20" class="event" cx="73" cy="38" r="8" fill-opacity="0"/>\n\t<circle id="function random() { [native code] }:Atom:21" class="event" cx="52" cy="36" r="8" fill-opacity="0"/>\n\t<circle id="function random() { [native code] }:Atom:22" class="event" cx="44" cy="55" r="8" fill-opacity="0"/>\n\t<circle id="function random() { [native code] }:Atom:23" class="event" cx="59" cy="69" r="8" fill-opacity="0"/>\n\t<circle id="function random() { [native code] }:Atom:24" class="event" cx="59" cy="89" r="8" fill-opacity="0"/>\n\t<circle id="function random() { [native code] }:Atom:25" class="event" cx="24" cy="57" r="8" fill-opacity="0"/>\n\t<circle id="function random() { [native code] }:Atom:26" class="event" cx="12" cy="41" r="8" fill-opacity="0"/>\n\t<circle id="function random() { [native code] }:Atom:27" class="event" cx="20" cy="22" r="8" fill-opacity="0"/>\n\t<circle id="function random() { [native code] }:Atom:28" class="event" cx="40" cy="20" r="8" fill-opacity="0"/>\n\t<circle id="function random() { [native code] }:Atom:29" class="event" cx="59" cy="130" r="8" fill-opacity="0"/>\n</svg>