<svg id="function random() { [native code] }" xmlns="http://www.w3.org/2000/svg" version="1.1" width="200px" height="150px" viewBox="0 0 200 150">\n\t<style> #function random() { [native code] } {pointer-events:none; }  #function random() { [native code] } .event  { pointer-events:all;}  </style>\n\t<text x="153" y="122" font-family=" Helvetica" font-weight="900" font-size="13" fill="rgb(48,80,248)">N</text>\n\t<text x="172" y="126" font-family=" Helvetica" font-weight="900" font-size="9" fill="rgb(48,80,248)">2</text>\n\t<text x="163" y="122" font-family=" Helvetica" font-weight="900" font-size="13" fill="rgb(48,80,248)">H</text>\n\t<text x="98" y="133" font-family=" Helvetica" font-weight="900" font-size="13" fill="rgb(48,80,248)">N</text>\n\t<text x="98" y="146" font-family=" Helvetica" font-weight="900" font-size="13" fill="rgb(48,80,248)">H</text>\n\t<text x="98" y="90" font-family=" Helvetica" font-weight="900" font-size="13" fill="rgb(48,80,248)">N</text>\n\t<text x="171" y="27" font-family=" Helvetica" font-weight="900" font-size="13" fill="rgb(255,13,13)">O</text>\n\t<text x="75" y="38" font-family=" Helvetica" font-weight="900" font-size="13" fill="rgb(48,80,248)">N</text>\n\t<text x="85" y="38" font-family=" Helvetica" font-weight="900" font-size="13" fill="rgb(48,80,248)">H</text>\n\t<text x="61" y="133" font-family=" Helvetica" font-weight="900" font-size="13" fill="rgb(255,13,13)">O</text>\n\t<line x1="85" y1="97" x2="97" y2="90" style="stroke:rgb(0,0,0);stroke-width:1"/>\n\t<line x1="85" y1="93" x2="96" y2="87" style="stroke:rgb(0,0,0);stroke-width:1"/>\n\t<line x1="140" y1="65" x2="121" y2="55" style="stroke:rgb(0,0,0);stroke-width:1"/>\n\t<line x1="139" y1="61" x2="125" y2="53" style="stroke:rgb(0,0,0);stroke-width:1"/>\n\t<line x1="158" y1="33" x2="158" y2="55" style="stroke:rgb(0,0,0);stroke-width:1"/>\n\t<line x1="155" y1="36" x2="155" y2="52" style="stroke:rgb(0,0,0);stroke-width:1"/>\n\t<line x1="121" y1="33" x2="140" y2="23" style="stroke:rgb(0,0,0);stroke-width:1"/>\n\t<line x1="125" y1="35" x2="139" y2="27" style="stroke:rgb(0,0,0);stroke-width:1"/>\n\t<line x1="85" y1="55" x2="103" y2="65" style="stroke:rgb(0,0,0);stroke-width:1"/>\n\t<line x1="85" y1="59" x2="99" y2="67" style="stroke:rgb(0,0,0);stroke-width:1"/>\n\t<line x1="47" y1="15" x2="59" y2="32" style="stroke:rgb(0,0,0);stroke-width:1"/>\n\t<line x1="45" y1="18" x2="55" y2="32" style="stroke:rgb(0,0,0);stroke-width:1"/>\n\t<line x1="17" y1="36" x2="26" y2="17" style="stroke:rgb(0,0,0);stroke-width:1"/>\n\t<line x1="21" y1="35" x2="28" y2="20" style="stroke:rgb(0,0,0);stroke-width:1"/>\n\t<line x1="50" y1="51" x2="29" y2="53" style="stroke:rgb(0,0,0);stroke-width:1"/>\n\t<line x1="48" y1="48" x2="31" y2="50" style="stroke:rgb(0,0,0);stroke-width:1"/>\n\t<line x1="66" y1="86" x2="66" y2="65" style="stroke:rgb(0,0,0);stroke-width:1"/>\n\t<line x1="69" y1="84" x2="69" y2="67" style="stroke:rgb(0,0,0);stroke-width:1"/>\n\t<line x1="85" y1="116" x2="71" y2="124" style="stroke:rgb(0,0,0);stroke-width:1"/>\n\t<line x1="86" y1="119" x2="73" y2="127" style="stroke:rgb(0,0,0);stroke-width:1"/>\n\t<line x1="140" y1="129" x2="152" y2="122" style="stroke:rgb(0,0,0);stroke-width:1"/>\n\t<line x1="121" y1="118" x2="140" y2="129" style="stroke:rgb(0,0,0);stroke-width:1"/>\n\t<line x1="109" y1="126" x2="121" y2="118" style="stroke:rgb(0,0,0);stroke-width:1"/>\n\t<line x1="85" y1="118" x2="97" y2="126" style="stroke:rgb(0,0,0);stroke-width:1"/>\n\t<line x1="85" y1="97" x2="85" y2="118" style="stroke:rgb(0,0,0);stroke-width:1"/>\n\t<line x1="103" y1="65" x2="103" y2="80" style="stroke:rgb(0,0,0);stroke-width:1"/>\n\t<line x1="121" y1="55" x2="103" y2="65" style="stroke:rgb(0,0,0);stroke-width:1"/>\n\t<line x1="158" y1="55" x2="140" y2="65" style="stroke:rgb(0,0,0);stroke-width:1"/>\n\t<line x1="170" y1="26" x2="158" y2="33" style="stroke:rgb(0,0,0);stroke-width:1"/>\n\t<line x1="176" y1="2" x2="176" y2="17" style="stroke:rgb(0,0,0);stroke-width:1"/>\n\t<line x1="140" y1="23" x2="158" y2="33" style="stroke:rgb(0,0,0);stroke-width:1"/>\n\t<line x1="121" y1="33" x2="121" y2="55" style="stroke:rgb(0,0,0);stroke-width:1"/>\n\t<line x1="81" y1="40" x2="85" y2="55" style="stroke:rgb(0,0,0);stroke-width:1"/>\n\t<line x1="59" y1="32" x2="74" y2="33" style="stroke:rgb(0,0,0);stroke-width:1"/>\n\t<line x1="26" y1="17" x2="47" y2="15" style="stroke:rgb(0,0,0);stroke-width:1"/>\n\t<line x1="29" y1="53" x2="17" y2="36" style="stroke:rgb(0,0,0);stroke-width:1"/>\n\t<line x1="50" y1="51" x2="59" y2="32" style="stroke:rgb(0,0,0);stroke-width:1"/>\n\t<line x1="66" y1="65" x2="50" y2="51" style="stroke:rgb(0,0,0);stroke-width:1"/>\n\t<line x1="66" y1="65" x2="85" y2="55" style="stroke:rgb(0,0,0);stroke-width:1"/>\n\t<line x1="66" y1="86" x2="85" y2="97" style="stroke:rgb(0,0,0);stroke-width:1"/>\n\t<line id="function random() { [native code] }:Bond:6-5" class="event" x1="103" y1="86" x2="85" y2="97" stroke-width="8" stroke-opacity="0"/>\n\t<line id="function random() { [native code] }:Bond:9-8" class="event" x1="140" y1="65" x2="121" y2="55" stroke-width="8" stroke-opacity="0"/>\n\t<line id="function random() { [native code] }:Bond:11-10" class="event" x1="158" y1="33" x2="158" y2="55" stroke-width="8" stroke-opacity="0"/>\n\t<line id="function random() { [native code] }:Bond:15-14" class="event" x1="121" y1="33" x2="140" y2="23" stroke-width="8" stroke-opacity="0"/>\n\t<line id="function random() { [native code] }:Bond:16-7" class="event" x1="85" y1="55" x2="103" y2="65" stroke-width="8" stroke-opacity="0"/>\n\t<line id="function random() { [native code] }:Bond:19-18" class="event" x1="47" y1="15" x2="59" y2="32" stroke-width="8" stroke-opacity="0"/>\n\t<line id="function random() { [native code] }:Bond:21-20" class="event" x1="17" y1="36" x2="26" y2="17" stroke-width="8" stroke-opacity="0"/>\n\t<line id="function random() { [native code] }:Bond:23-22" class="event" x1="50" y1="51" x2="29" y2="53" stroke-width="8" stroke-opacity="0"/>\n\t<line id="function random() { [native code] }:Bond:25-24" class="event" x1="66" y1="86" x2="66" y2="65" stroke-width="8" stroke-opacity="0"/>\n\t<line id="function random() { [native code] }:Bond:26-4" class="event" x1="66" y1="129" x2="85" y2="118" stroke-width="8" stroke-opacity="0"/>\n\t<line id="function random() { [native code] }:Bond:1-0" class="event" x1="140" y1="129" x2="158" y2="118" stroke-width="8" stroke-opacity="0"/>\n\t<line id="function random() { [native code] }:Bond:2-1" class="event" x1="121" y1="118" x2="140" y2="129" stroke-width="8" stroke-opacity="0"/>\n\t<line id="function random() { [native code] }:Bond:3-2" class="event" x1="103" y1="129" x2="121" y2="118" stroke-width="8" stroke-opacity="0"/>\n\t<line id="function random() { [native code] }:Bond:4-3" class="event" x1="85" y1="118" x2="103" y2="129" stroke-width="8" stroke-opacity="0"/>\n\t<line id="function random() { [native code] }:Bond:5-4" class="event" x1="85" y1="97" x2="85" y2="118" stroke-width="8" stroke-opacity="0"/>\n\t<line id="function random() { [native code] }:Bond:7-6" class="event" x1="103" y1="65" x2="103" y2="86" stroke-width="8" stroke-opacity="0"/>\n\t<line id="function random() { [native code] }:Bond:8-7" class="event" x1="121" y1="55" x2="103" y2="65" stroke-width="8" stroke-opacity="0"/>\n\t<line id="function random() { [native code] }:Bond:10-9" class="event" x1="158" y1="55" x2="140" y2="65" stroke-width="8" stroke-opacity="0"/>\n\t<line id="function random() { [native code] }:Bond:12-11" class="event" x1="176" y1="23" x2="158" y2="33" stroke-width="8" stroke-opacity="0"/>\n\t<line id="function random() { [native code] }:Bond:13-12" class="event" x1="176" y1="2" x2="176" y2="23" stroke-width="8" stroke-opacity="0"/>\n\t<line id="function random() { [native code] }:Bond:14-11" class="event" x1="140" y1="23" x2="158" y2="33" stroke-width="8" stroke-opacity="0"/>\n\t<line id="function random() { [native code] }:Bond:15-8" class="event" x1="121" y1="33" x2="121" y2="55" stroke-width="8" stroke-opacity="0"/>\n\t<line id="function random() { [native code] }:Bond:17-16" class="event" x1="80" y1="34" x2="85" y2="55" stroke-width="8" stroke-opacity="0"/>\n\t<line id="function random() { [native code] }:Bond:18-17" class="event" x1="59" y1="32" x2="80" y2="34" stroke-width="8" stroke-opacity="0"/>\n\t<line id="function random() { [native code] }:Bond:20-19" class="event" x1="26" y1="17" x2="47" y2="15" stroke-width="8" stroke-opacity="0"/>\n\t<line id="function random() { [native code] }:Bond:22-21" class="event" x1="29" y1="53" x2="17" y2="36" stroke-width="8" stroke-opacity="0"/>\n\t<line id="function random() { [native code] }:Bond:23-18" class="event" x1="50" y1="51" x2="59" y2="32" stroke-width="8" stroke-opacity="0"/>\n\t<line id="function random() { [native code] }:Bond:24-23" class="event" x1="66" y1="65" x2="50" y2="51" stroke-width="8" stroke-opacity="0"/>\n\t<line id="function random() { [native code] }:Bond:24-16" class="event" x1="66" y1="65" x2="85" y2="55" stroke-width="8" stroke-opacity="0"/>\n\t<line id="function random() { [native code] }:Bond:25-5" class="event" x1="66" y1="86" x2="85" y2="97" stroke-width="8" stroke-opacity="0"/>\n\t<circle id="function random() { [native code] }:Atom:0" class="event" cx="158" cy="118" r="8" fill-opacity="0"/>\n\t<circle id="function random() { [native code] }:Atom:1" class="event" cx="140" cy="129" r="8" fill-opacity="0"/>\n\t<circle id="function random() { [native code] }:Atom:2" class="event" cx="121" cy="118" r="8" fill-opacity="0"/>\n\t<circle id="function random() { [native code] }:Atom:3" class="event" cx="103" cy="129" r="8" fill-opacity="0"/>\n\t<circle id="function random() { [native code] }:Atom:4" class="event" cx="85" cy="118" r="8" fill-opacity="0"/>\n\t<circle id="function random() { [native code] }:Atom:5" class="event" cx="85" cy="97" r="8" fill-opacity="0"/>\n\t<circle id="function random() { [native code] }:Atom:6" class="event" cx="103" cy="86" r="8" fill-opacity="0"/>\n\t<circle id="function random() { [native code] }:Atom:7" class="event" cx="103" cy="65" r="8" fill-opacity="0"/>\n\t<circle id="function random() { [native code] }:Atom:8" class="event" cx="121" cy="55" r="8" fill-opacity="0"/>\n\t<circle id="function random() { [native code] }:Atom:9" class="event" cx="140" cy="65" r="8" fill-opacity="0"/>\n\t<circle id="function random() { [native code] }:Atom:10" class="event" cx="158" cy="55" r="8" fill-opacity="0"/>\n\t<circle id="function random() { [native code] }:Atom:11" class="event" cx="158" cy="33" r="8" fill-opacity="0"/>\n\t<circle id="function random() { [native code] }:Atom:12" class="event" cx="176" cy="23" r="8" fill-opacity="0"/>\n\t<circle id="function random() { [native code] }:Atom:13" class="event" cx="176" cy="2" r="8" fill-opacity="0"/>\n\t<circle id="function random() { [native code] }:Atom:14" class="event" cx="140" cy="23" r="8" fill-opacity="0"/>\n\t<circle id="function random() { [native code] }:Atom:15" class="event" cx="121" cy="33" r="8" fill-opacity="0"/>\n\t<circle id="function random() { [native code] }:Atom:16" class="event" cx="85" cy="55" r="8" fill-opacity="0"/>\n\t<circle id="function random() { [native code] }:Atom:17" class="event" cx="80" cy="34" r="8" fill-opacity="0"/>\n\t<circle id="function random() { [native code] }:Atom:18" class="event" cx="59" cy="32" r="8" fill-opacity="0"/>\n\t<circle id="function random() { [native code] }:Atom:19" class="event" cx="47" cy="15" r="8" fill-opacity="0"/>\n\t<circle id="function random() { [native code] }:Atom:20" class="event" cx="26" cy="17" r="8" fill-opacity="0"/>\n\t<circle id="function random() { [native code] }:Atom:21" class="event" cx="17" cy="36" r="8" fill-opacity="0"/>\n\t<circle id="function random() { [native code] }:Atom:22" class="event" cx="29" cy="53" r="8" fill-opacity="0"/>\n\t<circle id="function random() { [native code] }:Atom:23" class="event" cx="50" cy="51" r="8" fill-opacity="0"/>\n\t<circle id="function random() { [native code] }:Atom:24" class="event" cx="66" cy="65" r="8" fill-opacity="0"/>\n\t<circle id="function random() { [native code] }:Atom:25" class="event" cx="66" cy="86" r="8" fill-opacity="0"/>\n\t<circle id="function random() { [native code] }:Atom:26" class="event" cx="66" cy="129" r="8" fill-opacity="0"/>\n</svg>