<svg id="function random() { [native code] }" xmlns="http://www.w3.org/2000/svg" version="1.1" width="200px" height="150px" viewBox="0 0 200 150">\n\t<style> #function random() { [native code] } {pointer-events:none; }  #function random() { [native code] } .event  { pointer-events:all;}  </style>\n\t<text x="151" y="123" font-family=" Helvetica" font-weight="900" font-size="12" fill="rgb(48,80,248)">N</text>\n\t<text x="168" y="125" font-family=" Helvetica" font-weight="900" font-size="8" fill="rgb(48,80,248)">2</text>\n\t<text x="159" y="123" font-family=" Helvetica" font-weight="900" font-size="12" fill="rgb(48,80,248)">H</text>\n\t<text x="98" y="134" font-family=" Helvetica" font-weight="900" font-size="12" fill="rgb(48,80,248)">N</text>\n\t<text x="98" y="146" font-family=" Helvetica" font-weight="900" font-size="12" fill="rgb(48,80,248)">H</text>\n\t<text x="98" y="93" font-family=" Helvetica" font-weight="900" font-size="12" fill="rgb(48,80,248)">N</text>\n\t<text x="167" y="32" font-family=" Helvetica" font-weight="900" font-size="12" fill="rgb(166,41,41)">Br</text>\n\t<text x="134" y="11" font-family=" Helvetica" font-weight="900" font-size="12" fill="rgb(144,224,80)">F</text>\n\t<text x="76" y="42" font-family=" Helvetica" font-weight="900" font-size="12" fill="rgb(48,80,248)">N</text>\n\t<text x="85" y="42" font-family=" Helvetica" font-weight="900" font-size="12" fill="rgb(48,80,248)">H</text>\n\t<text x="62" y="134" font-family=" Helvetica" font-weight="900" font-size="12" fill="rgb(255,13,13)">O</text>\n\t<line x1="85" y1="99" x2="97" y2="92" style="stroke:rgb(0,0,0);stroke-width:1"/>\n\t<line x1="85" y1="95" x2="95" y2="89" style="stroke:rgb(0,0,0);stroke-width:1"/>\n\t<line x1="137" y1="69" x2="120" y2="58" style="stroke:rgb(0,0,0);stroke-width:1"/>\n\t<line x1="137" y1="65" x2="123" y2="57" style="stroke:rgb(0,0,0);stroke-width:1"/>\n\t<line x1="155" y1="38" x2="155" y2="58" style="stroke:rgb(0,0,0);stroke-width:1"/>\n\t<line x1="152" y1="40" x2="152" y2="56" style="stroke:rgb(0,0,0);stroke-width:1"/>\n\t<line x1="120" y1="38" x2="137" y2="28" style="stroke:rgb(0,0,0);stroke-width:1"/>\n\t<line x1="123" y1="40" x2="137" y2="32" style="stroke:rgb(0,0,0);stroke-width:1"/>\n\t<line x1="85" y1="58" x2="102" y2="69" style="stroke:rgb(0,0,0);stroke-width:1"/>\n\t<line x1="85" y1="62" x2="99" y2="70" style="stroke:rgb(0,0,0);stroke-width:1"/>\n\t<line x1="52" y1="55" x2="60" y2="36" style="stroke:rgb(0,0,0);stroke-width:1"/>\n\t<line x1="56" y1="54" x2="62" y2="40" style="stroke:rgb(0,0,0);stroke-width:1"/>\n\t<line x1="67" y1="89" x2="67" y2="69" style="stroke:rgb(0,0,0);stroke-width:1"/>\n\t<line x1="70" y1="87" x2="70" y2="71" style="stroke:rgb(0,0,0);stroke-width:1"/>\n\t<line x1="20" y1="41" x2="31" y2="57" style="stroke:rgb(0,0,0);stroke-width:1"/>\n\t<line x1="23" y1="41" x2="33" y2="54" style="stroke:rgb(0,0,0);stroke-width:1"/>\n\t<line x1="48" y1="20" x2="28" y2="22" style="stroke:rgb(0,0,0);stroke-width:1"/>\n\t<line x1="46" y1="23" x2="30" y2="25" style="stroke:rgb(0,0,0);stroke-width:1"/>\n\t<line x1="85" y1="118" x2="72" y2="125" style="stroke:rgb(0,0,0);stroke-width:1"/>\n\t<line x1="86" y1="120" x2="73" y2="128" style="stroke:rgb(0,0,0);stroke-width:1"/>\n\t<line x1="137" y1="130" x2="150" y2="123" style="stroke:rgb(0,0,0);stroke-width:1"/>\n\t<line x1="120" y1="119" x2="137" y2="130" style="stroke:rgb(0,0,0);stroke-width:1"/>\n\t<line x1="107" y1="127" x2="120" y2="119" style="stroke:rgb(0,0,0);stroke-width:1"/>\n\t<line x1="85" y1="119" x2="97" y2="127" style="stroke:rgb(0,0,0);stroke-width:1"/>\n\t<line x1="85" y1="99" x2="85" y2="119" style="stroke:rgb(0,0,0);stroke-width:1"/>\n\t<line x1="102" y1="69" x2="102" y2="83" style="stroke:rgb(0,0,0);stroke-width:1"/>\n\t<line x1="120" y1="58" x2="102" y2="69" style="stroke:rgb(0,0,0);stroke-width:1"/>\n\t<line x1="155" y1="58" x2="137" y2="69" style="stroke:rgb(0,0,0);stroke-width:1"/>\n\t<line x1="166" y1="32" x2="155" y2="38" style="stroke:rgb(0,0,0);stroke-width:1"/>\n\t<line x1="137" y1="28" x2="155" y2="38" style="stroke:rgb(0,0,0);stroke-width:1"/>\n\t<line x1="137" y1="13" x2="137" y2="28" style="stroke:rgb(0,0,0);stroke-width:1"/>\n\t<line x1="120" y1="38" x2="120" y2="58" style="stroke:rgb(0,0,0);stroke-width:1"/>\n\t<line x1="82" y1="44" x2="85" y2="58" style="stroke:rgb(0,0,0);stroke-width:1"/>\n\t<line x1="60" y1="36" x2="75" y2="38" style="stroke:rgb(0,0,0);stroke-width:1"/>\n\t<line x1="67" y1="69" x2="52" y2="55" style="stroke:rgb(0,0,0);stroke-width:1"/>\n\t<line x1="67" y1="69" x2="85" y2="58" style="stroke:rgb(0,0,0);stroke-width:1"/>\n\t<line x1="67" y1="89" x2="85" y2="99" style="stroke:rgb(0,0,0);stroke-width:1"/>\n\t<line x1="31" y1="57" x2="52" y2="55" style="stroke:rgb(0,0,0);stroke-width:1"/>\n\t<line x1="28" y1="22" x2="20" y2="41" style="stroke:rgb(0,0,0);stroke-width:1"/>\n\t<line x1="48" y1="20" x2="60" y2="36" style="stroke:rgb(0,0,0);stroke-width:1"/>\n\t<line id="function random() { [native code] }:Bond:6-5" class="event" x1="102" y1="89" x2="85" y2="99" stroke-width="8" stroke-opacity="0"/>\n\t<line id="function random() { [native code] }:Bond:9-8" class="event" x1="137" y1="69" x2="120" y2="58" stroke-width="8" stroke-opacity="0"/>\n\t<line id="function random() { [native code] }:Bond:11-10" class="event" x1="155" y1="38" x2="155" y2="58" stroke-width="8" stroke-opacity="0"/>\n\t<line id="function random() { [native code] }:Bond:15-13" class="event" x1="120" y1="38" x2="137" y2="28" stroke-width="8" stroke-opacity="0"/>\n\t<line id="function random() { [native code] }:Bond:16-7" class="event" x1="85" y1="58" x2="102" y2="69" stroke-width="8" stroke-opacity="0"/>\n\t<line id="function random() { [native code] }:Bond:19-18" class="event" x1="52" y1="55" x2="60" y2="36" stroke-width="8" stroke-opacity="0"/>\n\t<line id="function random() { [native code] }:Bond:21-20" class="event" x1="67" y1="89" x2="67" y2="69" stroke-width="8" stroke-opacity="0"/>\n\t<line id="function random() { [native code] }:Bond:23-22" class="event" x1="20" y1="41" x2="31" y2="57" stroke-width="8" stroke-opacity="0"/>\n\t<line id="function random() { [native code] }:Bond:25-24" class="event" x1="48" y1="20" x2="28" y2="22" stroke-width="8" stroke-opacity="0"/>\n\t<line id="function random() { [native code] }:Bond:26-4" class="event" x1="67" y1="130" x2="85" y2="119" stroke-width="8" stroke-opacity="0"/>\n\t<line id="function random() { [native code] }:Bond:1-0" class="event" x1="137" y1="130" x2="155" y2="119" stroke-width="8" stroke-opacity="0"/>\n\t<line id="function random() { [native code] }:Bond:2-1" class="event" x1="120" y1="119" x2="137" y2="130" stroke-width="8" stroke-opacity="0"/>\n\t<line id="function random() { [native code] }:Bond:3-2" class="event" x1="102" y1="130" x2="120" y2="119" stroke-width="8" stroke-opacity="0"/>\n\t<line id="function random() { [native code] }:Bond:4-3" class="event" x1="85" y1="119" x2="102" y2="130" stroke-width="8" stroke-opacity="0"/>\n\t<line id="function random() { [native code] }:Bond:5-4" class="event" x1="85" y1="99" x2="85" y2="119" stroke-width="8" stroke-opacity="0"/>\n\t<line id="function random() { [native code] }:Bond:7-6" class="event" x1="102" y1="69" x2="102" y2="89" stroke-width="8" stroke-opacity="0"/>\n\t<line id="function random() { [native code] }:Bond:8-7" class="event" x1="120" y1="58" x2="102" y2="69" stroke-width="8" stroke-opacity="0"/>\n\t<line id="function random() { [native code] }:Bond:10-9" class="event" x1="155" y1="58" x2="137" y2="69" stroke-width="8" stroke-opacity="0"/>\n\t<line id="function random() { [native code] }:Bond:12-11" class="event" x1="173" y1="28" x2="155" y2="38" stroke-width="8" stroke-opacity="0"/>\n\t<line id="function random() { [native code] }:Bond:13-11" class="event" x1="137" y1="28" x2="155" y2="38" stroke-width="8" stroke-opacity="0"/>\n\t<line id="function random() { [native code] }:Bond:14-13" class="event" x1="137" y1="7" x2="137" y2="28" stroke-width="8" stroke-opacity="0"/>\n\t<line id="function random() { [native code] }:Bond:15-8" class="event" x1="120" y1="38" x2="120" y2="58" stroke-width="8" stroke-opacity="0"/>\n\t<line id="function random() { [native code] }:Bond:17-16" class="event" x1="80" y1="38" x2="85" y2="58" stroke-width="8" stroke-opacity="0"/>\n\t<line id="function random() { [native code] }:Bond:18-17" class="event" x1="60" y1="36" x2="80" y2="38" stroke-width="8" stroke-opacity="0"/>\n\t<line id="function random() { [native code] }:Bond:20-19" class="event" x1="67" y1="69" x2="52" y2="55" stroke-width="8" stroke-opacity="0"/>\n\t<line id="function random() { [native code] }:Bond:20-16" class="event" x1="67" y1="69" x2="85" y2="58" stroke-width="8" stroke-opacity="0"/>\n\t<line id="function random() { [native code] }:Bond:21-5" class="event" x1="67" y1="89" x2="85" y2="99" stroke-width="8" stroke-opacity="0"/>\n\t<line id="function random() { [native code] }:Bond:22-19" class="event" x1="31" y1="57" x2="52" y2="55" stroke-width="8" stroke-opacity="0"/>\n\t<line id="function random() { [native code] }:Bond:24-23" class="event" x1="28" y1="22" x2="20" y2="41" stroke-width="8" stroke-opacity="0"/>\n\t<line id="function random() { [native code] }:Bond:25-18" class="event" x1="48" y1="20" x2="60" y2="36" stroke-width="8" stroke-opacity="0"/>\n\t<circle id="function random() { [native code] }:Atom:0" class="event" cx="155" cy="119" r="8" fill-opacity="0"/>\n\t<circle id="function random() { [native code] }:Atom:1" class="event" cx="137" cy="130" r="8" fill-opacity="0"/>\n\t<circle id="function random() { [native code] }:Atom:2" class="event" cx="120" cy="119" r="8" fill-opacity="0"/>\n\t<circle id="function random() { [native code] }:Atom:3" class="event" cx="102" cy="130" r="8" fill-opacity="0"/>\n\t<circle id="function random() { [native code] }:Atom:4" class="event" cx="85" cy="119" r="8" fill-opacity="0"/>\n\t<circle id="function random() { [native code] }:Atom:5" class="event" cx="85" cy="99" r="8" fill-opacity="0"/>\n\t<circle id="function random() { [native code] }:Atom:6" class="event" cx="102" cy="89" r="8" fill-opacity="0"/>\n\t<circle id="function random() { [native code] }:Atom:7" class="event" cx="102" cy="69" r="8" fill-opacity="0"/>\n\t<circle id="function random() { [native code] }:Atom:8" class="event" cx="120" cy="58" r="8" fill-opacity="0"/>\n\t<circle id="function random() { [native code] }:Atom:9" class="event" cx="137" cy="69" r="8" fill-opacity="0"/>\n\t<circle id="function random() { [native code] }:Atom:10" class="event" cx="155" cy="58" r="8" fill-opacity="0"/>\n\t<circle id="function random() { [native code] }:Atom:11" class="event" cx="155" cy="38" r="8" fill-opacity="0"/>\n\t<circle id="function random() { [native code] }:Atom:12" class="event" cx="173" cy="28" r="8" fill-opacity="0"/>\n\t<circle id="function random() { [native code] }:Atom:13" class="event" cx="137" cy="28" r="8" fill-opacity="0"/>\n\t<circle id="function random() { [native code] }:Atom:14" class="event" cx="137" cy="7" r="8" fill-opacity="0"/>\n\t<circle id="function random() { [native code] }:Atom:15" class="event" cx="120" cy="38" r="8" fill-opacity="0"/>\n\t<circle id="function random() { [native code] }:Atom:16" class="event" cx="85" cy="58" r="8" fill-opacity="0"/>\n\t<circle id="function random() { [native code] }:Atom:17" class="event" cx="80" cy="38" r="8" fill-opacity="0"/>\n\t<circle id="function random() { [native code] }:Atom:18" class="event" cx="60" cy="36" r="8" fill-opacity="0"/>\n\t<circle id="function random() { [native code] }:Atom:19" class="event" cx="52" cy="55" r="8" fill-opacity="0"/>\n\t<circle id="function random() { [native code] }:Atom:20" class="event" cx="67" cy="69" r="8" fill-opacity="0"/>\n\t<circle id="function random() { [native code] }:Atom:21" class="event" cx="67" cy="89" r="8" fill-opacity="0"/>\n\t<circle id="function random() { [native code] }:Atom:22" class="event" cx="31" cy="57" r="8" fill-opacity="0"/>\n\t<circle id="function random() { [native code] }:Atom:23" class="event" cx="20" cy="41" r="8" fill-opacity="0"/>\n\t<circle id="function random() { [native code] }:Atom:24" class="event" cx="28" cy="22" r="8" fill-opacity="0"/>\n\t<circle id="function random() { [native code] }:Atom:25" class="event" cx="48" cy="20" r="8" fill-opacity="0"/>\n\t<circle id="function random() { [native code] }:Atom:26" class="event" cx="67" cy="130" r="8" fill-opacity="0"/>\n</svg>