<svg id="function random() { [native code] }" xmlns="http://www.w3.org/2000/svg" version="1.1" width="200px" height="150px" viewBox="0 0 200 150">\n\t<style> #function random() { [native code] } {pointer-events:none; }  #function random() { [native code] } .event  { pointer-events:all;}  </style>\n\t<text x="157" y="122" font-family=" Helvetica" font-weight="900" font-size="13" fill="rgb(48,80,248)">N</text>\n\t<text x="157" y="109" font-family=" Helvetica" font-weight="900" font-size="13" fill="rgb(48,80,248)">H</text>\n\t<text x="101" y="133" font-family=" Helvetica" font-weight="900" font-size="13" fill="rgb(48,80,248)">N</text>\n\t<text x="101" y="146" font-family=" Helvetica" font-weight="900" font-size="13" fill="rgb(48,80,248)">H</text>\n\t<text x="122" y="36" font-family=" Helvetica" font-weight="900" font-size="13" fill="rgb(205,205,38)">S</text>\n\t<text x="150" y="12" font-family=" Helvetica" font-weight="900" font-size="13" fill="rgb(166,41,41)">Br</text>\n\t<text x="101" y="90" font-family=" Helvetica" font-weight="900" font-size="13" fill="rgb(48,80,248)">N</text>\n\t<text x="78" y="36" font-family=" Helvetica" font-weight="900" font-size="13" fill="rgb(48,80,248)">N</text>\n\t<text x="87" y="36" font-family=" Helvetica" font-weight="900" font-size="13" fill="rgb(48,80,248)">H</text>\n\t<text x="64" y="133" font-family=" Helvetica" font-weight="900" font-size="13" fill="rgb(255,13,13)">O</text>\n\t<line x1="69" y1="86" x2="87" y2="96" style="stroke:rgb(0,0,0);stroke-width:1"/>\n\t<line x1="72" y1="84" x2="87" y2="92" style="stroke:rgb(0,0,0);stroke-width:1"/>\n\t<line x1="87" y1="53" x2="69" y2="64" style="stroke:rgb(0,0,0);stroke-width:1"/>\n\t<line x1="83" y1="52" x2="69" y2="60" style="stroke:rgb(0,0,0);stroke-width:1"/>\n\t<line x1="144" y1="62" x2="124" y2="53" style="stroke:rgb(0,0,0);stroke-width:1"/>\n\t<line x1="143" y1="58" x2="128" y2="52" style="stroke:rgb(0,0,0);stroke-width:1"/>\n\t<line x1="148" y1="28" x2="158" y2="46" style="stroke:rgb(0,0,0);stroke-width:1"/>\n\t<line x1="146" y1="31" x2="154" y2="45" style="stroke:rgb(0,0,0);stroke-width:1"/>\n\t<line x1="106" y1="64" x2="106" y2="80" style="stroke:rgb(0,0,0);stroke-width:1"/>\n\t<line x1="103" y1="66" x2="103" y2="80" style="stroke:rgb(0,0,0);stroke-width:1"/>\n\t<line x1="49" y1="13" x2="61" y2="30" style="stroke:rgb(0,0,0);stroke-width:1"/>\n\t<line x1="48" y1="16" x2="57" y2="30" style="stroke:rgb(0,0,0);stroke-width:1"/>\n\t<line x1="19" y1="35" x2="27" y2="15" style="stroke:rgb(0,0,0);stroke-width:1"/>\n\t<line x1="23" y1="34" x2="29" y2="18" style="stroke:rgb(0,0,0);stroke-width:1"/>\n\t<line x1="53" y1="50" x2="31" y2="52" style="stroke:rgb(0,0,0);stroke-width:1"/>\n\t<line x1="50" y1="47" x2="33" y2="49" style="stroke:rgb(0,0,0);stroke-width:1"/>\n\t<line x1="87" y1="116" x2="74" y2="124" style="stroke:rgb(0,0,0);stroke-width:1"/>\n\t<line x1="89" y1="119" x2="76" y2="126" style="stroke:rgb(0,0,0);stroke-width:1"/>\n\t<line x1="167" y1="121" x2="180" y2="129" style="stroke:rgb(0,0,0);stroke-width:1"/>\n\t<line x1="143" y1="129" x2="156" y2="121" style="stroke:rgb(0,0,0);stroke-width:1"/>\n\t<line x1="124" y1="118" x2="143" y2="129" style="stroke:rgb(0,0,0);stroke-width:1"/>\n\t<line x1="112" y1="125" x2="124" y2="118" style="stroke:rgb(0,0,0);stroke-width:1"/>\n\t<line x1="87" y1="118" x2="100" y2="125" style="stroke:rgb(0,0,0);stroke-width:1"/>\n\t<line x1="87" y1="96" x2="87" y2="118" style="stroke:rgb(0,0,0);stroke-width:1"/>\n\t<line x1="69" y1="64" x2="69" y2="86" style="stroke:rgb(0,0,0);stroke-width:1"/>\n\t<line x1="106" y1="64" x2="87" y2="53" style="stroke:rgb(0,0,0);stroke-width:1"/>\n\t<line x1="124" y1="53" x2="106" y2="64" style="stroke:rgb(0,0,0);stroke-width:1"/>\n\t<line x1="158" y1="46" x2="144" y2="62" style="stroke:rgb(0,0,0);stroke-width:1"/>\n\t<line x1="132" y1="31" x2="148" y2="28" style="stroke:rgb(0,0,0);stroke-width:1"/>\n\t<line x1="126" y1="38" x2="124" y2="53" style="stroke:rgb(0,0,0);stroke-width:1"/>\n\t<line x1="154" y1="14" x2="148" y2="28" style="stroke:rgb(0,0,0);stroke-width:1"/>\n\t<line x1="100" y1="89" x2="87" y2="96" style="stroke:rgb(0,0,0);stroke-width:1"/>\n\t<line x1="84" y1="38" x2="87" y2="53" style="stroke:rgb(0,0,0);stroke-width:1"/>\n\t<line x1="61" y1="30" x2="77" y2="32" style="stroke:rgb(0,0,0);stroke-width:1"/>\n\t<line x1="27" y1="15" x2="49" y2="13" style="stroke:rgb(0,0,0);stroke-width:1"/>\n\t<line x1="31" y1="52" x2="19" y2="35" style="stroke:rgb(0,0,0);stroke-width:1"/>\n\t<line x1="53" y1="50" x2="61" y2="30" style="stroke:rgb(0,0,0);stroke-width:1"/>\n\t<line x1="53" y1="50" x2="69" y2="64" style="stroke:rgb(0,0,0);stroke-width:1"/>\n\t<line id="function random() { [native code] }:Bond:7-6" class="event" x1="69" y1="86" x2="87" y2="96" stroke-width="8" stroke-opacity="0"/>\n\t<line id="function random() { [native code] }:Bond:9-8" class="event" x1="87" y1="53" x2="69" y2="64" stroke-width="8" stroke-opacity="0"/>\n\t<line id="function random() { [native code] }:Bond:12-11" class="event" x1="144" y1="62" x2="124" y2="53" stroke-width="8" stroke-opacity="0"/>\n\t<line id="function random() { [native code] }:Bond:14-13" class="event" x1="148" y1="28" x2="158" y2="46" stroke-width="8" stroke-opacity="0"/>\n\t<line id="function random() { [native code] }:Bond:17-10" class="event" x1="106" y1="86" x2="106" y2="64" stroke-width="8" stroke-opacity="0"/>\n\t<line id="function random() { [native code] }:Bond:20-19" class="event" x1="49" y1="13" x2="61" y2="30" stroke-width="8" stroke-opacity="0"/>\n\t<line id="function random() { [native code] }:Bond:22-21" class="event" x1="19" y1="35" x2="27" y2="15" stroke-width="8" stroke-opacity="0"/>\n\t<line id="function random() { [native code] }:Bond:24-23" class="event" x1="53" y1="50" x2="31" y2="52" stroke-width="8" stroke-opacity="0"/>\n\t<line id="function random() { [native code] }:Bond:25-5" class="event" x1="69" y1="129" x2="87" y2="118" stroke-width="8" stroke-opacity="0"/>\n\t<line id="function random() { [native code] }:Bond:1-0" class="event" x1="162" y1="118" x2="180" y2="129" stroke-width="8" stroke-opacity="0"/>\n\t<line id="function random() { [native code] }:Bond:2-1" class="event" x1="143" y1="129" x2="162" y2="118" stroke-width="8" stroke-opacity="0"/>\n\t<line id="function random() { [native code] }:Bond:3-2" class="event" x1="124" y1="118" x2="143" y2="129" stroke-width="8" stroke-opacity="0"/>\n\t<line id="function random() { [native code] }:Bond:4-3" class="event" x1="106" y1="129" x2="124" y2="118" stroke-width="8" stroke-opacity="0"/>\n\t<line id="function random() { [native code] }:Bond:5-4" class="event" x1="87" y1="118" x2="106" y2="129" stroke-width="8" stroke-opacity="0"/>\n\t<line id="function random() { [native code] }:Bond:6-5" class="event" x1="87" y1="96" x2="87" y2="118" stroke-width="8" stroke-opacity="0"/>\n\t<line id="function random() { [native code] }:Bond:8-7" class="event" x1="69" y1="64" x2="69" y2="86" stroke-width="8" stroke-opacity="0"/>\n\t<line id="function random() { [native code] }:Bond:10-9" class="event" x1="106" y1="64" x2="87" y2="53" stroke-width="8" stroke-opacity="0"/>\n\t<line id="function random() { [native code] }:Bond:11-10" class="event" x1="124" y1="53" x2="106" y2="64" stroke-width="8" stroke-opacity="0"/>\n\t<line id="function random() { [native code] }:Bond:13-12" class="event" x1="158" y1="46" x2="144" y2="62" stroke-width="8" stroke-opacity="0"/>\n\t<line id="function random() { [native code] }:Bond:15-14" class="event" x1="127" y1="32" x2="148" y2="28" stroke-width="8" stroke-opacity="0"/>\n\t<line id="function random() { [native code] }:Bond:15-11" class="event" x1="127" y1="32" x2="124" y2="53" stroke-width="8" stroke-opacity="0"/>\n\t<line id="function random() { [native code] }:Bond:16-14" class="event" x1="156" y1="8" x2="148" y2="28" stroke-width="8" stroke-opacity="0"/>\n\t<line id="function random() { [native code] }:Bond:17-6" class="event" x1="106" y1="86" x2="87" y2="96" stroke-width="8" stroke-opacity="0"/>\n\t<line id="function random() { [native code] }:Bond:18-9" class="event" x1="83" y1="32" x2="87" y2="53" stroke-width="8" stroke-opacity="0"/>\n\t<line id="function random() { [native code] }:Bond:19-18" class="event" x1="61" y1="30" x2="83" y2="32" stroke-width="8" stroke-opacity="0"/>\n\t<line id="function random() { [native code] }:Bond:21-20" class="event" x1="27" y1="15" x2="49" y2="13" stroke-width="8" stroke-opacity="0"/>\n\t<line id="function random() { [native code] }:Bond:23-22" class="event" x1="31" y1="52" x2="19" y2="35" stroke-width="8" stroke-opacity="0"/>\n\t<line id="function random() { [native code] }:Bond:24-19" class="event" x1="53" y1="50" x2="61" y2="30" stroke-width="8" stroke-opacity="0"/>\n\t<line id="function random() { [native code] }:Bond:24-8" class="event" x1="53" y1="50" x2="69" y2="64" stroke-width="8" stroke-opacity="0"/>\n\t<circle id="function random() { [native code] }:Atom:0" class="event" cx="180" cy="129" r="8" fill-opacity="0"/>\n\t<circle id="function random() { [native code] }:Atom:1" class="event" cx="162" cy="118" r="8" fill-opacity="0"/>\n\t<circle id="function random() { [native code] }:Atom:2" class="event" cx="143" cy="129" r="8" fill-opacity="0"/>\n\t<circle id="function random() { [native code] }:Atom:3" class="event" cx="124" cy="118" r="8" fill-opacity="0"/>\n\t<circle id="function random() { [native code] }:Atom:4" class="event" cx="106" cy="129" r="8" fill-opacity="0"/>\n\t<circle id="function random() { [native code] }:Atom:5" class="event" cx="87" cy="118" r="8" fill-opacity="0"/>\n\t<circle id="function random() { [native code] }:Atom:6" class="event" cx="87" cy="96" r="8" fill-opacity="0"/>\n\t<circle id="function random() { [native code] }:Atom:7" class="event" cx="69" cy="86" r="8" fill-opacity="0"/>\n\t<circle id="function random() { [native code] }:Atom:8" class="event" cx="69" cy="64" r="8" fill-opacity="0"/>\n\t<circle id="function random() { [native code] }:Atom:9" class="event" cx="87" cy="53" r="8" fill-opacity="0"/>\n\t<circle id="function random() { [native code] }:Atom:10" class="event" cx="106" cy="64" r="8" fill-opacity="0"/>\n\t<circle id="function random() { [native code] }:Atom:11" class="event" cx="124" cy="53" r="8" fill-opacity="0"/>\n\t<circle id="function random() { [native code] }:Atom:12" class="event" cx="144" cy="62" r="8" fill-opacity="0"/>\n\t<circle id="function random() { [native code] }:Atom:13" class="event" cx="158" cy="46" r="8" fill-opacity="0"/>\n\t<circle id="function random() { [native code] }:Atom:14" class="event" cx="148" cy="28" r="8" fill-opacity="0"/>\n\t<circle id="function random() { [native code] }:Atom:15" class="event" cx="127" cy="32" r="8" fill-opacity="0"/>\n\t<circle id="function random() { [native code] }:Atom:16" class="event" cx="156" cy="8" r="8" fill-opacity="0"/>\n\t<circle id="function random() { [native code] }:Atom:17" class="event" cx="106" cy="86" r="8" fill-opacity="0"/>\n\t<circle id="function random() { [native code] }:Atom:18" class="event" cx="83" cy="32" r="8" fill-opacity="0"/>\n\t<circle id="function random() { [native code] }:Atom:19" class="event" cx="61" cy="30" r="8" fill-opacity="0"/>\n\t<circle id="function random() { [native code] }:Atom:20" class="event" cx="49" cy="13" r="8" fill-opacity="0"/>\n\t<circle id="function random() { [native code] }:Atom:21" class="event" cx="27" cy="15" r="8" fill-opacity="0"/>\n\t<circle id="function random() { [native code] }:Atom:22" class="event" cx="19" cy="35" r="8" fill-opacity="0"/>\n\t<circle id="function random() { [native code] }:Atom:23" class="event" cx="31" cy="52" r="8" fill-opacity="0"/>\n\t<circle id="function random() { [native code] }:Atom:24" class="event" cx="53" cy="50" r="8" fill-opacity="0"/>\n\t<circle id="function random() { [native code] }:Atom:25" class="event" cx="69" cy="129" r="8" fill-opacity="0"/>\n</svg>