<svg id="function random() { [native code] }" xmlns="http://www.w3.org/2000/svg" version="1.1" width="200px" height="150px" viewBox="0 0 200 150">\n\t<style> #function random() { [native code] } {pointer-events:none; }  #function random() { [native code] } .event  { pointer-events:all;}  </style>\n\t<text x="145" y="127" font-family=" Helvetica" font-weight="900" font-size="10" fill="rgb(48,80,248)">N</text>\n\t<text x="160" y="130" font-family=" Helvetica" font-weight="900" font-size="7" fill="rgb(48,80,248)">2</text>\n\t<text x="152" y="127" font-family=" Helvetica" font-weight="900" font-size="10" fill="rgb(48,80,248)">H</text>\n\t<text x="101" y="136" font-family=" Helvetica" font-weight="900" font-size="10" fill="rgb(48,80,248)">N</text>\n\t<text x="101" y="146" font-family=" Helvetica" font-weight="900" font-size="10" fill="rgb(48,80,248)">H</text>\n\t<text x="101" y="101" font-family=" Helvetica" font-weight="900" font-size="10" fill="rgb(48,80,248)">N</text>\n\t<text x="130" y="33" font-family=" Helvetica" font-weight="900" font-size="10" fill="rgb(255,13,13)">O</text>\n\t<text x="107" y="39" font-family=" Helvetica" font-weight="900" font-size="10" fill="rgb(144,224,80)">F</text>\n\t<text x="101" y="16" font-family=" Helvetica" font-weight="900" font-size="10" fill="rgb(144,224,80)">F</text>\n\t<text x="125" y="9" font-family=" Helvetica" font-weight="900" font-size="10" fill="rgb(144,224,80)">F</text>\n\t<text x="82" y="59" font-family=" Helvetica" font-weight="900" font-size="10" fill="rgb(48,80,248)">N</text>\n\t<text x="89" y="59" font-family=" Helvetica" font-weight="900" font-size="10" fill="rgb(48,80,248)">H</text>\n\t<text x="71" y="136" font-family=" Helvetica" font-weight="900" font-size="10" fill="rgb(255,13,13)">O</text>\n\t<line x1="89" y1="107" x2="100" y2="101" style="stroke:rgb(0,0,0);stroke-width:1"/>\n\t<line x1="90" y1="104" x2="98" y2="99" style="stroke:rgb(0,0,0);stroke-width:1"/>\n\t<line x1="134" y1="81" x2="119" y2="73" style="stroke:rgb(0,0,0);stroke-width:1"/>\n\t<line x1="134" y1="78" x2="122" y2="71" style="stroke:rgb(0,0,0);stroke-width:1"/>\n\t<line x1="149" y1="55" x2="149" y2="73" style="stroke:rgb(0,0,0);stroke-width:1"/>\n\t<line x1="146" y1="57" x2="146" y2="71" style="stroke:rgb(0,0,0);stroke-width:1"/>\n\t<line x1="119" y1="55" x2="134" y2="47" style="stroke:rgb(0,0,0);stroke-width:1"/>\n\t<line x1="122" y1="57" x2="134" y2="50" style="stroke:rgb(0,0,0);stroke-width:1"/>\n\t<line x1="89" y1="73" x2="104" y2="81" style="stroke:rgb(0,0,0);stroke-width:1"/>\n\t<line x1="90" y1="76" x2="101" y2="82" style="stroke:rgb(0,0,0);stroke-width:1"/>\n\t<line x1="59" y1="40" x2="69" y2="54" style="stroke:rgb(0,0,0);stroke-width:1"/>\n\t<line x1="58" y1="43" x2="66" y2="54" style="stroke:rgb(0,0,0);stroke-width:1"/>\n\t<line x1="35" y1="58" x2="42" y2="42" style="stroke:rgb(0,0,0);stroke-width:1"/>\n\t<line x1="38" y1="57" x2="43" y2="45" style="stroke:rgb(0,0,0);stroke-width:1"/>\n\t<line x1="62" y1="70" x2="45" y2="71" style="stroke:rgb(0,0,0);stroke-width:1"/>\n\t<line x1="60" y1="67" x2="46" y2="69" style="stroke:rgb(0,0,0);stroke-width:1"/>\n\t<line x1="75" y1="98" x2="75" y2="81" style="stroke:rgb(0,0,0);stroke-width:1"/>\n\t<line x1="77" y1="96" x2="77" y2="83" style="stroke:rgb(0,0,0);stroke-width:1"/>\n\t<line x1="89" y1="123" x2="79" y2="129" style="stroke:rgb(0,0,0);stroke-width:1"/>\n\t<line x1="91" y1="125" x2="80" y2="131" style="stroke:rgb(0,0,0);stroke-width:1"/>\n\t<line x1="134" y1="133" x2="144" y2="127" style="stroke:rgb(0,0,0);stroke-width:1"/>\n\t<line x1="119" y1="124" x2="134" y2="133" style="stroke:rgb(0,0,0);stroke-width:1"/>\n\t<line x1="109" y1="130" x2="119" y2="124" style="stroke:rgb(0,0,0);stroke-width:1"/>\n\t<line x1="89" y1="124" x2="100" y2="130" style="stroke:rgb(0,0,0);stroke-width:1"/>\n\t<line x1="89" y1="107" x2="89" y2="124" style="stroke:rgb(0,0,0);stroke-width:1"/>\n\t<line x1="104" y1="81" x2="104" y2="93" style="stroke:rgb(0,0,0);stroke-width:1"/>\n\t<line x1="119" y1="73" x2="104" y2="81" style="stroke:rgb(0,0,0);stroke-width:1"/>\n\t<line x1="149" y1="73" x2="134" y2="81" style="stroke:rgb(0,0,0);stroke-width:1"/>\n\t<line x1="134" y1="47" x2="149" y2="55" style="stroke:rgb(0,0,0);stroke-width:1"/>\n\t<line x1="134" y1="35" x2="134" y2="47" style="stroke:rgb(0,0,0);stroke-width:1"/>\n\t<line x1="119" y1="21" x2="129" y2="27" style="stroke:rgb(0,0,0);stroke-width:1"/>\n\t<line x1="113" y1="31" x2="119" y2="21" style="stroke:rgb(0,0,0);stroke-width:1"/>\n\t<line x1="108" y1="15" x2="119" y2="21" style="stroke:rgb(0,0,0);stroke-width:1"/>\n\t<line x1="125" y1="11" x2="119" y2="21" style="stroke:rgb(0,0,0);stroke-width:1"/>\n\t<line x1="119" y1="55" x2="119" y2="73" style="stroke:rgb(0,0,0);stroke-width:1"/>\n\t<line x1="87" y1="61" x2="89" y2="73" style="stroke:rgb(0,0,0);stroke-width:1"/>\n\t<line x1="69" y1="54" x2="81" y2="55" style="stroke:rgb(0,0,0);stroke-width:1"/>\n\t<line x1="42" y1="42" x2="59" y2="40" style="stroke:rgb(0,0,0);stroke-width:1"/>\n\t<line x1="45" y1="71" x2="35" y2="58" style="stroke:rgb(0,0,0);stroke-width:1"/>\n\t<line x1="62" y1="70" x2="69" y2="54" style="stroke:rgb(0,0,0);stroke-width:1"/>\n\t<line x1="75" y1="81" x2="62" y2="70" style="stroke:rgb(0,0,0);stroke-width:1"/>\n\t<line x1="75" y1="81" x2="89" y2="73" style="stroke:rgb(0,0,0);stroke-width:1"/>\n\t<line x1="75" y1="98" x2="89" y2="107" style="stroke:rgb(0,0,0);stroke-width:1"/>\n\t<line id="function random() { [native code] }:Bond:6-5" class="event" x1="104" y1="98" x2="89" y2="107" stroke-width="8" stroke-opacity="0"/>\n\t<line id="function random() { [native code] }:Bond:9-8" class="event" x1="134" y1="81" x2="119" y2="73" stroke-width="8" stroke-opacity="0"/>\n\t<line id="function random() { [native code] }:Bond:11-10" class="event" x1="149" y1="55" x2="149" y2="73" stroke-width="8" stroke-opacity="0"/>\n\t<line id="function random() { [native code] }:Bond:18-12" class="event" x1="119" y1="55" x2="134" y2="47" stroke-width="8" stroke-opacity="0"/>\n\t<line id="function random() { [native code] }:Bond:19-7" class="event" x1="89" y1="73" x2="104" y2="81" stroke-width="8" stroke-opacity="0"/>\n\t<line id="function random() { [native code] }:Bond:22-21" class="event" x1="59" y1="40" x2="69" y2="54" stroke-width="8" stroke-opacity="0"/>\n\t<line id="function random() { [native code] }:Bond:24-23" class="event" x1="35" y1="58" x2="42" y2="42" stroke-width="8" stroke-opacity="0"/>\n\t<line id="function random() { [native code] }:Bond:26-25" class="event" x1="62" y1="70" x2="45" y2="71" stroke-width="8" stroke-opacity="0"/>\n\t<line id="function random() { [native code] }:Bond:28-27" class="event" x1="75" y1="98" x2="75" y2="81" stroke-width="8" stroke-opacity="0"/>\n\t<line id="function random() { [native code] }:Bond:29-4" class="event" x1="75" y1="133" x2="89" y2="124" stroke-width="8" stroke-opacity="0"/>\n\t<line id="function random() { [native code] }:Bond:1-0" class="event" x1="134" y1="133" x2="149" y2="124" stroke-width="8" stroke-opacity="0"/>\n\t<line id="function random() { [native code] }:Bond:2-1" class="event" x1="119" y1="124" x2="134" y2="133" stroke-width="8" stroke-opacity="0"/>\n\t<line id="function random() { [native code] }:Bond:3-2" class="event" x1="104" y1="133" x2="119" y2="124" stroke-width="8" stroke-opacity="0"/>\n\t<line id="function random() { [native code] }:Bond:4-3" class="event" x1="89" y1="124" x2="104" y2="133" stroke-width="8" stroke-opacity="0"/>\n\t<line id="function random() { [native code] }:Bond:5-4" class="event" x1="89" y1="107" x2="89" y2="124" stroke-width="8" stroke-opacity="0"/>\n\t<line id="function random() { [native code] }:Bond:7-6" class="event" x1="104" y1="81" x2="104" y2="98" stroke-width="8" stroke-opacity="0"/>\n\t<line id="function random() { [native code] }:Bond:8-7" class="event" x1="119" y1="73" x2="104" y2="81" stroke-width="8" stroke-opacity="0"/>\n\t<line id="function random() { [native code] }:Bond:10-9" class="event" x1="149" y1="73" x2="134" y2="81" stroke-width="8" stroke-opacity="0"/>\n\t<line id="function random() { [native code] }:Bond:12-11" class="event" x1="134" y1="47" x2="149" y2="55" stroke-width="8" stroke-opacity="0"/>\n\t<line id="function random() { [native code] }:Bond:13-12" class="event" x1="134" y1="30" x2="134" y2="47" stroke-width="8" stroke-opacity="0"/>\n\t<line id="function random() { [native code] }:Bond:14-13" class="event" x1="119" y1="21" x2="134" y2="30" stroke-width="8" stroke-opacity="0"/>\n\t<line id="function random() { [native code] }:Bond:15-14" class="event" x1="111" y1="36" x2="119" y2="21" stroke-width="8" stroke-opacity="0"/>\n\t<line id="function random() { [native code] }:Bond:16-14" class="event" x1="104" y1="13" x2="119" y2="21" stroke-width="8" stroke-opacity="0"/>\n\t<line id="function random() { [native code] }:Bond:17-14" class="event" x1="128" y1="6" x2="119" y2="21" stroke-width="8" stroke-opacity="0"/>\n\t<line id="function random() { [native code] }:Bond:18-8" class="event" x1="119" y1="55" x2="119" y2="73" stroke-width="8" stroke-opacity="0"/>\n\t<line id="function random() { [native code] }:Bond:20-19" class="event" x1="86" y1="56" x2="89" y2="73" stroke-width="8" stroke-opacity="0"/>\n\t<line id="function random() { [native code] }:Bond:21-20" class="event" x1="69" y1="54" x2="86" y2="56" stroke-width="8" stroke-opacity="0"/>\n\t<line id="function random() { [native code] }:Bond:23-22" class="event" x1="42" y1="42" x2="59" y2="40" stroke-width="8" stroke-opacity="0"/>\n\t<line id="function random() { [native code] }:Bond:25-24" class="event" x1="45" y1="71" x2="35" y2="58" stroke-width="8" stroke-opacity="0"/>\n\t<line id="function random() { [native code] }:Bond:26-21" class="event" x1="62" y1="70" x2="69" y2="54" stroke-width="8" stroke-opacity="0"/>\n\t<line id="function random() { [native code] }:Bond:27-26" class="event" x1="75" y1="81" x2="62" y2="70" stroke-width="8" stroke-opacity="0"/>\n\t<line id="function random() { [native code] }:Bond:27-19" class="event" x1="75" y1="81" x2="89" y2="73" stroke-width="8" stroke-opacity="0"/>\n\t<line id="function random() { [native code] }:Bond:28-5" class="event" x1="75" y1="98" x2="89" y2="107" stroke-width="8" stroke-opacity="0"/>\n\t<circle id="function random() { [native code] }:Atom:0" class="event" cx="149" cy="124" r="8" fill-opacity="0"/>\n\t<circle id="function random() { [native code] }:Atom:1" class="event" cx="134" cy="133" r="8" fill-opacity="0"/>\n\t<circle id="function random() { [native code] }:Atom:2" class="event" cx="119" cy="124" r="8" fill-opacity="0"/>\n\t<circle id="function random() { [native code] }:Atom:3" class="event" cx="104" cy="133" r="8" fill-opacity="0"/>\n\t<circle id="function random() { [native code] }:Atom:4" class="event" cx="89" cy="124" r="8" fill-opacity="0"/>\n\t<circle id="function random() { [native code] }:Atom:5" class="event" cx="89" cy="107" r="8" fill-opacity="0"/>\n\t<circle id="function random() { [native code] }:Atom:6" class="event" cx="104" cy="98" r="8" fill-opacity="0"/>\n\t<circle id="function random() { [native code] }:Atom:7" class="event" cx="104" cy="81" r="8" fill-opacity="0"/>\n\t<circle id="function random() { [native code] }:Atom:8" class="event" cx="119" cy="73" r="8" fill-opacity="0"/>\n\t<circle id="function random() { [native code] }:Atom:9" class="event" cx="134" cy="81" r="8" fill-opacity="0"/>\n\t<circle id="function random() { [native code] }:Atom:10" class="event" cx="149" cy="73" r="8" fill-opacity="0"/>\n\t<circle id="function random() { [native code] }:Atom:11" class="event" cx="149" cy="55" r="8" fill-opacity="0"/>\n\t<circle id="function random() { [native code] }:Atom:12" class="event" cx="134" cy="47" r="8" fill-opacity="0"/>\n\t<circle id="function random() { [native code] }:Atom:13" class="event" cx="134" cy="30" r="8" fill-opacity="0"/>\n\t<circle id="function random() { [native code] }:Atom:14" class="event" cx="119" cy="21" r="8" fill-opacity="0"/>\n\t<circle id="function random() { [native code] }:Atom:15" class="event" cx="111" cy="36" r="8" fill-opacity="0"/>\n\t<circle id="function random() { [native code] }:Atom:16" class="event" cx="104" cy="13" r="8" fill-opacity="0"/>\n\t<circle id="function random() { [native code] }:Atom:17" class="event" cx="128" cy="6" r="8" fill-opacity="0"/>\n\t<circle id="function random() { [native code] }:Atom:18" class="event" cx="119" cy="55" r="8" fill-opacity="0"/>\n\t<circle id="function random() { [native code] }:Atom:19" class="event" cx="89" cy="73" r="8" fill-opacity="0"/>\n\t<circle id="function random() { [native code] }:Atom:20" class="event" cx="86" cy="56" r="8" fill-opacity="0"/>\n\t<circle id="function random() { [native code] }:Atom:21" class="event" cx="69" cy="54" r="8" fill-opacity="0"/>\n\t<circle id="function random() { [native code] }:Atom:22" class="event" cx="59" cy="40" r="8" fill-opacity="0"/>\n\t<circle id="function random() { [native code] }:Atom:23" class="event" cx="42" cy="42" r="8" fill-opacity="0"/>\n\t<circle id="function random() { [native code] }:Atom:24" class="event" cx="35" cy="58" r="8" fill-opacity="0"/>\n\t<circle id="function random() { [native code] }:Atom:25" class="event" cx="45" cy="71" r="8" fill-opacity="0"/>\n\t<circle id="function random() { [native code] }:Atom:26" class="event" cx="62" cy="70" r="8" fill-opacity="0"/>\n\t<circle id="function random() { [native code] }:Atom:27" class="event" cx="75" cy="81" r="8" fill-opacity="0"/>\n\t<circle id="function random() { [native code] }:Atom:28" class="event" cx="75" cy="98" r="8" fill-opacity="0"/>\n\t<circle id="function random() { [native code] }:Atom:29" class="event" cx="75" cy="133" r="8" fill-opacity="0"/>\n</svg>