<svg id="function random() { [native code] }" xmlns="http://www.w3.org/2000/svg" version="1.1" width="200px" height="150px" viewBox="0 0 200 150">\n\t<style> #function random() { [native code] } {pointer-events:none; }  #function random() { [native code] } .event  { pointer-events:all;}  </style>\n\t<text x="176" y="50" font-family=" Helvetica" font-weight="900" font-size="11" fill="rgb(48,80,248)">N</text>\n\t<text x="192" y="53" font-family=" Helvetica" font-weight="900" font-size="7" fill="rgb(48,80,248)">2</text>\n\t<text x="184" y="50" font-family=" Helvetica" font-weight="900" font-size="11" fill="rgb(48,80,248)">H</text>\n\t<text x="129" y="59" font-family=" Helvetica" font-weight="900" font-size="11" fill="rgb(48,80,248)">N</text>\n\t<text x="129" y="70" font-family=" Helvetica" font-weight="900" font-size="11" fill="rgb(48,80,248)">H</text>\n\t<text x="112" y="32" font-family=" Helvetica" font-weight="900" font-size="11" fill="rgb(255,13,13)">O</text>\n\t<text x="52" y="90" font-family=" Helvetica" font-weight="900" font-size="11" fill="rgb(48,80,248)">N</text>\n\t<text x="44" y="90" font-family=" Helvetica" font-weight="900" font-size="11" fill="rgb(48,80,248)">H</text>\n\t<text x="2" y="22" font-family=" Helvetica" font-weight="900" font-size="11" fill="rgb(144,224,80)">F</text>\n\t<text x="2" y="59" font-family=" Helvetica" font-weight="900" font-size="11" fill="rgb(144,224,80)">F</text>\n\t<text x="81" y="50" font-family=" Helvetica" font-weight="900" font-size="11" fill="rgb(48,80,248)">N</text>\n\t<line x1="118" y1="48" x2="118" y2="34" style="stroke:rgb(0,0,0);stroke-width:1"/>\n\t<line x1="115" y1="48" x2="115" y2="34" style="stroke:rgb(0,0,0);stroke-width:1"/>\n\t<line x1="101" y1="74" x2="101" y2="56" style="stroke:rgb(0,0,0);stroke-width:1"/>\n\t<line x1="98" y1="72" x2="98" y2="58" style="stroke:rgb(0,0,0);stroke-width:1"/>\n\t<line x1="69" y1="74" x2="85" y2="83" style="stroke:rgb(0,0,0);stroke-width:1"/>\n\t<line x1="70" y1="78" x2="82" y2="85" style="stroke:rgb(0,0,0);stroke-width:1"/>\n\t<line x1="56" y1="120" x2="63" y2="103" style="stroke:rgb(0,0,0);stroke-width:1"/>\n\t<line x1="59" y1="119" x2="65" y2="106" style="stroke:rgb(0,0,0);stroke-width:1"/>\n\t<line x1="84" y1="133" x2="66" y2="135" style="stroke:rgb(0,0,0);stroke-width:1"/>\n\t<line x1="82" y1="130" x2="68" y2="132" style="stroke:rgb(0,0,0);stroke-width:1"/>\n\t<line x1="81" y1="101" x2="92" y2="116" style="stroke:rgb(0,0,0);stroke-width:1"/>\n\t<line x1="80" y1="105" x2="89" y2="116" style="stroke:rgb(0,0,0);stroke-width:1"/>\n\t<line x1="53" y1="29" x2="53" y2="47" style="stroke:rgb(0,0,0);stroke-width:1"/>\n\t<line x1="51" y1="30" x2="51" y2="45" style="stroke:rgb(0,0,0);stroke-width:1"/>\n\t<line x1="22" y1="29" x2="37" y2="19" style="stroke:rgb(0,0,0);stroke-width:1"/>\n\t<line x1="25" y1="30" x2="37" y2="23" style="stroke:rgb(0,0,0);stroke-width:1"/>\n\t<line x1="37" y1="56" x2="22" y2="47" style="stroke:rgb(0,0,0);stroke-width:1"/>\n\t<line x1="37" y1="53" x2="25" y2="45" style="stroke:rgb(0,0,0);stroke-width:1"/>\n\t<line x1="69" y1="56" x2="80" y2="50" style="stroke:rgb(0,0,0);stroke-width:1"/>\n\t<line x1="72" y1="57" x2="81" y2="52" style="stroke:rgb(0,0,0);stroke-width:1"/>\n\t<line x1="164" y1="56" x2="175" y2="50" style="stroke:rgb(0,0,0);stroke-width:1"/>\n\t<line x1="148" y1="47" x2="164" y2="56" style="stroke:rgb(0,0,0);stroke-width:1"/>\n\t<line x1="138" y1="53" x2="148" y2="47" style="stroke:rgb(0,0,0);stroke-width:1"/>\n\t<line x1="117" y1="47" x2="128" y2="53" style="stroke:rgb(0,0,0);stroke-width:1"/>\n\t<line x1="101" y1="56" x2="117" y2="47" style="stroke:rgb(0,0,0);stroke-width:1"/>\n\t<line x1="85" y1="83" x2="101" y2="74" style="stroke:rgb(0,0,0);stroke-width:1"/>\n\t<line x1="60" y1="82" x2="69" y2="74" style="stroke:rgb(0,0,0);stroke-width:1"/>\n\t<line x1="63" y1="103" x2="58" y2="92" style="stroke:rgb(0,0,0);stroke-width:1"/>\n\t<line x1="66" y1="135" x2="56" y2="120" style="stroke:rgb(0,0,0);stroke-width:1"/>\n\t<line x1="92" y1="116" x2="84" y2="133" style="stroke:rgb(0,0,0);stroke-width:1"/>\n\t<line x1="81" y1="101" x2="63" y2="103" style="stroke:rgb(0,0,0);stroke-width:1"/>\n\t<line x1="81" y1="101" x2="85" y2="83" style="stroke:rgb(0,0,0);stroke-width:1"/>\n\t<line x1="69" y1="56" x2="69" y2="74" style="stroke:rgb(0,0,0);stroke-width:1"/>\n\t<line x1="53" y1="47" x2="69" y2="56" style="stroke:rgb(0,0,0);stroke-width:1"/>\n\t<line x1="37" y1="19" x2="53" y2="29" style="stroke:rgb(0,0,0);stroke-width:1"/>\n\t<line x1="10" y1="22" x2="22" y2="29" style="stroke:rgb(0,0,0);stroke-width:1"/>\n\t<line x1="22" y1="47" x2="22" y2="29" style="stroke:rgb(0,0,0);stroke-width:1"/>\n\t<line x1="10" y1="53" x2="22" y2="47" style="stroke:rgb(0,0,0);stroke-width:1"/>\n\t<line x1="37" y1="56" x2="53" y2="47" style="stroke:rgb(0,0,0);stroke-width:1"/>\n\t<line x1="90" y1="50" x2="101" y2="56" style="stroke:rgb(0,0,0);stroke-width:1"/>\n\t<line id="function random() { [native code] }:Bond:5-4" class="event" x1="117" y1="29" x2="117" y2="47" stroke-width="8" stroke-opacity="0"/>\n\t<line id="function random() { [native code] }:Bond:7-6" class="event" x1="101" y1="74" x2="101" y2="56" stroke-width="8" stroke-opacity="0"/>\n\t<line id="function random() { [native code] }:Bond:9-8" class="event" x1="69" y1="74" x2="85" y2="83" stroke-width="8" stroke-opacity="0"/>\n\t<line id="function random() { [native code] }:Bond:12-11" class="event" x1="56" y1="120" x2="63" y2="103" stroke-width="8" stroke-opacity="0"/>\n\t<line id="function random() { [native code] }:Bond:14-13" class="event" x1="84" y1="133" x2="66" y2="135" stroke-width="8" stroke-opacity="0"/>\n\t<line id="function random() { [native code] }:Bond:16-15" class="event" x1="81" y1="101" x2="92" y2="116" stroke-width="8" stroke-opacity="0"/>\n\t<line id="function random() { [native code] }:Bond:19-18" class="event" x1="53" y1="29" x2="53" y2="47" stroke-width="8" stroke-opacity="0"/>\n\t<line id="function random() { [native code] }:Bond:21-20" class="event" x1="22" y1="29" x2="37" y2="19" stroke-width="8" stroke-opacity="0"/>\n\t<line id="function random() { [native code] }:Bond:25-23" class="event" x1="37" y1="56" x2="22" y2="47" stroke-width="8" stroke-opacity="0"/>\n\t<line id="function random() { [native code] }:Bond:26-17" class="event" x1="85" y1="47" x2="69" y2="56" stroke-width="8" stroke-opacity="0"/>\n\t<line id="function random() { [native code] }:Bond:1-0" class="event" x1="164" y1="56" x2="180" y2="47" stroke-width="8" stroke-opacity="0"/>\n\t<line id="function random() { [native code] }:Bond:2-1" class="event" x1="148" y1="47" x2="164" y2="56" stroke-width="8" stroke-opacity="0"/>\n\t<line id="function random() { [native code] }:Bond:3-2" class="event" x1="133" y1="56" x2="148" y2="47" stroke-width="8" stroke-opacity="0"/>\n\t<line id="function random() { [native code] }:Bond:4-3" class="event" x1="117" y1="47" x2="133" y2="56" stroke-width="8" stroke-opacity="0"/>\n\t<line id="function random() { [native code] }:Bond:6-4" class="event" x1="101" y1="56" x2="117" y2="47" stroke-width="8" stroke-opacity="0"/>\n\t<line id="function random() { [native code] }:Bond:8-7" class="event" x1="85" y1="83" x2="101" y2="74" stroke-width="8" stroke-opacity="0"/>\n\t<line id="function random() { [native code] }:Bond:10-9" class="event" x1="56" y1="87" x2="69" y2="74" stroke-width="8" stroke-opacity="0"/>\n\t<line id="function random() { [native code] }:Bond:11-10" class="event" x1="63" y1="103" x2="56" y2="87" stroke-width="8" stroke-opacity="0"/>\n\t<line id="function random() { [native code] }:Bond:13-12" class="event" x1="66" y1="135" x2="56" y2="120" stroke-width="8" stroke-opacity="0"/>\n\t<line id="function random() { [native code] }:Bond:15-14" class="event" x1="92" y1="116" x2="84" y2="133" stroke-width="8" stroke-opacity="0"/>\n\t<line id="function random() { [native code] }:Bond:16-11" class="event" x1="81" y1="101" x2="63" y2="103" stroke-width="8" stroke-opacity="0"/>\n\t<line id="function random() { [native code] }:Bond:16-8" class="event" x1="81" y1="101" x2="85" y2="83" stroke-width="8" stroke-opacity="0"/>\n\t<line id="function random() { [native code] }:Bond:17-9" class="event" x1="69" y1="56" x2="69" y2="74" stroke-width="8" stroke-opacity="0"/>\n\t<line id="function random() { [native code] }:Bond:18-17" class="event" x1="53" y1="47" x2="69" y2="56" stroke-width="8" stroke-opacity="0"/>\n\t<line id="function random() { [native code] }:Bond:20-19" class="event" x1="37" y1="19" x2="53" y2="29" stroke-width="8" stroke-opacity="0"/>\n\t<line id="function random() { [native code] }:Bond:22-21" class="event" x1="6" y1="19" x2="22" y2="29" stroke-width="8" stroke-opacity="0"/>\n\t<line id="function random() { [native code] }:Bond:23-21" class="event" x1="22" y1="47" x2="22" y2="29" stroke-width="8" stroke-opacity="0"/>\n\t<line id="function random() { [native code] }:Bond:24-23" class="event" x1="6" y1="56" x2="22" y2="47" stroke-width="8" stroke-opacity="0"/>\n\t<line id="function random() { [native code] }:Bond:25-18" class="event" x1="37" y1="56" x2="53" y2="47" stroke-width="8" stroke-opacity="0"/>\n\t<line id="function random() { [native code] }:Bond:26-6" class="event" x1="85" y1="47" x2="101" y2="56" stroke-width="8" stroke-opacity="0"/>\n\t<circle id="function random() { [native code] }:Atom:0" class="event" cx="180" cy="47" r="8" fill-opacity="0"/>\n\t<circle id="function random() { [native code] }:Atom:1" class="event" cx="164" cy="56" r="8" fill-opacity="0"/>\n\t<circle id="function random() { [native code] }:Atom:2" class="event" cx="148" cy="47" r="8" fill-opacity="0"/>\n\t<circle id="function random() { [native code] }:Atom:3" class="event" cx="133" cy="56" r="8" fill-opacity="0"/>\n\t<circle id="function random() { [native code] }:Atom:4" class="event" cx="117" cy="47" r="8" fill-opacity="0"/>\n\t<circle id="function random() { [native code] }:Atom:5" class="event" cx="117" cy="29" r="8" fill-opacity="0"/>\n\t<circle id="function random() { [native code] }:Atom:6" class="event" cx="101" cy="56" r="8" fill-opacity="0"/>\n\t<circle id="function random() { [native code] }:Atom:7" class="event" cx="101" cy="74" r="8" fill-opacity="0"/>\n\t<circle id="function random() { [native code] }:Atom:8" class="event" cx="85" cy="83" r="8" fill-opacity="0"/>\n\t<circle id="function random() { [native code] }:Atom:9" class="event" cx="69" cy="74" r="8" fill-opacity="0"/>\n\t<circle id="function random() { [native code] }:Atom:10" class="event" cx="56" cy="87" r="8" fill-opacity="0"/>\n\t<circle id="function random() { [native code] }:Atom:11" class="event" cx="63" cy="103" r="8" fill-opacity="0"/>\n\t<circle id="function random() { [native code] }:Atom:12" class="event" cx="56" cy="120" r="8" fill-opacity="0"/>\n\t<circle id="function random() { [native code] }:Atom:13" class="event" cx="66" cy="135" r="8" fill-opacity="0"/>\n\t<circle id="function random() { [native code] }:Atom:14" class="event" cx="84" cy="133" r="8" fill-opacity="0"/>\n\t<circle id="function random() { [native code] }:Atom:15" class="event" cx="92" cy="116" r="8" fill-opacity="0"/>\n\t<circle id="function random() { [native code] }:Atom:16" class="event" cx="81" cy="101" r="8" fill-opacity="0"/>\n\t<circle id="function random() { [native code] }:Atom:17" class="event" cx="69" cy="56" r="8" fill-opacity="0"/>\n\t<circle id="function random() { [native code] }:Atom:18" class="event" cx="53" cy="47" r="8" fill-opacity="0"/>\n\t<circle id="function random() { [native code] }:Atom:19" class="event" cx="53" cy="29" r="8" fill-opacity="0"/>\n\t<circle id="function random() { [native code] }:Atom:20" class="event" cx="37" cy="19" r="8" fill-opacity="0"/>\n\t<circle id="function random() { [native code] }:Atom:21" class="event" cx="22" cy="29" r="8" fill-opacity="0"/>\n\t<circle id="function random() { [native code] }:Atom:22" class="event" cx="6" cy="19" r="8" fill-opacity="0"/>\n\t<circle id="function random() { [native code] }:Atom:23" class="event" cx="22" cy="47" r="8" fill-opacity="0"/>\n\t<circle id="function random() { [native code] }:Atom:24" class="event" cx="6" cy="56" r="8" fill-opacity="0"/>\n\t<circle id="function random() { [native code] }:Atom:25" class="event" cx="37" cy="56" r="8" fill-opacity="0"/>\n\t<circle id="function random() { [native code] }:Atom:26" class="event" cx="85" cy="47" r="8" fill-opacity="0"/>\n</svg>