<svg id="function random() { [native code] }" xmlns="http://www.w3.org/2000/svg" version="1.1" width="200px" height="150px" viewBox="0 0 200 150">\n\t<style> #function random() { [native code] } {pointer-events:none; }  #function random() { [native code] } .event  { pointer-events:all;}  </style>\n\t<text x="179" y="60" font-family=" Helvetica" font-weight="900" font-size="10" fill="rgb(48,80,248)">N</text>\n\t<text x="179" y="50" font-family=" Helvetica" font-weight="900" font-size="10" fill="rgb(48,80,248)">H</text>\n\t<text x="135" y="69" font-family=" Helvetica" font-weight="900" font-size="10" fill="rgb(48,80,248)">N</text>\n\t<text x="135" y="79" font-family=" Helvetica" font-weight="900" font-size="10" fill="rgb(48,80,248)">H</text>\n\t<text x="120" y="43" font-family=" Helvetica" font-weight="900" font-size="10" fill="rgb(255,13,13)">O</text>\n\t<text x="63" y="97" font-family=" Helvetica" font-weight="900" font-size="10" fill="rgb(48,80,248)">N</text>\n\t<text x="56" y="97" font-family=" Helvetica" font-weight="900" font-size="10" fill="rgb(48,80,248)">H</text>\n\t<text x="17" y="17" font-family=" Helvetica" font-weight="900" font-size="10" fill="rgb(144,224,80)">F</text>\n\t<text x="2" y="43" font-family=" Helvetica" font-weight="900" font-size="10" fill="rgb(144,224,80)">F</text>\n\t<text x="91" y="60" font-family=" Helvetica" font-weight="900" font-size="10" fill="rgb(48,80,248)">N</text>\n\t<line x1="125" y1="58" x2="125" y2="45" style="stroke:rgb(0,0,0);stroke-width:1"/>\n\t<line x1="123" y1="58" x2="123" y2="45" style="stroke:rgb(0,0,0);stroke-width:1"/>\n\t<line x1="109" y1="83" x2="109" y2="66" style="stroke:rgb(0,0,0);stroke-width:1"/>\n\t<line x1="106" y1="81" x2="106" y2="68" style="stroke:rgb(0,0,0);stroke-width:1"/>\n\t<line x1="79" y1="83" x2="94" y2="91" style="stroke:rgb(0,0,0);stroke-width:1"/>\n\t<line x1="80" y1="86" x2="91" y2="93" style="stroke:rgb(0,0,0);stroke-width:1"/>\n\t<line x1="91" y1="108" x2="74" y2="110" style="stroke:rgb(0,0,0);stroke-width:1"/>\n\t<line x1="88" y1="106" x2="76" y2="107" style="stroke:rgb(0,0,0);stroke-width:1"/>\n\t<line x1="94" y1="138" x2="101" y2="122" style="stroke:rgb(0,0,0);stroke-width:1"/>\n\t<line x1="92" y1="135" x2="98" y2="123" style="stroke:rgb(0,0,0);stroke-width:1"/>\n\t<line x1="67" y1="125" x2="77" y2="139" style="stroke:rgb(0,0,0);stroke-width:1"/>\n\t<line x1="70" y1="125" x2="78" y2="136" style="stroke:rgb(0,0,0);stroke-width:1"/>\n\t<line x1="65" y1="40" x2="65" y2="57" style="stroke:rgb(0,0,0);stroke-width:1"/>\n\t<line x1="62" y1="42" x2="62" y2="55" style="stroke:rgb(0,0,0);stroke-width:1"/>\n\t<line x1="35" y1="40" x2="50" y2="32" style="stroke:rgb(0,0,0);stroke-width:1"/>\n\t<line x1="38" y1="41" x2="50" y2="35" style="stroke:rgb(0,0,0);stroke-width:1"/>\n\t<line x1="50" y1="66" x2="35" y2="57" style="stroke:rgb(0,0,0);stroke-width:1"/>\n\t<line x1="50" y1="63" x2="38" y2="56" style="stroke:rgb(0,0,0);stroke-width:1"/>\n\t<line x1="79" y1="66" x2="90" y2="60" style="stroke:rgb(0,0,0);stroke-width:1"/>\n\t<line x1="82" y1="67" x2="91" y2="62" style="stroke:rgb(0,0,0);stroke-width:1"/>\n\t<line x1="188" y1="60" x2="198" y2="66" style="stroke:rgb(0,0,0);stroke-width:1"/>\n\t<line x1="168" y1="66" x2="178" y2="60" style="stroke:rgb(0,0,0);stroke-width:1"/>\n\t<line x1="153" y1="57" x2="168" y2="66" style="stroke:rgb(0,0,0);stroke-width:1"/>\n\t<line x1="143" y1="63" x2="153" y2="57" style="stroke:rgb(0,0,0);stroke-width:1"/>\n\t<line x1="124" y1="57" x2="134" y2="63" style="stroke:rgb(0,0,0);stroke-width:1"/>\n\t<line x1="109" y1="66" x2="124" y2="57" style="stroke:rgb(0,0,0);stroke-width:1"/>\n\t<line x1="94" y1="91" x2="109" y2="83" style="stroke:rgb(0,0,0);stroke-width:1"/>\n\t<line x1="71" y1="90" x2="79" y2="83" style="stroke:rgb(0,0,0);stroke-width:1"/>\n\t<line x1="74" y1="110" x2="69" y2="99" style="stroke:rgb(0,0,0);stroke-width:1"/>\n\t<line x1="91" y1="108" x2="94" y2="91" style="stroke:rgb(0,0,0);stroke-width:1"/>\n\t<line x1="101" y1="122" x2="91" y2="108" style="stroke:rgb(0,0,0);stroke-width:1"/>\n\t<line x1="77" y1="139" x2="94" y2="138" style="stroke:rgb(0,0,0);stroke-width:1"/>\n\t<line x1="67" y1="125" x2="74" y2="110" style="stroke:rgb(0,0,0);stroke-width:1"/>\n\t<line x1="79" y1="66" x2="79" y2="83" style="stroke:rgb(0,0,0);stroke-width:1"/>\n\t<line x1="65" y1="57" x2="79" y2="66" style="stroke:rgb(0,0,0);stroke-width:1"/>\n\t<line x1="50" y1="32" x2="65" y2="40" style="stroke:rgb(0,0,0);stroke-width:1"/>\n\t<line x1="20" y1="32" x2="35" y2="40" style="stroke:rgb(0,0,0);stroke-width:1"/>\n\t<line x1="20" y1="19" x2="20" y2="32" style="stroke:rgb(0,0,0);stroke-width:1"/>\n\t<line x1="9" y1="38" x2="20" y2="32" style="stroke:rgb(0,0,0);stroke-width:1"/>\n\t<line x1="35" y1="57" x2="35" y2="40" style="stroke:rgb(0,0,0);stroke-width:1"/>\n\t<line x1="50" y1="66" x2="65" y2="57" style="stroke:rgb(0,0,0);stroke-width:1"/>\n\t<line x1="99" y1="60" x2="109" y2="66" style="stroke:rgb(0,0,0);stroke-width:1"/>\n\t<line id="function random() { [native code] }:Bond:6-5" class="event" x1="124" y1="40" x2="124" y2="57" stroke-width="8" stroke-opacity="0"/>\n\t<line id="function random() { [native code] }:Bond:8-7" class="event" x1="109" y1="83" x2="109" y2="66" stroke-width="8" stroke-opacity="0"/>\n\t<line id="function random() { [native code] }:Bond:10-9" class="event" x1="79" y1="83" x2="94" y2="91" stroke-width="8" stroke-opacity="0"/>\n\t<line id="function random() { [native code] }:Bond:13-12" class="event" x1="91" y1="108" x2="74" y2="110" stroke-width="8" stroke-opacity="0"/>\n\t<line id="function random() { [native code] }:Bond:15-14" class="event" x1="94" y1="138" x2="101" y2="122" stroke-width="8" stroke-opacity="0"/>\n\t<line id="function random() { [native code] }:Bond:17-16" class="event" x1="67" y1="125" x2="77" y2="139" stroke-width="8" stroke-opacity="0"/>\n\t<line id="function random() { [native code] }:Bond:20-19" class="event" x1="65" y1="40" x2="65" y2="57" stroke-width="8" stroke-opacity="0"/>\n\t<line id="function random() { [native code] }:Bond:22-21" class="event" x1="35" y1="40" x2="50" y2="32" stroke-width="8" stroke-opacity="0"/>\n\t<line id="function random() { [native code] }:Bond:27-26" class="event" x1="50" y1="66" x2="35" y2="57" stroke-width="8" stroke-opacity="0"/>\n\t<line id="function random() { [native code] }:Bond:28-18" class="event" x1="94" y1="57" x2="79" y2="66" stroke-width="8" stroke-opacity="0"/>\n\t<line id="function random() { [native code] }:Bond:1-0" class="event" x1="183" y1="57" x2="198" y2="66" stroke-width="8" stroke-opacity="0"/>\n\t<line id="function random() { [native code] }:Bond:2-1" class="event" x1="168" y1="66" x2="183" y2="57" stroke-width="8" stroke-opacity="0"/>\n\t<line id="function random() { [native code] }:Bond:3-2" class="event" x1="153" y1="57" x2="168" y2="66" stroke-width="8" stroke-opacity="0"/>\n\t<line id="function random() { [native code] }:Bond:4-3" class="event" x1="139" y1="66" x2="153" y2="57" stroke-width="8" stroke-opacity="0"/>\n\t<line id="function random() { [native code] }:Bond:5-4" class="event" x1="124" y1="57" x2="139" y2="66" stroke-width="8" stroke-opacity="0"/>\n\t<line id="function random() { [native code] }:Bond:7-5" class="event" x1="109" y1="66" x2="124" y2="57" stroke-width="8" stroke-opacity="0"/>\n\t<line id="function random() { [native code] }:Bond:9-8" class="event" x1="94" y1="91" x2="109" y2="83" stroke-width="8" stroke-opacity="0"/>\n\t<line id="function random() { [native code] }:Bond:11-10" class="event" x1="67" y1="94" x2="79" y2="83" stroke-width="8" stroke-opacity="0"/>\n\t<line id="function random() { [native code] }:Bond:12-11" class="event" x1="74" y1="110" x2="67" y2="94" stroke-width="8" stroke-opacity="0"/>\n\t<line id="function random() { [native code] }:Bond:13-9" class="event" x1="91" y1="108" x2="94" y2="91" stroke-width="8" stroke-opacity="0"/>\n\t<line id="function random() { [native code] }:Bond:14-13" class="event" x1="101" y1="122" x2="91" y2="108" stroke-width="8" stroke-opacity="0"/>\n\t<line id="function random() { [native code] }:Bond:16-15" class="event" x1="77" y1="139" x2="94" y2="138" stroke-width="8" stroke-opacity="0"/>\n\t<line id="function random() { [native code] }:Bond:17-12" class="event" x1="67" y1="125" x2="74" y2="110" stroke-width="8" stroke-opacity="0"/>\n\t<line id="function random() { [native code] }:Bond:18-10" class="event" x1="79" y1="66" x2="79" y2="83" stroke-width="8" stroke-opacity="0"/>\n\t<line id="function random() { [native code] }:Bond:19-18" class="event" x1="65" y1="57" x2="79" y2="66" stroke-width="8" stroke-opacity="0"/>\n\t<line id="function random() { [native code] }:Bond:21-20" class="event" x1="50" y1="32" x2="65" y2="40" stroke-width="8" stroke-opacity="0"/>\n\t<line id="function random() { [native code] }:Bond:23-22" class="event" x1="20" y1="32" x2="35" y2="40" stroke-width="8" stroke-opacity="0"/>\n\t<line id="function random() { [native code] }:Bond:24-23" class="event" x1="20" y1="14" x2="20" y2="32" stroke-width="8" stroke-opacity="0"/>\n\t<line id="function random() { [native code] }:Bond:25-23" class="event" x1="5" y1="40" x2="20" y2="32" stroke-width="8" stroke-opacity="0"/>\n\t<line id="function random() { [native code] }:Bond:26-22" class="event" x1="35" y1="57" x2="35" y2="40" stroke-width="8" stroke-opacity="0"/>\n\t<line id="function random() { [native code] }:Bond:27-19" class="event" x1="50" y1="66" x2="65" y2="57" stroke-width="8" stroke-opacity="0"/>\n\t<line id="function random() { [native code] }:Bond:28-7" class="event" x1="94" y1="57" x2="109" y2="66" stroke-width="8" stroke-opacity="0"/>\n\t<circle id="function random() { [native code] }:Atom:0" class="event" cx="198" cy="66" r="8" fill-opacity="0"/>\n\t<circle id="function random() { [native code] }:Atom:1" class="event" cx="183" cy="57" r="8" fill-opacity="0"/>\n\t<circle id="function random() { [native code] }:Atom:2" class="event" cx="168" cy="66" r="8" fill-opacity="0"/>\n\t<circle id="function random() { [native code] }:Atom:3" class="event" cx="153" cy="57" r="8" fill-opacity="0"/>\n\t<circle id="function random() { [native code] }:Atom:4" class="event" cx="139" cy="66" r="8" fill-opacity="0"/>\n\t<circle id="function random() { [native code] }:Atom:5" class="event" cx="124" cy="57" r="8" fill-opacity="0"/>\n\t<circle id="function random() { [native code] }:Atom:6" class="event" cx="124" cy="40" r="8" fill-opacity="0"/>\n\t<circle id="function random() { [native code] }:Atom:7" class="event" cx="109" cy="66" r="8" fill-opacity="0"/>\n\t<circle id="function random() { [native code] }:Atom:8" class="event" cx="109" cy="83" r="8" fill-opacity="0"/>\n\t<circle id="function random() { [native code] }:Atom:9" class="event" cx="94" cy="91" r="8" fill-opacity="0"/>\n\t<circle id="function random() { [native code] }:Atom:10" class="event" cx="79" cy="83" r="8" fill-opacity="0"/>\n\t<circle id="function random() { [native code] }:Atom:11" class="event" cx="67" cy="94" r="8" fill-opacity="0"/>\n\t<circle id="function random() { [native code] }:Atom:12" class="event" cx="74" cy="110" r="8" fill-opacity="0"/>\n\t<circle id="function random() { [native code] }:Atom:13" class="event" cx="91" cy="108" r="8" fill-opacity="0"/>\n\t<circle id="function random() { [native code] }:Atom:14" class="event" cx="101" cy="122" r="8" fill-opacity="0"/>\n\t<circle id="function random() { [native code] }:Atom:15" class="event" cx="94" cy="138" r="8" fill-opacity="0"/>\n\t<circle id="function random() { [native code] }:Atom:16" class="event" cx="77" cy="139" r="8" fill-opacity="0"/>\n\t<circle id="function random() { [native code] }:Atom:17" class="event" cx="67" cy="125" r="8" fill-opacity="0"/>\n\t<circle id="function random() { [native code] }:Atom:18" class="event" cx="79" cy="66" r="8" fill-opacity="0"/>\n\t<circle id="function random() { [native code] }:Atom:19" class="event" cx="65" cy="57" r="8" fill-opacity="0"/>\n\t<circle id="function random() { [native code] }:Atom:20" class="event" cx="65" cy="40" r="8" fill-opacity="0"/>\n\t<circle id="function random() { [native code] }:Atom:21" class="event" cx="50" cy="32" r="8" fill-opacity="0"/>\n\t<circle id="function random() { [native code] }:Atom:22" class="event" cx="35" cy="40" r="8" fill-opacity="0"/>\n\t<circle id="function random() { [native code] }:Atom:23" class="event" cx="20" cy="32" r="8" fill-opacity="0"/>\n\t<circle id="function random() { [native code] }:Atom:24" class="event" cx="20" cy="14" r="8" fill-opacity="0"/>\n\t<circle id="function random() { [native code] }:Atom:25" class="event" cx="5" cy="40" r="8" fill-opacity="0"/>\n\t<circle id="function random() { [native code] }:Atom:26" class="event" cx="35" cy="57" r="8" fill-opacity="0"/>\n\t<circle id="function random() { [native code] }:Atom:27" class="event" cx="50" cy="66" r="8" fill-opacity="0"/>\n\t<circle id="function random() { [native code] }:Atom:28" class="event" cx="94" cy="57" r="8" fill-opacity="0"/>\n</svg>