<svg id="function random() { [native code] }" xmlns="http://www.w3.org/2000/svg" version="1.1" width="200px" height="150px" viewBox="0 0 200 150">\n\t<style> #function random() { [native code] } {pointer-events:none; }  #function random() { [native code] } .event  { pointer-events:all;}  </style>\n\t<text x="173" y="39" font-family=" Helvetica" font-weight="900" font-size="14" fill="rgb(48,80,248)">N</text>\n\t<text x="173" y="25" font-family=" Helvetica" font-weight="900" font-size="14" fill="rgb(48,80,248)">H</text>\n\t<text x="114" y="50" font-family=" Helvetica" font-weight="900" font-size="14" fill="rgb(48,80,248)">N</text>\n\t<text x="114" y="64" font-family=" Helvetica" font-weight="900" font-size="14" fill="rgb(48,80,248)">H</text>\n\t<text x="94" y="16" font-family=" Helvetica" font-weight="900" font-size="14" fill="rgb(255,13,13)">O</text>\n\t<text x="19" y="88" font-family=" Helvetica" font-weight="900" font-size="14" fill="rgb(48,80,248)">N</text>\n\t<text x="9" y="88" font-family=" Helvetica" font-weight="900" font-size="14" fill="rgb(48,80,248)">H</text>\n\t<text x="55" y="39" font-family=" Helvetica" font-weight="900" font-size="14" fill="rgb(48,80,248)">N</text>\n\t<line x1="101" y1="36" x2="101" y2="19" style="stroke:rgb(0,0,0);stroke-width:1"/>\n\t<line x1="98" y1="36" x2="98" y2="19" style="stroke:rgb(0,0,0);stroke-width:1"/>\n\t<line x1="80" y1="69" x2="80" y2="46" style="stroke:rgb(0,0,0);stroke-width:1"/>\n\t<line x1="77" y1="66" x2="77" y2="49" style="stroke:rgb(0,0,0);stroke-width:1"/>\n\t<line x1="41" y1="69" x2="60" y2="80" style="stroke:rgb(0,0,0);stroke-width:1"/>\n\t<line x1="42" y1="73" x2="56" y2="82" style="stroke:rgb(0,0,0);stroke-width:1"/>\n\t<line x1="24" y1="125" x2="33" y2="105" style="stroke:rgb(0,0,0);stroke-width:1"/>\n\t<line x1="28" y1="124" x2="35" y2="108" style="stroke:rgb(0,0,0);stroke-width:1"/>\n\t<line x1="60" y1="141" x2="37" y2="143" style="stroke:rgb(0,0,0);stroke-width:1"/>\n\t<line x1="57" y1="138" x2="39" y2="140" style="stroke:rgb(0,0,0);stroke-width:1"/>\n\t<line x1="56" y1="102" x2="69" y2="120" style="stroke:rgb(0,0,0);stroke-width:1"/>\n\t<line x1="54" y1="106" x2="65" y2="121" style="stroke:rgb(0,0,0);stroke-width:1"/>\n\t<line x1="41" y1="46" x2="54" y2="38" style="stroke:rgb(0,0,0);stroke-width:1"/>\n\t<line x1="45" y1="48" x2="55" y2="42" style="stroke:rgb(0,0,0);stroke-width:1"/>\n\t<line x1="184" y1="38" x2="197" y2="46" style="stroke:rgb(0,0,0);stroke-width:1"/>\n\t<line x1="158" y1="46" x2="172" y2="38" style="stroke:rgb(0,0,0);stroke-width:1"/>\n\t<line x1="139" y1="35" x2="158" y2="46" style="stroke:rgb(0,0,0);stroke-width:1"/>\n\t<line x1="125" y1="43" x2="139" y2="35" style="stroke:rgb(0,0,0);stroke-width:1"/>\n\t<line x1="100" y1="35" x2="113" y2="43" style="stroke:rgb(0,0,0);stroke-width:1"/>\n\t<line x1="80" y1="46" x2="100" y2="35" style="stroke:rgb(0,0,0);stroke-width:1"/>\n\t<line x1="60" y1="80" x2="80" y2="69" style="stroke:rgb(0,0,0);stroke-width:1"/>\n\t<line x1="30" y1="78" x2="41" y2="69" style="stroke:rgb(0,0,0);stroke-width:1"/>\n\t<line x1="33" y1="105" x2="27" y2="91" style="stroke:rgb(0,0,0);stroke-width:1"/>\n\t<line x1="37" y1="143" x2="24" y2="125" style="stroke:rgb(0,0,0);stroke-width:1"/>\n\t<line x1="69" y1="120" x2="60" y2="141" style="stroke:rgb(0,0,0);stroke-width:1"/>\n\t<line x1="56" y1="102" x2="33" y2="105" style="stroke:rgb(0,0,0);stroke-width:1"/>\n\t<line x1="56" y1="102" x2="60" y2="80" style="stroke:rgb(0,0,0);stroke-width:1"/>\n\t<line x1="41" y1="46" x2="41" y2="69" style="stroke:rgb(0,0,0);stroke-width:1"/>\n\t<line x1="21" y1="35" x2="41" y2="46" style="stroke:rgb(0,0,0);stroke-width:1"/>\n\t<line x1="21" y1="12" x2="21" y2="35" style="stroke:rgb(0,0,0);stroke-width:1"/>\n\t<line x1="2" y1="46" x2="21" y2="35" style="stroke:rgb(0,0,0);stroke-width:1"/>\n\t<line x1="66" y1="38" x2="80" y2="46" style="stroke:rgb(0,0,0);stroke-width:1"/>\n\t<line id="function random() { [native code] }:Bond:6-5" class="event" x1="100" y1="12" x2="100" y2="35" stroke-width="8" stroke-opacity="0"/>\n\t<line id="function random() { [native code] }:Bond:8-7" class="event" x1="80" y1="69" x2="80" y2="46" stroke-width="8" stroke-opacity="0"/>\n\t<line id="function random() { [native code] }:Bond:10-9" class="event" x1="41" y1="69" x2="60" y2="80" stroke-width="8" stroke-opacity="0"/>\n\t<line id="function random() { [native code] }:Bond:13-12" class="event" x1="24" y1="125" x2="33" y2="105" stroke-width="8" stroke-opacity="0"/>\n\t<line id="function random() { [native code] }:Bond:15-14" class="event" x1="60" y1="141" x2="37" y2="143" stroke-width="8" stroke-opacity="0"/>\n\t<line id="function random() { [native code] }:Bond:17-16" class="event" x1="56" y1="102" x2="69" y2="120" stroke-width="8" stroke-opacity="0"/>\n\t<line id="function random() { [native code] }:Bond:22-18" class="event" x1="60" y1="35" x2="41" y2="46" stroke-width="8" stroke-opacity="0"/>\n\t<line id="function random() { [native code] }:Bond:1-0" class="event" x1="178" y1="35" x2="197" y2="46" stroke-width="8" stroke-opacity="0"/>\n\t<line id="function random() { [native code] }:Bond:2-1" class="event" x1="158" y1="46" x2="178" y2="35" stroke-width="8" stroke-opacity="0"/>\n\t<line id="function random() { [native code] }:Bond:3-2" class="event" x1="139" y1="35" x2="158" y2="46" stroke-width="8" stroke-opacity="0"/>\n\t<line id="function random() { [native code] }:Bond:4-3" class="event" x1="119" y1="46" x2="139" y2="35" stroke-width="8" stroke-opacity="0"/>\n\t<line id="function random() { [native code] }:Bond:5-4" class="event" x1="100" y1="35" x2="119" y2="46" stroke-width="8" stroke-opacity="0"/>\n\t<line id="function random() { [native code] }:Bond:7-5" class="event" x1="80" y1="46" x2="100" y2="35" stroke-width="8" stroke-opacity="0"/>\n\t<line id="function random() { [native code] }:Bond:9-8" class="event" x1="60" y1="80" x2="80" y2="69" stroke-width="8" stroke-opacity="0"/>\n\t<line id="function random() { [native code] }:Bond:11-10" class="event" x1="24" y1="84" x2="41" y2="69" stroke-width="8" stroke-opacity="0"/>\n\t<line id="function random() { [native code] }:Bond:12-11" class="event" x1="33" y1="105" x2="24" y2="84" stroke-width="8" stroke-opacity="0"/>\n\t<line id="function random() { [native code] }:Bond:14-13" class="event" x1="37" y1="143" x2="24" y2="125" stroke-width="8" stroke-opacity="0"/>\n\t<line id="function random() { [native code] }:Bond:16-15" class="event" x1="69" y1="120" x2="60" y2="141" stroke-width="8" stroke-opacity="0"/>\n\t<line id="function random() { [native code] }:Bond:17-12" class="event" x1="56" y1="102" x2="33" y2="105" stroke-width="8" stroke-opacity="0"/>\n\t<line id="function random() { [native code] }:Bond:17-9" class="event" x1="56" y1="102" x2="60" y2="80" stroke-width="8" stroke-opacity="0"/>\n\t<line id="function random() { [native code] }:Bond:18-10" class="event" x1="41" y1="46" x2="41" y2="69" stroke-width="8" stroke-opacity="0"/>\n\t<line id="function random() { [native code] }:Bond:19-18" class="event" x1="21" y1="35" x2="41" y2="46" stroke-width="8" stroke-opacity="0"/>\n\t<line id="function random() { [native code] }:Bond:20-19" class="event" x1="21" y1="12" x2="21" y2="35" stroke-width="8" stroke-opacity="0"/>\n\t<line id="function random() { [native code] }:Bond:21-19" class="event" x1="2" y1="46" x2="21" y2="35" stroke-width="8" stroke-opacity="0"/>\n\t<line id="function random() { [native code] }:Bond:22-7" class="event" x1="60" y1="35" x2="80" y2="46" stroke-width="8" stroke-opacity="0"/>\n\t<circle id="function random() { [native code] }:Atom:0" class="event" cx="197" cy="46" r="8" fill-opacity="0"/>\n\t<circle id="function random() { [native code] }:Atom:1" class="event" cx="178" cy="35" r="8" fill-opacity="0"/>\n\t<circle id="function random() { [native code] }:Atom:2" class="event" cx="158" cy="46" r="8" fill-opacity="0"/>\n\t<circle id="function random() { [native code] }:Atom:3" class="event" cx="139" cy="35" r="8" fill-opacity="0"/>\n\t<circle id="function random() { [native code] }:Atom:4" class="event" cx="119" cy="46" r="8" fill-opacity="0"/>\n\t<circle id="function random() { [native code] }:Atom:5" class="event" cx="100" cy="35" r="8" fill-opacity="0"/>\n\t<circle id="function random() { [native code] }:Atom:6" class="event" cx="100" cy="12" r="8" fill-opacity="0"/>\n\t<circle id="function random() { [native code] }:Atom:7" class="event" cx="80" cy="46" r="8" fill-opacity="0"/>\n\t<circle id="function random() { [native code] }:Atom:8" class="event" cx="80" cy="69" r="8" fill-opacity="0"/>\n\t<circle id="function random() { [native code] }:Atom:9" class="event" cx="60" cy="80" r="8" fill-opacity="0"/>\n\t<circle id="function random() { [native code] }:Atom:10" class="event" cx="41" cy="69" r="8" fill-opacity="0"/>\n\t<circle id="function random() { [native code] }:Atom:11" class="event" cx="24" cy="84" r="8" fill-opacity="0"/>\n\t<circle id="function random() { [native code] }:Atom:12" class="event" cx="33" cy="105" r="8" fill-opacity="0"/>\n\t<circle id="function random() { [native code] }:Atom:13" class="event" cx="24" cy="125" r="8" fill-opacity="0"/>\n\t<circle id="function random() { [native code] }:Atom:14" class="event" cx="37" cy="143" r="8" fill-opacity="0"/>\n\t<circle id="function random() { [native code] }:Atom:15" class="event" cx="60" cy="141" r="8" fill-opacity="0"/>\n\t<circle id="function random() { [native code] }:Atom:16" class="event" cx="69" cy="120" r="8" fill-opacity="0"/>\n\t<circle id="function random() { [native code] }:Atom:17" class="event" cx="56" cy="102" r="8" fill-opacity="0"/>\n\t<circle id="function random() { [native code] }:Atom:18" class="event" cx="41" cy="46" r="8" fill-opacity="0"/>\n\t<circle id="function random() { [native code] }:Atom:19" class="event" cx="21" cy="35" r="8" fill-opacity="0"/>\n\t<circle id="function random() { [native code] }:Atom:20" class="event" cx="21" cy="12" r="8" fill-opacity="0"/>\n\t<circle id="function random() { [native code] }:Atom:21" class="event" cx="2" cy="46" r="8" fill-opacity="0"/>\n\t<circle id="function random() { [native code] }:Atom:22" class="event" cx="60" cy="35" r="8" fill-opacity="0"/>\n</svg>