<svg id="function random() { [native code] }" xmlns="http://www.w3.org/2000/svg" version="1.1" width="200px" height="150px" viewBox="0 0 200 150">\n\t<style> #function random() { [native code] } {pointer-events:none; }  #function random() { [native code] } .event  { pointer-events:all;}  </style>\n\t<text x="176" y="50" font-family=" Helvetica" font-weight="900" font-size="11" fill="rgb(48,80,248)">N</text>\n\t<text x="192" y="53" font-family=" Helvetica" font-weight="900" font-size="7" fill="rgb(48,80,248)">2</text>\n\t<text x="184" y="50" font-family=" Helvetica" font-weight="900" font-size="11" fill="rgb(48,80,248)">H</text>\n\t<text x="129" y="59" font-family=" Helvetica" font-weight="900" font-size="11" fill="rgb(48,80,248)">N</text>\n\t<text x="129" y="70" font-family=" Helvetica" font-weight="900" font-size="11" fill="rgb(48,80,248)">H</text>\n\t<text x="113" y="32" font-family=" Helvetica" font-weight="900" font-size="11" fill="rgb(255,13,13)">O</text>\n\t<text x="53" y="89" font-family=" Helvetica" font-weight="900" font-size="11" fill="rgb(48,80,248)">N</text>\n\t<text x="45" y="89" font-family=" Helvetica" font-weight="900" font-size="11" fill="rgb(48,80,248)">H</text>\n\t<text x="2" y="23" font-family=" Helvetica" font-weight="900" font-size="11" fill="rgb(31,240,31)">Cl</text>\n\t<text x="4" y="59" font-family=" Helvetica" font-weight="900" font-size="11" fill="rgb(144,224,80)">F</text>\n\t<text x="82" y="50" font-family=" Helvetica" font-weight="900" font-size="11" fill="rgb(48,80,248)">N</text>\n\t<line x1="119" y1="48" x2="119" y2="34" style="stroke:rgb(0,0,0);stroke-width:1"/>\n\t<line x1="116" y1="48" x2="116" y2="34" style="stroke:rgb(0,0,0);stroke-width:1"/>\n\t<line x1="102" y1="74" x2="102" y2="56" style="stroke:rgb(0,0,0);stroke-width:1"/>\n\t<line x1="99" y1="72" x2="99" y2="58" style="stroke:rgb(0,0,0);stroke-width:1"/>\n\t<line x1="70" y1="74" x2="86" y2="83" style="stroke:rgb(0,0,0);stroke-width:1"/>\n\t<line x1="71" y1="78" x2="83" y2="85" style="stroke:rgb(0,0,0);stroke-width:1"/>\n\t<line x1="57" y1="120" x2="64" y2="103" style="stroke:rgb(0,0,0);stroke-width:1"/>\n\t<line x1="60" y1="119" x2="66" y2="106" style="stroke:rgb(0,0,0);stroke-width:1"/>\n\t<line x1="86" y1="132" x2="68" y2="134" style="stroke:rgb(0,0,0);stroke-width:1"/>\n\t<line x1="83" y1="130" x2="69" y2="131" style="stroke:rgb(0,0,0);stroke-width:1"/>\n\t<line x1="82" y1="101" x2="93" y2="116" style="stroke:rgb(0,0,0);stroke-width:1"/>\n\t<line x1="81" y1="104" x2="90" y2="116" style="stroke:rgb(0,0,0);stroke-width:1"/>\n\t<line x1="55" y1="29" x2="55" y2="47" style="stroke:rgb(0,0,0);stroke-width:1"/>\n\t<line x1="52" y1="31" x2="52" y2="45" style="stroke:rgb(0,0,0);stroke-width:1"/>\n\t<line x1="23" y1="29" x2="39" y2="20" style="stroke:rgb(0,0,0);stroke-width:1"/>\n\t<line x1="26" y1="30" x2="39" y2="23" style="stroke:rgb(0,0,0);stroke-width:1"/>\n\t<line x1="39" y1="56" x2="23" y2="47" style="stroke:rgb(0,0,0);stroke-width:1"/>\n\t<line x1="39" y1="53" x2="26" y2="46" style="stroke:rgb(0,0,0);stroke-width:1"/>\n\t<line x1="70" y1="56" x2="81" y2="50" style="stroke:rgb(0,0,0);stroke-width:1"/>\n\t<line x1="73" y1="58" x2="82" y2="52" style="stroke:rgb(0,0,0);stroke-width:1"/>\n\t<line x1="165" y1="56" x2="175" y2="50" style="stroke:rgb(0,0,0);stroke-width:1"/>\n\t<line x1="149" y1="47" x2="165" y2="56" style="stroke:rgb(0,0,0);stroke-width:1"/>\n\t<line x1="138" y1="53" x2="149" y2="47" style="stroke:rgb(0,0,0);stroke-width:1"/>\n\t<line x1="117" y1="47" x2="128" y2="53" style="stroke:rgb(0,0,0);stroke-width:1"/>\n\t<line x1="102" y1="56" x2="117" y2="47" style="stroke:rgb(0,0,0);stroke-width:1"/>\n\t<line x1="86" y1="83" x2="102" y2="74" style="stroke:rgb(0,0,0);stroke-width:1"/>\n\t<line x1="62" y1="82" x2="70" y2="74" style="stroke:rgb(0,0,0);stroke-width:1"/>\n\t<line x1="64" y1="103" x2="59" y2="91" style="stroke:rgb(0,0,0);stroke-width:1"/>\n\t<line x1="68" y1="134" x2="57" y2="120" style="stroke:rgb(0,0,0);stroke-width:1"/>\n\t<line x1="93" y1="116" x2="86" y2="132" style="stroke:rgb(0,0,0);stroke-width:1"/>\n\t<line x1="82" y1="101" x2="64" y2="103" style="stroke:rgb(0,0,0);stroke-width:1"/>\n\t<line x1="82" y1="101" x2="86" y2="83" style="stroke:rgb(0,0,0);stroke-width:1"/>\n\t<line x1="70" y1="56" x2="70" y2="74" style="stroke:rgb(0,0,0);stroke-width:1"/>\n\t<line x1="55" y1="47" x2="70" y2="56" style="stroke:rgb(0,0,0);stroke-width:1"/>\n\t<line x1="39" y1="20" x2="55" y2="29" style="stroke:rgb(0,0,0);stroke-width:1"/>\n\t<line x1="14" y1="23" x2="23" y2="29" style="stroke:rgb(0,0,0);stroke-width:1"/>\n\t<line x1="23" y1="47" x2="23" y2="29" style="stroke:rgb(0,0,0);stroke-width:1"/>\n\t<line x1="12" y1="54" x2="23" y2="47" style="stroke:rgb(0,0,0);stroke-width:1"/>\n\t<line x1="39" y1="56" x2="55" y2="47" style="stroke:rgb(0,0,0);stroke-width:1"/>\n\t<line x1="91" y1="50" x2="102" y2="56" style="stroke:rgb(0,0,0);stroke-width:1"/>\n\t<line id="function random() { [native code] }:Bond:5-4" class="event" x1="117" y1="29" x2="117" y2="47" stroke-width="8" stroke-opacity="0"/>\n\t<line id="function random() { [native code] }:Bond:7-6" class="event" x1="102" y1="74" x2="102" y2="56" stroke-width="8" stroke-opacity="0"/>\n\t<line id="function random() { [native code] }:Bond:9-8" class="event" x1="70" y1="74" x2="86" y2="83" stroke-width="8" stroke-opacity="0"/>\n\t<line id="function random() { [native code] }:Bond:12-11" class="event" x1="57" y1="120" x2="64" y2="103" stroke-width="8" stroke-opacity="0"/>\n\t<line id="function random() { [native code] }:Bond:14-13" class="event" x1="86" y1="132" x2="68" y2="134" stroke-width="8" stroke-opacity="0"/>\n\t<line id="function random() { [native code] }:Bond:16-15" class="event" x1="82" y1="101" x2="93" y2="116" stroke-width="8" stroke-opacity="0"/>\n\t<line id="function random() { [native code] }:Bond:19-18" class="event" x1="55" y1="29" x2="55" y2="47" stroke-width="8" stroke-opacity="0"/>\n\t<line id="function random() { [native code] }:Bond:21-20" class="event" x1="23" y1="29" x2="39" y2="20" stroke-width="8" stroke-opacity="0"/>\n\t<line id="function random() { [native code] }:Bond:25-23" class="event" x1="39" y1="56" x2="23" y2="47" stroke-width="8" stroke-opacity="0"/>\n\t<line id="function random() { [native code] }:Bond:26-17" class="event" x1="86" y1="47" x2="70" y2="56" stroke-width="8" stroke-opacity="0"/>\n\t<line id="function random() { [native code] }:Bond:1-0" class="event" x1="165" y1="56" x2="180" y2="47" stroke-width="8" stroke-opacity="0"/>\n\t<line id="function random() { [native code] }:Bond:2-1" class="event" x1="149" y1="47" x2="165" y2="56" stroke-width="8" stroke-opacity="0"/>\n\t<line id="function random() { [native code] }:Bond:3-2" class="event" x1="133" y1="56" x2="149" y2="47" stroke-width="8" stroke-opacity="0"/>\n\t<line id="function random() { [native code] }:Bond:4-3" class="event" x1="117" y1="47" x2="133" y2="56" stroke-width="8" stroke-opacity="0"/>\n\t<line id="function random() { [native code] }:Bond:6-4" class="event" x1="102" y1="56" x2="117" y2="47" stroke-width="8" stroke-opacity="0"/>\n\t<line id="function random() { [native code] }:Bond:8-7" class="event" x1="86" y1="83" x2="102" y2="74" stroke-width="8" stroke-opacity="0"/>\n\t<line id="function random() { [native code] }:Bond:10-9" class="event" x1="57" y1="86" x2="70" y2="74" stroke-width="8" stroke-opacity="0"/>\n\t<line id="function random() { [native code] }:Bond:11-10" class="event" x1="64" y1="103" x2="57" y2="86" stroke-width="8" stroke-opacity="0"/>\n\t<line id="function random() { [native code] }:Bond:13-12" class="event" x1="68" y1="134" x2="57" y2="120" stroke-width="8" stroke-opacity="0"/>\n\t<line id="function random() { [native code] }:Bond:15-14" class="event" x1="93" y1="116" x2="86" y2="132" stroke-width="8" stroke-opacity="0"/>\n\t<line id="function random() { [native code] }:Bond:16-11" class="event" x1="82" y1="101" x2="64" y2="103" stroke-width="8" stroke-opacity="0"/>\n\t<line id="function random() { [native code] }:Bond:16-8" class="event" x1="82" y1="101" x2="86" y2="83" stroke-width="8" stroke-opacity="0"/>\n\t<line id="function random() { [native code] }:Bond:17-9" class="event" x1="70" y1="56" x2="70" y2="74" stroke-width="8" stroke-opacity="0"/>\n\t<line id="function random() { [native code] }:Bond:18-17" class="event" x1="55" y1="47" x2="70" y2="56" stroke-width="8" stroke-opacity="0"/>\n\t<line id="function random() { [native code] }:Bond:20-19" class="event" x1="39" y1="20" x2="55" y2="29" stroke-width="8" stroke-opacity="0"/>\n\t<line id="function random() { [native code] }:Bond:22-21" class="event" x1="7" y1="20" x2="23" y2="29" stroke-width="8" stroke-opacity="0"/>\n\t<line id="function random() { [native code] }:Bond:23-21" class="event" x1="23" y1="47" x2="23" y2="29" stroke-width="8" stroke-opacity="0"/>\n\t<line id="function random() { [native code] }:Bond:24-23" class="event" x1="7" y1="56" x2="23" y2="47" stroke-width="8" stroke-opacity="0"/>\n\t<line id="function random() { [native code] }:Bond:25-18" class="event" x1="39" y1="56" x2="55" y2="47" stroke-width="8" stroke-opacity="0"/>\n\t<line id="function random() { [native code] }:Bond:26-6" class="event" x1="86" y1="47" x2="102" y2="56" stroke-width="8" stroke-opacity="0"/>\n\t<circle id="function random() { [native code] }:Atom:0" class="event" cx="180" cy="47" r="8" fill-opacity="0"/>\n\t<circle id="function random() { [native code] }:Atom:1" class="event" cx="165" cy="56" r="8" fill-opacity="0"/>\n\t<circle id="function random() { [native code] }:Atom:2" class="event" cx="149" cy="47" r="8" fill-opacity="0"/>\n\t<circle id="function random() { [native code] }:Atom:3" class="event" cx="133" cy="56" r="8" fill-opacity="0"/>\n\t<circle id="function random() { [native code] }:Atom:4" class="event" cx="117" cy="47" r="8" fill-opacity="0"/>\n\t<circle id="function random() { [native code] }:Atom:5" class="event" cx="117" cy="29" r="8" fill-opacity="0"/>\n\t<circle id="function random() { [native code] }:Atom:6" class="event" cx="102" cy="56" r="8" fill-opacity="0"/>\n\t<circle id="function random() { [native code] }:Atom:7" class="event" cx="102" cy="74" r="8" fill-opacity="0"/>\n\t<circle id="function random() { [native code] }:Atom:8" class="event" cx="86" cy="83" r="8" fill-opacity="0"/>\n\t<circle id="function random() { [native code] }:Atom:9" class="event" cx="70" cy="74" r="8" fill-opacity="0"/>\n\t<circle id="function random() { [native code] }:Atom:10" class="event" cx="57" cy="86" r="8" fill-opacity="0"/>\n\t<circle id="function random() { [native code] }:Atom:11" class="event" cx="64" cy="103" r="8" fill-opacity="0"/>\n\t<circle id="function random() { [native code] }:Atom:12" class="event" cx="57" cy="120" r="8" fill-opacity="0"/>\n\t<circle id="function random() { [native code] }:Atom:13" class="event" cx="68" cy="134" r="8" fill-opacity="0"/>\n\t<circle id="function random() { [native code] }:Atom:14" class="event" cx="86" cy="132" r="8" fill-opacity="0"/>\n\t<circle id="function random() { [native code] }:Atom:15" class="event" cx="93" cy="116" r="8" fill-opacity="0"/>\n\t<circle id="function random() { [native code] }:Atom:16" class="event" cx="82" cy="101" r="8" fill-opacity="0"/>\n\t<circle id="function random() { [native code] }:Atom:17" class="event" cx="70" cy="56" r="8" fill-opacity="0"/>\n\t<circle id="function random() { [native code] }:Atom:18" class="event" cx="55" cy="47" r="8" fill-opacity="0"/>\n\t<circle id="function random() { [native code] }:Atom:19" class="event" cx="55" cy="29" r="8" fill-opacity="0"/>\n\t<circle id="function random() { [native code] }:Atom:20" class="event" cx="39" cy="20" r="8" fill-opacity="0"/>\n\t<circle id="function random() { [native code] }:Atom:21" class="event" cx="23" cy="29" r="8" fill-opacity="0"/>\n\t<circle id="function random() { [native code] }:Atom:22" class="event" cx="7" cy="20" r="8" fill-opacity="0"/>\n\t<circle id="function random() { [native code] }:Atom:23" class="event" cx="23" cy="47" r="8" fill-opacity="0"/>\n\t<circle id="function random() { [native code] }:Atom:24" class="event" cx="7" cy="56" r="8" fill-opacity="0"/>\n\t<circle id="function random() { [native code] }:Atom:25" class="event" cx="39" cy="56" r="8" fill-opacity="0"/>\n\t<circle id="function random() { [native code] }:Atom:26" class="event" cx="86" cy="47" r="8" fill-opacity="0"/>\n</svg>