<svg id="function random() { [native code] }" xmlns="http://www.w3.org/2000/svg" version="1.1" width="200px" height="150px" viewBox="0 0 200 150">\n\t<style> #function random() { [native code] } {pointer-events:none; }  #function random() { [native code] } .event  { pointer-events:all;}  </style>\n\t<text x="126" y="112" font-family=" Helvetica" font-weight="900" font-size="11" fill="rgb(255,13,13)">O</text>\n\t<text x="186" y="59" font-family=" Helvetica" font-weight="900" font-size="11" fill="rgb(31,240,31)">Cl</text>\n\t<text x="186" y="23" font-family=" Helvetica" font-weight="900" font-size="11" fill="rgb(31,240,31)">Cl</text>\n\t<text x="126" y="77" font-family=" Helvetica" font-weight="900" font-size="11" fill="rgb(48,80,248)">N</text>\n\t<text x="107" y="32" font-family=" Helvetica" font-weight="900" font-size="11" fill="rgb(48,80,248)">N</text>\n\t<text x="115" y="32" font-family=" Helvetica" font-weight="900" font-size="11" fill="rgb(48,80,248)">H</text>\n\t<text x="95" y="112" font-family=" Helvetica" font-weight="900" font-size="11" fill="rgb(48,80,248)">N</text>\n\t<text x="95" y="123" font-family=" Helvetica" font-weight="900" font-size="11" fill="rgb(48,80,248)">H</text>\n\t<text x="33" y="112" font-family=" Helvetica" font-weight="900" font-size="11" fill="rgb(48,80,248)">N</text>\n\t<text x="2" y="130" font-family=" Helvetica" font-weight="900" font-size="11" fill="rgb(255,13,13)">O</text>\n\t<line x1="113" y1="101" x2="124" y2="107" style="stroke:rgb(0,0,0);stroke-width:1"/>\n\t<line x1="114" y1="99" x2="125" y2="105" style="stroke:rgb(0,0,0);stroke-width:1"/>\n\t<line x1="99" y1="74" x2="114" y2="82" style="stroke:rgb(0,0,0);stroke-width:1"/>\n\t<line x1="102" y1="72" x2="114" y2="79" style="stroke:rgb(0,0,0);stroke-width:1"/>\n\t<line x1="114" y1="47" x2="99" y2="56" style="stroke:rgb(0,0,0);stroke-width:1"/>\n\t<line x1="111" y1="46" x2="100" y2="52" style="stroke:rgb(0,0,0);stroke-width:1"/>\n\t<line x1="161" y1="56" x2="145" y2="47" style="stroke:rgb(0,0,0);stroke-width:1"/>\n\t<line x1="160" y1="52" x2="148" y2="45" style="stroke:rgb(0,0,0);stroke-width:1"/>\n\t<line x1="176" y1="29" x2="176" y2="47" style="stroke:rgb(0,0,0);stroke-width:1"/>\n\t<line x1="173" y1="31" x2="173" y2="45" style="stroke:rgb(0,0,0);stroke-width:1"/>\n\t<line x1="145" y1="29" x2="161" y2="20" style="stroke:rgb(0,0,0);stroke-width:1"/>\n\t<line x1="148" y1="30" x2="160" y2="23" style="stroke:rgb(0,0,0);stroke-width:1"/>\n\t<line x1="130" y1="56" x2="130" y2="69" style="stroke:rgb(0,0,0);stroke-width:1"/>\n\t<line x1="127" y1="58" x2="127" y2="69" style="stroke:rgb(0,0,0);stroke-width:1"/>\n\t<line x1="83" y1="13" x2="93" y2="28" style="stroke:rgb(0,0,0);stroke-width:1"/>\n\t<line x1="82" y1="16" x2="90" y2="28" style="stroke:rgb(0,0,0);stroke-width:1"/>\n\t<line x1="58" y1="31" x2="65" y2="15" style="stroke:rgb(0,0,0);stroke-width:1"/>\n\t<line x1="61" y1="31" x2="67" y2="18" style="stroke:rgb(0,0,0);stroke-width:1"/>\n\t<line x1="86" y1="44" x2="68" y2="46" style="stroke:rgb(0,0,0);stroke-width:1"/>\n\t<line x1="84" y1="41" x2="70" y2="43" style="stroke:rgb(0,0,0);stroke-width:1"/>\n\t<line x1="114" y1="82" x2="114" y2="100" style="stroke:rgb(0,0,0);stroke-width:1"/>\n\t<line x1="99" y1="56" x2="99" y2="74" style="stroke:rgb(0,0,0);stroke-width:1"/>\n\t<line x1="130" y1="56" x2="114" y2="47" style="stroke:rgb(0,0,0);stroke-width:1"/>\n\t<line x1="145" y1="47" x2="130" y2="56" style="stroke:rgb(0,0,0);stroke-width:1"/>\n\t<line x1="176" y1="47" x2="161" y2="56" style="stroke:rgb(0,0,0);stroke-width:1"/>\n\t<line x1="185" y1="52" x2="176" y2="47" style="stroke:rgb(0,0,0);stroke-width:1"/>\n\t<line x1="161" y1="20" x2="176" y2="29" style="stroke:rgb(0,0,0);stroke-width:1"/>\n\t<line x1="145" y1="29" x2="145" y2="47" style="stroke:rgb(0,0,0);stroke-width:1"/>\n\t<line x1="185" y1="24" x2="176" y2="29" style="stroke:rgb(0,0,0);stroke-width:1"/>\n\t<line x1="125" y1="76" x2="114" y2="82" style="stroke:rgb(0,0,0);stroke-width:1"/>\n\t<line x1="112" y1="34" x2="114" y2="47" style="stroke:rgb(0,0,0);stroke-width:1"/>\n\t<line x1="93" y1="28" x2="106" y2="29" style="stroke:rgb(0,0,0);stroke-width:1"/>\n\t<line x1="65" y1="15" x2="83" y2="13" style="stroke:rgb(0,0,0);stroke-width:1"/>\n\t<line x1="68" y1="46" x2="58" y2="31" style="stroke:rgb(0,0,0);stroke-width:1"/>\n\t<line x1="86" y1="44" x2="93" y2="28" style="stroke:rgb(0,0,0);stroke-width:1"/>\n\t<line x1="86" y1="44" x2="99" y2="56" style="stroke:rgb(0,0,0);stroke-width:1"/>\n\t<line x1="104" y1="106" x2="114" y2="100" style="stroke:rgb(0,0,0);stroke-width:1"/>\n\t<line x1="84" y1="100" x2="94" y2="106" style="stroke:rgb(0,0,0);stroke-width:1"/>\n\t<line x1="68" y1="109" x2="84" y2="100" style="stroke:rgb(0,0,0);stroke-width:1"/>\n\t<line x1="53" y1="100" x2="68" y2="109" style="stroke:rgb(0,0,0);stroke-width:1"/>\n\t<line x1="42" y1="106" x2="53" y2="100" style="stroke:rgb(0,0,0);stroke-width:1"/>\n\t<line x1="22" y1="100" x2="32" y2="106" style="stroke:rgb(0,0,0);stroke-width:1"/>\n\t<line x1="7" y1="109" x2="22" y2="100" style="stroke:rgb(0,0,0);stroke-width:1"/>\n\t<line x1="7" y1="122" x2="7" y2="109" style="stroke:rgb(0,0,0);stroke-width:1"/>\n\t<line x1="22" y1="136" x2="12" y2="130" style="stroke:rgb(0,0,0);stroke-width:1"/>\n\t<line x1="37" y1="127" x2="22" y2="136" style="stroke:rgb(0,0,0);stroke-width:1"/>\n\t<line x1="37" y1="127" x2="37" y2="114" style="stroke:rgb(0,0,0);stroke-width:1"/>\n\t<line id="function random() { [native code] }:Bond:1-0" class="event" x1="114" y1="100" x2="130" y2="109" stroke-width="8" stroke-opacity="0"/>\n\t<line id="function random() { [native code] }:Bond:3-2" class="event" x1="99" y1="74" x2="114" y2="82" stroke-width="8" stroke-opacity="0"/>\n\t<line id="function random() { [native code] }:Bond:5-4" class="event" x1="114" y1="47" x2="99" y2="56" stroke-width="8" stroke-opacity="0"/>\n\t<line id="function random() { [native code] }:Bond:8-7" class="event" x1="161" y1="56" x2="145" y2="47" stroke-width="8" stroke-opacity="0"/>\n\t<line id="function random() { [native code] }:Bond:11-9" class="event" x1="176" y1="29" x2="176" y2="47" stroke-width="8" stroke-opacity="0"/>\n\t<line id="function random() { [native code] }:Bond:13-12" class="event" x1="145" y1="29" x2="161" y2="20" stroke-width="8" stroke-opacity="0"/>\n\t<line id="function random() { [native code] }:Bond:15-6" class="event" x1="130" y1="74" x2="130" y2="56" stroke-width="8" stroke-opacity="0"/>\n\t<line id="function random() { [native code] }:Bond:18-17" class="event" x1="83" y1="13" x2="93" y2="28" stroke-width="8" stroke-opacity="0"/>\n\t<line id="function random() { [native code] }:Bond:20-19" class="event" x1="58" y1="31" x2="65" y2="15" stroke-width="8" stroke-opacity="0"/>\n\t<line id="function random() { [native code] }:Bond:22-21" class="event" x1="86" y1="44" x2="68" y2="46" stroke-width="8" stroke-opacity="0"/>\n\t<line id="function random() { [native code] }:Bond:2-1" class="event" x1="114" y1="82" x2="114" y2="100" stroke-width="8" stroke-opacity="0"/>\n\t<line id="function random() { [native code] }:Bond:4-3" class="event" x1="99" y1="56" x2="99" y2="74" stroke-width="8" stroke-opacity="0"/>\n\t<line id="function random() { [native code] }:Bond:6-5" class="event" x1="130" y1="56" x2="114" y2="47" stroke-width="8" stroke-opacity="0"/>\n\t<line id="function random() { [native code] }:Bond:7-6" class="event" x1="145" y1="47" x2="130" y2="56" stroke-width="8" stroke-opacity="0"/>\n\t<line id="function random() { [native code] }:Bond:9-8" class="event" x1="176" y1="47" x2="161" y2="56" stroke-width="8" stroke-opacity="0"/>\n\t<line id="function random() { [native code] }:Bond:10-9" class="event" x1="192" y1="56" x2="176" y2="47" stroke-width="8" stroke-opacity="0"/>\n\t<line id="function random() { [native code] }:Bond:12-11" class="event" x1="161" y1="20" x2="176" y2="29" stroke-width="8" stroke-opacity="0"/>\n\t<line id="function random() { [native code] }:Bond:13-7" class="event" x1="145" y1="29" x2="145" y2="47" stroke-width="8" stroke-opacity="0"/>\n\t<line id="function random() { [native code] }:Bond:14-11" class="event" x1="192" y1="20" x2="176" y2="29" stroke-width="8" stroke-opacity="0"/>\n\t<line id="function random() { [native code] }:Bond:15-2" class="event" x1="130" y1="74" x2="114" y2="82" stroke-width="8" stroke-opacity="0"/>\n\t<line id="function random() { [native code] }:Bond:16-5" class="event" x1="111" y1="29" x2="114" y2="47" stroke-width="8" stroke-opacity="0"/>\n\t<line id="function random() { [native code] }:Bond:17-16" class="event" x1="93" y1="28" x2="111" y2="29" stroke-width="8" stroke-opacity="0"/>\n\t<line id="function random() { [native code] }:Bond:19-18" class="event" x1="65" y1="15" x2="83" y2="13" stroke-width="8" stroke-opacity="0"/>\n\t<line id="function random() { [native code] }:Bond:21-20" class="event" x1="68" y1="46" x2="58" y2="31" stroke-width="8" stroke-opacity="0"/>\n\t<line id="function random() { [native code] }:Bond:22-17" class="event" x1="86" y1="44" x2="93" y2="28" stroke-width="8" stroke-opacity="0"/>\n\t<line id="function random() { [native code] }:Bond:22-4" class="event" x1="86" y1="44" x2="99" y2="56" stroke-width="8" stroke-opacity="0"/>\n\t<line id="function random() { [native code] }:Bond:23-1" class="event" x1="99" y1="109" x2="114" y2="100" stroke-width="8" stroke-opacity="0"/>\n\t<line id="function random() { [native code] }:Bond:24-23" class="event" x1="84" y1="100" x2="99" y2="109" stroke-width="8" stroke-opacity="0"/>\n\t<line id="function random() { [native code] }:Bond:25-24" class="event" x1="68" y1="109" x2="84" y2="100" stroke-width="8" stroke-opacity="0"/>\n\t<line id="function random() { [native code] }:Bond:26-25" class="event" x1="53" y1="100" x2="68" y2="109" stroke-width="8" stroke-opacity="0"/>\n\t<line id="function random() { [native code] }:Bond:27-26" class="event" x1="37" y1="109" x2="53" y2="100" stroke-width="8" stroke-opacity="0"/>\n\t<line id="function random() { [native code] }:Bond:28-27" class="event" x1="22" y1="100" x2="37" y2="109" stroke-width="8" stroke-opacity="0"/>\n\t<line id="function random() { [native code] }:Bond:29-28" class="event" x1="7" y1="109" x2="22" y2="100" stroke-width="8" stroke-opacity="0"/>\n\t<line id="function random() { [native code] }:Bond:30-29" class="event" x1="7" y1="127" x2="7" y2="109" stroke-width="8" stroke-opacity="0"/>\n\t<line id="function random() { [native code] }:Bond:31-30" class="event" x1="22" y1="136" x2="7" y2="127" stroke-width="8" stroke-opacity="0"/>\n\t<line id="function random() { [native code] }:Bond:32-31" class="event" x1="37" y1="127" x2="22" y2="136" stroke-width="8" stroke-opacity="0"/>\n\t<line id="function random() { [native code] }:Bond:32-27" class="event" x1="37" y1="127" x2="37" y2="109" stroke-width="8" stroke-opacity="0"/>\n\t<circle id="function random() { [native code] }:Atom:0" class="event" cx="130" cy="109" r="8" fill-opacity="0"/>\n\t<circle id="function random() { [native code] }:Atom:1" class="event" cx="114" cy="100" r="8" fill-opacity="0"/>\n\t<circle id="function random() { [native code] }:Atom:2" class="event" cx="114" cy="82" r="8" fill-opacity="0"/>\n\t<circle id="function random() { [native code] }:Atom:3" class="event" cx="99" cy="74" r="8" fill-opacity="0"/>\n\t<circle id="function random() { [native code] }:Atom:4" class="event" cx="99" cy="56" r="8" fill-opacity="0"/>\n\t<circle id="function random() { [native code] }:Atom:5" class="event" cx="114" cy="47" r="8" fill-opacity="0"/>\n\t<circle id="function random() { [native code] }:Atom:6" class="event" cx="130" cy="56" r="8" fill-opacity="0"/>\n\t<circle id="function random() { [native code] }:Atom:7" class="event" cx="145" cy="47" r="8" fill-opacity="0"/>\n\t<circle id="function random() { [native code] }:Atom:8" class="event" cx="161" cy="56" r="8" fill-opacity="0"/>\n\t<circle id="function random() { [native code] }:Atom:9" class="event" cx="176" cy="47" r="8" fill-opacity="0"/>\n\t<circle id="function random() { [native code] }:Atom:10" class="event" cx="192" cy="56" r="8" fill-opacity="0"/>\n\t<circle id="function random() { [native code] }:Atom:11" class="event" cx="176" cy="29" r="8" fill-opacity="0"/>\n\t<circle id="function random() { [native code] }:Atom:12" class="event" cx="161" cy="20" r="8" fill-opacity="0"/>\n\t<circle id="function random() { [native code] }:Atom:13" class="event" cx="145" cy="29" r="8" fill-opacity="0"/>\n\t<circle id="function random() { [native code] }:Atom:14" class="event" cx="192" cy="20" r="8" fill-opacity="0"/>\n\t<circle id="function random() { [native code] }:Atom:15" class="event" cx="130" cy="74" r="8" fill-opacity="0"/>\n\t<circle id="function random() { [native code] }:Atom:16" class="event" cx="111" cy="29" r="8" fill-opacity="0"/>\n\t<circle id="function random() { [native code] }:Atom:17" class="event" cx="93" cy="28" r="8" fill-opacity="0"/>\n\t<circle id="function random() { [native code] }:Atom:18" class="event" cx="83" cy="13" r="8" fill-opacity="0"/>\n\t<circle id="function random() { [native code] }:Atom:19" class="event" cx="65" cy="15" r="8" fill-opacity="0"/>\n\t<circle id="function random() { [native code] }:Atom:20" class="event" cx="58" cy="31" r="8" fill-opacity="0"/>\n\t<circle id="function random() { [native code] }:Atom:21" class="event" cx="68" cy="46" r="8" fill-opacity="0"/>\n\t<circle id="function random() { [native code] }:Atom:22" class="event" cx="86" cy="44" r="8" fill-opacity="0"/>\n\t<circle id="function random() { [native code] }:Atom:23" class="event" cx="99" cy="109" r="8" fill-opacity="0"/>\n\t<circle id="function random() { [native code] }:Atom:24" class="event" cx="84" cy="100" r="8" fill-opacity="0"/>\n\t<circle id="function random() { [native code] }:Atom:25" class="event" cx="68" cy="109" r="8" fill-opacity="0"/>\n\t<circle id="function random() { [native code] }:Atom:26" class="event" cx="53" cy="100" r="8" fill-opacity="0"/>\n\t<circle id="function random() { [native code] }:Atom:27" class="event" cx="37" cy="109" r="8" fill-opacity="0"/>\n\t<circle id="function random() { [native code] }:Atom:28" class="event" cx="22" cy="100" r="8" fill-opacity="0"/>\n\t<circle id="function random() { [native code] }:Atom:29" class="event" cx="7" cy="109" r="8" fill-opacity="0"/>\n\t<circle id="function random() { [native code] }:Atom:30" class="event" cx="7" cy="127" r="8" fill-opacity="0"/>\n\t<circle id="function random() { [native code] }:Atom:31" class="event" cx="22" cy="136" r="8" fill-opacity="0"/>\n\t<circle id="function random() { [native code] }:Atom:32" class="event" cx="37" cy="127" r="8" fill-opacity="0"/>\n</svg>