<svg id="function random() { [native code] }" xmlns="http://www.w3.org/2000/svg" version="1.1" width="200px" height="150px" viewBox="0 0 200 150">\n\t<style> #function random() { [native code] } {pointer-events:none; }  #function random() { [native code] } .event  { pointer-events:all;}  </style>\n\t<text x="116" y="141" font-family=" Helvetica" font-weight="900" font-size="11" fill="rgb(255,13,13)">O</text>\n\t<text x="84" y="123" font-family=" Helvetica" font-weight="900" font-size="11" fill="rgb(255,13,13)">O</text>\n\t<text x="100" y="57" font-family=" Helvetica" font-weight="900" font-size="11" fill="rgb(48,80,248)">N</text>\n\t<text x="68" y="38" font-family=" Helvetica" font-weight="900" font-size="11" fill="rgb(48,80,248)">N</text>\n\t<text x="68" y="49" font-family=" Helvetica" font-weight="900" font-size="11" fill="rgb(48,80,248)">H</text>\n\t<text x="19" y="29" font-family=" Helvetica" font-weight="900" font-size="11" fill="rgb(48,80,248)">N</text>\n\t<text x="84" y="10" font-family=" Helvetica" font-weight="900" font-size="11" fill="rgb(255,13,13)">O</text>\n\t<text x="151" y="63" font-family=" Helvetica" font-weight="900" font-size="11" fill="rgb(48,80,248)">N</text>\n\t<text x="159" y="63" font-family=" Helvetica" font-weight="900" font-size="11" fill="rgb(48,80,248)">H</text>\n\t<line x1="137" y1="110" x2="121" y2="120" style="stroke:rgb(0,0,0);stroke-width:1"/>\n\t<line x1="134" y1="109" x2="121" y2="116" style="stroke:rgb(0,0,0);stroke-width:1"/>\n\t<line x1="121" y1="82" x2="137" y2="91" style="stroke:rgb(0,0,0);stroke-width:1"/>\n\t<line x1="121" y1="85" x2="134" y2="93" style="stroke:rgb(0,0,0);stroke-width:1"/>\n\t<line x1="104" y1="110" x2="104" y2="91" style="stroke:rgb(0,0,0);stroke-width:1"/>\n\t<line x1="107" y1="108" x2="107" y2="93" style="stroke:rgb(0,0,0);stroke-width:1"/>\n\t<line x1="121" y1="63" x2="109" y2="57" style="stroke:rgb(0,0,0);stroke-width:1"/>\n\t<line x1="120" y1="60" x2="111" y2="54" style="stroke:rgb(0,0,0);stroke-width:1"/>\n\t<line x1="90" y1="27" x2="90" y2="12" style="stroke:rgb(0,0,0);stroke-width:1"/>\n\t<line x1="87" y1="27" x2="87" y2="12" style="stroke:rgb(0,0,0);stroke-width:1"/>\n\t<line x1="121" y1="26" x2="104" y2="35" style="stroke:rgb(0,0,0);stroke-width:1"/>\n\t<line x1="120" y1="29" x2="108" y2="37" style="stroke:rgb(0,0,0);stroke-width:1"/>\n\t<line x1="137" y1="54" x2="137" y2="35" style="stroke:rgb(0,0,0);stroke-width:1"/>\n\t<line x1="140" y1="52" x2="140" y2="37" style="stroke:rgb(0,0,0);stroke-width:1"/>\n\t<line x1="184" y1="43" x2="166" y2="45" style="stroke:rgb(0,0,0);stroke-width:1"/>\n\t<line x1="182" y1="40" x2="167" y2="41" style="stroke:rgb(0,0,0);stroke-width:1"/>\n\t<line x1="181" y1="10" x2="192" y2="25" style="stroke:rgb(0,0,0);stroke-width:1"/>\n\t<line x1="180" y1="14" x2="189" y2="25" style="stroke:rgb(0,0,0);stroke-width:1"/>\n\t<line x1="155" y1="29" x2="162" y2="12" style="stroke:rgb(0,0,0);stroke-width:1"/>\n\t<line x1="158" y1="29" x2="164" y2="15" style="stroke:rgb(0,0,0);stroke-width:1"/>\n\t<line x1="115" y1="141" x2="104" y2="148" style="stroke:rgb(0,0,0);stroke-width:1"/>\n\t<line x1="121" y1="120" x2="121" y2="133" style="stroke:rgb(0,0,0);stroke-width:1"/>\n\t<line x1="137" y1="91" x2="137" y2="110" style="stroke:rgb(0,0,0);stroke-width:1"/>\n\t<line x1="104" y1="91" x2="121" y2="82" style="stroke:rgb(0,0,0);stroke-width:1"/>\n\t<line x1="104" y1="110" x2="121" y2="120" style="stroke:rgb(0,0,0);stroke-width:1"/>\n\t<line x1="93" y1="116" x2="104" y2="110" style="stroke:rgb(0,0,0);stroke-width:1"/>\n\t<line x1="88" y1="138" x2="88" y2="125" style="stroke:rgb(0,0,0);stroke-width:1"/>\n\t<line x1="121" y1="63" x2="121" y2="82" style="stroke:rgb(0,0,0);stroke-width:1"/>\n\t<line x1="104" y1="35" x2="104" y2="49" style="stroke:rgb(0,0,0);stroke-width:1"/>\n\t<line x1="88" y1="26" x2="104" y2="35" style="stroke:rgb(0,0,0);stroke-width:1"/>\n\t<line x1="77" y1="32" x2="88" y2="26" style="stroke:rgb(0,0,0);stroke-width:1"/>\n\t<line x1="56" y1="26" x2="67" y2="32" style="stroke:rgb(0,0,0);stroke-width:1"/>\n\t<line x1="39" y1="35" x2="56" y2="26" style="stroke:rgb(0,0,0);stroke-width:1"/>\n\t<line x1="28" y1="29" x2="39" y2="35" style="stroke:rgb(0,0,0);stroke-width:1"/>\n\t<line x1="23" y1="7" x2="23" y2="21" style="stroke:rgb(0,0,0);stroke-width:1"/>\n\t<line x1="7" y1="35" x2="18" y2="29" style="stroke:rgb(0,0,0);stroke-width:1"/>\n\t<line x1="137" y1="35" x2="121" y2="26" style="stroke:rgb(0,0,0);stroke-width:1"/>\n\t<line x1="137" y1="54" x2="121" y2="63" style="stroke:rgb(0,0,0);stroke-width:1"/>\n\t<line x1="150" y1="58" x2="137" y2="54" style="stroke:rgb(0,0,0);stroke-width:1"/>\n\t<line x1="166" y1="45" x2="158" y2="55" style="stroke:rgb(0,0,0);stroke-width:1"/>\n\t<line x1="192" y1="25" x2="184" y2="43" style="stroke:rgb(0,0,0);stroke-width:1"/>\n\t<line x1="162" y1="12" x2="181" y2="10" style="stroke:rgb(0,0,0);stroke-width:1"/>\n\t<line x1="155" y1="29" x2="166" y2="45" style="stroke:rgb(0,0,0);stroke-width:1"/>\n\t<line x1="155" y1="29" x2="137" y2="35" style="stroke:rgb(0,0,0);stroke-width:1"/>\n\t<line id="function random() { [native code] }:Bond:3-2" class="event" x1="137" y1="110" x2="121" y2="120" stroke-width="8" stroke-opacity="0"/>\n\t<line id="function random() { [native code] }:Bond:5-4" class="event" x1="121" y1="82" x2="137" y2="91" stroke-width="8" stroke-opacity="0"/>\n\t<line id="function random() { [native code] }:Bond:7-6" class="event" x1="104" y1="110" x2="104" y2="91" stroke-width="8" stroke-opacity="0"/>\n\t<line id="function random() { [native code] }:Bond:11-10" class="event" x1="104" y1="54" x2="121" y2="63" stroke-width="8" stroke-opacity="0"/>\n\t<line id="function random() { [native code] }:Bond:20-13" class="event" x1="88" y1="7" x2="88" y2="26" stroke-width="8" stroke-opacity="0"/>\n\t<line id="function random() { [native code] }:Bond:21-12" class="event" x1="121" y1="26" x2="104" y2="35" stroke-width="8" stroke-opacity="0"/>\n\t<line id="function random() { [native code] }:Bond:23-22" class="event" x1="137" y1="54" x2="137" y2="35" stroke-width="8" stroke-opacity="0"/>\n\t<line id="function random() { [native code] }:Bond:26-25" class="event" x1="184" y1="43" x2="166" y2="45" stroke-width="8" stroke-opacity="0"/>\n\t<line id="function random() { [native code] }:Bond:28-27" class="event" x1="181" y1="10" x2="192" y2="25" stroke-width="8" stroke-opacity="0"/>\n\t<line id="function random() { [native code] }:Bond:30-29" class="event" x1="155" y1="29" x2="162" y2="12" stroke-width="8" stroke-opacity="0"/>\n\t<line id="function random() { [native code] }:Bond:1-0" class="event" x1="121" y1="138" x2="104" y2="148" stroke-width="8" stroke-opacity="0"/>\n\t<line id="function random() { [native code] }:Bond:2-1" class="event" x1="121" y1="120" x2="121" y2="138" stroke-width="8" stroke-opacity="0"/>\n\t<line id="function random() { [native code] }:Bond:4-3" class="event" x1="137" y1="91" x2="137" y2="110" stroke-width="8" stroke-opacity="0"/>\n\t<line id="function random() { [native code] }:Bond:6-5" class="event" x1="104" y1="91" x2="121" y2="82" stroke-width="8" stroke-opacity="0"/>\n\t<line id="function random() { [native code] }:Bond:7-2" class="event" x1="104" y1="110" x2="121" y2="120" stroke-width="8" stroke-opacity="0"/>\n\t<line id="function random() { [native code] }:Bond:8-7" class="event" x1="88" y1="120" x2="104" y2="110" stroke-width="8" stroke-opacity="0"/>\n\t<line id="function random() { [native code] }:Bond:9-8" class="event" x1="88" y1="138" x2="88" y2="120" stroke-width="8" stroke-opacity="0"/>\n\t<line id="function random() { [native code] }:Bond:10-5" class="event" x1="121" y1="63" x2="121" y2="82" stroke-width="8" stroke-opacity="0"/>\n\t<line id="function random() { [native code] }:Bond:12-11" class="event" x1="104" y1="35" x2="104" y2="54" stroke-width="8" stroke-opacity="0"/>\n\t<line id="function random() { [native code] }:Bond:13-12" class="event" x1="88" y1="26" x2="104" y2="35" stroke-width="8" stroke-opacity="0"/>\n\t<line id="function random() { [native code] }:Bond:14-13" class="event" x1="72" y1="35" x2="88" y2="26" stroke-width="8" stroke-opacity="0"/>\n\t<line id="function random() { [native code] }:Bond:15-14" class="event" x1="56" y1="26" x2="72" y2="35" stroke-width="8" stroke-opacity="0"/>\n\t<line id="function random() { [native code] }:Bond:16-15" class="event" x1="39" y1="35" x2="56" y2="26" stroke-width="8" stroke-opacity="0"/>\n\t<line id="function random() { [native code] }:Bond:17-16" class="event" x1="23" y1="26" x2="39" y2="35" stroke-width="8" stroke-opacity="0"/>\n\t<line id="function random() { [native code] }:Bond:18-17" class="event" x1="23" y1="7" x2="23" y2="26" stroke-width="8" stroke-opacity="0"/>\n\t<line id="function random() { [native code] }:Bond:19-17" class="event" x1="7" y1="35" x2="23" y2="26" stroke-width="8" stroke-opacity="0"/>\n\t<line id="function random() { [native code] }:Bond:22-21" class="event" x1="137" y1="35" x2="121" y2="26" stroke-width="8" stroke-opacity="0"/>\n\t<line id="function random() { [native code] }:Bond:23-10" class="event" x1="137" y1="54" x2="121" y2="63" stroke-width="8" stroke-opacity="0"/>\n\t<line id="function random() { [native code] }:Bond:24-23" class="event" x1="155" y1="60" x2="137" y2="54" stroke-width="8" stroke-opacity="0"/>\n\t<line id="function random() { [native code] }:Bond:25-24" class="event" x1="166" y1="45" x2="155" y2="60" stroke-width="8" stroke-opacity="0"/>\n\t<line id="function random() { [native code] }:Bond:27-26" class="event" x1="192" y1="25" x2="184" y2="43" stroke-width="8" stroke-opacity="0"/>\n\t<line id="function random() { [native code] }:Bond:29-28" class="event" x1="162" y1="12" x2="181" y2="10" stroke-width="8" stroke-opacity="0"/>\n\t<line id="function random() { [native code] }:Bond:30-25" class="event" x1="155" y1="29" x2="166" y2="45" stroke-width="8" stroke-opacity="0"/>\n\t<line id="function random() { [native code] }:Bond:30-22" class="event" x1="155" y1="29" x2="137" y2="35" stroke-width="8" stroke-opacity="0"/>\n\t<circle id="function random() { [native code] }:Atom:0" class="event" cx="104" cy="148" r="8" fill-opacity="0"/>\n\t<circle id="function random() { [native code] }:Atom:1" class="event" cx="121" cy="138" r="8" fill-opacity="0"/>\n\t<circle id="function random() { [native code] }:Atom:2" class="event" cx="121" cy="120" r="8" fill-opacity="0"/>\n\t<circle id="function random() { [native code] }:Atom:3" class="event" cx="137" cy="110" r="8" fill-opacity="0"/>\n\t<circle id="function random() { [native code] }:Atom:4" class="event" cx="137" cy="91" r="8" fill-opacity="0"/>\n\t<circle id="function random() { [native code] }:Atom:5" class="event" cx="121" cy="82" r="8" fill-opacity="0"/>\n\t<circle id="function random() { [native code] }:Atom:6" class="event" cx="104" cy="91" r="8" fill-opacity="0"/>\n\t<circle id="function random() { [native code] }:Atom:7" class="event" cx="104" cy="110" r="8" fill-opacity="0"/>\n\t<circle id="function random() { [native code] }:Atom:8" class="event" cx="88" cy="120" r="8" fill-opacity="0"/>\n\t<circle id="function random() { [native code] }:Atom:9" class="event" cx="88" cy="138" r="8" fill-opacity="0"/>\n\t<circle id="function random() { [native code] }:Atom:10" class="event" cx="121" cy="63" r="8" fill-opacity="0"/>\n\t<circle id="function random() { [native code] }:Atom:11" class="event" cx="104" cy="54" r="8" fill-opacity="0"/>\n\t<circle id="function random() { [native code] }:Atom:12" class="event" cx="104" cy="35" r="8" fill-opacity="0"/>\n\t<circle id="function random() { [native code] }:Atom:13" class="event" cx="88" cy="26" r="8" fill-opacity="0"/>\n\t<circle id="function random() { [native code] }:Atom:14" class="event" cx="72" cy="35" r="8" fill-opacity="0"/>\n\t<circle id="function random() { [native code] }:Atom:15" class="event" cx="56" cy="26" r="8" fill-opacity="0"/>\n\t<circle id="function random() { [native code] }:Atom:16" class="event" cx="39" cy="35" r="8" fill-opacity="0"/>\n\t<circle id="function random() { [native code] }:Atom:17" class="event" cx="23" cy="26" r="8" fill-opacity="0"/>\n\t<circle id="function random() { [native code] }:Atom:18" class="event" cx="23" cy="7" r="8" fill-opacity="0"/>\n\t<circle id="function random() { [native code] }:Atom:19" class="event" cx="7" cy="35" r="8" fill-opacity="0"/>\n\t<circle id="function random() { [native code] }:Atom:20" class="event" cx="88" cy="7" r="8" fill-opacity="0"/>\n\t<circle id="function random() { [native code] }:Atom:21" class="event" cx="121" cy="26" r="8" fill-opacity="0"/>\n\t<circle id="function random() { [native code] }:Atom:22" class="event" cx="137" cy="35" r="8" fill-opacity="0"/>\n\t<circle id="function random() { [native code] }:Atom:23" class="event" cx="137" cy="54" r="8" fill-opacity="0"/>\n\t<circle id="function random() { [native code] }:Atom:24" class="event" cx="155" cy="60" r="8" fill-opacity="0"/>\n\t<circle id="function random() { [native code] }:Atom:25" class="event" cx="166" cy="45" r="8" fill-opacity="0"/>\n\t<circle id="function random() { [native code] }:Atom:26" class="event" cx="184" cy="43" r="8" fill-opacity="0"/>\n\t<circle id="function random() { [native code] }:Atom:27" class="event" cx="192" cy="25" r="8" fill-opacity="0"/>\n\t<circle id="function random() { [native code] }:Atom:28" class="event" cx="181" cy="10" r="8" fill-opacity="0"/>\n\t<circle id="function random() { [native code] }:Atom:29" class="event" cx="162" cy="12" r="8" fill-opacity="0"/>\n\t<circle id="function random() { [native code] }:Atom:30" class="event" cx="155" cy="29" r="8" fill-opacity="0"/>\n</svg>