<svg id="function random() { [native code] }" xmlns="http://www.w3.org/2000/svg" version="1.1" width="200px" height="150px" viewBox="0 0 200 150">\n\t<style> #function random() { [native code] } {pointer-events:none; }  #function random() { [native code] } .event  { pointer-events:all;}  </style>\n\t<text x="151" y="29" font-family=" Helvetica" font-weight="900" font-size="11" fill="rgb(255,13,13)">O</text>\n\t<text x="120" y="65" font-family=" Helvetica" font-weight="900" font-size="11" fill="rgb(48,80,248)">N</text>\n\t<text x="56" y="83" font-family=" Helvetica" font-weight="900" font-size="11" fill="rgb(31,240,31)">Cl</text>\n\t<text x="88" y="137" font-family=" Helvetica" font-weight="900" font-size="11" fill="rgb(31,240,31)">Cl</text>\n\t<text x="56" y="119" font-family=" Helvetica" font-weight="900" font-size="11" fill="rgb(31,240,31)">Cl</text>\n\t<text x="140" y="110" font-family=" Helvetica" font-weight="900" font-size="11" fill="rgb(48,80,248)">N</text>\n\t<text x="132" y="110" font-family=" Helvetica" font-weight="900" font-size="11" fill="rgb(48,80,248)">H</text>\n\t<text x="120" y="29" font-family=" Helvetica" font-weight="900" font-size="11" fill="rgb(48,80,248)">N</text>\n\t<text x="120" y="18" font-family=" Helvetica" font-weight="900" font-size="11" fill="rgb(48,80,248)">H</text>\n\t<text x="58" y="29" font-family=" Helvetica" font-weight="900" font-size="11" fill="rgb(48,80,248)">N</text>\n\t<text x="58" y="18" font-family=" Helvetica" font-weight="900" font-size="11" fill="rgb(48,80,248)">H</text>\n\t<text x="10" y="38" font-family=" Helvetica" font-weight="900" font-size="11" fill="rgb(255,13,13)">O</text>\n\t<text x="2" y="38" font-family=" Helvetica" font-weight="900" font-size="11" fill="rgb(255,13,13)">H</text>\n\t<line x1="140" y1="36" x2="151" y2="30" style="stroke:rgb(0,0,0);stroke-width:1"/>\n\t<line x1="139" y1="34" x2="150" y2="28" style="stroke:rgb(0,0,0);stroke-width:1"/>\n\t<line x1="140" y1="53" x2="129" y2="59" style="stroke:rgb(0,0,0);stroke-width:1"/>\n\t<line x1="140" y1="56" x2="131" y2="61" style="stroke:rgb(0,0,0);stroke-width:1"/>\n\t<line x1="93" y1="80" x2="109" y2="89" style="stroke:rgb(0,0,0);stroke-width:1"/>\n\t<line x1="93" y1="83" x2="106" y2="90" style="stroke:rgb(0,0,0);stroke-width:1"/>\n\t<line x1="77" y1="107" x2="77" y2="89" style="stroke:rgb(0,0,0);stroke-width:1"/>\n\t<line x1="80" y1="105" x2="80" y2="91" style="stroke:rgb(0,0,0);stroke-width:1"/>\n\t<line x1="109" y1="107" x2="93" y2="116" style="stroke:rgb(0,0,0);stroke-width:1"/>\n\t<line x1="106" y1="106" x2="93" y2="113" style="stroke:rgb(0,0,0);stroke-width:1"/>\n\t<line x1="140" y1="89" x2="124" y2="80" style="stroke:rgb(0,0,0);stroke-width:1"/>\n\t<line x1="140" y1="86" x2="127" y2="79" style="stroke:rgb(0,0,0);stroke-width:1"/>\n\t<line x1="172" y1="123" x2="162" y2="109" style="stroke:rgb(0,0,0);stroke-width:1"/>\n\t<line x1="173" y1="120" x2="165" y2="109" style="stroke:rgb(0,0,0);stroke-width:1"/>\n\t<line x1="198" y1="105" x2="190" y2="121" style="stroke:rgb(0,0,0);stroke-width:1"/>\n\t<line x1="194" y1="106" x2="189" y2="119" style="stroke:rgb(0,0,0);stroke-width:1"/>\n\t<line x1="169" y1="92" x2="187" y2="90" style="stroke:rgb(0,0,0);stroke-width:1"/>\n\t<line x1="171" y1="95" x2="185" y2="93" style="stroke:rgb(0,0,0);stroke-width:1"/>\n\t<line x1="156" y1="62" x2="156" y2="80" style="stroke:rgb(0,0,0);stroke-width:1"/>\n\t<line x1="153" y1="64" x2="153" y2="78" style="stroke:rgb(0,0,0);stroke-width:1"/>\n\t<line x1="140" y1="53" x2="140" y2="35" style="stroke:rgb(0,0,0);stroke-width:1"/>\n\t<line x1="124" y1="80" x2="124" y2="67" style="stroke:rgb(0,0,0);stroke-width:1"/>\n\t<line x1="109" y1="89" x2="124" y2="80" style="stroke:rgb(0,0,0);stroke-width:1"/>\n\t<line x1="77" y1="89" x2="93" y2="80" style="stroke:rgb(0,0,0);stroke-width:1"/>\n\t<line x1="68" y1="84" x2="77" y2="89" style="stroke:rgb(0,0,0);stroke-width:1"/>\n\t<line x1="93" y1="116" x2="77" y2="107" style="stroke:rgb(0,0,0);stroke-width:1"/>\n\t<line x1="93" y1="129" x2="93" y2="116" style="stroke:rgb(0,0,0);stroke-width:1"/>\n\t<line x1="109" y1="107" x2="109" y2="89" style="stroke:rgb(0,0,0);stroke-width:1"/>\n\t<line x1="68" y1="113" x2="77" y2="107" style="stroke:rgb(0,0,0);stroke-width:1"/>\n\t<line x1="143" y1="102" x2="140" y2="89" style="stroke:rgb(0,0,0);stroke-width:1"/>\n\t<line x1="162" y1="109" x2="149" y2="107" style="stroke:rgb(0,0,0);stroke-width:1"/>\n\t<line x1="190" y1="121" x2="172" y2="123" style="stroke:rgb(0,0,0);stroke-width:1"/>\n\t<line x1="187" y1="90" x2="198" y2="105" style="stroke:rgb(0,0,0);stroke-width:1"/>\n\t<line x1="169" y1="92" x2="162" y2="109" style="stroke:rgb(0,0,0);stroke-width:1"/>\n\t<line x1="156" y1="80" x2="169" y2="92" style="stroke:rgb(0,0,0);stroke-width:1"/>\n\t<line x1="156" y1="80" x2="140" y2="89" style="stroke:rgb(0,0,0);stroke-width:1"/>\n\t<line x1="156" y1="62" x2="140" y2="53" style="stroke:rgb(0,0,0);stroke-width:1"/>\n\t<line x1="129" y1="29" x2="140" y2="35" style="stroke:rgb(0,0,0);stroke-width:1"/>\n\t<line x1="109" y1="35" x2="119" y2="29" style="stroke:rgb(0,0,0);stroke-width:1"/>\n\t<line x1="93" y1="26" x2="109" y2="35" style="stroke:rgb(0,0,0);stroke-width:1"/>\n\t<line x1="77" y1="35" x2="93" y2="26" style="stroke:rgb(0,0,0);stroke-width:1"/>\n\t<line x1="66" y1="29" x2="77" y2="35" style="stroke:rgb(0,0,0);stroke-width:1"/>\n\t<line x1="46" y1="35" x2="57" y2="29" style="stroke:rgb(0,0,0);stroke-width:1"/>\n\t<line x1="30" y1="26" x2="46" y2="35" style="stroke:rgb(0,0,0);stroke-width:1"/>\n\t<line x1="20" y1="32" x2="30" y2="26" style="stroke:rgb(0,0,0);stroke-width:1"/>\n\t<line id="function random() { [native code] }:Bond:1-0" class="event" x1="140" y1="35" x2="156" y2="26" stroke-width="8" stroke-opacity="0"/>\n\t<line id="function random() { [native code] }:Bond:3-2" class="event" x1="124" y1="62" x2="140" y2="53" stroke-width="8" stroke-opacity="0"/>\n\t<line id="function random() { [native code] }:Bond:6-5" class="event" x1="93" y1="80" x2="109" y2="89" stroke-width="8" stroke-opacity="0"/>\n\t<line id="function random() { [native code] }:Bond:9-7" class="event" x1="77" y1="107" x2="77" y2="89" stroke-width="8" stroke-opacity="0"/>\n\t<line id="function random() { [native code] }:Bond:12-10" class="event" x1="109" y1="107" x2="93" y2="116" stroke-width="8" stroke-opacity="0"/>\n\t<line id="function random() { [native code] }:Bond:14-4" class="event" x1="140" y1="89" x2="124" y2="80" stroke-width="8" stroke-opacity="0"/>\n\t<line id="function random() { [native code] }:Bond:17-16" class="event" x1="172" y1="123" x2="162" y2="109" stroke-width="8" stroke-opacity="0"/>\n\t<line id="function random() { [native code] }:Bond:19-18" class="event" x1="198" y1="105" x2="190" y2="121" stroke-width="8" stroke-opacity="0"/>\n\t<line id="function random() { [native code] }:Bond:21-20" class="event" x1="169" y1="92" x2="187" y2="90" stroke-width="8" stroke-opacity="0"/>\n\t<line id="function random() { [native code] }:Bond:23-22" class="event" x1="156" y1="62" x2="156" y2="80" stroke-width="8" stroke-opacity="0"/>\n\t<line id="function random() { [native code] }:Bond:2-1" class="event" x1="140" y1="53" x2="140" y2="35" stroke-width="8" stroke-opacity="0"/>\n\t<line id="function random() { [native code] }:Bond:4-3" class="event" x1="124" y1="80" x2="124" y2="62" stroke-width="8" stroke-opacity="0"/>\n\t<line id="function random() { [native code] }:Bond:5-4" class="event" x1="109" y1="89" x2="124" y2="80" stroke-width="8" stroke-opacity="0"/>\n\t<line id="function random() { [native code] }:Bond:7-6" class="event" x1="77" y1="89" x2="93" y2="80" stroke-width="8" stroke-opacity="0"/>\n\t<line id="function random() { [native code] }:Bond:8-7" class="event" x1="61" y1="80" x2="77" y2="89" stroke-width="8" stroke-opacity="0"/>\n\t<line id="function random() { [native code] }:Bond:10-9" class="event" x1="93" y1="116" x2="77" y2="107" stroke-width="8" stroke-opacity="0"/>\n\t<line id="function random() { [native code] }:Bond:11-10" class="event" x1="93" y1="134" x2="93" y2="116" stroke-width="8" stroke-opacity="0"/>\n\t<line id="function random() { [native code] }:Bond:12-5" class="event" x1="109" y1="107" x2="109" y2="89" stroke-width="8" stroke-opacity="0"/>\n\t<line id="function random() { [native code] }:Bond:13-9" class="event" x1="61" y1="116" x2="77" y2="107" stroke-width="8" stroke-opacity="0"/>\n\t<line id="function random() { [native code] }:Bond:15-14" class="event" x1="144" y1="107" x2="140" y2="89" stroke-width="8" stroke-opacity="0"/>\n\t<line id="function random() { [native code] }:Bond:16-15" class="event" x1="162" y1="109" x2="144" y2="107" stroke-width="8" stroke-opacity="0"/>\n\t<line id="function random() { [native code] }:Bond:18-17" class="event" x1="190" y1="121" x2="172" y2="123" stroke-width="8" stroke-opacity="0"/>\n\t<line id="function random() { [native code] }:Bond:20-19" class="event" x1="187" y1="90" x2="198" y2="105" stroke-width="8" stroke-opacity="0"/>\n\t<line id="function random() { [native code] }:Bond:21-16" class="event" x1="169" y1="92" x2="162" y2="109" stroke-width="8" stroke-opacity="0"/>\n\t<line id="function random() { [native code] }:Bond:22-21" class="event" x1="156" y1="80" x2="169" y2="92" stroke-width="8" stroke-opacity="0"/>\n\t<line id="function random() { [native code] }:Bond:22-14" class="event" x1="156" y1="80" x2="140" y2="89" stroke-width="8" stroke-opacity="0"/>\n\t<line id="function random() { [native code] }:Bond:23-2" class="event" x1="156" y1="62" x2="140" y2="53" stroke-width="8" stroke-opacity="0"/>\n\t<line id="function random() { [native code] }:Bond:24-1" class="event" x1="124" y1="26" x2="140" y2="35" stroke-width="8" stroke-opacity="0"/>\n\t<line id="function random() { [native code] }:Bond:25-24" class="event" x1="109" y1="35" x2="124" y2="26" stroke-width="8" stroke-opacity="0"/>\n\t<line id="function random() { [native code] }:Bond:26-25" class="event" x1="93" y1="26" x2="109" y2="35" stroke-width="8" stroke-opacity="0"/>\n\t<line id="function random() { [native code] }:Bond:27-26" class="event" x1="77" y1="35" x2="93" y2="26" stroke-width="8" stroke-opacity="0"/>\n\t<line id="function random() { [native code] }:Bond:28-27" class="event" x1="61" y1="26" x2="77" y2="35" stroke-width="8" stroke-opacity="0"/>\n\t<line id="function random() { [native code] }:Bond:29-28" class="event" x1="46" y1="35" x2="61" y2="26" stroke-width="8" stroke-opacity="0"/>\n\t<line id="function random() { [native code] }:Bond:30-29" class="event" x1="30" y1="26" x2="46" y2="35" stroke-width="8" stroke-opacity="0"/>\n\t<line id="function random() { [native code] }:Bond:31-30" class="event" x1="14" y1="35" x2="30" y2="26" stroke-width="8" stroke-opacity="0"/>\n\t<circle id="function random() { [native code] }:Atom:0" class="event" cx="156" cy="26" r="8" fill-opacity="0"/>\n\t<circle id="function random() { [native code] }:Atom:1" class="event" cx="140" cy="35" r="8" fill-opacity="0"/>\n\t<circle id="function random() { [native code] }:Atom:2" class="event" cx="140" cy="53" r="8" fill-opacity="0"/>\n\t<circle id="function random() { [native code] }:Atom:3" class="event" cx="124" cy="62" r="8" fill-opacity="0"/>\n\t<circle id="function random() { [native code] }:Atom:4" class="event" cx="124" cy="80" r="8" fill-opacity="0"/>\n\t<circle id="function random() { [native code] }:Atom:5" class="event" cx="109" cy="89" r="8" fill-opacity="0"/>\n\t<circle id="function random() { [native code] }:Atom:6" class="event" cx="93" cy="80" r="8" fill-opacity="0"/>\n\t<circle id="function random() { [native code] }:Atom:7" class="event" cx="77" cy="89" r="8" fill-opacity="0"/>\n\t<circle id="function random() { [native code] }:Atom:8" class="event" cx="61" cy="80" r="8" fill-opacity="0"/>\n\t<circle id="function random() { [native code] }:Atom:9" class="event" cx="77" cy="107" r="8" fill-opacity="0"/>\n\t<circle id="function random() { [native code] }:Atom:10" class="event" cx="93" cy="116" r="8" fill-opacity="0"/>\n\t<circle id="function random() { [native code] }:Atom:11" class="event" cx="93" cy="134" r="8" fill-opacity="0"/>\n\t<circle id="function random() { [native code] }:Atom:12" class="event" cx="109" cy="107" r="8" fill-opacity="0"/>\n\t<circle id="function random() { [native code] }:Atom:13" class="event" cx="61" cy="116" r="8" fill-opacity="0"/>\n\t<circle id="function random() { [native code] }:Atom:14" class="event" cx="140" cy="89" r="8" fill-opacity="0"/>\n\t<circle id="function random() { [native code] }:Atom:15" class="event" cx="144" cy="107" r="8" fill-opacity="0"/>\n\t<circle id="function random() { [native code] }:Atom:16" class="event" cx="162" cy="109" r="8" fill-opacity="0"/>\n\t<circle id="function random() { [native code] }:Atom:17" class="event" cx="172" cy="123" r="8" fill-opacity="0"/>\n\t<circle id="function random() { [native code] }:Atom:18" class="event" cx="190" cy="121" r="8" fill-opacity="0"/>\n\t<circle id="function random() { [native code] }:Atom:19" class="event" cx="198" cy="105" r="8" fill-opacity="0"/>\n\t<circle id="function random() { [native code] }:Atom:20" class="event" cx="187" cy="90" r="8" fill-opacity="0"/>\n\t<circle id="function random() { [native code] }:Atom:21" class="event" cx="169" cy="92" r="8" fill-opacity="0"/>\n\t<circle id="function random() { [native code] }:Atom:22" class="event" cx="156" cy="80" r="8" fill-opacity="0"/>\n\t<circle id="function random() { [native code] }:Atom:23" class="event" cx="156" cy="62" r="8" fill-opacity="0"/>\n\t<circle id="function random() { [native code] }:Atom:24" class="event" cx="124" cy="26" r="8" fill-opacity="0"/>\n\t<circle id="function random() { [native code] }:Atom:25" class="event" cx="109" cy="35" r="8" fill-opacity="0"/>\n\t<circle id="function random() { [native code] }:Atom:26" class="event" cx="93" cy="26" r="8" fill-opacity="0"/>\n\t<circle id="function random() { [native code] }:Atom:27" class="event" cx="77" cy="35" r="8" fill-opacity="0"/>\n\t<circle id="function random() { [native code] }:Atom:28" class="event" cx="61" cy="26" r="8" fill-opacity="0"/>\n\t<circle id="function random() { [native code] }:Atom:29" class="event" cx="46" cy="35" r="8" fill-opacity="0"/>\n\t<circle id="function random() { [native code] }:Atom:30" class="event" cx="30" cy="26" r="8" fill-opacity="0"/>\n\t<circle id="function random() { [native code] }:Atom:31" class="event" cx="14" cy="35" r="8" fill-opacity="0"/>\n</svg>