<svg id="function random() { [native code] }" xmlns="http://www.w3.org/2000/svg" version="1.1" width="200px" height="150px" viewBox="0 0 200 150">\n\t<style> #function random() { [native code] } {pointer-events:none; }  #function random() { [native code] } .event  { pointer-events:all;}  </style>\n\t<text x="163" y="134" font-family=" Helvetica" font-weight="900" font-size="12" fill="rgb(48,80,248)">N</text>\n\t<text x="163" y="146" font-family=" Helvetica" font-weight="900" font-size="12" fill="rgb(48,80,248)">H</text>\n\t<text x="92" y="134" font-family=" Helvetica" font-weight="900" font-size="12" fill="rgb(48,80,248)">N</text>\n\t<text x="92" y="146" font-family=" Helvetica" font-weight="900" font-size="12" fill="rgb(48,80,248)">H</text>\n\t<text x="126" y="12" font-family=" Helvetica" font-weight="900" font-size="12" fill="rgb(31,240,31)">Cl</text>\n\t<text x="164" y="32" font-family=" Helvetica" font-weight="900" font-size="12" fill="rgb(144,224,80)">F</text>\n\t<text x="92" y="93" font-family=" Helvetica" font-weight="900" font-size="12" fill="rgb(48,80,248)">N</text>\n\t<text x="71" y="42" font-family=" Helvetica" font-weight="900" font-size="12" fill="rgb(48,80,248)">N</text>\n\t<text x="79" y="42" font-family=" Helvetica" font-weight="900" font-size="12" fill="rgb(48,80,248)">H</text>\n\t<text x="57" y="134" font-family=" Helvetica" font-weight="900" font-size="12" fill="rgb(255,13,13)">O</text>\n\t<line x1="61" y1="89" x2="79" y2="99" style="stroke:rgb(0,0,0);stroke-width:1"/>\n\t<line x1="65" y1="87" x2="79" y2="95" style="stroke:rgb(0,0,0);stroke-width:1"/>\n\t<line x1="79" y1="58" x2="61" y2="69" style="stroke:rgb(0,0,0);stroke-width:1"/>\n\t<line x1="75" y1="57" x2="62" y2="65" style="stroke:rgb(0,0,0);stroke-width:1"/>\n\t<line x1="132" y1="69" x2="114" y2="58" style="stroke:rgb(0,0,0);stroke-width:1"/>\n\t<line x1="132" y1="65" x2="118" y2="57" style="stroke:rgb(0,0,0);stroke-width:1"/>\n\t<line x1="150" y1="38" x2="150" y2="58" style="stroke:rgb(0,0,0);stroke-width:1"/>\n\t<line x1="147" y1="40" x2="147" y2="56" style="stroke:rgb(0,0,0);stroke-width:1"/>\n\t<line x1="114" y1="38" x2="132" y2="28" style="stroke:rgb(0,0,0);stroke-width:1"/>\n\t<line x1="118" y1="40" x2="132" y2="32" style="stroke:rgb(0,0,0);stroke-width:1"/>\n\t<line x1="97" y1="69" x2="97" y2="83" style="stroke:rgb(0,0,0);stroke-width:1"/>\n\t<line x1="94" y1="71" x2="94" y2="83" style="stroke:rgb(0,0,0);stroke-width:1"/>\n\t<line x1="43" y1="20" x2="55" y2="36" style="stroke:rgb(0,0,0);stroke-width:1"/>\n\t<line x1="42" y1="23" x2="51" y2="36" style="stroke:rgb(0,0,0);stroke-width:1"/>\n\t<line x1="14" y1="41" x2="22" y2="22" style="stroke:rgb(0,0,0);stroke-width:1"/>\n\t<line x1="18" y1="40" x2="24" y2="25" style="stroke:rgb(0,0,0);stroke-width:1"/>\n\t<line x1="46" y1="55" x2="26" y2="57" style="stroke:rgb(0,0,0);stroke-width:1"/>\n\t<line x1="44" y1="52" x2="28" y2="54" style="stroke:rgb(0,0,0);stroke-width:1"/>\n\t<line x1="79" y1="118" x2="66" y2="125" style="stroke:rgb(0,0,0);stroke-width:1"/>\n\t<line x1="81" y1="120" x2="68" y2="128" style="stroke:rgb(0,0,0);stroke-width:1"/>\n\t<line x1="173" y1="126" x2="185" y2="119" style="stroke:rgb(0,0,0);stroke-width:1"/>\n\t<line x1="150" y1="119" x2="162" y2="126" style="stroke:rgb(0,0,0);stroke-width:1"/>\n\t<line x1="132" y1="130" x2="150" y2="119" style="stroke:rgb(0,0,0);stroke-width:1"/>\n\t<line x1="114" y1="119" x2="132" y2="130" style="stroke:rgb(0,0,0);stroke-width:1"/>\n\t<line x1="102" y1="126" x2="114" y2="119" style="stroke:rgb(0,0,0);stroke-width:1"/>\n\t<line x1="79" y1="119" x2="91" y2="126" style="stroke:rgb(0,0,0);stroke-width:1"/>\n\t<line x1="79" y1="99" x2="79" y2="119" style="stroke:rgb(0,0,0);stroke-width:1"/>\n\t<line x1="61" y1="69" x2="61" y2="89" style="stroke:rgb(0,0,0);stroke-width:1"/>\n\t<line x1="97" y1="69" x2="79" y2="58" style="stroke:rgb(0,0,0);stroke-width:1"/>\n\t<line x1="114" y1="58" x2="97" y2="69" style="stroke:rgb(0,0,0);stroke-width:1"/>\n\t<line x1="150" y1="58" x2="132" y2="69" style="stroke:rgb(0,0,0);stroke-width:1"/>\n\t<line x1="132" y1="28" x2="150" y2="38" style="stroke:rgb(0,0,0);stroke-width:1"/>\n\t<line x1="132" y1="14" x2="132" y2="28" style="stroke:rgb(0,0,0);stroke-width:1"/>\n\t<line x1="114" y1="38" x2="114" y2="58" style="stroke:rgb(0,0,0);stroke-width:1"/>\n\t<line x1="163" y1="31" x2="150" y2="38" style="stroke:rgb(0,0,0);stroke-width:1"/>\n\t<line x1="91" y1="92" x2="79" y2="99" style="stroke:rgb(0,0,0);stroke-width:1"/>\n\t<line x1="76" y1="44" x2="79" y2="58" style="stroke:rgb(0,0,0);stroke-width:1"/>\n\t<line x1="55" y1="36" x2="70" y2="38" style="stroke:rgb(0,0,0);stroke-width:1"/>\n\t<line x1="22" y1="22" x2="43" y2="20" style="stroke:rgb(0,0,0);stroke-width:1"/>\n\t<line x1="26" y1="57" x2="14" y2="41" style="stroke:rgb(0,0,0);stroke-width:1"/>\n\t<line x1="46" y1="55" x2="55" y2="36" style="stroke:rgb(0,0,0);stroke-width:1"/>\n\t<line x1="46" y1="55" x2="61" y2="69" style="stroke:rgb(0,0,0);stroke-width:1"/>\n\t<line id="function random() { [native code] }:Bond:8-7" class="event" x1="61" y1="89" x2="79" y2="99" stroke-width="8" stroke-opacity="0"/>\n\t<line id="function random() { [native code] }:Bond:10-9" class="event" x1="79" y1="58" x2="61" y2="69" stroke-width="8" stroke-opacity="0"/>\n\t<line id="function random() { [native code] }:Bond:13-12" class="event" x1="132" y1="69" x2="114" y2="58" stroke-width="8" stroke-opacity="0"/>\n\t<line id="function random() { [native code] }:Bond:15-14" class="event" x1="150" y1="38" x2="150" y2="58" stroke-width="8" stroke-opacity="0"/>\n\t<line id="function random() { [native code] }:Bond:18-16" class="event" x1="114" y1="38" x2="132" y2="28" stroke-width="8" stroke-opacity="0"/>\n\t<line id="function random() { [native code] }:Bond:20-11" class="event" x1="97" y1="89" x2="97" y2="69" stroke-width="8" stroke-opacity="0"/>\n\t<line id="function random() { [native code] }:Bond:23-22" class="event" x1="43" y1="20" x2="55" y2="36" stroke-width="8" stroke-opacity="0"/>\n\t<line id="function random() { [native code] }:Bond:25-24" class="event" x1="14" y1="41" x2="22" y2="22" stroke-width="8" stroke-opacity="0"/>\n\t<line id="function random() { [native code] }:Bond:27-26" class="event" x1="46" y1="55" x2="26" y2="57" stroke-width="8" stroke-opacity="0"/>\n\t<line id="function random() { [native code] }:Bond:28-6" class="event" x1="61" y1="130" x2="79" y2="119" stroke-width="8" stroke-opacity="0"/>\n\t<line id="function random() { [native code] }:Bond:1-0" class="event" x1="167" y1="130" x2="185" y2="119" stroke-width="8" stroke-opacity="0"/>\n\t<line id="function random() { [native code] }:Bond:2-1" class="event" x1="150" y1="119" x2="167" y2="130" stroke-width="8" stroke-opacity="0"/>\n\t<line id="function random() { [native code] }:Bond:3-2" class="event" x1="132" y1="130" x2="150" y2="119" stroke-width="8" stroke-opacity="0"/>\n\t<line id="function random() { [native code] }:Bond:4-3" class="event" x1="114" y1="119" x2="132" y2="130" stroke-width="8" stroke-opacity="0"/>\n\t<line id="function random() { [native code] }:Bond:5-4" class="event" x1="97" y1="130" x2="114" y2="119" stroke-width="8" stroke-opacity="0"/>\n\t<line id="function random() { [native code] }:Bond:6-5" class="event" x1="79" y1="119" x2="97" y2="130" stroke-width="8" stroke-opacity="0"/>\n\t<line id="function random() { [native code] }:Bond:7-6" class="event" x1="79" y1="99" x2="79" y2="119" stroke-width="8" stroke-opacity="0"/>\n\t<line id="function random() { [native code] }:Bond:9-8" class="event" x1="61" y1="69" x2="61" y2="89" stroke-width="8" stroke-opacity="0"/>\n\t<line id="function random() { [native code] }:Bond:11-10" class="event" x1="97" y1="69" x2="79" y2="58" stroke-width="8" stroke-opacity="0"/>\n\t<line id="function random() { [native code] }:Bond:12-11" class="event" x1="114" y1="58" x2="97" y2="69" stroke-width="8" stroke-opacity="0"/>\n\t<line id="function random() { [native code] }:Bond:14-13" class="event" x1="150" y1="58" x2="132" y2="69" stroke-width="8" stroke-opacity="0"/>\n\t<line id="function random() { [native code] }:Bond:16-15" class="event" x1="132" y1="28" x2="150" y2="38" stroke-width="8" stroke-opacity="0"/>\n\t<line id="function random() { [native code] }:Bond:17-16" class="event" x1="132" y1="8" x2="132" y2="28" stroke-width="8" stroke-opacity="0"/>\n\t<line id="function random() { [native code] }:Bond:18-12" class="event" x1="114" y1="38" x2="114" y2="58" stroke-width="8" stroke-opacity="0"/>\n\t<line id="function random() { [native code] }:Bond:19-15" class="event" x1="167" y1="28" x2="150" y2="38" stroke-width="8" stroke-opacity="0"/>\n\t<line id="function random() { [native code] }:Bond:20-7" class="event" x1="97" y1="89" x2="79" y2="99" stroke-width="8" stroke-opacity="0"/>\n\t<line id="function random() { [native code] }:Bond:21-10" class="event" x1="75" y1="38" x2="79" y2="58" stroke-width="8" stroke-opacity="0"/>\n\t<line id="function random() { [native code] }:Bond:22-21" class="event" x1="55" y1="36" x2="75" y2="38" stroke-width="8" stroke-opacity="0"/>\n\t<line id="function random() { [native code] }:Bond:24-23" class="event" x1="22" y1="22" x2="43" y2="20" stroke-width="8" stroke-opacity="0"/>\n\t<line id="function random() { [native code] }:Bond:26-25" class="event" x1="26" y1="57" x2="14" y2="41" stroke-width="8" stroke-opacity="0"/>\n\t<line id="function random() { [native code] }:Bond:27-22" class="event" x1="46" y1="55" x2="55" y2="36" stroke-width="8" stroke-opacity="0"/>\n\t<line id="function random() { [native code] }:Bond:27-9" class="event" x1="46" y1="55" x2="61" y2="69" stroke-width="8" stroke-opacity="0"/>\n\t<circle id="function random() { [native code] }:Atom:0" class="event" cx="185" cy="119" r="8" fill-opacity="0"/>\n\t<circle id="function random() { [native code] }:Atom:1" class="event" cx="167" cy="130" r="8" fill-opacity="0"/>\n\t<circle id="function random() { [native code] }:Atom:2" class="event" cx="150" cy="119" r="8" fill-opacity="0"/>\n\t<circle id="function random() { [native code] }:Atom:3" class="event" cx="132" cy="130" r="8" fill-opacity="0"/>\n\t<circle id="function random() { [native code] }:Atom:4" class="event" cx="114" cy="119" r="8" fill-opacity="0"/>\n\t<circle id="function random() { [native code] }:Atom:5" class="event" cx="97" cy="130" r="8" fill-opacity="0"/>\n\t<circle id="function random() { [native code] }:Atom:6" class="event" cx="79" cy="119" r="8" fill-opacity="0"/>\n\t<circle id="function random() { [native code] }:Atom:7" class="event" cx="79" cy="99" r="8" fill-opacity="0"/>\n\t<circle id="function random() { [native code] }:Atom:8" class="event" cx="61" cy="89" r="8" fill-opacity="0"/>\n\t<circle id="function random() { [native code] }:Atom:9" class="event" cx="61" cy="69" r="8" fill-opacity="0"/>\n\t<circle id="function random() { [native code] }:Atom:10" class="event" cx="79" cy="58" r="8" fill-opacity="0"/>\n\t<circle id="function random() { [native code] }:Atom:11" class="event" cx="97" cy="69" r="8" fill-opacity="0"/>\n\t<circle id="function random() { [native code] }:Atom:12" class="event" cx="114" cy="58" r="8" fill-opacity="0"/>\n\t<circle id="function random() { [native code] }:Atom:13" class="event" cx="132" cy="69" r="8" fill-opacity="0"/>\n\t<circle id="function random() { [native code] }:Atom:14" class="event" cx="150" cy="58" r="8" fill-opacity="0"/>\n\t<circle id="function random() { [native code] }:Atom:15" class="event" cx="150" cy="38" r="8" fill-opacity="0"/>\n\t<circle id="function random() { [native code] }:Atom:16" class="event" cx="132" cy="28" r="8" fill-opacity="0"/>\n\t<circle id="function random() { [native code] }:Atom:17" class="event" cx="132" cy="8" r="8" fill-opacity="0"/>\n\t<circle id="function random() { [native code] }:Atom:18" class="event" cx="114" cy="38" r="8" fill-opacity="0"/>\n\t<circle id="function random() { [native code] }:Atom:19" class="event" cx="167" cy="28" r="8" fill-opacity="0"/>\n\t<circle id="function random() { [native code] }:Atom:20" class="event" cx="97" cy="89" r="8" fill-opacity="0"/>\n\t<circle id="function random() { [native code] }:Atom:21" class="event" cx="75" cy="38" r="8" fill-opacity="0"/>\n\t<circle id="function random() { [native code] }:Atom:22" class="event" cx="55" cy="36" r="8" fill-opacity="0"/>\n\t<circle id="function random() { [native code] }:Atom:23" class="event" cx="43" cy="20" r="8" fill-opacity="0"/>\n\t<circle id="function random() { [native code] }:Atom:24" class="event" cx="22" cy="22" r="8" fill-opacity="0"/>\n\t<circle id="function random() { [native code] }:Atom:25" class="event" cx="14" cy="41" r="8" fill-opacity="0"/>\n\t<circle id="function random() { [native code] }:Atom:26" class="event" cx="26" cy="57" r="8" fill-opacity="0"/>\n\t<circle id="function random() { [native code] }:Atom:27" class="event" cx="46" cy="55" r="8" fill-opacity="0"/>\n\t<circle id="function random() { [native code] }:Atom:28" class="event" cx="61" cy="130" r="8" fill-opacity="0"/>\n</svg>