<svg id="function random() { [native code] }" xmlns="http://www.w3.org/2000/svg" version="1.1" width="200px" height="150px" viewBox="0 0 200 150">\n\t<style> #function random() { [native code] } {pointer-events:none; }  #function random() { [native code] } .event  { pointer-events:all;}  </style>\n\t<text x="154" y="123" font-family=" Helvetica" font-weight="900" font-size="12" fill="rgb(48,80,248)">N</text>\n\t<text x="154" y="111" font-family=" Helvetica" font-weight="900" font-size="12" fill="rgb(48,80,248)">H</text>\n\t<text x="101" y="134" font-family=" Helvetica" font-weight="900" font-size="12" fill="rgb(48,80,248)">N</text>\n\t<text x="101" y="146" font-family=" Helvetica" font-weight="900" font-size="12" fill="rgb(48,80,248)">H</text>\n\t<text x="135" y="11" font-family=" Helvetica" font-weight="900" font-size="12" fill="rgb(31,240,31)">Cl</text>\n\t<text x="101" y="93" font-family=" Helvetica" font-weight="900" font-size="12" fill="rgb(48,80,248)">N</text>\n\t<text x="79" y="42" font-family=" Helvetica" font-weight="900" font-size="12" fill="rgb(48,80,248)">N</text>\n\t<text x="88" y="42" font-family=" Helvetica" font-weight="900" font-size="12" fill="rgb(48,80,248)">H</text>\n\t<text x="66" y="134" font-family=" Helvetica" font-weight="900" font-size="12" fill="rgb(255,13,13)">O</text>\n\t<line x1="70" y1="89" x2="88" y2="99" style="stroke:rgb(0,0,0);stroke-width:1"/>\n\t<line x1="74" y1="87" x2="88" y2="95" style="stroke:rgb(0,0,0);stroke-width:1"/>\n\t<line x1="88" y1="58" x2="70" y2="69" style="stroke:rgb(0,0,0);stroke-width:1"/>\n\t<line x1="84" y1="57" x2="71" y2="65" style="stroke:rgb(0,0,0);stroke-width:1"/>\n\t<line x1="141" y1="69" x2="123" y2="58" style="stroke:rgb(0,0,0);stroke-width:1"/>\n\t<line x1="140" y1="65" x2="127" y2="57" style="stroke:rgb(0,0,0);stroke-width:1"/>\n\t<line x1="158" y1="38" x2="158" y2="58" style="stroke:rgb(0,0,0);stroke-width:1"/>\n\t<line x1="155" y1="40" x2="155" y2="56" style="stroke:rgb(0,0,0);stroke-width:1"/>\n\t<line x1="123" y1="38" x2="141" y2="28" style="stroke:rgb(0,0,0);stroke-width:1"/>\n\t<line x1="127" y1="40" x2="140" y2="32" style="stroke:rgb(0,0,0);stroke-width:1"/>\n\t<line x1="106" y1="69" x2="106" y2="83" style="stroke:rgb(0,0,0);stroke-width:1"/>\n\t<line x1="102" y1="71" x2="102" y2="83" style="stroke:rgb(0,0,0);stroke-width:1"/>\n\t<line x1="51" y1="20" x2="63" y2="36" style="stroke:rgb(0,0,0);stroke-width:1"/>\n\t<line x1="50" y1="23" x2="60" y2="36" style="stroke:rgb(0,0,0);stroke-width:1"/>\n\t<line x1="23" y1="41" x2="31" y2="22" style="stroke:rgb(0,0,0);stroke-width:1"/>\n\t<line x1="27" y1="40" x2="33" y2="25" style="stroke:rgb(0,0,0);stroke-width:1"/>\n\t<line x1="55" y1="55" x2="35" y2="57" style="stroke:rgb(0,0,0);stroke-width:1"/>\n\t<line x1="53" y1="52" x2="37" y2="54" style="stroke:rgb(0,0,0);stroke-width:1"/>\n\t<line x1="88" y1="118" x2="75" y2="125" style="stroke:rgb(0,0,0);stroke-width:1"/>\n\t<line x1="89" y1="120" x2="77" y2="128" style="stroke:rgb(0,0,0);stroke-width:1"/>\n\t<line x1="164" y1="123" x2="176" y2="130" style="stroke:rgb(0,0,0);stroke-width:1"/>\n\t<line x1="141" y1="130" x2="153" y2="123" style="stroke:rgb(0,0,0);stroke-width:1"/>\n\t<line x1="123" y1="119" x2="141" y2="130" style="stroke:rgb(0,0,0);stroke-width:1"/>\n\t<line x1="111" y1="127" x2="123" y2="119" style="stroke:rgb(0,0,0);stroke-width:1"/>\n\t<line x1="88" y1="119" x2="100" y2="127" style="stroke:rgb(0,0,0);stroke-width:1"/>\n\t<line x1="88" y1="99" x2="88" y2="119" style="stroke:rgb(0,0,0);stroke-width:1"/>\n\t<line x1="70" y1="69" x2="70" y2="89" style="stroke:rgb(0,0,0);stroke-width:1"/>\n\t<line x1="106" y1="69" x2="88" y2="58" style="stroke:rgb(0,0,0);stroke-width:1"/>\n\t<line x1="123" y1="58" x2="106" y2="69" style="stroke:rgb(0,0,0);stroke-width:1"/>\n\t<line x1="158" y1="58" x2="141" y2="69" style="stroke:rgb(0,0,0);stroke-width:1"/>\n\t<line x1="141" y1="28" x2="158" y2="38" style="stroke:rgb(0,0,0);stroke-width:1"/>\n\t<line x1="141" y1="13" x2="141" y2="28" style="stroke:rgb(0,0,0);stroke-width:1"/>\n\t<line x1="123" y1="38" x2="123" y2="58" style="stroke:rgb(0,0,0);stroke-width:1"/>\n\t<line x1="100" y1="92" x2="88" y2="99" style="stroke:rgb(0,0,0);stroke-width:1"/>\n\t<line x1="85" y1="44" x2="88" y2="58" style="stroke:rgb(0,0,0);stroke-width:1"/>\n\t<line x1="63" y1="36" x2="78" y2="38" style="stroke:rgb(0,0,0);stroke-width:1"/>\n\t<line x1="31" y1="22" x2="51" y2="20" style="stroke:rgb(0,0,0);stroke-width:1"/>\n\t<line x1="35" y1="57" x2="23" y2="41" style="stroke:rgb(0,0,0);stroke-width:1"/>\n\t<line x1="55" y1="55" x2="63" y2="36" style="stroke:rgb(0,0,0);stroke-width:1"/>\n\t<line x1="55" y1="55" x2="70" y2="69" style="stroke:rgb(0,0,0);stroke-width:1"/>\n\t<line id="function random() { [native code] }:Bond:7-6" class="event" x1="70" y1="89" x2="88" y2="99" stroke-width="8" stroke-opacity="0"/>\n\t<line id="function random() { [native code] }:Bond:9-8" class="event" x1="88" y1="58" x2="70" y2="69" stroke-width="8" stroke-opacity="0"/>\n\t<line id="function random() { [native code] }:Bond:12-11" class="event" x1="141" y1="69" x2="123" y2="58" stroke-width="8" stroke-opacity="0"/>\n\t<line id="function random() { [native code] }:Bond:14-13" class="event" x1="158" y1="38" x2="158" y2="58" stroke-width="8" stroke-opacity="0"/>\n\t<line id="function random() { [native code] }:Bond:17-15" class="event" x1="123" y1="38" x2="141" y2="28" stroke-width="8" stroke-opacity="0"/>\n\t<line id="function random() { [native code] }:Bond:18-10" class="event" x1="106" y1="89" x2="106" y2="69" stroke-width="8" stroke-opacity="0"/>\n\t<line id="function random() { [native code] }:Bond:21-20" class="event" x1="51" y1="20" x2="63" y2="36" stroke-width="8" stroke-opacity="0"/>\n\t<line id="function random() { [native code] }:Bond:23-22" class="event" x1="23" y1="41" x2="31" y2="22" stroke-width="8" stroke-opacity="0"/>\n\t<line id="function random() { [native code] }:Bond:25-24" class="event" x1="55" y1="55" x2="35" y2="57" stroke-width="8" stroke-opacity="0"/>\n\t<line id="function random() { [native code] }:Bond:26-5" class="event" x1="70" y1="130" x2="88" y2="119" stroke-width="8" stroke-opacity="0"/>\n\t<line id="function random() { [native code] }:Bond:1-0" class="event" x1="158" y1="119" x2="176" y2="130" stroke-width="8" stroke-opacity="0"/>\n\t<line id="function random() { [native code] }:Bond:2-1" class="event" x1="141" y1="130" x2="158" y2="119" stroke-width="8" stroke-opacity="0"/>\n\t<line id="function random() { [native code] }:Bond:3-2" class="event" x1="123" y1="119" x2="141" y2="130" stroke-width="8" stroke-opacity="0"/>\n\t<line id="function random() { [native code] }:Bond:4-3" class="event" x1="106" y1="130" x2="123" y2="119" stroke-width="8" stroke-opacity="0"/>\n\t<line id="function random() { [native code] }:Bond:5-4" class="event" x1="88" y1="119" x2="106" y2="130" stroke-width="8" stroke-opacity="0"/>\n\t<line id="function random() { [native code] }:Bond:6-5" class="event" x1="88" y1="99" x2="88" y2="119" stroke-width="8" stroke-opacity="0"/>\n\t<line id="function random() { [native code] }:Bond:8-7" class="event" x1="70" y1="69" x2="70" y2="89" stroke-width="8" stroke-opacity="0"/>\n\t<line id="function random() { [native code] }:Bond:10-9" class="event" x1="106" y1="69" x2="88" y2="58" stroke-width="8" stroke-opacity="0"/>\n\t<line id="function random() { [native code] }:Bond:11-10" class="event" x1="123" y1="58" x2="106" y2="69" stroke-width="8" stroke-opacity="0"/>\n\t<line id="function random() { [native code] }:Bond:13-12" class="event" x1="158" y1="58" x2="141" y2="69" stroke-width="8" stroke-opacity="0"/>\n\t<line id="function random() { [native code] }:Bond:15-14" class="event" x1="141" y1="28" x2="158" y2="38" stroke-width="8" stroke-opacity="0"/>\n\t<line id="function random() { [native code] }:Bond:16-15" class="event" x1="141" y1="7" x2="141" y2="28" stroke-width="8" stroke-opacity="0"/>\n\t<line id="function random() { [native code] }:Bond:17-11" class="event" x1="123" y1="38" x2="123" y2="58" stroke-width="8" stroke-opacity="0"/>\n\t<line id="function random() { [native code] }:Bond:18-6" class="event" x1="106" y1="89" x2="88" y2="99" stroke-width="8" stroke-opacity="0"/>\n\t<line id="function random() { [native code] }:Bond:19-9" class="event" x1="84" y1="38" x2="88" y2="58" stroke-width="8" stroke-opacity="0"/>\n\t<line id="function random() { [native code] }:Bond:20-19" class="event" x1="63" y1="36" x2="84" y2="38" stroke-width="8" stroke-opacity="0"/>\n\t<line id="function random() { [native code] }:Bond:22-21" class="event" x1="31" y1="22" x2="51" y2="20" stroke-width="8" stroke-opacity="0"/>\n\t<line id="function random() { [native code] }:Bond:24-23" class="event" x1="35" y1="57" x2="23" y2="41" stroke-width="8" stroke-opacity="0"/>\n\t<line id="function random() { [native code] }:Bond:25-20" class="event" x1="55" y1="55" x2="63" y2="36" stroke-width="8" stroke-opacity="0"/>\n\t<line id="function random() { [native code] }:Bond:25-8" class="event" x1="55" y1="55" x2="70" y2="69" stroke-width="8" stroke-opacity="0"/>\n\t<circle id="function random() { [native code] }:Atom:0" class="event" cx="176" cy="130" r="8" fill-opacity="0"/>\n\t<circle id="function random() { [native code] }:Atom:1" class="event" cx="158" cy="119" r="8" fill-opacity="0"/>\n\t<circle id="function random() { [native code] }:Atom:2" class="event" cx="141" cy="130" r="8" fill-opacity="0"/>\n\t<circle id="function random() { [native code] }:Atom:3" class="event" cx="123" cy="119" r="8" fill-opacity="0"/>\n\t<circle id="function random() { [native code] }:Atom:4" class="event" cx="106" cy="130" r="8" fill-opacity="0"/>\n\t<circle id="function random() { [native code] }:Atom:5" class="event" cx="88" cy="119" r="8" fill-opacity="0"/>\n\t<circle id="function random() { [native code] }:Atom:6" class="event" cx="88" cy="99" r="8" fill-opacity="0"/>\n\t<circle id="function random() { [native code] }:Atom:7" class="event" cx="70" cy="89" r="8" fill-opacity="0"/>\n\t<circle id="function random() { [native code] }:Atom:8" class="event" cx="70" cy="69" r="8" fill-opacity="0"/>\n\t<circle id="function random() { [native code] }:Atom:9" class="event" cx="88" cy="58" r="8" fill-opacity="0"/>\n\t<circle id="function random() { [native code] }:Atom:10" class="event" cx="106" cy="69" r="8" fill-opacity="0"/>\n\t<circle id="function random() { [native code] }:Atom:11" class="event" cx="123" cy="58" r="8" fill-opacity="0"/>\n\t<circle id="function random() { [native code] }:Atom:12" class="event" cx="141" cy="69" r="8" fill-opacity="0"/>\n\t<circle id="function random() { [native code] }:Atom:13" class="event" cx="158" cy="58" r="8" fill-opacity="0"/>\n\t<circle id="function random() { [native code] }:Atom:14" class="event" cx="158" cy="38" r="8" fill-opacity="0"/>\n\t<circle id="function random() { [native code] }:Atom:15" class="event" cx="141" cy="28" r="8" fill-opacity="0"/>\n\t<circle id="function random() { [native code] }:Atom:16" class="event" cx="141" cy="7" r="8" fill-opacity="0"/>\n\t<circle id="function random() { [native code] }:Atom:17" class="event" cx="123" cy="38" r="8" fill-opacity="0"/>\n\t<circle id="function random() { [native code] }:Atom:18" class="event" cx="106" cy="89" r="8" fill-opacity="0"/>\n\t<circle id="function random() { [native code] }:Atom:19" class="event" cx="84" cy="38" r="8" fill-opacity="0"/>\n\t<circle id="function random() { [native code] }:Atom:20" class="event" cx="63" cy="36" r="8" fill-opacity="0"/>\n\t<circle id="function random() { [native code] }:Atom:21" class="event" cx="51" cy="20" r="8" fill-opacity="0"/>\n\t<circle id="function random() { [native code] }:Atom:22" class="event" cx="31" cy="22" r="8" fill-opacity="0"/>\n\t<circle id="function random() { [native code] }:Atom:23" class="event" cx="23" cy="41" r="8" fill-opacity="0"/>\n\t<circle id="function random() { [native code] }:Atom:24" class="event" cx="35" cy="57" r="8" fill-opacity="0"/>\n\t<circle id="function random() { [native code] }:Atom:25" class="event" cx="55" cy="55" r="8" fill-opacity="0"/>\n\t<circle id="function random() { [native code] }:Atom:26" class="event" cx="70" cy="130" r="8" fill-opacity="0"/>\n</svg>