<svg id="function random() { [native code] }" xmlns="http://www.w3.org/2000/svg" version="1.1" width="200px" height="150px" viewBox="0 0 200 150">\n\t<style> #function random() { [native code] } {pointer-events:none; }  #function random() { [native code] } .event  { pointer-events:all;}  </style>\n\t<text x="177" y="59" font-family=" Helvetica" font-weight="900" font-size="11" fill="rgb(48,80,248)">N</text>\n\t<text x="193" y="62" font-family=" Helvetica" font-weight="900" font-size="7" fill="rgb(48,80,248)">2</text>\n\t<text x="185" y="59" font-family=" Helvetica" font-weight="900" font-size="11" fill="rgb(48,80,248)">H</text>\n\t<text x="130" y="68" font-family=" Helvetica" font-weight="900" font-size="11" fill="rgb(48,80,248)">N</text>\n\t<text x="130" y="79" font-family=" Helvetica" font-weight="900" font-size="11" fill="rgb(48,80,248)">H</text>\n\t<text x="114" y="41" font-family=" Helvetica" font-weight="900" font-size="11" fill="rgb(255,13,13)">O</text>\n\t<text x="82" y="59" font-family=" Helvetica" font-weight="900" font-size="11" fill="rgb(48,80,248)">N</text>\n\t<text x="34" y="13" font-family=" Helvetica" font-weight="900" font-size="11" fill="rgb(31,240,31)">Cl</text>\n\t<text x="2" y="68" font-family=" Helvetica" font-weight="900" font-size="11" fill="rgb(31,240,31)">Cl</text>\n\t<text x="53" y="99" font-family=" Helvetica" font-weight="900" font-size="11" fill="rgb(48,80,248)">N</text>\n\t<text x="45" y="99" font-family=" Helvetica" font-weight="900" font-size="11" fill="rgb(48,80,248)">H</text>\n\t<line x1="119" y1="57" x2="119" y2="43" style="stroke:rgb(0,0,0);stroke-width:1"/>\n\t<line x1="117" y1="57" x2="117" y2="43" style="stroke:rgb(0,0,0);stroke-width:1"/>\n\t<line x1="102" y1="65" x2="91" y2="59" style="stroke:rgb(0,0,0);stroke-width:1"/>\n\t<line x1="99" y1="67" x2="90" y2="61" style="stroke:rgb(0,0,0);stroke-width:1"/>\n\t<line x1="55" y1="38" x2="55" y2="56" style="stroke:rgb(0,0,0);stroke-width:1"/>\n\t<line x1="52" y1="40" x2="52" y2="54" style="stroke:rgb(0,0,0);stroke-width:1"/>\n\t<line x1="23" y1="38" x2="39" y2="29" style="stroke:rgb(0,0,0);stroke-width:1"/>\n\t<line x1="26" y1="39" x2="39" y2="32" style="stroke:rgb(0,0,0);stroke-width:1"/>\n\t<line x1="39" y1="65" x2="23" y2="56" style="stroke:rgb(0,0,0);stroke-width:1"/>\n\t<line x1="39" y1="62" x2="26" y2="55" style="stroke:rgb(0,0,0);stroke-width:1"/>\n\t<line x1="71" y1="84" x2="71" y2="65" style="stroke:rgb(0,0,0);stroke-width:1"/>\n\t<line x1="73" y1="82" x2="73" y2="67" style="stroke:rgb(0,0,0);stroke-width:1"/>\n\t<line x1="57" y1="129" x2="64" y2="112" style="stroke:rgb(0,0,0);stroke-width:1"/>\n\t<line x1="60" y1="128" x2="66" y2="115" style="stroke:rgb(0,0,0);stroke-width:1"/>\n\t<line x1="86" y1="142" x2="68" y2="144" style="stroke:rgb(0,0,0);stroke-width:1"/>\n\t<line x1="84" y1="139" x2="69" y2="141" style="stroke:rgb(0,0,0);stroke-width:1"/>\n\t<line x1="83" y1="111" x2="93" y2="125" style="stroke:rgb(0,0,0);stroke-width:1"/>\n\t<line x1="81" y1="114" x2="90" y2="125" style="stroke:rgb(0,0,0);stroke-width:1"/>\n\t<line x1="102" y1="84" x2="86" y2="93" style="stroke:rgb(0,0,0);stroke-width:1"/>\n\t<line x1="99" y1="82" x2="87" y2="89" style="stroke:rgb(0,0,0);stroke-width:1"/>\n\t<line x1="165" y1="65" x2="176" y2="59" style="stroke:rgb(0,0,0);stroke-width:1"/>\n\t<line x1="150" y1="56" x2="165" y2="65" style="stroke:rgb(0,0,0);stroke-width:1"/>\n\t<line x1="139" y1="62" x2="150" y2="56" style="stroke:rgb(0,0,0);stroke-width:1"/>\n\t<line x1="118" y1="56" x2="129" y2="62" style="stroke:rgb(0,0,0);stroke-width:1"/>\n\t<line x1="102" y1="65" x2="118" y2="56" style="stroke:rgb(0,0,0);stroke-width:1"/>\n\t<line x1="71" y1="65" x2="81" y2="59" style="stroke:rgb(0,0,0);stroke-width:1"/>\n\t<line x1="55" y1="56" x2="71" y2="65" style="stroke:rgb(0,0,0);stroke-width:1"/>\n\t<line x1="39" y1="29" x2="55" y2="38" style="stroke:rgb(0,0,0);stroke-width:1"/>\n\t<line x1="39" y1="15" x2="39" y2="29" style="stroke:rgb(0,0,0);stroke-width:1"/>\n\t<line x1="23" y1="56" x2="23" y2="38" style="stroke:rgb(0,0,0);stroke-width:1"/>\n\t<line x1="13" y1="62" x2="23" y2="56" style="stroke:rgb(0,0,0);stroke-width:1"/>\n\t<line x1="39" y1="65" x2="55" y2="56" style="stroke:rgb(0,0,0);stroke-width:1"/>\n\t<line x1="62" y1="91" x2="71" y2="84" style="stroke:rgb(0,0,0);stroke-width:1"/>\n\t<line x1="64" y1="112" x2="59" y2="101" style="stroke:rgb(0,0,0);stroke-width:1"/>\n\t<line x1="68" y1="144" x2="57" y2="129" style="stroke:rgb(0,0,0);stroke-width:1"/>\n\t<line x1="93" y1="125" x2="86" y2="142" style="stroke:rgb(0,0,0);stroke-width:1"/>\n\t<line x1="83" y1="111" x2="64" y2="112" style="stroke:rgb(0,0,0);stroke-width:1"/>\n\t<line x1="86" y1="93" x2="83" y2="111" style="stroke:rgb(0,0,0);stroke-width:1"/>\n\t<line x1="86" y1="93" x2="71" y2="84" style="stroke:rgb(0,0,0);stroke-width:1"/>\n\t<line x1="102" y1="84" x2="102" y2="65" style="stroke:rgb(0,0,0);stroke-width:1"/>\n\t<line id="function random() { [native code] }:Bond:5-4" class="event" x1="118" y1="38" x2="118" y2="56" stroke-width="8" stroke-opacity="0"/>\n\t<line id="function random() { [native code] }:Bond:7-6" class="event" x1="86" y1="56" x2="102" y2="65" stroke-width="8" stroke-opacity="0"/>\n\t<line id="function random() { [native code] }:Bond:10-9" class="event" x1="55" y1="38" x2="55" y2="56" stroke-width="8" stroke-opacity="0"/>\n\t<line id="function random() { [native code] }:Bond:13-11" class="event" x1="23" y1="38" x2="39" y2="29" stroke-width="8" stroke-opacity="0"/>\n\t<line id="function random() { [native code] }:Bond:16-14" class="event" x1="39" y1="65" x2="23" y2="56" stroke-width="8" stroke-opacity="0"/>\n\t<line id="function random() { [native code] }:Bond:17-8" class="event" x1="71" y1="84" x2="71" y2="65" stroke-width="8" stroke-opacity="0"/>\n\t<line id="function random() { [native code] }:Bond:20-19" class="event" x1="57" y1="129" x2="64" y2="112" stroke-width="8" stroke-opacity="0"/>\n\t<line id="function random() { [native code] }:Bond:22-21" class="event" x1="86" y1="142" x2="68" y2="144" stroke-width="8" stroke-opacity="0"/>\n\t<line id="function random() { [native code] }:Bond:24-23" class="event" x1="83" y1="111" x2="93" y2="125" stroke-width="8" stroke-opacity="0"/>\n\t<line id="function random() { [native code] }:Bond:26-25" class="event" x1="102" y1="84" x2="86" y2="93" stroke-width="8" stroke-opacity="0"/>\n\t<line id="function random() { [native code] }:Bond:1-0" class="event" x1="165" y1="65" x2="181" y2="56" stroke-width="8" stroke-opacity="0"/>\n\t<line id="function random() { [native code] }:Bond:2-1" class="event" x1="150" y1="56" x2="165" y2="65" stroke-width="8" stroke-opacity="0"/>\n\t<line id="function random() { [native code] }:Bond:3-2" class="event" x1="134" y1="65" x2="150" y2="56" stroke-width="8" stroke-opacity="0"/>\n\t<line id="function random() { [native code] }:Bond:4-3" class="event" x1="118" y1="56" x2="134" y2="65" stroke-width="8" stroke-opacity="0"/>\n\t<line id="function random() { [native code] }:Bond:6-4" class="event" x1="102" y1="65" x2="118" y2="56" stroke-width="8" stroke-opacity="0"/>\n\t<line id="function random() { [native code] }:Bond:8-7" class="event" x1="71" y1="65" x2="86" y2="56" stroke-width="8" stroke-opacity="0"/>\n\t<line id="function random() { [native code] }:Bond:9-8" class="event" x1="55" y1="56" x2="71" y2="65" stroke-width="8" stroke-opacity="0"/>\n\t<line id="function random() { [native code] }:Bond:11-10" class="event" x1="39" y1="29" x2="55" y2="38" stroke-width="8" stroke-opacity="0"/>\n\t<line id="function random() { [native code] }:Bond:12-11" class="event" x1="39" y1="10" x2="39" y2="29" stroke-width="8" stroke-opacity="0"/>\n\t<line id="function random() { [native code] }:Bond:14-13" class="event" x1="23" y1="56" x2="23" y2="38" stroke-width="8" stroke-opacity="0"/>\n\t<line id="function random() { [native code] }:Bond:15-14" class="event" x1="7" y1="65" x2="23" y2="56" stroke-width="8" stroke-opacity="0"/>\n\t<line id="function random() { [native code] }:Bond:16-9" class="event" x1="39" y1="65" x2="55" y2="56" stroke-width="8" stroke-opacity="0"/>\n\t<line id="function random() { [native code] }:Bond:18-17" class="event" x1="57" y1="96" x2="71" y2="84" stroke-width="8" stroke-opacity="0"/>\n\t<line id="function random() { [native code] }:Bond:19-18" class="event" x1="64" y1="112" x2="57" y2="96" stroke-width="8" stroke-opacity="0"/>\n\t<line id="function random() { [native code] }:Bond:21-20" class="event" x1="68" y1="144" x2="57" y2="129" stroke-width="8" stroke-opacity="0"/>\n\t<line id="function random() { [native code] }:Bond:23-22" class="event" x1="93" y1="125" x2="86" y2="142" stroke-width="8" stroke-opacity="0"/>\n\t<line id="function random() { [native code] }:Bond:24-19" class="event" x1="83" y1="111" x2="64" y2="112" stroke-width="8" stroke-opacity="0"/>\n\t<line id="function random() { [native code] }:Bond:25-24" class="event" x1="86" y1="93" x2="83" y2="111" stroke-width="8" stroke-opacity="0"/>\n\t<line id="function random() { [native code] }:Bond:25-17" class="event" x1="86" y1="93" x2="71" y2="84" stroke-width="8" stroke-opacity="0"/>\n\t<line id="function random() { [native code] }:Bond:26-6" class="event" x1="102" y1="84" x2="102" y2="65" stroke-width="8" stroke-opacity="0"/>\n\t<circle id="function random() { [native code] }:Atom:0" class="event" cx="181" cy="56" r="8" fill-opacity="0"/>\n\t<circle id="function random() { [native code] }:Atom:1" class="event" cx="165" cy="65" r="8" fill-opacity="0"/>\n\t<circle id="function random() { [native code] }:Atom:2" class="event" cx="150" cy="56" r="8" fill-opacity="0"/>\n\t<circle id="function random() { [native code] }:Atom:3" class="event" cx="134" cy="65" r="8" fill-opacity="0"/>\n\t<circle id="function random() { [native code] }:Atom:4" class="event" cx="118" cy="56" r="8" fill-opacity="0"/>\n\t<circle id="function random() { [native code] }:Atom:5" class="event" cx="118" cy="38" r="8" fill-opacity="0"/>\n\t<circle id="function random() { [native code] }:Atom:6" class="event" cx="102" cy="65" r="8" fill-opacity="0"/>\n\t<circle id="function random() { [native code] }:Atom:7" class="event" cx="86" cy="56" r="8" fill-opacity="0"/>\n\t<circle id="function random() { [native code] }:Atom:8" class="event" cx="71" cy="65" r="8" fill-opacity="0"/>\n\t<circle id="function random() { [native code] }:Atom:9" class="event" cx="55" cy="56" r="8" fill-opacity="0"/>\n\t<circle id="function random() { [native code] }:Atom:10" class="event" cx="55" cy="38" r="8" fill-opacity="0"/>\n\t<circle id="function random() { [native code] }:Atom:11" class="event" cx="39" cy="29" r="8" fill-opacity="0"/>\n\t<circle id="function random() { [native code] }:Atom:12" class="event" cx="39" cy="10" r="8" fill-opacity="0"/>\n\t<circle id="function random() { [native code] }:Atom:13" class="event" cx="23" cy="38" r="8" fill-opacity="0"/>\n\t<circle id="function random() { [native code] }:Atom:14" class="event" cx="23" cy="56" r="8" fill-opacity="0"/>\n\t<circle id="function random() { [native code] }:Atom:15" class="event" cx="7" cy="65" r="8" fill-opacity="0"/>\n\t<circle id="function random() { [native code] }:Atom:16" class="event" cx="39" cy="65" r="8" fill-opacity="0"/>\n\t<circle id="function random() { [native code] }:Atom:17" class="event" cx="71" cy="84" r="8" fill-opacity="0"/>\n\t<circle id="function random() { [native code] }:Atom:18" class="event" cx="57" cy="96" r="8" fill-opacity="0"/>\n\t<circle id="function random() { [native code] }:Atom:19" class="event" cx="64" cy="112" r="8" fill-opacity="0"/>\n\t<circle id="function random() { [native code] }:Atom:20" class="event" cx="57" cy="129" r="8" fill-opacity="0"/>\n\t<circle id="function random() { [native code] }:Atom:21" class="event" cx="68" cy="144" r="8" fill-opacity="0"/>\n\t<circle id="function random() { [native code] }:Atom:22" class="event" cx="86" cy="142" r="8" fill-opacity="0"/>\n\t<circle id="function random() { [native code] }:Atom:23" class="event" cx="93" cy="125" r="8" fill-opacity="0"/>\n\t<circle id="function random() { [native code] }:Atom:24" class="event" cx="83" cy="111" r="8" fill-opacity="0"/>\n\t<circle id="function random() { [native code] }:Atom:25" class="event" cx="86" cy="93" r="8" fill-opacity="0"/>\n\t<circle id="function random() { [native code] }:Atom:26" class="event" cx="102" cy="84" r="8" fill-opacity="0"/>\n</svg>