<svg id="function random() { [native code] }" xmlns="http://www.w3.org/2000/svg" version="1.1" width="200px" height="150px" viewBox="0 0 200 150">\n\t<style> #function random() { [native code] } {pointer-events:none; }  #function random() { [native code] } .event  { pointer-events:all;}  </style>\n\t<text x="155" y="90" font-family=" Helvetica" font-weight="900" font-size="11" fill="rgb(48,80,248)">N</text>\n\t<text x="163" y="90" font-family=" Helvetica" font-weight="900" font-size="11" fill="rgb(48,80,248)">H</text>\n\t<text x="106" y="95" font-family=" Helvetica" font-weight="900" font-size="11" fill="rgb(48,80,248)">N</text>\n\t<text x="152" y="33" font-family=" Helvetica" font-weight="900" font-size="11" fill="rgb(31,240,31)">Cl</text>\n\t<text x="121" y="15" font-family=" Helvetica" font-weight="900" font-size="11" fill="rgb(31,240,31)">Cl</text>\n\t<text x="75" y="113" font-family=" Helvetica" font-weight="900" font-size="11" fill="rgb(48,80,248)">N</text>\n\t<text x="75" y="102" font-family=" Helvetica" font-weight="900" font-size="11" fill="rgb(48,80,248)">H</text>\n\t<text x="13" y="113" font-family=" Helvetica" font-weight="900" font-size="11" fill="rgb(48,80,248)">N</text>\n\t<text x="91" y="140" font-family=" Helvetica" font-weight="900" font-size="11" fill="rgb(255,13,13)">O</text>\n\t<line x1="169" y1="101" x2="187" y2="103" style="stroke:rgb(0,0,0);stroke-width:1"/>\n\t<line x1="171" y1="104" x2="185" y2="106" style="stroke:rgb(0,0,0);stroke-width:1"/>\n\t<line x1="142" y1="110" x2="142" y2="92" style="stroke:rgb(0,0,0);stroke-width:1"/>\n\t<line x1="144" y1="108" x2="144" y2="95" style="stroke:rgb(0,0,0);stroke-width:1"/>\n\t<line x1="166" y1="132" x2="159" y2="116" style="stroke:rgb(0,0,0);stroke-width:1"/>\n\t<line x1="168" y1="130" x2="162" y2="117" style="stroke:rgb(0,0,0);stroke-width:1"/>\n\t<line x1="194" y1="120" x2="184" y2="134" style="stroke:rgb(0,0,0);stroke-width:1"/>\n\t<line x1="191" y1="120" x2="183" y2="131" style="stroke:rgb(0,0,0);stroke-width:1"/>\n\t<line x1="110" y1="110" x2="126" y2="119" style="stroke:rgb(0,0,0);stroke-width:1"/>\n\t<line x1="113" y1="109" x2="126" y2="116" style="stroke:rgb(0,0,0);stroke-width:1"/>\n\t<line x1="126" y1="83" x2="115" y2="90" style="stroke:rgb(0,0,0);stroke-width:1"/>\n\t<line x1="126" y1="87" x2="117" y2="92" style="stroke:rgb(0,0,0);stroke-width:1"/>\n\t<line x1="142" y1="57" x2="126" y2="66" style="stroke:rgb(0,0,0);stroke-width:1"/>\n\t<line x1="139" y1="55" x2="126" y2="62" style="stroke:rgb(0,0,0);stroke-width:1"/>\n\t<line x1="126" y1="30" x2="142" y2="39" style="stroke:rgb(0,0,0);stroke-width:1"/>\n\t<line x1="126" y1="33" x2="139" y2="40" style="stroke:rgb(0,0,0);stroke-width:1"/>\n\t<line x1="110" y1="57" x2="110" y2="39" style="stroke:rgb(0,0,0);stroke-width:1"/>\n\t<line x1="113" y1="55" x2="113" y2="40" style="stroke:rgb(0,0,0);stroke-width:1"/>\n\t<line x1="93" y1="119" x2="93" y2="132" style="stroke:rgb(0,0,0);stroke-width:1"/>\n\t<line x1="96" y1="119" x2="96" y2="132" style="stroke:rgb(0,0,0);stroke-width:1"/>\n\t<line x1="187" y1="103" x2="198" y2="89" style="stroke:rgb(0,0,0);stroke-width:1"/>\n\t<line x1="162" y1="92" x2="169" y2="101" style="stroke:rgb(0,0,0);stroke-width:1"/>\n\t<line x1="142" y1="92" x2="154" y2="89" style="stroke:rgb(0,0,0);stroke-width:1"/>\n\t<line x1="159" y1="116" x2="142" y2="110" style="stroke:rgb(0,0,0);stroke-width:1"/>\n\t<line x1="159" y1="116" x2="169" y2="101" style="stroke:rgb(0,0,0);stroke-width:1"/>\n\t<line x1="184" y1="134" x2="166" y2="132" style="stroke:rgb(0,0,0);stroke-width:1"/>\n\t<line x1="194" y1="120" x2="187" y2="103" style="stroke:rgb(0,0,0);stroke-width:1"/>\n\t<line x1="126" y1="119" x2="142" y2="110" style="stroke:rgb(0,0,0);stroke-width:1"/>\n\t<line x1="110" y1="97" x2="110" y2="110" style="stroke:rgb(0,0,0);stroke-width:1"/>\n\t<line x1="126" y1="83" x2="142" y2="92" style="stroke:rgb(0,0,0);stroke-width:1"/>\n\t<line x1="126" y1="66" x2="126" y2="83" style="stroke:rgb(0,0,0);stroke-width:1"/>\n\t<line x1="142" y1="39" x2="142" y2="57" style="stroke:rgb(0,0,0);stroke-width:1"/>\n\t<line x1="151" y1="33" x2="142" y2="39" style="stroke:rgb(0,0,0);stroke-width:1"/>\n\t<line x1="110" y1="39" x2="126" y2="30" style="stroke:rgb(0,0,0);stroke-width:1"/>\n\t<line x1="110" y1="57" x2="126" y2="66" style="stroke:rgb(0,0,0);stroke-width:1"/>\n\t<line x1="126" y1="17" x2="126" y2="30" style="stroke:rgb(0,0,0);stroke-width:1"/>\n\t<line x1="95" y1="119" x2="110" y2="110" style="stroke:rgb(0,0,0);stroke-width:1"/>\n\t<line x1="84" y1="113" x2="95" y2="119" style="stroke:rgb(0,0,0);stroke-width:1"/>\n\t<line x1="64" y1="119" x2="74" y2="113" style="stroke:rgb(0,0,0);stroke-width:1"/>\n\t<line x1="48" y1="110" x2="64" y2="119" style="stroke:rgb(0,0,0);stroke-width:1"/>\n\t<line x1="32" y1="119" x2="48" y2="110" style="stroke:rgb(0,0,0);stroke-width:1"/>\n\t<line x1="22" y1="113" x2="32" y2="119" style="stroke:rgb(0,0,0);stroke-width:1"/>\n\t<line x1="17" y1="92" x2="17" y2="105" style="stroke:rgb(0,0,0);stroke-width:1"/>\n\t<line x1="1" y1="119" x2="12" y2="113" style="stroke:rgb(0,0,0);stroke-width:1"/>\n\t<line id="function random() { [native code] }:Bond:2-1" class="event" x1="169" y1="101" x2="187" y2="103" stroke-width="8" stroke-opacity="0"/>\n\t<line id="function random() { [native code] }:Bond:5-4" class="event" x1="142" y1="110" x2="142" y2="92" stroke-width="8" stroke-opacity="0"/>\n\t<line id="function random() { [native code] }:Bond:7-6" class="event" x1="166" y1="132" x2="159" y2="116" stroke-width="8" stroke-opacity="0"/>\n\t<line id="function random() { [native code] }:Bond:9-8" class="event" x1="194" y1="120" x2="184" y2="134" stroke-width="8" stroke-opacity="0"/>\n\t<line id="function random() { [native code] }:Bond:11-10" class="event" x1="110" y1="110" x2="126" y2="119" stroke-width="8" stroke-opacity="0"/>\n\t<line id="function random() { [native code] }:Bond:13-12" class="event" x1="126" y1="83" x2="110" y2="92" stroke-width="8" stroke-opacity="0"/>\n\t<line id="function random() { [native code] }:Bond:15-14" class="event" x1="142" y1="57" x2="126" y2="66" stroke-width="8" stroke-opacity="0"/>\n\t<line id="function random() { [native code] }:Bond:18-16" class="event" x1="126" y1="30" x2="142" y2="39" stroke-width="8" stroke-opacity="0"/>\n\t<line id="function random() { [native code] }:Bond:20-19" class="event" x1="110" y1="57" x2="110" y2="39" stroke-width="8" stroke-opacity="0"/>\n\t<line id="function random() { [native code] }:Bond:30-22" class="event" x1="95" y1="137" x2="95" y2="119" stroke-width="8" stroke-opacity="0"/>\n\t<line id="function random() { [native code] }:Bond:1-0" class="event" x1="187" y1="103" x2="198" y2="89" stroke-width="8" stroke-opacity="0"/>\n\t<line id="function random() { [native code] }:Bond:3-2" class="event" x1="159" y1="87" x2="169" y2="101" stroke-width="8" stroke-opacity="0"/>\n\t<line id="function random() { [native code] }:Bond:4-3" class="event" x1="142" y1="92" x2="159" y2="87" stroke-width="8" stroke-opacity="0"/>\n\t<line id="function random() { [native code] }:Bond:6-5" class="event" x1="159" y1="116" x2="142" y2="110" stroke-width="8" stroke-opacity="0"/>\n\t<line id="function random() { [native code] }:Bond:6-2" class="event" x1="159" y1="116" x2="169" y2="101" stroke-width="8" stroke-opacity="0"/>\n\t<line id="function random() { [native code] }:Bond:8-7" class="event" x1="184" y1="134" x2="166" y2="132" stroke-width="8" stroke-opacity="0"/>\n\t<line id="function random() { [native code] }:Bond:9-1" class="event" x1="194" y1="120" x2="187" y2="103" stroke-width="8" stroke-opacity="0"/>\n\t<line id="function random() { [native code] }:Bond:10-5" class="event" x1="126" y1="119" x2="142" y2="110" stroke-width="8" stroke-opacity="0"/>\n\t<line id="function random() { [native code] }:Bond:12-11" class="event" x1="110" y1="92" x2="110" y2="110" stroke-width="8" stroke-opacity="0"/>\n\t<line id="function random() { [native code] }:Bond:13-4" class="event" x1="126" y1="83" x2="142" y2="92" stroke-width="8" stroke-opacity="0"/>\n\t<line id="function random() { [native code] }:Bond:14-13" class="event" x1="126" y1="66" x2="126" y2="83" stroke-width="8" stroke-opacity="0"/>\n\t<line id="function random() { [native code] }:Bond:16-15" class="event" x1="142" y1="39" x2="142" y2="57" stroke-width="8" stroke-opacity="0"/>\n\t<line id="function random() { [native code] }:Bond:17-16" class="event" x1="157" y1="30" x2="142" y2="39" stroke-width="8" stroke-opacity="0"/>\n\t<line id="function random() { [native code] }:Bond:19-18" class="event" x1="110" y1="39" x2="126" y2="30" stroke-width="8" stroke-opacity="0"/>\n\t<line id="function random() { [native code] }:Bond:20-14" class="event" x1="110" y1="57" x2="126" y2="66" stroke-width="8" stroke-opacity="0"/>\n\t<line id="function random() { [native code] }:Bond:21-18" class="event" x1="126" y1="12" x2="126" y2="30" stroke-width="8" stroke-opacity="0"/>\n\t<line id="function random() { [native code] }:Bond:22-11" class="event" x1="95" y1="119" x2="110" y2="110" stroke-width="8" stroke-opacity="0"/>\n\t<line id="function random() { [native code] }:Bond:23-22" class="event" x1="79" y1="110" x2="95" y2="119" stroke-width="8" stroke-opacity="0"/>\n\t<line id="function random() { [native code] }:Bond:24-23" class="event" x1="64" y1="119" x2="79" y2="110" stroke-width="8" stroke-opacity="0"/>\n\t<line id="function random() { [native code] }:Bond:25-24" class="event" x1="48" y1="110" x2="64" y2="119" stroke-width="8" stroke-opacity="0"/>\n\t<line id="function random() { [native code] }:Bond:26-25" class="event" x1="32" y1="119" x2="48" y2="110" stroke-width="8" stroke-opacity="0"/>\n\t<line id="function random() { [native code] }:Bond:27-26" class="event" x1="17" y1="110" x2="32" y2="119" stroke-width="8" stroke-opacity="0"/>\n\t<line id="function random() { [native code] }:Bond:28-27" class="event" x1="17" y1="92" x2="17" y2="110" stroke-width="8" stroke-opacity="0"/>\n\t<line id="function random() { [native code] }:Bond:29-27" class="event" x1="1" y1="119" x2="17" y2="110" stroke-width="8" stroke-opacity="0"/>\n\t<circle id="function random() { [native code] }:Atom:0" class="event" cx="198" cy="89" r="8" fill-opacity="0"/>\n\t<circle id="function random() { [native code] }:Atom:1" class="event" cx="187" cy="103" r="8" fill-opacity="0"/>\n\t<circle id="function random() { [native code] }:Atom:2" class="event" cx="169" cy="101" r="8" fill-opacity="0"/>\n\t<circle id="function random() { [native code] }:Atom:3" class="event" cx="159" cy="87" r="8" fill-opacity="0"/>\n\t<circle id="function random() { [native code] }:Atom:4" class="event" cx="142" cy="92" r="8" fill-opacity="0"/>\n\t<circle id="function random() { [native code] }:Atom:5" class="event" cx="142" cy="110" r="8" fill-opacity="0"/>\n\t<circle id="function random() { [native code] }:Atom:6" class="event" cx="159" cy="116" r="8" fill-opacity="0"/>\n\t<circle id="function random() { [native code] }:Atom:7" class="event" cx="166" cy="132" r="8" fill-opacity="0"/>\n\t<circle id="function random() { [native code] }:Atom:8" class="event" cx="184" cy="134" r="8" fill-opacity="0"/>\n\t<circle id="function random() { [native code] }:Atom:9" class="event" cx="194" cy="120" r="8" fill-opacity="0"/>\n\t<circle id="function random() { [native code] }:Atom:10" class="event" cx="126" cy="119" r="8" fill-opacity="0"/>\n\t<circle id="function random() { [native code] }:Atom:11" class="event" cx="110" cy="110" r="8" fill-opacity="0"/>\n\t<circle id="function random() { [native code] }:Atom:12" class="event" cx="110" cy="92" r="8" fill-opacity="0"/>\n\t<circle id="function random() { [native code] }:Atom:13" class="event" cx="126" cy="83" r="8" fill-opacity="0"/>\n\t<circle id="function random() { [native code] }:Atom:14" class="event" cx="126" cy="66" r="8" fill-opacity="0"/>\n\t<circle id="function random() { [native code] }:Atom:15" class="event" cx="142" cy="57" r="8" fill-opacity="0"/>\n\t<circle id="function random() { [native code] }:Atom:16" class="event" cx="142" cy="39" r="8" fill-opacity="0"/>\n\t<circle id="function random() { [native code] }:Atom:17" class="event" cx="157" cy="30" r="8" fill-opacity="0"/>\n\t<circle id="function random() { [native code] }:Atom:18" class="event" cx="126" cy="30" r="8" fill-opacity="0"/>\n\t<circle id="function random() { [native code] }:Atom:19" class="event" cx="110" cy="39" r="8" fill-opacity="0"/>\n\t<circle id="function random() { [native code] }:Atom:20" class="event" cx="110" cy="57" r="8" fill-opacity="0"/>\n\t<circle id="function random() { [native code] }:Atom:21" class="event" cx="126" cy="12" r="8" fill-opacity="0"/>\n\t<circle id="function random() { [native code] }:Atom:22" class="event" cx="95" cy="119" r="8" fill-opacity="0"/>\n\t<circle id="function random() { [native code] }:Atom:23" class="event" cx="79" cy="110" r="8" fill-opacity="0"/>\n\t<circle id="function random() { [native code] }:Atom:24" class="event" cx="64" cy="119" r="8" fill-opacity="0"/>\n\t<circle id="function random() { [native code] }:Atom:25" class="event" cx="48" cy="110" r="8" fill-opacity="0"/>\n\t<circle id="function random() { [native code] }:Atom:26" class="event" cx="32" cy="119" r="8" fill-opacity="0"/>\n\t<circle id="function random() { [native code] }:Atom:27" class="event" cx="17" cy="110" r="8" fill-opacity="0"/>\n\t<circle id="function random() { [native code] }:Atom:28" class="event" cx="17" cy="92" r="8" fill-opacity="0"/>\n\t<circle id="function random() { [native code] }:Atom:29" class="event" cx="1" cy="119" r="8" fill-opacity="0"/>\n\t<circle id="function random() { [native code] }:Atom:30" class="event" cx="95" cy="137" r="8" fill-opacity="0"/>\n</svg>