<svg id="function random() { [native code] }" xmlns="http://www.w3.org/2000/svg" version="1.1" width="200px" height="150px" viewBox="0 0 200 150">\n\t<style> #function random() { [native code] } {pointer-events:none; }  #function random() { [native code] } .event  { pointer-events:all;}  </style>\n\t<text x="180" y="60" font-family=" Helvetica" font-weight="900" font-size="10" fill="rgb(48,80,248)">N</text>\n\t<text x="180" y="70" font-family=" Helvetica" font-weight="900" font-size="10" fill="rgb(48,80,248)">H</text>\n\t<text x="121" y="60" font-family=" Helvetica" font-weight="900" font-size="10" fill="rgb(48,80,248)">N</text>\n\t<text x="121" y="70" font-family=" Helvetica" font-weight="900" font-size="10" fill="rgb(48,80,248)">H</text>\n\t<text x="106" y="35" font-family=" Helvetica" font-weight="900" font-size="10" fill="rgb(255,13,13)">O</text>\n\t<text x="50" y="89" font-family=" Helvetica" font-weight="900" font-size="10" fill="rgb(48,80,248)">N</text>\n\t<text x="42" y="89" font-family=" Helvetica" font-weight="900" font-size="10" fill="rgb(48,80,248)">H</text>\n\t<text x="2" y="26" font-family=" Helvetica" font-weight="900" font-size="10" fill="rgb(31,240,31)">Cl</text>\n\t<text x="4" y="60" font-family=" Helvetica" font-weight="900" font-size="10" fill="rgb(144,224,80)">F</text>\n\t<text x="77" y="52" font-family=" Helvetica" font-weight="900" font-size="10" fill="rgb(48,80,248)">N</text>\n\t<line x1="111" y1="50" x2="111" y2="37" style="stroke:rgb(0,0,0);stroke-width:1"/>\n\t<line x1="109" y1="50" x2="109" y2="37" style="stroke:rgb(0,0,0);stroke-width:1"/>\n\t<line x1="95" y1="74" x2="95" y2="57" style="stroke:rgb(0,0,0);stroke-width:1"/>\n\t<line x1="93" y1="72" x2="93" y2="59" style="stroke:rgb(0,0,0);stroke-width:1"/>\n\t<line x1="66" y1="74" x2="80" y2="83" style="stroke:rgb(0,0,0);stroke-width:1"/>\n\t<line x1="66" y1="78" x2="77" y2="84" style="stroke:rgb(0,0,0);stroke-width:1"/>\n\t<line x1="53" y1="117" x2="60" y2="101" style="stroke:rgb(0,0,0);stroke-width:1"/>\n\t<line x1="56" y1="116" x2="62" y2="104" style="stroke:rgb(0,0,0);stroke-width:1"/>\n\t<line x1="80" y1="129" x2="63" y2="130" style="stroke:rgb(0,0,0);stroke-width:1"/>\n\t<line x1="78" y1="126" x2="65" y2="128" style="stroke:rgb(0,0,0);stroke-width:1"/>\n\t<line x1="77" y1="99" x2="87" y2="113" style="stroke:rgb(0,0,0);stroke-width:1"/>\n\t<line x1="76" y1="102" x2="84" y2="113" style="stroke:rgb(0,0,0);stroke-width:1"/>\n\t<line x1="51" y1="32" x2="51" y2="49" style="stroke:rgb(0,0,0);stroke-width:1"/>\n\t<line x1="49" y1="34" x2="49" y2="47" style="stroke:rgb(0,0,0);stroke-width:1"/>\n\t<line x1="22" y1="32" x2="36" y2="23" style="stroke:rgb(0,0,0);stroke-width:1"/>\n\t<line x1="25" y1="33" x2="36" y2="27" style="stroke:rgb(0,0,0);stroke-width:1"/>\n\t<line x1="36" y1="57" x2="22" y2="49" style="stroke:rgb(0,0,0);stroke-width:1"/>\n\t<line x1="36" y1="54" x2="25" y2="48" style="stroke:rgb(0,0,0);stroke-width:1"/>\n\t<line x1="66" y1="57" x2="76" y2="52" style="stroke:rgb(0,0,0);stroke-width:1"/>\n\t<line x1="69" y1="59" x2="77" y2="54" style="stroke:rgb(0,0,0);stroke-width:1"/>\n\t<line x1="188" y1="55" x2="198" y2="49" style="stroke:rgb(0,0,0);stroke-width:1"/>\n\t<line x1="168" y1="49" x2="179" y2="55" style="stroke:rgb(0,0,0);stroke-width:1"/>\n\t<line x1="154" y1="57" x2="168" y2="49" style="stroke:rgb(0,0,0);stroke-width:1"/>\n\t<line x1="139" y1="49" x2="154" y2="57" style="stroke:rgb(0,0,0);stroke-width:1"/>\n\t<line x1="129" y1="55" x2="139" y2="49" style="stroke:rgb(0,0,0);stroke-width:1"/>\n\t<line x1="110" y1="49" x2="120" y2="55" style="stroke:rgb(0,0,0);stroke-width:1"/>\n\t<line x1="95" y1="57" x2="110" y2="49" style="stroke:rgb(0,0,0);stroke-width:1"/>\n\t<line x1="80" y1="83" x2="95" y2="74" style="stroke:rgb(0,0,0);stroke-width:1"/>\n\t<line x1="58" y1="81" x2="66" y2="74" style="stroke:rgb(0,0,0);stroke-width:1"/>\n\t<line x1="60" y1="101" x2="55" y2="91" style="stroke:rgb(0,0,0);stroke-width:1"/>\n\t<line x1="63" y1="130" x2="53" y2="117" style="stroke:rgb(0,0,0);stroke-width:1"/>\n\t<line x1="87" y1="113" x2="80" y2="129" style="stroke:rgb(0,0,0);stroke-width:1"/>\n\t<line x1="77" y1="99" x2="60" y2="101" style="stroke:rgb(0,0,0);stroke-width:1"/>\n\t<line x1="77" y1="99" x2="80" y2="83" style="stroke:rgb(0,0,0);stroke-width:1"/>\n\t<line x1="66" y1="57" x2="66" y2="74" style="stroke:rgb(0,0,0);stroke-width:1"/>\n\t<line x1="51" y1="49" x2="66" y2="57" style="stroke:rgb(0,0,0);stroke-width:1"/>\n\t<line x1="36" y1="23" x2="51" y2="32" style="stroke:rgb(0,0,0);stroke-width:1"/>\n\t<line x1="13" y1="27" x2="22" y2="32" style="stroke:rgb(0,0,0);stroke-width:1"/>\n\t<line x1="22" y1="49" x2="22" y2="32" style="stroke:rgb(0,0,0);stroke-width:1"/>\n\t<line x1="11" y1="55" x2="22" y2="49" style="stroke:rgb(0,0,0);stroke-width:1"/>\n\t<line x1="36" y1="57" x2="51" y2="49" style="stroke:rgb(0,0,0);stroke-width:1"/>\n\t<line x1="85" y1="52" x2="95" y2="57" style="stroke:rgb(0,0,0);stroke-width:1"/>\n\t<line id="function random() { [native code] }:Bond:7-6" class="event" x1="110" y1="32" x2="110" y2="49" stroke-width="8" stroke-opacity="0"/>\n\t<line id="function random() { [native code] }:Bond:9-8" class="event" x1="95" y1="74" x2="95" y2="57" stroke-width="8" stroke-opacity="0"/>\n\t<line id="function random() { [native code] }:Bond:11-10" class="event" x1="66" y1="74" x2="80" y2="83" stroke-width="8" stroke-opacity="0"/>\n\t<line id="function random() { [native code] }:Bond:14-13" class="event" x1="53" y1="117" x2="60" y2="101" stroke-width="8" stroke-opacity="0"/>\n\t<line id="function random() { [native code] }:Bond:16-15" class="event" x1="80" y1="129" x2="63" y2="130" stroke-width="8" stroke-opacity="0"/>\n\t<line id="function random() { [native code] }:Bond:18-17" class="event" x1="77" y1="99" x2="87" y2="113" stroke-width="8" stroke-opacity="0"/>\n\t<line id="function random() { [native code] }:Bond:21-20" class="event" x1="51" y1="32" x2="51" y2="49" stroke-width="8" stroke-opacity="0"/>\n\t<line id="function random() { [native code] }:Bond:23-22" class="event" x1="22" y1="32" x2="36" y2="23" stroke-width="8" stroke-opacity="0"/>\n\t<line id="function random() { [native code] }:Bond:27-25" class="event" x1="36" y1="57" x2="22" y2="49" stroke-width="8" stroke-opacity="0"/>\n\t<line id="function random() { [native code] }:Bond:28-19" class="event" x1="80" y1="49" x2="66" y2="57" stroke-width="8" stroke-opacity="0"/>\n\t<line id="function random() { [native code] }:Bond:1-0" class="event" x1="183" y1="57" x2="198" y2="49" stroke-width="8" stroke-opacity="0"/>\n\t<line id="function random() { [native code] }:Bond:2-1" class="event" x1="168" y1="49" x2="183" y2="57" stroke-width="8" stroke-opacity="0"/>\n\t<line id="function random() { [native code] }:Bond:3-2" class="event" x1="154" y1="57" x2="168" y2="49" stroke-width="8" stroke-opacity="0"/>\n\t<line id="function random() { [native code] }:Bond:4-3" class="event" x1="139" y1="49" x2="154" y2="57" stroke-width="8" stroke-opacity="0"/>\n\t<line id="function random() { [native code] }:Bond:5-4" class="event" x1="124" y1="57" x2="139" y2="49" stroke-width="8" stroke-opacity="0"/>\n\t<line id="function random() { [native code] }:Bond:6-5" class="event" x1="110" y1="49" x2="124" y2="57" stroke-width="8" stroke-opacity="0"/>\n\t<line id="function random() { [native code] }:Bond:8-6" class="event" x1="95" y1="57" x2="110" y2="49" stroke-width="8" stroke-opacity="0"/>\n\t<line id="function random() { [native code] }:Bond:10-9" class="event" x1="80" y1="83" x2="95" y2="74" stroke-width="8" stroke-opacity="0"/>\n\t<line id="function random() { [native code] }:Bond:12-11" class="event" x1="53" y1="86" x2="66" y2="74" stroke-width="8" stroke-opacity="0"/>\n\t<line id="function random() { [native code] }:Bond:13-12" class="event" x1="60" y1="101" x2="53" y2="86" stroke-width="8" stroke-opacity="0"/>\n\t<line id="function random() { [native code] }:Bond:15-14" class="event" x1="63" y1="130" x2="53" y2="117" stroke-width="8" stroke-opacity="0"/>\n\t<line id="function random() { [native code] }:Bond:17-16" class="event" x1="87" y1="113" x2="80" y2="129" stroke-width="8" stroke-opacity="0"/>\n\t<line id="function random() { [native code] }:Bond:18-13" class="event" x1="77" y1="99" x2="60" y2="101" stroke-width="8" stroke-opacity="0"/>\n\t<line id="function random() { [native code] }:Bond:18-10" class="event" x1="77" y1="99" x2="80" y2="83" stroke-width="8" stroke-opacity="0"/>\n\t<line id="function random() { [native code] }:Bond:19-11" class="event" x1="66" y1="57" x2="66" y2="74" stroke-width="8" stroke-opacity="0"/>\n\t<line id="function random() { [native code] }:Bond:20-19" class="event" x1="51" y1="49" x2="66" y2="57" stroke-width="8" stroke-opacity="0"/>\n\t<line id="function random() { [native code] }:Bond:22-21" class="event" x1="36" y1="23" x2="51" y2="32" stroke-width="8" stroke-opacity="0"/>\n\t<line id="function random() { [native code] }:Bond:24-23" class="event" x1="7" y1="23" x2="22" y2="32" stroke-width="8" stroke-opacity="0"/>\n\t<line id="function random() { [native code] }:Bond:25-23" class="event" x1="22" y1="49" x2="22" y2="32" stroke-width="8" stroke-opacity="0"/>\n\t<line id="function random() { [native code] }:Bond:26-25" class="event" x1="7" y1="57" x2="22" y2="49" stroke-width="8" stroke-opacity="0"/>\n\t<line id="function random() { [native code] }:Bond:27-20" class="event" x1="36" y1="57" x2="51" y2="49" stroke-width="8" stroke-opacity="0"/>\n\t<line id="function random() { [native code] }:Bond:28-8" class="event" x1="80" y1="49" x2="95" y2="57" stroke-width="8" stroke-opacity="0"/>\n\t<circle id="function random() { [native code] }:Atom:0" class="event" cx="198" cy="49" r="8" fill-opacity="0"/>\n\t<circle id="function random() { [native code] }:Atom:1" class="event" cx="183" cy="57" r="8" fill-opacity="0"/>\n\t<circle id="function random() { [native code] }:Atom:2" class="event" cx="168" cy="49" r="8" fill-opacity="0"/>\n\t<circle id="function random() { [native code] }:Atom:3" class="event" cx="154" cy="57" r="8" fill-opacity="0"/>\n\t<circle id="function random() { [native code] }:Atom:4" class="event" cx="139" cy="49" r="8" fill-opacity="0"/>\n\t<circle id="function random() { [native code] }:Atom:5" class="event" cx="124" cy="57" r="8" fill-opacity="0"/>\n\t<circle id="function random() { [native code] }:Atom:6" class="event" cx="110" cy="49" r="8" fill-opacity="0"/>\n\t<circle id="function random() { [native code] }:Atom:7" class="event" cx="110" cy="32" r="8" fill-opacity="0"/>\n\t<circle id="function random() { [native code] }:Atom:8" class="event" cx="95" cy="57" r="8" fill-opacity="0"/>\n\t<circle id="function random() { [native code] }:Atom:9" class="event" cx="95" cy="74" r="8" fill-opacity="0"/>\n\t<circle id="function random() { [native code] }:Atom:10" class="event" cx="80" cy="83" r="8" fill-opacity="0"/>\n\t<circle id="function random() { [native code] }:Atom:11" class="event" cx="66" cy="74" r="8" fill-opacity="0"/>\n\t<circle id="function random() { [native code] }:Atom:12" class="event" cx="53" cy="86" r="8" fill-opacity="0"/>\n\t<circle id="function random() { [native code] }:Atom:13" class="event" cx="60" cy="101" r="8" fill-opacity="0"/>\n\t<circle id="function random() { [native code] }:Atom:14" class="event" cx="53" cy="117" r="8" fill-opacity="0"/>\n\t<circle id="function random() { [native code] }:Atom:15" class="event" cx="63" cy="130" r="8" fill-opacity="0"/>\n\t<circle id="function random() { [native code] }:Atom:16" class="event" cx="80" cy="129" r="8" fill-opacity="0"/>\n\t<circle id="function random() { [native code] }:Atom:17" class="event" cx="87" cy="113" r="8" fill-opacity="0"/>\n\t<circle id="function random() { [native code] }:Atom:18" class="event" cx="77" cy="99" r="8" fill-opacity="0"/>\n\t<circle id="function random() { [native code] }:Atom:19" class="event" cx="66" cy="57" r="8" fill-opacity="0"/>\n\t<circle id="function random() { [native code] }:Atom:20" class="event" cx="51" cy="49" r="8" fill-opacity="0"/>\n\t<circle id="function random() { [native code] }:Atom:21" class="event" cx="51" cy="32" r="8" fill-opacity="0"/>\n\t<circle id="function random() { [native code] }:Atom:22" class="event" cx="36" cy="23" r="8" fill-opacity="0"/>\n\t<circle id="function random() { [native code] }:Atom:23" class="event" cx="22" cy="32" r="8" fill-opacity="0"/>\n\t<circle id="function random() { [native code] }:Atom:24" class="event" cx="7" cy="23" r="8" fill-opacity="0"/>\n\t<circle id="function random() { [native code] }:Atom:25" class="event" cx="22" cy="49" r="8" fill-opacity="0"/>\n\t<circle id="function random() { [native code] }:Atom:26" class="event" cx="7" cy="57" r="8" fill-opacity="0"/>\n\t<circle id="function random() { [native code] }:Atom:27" class="event" cx="36" cy="57" r="8" fill-opacity="0"/>\n\t<circle id="function random() { [native code] }:Atom:28" class="event" cx="80" cy="49" r="8" fill-opacity="0"/>\n</svg>