<svg id="function random() { [native code] }" xmlns="http://www.w3.org/2000/svg" version="1.1" width="200px" height="150px" viewBox="0 0 200 150">\n\t<style> #function random() { [native code] } {pointer-events:none; }  #function random() { [native code] } .event  { pointer-events:all;}  </style>\n\t<text x="112" y="46" font-family=" Helvetica" font-weight="900" font-size="11" fill="rgb(48,80,248)">N</text>\n\t<text x="79" y="27" font-family=" Helvetica" font-weight="900" font-size="11" fill="rgb(255,13,13)">O</text>\n\t<text x="63" y="56" font-family=" Helvetica" font-weight="900" font-size="11" fill="rgb(48,80,248)">N</text>\n\t<text x="63" y="67" font-family=" Helvetica" font-weight="900" font-size="11" fill="rgb(48,80,248)">H</text>\n\t<text x="14" y="46" font-family=" Helvetica" font-weight="900" font-size="11" fill="rgb(48,80,248)">N</text>\n\t<text x="142" y="87" font-family=" Helvetica" font-weight="900" font-size="11" fill="rgb(48,80,248)">N</text>\n\t<text x="150" y="87" font-family=" Helvetica" font-weight="900" font-size="11" fill="rgb(48,80,248)">H</text>\n\t<line x1="165" y1="15" x2="181" y2="24" style="stroke:rgb(0,0,0);stroke-width:1"/>\n\t<line x1="165" y1="18" x2="178" y2="26" style="stroke:rgb(0,0,0);stroke-width:1"/>\n\t<line x1="149" y1="43" x2="149" y2="24" style="stroke:rgb(0,0,0);stroke-width:1"/>\n\t<line x1="151" y1="41" x2="151" y2="26" style="stroke:rgb(0,0,0);stroke-width:1"/>\n\t<line x1="132" y1="53" x2="121" y2="46" style="stroke:rgb(0,0,0);stroke-width:1"/>\n\t<line x1="129" y1="54" x2="119" y2="49" style="stroke:rgb(0,0,0);stroke-width:1"/>\n\t<line x1="85" y1="44" x2="85" y2="29" style="stroke:rgb(0,0,0);stroke-width:1"/>\n\t<line x1="82" y1="44" x2="82" y2="29" style="stroke:rgb(0,0,0);stroke-width:1"/>\n\t<line x1="99" y1="72" x2="99" y2="53" style="stroke:rgb(0,0,0);stroke-width:1"/>\n\t<line x1="102" y1="70" x2="102" y2="55" style="stroke:rgb(0,0,0);stroke-width:1"/>\n\t<line x1="109" y1="115" x2="120" y2="100" style="stroke:rgb(0,0,0);stroke-width:1"/>\n\t<line x1="112" y1="115" x2="121" y2="103" style="stroke:rgb(0,0,0);stroke-width:1"/>\n\t<line x1="135" y1="134" x2="116" y2="132" style="stroke:rgb(0,0,0);stroke-width:1"/>\n\t<line x1="133" y1="131" x2="119" y2="129" style="stroke:rgb(0,0,0);stroke-width:1"/>\n\t<line x1="139" y1="102" x2="146" y2="119" style="stroke:rgb(0,0,0);stroke-width:1"/>\n\t<line x1="137" y1="104" x2="143" y2="118" style="stroke:rgb(0,0,0);stroke-width:1"/>\n\t<line x1="132" y1="72" x2="116" y2="81" style="stroke:rgb(0,0,0);stroke-width:1"/>\n\t<line x1="129" y1="70" x2="116" y2="78" style="stroke:rgb(0,0,0);stroke-width:1"/>\n\t<line x1="181" y1="43" x2="165" y2="53" style="stroke:rgb(0,0,0);stroke-width:1"/>\n\t<line x1="178" y1="42" x2="165" y2="49" style="stroke:rgb(0,0,0);stroke-width:1"/>\n\t<line x1="181" y1="24" x2="198" y2="15" style="stroke:rgb(0,0,0);stroke-width:1"/>\n\t<line x1="149" y1="24" x2="165" y2="15" style="stroke:rgb(0,0,0);stroke-width:1"/>\n\t<line x1="132" y1="53" x2="149" y2="43" style="stroke:rgb(0,0,0);stroke-width:1"/>\n\t<line x1="99" y1="53" x2="111" y2="46" style="stroke:rgb(0,0,0);stroke-width:1"/>\n\t<line x1="83" y1="43" x2="99" y2="53" style="stroke:rgb(0,0,0);stroke-width:1"/>\n\t<line x1="72" y1="50" x2="83" y2="43" style="stroke:rgb(0,0,0);stroke-width:1"/>\n\t<line x1="50" y1="43" x2="62" y2="50" style="stroke:rgb(0,0,0);stroke-width:1"/>\n\t<line x1="34" y1="53" x2="50" y2="43" style="stroke:rgb(0,0,0);stroke-width:1"/>\n\t<line x1="23" y1="46" x2="34" y2="53" style="stroke:rgb(0,0,0);stroke-width:1"/>\n\t<line x1="18" y1="24" x2="18" y2="38" style="stroke:rgb(0,0,0);stroke-width:1"/>\n\t<line x1="1" y1="53" x2="13" y2="46" style="stroke:rgb(0,0,0);stroke-width:1"/>\n\t<line x1="116" y1="81" x2="99" y2="72" style="stroke:rgb(0,0,0);stroke-width:1"/>\n\t<line x1="120" y1="100" x2="116" y2="81" style="stroke:rgb(0,0,0);stroke-width:1"/>\n\t<line x1="116" y1="132" x2="109" y2="115" style="stroke:rgb(0,0,0);stroke-width:1"/>\n\t<line x1="146" y1="119" x2="135" y2="134" style="stroke:rgb(0,0,0);stroke-width:1"/>\n\t<line x1="139" y1="102" x2="120" y2="100" style="stroke:rgb(0,0,0);stroke-width:1"/>\n\t<line x1="144" y1="89" x2="139" y2="102" style="stroke:rgb(0,0,0);stroke-width:1"/>\n\t<line x1="132" y1="72" x2="141" y2="80" style="stroke:rgb(0,0,0);stroke-width:1"/>\n\t<line x1="132" y1="72" x2="132" y2="53" style="stroke:rgb(0,0,0);stroke-width:1"/>\n\t<line x1="165" y1="53" x2="149" y2="43" style="stroke:rgb(0,0,0);stroke-width:1"/>\n\t<line x1="181" y1="43" x2="181" y2="24" style="stroke:rgb(0,0,0);stroke-width:1"/>\n\t<line id="function random() { [native code] }:Bond:2-1" class="event" x1="165" y1="15" x2="181" y2="24" stroke-width="8" stroke-opacity="0"/>\n\t<line id="function random() { [native code] }:Bond:4-3" class="event" x1="149" y1="43" x2="149" y2="24" stroke-width="8" stroke-opacity="0"/>\n\t<line id="function random() { [native code] }:Bond:6-5" class="event" x1="116" y1="43" x2="132" y2="53" stroke-width="8" stroke-opacity="0"/>\n\t<line id="function random() { [native code] }:Bond:9-8" class="event" x1="83" y1="24" x2="83" y2="43" stroke-width="8" stroke-opacity="0"/>\n\t<line id="function random() { [native code] }:Bond:16-7" class="event" x1="99" y1="72" x2="99" y2="53" stroke-width="8" stroke-opacity="0"/>\n\t<line id="function random() { [native code] }:Bond:19-18" class="event" x1="109" y1="115" x2="120" y2="100" stroke-width="8" stroke-opacity="0"/>\n\t<line id="function random() { [native code] }:Bond:21-20" class="event" x1="135" y1="134" x2="116" y2="132" stroke-width="8" stroke-opacity="0"/>\n\t<line id="function random() { [native code] }:Bond:23-22" class="event" x1="139" y1="102" x2="146" y2="119" stroke-width="8" stroke-opacity="0"/>\n\t<line id="function random() { [native code] }:Bond:25-17" class="event" x1="132" y1="72" x2="116" y2="81" stroke-width="8" stroke-opacity="0"/>\n\t<line id="function random() { [native code] }:Bond:27-26" class="event" x1="181" y1="43" x2="165" y2="53" stroke-width="8" stroke-opacity="0"/>\n\t<line id="function random() { [native code] }:Bond:1-0" class="event" x1="181" y1="24" x2="198" y2="15" stroke-width="8" stroke-opacity="0"/>\n\t<line id="function random() { [native code] }:Bond:3-2" class="event" x1="149" y1="24" x2="165" y2="15" stroke-width="8" stroke-opacity="0"/>\n\t<line id="function random() { [native code] }:Bond:5-4" class="event" x1="132" y1="53" x2="149" y2="43" stroke-width="8" stroke-opacity="0"/>\n\t<line id="function random() { [native code] }:Bond:7-6" class="event" x1="99" y1="53" x2="116" y2="43" stroke-width="8" stroke-opacity="0"/>\n\t<line id="function random() { [native code] }:Bond:8-7" class="event" x1="83" y1="43" x2="99" y2="53" stroke-width="8" stroke-opacity="0"/>\n\t<line id="function random() { [native code] }:Bond:10-8" class="event" x1="67" y1="53" x2="83" y2="43" stroke-width="8" stroke-opacity="0"/>\n\t<line id="function random() { [native code] }:Bond:11-10" class="event" x1="50" y1="43" x2="67" y2="53" stroke-width="8" stroke-opacity="0"/>\n\t<line id="function random() { [native code] }:Bond:12-11" class="event" x1="34" y1="53" x2="50" y2="43" stroke-width="8" stroke-opacity="0"/>\n\t<line id="function random() { [native code] }:Bond:13-12" class="event" x1="18" y1="43" x2="34" y2="53" stroke-width="8" stroke-opacity="0"/>\n\t<line id="function random() { [native code] }:Bond:14-13" class="event" x1="18" y1="24" x2="18" y2="43" stroke-width="8" stroke-opacity="0"/>\n\t<line id="function random() { [native code] }:Bond:15-13" class="event" x1="1" y1="53" x2="18" y2="43" stroke-width="8" stroke-opacity="0"/>\n\t<line id="function random() { [native code] }:Bond:17-16" class="event" x1="116" y1="81" x2="99" y2="72" stroke-width="8" stroke-opacity="0"/>\n\t<line id="function random() { [native code] }:Bond:18-17" class="event" x1="120" y1="100" x2="116" y2="81" stroke-width="8" stroke-opacity="0"/>\n\t<line id="function random() { [native code] }:Bond:20-19" class="event" x1="116" y1="132" x2="109" y2="115" stroke-width="8" stroke-opacity="0"/>\n\t<line id="function random() { [native code] }:Bond:22-21" class="event" x1="146" y1="119" x2="135" y2="134" stroke-width="8" stroke-opacity="0"/>\n\t<line id="function random() { [native code] }:Bond:23-18" class="event" x1="139" y1="102" x2="120" y2="100" stroke-width="8" stroke-opacity="0"/>\n\t<line id="function random() { [native code] }:Bond:24-23" class="event" x1="146" y1="84" x2="139" y2="102" stroke-width="8" stroke-opacity="0"/>\n\t<line id="function random() { [native code] }:Bond:25-24" class="event" x1="132" y1="72" x2="146" y2="84" stroke-width="8" stroke-opacity="0"/>\n\t<line id="function random() { [native code] }:Bond:25-5" class="event" x1="132" y1="72" x2="132" y2="53" stroke-width="8" stroke-opacity="0"/>\n\t<line id="function random() { [native code] }:Bond:26-4" class="event" x1="165" y1="53" x2="149" y2="43" stroke-width="8" stroke-opacity="0"/>\n\t<line id="function random() { [native code] }:Bond:27-1" class="event" x1="181" y1="43" x2="181" y2="24" stroke-width="8" stroke-opacity="0"/>\n\t<circle id="function random() { [native code] }:Atom:0" class="event" cx="198" cy="15" r="8" fill-opacity="0"/>\n\t<circle id="function random() { [native code] }:Atom:1" class="event" cx="181" cy="24" r="8" fill-opacity="0"/>\n\t<circle id="function random() { [native code] }:Atom:2" class="event" cx="165" cy="15" r="8" fill-opacity="0"/>\n\t<circle id="function random() { [native code] }:Atom:3" class="event" cx="149" cy="24" r="8" fill-opacity="0"/>\n\t<circle id="function random() { [native code] }:Atom:4" class="event" cx="149" cy="43" r="8" fill-opacity="0"/>\n\t<circle id="function random() { [native code] }:Atom:5" class="event" cx="132" cy="53" r="8" fill-opacity="0"/>\n\t<circle id="function random() { [native code] }:Atom:6" class="event" cx="116" cy="43" r="8" fill-opacity="0"/>\n\t<circle id="function random() { [native code] }:Atom:7" class="event" cx="99" cy="53" r="8" fill-opacity="0"/>\n\t<circle id="function random() { [native code] }:Atom:8" class="event" cx="83" cy="43" r="8" fill-opacity="0"/>\n\t<circle id="function random() { [native code] }:Atom:9" class="event" cx="83" cy="24" r="8" fill-opacity="0"/>\n\t<circle id="function random() { [native code] }:Atom:10" class="event" cx="67" cy="53" r="8" fill-opacity="0"/>\n\t<circle id="function random() { [native code] }:Atom:11" class="event" cx="50" cy="43" r="8" fill-opacity="0"/>\n\t<circle id="function random() { [native code] }:Atom:12" class="event" cx="34" cy="53" r="8" fill-opacity="0"/>\n\t<circle id="function random() { [native code] }:Atom:13" class="event" cx="18" cy="43" r="8" fill-opacity="0"/>\n\t<circle id="function random() { [native code] }:Atom:14" class="event" cx="18" cy="24" r="8" fill-opacity="0"/>\n\t<circle id="function random() { [native code] }:Atom:15" class="event" cx="1" cy="53" r="8" fill-opacity="0"/>\n\t<circle id="function random() { [native code] }:Atom:16" class="event" cx="99" cy="72" r="8" fill-opacity="0"/>\n\t<circle id="function random() { [native code] }:Atom:17" class="event" cx="116" cy="81" r="8" fill-opacity="0"/>\n\t<circle id="function random() { [native code] }:Atom:18" class="event" cx="120" cy="100" r="8" fill-opacity="0"/>\n\t<circle id="function random() { [native code] }:Atom:19" class="event" cx="109" cy="115" r="8" fill-opacity="0"/>\n\t<circle id="function random() { [native code] }:Atom:20" class="event" cx="116" cy="132" r="8" fill-opacity="0"/>\n\t<circle id="function random() { [native code] }:Atom:21" class="event" cx="135" cy="134" r="8" fill-opacity="0"/>\n\t<circle id="function random() { [native code] }:Atom:22" class="event" cx="146" cy="119" r="8" fill-opacity="0"/>\n\t<circle id="function random() { [native code] }:Atom:23" class="event" cx="139" cy="102" r="8" fill-opacity="0"/>\n\t<circle id="function random() { [native code] }:Atom:24" class="event" cx="146" cy="84" r="8" fill-opacity="0"/>\n\t<circle id="function random() { [native code] }:Atom:25" class="event" cx="132" cy="72" r="8" fill-opacity="0"/>\n\t<circle id="function random() { [native code] }:Atom:26" class="event" cx="165" cy="53" r="8" fill-opacity="0"/>\n\t<circle id="function random() { [native code] }:Atom:27" class="event" cx="181" cy="43" r="8" fill-opacity="0"/>\n</svg>