<svg id="function random() { [native code] }" xmlns="http://www.w3.org/2000/svg" version="1.1" width="200px" height="150px" viewBox="0 0 200 150">\n\t<style> #function random() { [native code] } {pointer-events:none; }  #function random() { [native code] } .event  { pointer-events:all;}  </style>\n\t<text x="119" y="35" font-family=" Helvetica" font-weight="900" font-size="12" fill="rgb(255,13,13)">O</text>\n\t<text x="86" y="35" font-family=" Helvetica" font-weight="900" font-size="12" fill="rgb(48,80,248)">N</text>\n\t<text x="86" y="23" font-family=" Helvetica" font-weight="900" font-size="12" fill="rgb(48,80,248)">H</text>\n\t<text x="36" y="45" font-family=" Helvetica" font-weight="900" font-size="12" fill="rgb(48,80,248)">N</text>\n\t<text x="2" y="64" font-family=" Helvetica" font-weight="900" font-size="12" fill="rgb(255,13,13)">O</text>\n\t<text x="99" y="122" font-family=" Helvetica" font-weight="900" font-size="12" fill="rgb(48,80,248)">N</text>\n\t<text x="108" y="122" font-family=" Helvetica" font-weight="900" font-size="12" fill="rgb(48,80,248)">H</text>\n\t<text x="185" y="132" font-family=" Helvetica" font-weight="900" font-size="12" fill="rgb(31,240,31)">Cl</text>\n\t<text x="185" y="93" font-family=" Helvetica" font-weight="900" font-size="12" fill="rgb(31,240,31)">Cl</text>\n\t<text x="120" y="74" font-family=" Helvetica" font-weight="900" font-size="12" fill="rgb(48,80,248)">N</text>\n\t<line x1="107" y1="43" x2="119" y2="36" style="stroke:rgb(0,0,0);stroke-width:1"/>\n\t<line x1="106" y1="40" x2="118" y2="33" style="stroke:rgb(0,0,0);stroke-width:1"/>\n\t<line x1="91" y1="70" x2="107" y2="60" style="stroke:rgb(0,0,0);stroke-width:1"/>\n\t<line x1="94" y1="71" x2="107" y2="64" style="stroke:rgb(0,0,0);stroke-width:1"/>\n\t<line x1="57" y1="100" x2="76" y2="102" style="stroke:rgb(0,0,0);stroke-width:1"/>\n\t<line x1="59" y1="103" x2="74" y2="105" style="stroke:rgb(0,0,0);stroke-width:1"/>\n\t<line x1="54" y1="133" x2="46" y2="116" style="stroke:rgb(0,0,0);stroke-width:1"/>\n\t<line x1="55" y1="130" x2="49" y2="116" style="stroke:rgb(0,0,0);stroke-width:1"/>\n\t<line x1="84" y1="120" x2="73" y2="135" style="stroke:rgb(0,0,0);stroke-width:1"/>\n\t<line x1="81" y1="120" x2="72" y2="132" style="stroke:rgb(0,0,0);stroke-width:1"/>\n\t<line x1="107" y1="99" x2="91" y2="89" style="stroke:rgb(0,0,0);stroke-width:1"/>\n\t<line x1="107" y1="95" x2="94" y2="88" style="stroke:rgb(0,0,0);stroke-width:1"/>\n\t<line x1="141" y1="118" x2="141" y2="99" style="stroke:rgb(0,0,0);stroke-width:1"/>\n\t<line x1="144" y1="116" x2="144" y2="101" style="stroke:rgb(0,0,0);stroke-width:1"/>\n\t<line x1="174" y1="118" x2="158" y2="128" style="stroke:rgb(0,0,0);stroke-width:1"/>\n\t<line x1="171" y1="117" x2="158" y2="124" style="stroke:rgb(0,0,0);stroke-width:1"/>\n\t<line x1="158" y1="89" x2="174" y2="99" style="stroke:rgb(0,0,0);stroke-width:1"/>\n\t<line x1="158" y1="93" x2="171" y2="100" style="stroke:rgb(0,0,0);stroke-width:1"/>\n\t<line x1="124" y1="89" x2="124" y2="76" style="stroke:rgb(0,0,0);stroke-width:1"/>\n\t<line x1="121" y1="87" x2="121" y2="76" style="stroke:rgb(0,0,0);stroke-width:1"/>\n\t<line x1="96" y1="34" x2="107" y2="41" style="stroke:rgb(0,0,0);stroke-width:1"/>\n\t<line x1="74" y1="41" x2="85" y2="34" style="stroke:rgb(0,0,0);stroke-width:1"/>\n\t<line x1="57" y1="31" x2="74" y2="41" style="stroke:rgb(0,0,0);stroke-width:1"/>\n\t<line x1="46" y1="38" x2="57" y2="31" style="stroke:rgb(0,0,0);stroke-width:1"/>\n\t<line x1="24" y1="31" x2="35" y2="38" style="stroke:rgb(0,0,0);stroke-width:1"/>\n\t<line x1="7" y1="41" x2="24" y2="31" style="stroke:rgb(0,0,0);stroke-width:1"/>\n\t<line x1="7" y1="54" x2="7" y2="41" style="stroke:rgb(0,0,0);stroke-width:1"/>\n\t<line x1="24" y1="70" x2="13" y2="63" style="stroke:rgb(0,0,0);stroke-width:1"/>\n\t<line x1="40" y1="60" x2="24" y2="70" style="stroke:rgb(0,0,0);stroke-width:1"/>\n\t<line x1="40" y1="60" x2="40" y2="47" style="stroke:rgb(0,0,0);stroke-width:1"/>\n\t<line x1="107" y1="60" x2="107" y2="41" style="stroke:rgb(0,0,0);stroke-width:1"/>\n\t<line x1="91" y1="89" x2="91" y2="70" style="stroke:rgb(0,0,0);stroke-width:1"/>\n\t<line x1="76" y1="102" x2="91" y2="89" style="stroke:rgb(0,0,0);stroke-width:1"/>\n\t<line x1="46" y1="116" x2="57" y2="100" style="stroke:rgb(0,0,0);stroke-width:1"/>\n\t<line x1="73" y1="135" x2="54" y2="133" style="stroke:rgb(0,0,0);stroke-width:1"/>\n\t<line x1="84" y1="120" x2="76" y2="102" style="stroke:rgb(0,0,0);stroke-width:1"/>\n\t<line x1="98" y1="118" x2="84" y2="120" style="stroke:rgb(0,0,0);stroke-width:1"/>\n\t<line x1="107" y1="99" x2="105" y2="112" style="stroke:rgb(0,0,0);stroke-width:1"/>\n\t<line x1="124" y1="89" x2="107" y2="99" style="stroke:rgb(0,0,0);stroke-width:1"/>\n\t<line x1="141" y1="99" x2="124" y2="89" style="stroke:rgb(0,0,0);stroke-width:1"/>\n\t<line x1="158" y1="128" x2="141" y2="118" style="stroke:rgb(0,0,0);stroke-width:1"/>\n\t<line x1="184" y1="124" x2="174" y2="118" style="stroke:rgb(0,0,0);stroke-width:1"/>\n\t<line x1="174" y1="99" x2="174" y2="118" style="stroke:rgb(0,0,0);stroke-width:1"/>\n\t<line x1="184" y1="93" x2="174" y2="99" style="stroke:rgb(0,0,0);stroke-width:1"/>\n\t<line x1="158" y1="89" x2="141" y2="99" style="stroke:rgb(0,0,0);stroke-width:1"/>\n\t<line x1="119" y1="67" x2="107" y2="60" style="stroke:rgb(0,0,0);stroke-width:1"/>\n\t<line id="function random() { [native code] }:Bond:1-0" class="event" x1="107" y1="41" x2="124" y2="31" stroke-width="8" stroke-opacity="0"/>\n\t<line id="function random() { [native code] }:Bond:12-11" class="event" x1="91" y1="70" x2="107" y2="60" stroke-width="8" stroke-opacity="0"/>\n\t<line id="function random() { [native code] }:Bond:15-14" class="event" x1="57" y1="100" x2="76" y2="102" stroke-width="8" stroke-opacity="0"/>\n\t<line id="function random() { [native code] }:Bond:17-16" class="event" x1="54" y1="133" x2="46" y2="116" stroke-width="8" stroke-opacity="0"/>\n\t<line id="function random() { [native code] }:Bond:19-18" class="event" x1="84" y1="120" x2="73" y2="135" stroke-width="8" stroke-opacity="0"/>\n\t<line id="function random() { [native code] }:Bond:21-13" class="event" x1="107" y1="99" x2="91" y2="89" stroke-width="8" stroke-opacity="0"/>\n\t<line id="function random() { [native code] }:Bond:24-23" class="event" x1="141" y1="118" x2="141" y2="99" stroke-width="8" stroke-opacity="0"/>\n\t<line id="function random() { [native code] }:Bond:26-25" class="event" x1="174" y1="118" x2="158" y2="128" stroke-width="8" stroke-opacity="0"/>\n\t<line id="function random() { [native code] }:Bond:30-28" class="event" x1="158" y1="89" x2="174" y2="99" stroke-width="8" stroke-opacity="0"/>\n\t<line id="function random() { [native code] }:Bond:31-22" class="event" x1="124" y1="70" x2="124" y2="89" stroke-width="8" stroke-opacity="0"/>\n\t<line id="function random() { [native code] }:Bond:2-1" class="event" x1="91" y1="31" x2="107" y2="41" stroke-width="8" stroke-opacity="0"/>\n\t<line id="function random() { [native code] }:Bond:3-2" class="event" x1="74" y1="41" x2="91" y2="31" stroke-width="8" stroke-opacity="0"/>\n\t<line id="function random() { [native code] }:Bond:4-3" class="event" x1="57" y1="31" x2="74" y2="41" stroke-width="8" stroke-opacity="0"/>\n\t<line id="function random() { [native code] }:Bond:5-4" class="event" x1="40" y1="41" x2="57" y2="31" stroke-width="8" stroke-opacity="0"/>\n\t<line id="function random() { [native code] }:Bond:6-5" class="event" x1="24" y1="31" x2="40" y2="41" stroke-width="8" stroke-opacity="0"/>\n\t<line id="function random() { [native code] }:Bond:7-6" class="event" x1="7" y1="41" x2="24" y2="31" stroke-width="8" stroke-opacity="0"/>\n\t<line id="function random() { [native code] }:Bond:8-7" class="event" x1="7" y1="60" x2="7" y2="41" stroke-width="8" stroke-opacity="0"/>\n\t<line id="function random() { [native code] }:Bond:9-8" class="event" x1="24" y1="70" x2="7" y2="60" stroke-width="8" stroke-opacity="0"/>\n\t<line id="function random() { [native code] }:Bond:10-9" class="event" x1="40" y1="60" x2="24" y2="70" stroke-width="8" stroke-opacity="0"/>\n\t<line id="function random() { [native code] }:Bond:10-5" class="event" x1="40" y1="60" x2="40" y2="41" stroke-width="8" stroke-opacity="0"/>\n\t<line id="function random() { [native code] }:Bond:11-1" class="event" x1="107" y1="60" x2="107" y2="41" stroke-width="8" stroke-opacity="0"/>\n\t<line id="function random() { [native code] }:Bond:13-12" class="event" x1="91" y1="89" x2="91" y2="70" stroke-width="8" stroke-opacity="0"/>\n\t<line id="function random() { [native code] }:Bond:14-13" class="event" x1="76" y1="102" x2="91" y2="89" stroke-width="8" stroke-opacity="0"/>\n\t<line id="function random() { [native code] }:Bond:16-15" class="event" x1="46" y1="116" x2="57" y2="100" stroke-width="8" stroke-opacity="0"/>\n\t<line id="function random() { [native code] }:Bond:18-17" class="event" x1="73" y1="135" x2="54" y2="133" stroke-width="8" stroke-opacity="0"/>\n\t<line id="function random() { [native code] }:Bond:19-14" class="event" x1="84" y1="120" x2="76" y2="102" stroke-width="8" stroke-opacity="0"/>\n\t<line id="function random() { [native code] }:Bond:20-19" class="event" x1="103" y1="118" x2="84" y2="120" stroke-width="8" stroke-opacity="0"/>\n\t<line id="function random() { [native code] }:Bond:21-20" class="event" x1="107" y1="99" x2="103" y2="118" stroke-width="8" stroke-opacity="0"/>\n\t<line id="function random() { [native code] }:Bond:22-21" class="event" x1="124" y1="89" x2="107" y2="99" stroke-width="8" stroke-opacity="0"/>\n\t<line id="function random() { [native code] }:Bond:23-22" class="event" x1="141" y1="99" x2="124" y2="89" stroke-width="8" stroke-opacity="0"/>\n\t<line id="function random() { [native code] }:Bond:25-24" class="event" x1="158" y1="128" x2="141" y2="118" stroke-width="8" stroke-opacity="0"/>\n\t<line id="function random() { [native code] }:Bond:27-26" class="event" x1="191" y1="128" x2="174" y2="118" stroke-width="8" stroke-opacity="0"/>\n\t<line id="function random() { [native code] }:Bond:28-26" class="event" x1="174" y1="99" x2="174" y2="118" stroke-width="8" stroke-opacity="0"/>\n\t<line id="function random() { [native code] }:Bond:29-28" class="event" x1="191" y1="89" x2="174" y2="99" stroke-width="8" stroke-opacity="0"/>\n\t<line id="function random() { [native code] }:Bond:30-23" class="event" x1="158" y1="89" x2="141" y2="99" stroke-width="8" stroke-opacity="0"/>\n\t<line id="function random() { [native code] }:Bond:31-11" class="event" x1="124" y1="70" x2="107" y2="60" stroke-width="8" stroke-opacity="0"/>\n\t<circle id="function random() { [native code] }:Atom:0" class="event" cx="124" cy="31" r="8" fill-opacity="0"/>\n\t<circle id="function random() { [native code] }:Atom:1" class="event" cx="107" cy="41" r="8" fill-opacity="0"/>\n\t<circle id="function random() { [native code] }:Atom:2" class="event" cx="91" cy="31" r="8" fill-opacity="0"/>\n\t<circle id="function random() { [native code] }:Atom:3" class="event" cx="74" cy="41" r="8" fill-opacity="0"/>\n\t<circle id="function random() { [native code] }:Atom:4" class="event" cx="57" cy="31" r="8" fill-opacity="0"/>\n\t<circle id="function random() { [native code] }:Atom:5" class="event" cx="40" cy="41" r="8" fill-opacity="0"/>\n\t<circle id="function random() { [native code] }:Atom:6" class="event" cx="24" cy="31" r="8" fill-opacity="0"/>\n\t<circle id="function random() { [native code] }:Atom:7" class="event" cx="7" cy="41" r="8" fill-opacity="0"/>\n\t<circle id="function random() { [native code] }:Atom:8" class="event" cx="7" cy="60" r="8" fill-opacity="0"/>\n\t<circle id="function random() { [native code] }:Atom:9" class="event" cx="24" cy="70" r="8" fill-opacity="0"/>\n\t<circle id="function random() { [native code] }:Atom:10" class="event" cx="40" cy="60" r="8" fill-opacity="0"/>\n\t<circle id="function random() { [native code] }:Atom:11" class="event" cx="107" cy="60" r="8" fill-opacity="0"/>\n\t<circle id="function random() { [native code] }:Atom:12" class="event" cx="91" cy="70" r="8" fill-opacity="0"/>\n\t<circle id="function random() { [native code] }:Atom:13" class="event" cx="91" cy="89" r="8" fill-opacity="0"/>\n\t<circle id="function random() { [native code] }:Atom:14" class="event" cx="76" cy="102" r="8" fill-opacity="0"/>\n\t<circle id="function random() { [native code] }:Atom:15" class="event" cx="57" cy="100" r="8" fill-opacity="0"/>\n\t<circle id="function random() { [native code] }:Atom:16" class="event" cx="46" cy="116" r="8" fill-opacity="0"/>\n\t<circle id="function random() { [native code] }:Atom:17" class="event" cx="54" cy="133" r="8" fill-opacity="0"/>\n\t<circle id="function random() { [native code] }:Atom:18" class="event" cx="73" cy="135" r="8" fill-opacity="0"/>\n\t<circle id="function random() { [native code] }:Atom:19" class="event" cx="84" cy="120" r="8" fill-opacity="0"/>\n\t<circle id="function random() { [native code] }:Atom:20" class="event" cx="103" cy="118" r="8" fill-opacity="0"/>\n\t<circle id="function random() { [native code] }:Atom:21" class="event" cx="107" cy="99" r="8" fill-opacity="0"/>\n\t<circle id="function random() { [native code] }:Atom:22" class="event" cx="124" cy="89" r="8" fill-opacity="0"/>\n\t<circle id="function random() { [native code] }:Atom:23" class="event" cx="141" cy="99" r="8" fill-opacity="0"/>\n\t<circle id="function random() { [native code] }:Atom:24" class="event" cx="141" cy="118" r="8" fill-opacity="0"/>\n\t<circle id="function random() { [native code] }:Atom:25" class="event" cx="158" cy="128" r="8" fill-opacity="0"/>\n\t<circle id="function random() { [native code] }:Atom:26" class="event" cx="174" cy="118" r="8" fill-opacity="0"/>\n\t<circle id="function random() { [native code] }:Atom:27" class="event" cx="191" cy="128" r="8" fill-opacity="0"/>\n\t<circle id="function random() { [native code] }:Atom:28" class="event" cx="174" cy="99" r="8" fill-opacity="0"/>\n\t<circle id="function random() { [native code] }:Atom:29" class="event" cx="191" cy="89" r="8" fill-opacity="0"/>\n\t<circle id="function random() { [native code] }:Atom:30" class="event" cx="158" cy="89" r="8" fill-opacity="0"/>\n\t<circle id="function random() { [native code] }:Atom:31" class="event" cx="124" cy="70" r="8" fill-opacity="0"/>\n</svg>