<svg id="function random() { [native code] }" xmlns="http://www.w3.org/2000/svg" version="1.1" width="200px" height="150px" viewBox="0 0 200 150">\n\t<style> #function random() { [native code] } {pointer-events:none; }  #function random() { [native code] } .event  { pointer-events:all;}  </style>\n\t<text x="133" y="35" font-family=" Helvetica" font-weight="900" font-size="10" fill="rgb(255,13,13)">O</text>\n\t<text x="106" y="35" font-family=" Helvetica" font-weight="900" font-size="10" fill="rgb(48,80,248)">N</text>\n\t<text x="106" y="25" font-family=" Helvetica" font-weight="900" font-size="10" fill="rgb(48,80,248)">H</text>\n\t<text x="51" y="35" font-family=" Helvetica" font-weight="900" font-size="10" fill="rgb(48,80,248)">N</text>\n\t<text x="51" y="25" font-family=" Helvetica" font-weight="900" font-size="10" fill="rgb(48,80,248)">H</text>\n\t<text x="9" y="43" font-family=" Helvetica" font-weight="900" font-size="10" fill="rgb(255,13,13)">O</text>\n\t<text x="2" y="43" font-family=" Helvetica" font-weight="900" font-size="10" fill="rgb(255,13,13)">H</text>\n\t<text x="116" y="106" font-family=" Helvetica" font-weight="900" font-size="10" fill="rgb(48,80,248)">N</text>\n\t<text x="124" y="106" font-family=" Helvetica" font-weight="900" font-size="10" fill="rgb(48,80,248)">H</text>\n\t<text x="160" y="130" font-family=" Helvetica" font-weight="900" font-size="10" fill="rgb(31,240,31)">Cl</text>\n\t<text x="188" y="114" font-family=" Helvetica" font-weight="900" font-size="10" fill="rgb(31,240,31)">Cl</text>\n\t<text x="188" y="82" font-family=" Helvetica" font-weight="900" font-size="10" fill="rgb(31,240,31)">Cl</text>\n\t<text x="134" y="66" font-family=" Helvetica" font-weight="900" font-size="10" fill="rgb(48,80,248)">N</text>\n\t<line x1="123" y1="41" x2="133" y2="35" style="stroke:rgb(0,0,0);stroke-width:1"/>\n\t<line x1="122" y1="39" x2="132" y2="33" style="stroke:rgb(0,0,0);stroke-width:1"/>\n\t<line x1="110" y1="63" x2="123" y2="56" style="stroke:rgb(0,0,0);stroke-width:1"/>\n\t<line x1="112" y1="65" x2="123" y2="58" style="stroke:rgb(0,0,0);stroke-width:1"/>\n\t<line x1="82" y1="88" x2="98" y2="90" style="stroke:rgb(0,0,0);stroke-width:1"/>\n\t<line x1="83" y1="91" x2="96" y2="92" style="stroke:rgb(0,0,0);stroke-width:1"/>\n\t<line x1="79" y1="116" x2="72" y2="101" style="stroke:rgb(0,0,0);stroke-width:1"/>\n\t<line x1="80" y1="113" x2="75" y2="102" style="stroke:rgb(0,0,0);stroke-width:1"/>\n\t<line x1="104" y1="105" x2="95" y2="118" style="stroke:rgb(0,0,0);stroke-width:1"/>\n\t<line x1="101" y1="105" x2="94" y2="115" style="stroke:rgb(0,0,0);stroke-width:1"/>\n\t<line x1="123" y1="87" x2="110" y2="79" style="stroke:rgb(0,0,0);stroke-width:1"/>\n\t<line x1="123" y1="84" x2="112" y2="78" style="stroke:rgb(0,0,0);stroke-width:1"/>\n\t<line x1="151" y1="103" x2="151" y2="87" style="stroke:rgb(0,0,0);stroke-width:1"/>\n\t<line x1="153" y1="102" x2="153" y2="89" style="stroke:rgb(0,0,0);stroke-width:1"/>\n\t<line x1="179" y1="103" x2="165" y2="111" style="stroke:rgb(0,0,0);stroke-width:1"/>\n\t<line x1="176" y1="102" x2="165" y2="108" style="stroke:rgb(0,0,0);stroke-width:1"/>\n\t<line x1="165" y1="79" x2="179" y2="87" style="stroke:rgb(0,0,0);stroke-width:1"/>\n\t<line x1="165" y1="82" x2="176" y2="89" style="stroke:rgb(0,0,0);stroke-width:1"/>\n\t<line x1="137" y1="79" x2="137" y2="68" style="stroke:rgb(0,0,0);stroke-width:1"/>\n\t<line x1="135" y1="78" x2="135" y2="68" style="stroke:rgb(0,0,0);stroke-width:1"/>\n\t<line x1="114" y1="34" x2="123" y2="40" style="stroke:rgb(0,0,0);stroke-width:1"/>\n\t<line x1="96" y1="40" x2="105" y2="34" style="stroke:rgb(0,0,0);stroke-width:1"/>\n\t<line x1="82" y1="32" x2="96" y2="40" style="stroke:rgb(0,0,0);stroke-width:1"/>\n\t<line x1="68" y1="40" x2="82" y2="32" style="stroke:rgb(0,0,0);stroke-width:1"/>\n\t<line x1="59" y1="34" x2="68" y2="40" style="stroke:rgb(0,0,0);stroke-width:1"/>\n\t<line x1="41" y1="40" x2="50" y2="34" style="stroke:rgb(0,0,0);stroke-width:1"/>\n\t<line x1="27" y1="32" x2="41" y2="40" style="stroke:rgb(0,0,0);stroke-width:1"/>\n\t<line x1="18" y1="37" x2="27" y2="32" style="stroke:rgb(0,0,0);stroke-width:1"/>\n\t<line x1="123" y1="56" x2="123" y2="40" style="stroke:rgb(0,0,0);stroke-width:1"/>\n\t<line x1="110" y1="79" x2="110" y2="63" style="stroke:rgb(0,0,0);stroke-width:1"/>\n\t<line x1="98" y1="90" x2="110" y2="79" style="stroke:rgb(0,0,0);stroke-width:1"/>\n\t<line x1="72" y1="101" x2="82" y2="88" style="stroke:rgb(0,0,0);stroke-width:1"/>\n\t<line x1="95" y1="118" x2="79" y2="116" style="stroke:rgb(0,0,0);stroke-width:1"/>\n\t<line x1="104" y1="105" x2="98" y2="90" style="stroke:rgb(0,0,0);stroke-width:1"/>\n\t<line x1="115" y1="103" x2="104" y2="105" style="stroke:rgb(0,0,0);stroke-width:1"/>\n\t<line x1="123" y1="87" x2="121" y2="98" style="stroke:rgb(0,0,0);stroke-width:1"/>\n\t<line x1="137" y1="79" x2="123" y2="87" style="stroke:rgb(0,0,0);stroke-width:1"/>\n\t<line x1="151" y1="87" x2="137" y2="79" style="stroke:rgb(0,0,0);stroke-width:1"/>\n\t<line x1="165" y1="111" x2="151" y2="103" style="stroke:rgb(0,0,0);stroke-width:1"/>\n\t<line x1="165" y1="122" x2="165" y2="111" style="stroke:rgb(0,0,0);stroke-width:1"/>\n\t<line x1="187" y1="108" x2="179" y2="103" style="stroke:rgb(0,0,0);stroke-width:1"/>\n\t<line x1="179" y1="87" x2="179" y2="103" style="stroke:rgb(0,0,0);stroke-width:1"/>\n\t<line x1="187" y1="83" x2="179" y2="87" style="stroke:rgb(0,0,0);stroke-width:1"/>\n\t<line x1="165" y1="79" x2="151" y2="87" style="stroke:rgb(0,0,0);stroke-width:1"/>\n\t<line x1="133" y1="61" x2="123" y2="56" style="stroke:rgb(0,0,0);stroke-width:1"/>\n\t<line id="function random() { [native code] }:Bond:1-0" class="event" x1="123" y1="40" x2="137" y2="32" stroke-width="8" stroke-opacity="0"/>\n\t<line id="function random() { [native code] }:Bond:11-10" class="event" x1="110" y1="63" x2="123" y2="56" stroke-width="8" stroke-opacity="0"/>\n\t<line id="function random() { [native code] }:Bond:14-13" class="event" x1="82" y1="88" x2="98" y2="90" stroke-width="8" stroke-opacity="0"/>\n\t<line id="function random() { [native code] }:Bond:16-15" class="event" x1="79" y1="116" x2="72" y2="101" stroke-width="8" stroke-opacity="0"/>\n\t<line id="function random() { [native code] }:Bond:18-17" class="event" x1="104" y1="105" x2="95" y2="118" stroke-width="8" stroke-opacity="0"/>\n\t<line id="function random() { [native code] }:Bond:20-12" class="event" x1="123" y1="87" x2="110" y2="79" stroke-width="8" stroke-opacity="0"/>\n\t<line id="function random() { [native code] }:Bond:23-22" class="event" x1="151" y1="103" x2="151" y2="87" stroke-width="8" stroke-opacity="0"/>\n\t<line id="function random() { [native code] }:Bond:26-24" class="event" x1="179" y1="103" x2="165" y2="111" stroke-width="8" stroke-opacity="0"/>\n\t<line id="function random() { [native code] }:Bond:30-28" class="event" x1="165" y1="79" x2="179" y2="87" stroke-width="8" stroke-opacity="0"/>\n\t<line id="function random() { [native code] }:Bond:31-21" class="event" x1="137" y1="63" x2="137" y2="79" stroke-width="8" stroke-opacity="0"/>\n\t<line id="function random() { [native code] }:Bond:2-1" class="event" x1="110" y1="32" x2="123" y2="40" stroke-width="8" stroke-opacity="0"/>\n\t<line id="function random() { [native code] }:Bond:3-2" class="event" x1="96" y1="40" x2="110" y2="32" stroke-width="8" stroke-opacity="0"/>\n\t<line id="function random() { [native code] }:Bond:4-3" class="event" x1="82" y1="32" x2="96" y2="40" stroke-width="8" stroke-opacity="0"/>\n\t<line id="function random() { [native code] }:Bond:5-4" class="event" x1="68" y1="40" x2="82" y2="32" stroke-width="8" stroke-opacity="0"/>\n\t<line id="function random() { [native code] }:Bond:6-5" class="event" x1="54" y1="32" x2="68" y2="40" stroke-width="8" stroke-opacity="0"/>\n\t<line id="function random() { [native code] }:Bond:7-6" class="event" x1="41" y1="40" x2="54" y2="32" stroke-width="8" stroke-opacity="0"/>\n\t<line id="function random() { [native code] }:Bond:8-7" class="event" x1="27" y1="32" x2="41" y2="40" stroke-width="8" stroke-opacity="0"/>\n\t<line id="function random() { [native code] }:Bond:9-8" class="event" x1="13" y1="40" x2="27" y2="32" stroke-width="8" stroke-opacity="0"/>\n\t<line id="function random() { [native code] }:Bond:10-1" class="event" x1="123" y1="56" x2="123" y2="40" stroke-width="8" stroke-opacity="0"/>\n\t<line id="function random() { [native code] }:Bond:12-11" class="event" x1="110" y1="79" x2="110" y2="63" stroke-width="8" stroke-opacity="0"/>\n\t<line id="function random() { [native code] }:Bond:13-12" class="event" x1="98" y1="90" x2="110" y2="79" stroke-width="8" stroke-opacity="0"/>\n\t<line id="function random() { [native code] }:Bond:15-14" class="event" x1="72" y1="101" x2="82" y2="88" stroke-width="8" stroke-opacity="0"/>\n\t<line id="function random() { [native code] }:Bond:17-16" class="event" x1="95" y1="118" x2="79" y2="116" stroke-width="8" stroke-opacity="0"/>\n\t<line id="function random() { [native code] }:Bond:18-13" class="event" x1="104" y1="105" x2="98" y2="90" stroke-width="8" stroke-opacity="0"/>\n\t<line id="function random() { [native code] }:Bond:19-18" class="event" x1="120" y1="103" x2="104" y2="105" stroke-width="8" stroke-opacity="0"/>\n\t<line id="function random() { [native code] }:Bond:20-19" class="event" x1="123" y1="87" x2="120" y2="103" stroke-width="8" stroke-opacity="0"/>\n\t<line id="function random() { [native code] }:Bond:21-20" class="event" x1="137" y1="79" x2="123" y2="87" stroke-width="8" stroke-opacity="0"/>\n\t<line id="function random() { [native code] }:Bond:22-21" class="event" x1="151" y1="87" x2="137" y2="79" stroke-width="8" stroke-opacity="0"/>\n\t<line id="function random() { [native code] }:Bond:24-23" class="event" x1="165" y1="111" x2="151" y2="103" stroke-width="8" stroke-opacity="0"/>\n\t<line id="function random() { [native code] }:Bond:25-24" class="event" x1="165" y1="127" x2="165" y2="111" stroke-width="8" stroke-opacity="0"/>\n\t<line id="function random() { [native code] }:Bond:27-26" class="event" x1="192" y1="111" x2="179" y2="103" stroke-width="8" stroke-opacity="0"/>\n\t<line id="function random() { [native code] }:Bond:28-26" class="event" x1="179" y1="87" x2="179" y2="103" stroke-width="8" stroke-opacity="0"/>\n\t<line id="function random() { [native code] }:Bond:29-28" class="event" x1="192" y1="79" x2="179" y2="87" stroke-width="8" stroke-opacity="0"/>\n\t<line id="function random() { [native code] }:Bond:30-22" class="event" x1="165" y1="79" x2="151" y2="87" stroke-width="8" stroke-opacity="0"/>\n\t<line id="function random() { [native code] }:Bond:31-10" class="event" x1="137" y1="63" x2="123" y2="56" stroke-width="8" stroke-opacity="0"/>\n\t<circle id="function random() { [native code] }:Atom:0" class="event" cx="137" cy="32" r="8" fill-opacity="0"/>\n\t<circle id="function random() { [native code] }:Atom:1" class="event" cx="123" cy="40" r="8" fill-opacity="0"/>\n\t<circle id="function random() { [native code] }:Atom:2" class="event" cx="110" cy="32" r="8" fill-opacity="0"/>\n\t<circle id="function random() { [native code] }:Atom:3" class="event" cx="96" cy="40" r="8" fill-opacity="0"/>\n\t<circle id="function random() { [native code] }:Atom:4" class="event" cx="82" cy="32" r="8" fill-opacity="0"/>\n\t<circle id="function random() { [native code] }:Atom:5" class="event" cx="68" cy="40" r="8" fill-opacity="0"/>\n\t<circle id="function random() { [native code] }:Atom:6" class="event" cx="54" cy="32" r="8" fill-opacity="0"/>\n\t<circle id="function random() { [native code] }:Atom:7" class="event" cx="41" cy="40" r="8" fill-opacity="0"/>\n\t<circle id="function random() { [native code] }:Atom:8" class="event" cx="27" cy="32" r="8" fill-opacity="0"/>\n\t<circle id="function random() { [native code] }:Atom:9" class="event" cx="13" cy="40" r="8" fill-opacity="0"/>\n\t<circle id="function random() { [native code] }:Atom:10" class="event" cx="123" cy="56" r="8" fill-opacity="0"/>\n\t<circle id="function random() { [native code] }:Atom:11" class="event" cx="110" cy="63" r="8" fill-opacity="0"/>\n\t<circle id="function random() { [native code] }:Atom:12" class="event" cx="110" cy="79" r="8" fill-opacity="0"/>\n\t<circle id="function random() { [native code] }:Atom:13" class="event" cx="98" cy="90" r="8" fill-opacity="0"/>\n\t<circle id="function random() { [native code] }:Atom:14" class="event" cx="82" cy="88" r="8" fill-opacity="0"/>\n\t<circle id="function random() { [native code] }:Atom:15" class="event" cx="72" cy="101" r="8" fill-opacity="0"/>\n\t<circle id="function random() { [native code] }:Atom:16" class="event" cx="79" cy="116" r="8" fill-opacity="0"/>\n\t<circle id="function random() { [native code] }:Atom:17" class="event" cx="95" cy="118" r="8" fill-opacity="0"/>\n\t<circle id="function random() { [native code] }:Atom:18" class="event" cx="104" cy="105" r="8" fill-opacity="0"/>\n\t<circle id="function random() { [native code] }:Atom:19" class="event" cx="120" cy="103" r="8" fill-opacity="0"/>\n\t<circle id="function random() { [native code] }:Atom:20" class="event" cx="123" cy="87" r="8" fill-opacity="0"/>\n\t<circle id="function random() { [native code] }:Atom:21" class="event" cx="137" cy="79" r="8" fill-opacity="0"/>\n\t<circle id="function random() { [native code] }:Atom:22" class="event" cx="151" cy="87" r="8" fill-opacity="0"/>\n\t<circle id="function random() { [native code] }:Atom:23" class="event" cx="151" cy="103" r="8" fill-opacity="0"/>\n\t<circle id="function random() { [native code] }:Atom:24" class="event" cx="165" cy="111" r="8" fill-opacity="0"/>\n\t<circle id="function random() { [native code] }:Atom:25" class="event" cx="165" cy="127" r="8" fill-opacity="0"/>\n\t<circle id="function random() { [native code] }:Atom:26" class="event" cx="179" cy="103" r="8" fill-opacity="0"/>\n\t<circle id="function random() { [native code] }:Atom:27" class="event" cx="192" cy="111" r="8" fill-opacity="0"/>\n\t<circle id="function random() { [native code] }:Atom:28" class="event" cx="179" cy="87" r="8" fill-opacity="0"/>\n\t<circle id="function random() { [native code] }:Atom:29" class="event" cx="192" cy="79" r="8" fill-opacity="0"/>\n\t<circle id="function random() { [native code] }:Atom:30" class="event" cx="165" cy="79" r="8" fill-opacity="0"/>\n\t<circle id="function random() { [native code] }:Atom:31" class="event" cx="137" cy="63" r="8" fill-opacity="0"/>\n</svg>