<svg id="function random() { [native code] }" xmlns="http://www.w3.org/2000/svg" version="1.1" width="200px" height="150px" viewBox="0 0 200 150">\n\t<style> #function random() { [native code] } {pointer-events:none; }  #function random() { [native code] } .event  { pointer-events:all;}  </style>\n\t<text x="175" y="31" font-family=" Helvetica" font-weight="900" font-size="12" fill="rgb(48,80,248)">N</text>\n\t<text x="124" y="41" font-family=" Helvetica" font-weight="900" font-size="12" fill="rgb(48,80,248)">N</text>\n\t<text x="124" y="53" font-family=" Helvetica" font-weight="900" font-size="12" fill="rgb(48,80,248)">H</text>\n\t<text x="107" y="11" font-family=" Helvetica" font-weight="900" font-size="12" fill="rgb(255,13,13)">O</text>\n\t<text x="37" y="66" font-family=" Helvetica" font-weight="900" font-size="12" fill="rgb(48,80,248)">N</text>\n\t<text x="37" y="78" font-family=" Helvetica" font-weight="900" font-size="12" fill="rgb(48,80,248)">H</text>\n\t<text x="50" y="146" font-family=" Helvetica" font-weight="900" font-size="12" fill="rgb(144,224,80)">F</text>\n\t<text x="23" y="139" font-family=" Helvetica" font-weight="900" font-size="12" fill="rgb(144,224,80)">F</text>\n\t<text x="30" y="112" font-family=" Helvetica" font-weight="900" font-size="12" fill="rgb(144,224,80)">F</text>\n\t<text x="90" y="60" font-family=" Helvetica" font-weight="900" font-size="12" fill="rgb(48,80,248)">N</text>\n\t<line x1="113" y1="28" x2="113" y2="13" style="stroke:rgb(0,0,0);stroke-width:1"/>\n\t<line x1="110" y1="28" x2="110" y2="13" style="stroke:rgb(0,0,0);stroke-width:1"/>\n\t<line x1="77" y1="27" x2="94" y2="37" style="stroke:rgb(0,0,0);stroke-width:1"/>\n\t<line x1="78" y1="30" x2="91" y2="38" style="stroke:rgb(0,0,0);stroke-width:1"/>\n\t<line x1="34" y1="13" x2="42" y2="31" style="stroke:rgb(0,0,0);stroke-width:1"/>\n\t<line x1="32" y1="16" x2="38" y2="30" style="stroke:rgb(0,0,0);stroke-width:1"/>\n\t<line x1="3" y1="26" x2="14" y2="11" style="stroke:rgb(0,0,0);stroke-width:1"/>\n\t<line x1="6" y1="27" x2="16" y2="14" style="stroke:rgb(0,0,0);stroke-width:1"/>\n\t<line x1="30" y1="46" x2="11" y2="44" style="stroke:rgb(0,0,0);stroke-width:1"/>\n\t<line x1="29" y1="43" x2="13" y2="42" style="stroke:rgb(0,0,0);stroke-width:1"/>\n\t<line x1="60" y1="56" x2="60" y2="37" style="stroke:rgb(0,0,0);stroke-width:1"/>\n\t<line x1="63" y1="54" x2="63" y2="39" style="stroke:rgb(0,0,0);stroke-width:1"/>\n\t<line x1="60" y1="95" x2="77" y2="86" style="stroke:rgb(0,0,0);stroke-width:1"/>\n\t<line x1="64" y1="97" x2="77" y2="89" style="stroke:rgb(0,0,0);stroke-width:1"/>\n\t<line x1="77" y1="125" x2="60" y2="115" style="stroke:rgb(0,0,0);stroke-width:1"/>\n\t<line x1="77" y1="121" x2="64" y2="113" style="stroke:rgb(0,0,0);stroke-width:1"/>\n\t<line x1="94" y1="95" x2="94" y2="115" style="stroke:rgb(0,0,0);stroke-width:1"/>\n\t<line x1="91" y1="97" x2="91" y2="113" style="stroke:rgb(0,0,0);stroke-width:1"/>\n\t<line x1="77" y1="66" x2="89" y2="59" style="stroke:rgb(0,0,0);stroke-width:1"/>\n\t<line x1="78" y1="62" x2="88" y2="57" style="stroke:rgb(0,0,0);stroke-width:1"/>\n\t<line x1="185" y1="30" x2="196" y2="37" style="stroke:rgb(0,0,0);stroke-width:1"/>\n\t<line x1="179" y1="7" x2="179" y2="21" style="stroke:rgb(0,0,0);stroke-width:1"/>\n\t<line x1="162" y1="37" x2="174" y2="30" style="stroke:rgb(0,0,0);stroke-width:1"/>\n\t<line x1="145" y1="27" x2="162" y2="37" style="stroke:rgb(0,0,0);stroke-width:1"/>\n\t<line x1="134" y1="34" x2="145" y2="27" style="stroke:rgb(0,0,0);stroke-width:1"/>\n\t<line x1="111" y1="27" x2="123" y2="34" style="stroke:rgb(0,0,0);stroke-width:1"/>\n\t<line x1="94" y1="37" x2="111" y2="27" style="stroke:rgb(0,0,0);stroke-width:1"/>\n\t<line x1="60" y1="37" x2="77" y2="27" style="stroke:rgb(0,0,0);stroke-width:1"/>\n\t<line x1="42" y1="31" x2="60" y2="37" style="stroke:rgb(0,0,0);stroke-width:1"/>\n\t<line x1="14" y1="11" x2="34" y2="13" style="stroke:rgb(0,0,0);stroke-width:1"/>\n\t<line x1="11" y1="44" x2="3" y2="26" style="stroke:rgb(0,0,0);stroke-width:1"/>\n\t<line x1="30" y1="46" x2="42" y2="31" style="stroke:rgb(0,0,0);stroke-width:1"/>\n\t<line x1="37" y1="56" x2="30" y2="46" style="stroke:rgb(0,0,0);stroke-width:1"/>\n\t<line x1="60" y1="56" x2="47" y2="61" style="stroke:rgb(0,0,0);stroke-width:1"/>\n\t<line x1="77" y1="66" x2="60" y2="56" style="stroke:rgb(0,0,0);stroke-width:1"/>\n\t<line x1="77" y1="86" x2="77" y2="66" style="stroke:rgb(0,0,0);stroke-width:1"/>\n\t<line x1="60" y1="115" x2="60" y2="95" style="stroke:rgb(0,0,0);stroke-width:1"/>\n\t<line x1="43" y1="125" x2="60" y2="115" style="stroke:rgb(0,0,0);stroke-width:1"/>\n\t<line x1="50" y1="136" x2="43" y2="125" style="stroke:rgb(0,0,0);stroke-width:1"/>\n\t<line x1="31" y1="132" x2="43" y2="125" style="stroke:rgb(0,0,0);stroke-width:1"/>\n\t<line x1="37" y1="114" x2="43" y2="125" style="stroke:rgb(0,0,0);stroke-width:1"/>\n\t<line x1="94" y1="115" x2="77" y2="125" style="stroke:rgb(0,0,0);stroke-width:1"/>\n\t<line x1="94" y1="95" x2="77" y2="86" style="stroke:rgb(0,0,0);stroke-width:1"/>\n\t<line x1="94" y1="50" x2="94" y2="37" style="stroke:rgb(0,0,0);stroke-width:1"/>\n\t<line id="function random() { [native code] }:Bond:7-6" class="event" x1="111" y1="7" x2="111" y2="27" stroke-width="8" stroke-opacity="0"/>\n\t<line id="function random() { [native code] }:Bond:9-8" class="event" x1="77" y1="27" x2="94" y2="37" stroke-width="8" stroke-opacity="0"/>\n\t<line id="function random() { [native code] }:Bond:12-11" class="event" x1="34" y1="13" x2="42" y2="31" stroke-width="8" stroke-opacity="0"/>\n\t<line id="function random() { [native code] }:Bond:14-13" class="event" x1="3" y1="26" x2="14" y2="11" stroke-width="8" stroke-opacity="0"/>\n\t<line id="function random() { [native code] }:Bond:16-15" class="event" x1="30" y1="46" x2="11" y2="44" stroke-width="8" stroke-opacity="0"/>\n\t<line id="function random() { [native code] }:Bond:18-10" class="event" x1="60" y1="56" x2="60" y2="37" stroke-width="8" stroke-opacity="0"/>\n\t<line id="function random() { [native code] }:Bond:21-20" class="event" x1="60" y1="95" x2="77" y2="86" stroke-width="8" stroke-opacity="0"/>\n\t<line id="function random() { [native code] }:Bond:27-22" class="event" x1="77" y1="125" x2="60" y2="115" stroke-width="8" stroke-opacity="0"/>\n\t<line id="function random() { [native code] }:Bond:29-28" class="event" x1="94" y1="95" x2="94" y2="115" stroke-width="8" stroke-opacity="0"/>\n\t<line id="function random() { [native code] }:Bond:30-19" class="event" x1="94" y1="56" x2="77" y2="66" stroke-width="8" stroke-opacity="0"/>\n\t<line id="function random() { [native code] }:Bond:1-0" class="event" x1="179" y1="27" x2="196" y2="37" stroke-width="8" stroke-opacity="0"/>\n\t<line id="function random() { [native code] }:Bond:2-1" class="event" x1="179" y1="7" x2="179" y2="27" stroke-width="8" stroke-opacity="0"/>\n\t<line id="function random() { [native code] }:Bond:3-1" class="event" x1="162" y1="37" x2="179" y2="27" stroke-width="8" stroke-opacity="0"/>\n\t<line id="function random() { [native code] }:Bond:4-3" class="event" x1="145" y1="27" x2="162" y2="37" stroke-width="8" stroke-opacity="0"/>\n\t<line id="function random() { [native code] }:Bond:5-4" class="event" x1="128" y1="37" x2="145" y2="27" stroke-width="8" stroke-opacity="0"/>\n\t<line id="function random() { [native code] }:Bond:6-5" class="event" x1="111" y1="27" x2="128" y2="37" stroke-width="8" stroke-opacity="0"/>\n\t<line id="function random() { [native code] }:Bond:8-6" class="event" x1="94" y1="37" x2="111" y2="27" stroke-width="8" stroke-opacity="0"/>\n\t<line id="function random() { [native code] }:Bond:10-9" class="event" x1="60" y1="37" x2="77" y2="27" stroke-width="8" stroke-opacity="0"/>\n\t<line id="function random() { [native code] }:Bond:11-10" class="event" x1="42" y1="31" x2="60" y2="37" stroke-width="8" stroke-opacity="0"/>\n\t<line id="function random() { [native code] }:Bond:13-12" class="event" x1="14" y1="11" x2="34" y2="13" stroke-width="8" stroke-opacity="0"/>\n\t<line id="function random() { [native code] }:Bond:15-14" class="event" x1="11" y1="44" x2="3" y2="26" stroke-width="8" stroke-opacity="0"/>\n\t<line id="function random() { [native code] }:Bond:16-11" class="event" x1="30" y1="46" x2="42" y2="31" stroke-width="8" stroke-opacity="0"/>\n\t<line id="function random() { [native code] }:Bond:17-16" class="event" x1="42" y1="62" x2="30" y2="46" stroke-width="8" stroke-opacity="0"/>\n\t<line id="function random() { [native code] }:Bond:18-17" class="event" x1="60" y1="56" x2="42" y2="62" stroke-width="8" stroke-opacity="0"/>\n\t<line id="function random() { [native code] }:Bond:19-18" class="event" x1="77" y1="66" x2="60" y2="56" stroke-width="8" stroke-opacity="0"/>\n\t<line id="function random() { [native code] }:Bond:20-19" class="event" x1="77" y1="86" x2="77" y2="66" stroke-width="8" stroke-opacity="0"/>\n\t<line id="function random() { [native code] }:Bond:22-21" class="event" x1="60" y1="115" x2="60" y2="95" stroke-width="8" stroke-opacity="0"/>\n\t<line id="function random() { [native code] }:Bond:23-22" class="event" x1="43" y1="125" x2="60" y2="115" stroke-width="8" stroke-opacity="0"/>\n\t<line id="function random() { [native code] }:Bond:24-23" class="event" x1="53" y1="142" x2="43" y2="125" stroke-width="8" stroke-opacity="0"/>\n\t<line id="function random() { [native code] }:Bond:25-23" class="event" x1="27" y1="135" x2="43" y2="125" stroke-width="8" stroke-opacity="0"/>\n\t<line id="function random() { [native code] }:Bond:26-23" class="event" x1="34" y1="108" x2="43" y2="125" stroke-width="8" stroke-opacity="0"/>\n\t<line id="function random() { [native code] }:Bond:28-27" class="event" x1="94" y1="115" x2="77" y2="125" stroke-width="8" stroke-opacity="0"/>\n\t<line id="function random() { [native code] }:Bond:29-20" class="event" x1="94" y1="95" x2="77" y2="86" stroke-width="8" stroke-opacity="0"/>\n\t<line id="function random() { [native code] }:Bond:30-8" class="event" x1="94" y1="56" x2="94" y2="37" stroke-width="8" stroke-opacity="0"/>\n\t<circle id="function random() { [native code] }:Atom:0" class="event" cx="196" cy="37" r="8" fill-opacity="0"/>\n\t<circle id="function random() { [native code] }:Atom:1" class="event" cx="179" cy="27" r="8" fill-opacity="0"/>\n\t<circle id="function random() { [native code] }:Atom:2" class="event" cx="179" cy="7" r="8" fill-opacity="0"/>\n\t<circle id="function random() { [native code] }:Atom:3" class="event" cx="162" cy="37" r="8" fill-opacity="0"/>\n\t<circle id="function random() { [native code] }:Atom:4" class="event" cx="145" cy="27" r="8" fill-opacity="0"/>\n\t<circle id="function random() { [native code] }:Atom:5" class="event" cx="128" cy="37" r="8" fill-opacity="0"/>\n\t<circle id="function random() { [native code] }:Atom:6" class="event" cx="111" cy="27" r="8" fill-opacity="0"/>\n\t<circle id="function random() { [native code] }:Atom:7" class="event" cx="111" cy="7" r="8" fill-opacity="0"/>\n\t<circle id="function random() { [native code] }:Atom:8" class="event" cx="94" cy="37" r="8" fill-opacity="0"/>\n\t<circle id="function random() { [native code] }:Atom:9" class="event" cx="77" cy="27" r="8" fill-opacity="0"/>\n\t<circle id="function random() { [native code] }:Atom:10" class="event" cx="60" cy="37" r="8" fill-opacity="0"/>\n\t<circle id="function random() { [native code] }:Atom:11" class="event" cx="42" cy="31" r="8" fill-opacity="0"/>\n\t<circle id="function random() { [native code] }:Atom:12" class="event" cx="34" cy="13" r="8" fill-opacity="0"/>\n\t<circle id="function random() { [native code] }:Atom:13" class="event" cx="14" cy="11" r="8" fill-opacity="0"/>\n\t<circle id="function random() { [native code] }:Atom:14" class="event" cx="3" cy="26" r="8" fill-opacity="0"/>\n\t<circle id="function random() { [native code] }:Atom:15" class="event" cx="11" cy="44" r="8" fill-opacity="0"/>\n\t<circle id="function random() { [native code] }:Atom:16" class="event" cx="30" cy="46" r="8" fill-opacity="0"/>\n\t<circle id="function random() { [native code] }:Atom:17" class="event" cx="42" cy="62" r="8" fill-opacity="0"/>\n\t<circle id="function random() { [native code] }:Atom:18" class="event" cx="60" cy="56" r="8" fill-opacity="0"/>\n\t<circle id="function random() { [native code] }:Atom:19" class="event" cx="77" cy="66" r="8" fill-opacity="0"/>\n\t<circle id="function random() { [native code] }:Atom:20" class="event" cx="77" cy="86" r="8" fill-opacity="0"/>\n\t<circle id="function random() { [native code] }:Atom:21" class="event" cx="60" cy="95" r="8" fill-opacity="0"/>\n\t<circle id="function random() { [native code] }:Atom:22" class="event" cx="60" cy="115" r="8" fill-opacity="0"/>\n\t<circle id="function random() { [native code] }:Atom:23" class="event" cx="43" cy="125" r="8" fill-opacity="0"/>\n\t<circle id="function random() { [native code] }:Atom:24" class="event" cx="53" cy="142" r="8" fill-opacity="0"/>\n\t<circle id="function random() { [native code] }:Atom:25" class="event" cx="27" cy="135" r="8" fill-opacity="0"/>\n\t<circle id="function random() { [native code] }:Atom:26" class="event" cx="34" cy="108" r="8" fill-opacity="0"/>\n\t<circle id="function random() { [native code] }:Atom:27" class="event" cx="77" cy="125" r="8" fill-opacity="0"/>\n\t<circle id="function random() { [native code] }:Atom:28" class="event" cx="94" cy="115" r="8" fill-opacity="0"/>\n\t<circle id="function random() { [native code] }:Atom:29" class="event" cx="94" cy="95" r="8" fill-opacity="0"/>\n\t<circle id="function random() { [native code] }:Atom:30" class="event" cx="94" cy="56" r="8" fill-opacity="0"/>\n</svg>