<svg id="function random() { [native code] }" xmlns="http://www.w3.org/2000/svg" version="1.1" width="200px" height="150px" viewBox="0 0 200 150">\n\t<style> #function random() { [native code] } {pointer-events:none; }  #function random() { [native code] } .event  { pointer-events:all;}  </style>\n\t<text x="176" y="57" font-family=" Helvetica" font-weight="900" font-size="12" fill="rgb(48,80,248)">N</text>\n\t<text x="176" y="45" font-family=" Helvetica" font-weight="900" font-size="12" fill="rgb(48,80,248)">H</text>\n\t<text x="124" y="67" font-family=" Helvetica" font-weight="900" font-size="12" fill="rgb(48,80,248)">N</text>\n\t<text x="124" y="79" font-family=" Helvetica" font-weight="900" font-size="12" fill="rgb(48,80,248)">H</text>\n\t<text x="107" y="37" font-family=" Helvetica" font-weight="900" font-size="12" fill="rgb(255,13,13)">O</text>\n\t<text x="37" y="93" font-family=" Helvetica" font-weight="900" font-size="12" fill="rgb(48,80,248)">N</text>\n\t<text x="37" y="105" font-family=" Helvetica" font-weight="900" font-size="12" fill="rgb(48,80,248)">H</text>\n\t<text x="90" y="86" font-family=" Helvetica" font-weight="900" font-size="12" fill="rgb(48,80,248)">N</text>\n\t<line x1="113" y1="53" x2="113" y2="39" style="stroke:rgb(0,0,0);stroke-width:1"/>\n\t<line x1="110" y1="53" x2="110" y2="39" style="stroke:rgb(0,0,0);stroke-width:1"/>\n\t<line x1="77" y1="53" x2="94" y2="63" style="stroke:rgb(0,0,0);stroke-width:1"/>\n\t<line x1="77" y1="56" x2="91" y2="64" style="stroke:rgb(0,0,0);stroke-width:1"/>\n\t<line x1="33" y1="38" x2="41" y2="56" style="stroke:rgb(0,0,0);stroke-width:1"/>\n\t<line x1="31" y1="41" x2="37" y2="56" style="stroke:rgb(0,0,0);stroke-width:1"/>\n\t<line x1="1" y1="52" x2="13" y2="36" style="stroke:rgb(0,0,0);stroke-width:1"/>\n\t<line x1="5" y1="52" x2="14" y2="40" style="stroke:rgb(0,0,0);stroke-width:1"/>\n\t<line x1="29" y1="72" x2="10" y2="70" style="stroke:rgb(0,0,0);stroke-width:1"/>\n\t<line x1="28" y1="69" x2="12" y2="68" style="stroke:rgb(0,0,0);stroke-width:1"/>\n\t<line x1="60" y1="82" x2="60" y2="63" style="stroke:rgb(0,0,0);stroke-width:1"/>\n\t<line x1="63" y1="80" x2="63" y2="65" style="stroke:rgb(0,0,0);stroke-width:1"/>\n\t<line x1="77" y1="92" x2="89" y2="85" style="stroke:rgb(0,0,0);stroke-width:1"/>\n\t<line x1="77" y1="89" x2="87" y2="83" style="stroke:rgb(0,0,0);stroke-width:1"/>\n\t<line x1="186" y1="56" x2="198" y2="63" style="stroke:rgb(0,0,0);stroke-width:1"/>\n\t<line x1="163" y1="63" x2="175" y2="56" style="stroke:rgb(0,0,0);stroke-width:1"/>\n\t<line x1="146" y1="53" x2="163" y2="63" style="stroke:rgb(0,0,0);stroke-width:1"/>\n\t<line x1="134" y1="59" x2="146" y2="53" style="stroke:rgb(0,0,0);stroke-width:1"/>\n\t<line x1="111" y1="53" x2="123" y2="59" style="stroke:rgb(0,0,0);stroke-width:1"/>\n\t<line x1="94" y1="63" x2="111" y2="53" style="stroke:rgb(0,0,0);stroke-width:1"/>\n\t<line x1="60" y1="63" x2="77" y2="53" style="stroke:rgb(0,0,0);stroke-width:1"/>\n\t<line x1="41" y1="56" x2="60" y2="63" style="stroke:rgb(0,0,0);stroke-width:1"/>\n\t<line x1="13" y1="36" x2="33" y2="38" style="stroke:rgb(0,0,0);stroke-width:1"/>\n\t<line x1="10" y1="70" x2="1" y2="52" style="stroke:rgb(0,0,0);stroke-width:1"/>\n\t<line x1="29" y1="72" x2="41" y2="56" style="stroke:rgb(0,0,0);stroke-width:1"/>\n\t<line x1="37" y1="83" x2="29" y2="72" style="stroke:rgb(0,0,0);stroke-width:1"/>\n\t<line x1="60" y1="82" x2="46" y2="87" style="stroke:rgb(0,0,0);stroke-width:1"/>\n\t<line x1="77" y1="92" x2="60" y2="82" style="stroke:rgb(0,0,0);stroke-width:1"/>\n\t<line x1="77" y1="112" x2="77" y2="92" style="stroke:rgb(0,0,0);stroke-width:1"/>\n\t<line x1="60" y1="122" x2="77" y2="112" style="stroke:rgb(0,0,0);stroke-width:1"/>\n\t<line x1="94" y1="122" x2="77" y2="112" style="stroke:rgb(0,0,0);stroke-width:1"/>\n\t<line x1="94" y1="76" x2="94" y2="63" style="stroke:rgb(0,0,0);stroke-width:1"/>\n\t<line id="function random() { [native code] }:Bond:6-5" class="event" x1="111" y1="33" x2="111" y2="53" stroke-width="8" stroke-opacity="0"/>\n\t<line id="function random() { [native code] }:Bond:8-7" class="event" x1="77" y1="53" x2="94" y2="63" stroke-width="8" stroke-opacity="0"/>\n\t<line id="function random() { [native code] }:Bond:11-10" class="event" x1="33" y1="38" x2="41" y2="56" stroke-width="8" stroke-opacity="0"/>\n\t<line id="function random() { [native code] }:Bond:13-12" class="event" x1="1" y1="52" x2="13" y2="36" stroke-width="8" stroke-opacity="0"/>\n\t<line id="function random() { [native code] }:Bond:15-14" class="event" x1="29" y1="72" x2="10" y2="70" stroke-width="8" stroke-opacity="0"/>\n\t<line id="function random() { [native code] }:Bond:17-9" class="event" x1="60" y1="82" x2="60" y2="63" stroke-width="8" stroke-opacity="0"/>\n\t<line id="function random() { [native code] }:Bond:22-18" class="event" x1="94" y1="82" x2="77" y2="92" stroke-width="8" stroke-opacity="0"/>\n\t<line id="function random() { [native code] }:Bond:1-0" class="event" x1="180" y1="53" x2="198" y2="63" stroke-width="8" stroke-opacity="0"/>\n\t<line id="function random() { [native code] }:Bond:2-1" class="event" x1="163" y1="63" x2="180" y2="53" stroke-width="8" stroke-opacity="0"/>\n\t<line id="function random() { [native code] }:Bond:3-2" class="event" x1="146" y1="53" x2="163" y2="63" stroke-width="8" stroke-opacity="0"/>\n\t<line id="function random() { [native code] }:Bond:4-3" class="event" x1="129" y1="63" x2="146" y2="53" stroke-width="8" stroke-opacity="0"/>\n\t<line id="function random() { [native code] }:Bond:5-4" class="event" x1="111" y1="53" x2="129" y2="63" stroke-width="8" stroke-opacity="0"/>\n\t<line id="function random() { [native code] }:Bond:7-5" class="event" x1="94" y1="63" x2="111" y2="53" stroke-width="8" stroke-opacity="0"/>\n\t<line id="function random() { [native code] }:Bond:9-8" class="event" x1="60" y1="63" x2="77" y2="53" stroke-width="8" stroke-opacity="0"/>\n\t<line id="function random() { [native code] }:Bond:10-9" class="event" x1="41" y1="56" x2="60" y2="63" stroke-width="8" stroke-opacity="0"/>\n\t<line id="function random() { [native code] }:Bond:12-11" class="event" x1="13" y1="36" x2="33" y2="38" stroke-width="8" stroke-opacity="0"/>\n\t<line id="function random() { [native code] }:Bond:14-13" class="event" x1="10" y1="70" x2="1" y2="52" stroke-width="8" stroke-opacity="0"/>\n\t<line id="function random() { [native code] }:Bond:15-10" class="event" x1="29" y1="72" x2="41" y2="56" stroke-width="8" stroke-opacity="0"/>\n\t<line id="function random() { [native code] }:Bond:16-15" class="event" x1="41" y1="89" x2="29" y2="72" stroke-width="8" stroke-opacity="0"/>\n\t<line id="function random() { [native code] }:Bond:17-16" class="event" x1="60" y1="82" x2="41" y2="89" stroke-width="8" stroke-opacity="0"/>\n\t<line id="function random() { [native code] }:Bond:18-17" class="event" x1="77" y1="92" x2="60" y2="82" stroke-width="8" stroke-opacity="0"/>\n\t<line id="function random() { [native code] }:Bond:19-18" class="event" x1="77" y1="112" x2="77" y2="92" stroke-width="8" stroke-opacity="0"/>\n\t<line id="function random() { [native code] }:Bond:20-19" class="event" x1="60" y1="122" x2="77" y2="112" stroke-width="8" stroke-opacity="0"/>\n\t<line id="function random() { [native code] }:Bond:21-19" class="event" x1="94" y1="122" x2="77" y2="112" stroke-width="8" stroke-opacity="0"/>\n\t<line id="function random() { [native code] }:Bond:22-7" class="event" x1="94" y1="82" x2="94" y2="63" stroke-width="8" stroke-opacity="0"/>\n\t<circle id="function random() { [native code] }:Atom:0" class="event" cx="198" cy="63" r="8" fill-opacity="0"/>\n\t<circle id="function random() { [native code] }:Atom:1" class="event" cx="180" cy="53" r="8" fill-opacity="0"/>\n\t<circle id="function random() { [native code] }:Atom:2" class="event" cx="163" cy="63" r="8" fill-opacity="0"/>\n\t<circle id="function random() { [native code] }:Atom:3" class="event" cx="146" cy="53" r="8" fill-opacity="0"/>\n\t<circle id="function random() { [native code] }:Atom:4" class="event" cx="129" cy="63" r="8" fill-opacity="0"/>\n\t<circle id="function random() { [native code] }:Atom:5" class="event" cx="111" cy="53" r="8" fill-opacity="0"/>\n\t<circle id="function random() { [native code] }:Atom:6" class="event" cx="111" cy="33" r="8" fill-opacity="0"/>\n\t<circle id="function random() { [native code] }:Atom:7" class="event" cx="94" cy="63" r="8" fill-opacity="0"/>\n\t<circle id="function random() { [native code] }:Atom:8" class="event" cx="77" cy="53" r="8" fill-opacity="0"/>\n\t<circle id="function random() { [native code] }:Atom:9" class="event" cx="60" cy="63" r="8" fill-opacity="0"/>\n\t<circle id="function random() { [native code] }:Atom:10" class="event" cx="41" cy="56" r="8" fill-opacity="0"/>\n\t<circle id="function random() { [native code] }:Atom:11" class="event" cx="33" cy="38" r="8" fill-opacity="0"/>\n\t<circle id="function random() { [native code] }:Atom:12" class="event" cx="13" cy="36" r="8" fill-opacity="0"/>\n\t<circle id="function random() { [native code] }:Atom:13" class="event" cx="1" cy="52" r="8" fill-opacity="0"/>\n\t<circle id="function random() { [native code] }:Atom:14" class="event" cx="10" cy="70" r="8" fill-opacity="0"/>\n\t<circle id="function random() { [native code] }:Atom:15" class="event" cx="29" cy="72" r="8" fill-opacity="0"/>\n\t<circle id="function random() { [native code] }:Atom:16" class="event" cx="41" cy="89" r="8" fill-opacity="0"/>\n\t<circle id="function random() { [native code] }:Atom:17" class="event" cx="60" cy="82" r="8" fill-opacity="0"/>\n\t<circle id="function random() { [native code] }:Atom:18" class="event" cx="77" cy="92" r="8" fill-opacity="0"/>\n\t<circle id="function random() { [native code] }:Atom:19" class="event" cx="77" cy="112" r="8" fill-opacity="0"/>\n\t<circle id="function random() { [native code] }:Atom:20" class="event" cx="60" cy="122" r="8" fill-opacity="0"/>\n\t<circle id="function random() { [native code] }:Atom:21" class="event" cx="94" cy="122" r="8" fill-opacity="0"/>\n\t<circle id="function random() { [native code] }:Atom:22" class="event" cx="94" cy="82" r="8" fill-opacity="0"/>\n</svg>