<svg id="function random() { [native code] }" xmlns="http://www.w3.org/2000/svg" version="1.1" width="200px" height="150px" viewBox="0 0 200 150">\n\t<style> #function random() { [native code] } {pointer-events:none; }  #function random() { [native code] } .event  { pointer-events:all;}  </style>\n\t<text x="175" y="35" font-family=" Helvetica" font-weight="900" font-size="12" fill="rgb(48,80,248)">N</text>\n\t<text x="193" y="37" font-family=" Helvetica" font-weight="900" font-size="8" fill="rgb(48,80,248)">2</text>\n\t<text x="184" y="35" font-family=" Helvetica" font-weight="900" font-size="12" fill="rgb(48,80,248)">H</text>\n\t<text x="124" y="45" font-family=" Helvetica" font-weight="900" font-size="12" fill="rgb(48,80,248)">N</text>\n\t<text x="124" y="57" font-family=" Helvetica" font-weight="900" font-size="12" fill="rgb(48,80,248)">H</text>\n\t<text x="106" y="16" font-family=" Helvetica" font-weight="900" font-size="12" fill="rgb(255,13,13)">O</text>\n\t<text x="37" y="71" font-family=" Helvetica" font-weight="900" font-size="12" fill="rgb(48,80,248)">N</text>\n\t<text x="37" y="83" font-family=" Helvetica" font-weight="900" font-size="12" fill="rgb(48,80,248)">H</text>\n\t<text x="63" y="125" font-family=" Helvetica" font-weight="900" font-size="12" fill="rgb(205,205,38)">S</text>\n\t<text x="92" y="141" font-family=" Helvetica" font-weight="900" font-size="12" fill="rgb(166,41,41)">Br</text>\n\t<text x="90" y="65" font-family=" Helvetica" font-weight="900" font-size="12" fill="rgb(48,80,248)">N</text>\n\t<line x1="113" y1="32" x2="113" y2="18" style="stroke:rgb(0,0,0);stroke-width:1"/>\n\t<line x1="110" y1="32" x2="110" y2="18" style="stroke:rgb(0,0,0);stroke-width:1"/>\n\t<line x1="77" y1="31" x2="94" y2="41" style="stroke:rgb(0,0,0);stroke-width:1"/>\n\t<line x1="77" y1="35" x2="91" y2="43" style="stroke:rgb(0,0,0);stroke-width:1"/>\n\t<line x1="33" y1="17" x2="41" y2="35" style="stroke:rgb(0,0,0);stroke-width:1"/>\n\t<line x1="31" y1="20" x2="37" y2="35" style="stroke:rgb(0,0,0);stroke-width:1"/>\n\t<line x1="1" y1="31" x2="13" y2="15" style="stroke:rgb(0,0,0);stroke-width:1"/>\n\t<line x1="5" y1="31" x2="14" y2="19" style="stroke:rgb(0,0,0);stroke-width:1"/>\n\t<line x1="29" y1="51" x2="10" y2="49" style="stroke:rgb(0,0,0);stroke-width:1"/>\n\t<line x1="27" y1="48" x2="12" y2="46" style="stroke:rgb(0,0,0);stroke-width:1"/>\n\t<line x1="60" y1="61" x2="60" y2="41" style="stroke:rgb(0,0,0);stroke-width:1"/>\n\t<line x1="63" y1="59" x2="63" y2="43" style="stroke:rgb(0,0,0);stroke-width:1"/>\n\t<line x1="61" y1="102" x2="77" y2="91" style="stroke:rgb(0,0,0);stroke-width:1"/>\n\t<line x1="65" y1="103" x2="77" y2="95" style="stroke:rgb(0,0,0);stroke-width:1"/>\n\t<line x1="93" y1="102" x2="87" y2="121" style="stroke:rgb(0,0,0);stroke-width:1"/>\n\t<line x1="89" y1="104" x2="85" y2="118" style="stroke:rgb(0,0,0);stroke-width:1"/>\n\t<line x1="77" y1="71" x2="89" y2="64" style="stroke:rgb(0,0,0);stroke-width:1"/>\n\t<line x1="77" y1="67" x2="87" y2="62" style="stroke:rgb(0,0,0);stroke-width:1"/>\n\t<line x1="162" y1="41" x2="174" y2="35" style="stroke:rgb(0,0,0);stroke-width:1"/>\n\t<line x1="145" y1="31" x2="162" y2="41" style="stroke:rgb(0,0,0);stroke-width:1"/>\n\t<line x1="134" y1="38" x2="145" y2="31" style="stroke:rgb(0,0,0);stroke-width:1"/>\n\t<line x1="111" y1="31" x2="123" y2="38" style="stroke:rgb(0,0,0);stroke-width:1"/>\n\t<line x1="94" y1="41" x2="111" y2="31" style="stroke:rgb(0,0,0);stroke-width:1"/>\n\t<line x1="60" y1="41" x2="77" y2="31" style="stroke:rgb(0,0,0);stroke-width:1"/>\n\t<line x1="41" y1="35" x2="60" y2="41" style="stroke:rgb(0,0,0);stroke-width:1"/>\n\t<line x1="13" y1="15" x2="33" y2="17" style="stroke:rgb(0,0,0);stroke-width:1"/>\n\t<line x1="10" y1="49" x2="1" y2="31" style="stroke:rgb(0,0,0);stroke-width:1"/>\n\t<line x1="29" y1="51" x2="41" y2="35" style="stroke:rgb(0,0,0);stroke-width:1"/>\n\t<line x1="36" y1="61" x2="29" y2="51" style="stroke:rgb(0,0,0);stroke-width:1"/>\n\t<line x1="60" y1="61" x2="46" y2="66" style="stroke:rgb(0,0,0);stroke-width:1"/>\n\t<line x1="77" y1="71" x2="60" y2="61" style="stroke:rgb(0,0,0);stroke-width:1"/>\n\t<line x1="77" y1="91" x2="77" y2="71" style="stroke:rgb(0,0,0);stroke-width:1"/>\n\t<line x1="65" y1="115" x2="61" y2="102" style="stroke:rgb(0,0,0);stroke-width:1"/>\n\t<line x1="87" y1="121" x2="72" y2="121" style="stroke:rgb(0,0,0);stroke-width:1"/>\n\t<line x1="94" y1="131" x2="87" y2="121" style="stroke:rgb(0,0,0);stroke-width:1"/>\n\t<line x1="93" y1="102" x2="77" y2="91" style="stroke:rgb(0,0,0);stroke-width:1"/>\n\t<line x1="94" y1="55" x2="94" y2="41" style="stroke:rgb(0,0,0);stroke-width:1"/>\n\t<line id="function random() { [native code] }:Bond:5-4" class="event" x1="111" y1="12" x2="111" y2="31" stroke-width="8" stroke-opacity="0"/>\n\t<line id="function random() { [native code] }:Bond:7-6" class="event" x1="77" y1="31" x2="94" y2="41" stroke-width="8" stroke-opacity="0"/>\n\t<line id="function random() { [native code] }:Bond:10-9" class="event" x1="33" y1="17" x2="41" y2="35" stroke-width="8" stroke-opacity="0"/>\n\t<line id="function random() { [native code] }:Bond:12-11" class="event" x1="1" y1="31" x2="13" y2="15" stroke-width="8" stroke-opacity="0"/>\n\t<line id="function random() { [native code] }:Bond:14-13" class="event" x1="29" y1="51" x2="10" y2="49" stroke-width="8" stroke-opacity="0"/>\n\t<line id="function random() { [native code] }:Bond:16-8" class="event" x1="60" y1="61" x2="60" y2="41" stroke-width="8" stroke-opacity="0"/>\n\t<line id="function random() { [native code] }:Bond:19-18" class="event" x1="61" y1="102" x2="77" y2="91" stroke-width="8" stroke-opacity="0"/>\n\t<line id="function random() { [native code] }:Bond:23-21" class="event" x1="93" y1="102" x2="87" y2="121" stroke-width="8" stroke-opacity="0"/>\n\t<line id="function random() { [native code] }:Bond:24-17" class="event" x1="94" y1="61" x2="77" y2="71" stroke-width="8" stroke-opacity="0"/>\n\t<line id="function random() { [native code] }:Bond:1-0" class="event" x1="162" y1="41" x2="180" y2="31" stroke-width="8" stroke-opacity="0"/>\n\t<line id="function random() { [native code] }:Bond:2-1" class="event" x1="145" y1="31" x2="162" y2="41" stroke-width="8" stroke-opacity="0"/>\n\t<line id="function random() { [native code] }:Bond:3-2" class="event" x1="128" y1="41" x2="145" y2="31" stroke-width="8" stroke-opacity="0"/>\n\t<line id="function random() { [native code] }:Bond:4-3" class="event" x1="111" y1="31" x2="128" y2="41" stroke-width="8" stroke-opacity="0"/>\n\t<line id="function random() { [native code] }:Bond:6-4" class="event" x1="94" y1="41" x2="111" y2="31" stroke-width="8" stroke-opacity="0"/>\n\t<line id="function random() { [native code] }:Bond:8-7" class="event" x1="60" y1="41" x2="77" y2="31" stroke-width="8" stroke-opacity="0"/>\n\t<line id="function random() { [native code] }:Bond:9-8" class="event" x1="41" y1="35" x2="60" y2="41" stroke-width="8" stroke-opacity="0"/>\n\t<line id="function random() { [native code] }:Bond:11-10" class="event" x1="13" y1="15" x2="33" y2="17" stroke-width="8" stroke-opacity="0"/>\n\t<line id="function random() { [native code] }:Bond:13-12" class="event" x1="10" y1="49" x2="1" y2="31" stroke-width="8" stroke-opacity="0"/>\n\t<line id="function random() { [native code] }:Bond:14-9" class="event" x1="29" y1="51" x2="41" y2="35" stroke-width="8" stroke-opacity="0"/>\n\t<line id="function random() { [native code] }:Bond:15-14" class="event" x1="41" y1="67" x2="29" y2="51" stroke-width="8" stroke-opacity="0"/>\n\t<line id="function random() { [native code] }:Bond:16-15" class="event" x1="60" y1="61" x2="41" y2="67" stroke-width="8" stroke-opacity="0"/>\n\t<line id="function random() { [native code] }:Bond:17-16" class="event" x1="77" y1="71" x2="60" y2="61" stroke-width="8" stroke-opacity="0"/>\n\t<line id="function random() { [native code] }:Bond:18-17" class="event" x1="77" y1="91" x2="77" y2="71" stroke-width="8" stroke-opacity="0"/>\n\t<line id="function random() { [native code] }:Bond:20-19" class="event" x1="67" y1="121" x2="61" y2="102" stroke-width="8" stroke-opacity="0"/>\n\t<line id="function random() { [native code] }:Bond:21-20" class="event" x1="87" y1="121" x2="67" y2="121" stroke-width="8" stroke-opacity="0"/>\n\t<line id="function random() { [native code] }:Bond:22-21" class="event" x1="98" y1="137" x2="87" y2="121" stroke-width="8" stroke-opacity="0"/>\n\t<line id="function random() { [native code] }:Bond:23-18" class="event" x1="93" y1="102" x2="77" y2="91" stroke-width="8" stroke-opacity="0"/>\n\t<line id="function random() { [native code] }:Bond:24-6" class="event" x1="94" y1="61" x2="94" y2="41" stroke-width="8" stroke-opacity="0"/>\n\t<circle id="function random() { [native code] }:Atom:0" class="event" cx="180" cy="31" r="8" fill-opacity="0"/>\n\t<circle id="function random() { [native code] }:Atom:1" class="event" cx="162" cy="41" r="8" fill-opacity="0"/>\n\t<circle id="function random() { [native code] }:Atom:2" class="event" cx="145" cy="31" r="8" fill-opacity="0"/>\n\t<circle id="function random() { [native code] }:Atom:3" class="event" cx="128" cy="41" r="8" fill-opacity="0"/>\n\t<circle id="function random() { [native code] }:Atom:4" class="event" cx="111" cy="31" r="8" fill-opacity="0"/>\n\t<circle id="function random() { [native code] }:Atom:5" class="event" cx="111" cy="12" r="8" fill-opacity="0"/>\n\t<circle id="function random() { [native code] }:Atom:6" class="event" cx="94" cy="41" r="8" fill-opacity="0"/>\n\t<circle id="function random() { [native code] }:Atom:7" class="event" cx="77" cy="31" r="8" fill-opacity="0"/>\n\t<circle id="function random() { [native code] }:Atom:8" class="event" cx="60" cy="41" r="8" fill-opacity="0"/>\n\t<circle id="function random() { [native code] }:Atom:9" class="event" cx="41" cy="35" r="8" fill-opacity="0"/>\n\t<circle id="function random() { [native code] }:Atom:10" class="event" cx="33" cy="17" r="8" fill-opacity="0"/>\n\t<circle id="function random() { [native code] }:Atom:11" class="event" cx="13" cy="15" r="8" fill-opacity="0"/>\n\t<circle id="function random() { [native code] }:Atom:12" class="event" cx="1" cy="31" r="8" fill-opacity="0"/>\n\t<circle id="function random() { [native code] }:Atom:13" class="event" cx="10" cy="49" r="8" fill-opacity="0"/>\n\t<circle id="function random() { [native code] }:Atom:14" class="event" cx="29" cy="51" r="8" fill-opacity="0"/>\n\t<circle id="function random() { [native code] }:Atom:15" class="event" cx="41" cy="67" r="8" fill-opacity="0"/>\n\t<circle id="function random() { [native code] }:Atom:16" class="event" cx="60" cy="61" r="8" fill-opacity="0"/>\n\t<circle id="function random() { [native code] }:Atom:17" class="event" cx="77" cy="71" r="8" fill-opacity="0"/>\n\t<circle id="function random() { [native code] }:Atom:18" class="event" cx="77" cy="91" r="8" fill-opacity="0"/>\n\t<circle id="function random() { [native code] }:Atom:19" class="event" cx="61" cy="102" r="8" fill-opacity="0"/>\n\t<circle id="function random() { [native code] }:Atom:20" class="event" cx="67" cy="121" r="8" fill-opacity="0"/>\n\t<circle id="function random() { [native code] }:Atom:21" class="event" cx="87" cy="121" r="8" fill-opacity="0"/>\n\t<circle id="function random() { [native code] }:Atom:22" class="event" cx="98" cy="137" r="8" fill-opacity="0"/>\n\t<circle id="function random() { [native code] }:Atom:23" class="event" cx="93" cy="102" r="8" fill-opacity="0"/>\n\t<circle id="function random() { [native code] }:Atom:24" class="event" cx="94" cy="61" r="8" fill-opacity="0"/>\n</svg>