<svg id="function random() { [native code] }" xmlns="http://www.w3.org/2000/svg" version="1.1" width="200px" height="150px" viewBox="0 0 200 150">\n\t<style> #function random() { [native code] } {pointer-events:none; }  #function random() { [native code] } .event  { pointer-events:all;}  </style>\n\t<text x="77" y="114" font-family=" Helvetica" font-weight="900" font-size="11" fill="rgb(255,13,13)">O</text>\n\t<text x="61" y="87" font-family=" Helvetica" font-weight="900" font-size="11" fill="rgb(48,80,248)">N</text>\n\t<text x="61" y="76" font-family=" Helvetica" font-weight="900" font-size="11" fill="rgb(48,80,248)">H</text>\n\t<text x="14" y="96" font-family=" Helvetica" font-weight="900" font-size="11" fill="rgb(48,80,248)">N</text>\n\t<text x="10" y="99" font-family=" Helvetica" font-weight="900" font-size="7" fill="rgb(48,80,248)">2</text>\n\t<text x="2" y="96" font-family=" Helvetica" font-weight="900" font-size="11" fill="rgb(48,80,248)">H</text>\n\t<text x="109" y="96" font-family=" Helvetica" font-weight="900" font-size="11" fill="rgb(48,80,248)">N</text>\n\t<text x="155" y="142" font-family=" Helvetica" font-weight="900" font-size="11" fill="rgb(31,240,31)">Cl</text>\n\t<text x="187" y="123" font-family=" Helvetica" font-weight="900" font-size="11" fill="rgb(31,240,31)">Cl</text>\n\t<text x="138" y="56" font-family=" Helvetica" font-weight="900" font-size="11" fill="rgb(48,80,248)">N</text>\n\t<text x="146" y="56" font-family=" Helvetica" font-weight="900" font-size="11" fill="rgb(48,80,248)">H</text>\n\t<line x1="131" y1="5" x2="142" y2="20" style="stroke:rgb(0,0,0);stroke-width:1"/>\n\t<line x1="130" y1="8" x2="139" y2="20" style="stroke:rgb(0,0,0);stroke-width:1"/>\n\t<line x1="106" y1="24" x2="113" y2="7" style="stroke:rgb(0,0,0);stroke-width:1"/>\n\t<line x1="109" y1="23" x2="115" y2="10" style="stroke:rgb(0,0,0);stroke-width:1"/>\n\t<line x1="97" y1="65" x2="113" y2="56" style="stroke:rgb(0,0,0);stroke-width:1"/>\n\t<line x1="100" y1="67" x2="112" y2="60" style="stroke:rgb(0,0,0);stroke-width:1"/>\n\t<line x1="80" y1="92" x2="80" y2="106" style="stroke:rgb(0,0,0);stroke-width:1"/>\n\t<line x1="82" y1="92" x2="82" y2="106" style="stroke:rgb(0,0,0);stroke-width:1"/>\n\t<line x1="97" y1="84" x2="108" y2="90" style="stroke:rgb(0,0,0);stroke-width:1"/>\n\t<line x1="100" y1="82" x2="109" y2="88" style="stroke:rgb(0,0,0);stroke-width:1"/>\n\t<line x1="144" y1="111" x2="144" y2="93" style="stroke:rgb(0,0,0);stroke-width:1"/>\n\t<line x1="147" y1="109" x2="147" y2="95" style="stroke:rgb(0,0,0);stroke-width:1"/>\n\t<line x1="176" y1="111" x2="160" y2="120" style="stroke:rgb(0,0,0);stroke-width:1"/>\n\t<line x1="173" y1="110" x2="160" y2="117" style="stroke:rgb(0,0,0);stroke-width:1"/>\n\t<line x1="160" y1="84" x2="176" y2="93" style="stroke:rgb(0,0,0);stroke-width:1"/>\n\t<line x1="160" y1="87" x2="173" y2="94" style="stroke:rgb(0,0,0);stroke-width:1"/>\n\t<line x1="128" y1="65" x2="128" y2="84" style="stroke:rgb(0,0,0);stroke-width:1"/>\n\t<line x1="126" y1="67" x2="126" y2="82" style="stroke:rgb(0,0,0);stroke-width:1"/>\n\t<line x1="135" y1="37" x2="116" y2="38" style="stroke:rgb(0,0,0);stroke-width:1"/>\n\t<line x1="132" y1="34" x2="118" y2="36" style="stroke:rgb(0,0,0);stroke-width:1"/>\n\t<line x1="142" y1="20" x2="160" y2="18" style="stroke:rgb(0,0,0);stroke-width:1"/>\n\t<line x1="113" y1="7" x2="131" y2="5" style="stroke:rgb(0,0,0);stroke-width:1"/>\n\t<line x1="116" y1="38" x2="106" y2="24" style="stroke:rgb(0,0,0);stroke-width:1"/>\n\t<line x1="113" y1="56" x2="116" y2="38" style="stroke:rgb(0,0,0);stroke-width:1"/>\n\t<line x1="97" y1="84" x2="97" y2="65" style="stroke:rgb(0,0,0);stroke-width:1"/>\n\t<line x1="81" y1="93" x2="97" y2="84" style="stroke:rgb(0,0,0);stroke-width:1"/>\n\t<line x1="70" y1="87" x2="81" y2="93" style="stroke:rgb(0,0,0);stroke-width:1"/>\n\t<line x1="49" y1="93" x2="60" y2="87" style="stroke:rgb(0,0,0);stroke-width:1"/>\n\t<line x1="34" y1="84" x2="49" y2="93" style="stroke:rgb(0,0,0);stroke-width:1"/>\n\t<line x1="23" y1="90" x2="34" y2="84" style="stroke:rgb(0,0,0);stroke-width:1"/>\n\t<line x1="128" y1="84" x2="118" y2="90" style="stroke:rgb(0,0,0);stroke-width:1"/>\n\t<line x1="144" y1="93" x2="128" y2="84" style="stroke:rgb(0,0,0);stroke-width:1"/>\n\t<line x1="160" y1="120" x2="144" y2="111" style="stroke:rgb(0,0,0);stroke-width:1"/>\n\t<line x1="160" y1="134" x2="160" y2="120" style="stroke:rgb(0,0,0);stroke-width:1"/>\n\t<line x1="186" y1="117" x2="176" y2="111" style="stroke:rgb(0,0,0);stroke-width:1"/>\n\t<line x1="176" y1="93" x2="176" y2="111" style="stroke:rgb(0,0,0);stroke-width:1"/>\n\t<line x1="160" y1="84" x2="144" y2="93" style="stroke:rgb(0,0,0);stroke-width:1"/>\n\t<line x1="128" y1="65" x2="113" y2="56" style="stroke:rgb(0,0,0);stroke-width:1"/>\n\t<line x1="137" y1="58" x2="128" y2="65" style="stroke:rgb(0,0,0);stroke-width:1"/>\n\t<line x1="135" y1="37" x2="140" y2="48" style="stroke:rgb(0,0,0);stroke-width:1"/>\n\t<line x1="135" y1="37" x2="142" y2="20" style="stroke:rgb(0,0,0);stroke-width:1"/>\n\t<line id="function random() { [native code] }:Bond:2-1" class="event" x1="131" y1="5" x2="142" y2="20" stroke-width="8" stroke-opacity="0"/>\n\t<line id="function random() { [native code] }:Bond:4-3" class="event" x1="106" y1="24" x2="113" y2="7" stroke-width="8" stroke-opacity="0"/>\n\t<line id="function random() { [native code] }:Bond:7-6" class="event" x1="97" y1="65" x2="113" y2="56" stroke-width="8" stroke-opacity="0"/>\n\t<line id="function random() { [native code] }:Bond:10-9" class="event" x1="81" y1="111" x2="81" y2="93" stroke-width="8" stroke-opacity="0"/>\n\t<line id="function random() { [native code] }:Bond:15-8" class="event" x1="113" y1="93" x2="97" y2="84" stroke-width="8" stroke-opacity="0"/>\n\t<line id="function random() { [native code] }:Bond:18-17" class="event" x1="144" y1="111" x2="144" y2="93" stroke-width="8" stroke-opacity="0"/>\n\t<line id="function random() { [native code] }:Bond:21-19" class="event" x1="176" y1="111" x2="160" y2="120" stroke-width="8" stroke-opacity="0"/>\n\t<line id="function random() { [native code] }:Bond:24-23" class="event" x1="160" y1="84" x2="176" y2="93" stroke-width="8" stroke-opacity="0"/>\n\t<line id="function random() { [native code] }:Bond:25-16" class="event" x1="128" y1="65" x2="128" y2="84" stroke-width="8" stroke-opacity="0"/>\n\t<line id="function random() { [native code] }:Bond:27-5" class="event" x1="135" y1="37" x2="116" y2="38" stroke-width="8" stroke-opacity="0"/>\n\t<line id="function random() { [native code] }:Bond:1-0" class="event" x1="142" y1="20" x2="160" y2="18" stroke-width="8" stroke-opacity="0"/>\n\t<line id="function random() { [native code] }:Bond:3-2" class="event" x1="113" y1="7" x2="131" y2="5" stroke-width="8" stroke-opacity="0"/>\n\t<line id="function random() { [native code] }:Bond:5-4" class="event" x1="116" y1="38" x2="106" y2="24" stroke-width="8" stroke-opacity="0"/>\n\t<line id="function random() { [native code] }:Bond:6-5" class="event" x1="113" y1="56" x2="116" y2="38" stroke-width="8" stroke-opacity="0"/>\n\t<line id="function random() { [native code] }:Bond:8-7" class="event" x1="97" y1="84" x2="97" y2="65" stroke-width="8" stroke-opacity="0"/>\n\t<line id="function random() { [native code] }:Bond:9-8" class="event" x1="81" y1="93" x2="97" y2="84" stroke-width="8" stroke-opacity="0"/>\n\t<line id="function random() { [native code] }:Bond:11-9" class="event" x1="65" y1="84" x2="81" y2="93" stroke-width="8" stroke-opacity="0"/>\n\t<line id="function random() { [native code] }:Bond:12-11" class="event" x1="49" y1="93" x2="65" y2="84" stroke-width="8" stroke-opacity="0"/>\n\t<line id="function random() { [native code] }:Bond:13-12" class="event" x1="34" y1="84" x2="49" y2="93" stroke-width="8" stroke-opacity="0"/>\n\t<line id="function random() { [native code] }:Bond:14-13" class="event" x1="18" y1="93" x2="34" y2="84" stroke-width="8" stroke-opacity="0"/>\n\t<line id="function random() { [native code] }:Bond:16-15" class="event" x1="128" y1="84" x2="113" y2="93" stroke-width="8" stroke-opacity="0"/>\n\t<line id="function random() { [native code] }:Bond:17-16" class="event" x1="144" y1="93" x2="128" y2="84" stroke-width="8" stroke-opacity="0"/>\n\t<line id="function random() { [native code] }:Bond:19-18" class="event" x1="160" y1="120" x2="144" y2="111" stroke-width="8" stroke-opacity="0"/>\n\t<line id="function random() { [native code] }:Bond:20-19" class="event" x1="160" y1="139" x2="160" y2="120" stroke-width="8" stroke-opacity="0"/>\n\t<line id="function random() { [native code] }:Bond:22-21" class="event" x1="192" y1="120" x2="176" y2="111" stroke-width="8" stroke-opacity="0"/>\n\t<line id="function random() { [native code] }:Bond:23-21" class="event" x1="176" y1="93" x2="176" y2="111" stroke-width="8" stroke-opacity="0"/>\n\t<line id="function random() { [native code] }:Bond:24-17" class="event" x1="160" y1="84" x2="144" y2="93" stroke-width="8" stroke-opacity="0"/>\n\t<line id="function random() { [native code] }:Bond:25-6" class="event" x1="128" y1="65" x2="113" y2="56" stroke-width="8" stroke-opacity="0"/>\n\t<line id="function random() { [native code] }:Bond:26-25" class="event" x1="142" y1="53" x2="128" y2="65" stroke-width="8" stroke-opacity="0"/>\n\t<line id="function random() { [native code] }:Bond:27-26" class="event" x1="135" y1="37" x2="142" y2="53" stroke-width="8" stroke-opacity="0"/>\n\t<line id="function random() { [native code] }:Bond:27-1" class="event" x1="135" y1="37" x2="142" y2="20" stroke-width="8" stroke-opacity="0"/>\n\t<circle id="function random() { [native code] }:Atom:0" class="event" cx="160" cy="18" r="8" fill-opacity="0"/>\n\t<circle id="function random() { [native code] }:Atom:1" class="event" cx="142" cy="20" r="8" fill-opacity="0"/>\n\t<circle id="function random() { [native code] }:Atom:2" class="event" cx="131" cy="5" r="8" fill-opacity="0"/>\n\t<circle id="function random() { [native code] }:Atom:3" class="event" cx="113" cy="7" r="8" fill-opacity="0"/>\n\t<circle id="function random() { [native code] }:Atom:4" class="event" cx="106" cy="24" r="8" fill-opacity="0"/>\n\t<circle id="function random() { [native code] }:Atom:5" class="event" cx="116" cy="38" r="8" fill-opacity="0"/>\n\t<circle id="function random() { [native code] }:Atom:6" class="event" cx="113" cy="56" r="8" fill-opacity="0"/>\n\t<circle id="function random() { [native code] }:Atom:7" class="event" cx="97" cy="65" r="8" fill-opacity="0"/>\n\t<circle id="function random() { [native code] }:Atom:8" class="event" cx="97" cy="84" r="8" fill-opacity="0"/>\n\t<circle id="function random() { [native code] }:Atom:9" class="event" cx="81" cy="93" r="8" fill-opacity="0"/>\n\t<circle id="function random() { [native code] }:Atom:10" class="event" cx="81" cy="111" r="8" fill-opacity="0"/>\n\t<circle id="function random() { [native code] }:Atom:11" class="event" cx="65" cy="84" r="8" fill-opacity="0"/>\n\t<circle id="function random() { [native code] }:Atom:12" class="event" cx="49" cy="93" r="8" fill-opacity="0"/>\n\t<circle id="function random() { [native code] }:Atom:13" class="event" cx="34" cy="84" r="8" fill-opacity="0"/>\n\t<circle id="function random() { [native code] }:Atom:14" class="event" cx="18" cy="93" r="8" fill-opacity="0"/>\n\t<circle id="function random() { [native code] }:Atom:15" class="event" cx="113" cy="93" r="8" fill-opacity="0"/>\n\t<circle id="function random() { [native code] }:Atom:16" class="event" cx="128" cy="84" r="8" fill-opacity="0"/>\n\t<circle id="function random() { [native code] }:Atom:17" class="event" cx="144" cy="93" r="8" fill-opacity="0"/>\n\t<circle id="function random() { [native code] }:Atom:18" class="event" cx="144" cy="111" r="8" fill-opacity="0"/>\n\t<circle id="function random() { [native code] }:Atom:19" class="event" cx="160" cy="120" r="8" fill-opacity="0"/>\n\t<circle id="function random() { [native code] }:Atom:20" class="event" cx="160" cy="139" r="8" fill-opacity="0"/>\n\t<circle id="function random() { [native code] }:Atom:21" class="event" cx="176" cy="111" r="8" fill-opacity="0"/>\n\t<circle id="function random() { [native code] }:Atom:22" class="event" cx="192" cy="120" r="8" fill-opacity="0"/>\n\t<circle id="function random() { [native code] }:Atom:23" class="event" cx="176" cy="93" r="8" fill-opacity="0"/>\n\t<circle id="function random() { [native code] }:Atom:24" class="event" cx="160" cy="84" r="8" fill-opacity="0"/>\n\t<circle id="function random() { [native code] }:Atom:25" class="event" cx="128" cy="65" r="8" fill-opacity="0"/>\n\t<circle id="function random() { [native code] }:Atom:26" class="event" cx="142" cy="53" r="8" fill-opacity="0"/>\n\t<circle id="function random() { [native code] }:Atom:27" class="event" cx="135" cy="37" r="8" fill-opacity="0"/>\n</svg>