<svg id="function random() { [native code] }" xmlns="http://www.w3.org/2000/svg" version="1.1" width="200px" height="150px" viewBox="0 0 200 150">\n\t<style> #function random() { [native code] } {pointer-events:none; }  #function random() { [native code] } .event  { pointer-events:all;}  </style>\n\t<text x="91" y="15" font-family=" Helvetica" font-weight="900" font-size="11" fill="rgb(255,13,13)">O</text>\n\t<text x="76" y="42" font-family=" Helvetica" font-weight="900" font-size="11" fill="rgb(48,80,248)">N</text>\n\t<text x="76" y="53" font-family=" Helvetica" font-weight="900" font-size="11" fill="rgb(48,80,248)">H</text>\n\t<text x="14" y="42" font-family=" Helvetica" font-weight="900" font-size="11" fill="rgb(48,80,248)">N</text>\n\t<text x="10" y="45" font-family=" Helvetica" font-weight="900" font-size="7" fill="rgb(48,80,248)">2</text>\n\t<text x="2" y="42" font-family=" Helvetica" font-weight="900" font-size="11" fill="rgb(48,80,248)">H</text>\n\t<text x="107" y="60" font-family=" Helvetica" font-weight="900" font-size="11" fill="rgb(48,80,248)">N</text>\n\t<text x="90" y="122" font-family=" Helvetica" font-weight="900" font-size="11" fill="rgb(31,240,31)">Cl</text>\n\t<text x="121" y="140" font-family=" Helvetica" font-weight="900" font-size="11" fill="rgb(31,240,31)">Cl</text>\n\t<text x="155" y="65" font-family=" Helvetica" font-weight="900" font-size="11" fill="rgb(48,80,248)">N</text>\n\t<text x="163" y="65" font-family=" Helvetica" font-weight="900" font-size="11" fill="rgb(48,80,248)">H</text>\n\t<line x1="194" y1="29" x2="187" y2="46" style="stroke:rgb(0,0,0);stroke-width:1"/>\n\t<line x1="191" y1="30" x2="186" y2="43" style="stroke:rgb(0,0,0);stroke-width:1"/>\n\t<line x1="166" y1="17" x2="184" y2="15" style="stroke:rgb(0,0,0);stroke-width:1"/>\n\t<line x1="168" y1="19" x2="182" y2="18" style="stroke:rgb(0,0,0);stroke-width:1"/>\n\t<line x1="126" y1="30" x2="142" y2="39" style="stroke:rgb(0,0,0);stroke-width:1"/>\n\t<line x1="127" y1="33" x2="139" y2="40" style="stroke:rgb(0,0,0);stroke-width:1"/>\n\t<line x1="97" y1="31" x2="97" y2="17" style="stroke:rgb(0,0,0);stroke-width:1"/>\n\t<line x1="94" y1="31" x2="94" y2="17" style="stroke:rgb(0,0,0);stroke-width:1"/>\n\t<line x1="111" y1="39" x2="111" y2="52" style="stroke:rgb(0,0,0);stroke-width:1"/>\n\t<line x1="114" y1="41" x2="114" y2="52" style="stroke:rgb(0,0,0);stroke-width:1"/>\n\t<line x1="111" y1="92" x2="126" y2="83" style="stroke:rgb(0,0,0);stroke-width:1"/>\n\t<line x1="114" y1="94" x2="126" y2="87" style="stroke:rgb(0,0,0);stroke-width:1"/>\n\t<line x1="126" y1="119" x2="111" y2="110" style="stroke:rgb(0,0,0);stroke-width:1"/>\n\t<line x1="126" y1="116" x2="114" y2="109" style="stroke:rgb(0,0,0);stroke-width:1"/>\n\t<line x1="142" y1="92" x2="142" y2="110" style="stroke:rgb(0,0,0);stroke-width:1"/>\n\t<line x1="139" y1="94" x2="139" y2="108" style="stroke:rgb(0,0,0);stroke-width:1"/>\n\t<line x1="142" y1="57" x2="126" y2="66" style="stroke:rgb(0,0,0);stroke-width:1"/>\n\t<line x1="139" y1="55" x2="127" y2="62" style="stroke:rgb(0,0,0);stroke-width:1"/>\n\t<line x1="169" y1="48" x2="159" y2="33" style="stroke:rgb(0,0,0);stroke-width:1"/>\n\t<line x1="170" y1="45" x2="162" y2="33" style="stroke:rgb(0,0,0);stroke-width:1"/>\n\t<line x1="187" y1="46" x2="198" y2="60" style="stroke:rgb(0,0,0);stroke-width:1"/>\n\t<line x1="184" y1="15" x2="194" y2="29" style="stroke:rgb(0,0,0);stroke-width:1"/>\n\t<line x1="159" y1="33" x2="166" y2="17" style="stroke:rgb(0,0,0);stroke-width:1"/>\n\t<line x1="142" y1="39" x2="159" y2="33" style="stroke:rgb(0,0,0);stroke-width:1"/>\n\t<line x1="111" y1="39" x2="126" y2="30" style="stroke:rgb(0,0,0);stroke-width:1"/>\n\t<line x1="95" y1="30" x2="111" y2="39" style="stroke:rgb(0,0,0);stroke-width:1"/>\n\t<line x1="85" y1="36" x2="95" y2="30" style="stroke:rgb(0,0,0);stroke-width:1"/>\n\t<line x1="64" y1="30" x2="75" y2="36" style="stroke:rgb(0,0,0);stroke-width:1"/>\n\t<line x1="49" y1="39" x2="64" y2="30" style="stroke:rgb(0,0,0);stroke-width:1"/>\n\t<line x1="33" y1="30" x2="49" y2="39" style="stroke:rgb(0,0,0);stroke-width:1"/>\n\t<line x1="23" y1="36" x2="33" y2="30" style="stroke:rgb(0,0,0);stroke-width:1"/>\n\t<line x1="126" y1="66" x2="116" y2="59" style="stroke:rgb(0,0,0);stroke-width:1"/>\n\t<line x1="126" y1="83" x2="126" y2="66" style="stroke:rgb(0,0,0);stroke-width:1"/>\n\t<line x1="111" y1="110" x2="111" y2="92" style="stroke:rgb(0,0,0);stroke-width:1"/>\n\t<line x1="102" y1="116" x2="111" y2="110" style="stroke:rgb(0,0,0);stroke-width:1"/>\n\t<line x1="126" y1="132" x2="126" y2="119" style="stroke:rgb(0,0,0);stroke-width:1"/>\n\t<line x1="142" y1="110" x2="126" y2="119" style="stroke:rgb(0,0,0);stroke-width:1"/>\n\t<line x1="142" y1="92" x2="126" y2="83" style="stroke:rgb(0,0,0);stroke-width:1"/>\n\t<line x1="142" y1="57" x2="142" y2="39" style="stroke:rgb(0,0,0);stroke-width:1"/>\n\t<line x1="154" y1="61" x2="142" y2="57" style="stroke:rgb(0,0,0);stroke-width:1"/>\n\t<line x1="169" y1="48" x2="163" y2="57" style="stroke:rgb(0,0,0);stroke-width:1"/>\n\t<line x1="169" y1="48" x2="187" y2="46" style="stroke:rgb(0,0,0);stroke-width:1"/>\n\t<line id="function random() { [native code] }:Bond:2-1" class="event" x1="194" y1="29" x2="187" y2="46" stroke-width="8" stroke-opacity="0"/>\n\t<line id="function random() { [native code] }:Bond:4-3" class="event" x1="166" y1="17" x2="184" y2="15" stroke-width="8" stroke-opacity="0"/>\n\t<line id="function random() { [native code] }:Bond:7-6" class="event" x1="126" y1="30" x2="142" y2="39" stroke-width="8" stroke-opacity="0"/>\n\t<line id="function random() { [native code] }:Bond:10-9" class="event" x1="95" y1="12" x2="95" y2="30" stroke-width="8" stroke-opacity="0"/>\n\t<line id="function random() { [native code] }:Bond:16-8" class="event" x1="111" y1="57" x2="111" y2="39" stroke-width="8" stroke-opacity="0"/>\n\t<line id="function random() { [native code] }:Bond:19-18" class="event" x1="111" y1="92" x2="126" y2="83" stroke-width="8" stroke-opacity="0"/>\n\t<line id="function random() { [native code] }:Bond:22-20" class="event" x1="126" y1="119" x2="111" y2="110" stroke-width="8" stroke-opacity="0"/>\n\t<line id="function random() { [native code] }:Bond:25-24" class="event" x1="142" y1="92" x2="142" y2="110" stroke-width="8" stroke-opacity="0"/>\n\t<line id="function random() { [native code] }:Bond:26-17" class="event" x1="142" y1="57" x2="126" y2="66" stroke-width="8" stroke-opacity="0"/>\n\t<line id="function random() { [native code] }:Bond:28-5" class="event" x1="169" y1="48" x2="159" y2="33" stroke-width="8" stroke-opacity="0"/>\n\t<line id="function random() { [native code] }:Bond:1-0" class="event" x1="187" y1="46" x2="198" y2="60" stroke-width="8" stroke-opacity="0"/>\n\t<line id="function random() { [native code] }:Bond:3-2" class="event" x1="184" y1="15" x2="194" y2="29" stroke-width="8" stroke-opacity="0"/>\n\t<line id="function random() { [native code] }:Bond:5-4" class="event" x1="159" y1="33" x2="166" y2="17" stroke-width="8" stroke-opacity="0"/>\n\t<line id="function random() { [native code] }:Bond:6-5" class="event" x1="142" y1="39" x2="159" y2="33" stroke-width="8" stroke-opacity="0"/>\n\t<line id="function random() { [native code] }:Bond:8-7" class="event" x1="111" y1="39" x2="126" y2="30" stroke-width="8" stroke-opacity="0"/>\n\t<line id="function random() { [native code] }:Bond:9-8" class="event" x1="95" y1="30" x2="111" y2="39" stroke-width="8" stroke-opacity="0"/>\n\t<line id="function random() { [native code] }:Bond:11-9" class="event" x1="80" y1="39" x2="95" y2="30" stroke-width="8" stroke-opacity="0"/>\n\t<line id="function random() { [native code] }:Bond:12-11" class="event" x1="64" y1="30" x2="80" y2="39" stroke-width="8" stroke-opacity="0"/>\n\t<line id="function random() { [native code] }:Bond:13-12" class="event" x1="49" y1="39" x2="64" y2="30" stroke-width="8" stroke-opacity="0"/>\n\t<line id="function random() { [native code] }:Bond:14-13" class="event" x1="33" y1="30" x2="49" y2="39" stroke-width="8" stroke-opacity="0"/>\n\t<line id="function random() { [native code] }:Bond:15-14" class="event" x1="18" y1="39" x2="33" y2="30" stroke-width="8" stroke-opacity="0"/>\n\t<line id="function random() { [native code] }:Bond:17-16" class="event" x1="126" y1="66" x2="111" y2="57" stroke-width="8" stroke-opacity="0"/>\n\t<line id="function random() { [native code] }:Bond:18-17" class="event" x1="126" y1="83" x2="126" y2="66" stroke-width="8" stroke-opacity="0"/>\n\t<line id="function random() { [native code] }:Bond:20-19" class="event" x1="111" y1="110" x2="111" y2="92" stroke-width="8" stroke-opacity="0"/>\n\t<line id="function random() { [native code] }:Bond:21-20" class="event" x1="95" y1="119" x2="111" y2="110" stroke-width="8" stroke-opacity="0"/>\n\t<line id="function random() { [native code] }:Bond:23-22" class="event" x1="126" y1="137" x2="126" y2="119" stroke-width="8" stroke-opacity="0"/>\n\t<line id="function random() { [native code] }:Bond:24-22" class="event" x1="142" y1="110" x2="126" y2="119" stroke-width="8" stroke-opacity="0"/>\n\t<line id="function random() { [native code] }:Bond:25-18" class="event" x1="142" y1="92" x2="126" y2="83" stroke-width="8" stroke-opacity="0"/>\n\t<line id="function random() { [native code] }:Bond:26-6" class="event" x1="142" y1="57" x2="142" y2="39" stroke-width="8" stroke-opacity="0"/>\n\t<line id="function random() { [native code] }:Bond:27-26" class="event" x1="159" y1="62" x2="142" y2="57" stroke-width="8" stroke-opacity="0"/>\n\t<line id="function random() { [native code] }:Bond:28-27" class="event" x1="169" y1="48" x2="159" y2="62" stroke-width="8" stroke-opacity="0"/>\n\t<line id="function random() { [native code] }:Bond:28-1" class="event" x1="169" y1="48" x2="187" y2="46" stroke-width="8" stroke-opacity="0"/>\n\t<circle id="function random() { [native code] }:Atom:0" class="event" cx="198" cy="60" r="8" fill-opacity="0"/>\n\t<circle id="function random() { [native code] }:Atom:1" class="event" cx="187" cy="46" r="8" fill-opacity="0"/>\n\t<circle id="function random() { [native code] }:Atom:2" class="event" cx="194" cy="29" r="8" fill-opacity="0"/>\n\t<circle id="function random() { [native code] }:Atom:3" class="event" cx="184" cy="15" r="8" fill-opacity="0"/>\n\t<circle id="function random() { [native code] }:Atom:4" class="event" cx="166" cy="17" r="8" fill-opacity="0"/>\n\t<circle id="function random() { [native code] }:Atom:5" class="event" cx="159" cy="33" r="8" fill-opacity="0"/>\n\t<circle id="function random() { [native code] }:Atom:6" class="event" cx="142" cy="39" r="8" fill-opacity="0"/>\n\t<circle id="function random() { [native code] }:Atom:7" class="event" cx="126" cy="30" r="8" fill-opacity="0"/>\n\t<circle id="function random() { [native code] }:Atom:8" class="event" cx="111" cy="39" r="8" fill-opacity="0"/>\n\t<circle id="function random() { [native code] }:Atom:9" class="event" cx="95" cy="30" r="8" fill-opacity="0"/>\n\t<circle id="function random() { [native code] }:Atom:10" class="event" cx="95" cy="12" r="8" fill-opacity="0"/>\n\t<circle id="function random() { [native code] }:Atom:11" class="event" cx="80" cy="39" r="8" fill-opacity="0"/>\n\t<circle id="function random() { [native code] }:Atom:12" class="event" cx="64" cy="30" r="8" fill-opacity="0"/>\n\t<circle id="function random() { [native code] }:Atom:13" class="event" cx="49" cy="39" r="8" fill-opacity="0"/>\n\t<circle id="function random() { [native code] }:Atom:14" class="event" cx="33" cy="30" r="8" fill-opacity="0"/>\n\t<circle id="function random() { [native code] }:Atom:15" class="event" cx="18" cy="39" r="8" fill-opacity="0"/>\n\t<circle id="function random() { [native code] }:Atom:16" class="event" cx="111" cy="57" r="8" fill-opacity="0"/>\n\t<circle id="function random() { [native code] }:Atom:17" class="event" cx="126" cy="66" r="8" fill-opacity="0"/>\n\t<circle id="function random() { [native code] }:Atom:18" class="event" cx="126" cy="83" r="8" fill-opacity="0"/>\n\t<circle id="function random() { [native code] }:Atom:19" class="event" cx="111" cy="92" r="8" fill-opacity="0"/>\n\t<circle id="function random() { [native code] }:Atom:20" class="event" cx="111" cy="110" r="8" fill-opacity="0"/>\n\t<circle id="function random() { [native code] }:Atom:21" class="event" cx="95" cy="119" r="8" fill-opacity="0"/>\n\t<circle id="function random() { [native code] }:Atom:22" class="event" cx="126" cy="119" r="8" fill-opacity="0"/>\n\t<circle id="function random() { [native code] }:Atom:23" class="event" cx="126" cy="137" r="8" fill-opacity="0"/>\n\t<circle id="function random() { [native code] }:Atom:24" class="event" cx="142" cy="110" r="8" fill-opacity="0"/>\n\t<circle id="function random() { [native code] }:Atom:25" class="event" cx="142" cy="92" r="8" fill-opacity="0"/>\n\t<circle id="function random() { [native code] }:Atom:26" class="event" cx="142" cy="57" r="8" fill-opacity="0"/>\n\t<circle id="function random() { [native code] }:Atom:27" class="event" cx="159" cy="62" r="8" fill-opacity="0"/>\n\t<circle id="function random() { [native code] }:Atom:28" class="event" cx="169" cy="48" r="8" fill-opacity="0"/>\n</svg>