<svg id="function random() { [native code] }" xmlns="http://www.w3.org/2000/svg" version="1.1" width="200px" height="150px" viewBox="0 0 200 150">\n\t<style> #function random() { [native code] } {pointer-events:none; }  #function random() { [native code] } .event  { pointer-events:all;}  </style>\n\t<text x="176" y="39" font-family=" Helvetica" font-weight="900" font-size="12" fill="rgb(48,80,248)">N</text>\n\t<text x="176" y="27" font-family=" Helvetica" font-weight="900" font-size="12" fill="rgb(48,80,248)">H</text>\n\t<text x="126" y="49" font-family=" Helvetica" font-weight="900" font-size="12" fill="rgb(48,80,248)">N</text>\n\t<text x="126" y="61" font-family=" Helvetica" font-weight="900" font-size="12" fill="rgb(48,80,248)">H</text>\n\t<text x="108" y="20" font-family=" Helvetica" font-weight="900" font-size="12" fill="rgb(255,13,13)">O</text>\n\t<text x="39" y="75" font-family=" Helvetica" font-weight="900" font-size="12" fill="rgb(48,80,248)">N</text>\n\t<text x="39" y="87" font-family=" Helvetica" font-weight="900" font-size="12" fill="rgb(48,80,248)">H</text>\n\t<text x="40" y="137" font-family=" Helvetica" font-weight="900" font-size="12" fill="rgb(31,240,31)">Cl</text>\n\t<text x="92" y="69" font-family=" Helvetica" font-weight="900" font-size="12" fill="rgb(48,80,248)">N</text>\n\t<line x1="115" y1="36" x2="115" y2="22" style="stroke:rgb(0,0,0);stroke-width:1"/>\n\t<line x1="112" y1="36" x2="112" y2="22" style="stroke:rgb(0,0,0);stroke-width:1"/>\n\t<line x1="79" y1="35" x2="96" y2="45" style="stroke:rgb(0,0,0);stroke-width:1"/>\n\t<line x1="80" y1="39" x2="93" y2="47" style="stroke:rgb(0,0,0);stroke-width:1"/>\n\t<line x1="36" y1="21" x2="44" y2="39" style="stroke:rgb(0,0,0);stroke-width:1"/>\n\t<line x1="34" y1="24" x2="40" y2="38" style="stroke:rgb(0,0,0);stroke-width:1"/>\n\t<line x1="5" y1="35" x2="16" y2="19" style="stroke:rgb(0,0,0);stroke-width:1"/>\n\t<line x1="9" y1="35" x2="18" y2="23" style="stroke:rgb(0,0,0);stroke-width:1"/>\n\t<line x1="32" y1="55" x2="13" y2="53" style="stroke:rgb(0,0,0);stroke-width:1"/>\n\t<line x1="31" y1="52" x2="15" y2="50" style="stroke:rgb(0,0,0);stroke-width:1"/>\n\t<line x1="62" y1="65" x2="62" y2="45" style="stroke:rgb(0,0,0);stroke-width:1"/>\n\t<line x1="65" y1="63" x2="65" y2="47" style="stroke:rgb(0,0,0);stroke-width:1"/>\n\t<line x1="62" y1="104" x2="79" y2="94" style="stroke:rgb(0,0,0);stroke-width:1"/>\n\t<line x1="66" y1="105" x2="79" y2="98" style="stroke:rgb(0,0,0);stroke-width:1"/>\n\t<line x1="79" y1="133" x2="62" y2="123" style="stroke:rgb(0,0,0);stroke-width:1"/>\n\t<line x1="79" y1="129" x2="66" y2="122" style="stroke:rgb(0,0,0);stroke-width:1"/>\n\t<line x1="96" y1="104" x2="96" y2="123" style="stroke:rgb(0,0,0);stroke-width:1"/>\n\t<line x1="93" y1="106" x2="93" y2="121" style="stroke:rgb(0,0,0);stroke-width:1"/>\n\t<line x1="79" y1="75" x2="91" y2="68" style="stroke:rgb(0,0,0);stroke-width:1"/>\n\t<line x1="80" y1="71" x2="89" y2="65" style="stroke:rgb(0,0,0);stroke-width:1"/>\n\t<line x1="186" y1="39" x2="198" y2="45" style="stroke:rgb(0,0,0);stroke-width:1"/>\n\t<line x1="164" y1="45" x2="175" y2="39" style="stroke:rgb(0,0,0);stroke-width:1"/>\n\t<line x1="147" y1="35" x2="164" y2="45" style="stroke:rgb(0,0,0);stroke-width:1"/>\n\t<line x1="135" y1="42" x2="147" y2="35" style="stroke:rgb(0,0,0);stroke-width:1"/>\n\t<line x1="113" y1="35" x2="125" y2="42" style="stroke:rgb(0,0,0);stroke-width:1"/>\n\t<line x1="96" y1="45" x2="113" y2="35" style="stroke:rgb(0,0,0);stroke-width:1"/>\n\t<line x1="62" y1="45" x2="79" y2="35" style="stroke:rgb(0,0,0);stroke-width:1"/>\n\t<line x1="44" y1="39" x2="62" y2="45" style="stroke:rgb(0,0,0);stroke-width:1"/>\n\t<line x1="16" y1="19" x2="36" y2="21" style="stroke:rgb(0,0,0);stroke-width:1"/>\n\t<line x1="13" y1="53" x2="5" y2="35" style="stroke:rgb(0,0,0);stroke-width:1"/>\n\t<line x1="1" y1="69" x2="13" y2="53" style="stroke:rgb(0,0,0);stroke-width:1"/>\n\t<line x1="32" y1="55" x2="44" y2="39" style="stroke:rgb(0,0,0);stroke-width:1"/>\n\t<line x1="39" y1="65" x2="32" y2="55" style="stroke:rgb(0,0,0);stroke-width:1"/>\n\t<line x1="62" y1="65" x2="49" y2="69" style="stroke:rgb(0,0,0);stroke-width:1"/>\n\t<line x1="79" y1="75" x2="62" y2="65" style="stroke:rgb(0,0,0);stroke-width:1"/>\n\t<line x1="79" y1="94" x2="79" y2="75" style="stroke:rgb(0,0,0);stroke-width:1"/>\n\t<line x1="62" y1="123" x2="62" y2="104" style="stroke:rgb(0,0,0);stroke-width:1"/>\n\t<line x1="52" y1="129" x2="62" y2="123" style="stroke:rgb(0,0,0);stroke-width:1"/>\n\t<line x1="96" y1="123" x2="79" y2="133" style="stroke:rgb(0,0,0);stroke-width:1"/>\n\t<line x1="96" y1="104" x2="79" y2="94" style="stroke:rgb(0,0,0);stroke-width:1"/>\n\t<line x1="96" y1="59" x2="96" y2="45" style="stroke:rgb(0,0,0);stroke-width:1"/>\n\t<line id="function random() { [native code] }:Bond:6-5" class="event" x1="113" y1="16" x2="113" y2="35" stroke-width="8" stroke-opacity="0"/>\n\t<line id="function random() { [native code] }:Bond:8-7" class="event" x1="79" y1="35" x2="96" y2="45" stroke-width="8" stroke-opacity="0"/>\n\t<line id="function random() { [native code] }:Bond:11-10" class="event" x1="36" y1="21" x2="44" y2="39" stroke-width="8" stroke-opacity="0"/>\n\t<line id="function random() { [native code] }:Bond:13-12" class="event" x1="5" y1="35" x2="16" y2="19" stroke-width="8" stroke-opacity="0"/>\n\t<line id="function random() { [native code] }:Bond:16-14" class="event" x1="32" y1="55" x2="13" y2="53" stroke-width="8" stroke-opacity="0"/>\n\t<line id="function random() { [native code] }:Bond:18-9" class="event" x1="62" y1="65" x2="62" y2="45" stroke-width="8" stroke-opacity="0"/>\n\t<line id="function random() { [native code] }:Bond:21-20" class="event" x1="62" y1="104" x2="79" y2="94" stroke-width="8" stroke-opacity="0"/>\n\t<line id="function random() { [native code] }:Bond:24-22" class="event" x1="79" y1="133" x2="62" y2="123" stroke-width="8" stroke-opacity="0"/>\n\t<line id="function random() { [native code] }:Bond:26-25" class="event" x1="96" y1="104" x2="96" y2="123" stroke-width="8" stroke-opacity="0"/>\n\t<line id="function random() { [native code] }:Bond:27-19" class="event" x1="96" y1="65" x2="79" y2="75" stroke-width="8" stroke-opacity="0"/>\n\t<line id="function random() { [native code] }:Bond:1-0" class="event" x1="181" y1="35" x2="198" y2="45" stroke-width="8" stroke-opacity="0"/>\n\t<line id="function random() { [native code] }:Bond:2-1" class="event" x1="164" y1="45" x2="181" y2="35" stroke-width="8" stroke-opacity="0"/>\n\t<line id="function random() { [native code] }:Bond:3-2" class="event" x1="147" y1="35" x2="164" y2="45" stroke-width="8" stroke-opacity="0"/>\n\t<line id="function random() { [native code] }:Bond:4-3" class="event" x1="130" y1="45" x2="147" y2="35" stroke-width="8" stroke-opacity="0"/>\n\t<line id="function random() { [native code] }:Bond:5-4" class="event" x1="113" y1="35" x2="130" y2="45" stroke-width="8" stroke-opacity="0"/>\n\t<line id="function random() { [native code] }:Bond:7-5" class="event" x1="96" y1="45" x2="113" y2="35" stroke-width="8" stroke-opacity="0"/>\n\t<line id="function random() { [native code] }:Bond:9-8" class="event" x1="62" y1="45" x2="79" y2="35" stroke-width="8" stroke-opacity="0"/>\n\t<line id="function random() { [native code] }:Bond:10-9" class="event" x1="44" y1="39" x2="62" y2="45" stroke-width="8" stroke-opacity="0"/>\n\t<line id="function random() { [native code] }:Bond:12-11" class="event" x1="16" y1="19" x2="36" y2="21" stroke-width="8" stroke-opacity="0"/>\n\t<line id="function random() { [native code] }:Bond:14-13" class="event" x1="13" y1="53" x2="5" y2="35" stroke-width="8" stroke-opacity="0"/>\n\t<line id="function random() { [native code] }:Bond:15-14" class="event" x1="1" y1="69" x2="13" y2="53" stroke-width="8" stroke-opacity="0"/>\n\t<line id="function random() { [native code] }:Bond:16-10" class="event" x1="32" y1="55" x2="44" y2="39" stroke-width="8" stroke-opacity="0"/>\n\t<line id="function random() { [native code] }:Bond:17-16" class="event" x1="44" y1="71" x2="32" y2="55" stroke-width="8" stroke-opacity="0"/>\n\t<line id="function random() { [native code] }:Bond:18-17" class="event" x1="62" y1="65" x2="44" y2="71" stroke-width="8" stroke-opacity="0"/>\n\t<line id="function random() { [native code] }:Bond:19-18" class="event" x1="79" y1="75" x2="62" y2="65" stroke-width="8" stroke-opacity="0"/>\n\t<line id="function random() { [native code] }:Bond:20-19" class="event" x1="79" y1="94" x2="79" y2="75" stroke-width="8" stroke-opacity="0"/>\n\t<line id="function random() { [native code] }:Bond:22-21" class="event" x1="62" y1="123" x2="62" y2="104" stroke-width="8" stroke-opacity="0"/>\n\t<line id="function random() { [native code] }:Bond:23-22" class="event" x1="45" y1="133" x2="62" y2="123" stroke-width="8" stroke-opacity="0"/>\n\t<line id="function random() { [native code] }:Bond:25-24" class="event" x1="96" y1="123" x2="79" y2="133" stroke-width="8" stroke-opacity="0"/>\n\t<line id="function random() { [native code] }:Bond:26-20" class="event" x1="96" y1="104" x2="79" y2="94" stroke-width="8" stroke-opacity="0"/>\n\t<line id="function random() { [native code] }:Bond:27-7" class="event" x1="96" y1="65" x2="96" y2="45" stroke-width="8" stroke-opacity="0"/>\n\t<circle id="function random() { [native code] }:Atom:0" class="event" cx="198" cy="45" r="8" fill-opacity="0"/>\n\t<circle id="function random() { [native code] }:Atom:1" class="event" cx="181" cy="35" r="8" fill-opacity="0"/>\n\t<circle id="function random() { [native code] }:Atom:2" class="event" cx="164" cy="45" r="8" fill-opacity="0"/>\n\t<circle id="function random() { [native code] }:Atom:3" class="event" cx="147" cy="35" r="8" fill-opacity="0"/>\n\t<circle id="function random() { [native code] }:Atom:4" class="event" cx="130" cy="45" r="8" fill-opacity="0"/>\n\t<circle id="function random() { [native code] }:Atom:5" class="event" cx="113" cy="35" r="8" fill-opacity="0"/>\n\t<circle id="function random() { [native code] }:Atom:6" class="event" cx="113" cy="16" r="8" fill-opacity="0"/>\n\t<circle id="function random() { [native code] }:Atom:7" class="event" cx="96" cy="45" r="8" fill-opacity="0"/>\n\t<circle id="function random() { [native code] }:Atom:8" class="event" cx="79" cy="35" r="8" fill-opacity="0"/>\n\t<circle id="function random() { [native code] }:Atom:9" class="event" cx="62" cy="45" r="8" fill-opacity="0"/>\n\t<circle id="function random() { [native code] }:Atom:10" class="event" cx="44" cy="39" r="8" fill-opacity="0"/>\n\t<circle id="function random() { [native code] }:Atom:11" class="event" cx="36" cy="21" r="8" fill-opacity="0"/>\n\t<circle id="function random() { [native code] }:Atom:12" class="event" cx="16" cy="19" r="8" fill-opacity="0"/>\n\t<circle id="function random() { [native code] }:Atom:13" class="event" cx="5" cy="35" r="8" fill-opacity="0"/>\n\t<circle id="function random() { [native code] }:Atom:14" class="event" cx="13" cy="53" r="8" fill-opacity="0"/>\n\t<circle id="function random() { [native code] }:Atom:15" class="event" cx="1" cy="69" r="8" fill-opacity="0"/>\n\t<circle id="function random() { [native code] }:Atom:16" class="event" cx="32" cy="55" r="8" fill-opacity="0"/>\n\t<circle id="function random() { [native code] }:Atom:17" class="event" cx="44" cy="71" r="8" fill-opacity="0"/>\n\t<circle id="function random() { [native code] }:Atom:18" class="event" cx="62" cy="65" r="8" fill-opacity="0"/>\n\t<circle id="function random() { [native code] }:Atom:19" class="event" cx="79" cy="75" r="8" fill-opacity="0"/>\n\t<circle id="function random() { [native code] }:Atom:20" class="event" cx="79" cy="94" r="8" fill-opacity="0"/>\n\t<circle id="function random() { [native code] }:Atom:21" class="event" cx="62" cy="104" r="8" fill-opacity="0"/>\n\t<circle id="function random() { [native code] }:Atom:22" class="event" cx="62" cy="123" r="8" fill-opacity="0"/>\n\t<circle id="function random() { [native code] }:Atom:23" class="event" cx="45" cy="133" r="8" fill-opacity="0"/>\n\t<circle id="function random() { [native code] }:Atom:24" class="event" cx="79" cy="133" r="8" fill-opacity="0"/>\n\t<circle id="function random() { [native code] }:Atom:25" class="event" cx="96" cy="123" r="8" fill-opacity="0"/>\n\t<circle id="function random() { [native code] }:Atom:26" class="event" cx="96" cy="104" r="8" fill-opacity="0"/>\n\t<circle id="function random() { [native code] }:Atom:27" class="event" cx="96" cy="65" r="8" fill-opacity="0"/>\n</svg>