<svg id="function random() { [native code] }" xmlns="http://www.w3.org/2000/svg" version="1.1" width="200px" height="150px" viewBox="0 0 200 150">\n\t<style> #function random() { [native code] } {pointer-events:none; }  #function random() { [native code] } .event  { pointer-events:all;}  </style>\n\t<text x="175" y="30" font-family=" Helvetica" font-weight="900" font-size="12" fill="rgb(48,80,248)">N</text>\n\t<text x="175" y="18" font-family=" Helvetica" font-weight="900" font-size="12" fill="rgb(48,80,248)">H</text>\n\t<text x="125" y="40" font-family=" Helvetica" font-weight="900" font-size="12" fill="rgb(48,80,248)">N</text>\n\t<text x="125" y="52" font-family=" Helvetica" font-weight="900" font-size="12" fill="rgb(48,80,248)">H</text>\n\t<text x="108" y="11" font-family=" Helvetica" font-weight="900" font-size="12" fill="rgb(255,13,13)">O</text>\n\t<text x="40" y="65" font-family=" Helvetica" font-weight="900" font-size="12" fill="rgb(48,80,248)">N</text>\n\t<text x="40" y="77" font-family=" Helvetica" font-weight="900" font-size="12" fill="rgb(48,80,248)">H</text>\n\t<text x="74" y="146" font-family=" Helvetica" font-weight="900" font-size="12" fill="rgb(31,240,31)">Cl</text>\n\t<text x="107" y="88" font-family=" Helvetica" font-weight="900" font-size="12" fill="rgb(31,240,31)">Cl</text>\n\t<text x="92" y="59" font-family=" Helvetica" font-weight="900" font-size="12" fill="rgb(48,80,248)">N</text>\n\t<line x1="114" y1="27" x2="114" y2="13" style="stroke:rgb(0,0,0);stroke-width:1"/>\n\t<line x1="111" y1="27" x2="111" y2="13" style="stroke:rgb(0,0,0);stroke-width:1"/>\n\t<line x1="80" y1="26" x2="96" y2="36" style="stroke:rgb(0,0,0);stroke-width:1"/>\n\t<line x1="80" y1="30" x2="93" y2="38" style="stroke:rgb(0,0,0);stroke-width:1"/>\n\t<line x1="37" y1="13" x2="45" y2="30" style="stroke:rgb(0,0,0);stroke-width:1"/>\n\t<line x1="35" y1="16" x2="41" y2="29" style="stroke:rgb(0,0,0);stroke-width:1"/>\n\t<line x1="6" y1="26" x2="18" y2="11" style="stroke:rgb(0,0,0);stroke-width:1"/>\n\t<line x1="10" y1="26" x2="19" y2="14" style="stroke:rgb(0,0,0);stroke-width:1"/>\n\t<line x1="33" y1="46" x2="14" y2="44" style="stroke:rgb(0,0,0);stroke-width:1"/>\n\t<line x1="32" y1="43" x2="17" y2="41" style="stroke:rgb(0,0,0);stroke-width:1"/>\n\t<line x1="63" y1="55" x2="63" y2="36" style="stroke:rgb(0,0,0);stroke-width:1"/>\n\t<line x1="66" y1="53" x2="66" y2="38" style="stroke:rgb(0,0,0);stroke-width:1"/>\n\t<line x1="63" y1="94" x2="80" y2="84" style="stroke:rgb(0,0,0);stroke-width:1"/>\n\t<line x1="66" y1="95" x2="79" y2="88" style="stroke:rgb(0,0,0);stroke-width:1"/>\n\t<line x1="80" y1="123" x2="63" y2="113" style="stroke:rgb(0,0,0);stroke-width:1"/>\n\t<line x1="79" y1="119" x2="66" y2="111" style="stroke:rgb(0,0,0);stroke-width:1"/>\n\t<line x1="96" y1="94" x2="96" y2="113" style="stroke:rgb(0,0,0);stroke-width:1"/>\n\t<line x1="93" y1="96" x2="93" y2="111" style="stroke:rgb(0,0,0);stroke-width:1"/>\n\t<line x1="80" y1="65" x2="91" y2="58" style="stroke:rgb(0,0,0);stroke-width:1"/>\n\t<line x1="80" y1="61" x2="89" y2="56" style="stroke:rgb(0,0,0);stroke-width:1"/>\n\t<line x1="185" y1="30" x2="196" y2="36" style="stroke:rgb(0,0,0);stroke-width:1"/>\n\t<line x1="163" y1="36" x2="174" y2="30" style="stroke:rgb(0,0,0);stroke-width:1"/>\n\t<line x1="146" y1="26" x2="163" y2="36" style="stroke:rgb(0,0,0);stroke-width:1"/>\n\t<line x1="135" y1="33" x2="146" y2="26" style="stroke:rgb(0,0,0);stroke-width:1"/>\n\t<line x1="113" y1="26" x2="124" y2="33" style="stroke:rgb(0,0,0);stroke-width:1"/>\n\t<line x1="96" y1="36" x2="113" y2="26" style="stroke:rgb(0,0,0);stroke-width:1"/>\n\t<line x1="63" y1="36" x2="80" y2="26" style="stroke:rgb(0,0,0);stroke-width:1"/>\n\t<line x1="45" y1="30" x2="63" y2="36" style="stroke:rgb(0,0,0);stroke-width:1"/>\n\t<line x1="18" y1="11" x2="37" y2="13" style="stroke:rgb(0,0,0);stroke-width:1"/>\n\t<line x1="14" y1="44" x2="6" y2="26" style="stroke:rgb(0,0,0);stroke-width:1"/>\n\t<line x1="3" y1="59" x2="14" y2="44" style="stroke:rgb(0,0,0);stroke-width:1"/>\n\t<line x1="33" y1="46" x2="45" y2="30" style="stroke:rgb(0,0,0);stroke-width:1"/>\n\t<line x1="40" y1="55" x2="33" y2="46" style="stroke:rgb(0,0,0);stroke-width:1"/>\n\t<line x1="63" y1="55" x2="50" y2="59" style="stroke:rgb(0,0,0);stroke-width:1"/>\n\t<line x1="80" y1="65" x2="63" y2="55" style="stroke:rgb(0,0,0);stroke-width:1"/>\n\t<line x1="80" y1="84" x2="80" y2="65" style="stroke:rgb(0,0,0);stroke-width:1"/>\n\t<line x1="63" y1="113" x2="63" y2="94" style="stroke:rgb(0,0,0);stroke-width:1"/>\n\t<line x1="80" y1="136" x2="80" y2="123" style="stroke:rgb(0,0,0);stroke-width:1"/>\n\t<line x1="96" y1="113" x2="80" y2="123" style="stroke:rgb(0,0,0);stroke-width:1"/>\n\t<line x1="96" y1="94" x2="80" y2="84" style="stroke:rgb(0,0,0);stroke-width:1"/>\n\t<line x1="106" y1="88" x2="96" y2="94" style="stroke:rgb(0,0,0);stroke-width:1"/>\n\t<line x1="96" y1="49" x2="96" y2="36" style="stroke:rgb(0,0,0);stroke-width:1"/>\n\t<line id="function random() { [native code] }:Bond:6-5" class="event" x1="113" y1="7" x2="113" y2="26" stroke-width="8" stroke-opacity="0"/>\n\t<line id="function random() { [native code] }:Bond:8-7" class="event" x1="80" y1="26" x2="96" y2="36" stroke-width="8" stroke-opacity="0"/>\n\t<line id="function random() { [native code] }:Bond:11-10" class="event" x1="37" y1="13" x2="45" y2="30" stroke-width="8" stroke-opacity="0"/>\n\t<line id="function random() { [native code] }:Bond:13-12" class="event" x1="6" y1="26" x2="18" y2="11" stroke-width="8" stroke-opacity="0"/>\n\t<line id="function random() { [native code] }:Bond:16-14" class="event" x1="33" y1="46" x2="14" y2="44" stroke-width="8" stroke-opacity="0"/>\n\t<line id="function random() { [native code] }:Bond:18-9" class="event" x1="63" y1="55" x2="63" y2="36" stroke-width="8" stroke-opacity="0"/>\n\t<line id="function random() { [native code] }:Bond:21-20" class="event" x1="63" y1="94" x2="80" y2="84" stroke-width="8" stroke-opacity="0"/>\n\t<line id="function random() { [native code] }:Bond:23-22" class="event" x1="80" y1="123" x2="63" y2="113" stroke-width="8" stroke-opacity="0"/>\n\t<line id="function random() { [native code] }:Bond:26-25" class="event" x1="96" y1="94" x2="96" y2="113" stroke-width="8" stroke-opacity="0"/>\n\t<line id="function random() { [native code] }:Bond:28-19" class="event" x1="96" y1="55" x2="80" y2="65" stroke-width="8" stroke-opacity="0"/>\n\t<line id="function random() { [native code] }:Bond:1-0" class="event" x1="179" y1="26" x2="196" y2="36" stroke-width="8" stroke-opacity="0"/>\n\t<line id="function random() { [native code] }:Bond:2-1" class="event" x1="163" y1="36" x2="179" y2="26" stroke-width="8" stroke-opacity="0"/>\n\t<line id="function random() { [native code] }:Bond:3-2" class="event" x1="146" y1="26" x2="163" y2="36" stroke-width="8" stroke-opacity="0"/>\n\t<line id="function random() { [native code] }:Bond:4-3" class="event" x1="129" y1="36" x2="146" y2="26" stroke-width="8" stroke-opacity="0"/>\n\t<line id="function random() { [native code] }:Bond:5-4" class="event" x1="113" y1="26" x2="129" y2="36" stroke-width="8" stroke-opacity="0"/>\n\t<line id="function random() { [native code] }:Bond:7-5" class="event" x1="96" y1="36" x2="113" y2="26" stroke-width="8" stroke-opacity="0"/>\n\t<line id="function random() { [native code] }:Bond:9-8" class="event" x1="63" y1="36" x2="80" y2="26" stroke-width="8" stroke-opacity="0"/>\n\t<line id="function random() { [native code] }:Bond:10-9" class="event" x1="45" y1="30" x2="63" y2="36" stroke-width="8" stroke-opacity="0"/>\n\t<line id="function random() { [native code] }:Bond:12-11" class="event" x1="18" y1="11" x2="37" y2="13" stroke-width="8" stroke-opacity="0"/>\n\t<line id="function random() { [native code] }:Bond:14-13" class="event" x1="14" y1="44" x2="6" y2="26" stroke-width="8" stroke-opacity="0"/>\n\t<line id="function random() { [native code] }:Bond:15-14" class="event" x1="3" y1="59" x2="14" y2="44" stroke-width="8" stroke-opacity="0"/>\n\t<line id="function random() { [native code] }:Bond:16-10" class="event" x1="33" y1="46" x2="45" y2="30" stroke-width="8" stroke-opacity="0"/>\n\t<line id="function random() { [native code] }:Bond:17-16" class="event" x1="45" y1="61" x2="33" y2="46" stroke-width="8" stroke-opacity="0"/>\n\t<line id="function random() { [native code] }:Bond:18-17" class="event" x1="63" y1="55" x2="45" y2="61" stroke-width="8" stroke-opacity="0"/>\n\t<line id="function random() { [native code] }:Bond:19-18" class="event" x1="80" y1="65" x2="63" y2="55" stroke-width="8" stroke-opacity="0"/>\n\t<line id="function random() { [native code] }:Bond:20-19" class="event" x1="80" y1="84" x2="80" y2="65" stroke-width="8" stroke-opacity="0"/>\n\t<line id="function random() { [native code] }:Bond:22-21" class="event" x1="63" y1="113" x2="63" y2="94" stroke-width="8" stroke-opacity="0"/>\n\t<line id="function random() { [native code] }:Bond:24-23" class="event" x1="80" y1="142" x2="80" y2="123" stroke-width="8" stroke-opacity="0"/>\n\t<line id="function random() { [native code] }:Bond:25-23" class="event" x1="96" y1="113" x2="80" y2="123" stroke-width="8" stroke-opacity="0"/>\n\t<line id="function random() { [native code] }:Bond:26-20" class="event" x1="96" y1="94" x2="80" y2="84" stroke-width="8" stroke-opacity="0"/>\n\t<line id="function random() { [native code] }:Bond:27-26" class="event" x1="113" y1="84" x2="96" y2="94" stroke-width="8" stroke-opacity="0"/>\n\t<line id="function random() { [native code] }:Bond:28-7" class="event" x1="96" y1="55" x2="96" y2="36" stroke-width="8" stroke-opacity="0"/>\n\t<circle id="function random() { [native code] }:Atom:0" class="event" cx="196" cy="36" r="8" fill-opacity="0"/>\n\t<circle id="function random() { [native code] }:Atom:1" class="event" cx="179" cy="26" r="8" fill-opacity="0"/>\n\t<circle id="function random() { [native code] }:Atom:2" class="event" cx="163" cy="36" r="8" fill-opacity="0"/>\n\t<circle id="function random() { [native code] }:Atom:3" class="event" cx="146" cy="26" r="8" fill-opacity="0"/>\n\t<circle id="function random() { [native code] }:Atom:4" class="event" cx="129" cy="36" r="8" fill-opacity="0"/>\n\t<circle id="function random() { [native code] }:Atom:5" class="event" cx="113" cy="26" r="8" fill-opacity="0"/>\n\t<circle id="function random() { [native code] }:Atom:6" class="event" cx="113" cy="7" r="8" fill-opacity="0"/>\n\t<circle id="function random() { [native code] }:Atom:7" class="event" cx="96" cy="36" r="8" fill-opacity="0"/>\n\t<circle id="function random() { [native code] }:Atom:8" class="event" cx="80" cy="26" r="8" fill-opacity="0"/>\n\t<circle id="function random() { [native code] }:Atom:9" class="event" cx="63" cy="36" r="8" fill-opacity="0"/>\n\t<circle id="function random() { [native code] }:Atom:10" class="event" cx="45" cy="30" r="8" fill-opacity="0"/>\n\t<circle id="function random() { [native code] }:Atom:11" class="event" cx="37" cy="13" r="8" fill-opacity="0"/>\n\t<circle id="function random() { [native code] }:Atom:12" class="event" cx="18" cy="11" r="8" fill-opacity="0"/>\n\t<circle id="function random() { [native code] }:Atom:13" class="event" cx="6" cy="26" r="8" fill-opacity="0"/>\n\t<circle id="function random() { [native code] }:Atom:14" class="event" cx="14" cy="44" r="8" fill-opacity="0"/>\n\t<circle id="function random() { [native code] }:Atom:15" class="event" cx="3" cy="59" r="8" fill-opacity="0"/>\n\t<circle id="function random() { [native code] }:Atom:16" class="event" cx="33" cy="46" r="8" fill-opacity="0"/>\n\t<circle id="function random() { [native code] }:Atom:17" class="event" cx="45" cy="61" r="8" fill-opacity="0"/>\n\t<circle id="function random() { [native code] }:Atom:18" class="event" cx="63" cy="55" r="8" fill-opacity="0"/>\n\t<circle id="function random() { [native code] }:Atom:19" class="event" cx="80" cy="65" r="8" fill-opacity="0"/>\n\t<circle id="function random() { [native code] }:Atom:20" class="event" cx="80" cy="84" r="8" fill-opacity="0"/>\n\t<circle id="function random() { [native code] }:Atom:21" class="event" cx="63" cy="94" r="8" fill-opacity="0"/>\n\t<circle id="function random() { [native code] }:Atom:22" class="event" cx="63" cy="113" r="8" fill-opacity="0"/>\n\t<circle id="function random() { [native code] }:Atom:23" class="event" cx="80" cy="123" r="8" fill-opacity="0"/>\n\t<circle id="function random() { [native code] }:Atom:24" class="event" cx="80" cy="142" r="8" fill-opacity="0"/>\n\t<circle id="function random() { [native code] }:Atom:25" class="event" cx="96" cy="113" r="8" fill-opacity="0"/>\n\t<circle id="function random() { [native code] }:Atom:26" class="event" cx="96" cy="94" r="8" fill-opacity="0"/>\n\t<circle id="function random() { [native code] }:Atom:27" class="event" cx="113" cy="84" r="8" fill-opacity="0"/>\n\t<circle id="function random() { [native code] }:Atom:28" class="event" cx="96" cy="55" r="8" fill-opacity="0"/>\n</svg>