<svg id="function random() { [native code] }" xmlns="http://www.w3.org/2000/svg" version="1.1" width="200px" height="150px" viewBox="0 0 200 150">\n\t<style> #function random() { [native code] } {pointer-events:none; }  #function random() { [native code] } .event  { pointer-events:all;}  </style>\n\t<text x="169" y="28" font-family=" Helvetica" font-weight="900" font-size="11" fill="rgb(48,80,248)">N</text>\n\t<text x="169" y="17" font-family=" Helvetica" font-weight="900" font-size="11" fill="rgb(48,80,248)">H</text>\n\t<text x="122" y="37" font-family=" Helvetica" font-weight="900" font-size="11" fill="rgb(48,80,248)">N</text>\n\t<text x="122" y="48" font-family=" Helvetica" font-weight="900" font-size="11" fill="rgb(48,80,248)">H</text>\n\t<text x="106" y="10" font-family=" Helvetica" font-weight="900" font-size="11" fill="rgb(255,13,13)">O</text>\n\t<text x="42" y="60" font-family=" Helvetica" font-weight="900" font-size="11" fill="rgb(48,80,248)">N</text>\n\t<text x="42" y="71" font-family=" Helvetica" font-weight="900" font-size="11" fill="rgb(48,80,248)">H</text>\n\t<text x="60" y="145" font-family=" Helvetica" font-weight="900" font-size="11" fill="rgb(144,224,80)">F</text>\n\t<text x="91" y="145" font-family=" Helvetica" font-weight="900" font-size="11" fill="rgb(144,224,80)">F</text>\n\t<text x="91" y="55" font-family=" Helvetica" font-weight="900" font-size="11" fill="rgb(48,80,248)">N</text>\n\t<line x1="112" y1="26" x2="112" y2="12" style="stroke:rgb(0,0,0);stroke-width:1"/>\n\t<line x1="109" y1="26" x2="109" y2="12" style="stroke:rgb(0,0,0);stroke-width:1"/>\n\t<line x1="79" y1="25" x2="95" y2="34" style="stroke:rgb(0,0,0);stroke-width:1"/>\n\t<line x1="79" y1="28" x2="92" y2="35" style="stroke:rgb(0,0,0);stroke-width:1"/>\n\t<line x1="39" y1="12" x2="46" y2="28" style="stroke:rgb(0,0,0);stroke-width:1"/>\n\t<line x1="37" y1="15" x2="43" y2="28" style="stroke:rgb(0,0,0);stroke-width:1"/>\n\t<line x1="10" y1="24" x2="21" y2="10" style="stroke:rgb(0,0,0);stroke-width:1"/>\n\t<line x1="14" y1="25" x2="22" y2="13" style="stroke:rgb(0,0,0);stroke-width:1"/>\n\t<line x1="36" y1="43" x2="18" y2="41" style="stroke:rgb(0,0,0);stroke-width:1"/>\n\t<line x1="34" y1="40" x2="20" y2="38" style="stroke:rgb(0,0,0);stroke-width:1"/>\n\t<line x1="63" y1="52" x2="63" y2="34" style="stroke:rgb(0,0,0);stroke-width:1"/>\n\t<line x1="66" y1="50" x2="66" y2="36" style="stroke:rgb(0,0,0);stroke-width:1"/>\n\t<line x1="63" y1="88" x2="79" y2="79" style="stroke:rgb(0,0,0);stroke-width:1"/>\n\t<line x1="66" y1="89" x2="79" y2="82" style="stroke:rgb(0,0,0);stroke-width:1"/>\n\t<line x1="79" y1="115" x2="63" y2="106" style="stroke:rgb(0,0,0);stroke-width:1"/>\n\t<line x1="79" y1="112" x2="66" y2="105" style="stroke:rgb(0,0,0);stroke-width:1"/>\n\t<line x1="95" y1="88" x2="95" y2="106" style="stroke:rgb(0,0,0);stroke-width:1"/>\n\t<line x1="92" y1="90" x2="92" y2="104" style="stroke:rgb(0,0,0);stroke-width:1"/>\n\t<line x1="79" y1="61" x2="90" y2="55" style="stroke:rgb(0,0,0);stroke-width:1"/>\n\t<line x1="79" y1="58" x2="88" y2="52" style="stroke:rgb(0,0,0);stroke-width:1"/>\n\t<line x1="178" y1="28" x2="189" y2="34" style="stroke:rgb(0,0,0);stroke-width:1"/>\n\t<line x1="157" y1="34" x2="168" y2="28" style="stroke:rgb(0,0,0);stroke-width:1"/>\n\t<line x1="142" y1="25" x2="157" y2="34" style="stroke:rgb(0,0,0);stroke-width:1"/>\n\t<line x1="131" y1="31" x2="142" y2="25" style="stroke:rgb(0,0,0);stroke-width:1"/>\n\t<line x1="110" y1="25" x2="121" y2="31" style="stroke:rgb(0,0,0);stroke-width:1"/>\n\t<line x1="95" y1="34" x2="110" y2="25" style="stroke:rgb(0,0,0);stroke-width:1"/>\n\t<line x1="63" y1="34" x2="79" y2="25" style="stroke:rgb(0,0,0);stroke-width:1"/>\n\t<line x1="46" y1="28" x2="63" y2="34" style="stroke:rgb(0,0,0);stroke-width:1"/>\n\t<line x1="21" y1="10" x2="39" y2="12" style="stroke:rgb(0,0,0);stroke-width:1"/>\n\t<line x1="18" y1="41" x2="10" y2="24" style="stroke:rgb(0,0,0);stroke-width:1"/>\n\t<line x1="36" y1="43" x2="46" y2="28" style="stroke:rgb(0,0,0);stroke-width:1"/>\n\t<line x1="43" y1="52" x2="36" y2="43" style="stroke:rgb(0,0,0);stroke-width:1"/>\n\t<line x1="63" y1="52" x2="51" y2="56" style="stroke:rgb(0,0,0);stroke-width:1"/>\n\t<line x1="79" y1="61" x2="63" y2="52" style="stroke:rgb(0,0,0);stroke-width:1"/>\n\t<line x1="79" y1="79" x2="79" y2="61" style="stroke:rgb(0,0,0);stroke-width:1"/>\n\t<line x1="63" y1="106" x2="63" y2="88" style="stroke:rgb(0,0,0);stroke-width:1"/>\n\t<line x1="79" y1="133" x2="79" y2="115" style="stroke:rgb(0,0,0);stroke-width:1"/>\n\t<line x1="68" y1="140" x2="79" y2="133" style="stroke:rgb(0,0,0);stroke-width:1"/>\n\t<line x1="90" y1="140" x2="79" y2="133" style="stroke:rgb(0,0,0);stroke-width:1"/>\n\t<line x1="95" y1="106" x2="79" y2="115" style="stroke:rgb(0,0,0);stroke-width:1"/>\n\t<line x1="95" y1="88" x2="79" y2="79" style="stroke:rgb(0,0,0);stroke-width:1"/>\n\t<line x1="95" y1="47" x2="95" y2="34" style="stroke:rgb(0,0,0);stroke-width:1"/>\n\t<line id="function random() { [native code] }:Bond:6-5" class="event" x1="110" y1="7" x2="110" y2="25" stroke-width="8" stroke-opacity="0"/>\n\t<line id="function random() { [native code] }:Bond:8-7" class="event" x1="79" y1="25" x2="95" y2="34" stroke-width="8" stroke-opacity="0"/>\n\t<line id="function random() { [native code] }:Bond:11-10" class="event" x1="39" y1="12" x2="46" y2="28" stroke-width="8" stroke-opacity="0"/>\n\t<line id="function random() { [native code] }:Bond:13-12" class="event" x1="10" y1="24" x2="21" y2="10" stroke-width="8" stroke-opacity="0"/>\n\t<line id="function random() { [native code] }:Bond:15-14" class="event" x1="36" y1="43" x2="18" y2="41" stroke-width="8" stroke-opacity="0"/>\n\t<line id="function random() { [native code] }:Bond:17-9" class="event" x1="63" y1="52" x2="63" y2="34" stroke-width="8" stroke-opacity="0"/>\n\t<line id="function random() { [native code] }:Bond:20-19" class="event" x1="63" y1="88" x2="79" y2="79" stroke-width="8" stroke-opacity="0"/>\n\t<line id="function random() { [native code] }:Bond:22-21" class="event" x1="79" y1="115" x2="63" y2="106" stroke-width="8" stroke-opacity="0"/>\n\t<line id="function random() { [native code] }:Bond:27-26" class="event" x1="95" y1="88" x2="95" y2="106" stroke-width="8" stroke-opacity="0"/>\n\t<line id="function random() { [native code] }:Bond:28-18" class="event" x1="95" y1="52" x2="79" y2="61" stroke-width="8" stroke-opacity="0"/>\n\t<line id="function random() { [native code] }:Bond:1-0" class="event" x1="173" y1="25" x2="189" y2="34" stroke-width="8" stroke-opacity="0"/>\n\t<line id="function random() { [native code] }:Bond:2-1" class="event" x1="157" y1="34" x2="173" y2="25" stroke-width="8" stroke-opacity="0"/>\n\t<line id="function random() { [native code] }:Bond:3-2" class="event" x1="142" y1="25" x2="157" y2="34" stroke-width="8" stroke-opacity="0"/>\n\t<line id="function random() { [native code] }:Bond:4-3" class="event" x1="126" y1="34" x2="142" y2="25" stroke-width="8" stroke-opacity="0"/>\n\t<line id="function random() { [native code] }:Bond:5-4" class="event" x1="110" y1="25" x2="126" y2="34" stroke-width="8" stroke-opacity="0"/>\n\t<line id="function random() { [native code] }:Bond:7-5" class="event" x1="95" y1="34" x2="110" y2="25" stroke-width="8" stroke-opacity="0"/>\n\t<line id="function random() { [native code] }:Bond:9-8" class="event" x1="63" y1="34" x2="79" y2="25" stroke-width="8" stroke-opacity="0"/>\n\t<line id="function random() { [native code] }:Bond:10-9" class="event" x1="46" y1="28" x2="63" y2="34" stroke-width="8" stroke-opacity="0"/>\n\t<line id="function random() { [native code] }:Bond:12-11" class="event" x1="21" y1="10" x2="39" y2="12" stroke-width="8" stroke-opacity="0"/>\n\t<line id="function random() { [native code] }:Bond:14-13" class="event" x1="18" y1="41" x2="10" y2="24" stroke-width="8" stroke-opacity="0"/>\n\t<line id="function random() { [native code] }:Bond:15-10" class="event" x1="36" y1="43" x2="46" y2="28" stroke-width="8" stroke-opacity="0"/>\n\t<line id="function random() { [native code] }:Bond:16-15" class="event" x1="46" y1="57" x2="36" y2="43" stroke-width="8" stroke-opacity="0"/>\n\t<line id="function random() { [native code] }:Bond:17-16" class="event" x1="63" y1="52" x2="46" y2="57" stroke-width="8" stroke-opacity="0"/>\n\t<line id="function random() { [native code] }:Bond:18-17" class="event" x1="79" y1="61" x2="63" y2="52" stroke-width="8" stroke-opacity="0"/>\n\t<line id="function random() { [native code] }:Bond:19-18" class="event" x1="79" y1="79" x2="79" y2="61" stroke-width="8" stroke-opacity="0"/>\n\t<line id="function random() { [native code] }:Bond:21-20" class="event" x1="63" y1="106" x2="63" y2="88" stroke-width="8" stroke-opacity="0"/>\n\t<line id="function random() { [native code] }:Bond:23-22" class="event" x1="79" y1="133" x2="79" y2="115" stroke-width="8" stroke-opacity="0"/>\n\t<line id="function random() { [native code] }:Bond:24-23" class="event" x1="63" y1="142" x2="79" y2="133" stroke-width="8" stroke-opacity="0"/>\n\t<line id="function random() { [native code] }:Bond:25-23" class="event" x1="95" y1="142" x2="79" y2="133" stroke-width="8" stroke-opacity="0"/>\n\t<line id="function random() { [native code] }:Bond:26-22" class="event" x1="95" y1="106" x2="79" y2="115" stroke-width="8" stroke-opacity="0"/>\n\t<line id="function random() { [native code] }:Bond:27-19" class="event" x1="95" y1="88" x2="79" y2="79" stroke-width="8" stroke-opacity="0"/>\n\t<line id="function random() { [native code] }:Bond:28-7" class="event" x1="95" y1="52" x2="95" y2="34" stroke-width="8" stroke-opacity="0"/>\n\t<circle id="function random() { [native code] }:Atom:0" class="event" cx="189" cy="34" r="8" fill-opacity="0"/>\n\t<circle id="function random() { [native code] }:Atom:1" class="event" cx="173" cy="25" r="8" fill-opacity="0"/>\n\t<circle id="function random() { [native code] }:Atom:2" class="event" cx="157" cy="34" r="8" fill-opacity="0"/>\n\t<circle id="function random() { [native code] }:Atom:3" class="event" cx="142" cy="25" r="8" fill-opacity="0"/>\n\t<circle id="function random() { [native code] }:Atom:4" class="event" cx="126" cy="34" r="8" fill-opacity="0"/>\n\t<circle id="function random() { [native code] }:Atom:5" class="event" cx="110" cy="25" r="8" fill-opacity="0"/>\n\t<circle id="function random() { [native code] }:Atom:6" class="event" cx="110" cy="7" r="8" fill-opacity="0"/>\n\t<circle id="function random() { [native code] }:Atom:7" class="event" cx="95" cy="34" r="8" fill-opacity="0"/>\n\t<circle id="function random() { [native code] }:Atom:8" class="event" cx="79" cy="25" r="8" fill-opacity="0"/>\n\t<circle id="function random() { [native code] }:Atom:9" class="event" cx="63" cy="34" r="8" fill-opacity="0"/>\n\t<circle id="function random() { [native code] }:Atom:10" class="event" cx="46" cy="28" r="8" fill-opacity="0"/>\n\t<circle id="function random() { [native code] }:Atom:11" class="event" cx="39" cy="12" r="8" fill-opacity="0"/>\n\t<circle id="function random() { [native code] }:Atom:12" class="event" cx="21" cy="10" r="8" fill-opacity="0"/>\n\t<circle id="function random() { [native code] }:Atom:13" class="event" cx="10" cy="24" r="8" fill-opacity="0"/>\n\t<circle id="function random() { [native code] }:Atom:14" class="event" cx="18" cy="41" r="8" fill-opacity="0"/>\n\t<circle id="function random() { [native code] }:Atom:15" class="event" cx="36" cy="43" r="8" fill-opacity="0"/>\n\t<circle id="function random() { [native code] }:Atom:16" class="event" cx="46" cy="57" r="8" fill-opacity="0"/>\n\t<circle id="function random() { [native code] }:Atom:17" class="event" cx="63" cy="52" r="8" fill-opacity="0"/>\n\t<circle id="function random() { [native code] }:Atom:18" class="event" cx="79" cy="61" r="8" fill-opacity="0"/>\n\t<circle id="function random() { [native code] }:Atom:19" class="event" cx="79" cy="79" r="8" fill-opacity="0"/>\n\t<circle id="function random() { [native code] }:Atom:20" class="event" cx="63" cy="88" r="8" fill-opacity="0"/>\n\t<circle id="function random() { [native code] }:Atom:21" class="event" cx="63" cy="106" r="8" fill-opacity="0"/>\n\t<circle id="function random() { [native code] }:Atom:22" class="event" cx="79" cy="115" r="8" fill-opacity="0"/>\n\t<circle id="function random() { [native code] }:Atom:23" class="event" cx="79" cy="133" r="8" fill-opacity="0"/>\n\t<circle id="function random() { [native code] }:Atom:24" class="event" cx="63" cy="142" r="8" fill-opacity="0"/>\n\t<circle id="function random() { [native code] }:Atom:25" class="event" cx="95" cy="142" r="8" fill-opacity="0"/>\n\t<circle id="function random() { [native code] }:Atom:26" class="event" cx="95" cy="106" r="8" fill-opacity="0"/>\n\t<circle id="function random() { [native code] }:Atom:27" class="event" cx="95" cy="88" r="8" fill-opacity="0"/>\n\t<circle id="function random() { [native code] }:Atom:28" class="event" cx="95" cy="52" r="8" fill-opacity="0"/>\n</svg>