<svg id="function random() { [native code] }" xmlns="http://www.w3.org/2000/svg" version="1.1" width="200px" height="150px" viewBox="0 0 200 150">\n\t<style> #function random() { [native code] } {pointer-events:none; }  #function random() { [native code] } .event  { pointer-events:all;}  </style>\n\t<text x="176" y="42" font-family=" Helvetica" font-weight="900" font-size="12" fill="rgb(48,80,248)">N</text>\n\t<text x="176" y="30" font-family=" Helvetica" font-weight="900" font-size="12" fill="rgb(48,80,248)">H</text>\n\t<text x="124" y="52" font-family=" Helvetica" font-weight="900" font-size="12" fill="rgb(48,80,248)">N</text>\n\t<text x="124" y="64" font-family=" Helvetica" font-weight="900" font-size="12" fill="rgb(48,80,248)">H</text>\n\t<text x="107" y="22" font-family=" Helvetica" font-weight="900" font-size="12" fill="rgb(255,13,13)">O</text>\n\t<text x="37" y="78" font-family=" Helvetica" font-weight="900" font-size="12" fill="rgb(48,80,248)">N</text>\n\t<text x="37" y="90" font-family=" Helvetica" font-weight="900" font-size="12" fill="rgb(48,80,248)">H</text>\n\t<text x="90" y="72" font-family=" Helvetica" font-weight="900" font-size="12" fill="rgb(48,80,248)">N</text>\n\t<line x1="113" y1="39" x2="113" y2="24" style="stroke:rgb(0,0,0);stroke-width:1"/>\n\t<line x1="110" y1="39" x2="110" y2="24" style="stroke:rgb(0,0,0);stroke-width:1"/>\n\t<line x1="77" y1="38" x2="94" y2="48" style="stroke:rgb(0,0,0);stroke-width:1"/>\n\t<line x1="77" y1="41" x2="91" y2="49" style="stroke:rgb(0,0,0);stroke-width:1"/>\n\t<line x1="33" y1="23" x2="41" y2="42" style="stroke:rgb(0,0,0);stroke-width:1"/>\n\t<line x1="31" y1="27" x2="37" y2="41" style="stroke:rgb(0,0,0);stroke-width:1"/>\n\t<line x1="1" y1="37" x2="13" y2="21" style="stroke:rgb(0,0,0);stroke-width:1"/>\n\t<line x1="5" y1="37" x2="14" y2="25" style="stroke:rgb(0,0,0);stroke-width:1"/>\n\t<line x1="29" y1="58" x2="10" y2="55" style="stroke:rgb(0,0,0);stroke-width:1"/>\n\t<line x1="28" y1="54" x2="12" y2="53" style="stroke:rgb(0,0,0);stroke-width:1"/>\n\t<line x1="60" y1="68" x2="60" y2="48" style="stroke:rgb(0,0,0);stroke-width:1"/>\n\t<line x1="63" y1="65" x2="63" y2="50" style="stroke:rgb(0,0,0);stroke-width:1"/>\n\t<line x1="60" y1="107" x2="77" y2="97" style="stroke:rgb(0,0,0);stroke-width:1"/>\n\t<line x1="63" y1="109" x2="77" y2="101" style="stroke:rgb(0,0,0);stroke-width:1"/>\n\t<line x1="77" y1="137" x2="60" y2="127" style="stroke:rgb(0,0,0);stroke-width:1"/>\n\t<line x1="77" y1="133" x2="63" y2="126" style="stroke:rgb(0,0,0);stroke-width:1"/>\n\t<line x1="94" y1="107" x2="94" y2="127" style="stroke:rgb(0,0,0);stroke-width:1"/>\n\t<line x1="91" y1="109" x2="91" y2="125" style="stroke:rgb(0,0,0);stroke-width:1"/>\n\t<line x1="77" y1="77" x2="89" y2="71" style="stroke:rgb(0,0,0);stroke-width:1"/>\n\t<line x1="77" y1="74" x2="87" y2="68" style="stroke:rgb(0,0,0);stroke-width:1"/>\n\t<line x1="186" y1="41" x2="198" y2="48" style="stroke:rgb(0,0,0);stroke-width:1"/>\n\t<line x1="163" y1="48" x2="175" y2="41" style="stroke:rgb(0,0,0);stroke-width:1"/>\n\t<line x1="146" y1="38" x2="163" y2="48" style="stroke:rgb(0,0,0);stroke-width:1"/>\n\t<line x1="134" y1="45" x2="146" y2="38" style="stroke:rgb(0,0,0);stroke-width:1"/>\n\t<line x1="111" y1="38" x2="123" y2="45" style="stroke:rgb(0,0,0);stroke-width:1"/>\n\t<line x1="94" y1="48" x2="111" y2="38" style="stroke:rgb(0,0,0);stroke-width:1"/>\n\t<line x1="60" y1="48" x2="77" y2="38" style="stroke:rgb(0,0,0);stroke-width:1"/>\n\t<line x1="41" y1="42" x2="60" y2="48" style="stroke:rgb(0,0,0);stroke-width:1"/>\n\t<line x1="13" y1="21" x2="33" y2="23" style="stroke:rgb(0,0,0);stroke-width:1"/>\n\t<line x1="10" y1="55" x2="1" y2="37" style="stroke:rgb(0,0,0);stroke-width:1"/>\n\t<line x1="29" y1="58" x2="41" y2="42" style="stroke:rgb(0,0,0);stroke-width:1"/>\n\t<line x1="37" y1="68" x2="29" y2="58" style="stroke:rgb(0,0,0);stroke-width:1"/>\n\t<line x1="60" y1="68" x2="46" y2="72" style="stroke:rgb(0,0,0);stroke-width:1"/>\n\t<line x1="77" y1="77" x2="60" y2="68" style="stroke:rgb(0,0,0);stroke-width:1"/>\n\t<line x1="77" y1="97" x2="77" y2="77" style="stroke:rgb(0,0,0);stroke-width:1"/>\n\t<line x1="60" y1="127" x2="60" y2="107" style="stroke:rgb(0,0,0);stroke-width:1"/>\n\t<line x1="94" y1="127" x2="77" y2="137" style="stroke:rgb(0,0,0);stroke-width:1"/>\n\t<line x1="94" y1="107" x2="77" y2="97" style="stroke:rgb(0,0,0);stroke-width:1"/>\n\t<line x1="94" y1="62" x2="94" y2="48" style="stroke:rgb(0,0,0);stroke-width:1"/>\n\t<line id="function random() { [native code] }:Bond:6-5" class="event" x1="111" y1="18" x2="111" y2="38" stroke-width="8" stroke-opacity="0"/>\n\t<line id="function random() { [native code] }:Bond:8-7" class="event" x1="77" y1="38" x2="94" y2="48" stroke-width="8" stroke-opacity="0"/>\n\t<line id="function random() { [native code] }:Bond:11-10" class="event" x1="33" y1="23" x2="41" y2="42" stroke-width="8" stroke-opacity="0"/>\n\t<line id="function random() { [native code] }:Bond:13-12" class="event" x1="1" y1="37" x2="13" y2="21" stroke-width="8" stroke-opacity="0"/>\n\t<line id="function random() { [native code] }:Bond:15-14" class="event" x1="29" y1="58" x2="10" y2="55" stroke-width="8" stroke-opacity="0"/>\n\t<line id="function random() { [native code] }:Bond:17-9" class="event" x1="60" y1="68" x2="60" y2="48" stroke-width="8" stroke-opacity="0"/>\n\t<line id="function random() { [native code] }:Bond:20-19" class="event" x1="60" y1="107" x2="77" y2="97" stroke-width="8" stroke-opacity="0"/>\n\t<line id="function random() { [native code] }:Bond:22-21" class="event" x1="77" y1="137" x2="60" y2="127" stroke-width="8" stroke-opacity="0"/>\n\t<line id="function random() { [native code] }:Bond:24-23" class="event" x1="94" y1="107" x2="94" y2="127" stroke-width="8" stroke-opacity="0"/>\n\t<line id="function random() { [native code] }:Bond:25-18" class="event" x1="94" y1="68" x2="77" y2="77" stroke-width="8" stroke-opacity="0"/>\n\t<line id="function random() { [native code] }:Bond:1-0" class="event" x1="180" y1="38" x2="198" y2="48" stroke-width="8" stroke-opacity="0"/>\n\t<line id="function random() { [native code] }:Bond:2-1" class="event" x1="163" y1="48" x2="180" y2="38" stroke-width="8" stroke-opacity="0"/>\n\t<line id="function random() { [native code] }:Bond:3-2" class="event" x1="146" y1="38" x2="163" y2="48" stroke-width="8" stroke-opacity="0"/>\n\t<line id="function random() { [native code] }:Bond:4-3" class="event" x1="129" y1="48" x2="146" y2="38" stroke-width="8" stroke-opacity="0"/>\n\t<line id="function random() { [native code] }:Bond:5-4" class="event" x1="111" y1="38" x2="129" y2="48" stroke-width="8" stroke-opacity="0"/>\n\t<line id="function random() { [native code] }:Bond:7-5" class="event" x1="94" y1="48" x2="111" y2="38" stroke-width="8" stroke-opacity="0"/>\n\t<line id="function random() { [native code] }:Bond:9-8" class="event" x1="60" y1="48" x2="77" y2="38" stroke-width="8" stroke-opacity="0"/>\n\t<line id="function random() { [native code] }:Bond:10-9" class="event" x1="41" y1="42" x2="60" y2="48" stroke-width="8" stroke-opacity="0"/>\n\t<line id="function random() { [native code] }:Bond:12-11" class="event" x1="13" y1="21" x2="33" y2="23" stroke-width="8" stroke-opacity="0"/>\n\t<line id="function random() { [native code] }:Bond:14-13" class="event" x1="10" y1="55" x2="1" y2="37" stroke-width="8" stroke-opacity="0"/>\n\t<line id="function random() { [native code] }:Bond:15-10" class="event" x1="29" y1="58" x2="41" y2="42" stroke-width="8" stroke-opacity="0"/>\n\t<line id="function random() { [native code] }:Bond:16-15" class="event" x1="41" y1="74" x2="29" y2="58" stroke-width="8" stroke-opacity="0"/>\n\t<line id="function random() { [native code] }:Bond:17-16" class="event" x1="60" y1="68" x2="41" y2="74" stroke-width="8" stroke-opacity="0"/>\n\t<line id="function random() { [native code] }:Bond:18-17" class="event" x1="77" y1="77" x2="60" y2="68" stroke-width="8" stroke-opacity="0"/>\n\t<line id="function random() { [native code] }:Bond:19-18" class="event" x1="77" y1="97" x2="77" y2="77" stroke-width="8" stroke-opacity="0"/>\n\t<line id="function random() { [native code] }:Bond:21-20" class="event" x1="60" y1="127" x2="60" y2="107" stroke-width="8" stroke-opacity="0"/>\n\t<line id="function random() { [native code] }:Bond:23-22" class="event" x1="94" y1="127" x2="77" y2="137" stroke-width="8" stroke-opacity="0"/>\n\t<line id="function random() { [native code] }:Bond:24-19" class="event" x1="94" y1="107" x2="77" y2="97" stroke-width="8" stroke-opacity="0"/>\n\t<line id="function random() { [native code] }:Bond:25-7" class="event" x1="94" y1="68" x2="94" y2="48" stroke-width="8" stroke-opacity="0"/>\n\t<circle id="function random() { [native code] }:Atom:0" class="event" cx="198" cy="48" r="8" fill-opacity="0"/>\n\t<circle id="function random() { [native code] }:Atom:1" class="event" cx="180" cy="38" r="8" fill-opacity="0"/>\n\t<circle id="function random() { [native code] }:Atom:2" class="event" cx="163" cy="48" r="8" fill-opacity="0"/>\n\t<circle id="function random() { [native code] }:Atom:3" class="event" cx="146" cy="38" r="8" fill-opacity="0"/>\n\t<circle id="function random() { [native code] }:Atom:4" class="event" cx="129" cy="48" r="8" fill-opacity="0"/>\n\t<circle id="function random() { [native code] }:Atom:5" class="event" cx="111" cy="38" r="8" fill-opacity="0"/>\n\t<circle id="function random() { [native code] }:Atom:6" class="event" cx="111" cy="18" r="8" fill-opacity="0"/>\n\t<circle id="function random() { [native code] }:Atom:7" class="event" cx="94" cy="48" r="8" fill-opacity="0"/>\n\t<circle id="function random() { [native code] }:Atom:8" class="event" cx="77" cy="38" r="8" fill-opacity="0"/>\n\t<circle id="function random() { [native code] }:Atom:9" class="event" cx="60" cy="48" r="8" fill-opacity="0"/>\n\t<circle id="function random() { [native code] }:Atom:10" class="event" cx="41" cy="42" r="8" fill-opacity="0"/>\n\t<circle id="function random() { [native code] }:Atom:11" class="event" cx="33" cy="23" r="8" fill-opacity="0"/>\n\t<circle id="function random() { [native code] }:Atom:12" class="event" cx="13" cy="21" r="8" fill-opacity="0"/>\n\t<circle id="function random() { [native code] }:Atom:13" class="event" cx="1" cy="37" r="8" fill-opacity="0"/>\n\t<circle id="function random() { [native code] }:Atom:14" class="event" cx="10" cy="55" r="8" fill-opacity="0"/>\n\t<circle id="function random() { [native code] }:Atom:15" class="event" cx="29" cy="58" r="8" fill-opacity="0"/>\n\t<circle id="function random() { [native code] }:Atom:16" class="event" cx="41" cy="74" r="8" fill-opacity="0"/>\n\t<circle id="function random() { [native code] }:Atom:17" class="event" cx="60" cy="68" r="8" fill-opacity="0"/>\n\t<circle id="function random() { [native code] }:Atom:18" class="event" cx="77" cy="77" r="8" fill-opacity="0"/>\n\t<circle id="function random() { [native code] }:Atom:19" class="event" cx="77" cy="97" r="8" fill-opacity="0"/>\n\t<circle id="function random() { [native code] }:Atom:20" class="event" cx="60" cy="107" r="8" fill-opacity="0"/>\n\t<circle id="function random() { [native code] }:Atom:21" class="event" cx="60" cy="127" r="8" fill-opacity="0"/>\n\t<circle id="function random() { [native code] }:Atom:22" class="event" cx="77" cy="137" r="8" fill-opacity="0"/>\n\t<circle id="function random() { [native code] }:Atom:23" class="event" cx="94" cy="127" r="8" fill-opacity="0"/>\n\t<circle id="function random() { [native code] }:Atom:24" class="event" cx="94" cy="107" r="8" fill-opacity="0"/>\n\t<circle id="function random() { [native code] }:Atom:25" class="event" cx="94" cy="68" r="8" fill-opacity="0"/>\n</svg>