<svg id="function random() { [native code] }" xmlns="http://www.w3.org/2000/svg" version="1.1" width="200px" height="150px" viewBox="0 0 200 150">\n\t<style> #function random() { [native code] } {pointer-events:none; }  #function random() { [native code] } .event  { pointer-events:all;}  </style>\n\t<text x="85" y="112" font-family=" Helvetica" font-weight="900" font-size="10" fill="rgb(255,13,13)">O</text>\n\t<text x="71" y="86" font-family=" Helvetica" font-weight="900" font-size="10" fill="rgb(48,80,248)">N</text>\n\t<text x="71" y="76" font-family=" Helvetica" font-weight="900" font-size="10" fill="rgb(48,80,248)">H</text>\n\t<text x="12" y="86" font-family=" Helvetica" font-weight="900" font-size="10" fill="rgb(48,80,248)">N</text>\n\t<text x="115" y="95" font-family=" Helvetica" font-weight="900" font-size="10" fill="rgb(48,80,248)">N</text>\n\t<text x="158" y="137" font-family=" Helvetica" font-weight="900" font-size="10" fill="rgb(31,240,31)">Cl</text>\n\t<text x="187" y="120" font-family=" Helvetica" font-weight="900" font-size="10" fill="rgb(31,240,31)">Cl</text>\n\t<text x="142" y="58" font-family=" Helvetica" font-weight="900" font-size="10" fill="rgb(48,80,248)">N</text>\n\t<text x="149" y="58" font-family=" Helvetica" font-weight="900" font-size="10" fill="rgb(48,80,248)">H</text>\n\t<line x1="136" y1="10" x2="146" y2="24" style="stroke:rgb(0,0,0);stroke-width:1"/>\n\t<line x1="135" y1="13" x2="143" y2="24" style="stroke:rgb(0,0,0);stroke-width:1"/>\n\t<line x1="112" y1="27" x2="119" y2="12" style="stroke:rgb(0,0,0);stroke-width:1"/>\n\t<line x1="115" y1="27" x2="121" y2="15" style="stroke:rgb(0,0,0);stroke-width:1"/>\n\t<line x1="104" y1="66" x2="119" y2="58" style="stroke:rgb(0,0,0);stroke-width:1"/>\n\t<line x1="107" y1="68" x2="118" y2="61" style="stroke:rgb(0,0,0);stroke-width:1"/>\n\t<line x1="88" y1="91" x2="88" y2="104" style="stroke:rgb(0,0,0);stroke-width:1"/>\n\t<line x1="90" y1="91" x2="90" y2="104" style="stroke:rgb(0,0,0);stroke-width:1"/>\n\t<line x1="104" y1="83" x2="114" y2="89" style="stroke:rgb(0,0,0);stroke-width:1"/>\n\t<line x1="107" y1="82" x2="115" y2="87" style="stroke:rgb(0,0,0);stroke-width:1"/>\n\t<line x1="148" y1="109" x2="148" y2="92" style="stroke:rgb(0,0,0);stroke-width:1"/>\n\t<line x1="150" y1="107" x2="150" y2="93" style="stroke:rgb(0,0,0);stroke-width:1"/>\n\t<line x1="177" y1="109" x2="163" y2="117" style="stroke:rgb(0,0,0);stroke-width:1"/>\n\t<line x1="174" y1="107" x2="163" y2="114" style="stroke:rgb(0,0,0);stroke-width:1"/>\n\t<line x1="163" y1="83" x2="177" y2="92" style="stroke:rgb(0,0,0);stroke-width:1"/>\n\t<line x1="163" y1="86" x2="174" y2="93" style="stroke:rgb(0,0,0);stroke-width:1"/>\n\t<line x1="133" y1="66" x2="133" y2="83" style="stroke:rgb(0,0,0);stroke-width:1"/>\n\t<line x1="131" y1="68" x2="131" y2="81" style="stroke:rgb(0,0,0);stroke-width:1"/>\n\t<line x1="139" y1="39" x2="122" y2="41" style="stroke:rgb(0,0,0);stroke-width:1"/>\n\t<line x1="137" y1="37" x2="124" y2="38" style="stroke:rgb(0,0,0);stroke-width:1"/>\n\t<line x1="146" y1="24" x2="163" y2="22" style="stroke:rgb(0,0,0);stroke-width:1"/>\n\t<line x1="119" y1="12" x2="136" y2="10" style="stroke:rgb(0,0,0);stroke-width:1"/>\n\t<line x1="122" y1="41" x2="112" y2="27" style="stroke:rgb(0,0,0);stroke-width:1"/>\n\t<line x1="119" y1="58" x2="122" y2="41" style="stroke:rgb(0,0,0);stroke-width:1"/>\n\t<line x1="104" y1="83" x2="104" y2="66" style="stroke:rgb(0,0,0);stroke-width:1"/>\n\t<line x1="89" y1="92" x2="104" y2="83" style="stroke:rgb(0,0,0);stroke-width:1"/>\n\t<line x1="79" y1="86" x2="89" y2="92" style="stroke:rgb(0,0,0);stroke-width:1"/>\n\t<line x1="60" y1="92" x2="70" y2="86" style="stroke:rgb(0,0,0);stroke-width:1"/>\n\t<line x1="45" y1="83" x2="60" y2="92" style="stroke:rgb(0,0,0);stroke-width:1"/>\n\t<line x1="31" y1="92" x2="45" y2="83" style="stroke:rgb(0,0,0);stroke-width:1"/>\n\t<line x1="20" y1="86" x2="31" y2="92" style="stroke:rgb(0,0,0);stroke-width:1"/>\n\t<line x1="16" y1="66" x2="16" y2="78" style="stroke:rgb(0,0,0);stroke-width:1"/>\n\t<line x1="1" y1="92" x2="11" y2="86" style="stroke:rgb(0,0,0);stroke-width:1"/>\n\t<line x1="133" y1="83" x2="123" y2="89" style="stroke:rgb(0,0,0);stroke-width:1"/>\n\t<line x1="148" y1="92" x2="133" y2="83" style="stroke:rgb(0,0,0);stroke-width:1"/>\n\t<line x1="163" y1="117" x2="148" y2="109" style="stroke:rgb(0,0,0);stroke-width:1"/>\n\t<line x1="163" y1="129" x2="163" y2="117" style="stroke:rgb(0,0,0);stroke-width:1"/>\n\t<line x1="186" y1="114" x2="177" y2="109" style="stroke:rgb(0,0,0);stroke-width:1"/>\n\t<line x1="177" y1="92" x2="177" y2="109" style="stroke:rgb(0,0,0);stroke-width:1"/>\n\t<line x1="163" y1="83" x2="148" y2="92" style="stroke:rgb(0,0,0);stroke-width:1"/>\n\t<line x1="133" y1="66" x2="119" y2="58" style="stroke:rgb(0,0,0);stroke-width:1"/>\n\t<line x1="141" y1="59" x2="133" y2="66" style="stroke:rgb(0,0,0);stroke-width:1"/>\n\t<line x1="139" y1="39" x2="144" y2="50" style="stroke:rgb(0,0,0);stroke-width:1"/>\n\t<line x1="139" y1="39" x2="146" y2="24" style="stroke:rgb(0,0,0);stroke-width:1"/>\n\t<line id="function random() { [native code] }:Bond:2-1" class="event" x1="136" y1="10" x2="146" y2="24" stroke-width="8" stroke-opacity="0"/>\n\t<line id="function random() { [native code] }:Bond:4-3" class="event" x1="112" y1="27" x2="119" y2="12" stroke-width="8" stroke-opacity="0"/>\n\t<line id="function random() { [native code] }:Bond:7-6" class="event" x1="104" y1="66" x2="119" y2="58" stroke-width="8" stroke-opacity="0"/>\n\t<line id="function random() { [native code] }:Bond:10-9" class="event" x1="89" y1="109" x2="89" y2="92" stroke-width="8" stroke-opacity="0"/>\n\t<line id="function random() { [native code] }:Bond:18-8" class="event" x1="119" y1="92" x2="104" y2="83" stroke-width="8" stroke-opacity="0"/>\n\t<line id="function random() { [native code] }:Bond:21-20" class="event" x1="148" y1="109" x2="148" y2="92" stroke-width="8" stroke-opacity="0"/>\n\t<line id="function random() { [native code] }:Bond:24-22" class="event" x1="177" y1="109" x2="163" y2="117" stroke-width="8" stroke-opacity="0"/>\n\t<line id="function random() { [native code] }:Bond:27-26" class="event" x1="163" y1="83" x2="177" y2="92" stroke-width="8" stroke-opacity="0"/>\n\t<line id="function random() { [native code] }:Bond:28-19" class="event" x1="133" y1="66" x2="133" y2="83" stroke-width="8" stroke-opacity="0"/>\n\t<line id="function random() { [native code] }:Bond:30-5" class="event" x1="139" y1="39" x2="122" y2="41" stroke-width="8" stroke-opacity="0"/>\n\t<line id="function random() { [native code] }:Bond:1-0" class="event" x1="146" y1="24" x2="163" y2="22" stroke-width="8" stroke-opacity="0"/>\n\t<line id="function random() { [native code] }:Bond:3-2" class="event" x1="119" y1="12" x2="136" y2="10" stroke-width="8" stroke-opacity="0"/>\n\t<line id="function random() { [native code] }:Bond:5-4" class="event" x1="122" y1="41" x2="112" y2="27" stroke-width="8" stroke-opacity="0"/>\n\t<line id="function random() { [native code] }:Bond:6-5" class="event" x1="119" y1="58" x2="122" y2="41" stroke-width="8" stroke-opacity="0"/>\n\t<line id="function random() { [native code] }:Bond:8-7" class="event" x1="104" y1="83" x2="104" y2="66" stroke-width="8" stroke-opacity="0"/>\n\t<line id="function random() { [native code] }:Bond:9-8" class="event" x1="89" y1="92" x2="104" y2="83" stroke-width="8" stroke-opacity="0"/>\n\t<line id="function random() { [native code] }:Bond:11-9" class="event" x1="75" y1="83" x2="89" y2="92" stroke-width="8" stroke-opacity="0"/>\n\t<line id="function random() { [native code] }:Bond:12-11" class="event" x1="60" y1="92" x2="75" y2="83" stroke-width="8" stroke-opacity="0"/>\n\t<line id="function random() { [native code] }:Bond:13-12" class="event" x1="45" y1="83" x2="60" y2="92" stroke-width="8" stroke-opacity="0"/>\n\t<line id="function random() { [native code] }:Bond:14-13" class="event" x1="31" y1="92" x2="45" y2="83" stroke-width="8" stroke-opacity="0"/>\n\t<line id="function random() { [native code] }:Bond:15-14" class="event" x1="16" y1="83" x2="31" y2="92" stroke-width="8" stroke-opacity="0"/>\n\t<line id="function random() { [native code] }:Bond:16-15" class="event" x1="16" y1="66" x2="16" y2="83" stroke-width="8" stroke-opacity="0"/>\n\t<line id="function random() { [native code] }:Bond:17-15" class="event" x1="1" y1="92" x2="16" y2="83" stroke-width="8" stroke-opacity="0"/>\n\t<line id="function random() { [native code] }:Bond:19-18" class="event" x1="133" y1="83" x2="119" y2="92" stroke-width="8" stroke-opacity="0"/>\n\t<line id="function random() { [native code] }:Bond:20-19" class="event" x1="148" y1="92" x2="133" y2="83" stroke-width="8" stroke-opacity="0"/>\n\t<line id="function random() { [native code] }:Bond:22-21" class="event" x1="163" y1="117" x2="148" y2="109" stroke-width="8" stroke-opacity="0"/>\n\t<line id="function random() { [native code] }:Bond:23-22" class="event" x1="163" y1="134" x2="163" y2="117" stroke-width="8" stroke-opacity="0"/>\n\t<line id="function random() { [native code] }:Bond:25-24" class="event" x1="192" y1="117" x2="177" y2="109" stroke-width="8" stroke-opacity="0"/>\n\t<line id="function random() { [native code] }:Bond:26-24" class="event" x1="177" y1="92" x2="177" y2="109" stroke-width="8" stroke-opacity="0"/>\n\t<line id="function random() { [native code] }:Bond:27-20" class="event" x1="163" y1="83" x2="148" y2="92" stroke-width="8" stroke-opacity="0"/>\n\t<line id="function random() { [native code] }:Bond:28-6" class="event" x1="133" y1="66" x2="119" y2="58" stroke-width="8" stroke-opacity="0"/>\n\t<line id="function random() { [native code] }:Bond:29-28" class="event" x1="146" y1="55" x2="133" y2="66" stroke-width="8" stroke-opacity="0"/>\n\t<line id="function random() { [native code] }:Bond:30-29" class="event" x1="139" y1="39" x2="146" y2="55" stroke-width="8" stroke-opacity="0"/>\n\t<line id="function random() { [native code] }:Bond:30-1" class="event" x1="139" y1="39" x2="146" y2="24" stroke-width="8" stroke-opacity="0"/>\n\t<circle id="function random() { [native code] }:Atom:0" class="event" cx="163" cy="22" r="8" fill-opacity="0"/>\n\t<circle id="function random() { [native code] }:Atom:1" class="event" cx="146" cy="24" r="8" fill-opacity="0"/>\n\t<circle id="function random() { [native code] }:Atom:2" class="event" cx="136" cy="10" r="8" fill-opacity="0"/>\n\t<circle id="function random() { [native code] }:Atom:3" class="event" cx="119" cy="12" r="8" fill-opacity="0"/>\n\t<circle id="function random() { [native code] }:Atom:4" class="event" cx="112" cy="27" r="8" fill-opacity="0"/>\n\t<circle id="function random() { [native code] }:Atom:5" class="event" cx="122" cy="41" r="8" fill-opacity="0"/>\n\t<circle id="function random() { [native code] }:Atom:6" class="event" cx="119" cy="58" r="8" fill-opacity="0"/>\n\t<circle id="function random() { [native code] }:Atom:7" class="event" cx="104" cy="66" r="8" fill-opacity="0"/>\n\t<circle id="function random() { [native code] }:Atom:8" class="event" cx="104" cy="83" r="8" fill-opacity="0"/>\n\t<circle id="function random() { [native code] }:Atom:9" class="event" cx="89" cy="92" r="8" fill-opacity="0"/>\n\t<circle id="function random() { [native code] }:Atom:10" class="event" cx="89" cy="109" r="8" fill-opacity="0"/>\n\t<circle id="function random() { [native code] }:Atom:11" class="event" cx="75" cy="83" r="8" fill-opacity="0"/>\n\t<circle id="function random() { [native code] }:Atom:12" class="event" cx="60" cy="92" r="8" fill-opacity="0"/>\n\t<circle id="function random() { [native code] }:Atom:13" class="event" cx="45" cy="83" r="8" fill-opacity="0"/>\n\t<circle id="function random() { [native code] }:Atom:14" class="event" cx="31" cy="92" r="8" fill-opacity="0"/>\n\t<circle id="function random() { [native code] }:Atom:15" class="event" cx="16" cy="83" r="8" fill-opacity="0"/>\n\t<circle id="function random() { [native code] }:Atom:16" class="event" cx="16" cy="66" r="8" fill-opacity="0"/>\n\t<circle id="function random() { [native code] }:Atom:17" class="event" cx="1" cy="92" r="8" fill-opacity="0"/>\n\t<circle id="function random() { [native code] }:Atom:18" class="event" cx="119" cy="92" r="8" fill-opacity="0"/>\n\t<circle id="function random() { [native code] }:Atom:19" class="event" cx="133" cy="83" r="8" fill-opacity="0"/>\n\t<circle id="function random() { [native code] }:Atom:20" class="event" cx="148" cy="92" r="8" fill-opacity="0"/>\n\t<circle id="function random() { [native code] }:Atom:21" class="event" cx="148" cy="109" r="8" fill-opacity="0"/>\n\t<circle id="function random() { [native code] }:Atom:22" class="event" cx="163" cy="117" r="8" fill-opacity="0"/>\n\t<circle id="function random() { [native code] }:Atom:23" class="event" cx="163" cy="134" r="8" fill-opacity="0"/>\n\t<circle id="function random() { [native code] }:Atom:24" class="event" cx="177" cy="109" r="8" fill-opacity="0"/>\n\t<circle id="function random() { [native code] }:Atom:25" class="event" cx="192" cy="117" r="8" fill-opacity="0"/>\n\t<circle id="function random() { [native code] }:Atom:26" class="event" cx="177" cy="92" r="8" fill-opacity="0"/>\n\t<circle id="function random() { [native code] }:Atom:27" class="event" cx="163" cy="83" r="8" fill-opacity="0"/>\n\t<circle id="function random() { [native code] }:Atom:28" class="event" cx="133" cy="66" r="8" fill-opacity="0"/>\n\t<circle id="function random() { [native code] }:Atom:29" class="event" cx="146" cy="55" r="8" fill-opacity="0"/>\n\t<circle id="function random() { [native code] }:Atom:30" class="event" cx="139" cy="39" r="8" fill-opacity="0"/>\n</svg>