<svg id="function random() { [native code] }" xmlns="http://www.w3.org/2000/svg" version="1.1" width="200px" height="150px" viewBox="0 0 200 150">\n\t<style> #function random() { [native code] } {pointer-events:none; }  #function random() { [native code] } .event  { pointer-events:all;}  </style>\n\t<text x="179" y="25" font-family=" Helvetica" font-weight="900" font-size="10" fill="rgb(255,13,13)">O</text>\n\t<text x="103" y="51" font-family=" Helvetica" font-weight="900" font-size="10" fill="rgb(48,80,248)">N</text>\n\t<text x="73" y="34" font-family=" Helvetica" font-weight="900" font-size="10" fill="rgb(255,13,13)">O</text>\n\t<text x="58" y="60" font-family=" Helvetica" font-weight="900" font-size="10" fill="rgb(48,80,248)">N</text>\n\t<text x="58" y="70" font-family=" Helvetica" font-weight="900" font-size="10" fill="rgb(48,80,248)">H</text>\n\t<text x="13" y="51" font-family=" Helvetica" font-weight="900" font-size="10" fill="rgb(48,80,248)">N</text>\n\t<text x="132" y="89" font-family=" Helvetica" font-weight="900" font-size="10" fill="rgb(48,80,248)">N</text>\n\t<text x="139" y="89" font-family=" Helvetica" font-weight="900" font-size="10" fill="rgb(48,80,248)">H</text>\n\t<text x="179" y="60" font-family=" Helvetica" font-weight="900" font-size="10" fill="rgb(255,13,13)">O</text>\n\t<line x1="152" y1="22" x2="168" y2="31" style="stroke:rgb(0,0,0);stroke-width:1"/>\n\t<line x1="153" y1="25" x2="165" y2="32" style="stroke:rgb(0,0,0);stroke-width:1"/>\n\t<line x1="137" y1="48" x2="137" y2="31" style="stroke:rgb(0,0,0);stroke-width:1"/>\n\t<line x1="140" y1="46" x2="140" y2="33" style="stroke:rgb(0,0,0);stroke-width:1"/>\n\t<line x1="122" y1="57" x2="112" y2="51" style="stroke:rgb(0,0,0);stroke-width:1"/>\n\t<line x1="119" y1="58" x2="110" y2="53" style="stroke:rgb(0,0,0);stroke-width:1"/>\n\t<line x1="78" y1="49" x2="78" y2="36" style="stroke:rgb(0,0,0);stroke-width:1"/>\n\t<line x1="76" y1="49" x2="76" y2="36" style="stroke:rgb(0,0,0);stroke-width:1"/>\n\t<line x1="92" y1="74" x2="92" y2="57" style="stroke:rgb(0,0,0);stroke-width:1"/>\n\t<line x1="95" y1="72" x2="95" y2="59" style="stroke:rgb(0,0,0);stroke-width:1"/>\n\t<line x1="100" y1="114" x2="111" y2="100" style="stroke:rgb(0,0,0);stroke-width:1"/>\n\t<line x1="104" y1="114" x2="112" y2="103" style="stroke:rgb(0,0,0);stroke-width:1"/>\n\t<line x1="125" y1="132" x2="108" y2="130" style="stroke:rgb(0,0,0);stroke-width:1"/>\n\t<line x1="123" y1="129" x2="110" y2="128" style="stroke:rgb(0,0,0);stroke-width:1"/>\n\t<line x1="128" y1="102" x2="135" y2="118" style="stroke:rgb(0,0,0);stroke-width:1"/>\n\t<line x1="126" y1="105" x2="132" y2="117" style="stroke:rgb(0,0,0);stroke-width:1"/>\n\t<line x1="122" y1="74" x2="107" y2="83" style="stroke:rgb(0,0,0);stroke-width:1"/>\n\t<line x1="119" y1="73" x2="107" y2="80" style="stroke:rgb(0,0,0);stroke-width:1"/>\n\t<line x1="168" y1="48" x2="152" y2="57" style="stroke:rgb(0,0,0);stroke-width:1"/>\n\t<line x1="165" y1="47" x2="153" y2="54" style="stroke:rgb(0,0,0);stroke-width:1"/>\n\t<line x1="188" y1="25" x2="198" y2="31" style="stroke:rgb(0,0,0);stroke-width:1"/>\n\t<line x1="168" y1="31" x2="178" y2="25" style="stroke:rgb(0,0,0);stroke-width:1"/>\n\t<line x1="137" y1="31" x2="152" y2="22" style="stroke:rgb(0,0,0);stroke-width:1"/>\n\t<line x1="122" y1="57" x2="137" y2="48" style="stroke:rgb(0,0,0);stroke-width:1"/>\n\t<line x1="92" y1="57" x2="102" y2="51" style="stroke:rgb(0,0,0);stroke-width:1"/>\n\t<line x1="77" y1="48" x2="92" y2="57" style="stroke:rgb(0,0,0);stroke-width:1"/>\n\t<line x1="66" y1="54" x2="77" y2="48" style="stroke:rgb(0,0,0);stroke-width:1"/>\n\t<line x1="47" y1="48" x2="57" y2="54" style="stroke:rgb(0,0,0);stroke-width:1"/>\n\t<line x1="31" y1="57" x2="47" y2="48" style="stroke:rgb(0,0,0);stroke-width:1"/>\n\t<line x1="21" y1="51" x2="31" y2="57" style="stroke:rgb(0,0,0);stroke-width:1"/>\n\t<line x1="16" y1="31" x2="16" y2="43" style="stroke:rgb(0,0,0);stroke-width:1"/>\n\t<line x1="1" y1="57" x2="12" y2="51" style="stroke:rgb(0,0,0);stroke-width:1"/>\n\t<line x1="107" y1="83" x2="92" y2="74" style="stroke:rgb(0,0,0);stroke-width:1"/>\n\t<line x1="111" y1="100" x2="107" y2="83" style="stroke:rgb(0,0,0);stroke-width:1"/>\n\t<line x1="108" y1="130" x2="100" y2="114" style="stroke:rgb(0,0,0);stroke-width:1"/>\n\t<line x1="135" y1="118" x2="125" y2="132" style="stroke:rgb(0,0,0);stroke-width:1"/>\n\t<line x1="128" y1="102" x2="111" y2="100" style="stroke:rgb(0,0,0);stroke-width:1"/>\n\t<line x1="133" y1="91" x2="128" y2="102" style="stroke:rgb(0,0,0);stroke-width:1"/>\n\t<line x1="122" y1="74" x2="131" y2="82" style="stroke:rgb(0,0,0);stroke-width:1"/>\n\t<line x1="122" y1="74" x2="122" y2="57" style="stroke:rgb(0,0,0);stroke-width:1"/>\n\t<line x1="152" y1="57" x2="137" y2="48" style="stroke:rgb(0,0,0);stroke-width:1"/>\n\t<line x1="168" y1="48" x2="168" y2="31" style="stroke:rgb(0,0,0);stroke-width:1"/>\n\t<line x1="178" y1="54" x2="168" y2="48" style="stroke:rgb(0,0,0);stroke-width:1"/>\n\t<line x1="198" y1="48" x2="188" y2="54" style="stroke:rgb(0,0,0);stroke-width:1"/>\n\t<line id="function random() { [native code] }:Bond:3-2" class="event" x1="152" y1="22" x2="168" y2="31" stroke-width="8" stroke-opacity="0"/>\n\t<line id="function random() { [native code] }:Bond:5-4" class="event" x1="137" y1="48" x2="137" y2="31" stroke-width="8" stroke-opacity="0"/>\n\t<line id="function random() { [native code] }:Bond:7-6" class="event" x1="107" y1="48" x2="122" y2="57" stroke-width="8" stroke-opacity="0"/>\n\t<line id="function random() { [native code] }:Bond:10-9" class="event" x1="77" y1="31" x2="77" y2="48" stroke-width="8" stroke-opacity="0"/>\n\t<line id="function random() { [native code] }:Bond:17-8" class="event" x1="92" y1="74" x2="92" y2="57" stroke-width="8" stroke-opacity="0"/>\n\t<line id="function random() { [native code] }:Bond:20-19" class="event" x1="100" y1="114" x2="111" y2="100" stroke-width="8" stroke-opacity="0"/>\n\t<line id="function random() { [native code] }:Bond:22-21" class="event" x1="125" y1="132" x2="108" y2="130" stroke-width="8" stroke-opacity="0"/>\n\t<line id="function random() { [native code] }:Bond:24-23" class="event" x1="128" y1="102" x2="135" y2="118" stroke-width="8" stroke-opacity="0"/>\n\t<line id="function random() { [native code] }:Bond:26-18" class="event" x1="122" y1="74" x2="107" y2="83" stroke-width="8" stroke-opacity="0"/>\n\t<line id="function random() { [native code] }:Bond:28-27" class="event" x1="168" y1="48" x2="152" y2="57" stroke-width="8" stroke-opacity="0"/>\n\t<line id="function random() { [native code] }:Bond:1-0" class="event" x1="183" y1="22" x2="198" y2="31" stroke-width="8" stroke-opacity="0"/>\n\t<line id="function random() { [native code] }:Bond:2-1" class="event" x1="168" y1="31" x2="183" y2="22" stroke-width="8" stroke-opacity="0"/>\n\t<line id="function random() { [native code] }:Bond:4-3" class="event" x1="137" y1="31" x2="152" y2="22" stroke-width="8" stroke-opacity="0"/>\n\t<line id="function random() { [native code] }:Bond:6-5" class="event" x1="122" y1="57" x2="137" y2="48" stroke-width="8" stroke-opacity="0"/>\n\t<line id="function random() { [native code] }:Bond:8-7" class="event" x1="92" y1="57" x2="107" y2="48" stroke-width="8" stroke-opacity="0"/>\n\t<line id="function random() { [native code] }:Bond:9-8" class="event" x1="77" y1="48" x2="92" y2="57" stroke-width="8" stroke-opacity="0"/>\n\t<line id="function random() { [native code] }:Bond:11-9" class="event" x1="62" y1="57" x2="77" y2="48" stroke-width="8" stroke-opacity="0"/>\n\t<line id="function random() { [native code] }:Bond:12-11" class="event" x1="47" y1="48" x2="62" y2="57" stroke-width="8" stroke-opacity="0"/>\n\t<line id="function random() { [native code] }:Bond:13-12" class="event" x1="31" y1="57" x2="47" y2="48" stroke-width="8" stroke-opacity="0"/>\n\t<line id="function random() { [native code] }:Bond:14-13" class="event" x1="16" y1="48" x2="31" y2="57" stroke-width="8" stroke-opacity="0"/>\n\t<line id="function random() { [native code] }:Bond:15-14" class="event" x1="16" y1="31" x2="16" y2="48" stroke-width="8" stroke-opacity="0"/>\n\t<line id="function random() { [native code] }:Bond:16-14" class="event" x1="1" y1="57" x2="16" y2="48" stroke-width="8" stroke-opacity="0"/>\n\t<line id="function random() { [native code] }:Bond:18-17" class="event" x1="107" y1="83" x2="92" y2="74" stroke-width="8" stroke-opacity="0"/>\n\t<line id="function random() { [native code] }:Bond:19-18" class="event" x1="111" y1="100" x2="107" y2="83" stroke-width="8" stroke-opacity="0"/>\n\t<line id="function random() { [native code] }:Bond:21-20" class="event" x1="108" y1="130" x2="100" y2="114" stroke-width="8" stroke-opacity="0"/>\n\t<line id="function random() { [native code] }:Bond:23-22" class="event" x1="135" y1="118" x2="125" y2="132" stroke-width="8" stroke-opacity="0"/>\n\t<line id="function random() { [native code] }:Bond:24-19" class="event" x1="128" y1="102" x2="111" y2="100" stroke-width="8" stroke-opacity="0"/>\n\t<line id="function random() { [native code] }:Bond:25-24" class="event" x1="135" y1="86" x2="128" y2="102" stroke-width="8" stroke-opacity="0"/>\n\t<line id="function random() { [native code] }:Bond:26-25" class="event" x1="122" y1="74" x2="135" y2="86" stroke-width="8" stroke-opacity="0"/>\n\t<line id="function random() { [native code] }:Bond:26-6" class="event" x1="122" y1="74" x2="122" y2="57" stroke-width="8" stroke-opacity="0"/>\n\t<line id="function random() { [native code] }:Bond:27-5" class="event" x1="152" y1="57" x2="137" y2="48" stroke-width="8" stroke-opacity="0"/>\n\t<line id="function random() { [native code] }:Bond:28-2" class="event" x1="168" y1="48" x2="168" y2="31" stroke-width="8" stroke-opacity="0"/>\n\t<line id="function random() { [native code] }:Bond:29-28" class="event" x1="183" y1="57" x2="168" y2="48" stroke-width="8" stroke-opacity="0"/>\n\t<line id="function random() { [native code] }:Bond:30-29" class="event" x1="198" y1="48" x2="183" y2="57" stroke-width="8" stroke-opacity="0"/>\n\t<circle id="function random() { [native code] }:Atom:0" class="event" cx="198" cy="31" r="8" fill-opacity="0"/>\n\t<circle id="function random() { [native code] }:Atom:1" class="event" cx="183" cy="22" r="8" fill-opacity="0"/>\n\t<circle id="function random() { [native code] }:Atom:2" class="event" cx="168" cy="31" r="8" fill-opacity="0"/>\n\t<circle id="function random() { [native code] }:Atom:3" class="event" cx="152" cy="22" r="8" fill-opacity="0"/>\n\t<circle id="function random() { [native code] }:Atom:4" class="event" cx="137" cy="31" r="8" fill-opacity="0"/>\n\t<circle id="function random() { [native code] }:Atom:5" class="event" cx="137" cy="48" r="8" fill-opacity="0"/>\n\t<circle id="function random() { [native code] }:Atom:6" class="event" cx="122" cy="57" r="8" fill-opacity="0"/>\n\t<circle id="function random() { [native code] }:Atom:7" class="event" cx="107" cy="48" r="8" fill-opacity="0"/>\n\t<circle id="function random() { [native code] }:Atom:8" class="event" cx="92" cy="57" r="8" fill-opacity="0"/>\n\t<circle id="function random() { [native code] }:Atom:9" class="event" cx="77" cy="48" r="8" fill-opacity="0"/>\n\t<circle id="function random() { [native code] }:Atom:10" class="event" cx="77" cy="31" r="8" fill-opacity="0"/>\n\t<circle id="function random() { [native code] }:Atom:11" class="event" cx="62" cy="57" r="8" fill-opacity="0"/>\n\t<circle id="function random() { [native code] }:Atom:12" class="event" cx="47" cy="48" r="8" fill-opacity="0"/>\n\t<circle id="function random() { [native code] }:Atom:13" class="event" cx="31" cy="57" r="8" fill-opacity="0"/>\n\t<circle id="function random() { [native code] }:Atom:14" class="event" cx="16" cy="48" r="8" fill-opacity="0"/>\n\t<circle id="function random() { [native code] }:Atom:15" class="event" cx="16" cy="31" r="8" fill-opacity="0"/>\n\t<circle id="function random() { [native code] }:Atom:16" class="event" cx="1" cy="57" r="8" fill-opacity="0"/>\n\t<circle id="function random() { [native code] }:Atom:17" class="event" cx="92" cy="74" r="8" fill-opacity="0"/>\n\t<circle id="function random() { [native code] }:Atom:18" class="event" cx="107" cy="83" r="8" fill-opacity="0"/>\n\t<circle id="function random() { [native code] }:Atom:19" class="event" cx="111" cy="100" r="8" fill-opacity="0"/>\n\t<circle id="function random() { [native code] }:Atom:20" class="event" cx="100" cy="114" r="8" fill-opacity="0"/>\n\t<circle id="function random() { [native code] }:Atom:21" class="event" cx="108" cy="130" r="8" fill-opacity="0"/>\n\t<circle id="function random() { [native code] }:Atom:22" class="event" cx="125" cy="132" r="8" fill-opacity="0"/>\n\t<circle id="function random() { [native code] }:Atom:23" class="event" cx="135" cy="118" r="8" fill-opacity="0"/>\n\t<circle id="function random() { [native code] }:Atom:24" class="event" cx="128" cy="102" r="8" fill-opacity="0"/>\n\t<circle id="function random() { [native code] }:Atom:25" class="event" cx="135" cy="86" r="8" fill-opacity="0"/>\n\t<circle id="function random() { [native code] }:Atom:26" class="event" cx="122" cy="74" r="8" fill-opacity="0"/>\n\t<circle id="function random() { [native code] }:Atom:27" class="event" cx="152" cy="57" r="8" fill-opacity="0"/>\n\t<circle id="function random() { [native code] }:Atom:28" class="event" cx="168" cy="48" r="8" fill-opacity="0"/>\n\t<circle id="function random() { [native code] }:Atom:29" class="event" cx="183" cy="57" r="8" fill-opacity="0"/>\n\t<circle id="function random() { [native code] }:Atom:30" class="event" cx="198" cy="48" r="8" fill-opacity="0"/>\n</svg>