<svg id="function random() { [native code] }" xmlns="http://www.w3.org/2000/svg" version="1.1" width="200px" height="150px" viewBox="0 0 200 150">\n\t<style> #function random() { [native code] } {pointer-events:none; }  #function random() { [native code] } .event  { pointer-events:all;}  </style>\n\t<text x="147" y="123" font-family=" Helvetica" font-weight="900" font-size="12" fill="rgb(255,13,13)">O</text>\n\t<text x="113" y="123" font-family=" Helvetica" font-weight="900" font-size="12" fill="rgb(48,80,248)">N</text>\n\t<text x="113" y="135" font-family=" Helvetica" font-weight="900" font-size="12" fill="rgb(48,80,248)">H</text>\n\t<text x="62" y="113" font-family=" Helvetica" font-weight="900" font-size="12" fill="rgb(48,80,248)">N</text>\n\t<text x="62" y="101" font-family=" Helvetica" font-weight="900" font-size="12" fill="rgb(48,80,248)">H</text>\n\t<text x="11" y="123" font-family=" Helvetica" font-weight="900" font-size="12" fill="rgb(255,13,13)">O</text>\n\t<text x="2" y="123" font-family=" Helvetica" font-weight="900" font-size="12" fill="rgb(255,13,13)">H</text>\n\t<text x="135" y="35" font-family=" Helvetica" font-weight="900" font-size="12" fill="rgb(48,80,248)">N</text>\n\t<text x="126" y="35" font-family=" Helvetica" font-weight="900" font-size="12" fill="rgb(48,80,248)">H</text>\n\t<text x="44" y="25" font-family=" Helvetica" font-weight="900" font-size="12" fill="rgb(31,240,31)">Cl</text>\n\t<text x="44" y="64" font-family=" Helvetica" font-weight="900" font-size="12" fill="rgb(31,240,31)">Cl</text>\n\t<text x="113" y="84" font-family=" Helvetica" font-weight="900" font-size="12" fill="rgb(48,80,248)">N</text>\n\t<line x1="133" y1="110" x2="145" y2="117" style="stroke:rgb(0,0,0);stroke-width:1"/>\n\t<line x1="135" y1="107" x2="147" y2="114" style="stroke:rgb(0,0,0);stroke-width:1"/>\n\t<line x1="152" y1="80" x2="135" y2="89" style="stroke:rgb(0,0,0);stroke-width:1"/>\n\t<line x1="149" y1="78" x2="135" y2="86" style="stroke:rgb(0,0,0);stroke-width:1"/>\n\t<line x1="186" y1="49" x2="166" y2="47" style="stroke:rgb(0,0,0);stroke-width:1"/>\n\t<line x1="184" y1="46" x2="169" y2="44" style="stroke:rgb(0,0,0);stroke-width:1"/>\n\t<line x1="190" y1="15" x2="198" y2="33" style="stroke:rgb(0,0,0);stroke-width:1"/>\n\t<line x1="188" y1="18" x2="194" y2="32" style="stroke:rgb(0,0,0);stroke-width:1"/>\n\t<line x1="158" y1="29" x2="170" y2="13" style="stroke:rgb(0,0,0);stroke-width:1"/>\n\t<line x1="162" y1="29" x2="171" y2="16" style="stroke:rgb(0,0,0);stroke-width:1"/>\n\t<line x1="135" y1="50" x2="152" y2="60" style="stroke:rgb(0,0,0);stroke-width:1"/>\n\t<line x1="135" y1="54" x2="149" y2="61" style="stroke:rgb(0,0,0);stroke-width:1"/>\n\t<line x1="101" y1="30" x2="101" y2="50" style="stroke:rgb(0,0,0);stroke-width:1"/>\n\t<line x1="98" y1="32" x2="98" y2="48" style="stroke:rgb(0,0,0);stroke-width:1"/>\n\t<line x1="67" y1="30" x2="84" y2="21" style="stroke:rgb(0,0,0);stroke-width:1"/>\n\t<line x1="70" y1="32" x2="83" y2="24" style="stroke:rgb(0,0,0);stroke-width:1"/>\n\t<line x1="84" y1="60" x2="67" y2="50" style="stroke:rgb(0,0,0);stroke-width:1"/>\n\t<line x1="83" y1="56" x2="70" y2="49" style="stroke:rgb(0,0,0);stroke-width:1"/>\n\t<line x1="118" y1="60" x2="118" y2="74" style="stroke:rgb(0,0,0);stroke-width:1"/>\n\t<line x1="121" y1="62" x2="121" y2="74" style="stroke:rgb(0,0,0);stroke-width:1"/>\n\t<line x1="123" y1="116" x2="135" y2="109" style="stroke:rgb(0,0,0);stroke-width:1"/>\n\t<line x1="101" y1="109" x2="112" y2="116" style="stroke:rgb(0,0,0);stroke-width:1"/>\n\t<line x1="84" y1="119" x2="101" y2="109" style="stroke:rgb(0,0,0);stroke-width:1"/>\n\t<line x1="72" y1="112" x2="84" y2="119" style="stroke:rgb(0,0,0);stroke-width:1"/>\n\t<line x1="50" y1="119" x2="61" y2="112" style="stroke:rgb(0,0,0);stroke-width:1"/>\n\t<line x1="33" y1="109" x2="50" y2="119" style="stroke:rgb(0,0,0);stroke-width:1"/>\n\t<line x1="21" y1="116" x2="33" y2="109" style="stroke:rgb(0,0,0);stroke-width:1"/>\n\t<line x1="135" y1="89" x2="135" y2="109" style="stroke:rgb(0,0,0);stroke-width:1"/>\n\t<line x1="152" y1="60" x2="152" y2="80" style="stroke:rgb(0,0,0);stroke-width:1"/>\n\t<line x1="166" y1="47" x2="152" y2="60" style="stroke:rgb(0,0,0);stroke-width:1"/>\n\t<line x1="198" y1="33" x2="186" y2="49" style="stroke:rgb(0,0,0);stroke-width:1"/>\n\t<line x1="170" y1="13" x2="190" y2="15" style="stroke:rgb(0,0,0);stroke-width:1"/>\n\t<line x1="158" y1="29" x2="166" y2="47" style="stroke:rgb(0,0,0);stroke-width:1"/>\n\t<line x1="144" y1="30" x2="158" y2="29" style="stroke:rgb(0,0,0);stroke-width:1"/>\n\t<line x1="135" y1="50" x2="138" y2="37" style="stroke:rgb(0,0,0);stroke-width:1"/>\n\t<line x1="118" y1="60" x2="135" y2="50" style="stroke:rgb(0,0,0);stroke-width:1"/>\n\t<line x1="101" y1="50" x2="118" y2="60" style="stroke:rgb(0,0,0);stroke-width:1"/>\n\t<line x1="84" y1="21" x2="101" y2="30" style="stroke:rgb(0,0,0);stroke-width:1"/>\n\t<line x1="56" y1="24" x2="67" y2="30" style="stroke:rgb(0,0,0);stroke-width:1"/>\n\t<line x1="67" y1="50" x2="67" y2="30" style="stroke:rgb(0,0,0);stroke-width:1"/>\n\t<line x1="56" y1="56" x2="67" y2="50" style="stroke:rgb(0,0,0);stroke-width:1"/>\n\t<line x1="84" y1="60" x2="101" y2="50" style="stroke:rgb(0,0,0);stroke-width:1"/>\n\t<line x1="123" y1="83" x2="135" y2="89" style="stroke:rgb(0,0,0);stroke-width:1"/>\n\t<line id="function random() { [native code] }:Bond:1-0" class="event" x1="135" y1="109" x2="152" y2="119" stroke-width="8" stroke-opacity="0"/>\n\t<line id="function random() { [native code] }:Bond:10-9" class="event" x1="152" y1="80" x2="135" y2="89" stroke-width="8" stroke-opacity="0"/>\n\t<line id="function random() { [native code] }:Bond:13-12" class="event" x1="186" y1="49" x2="166" y2="47" stroke-width="8" stroke-opacity="0"/>\n\t<line id="function random() { [native code] }:Bond:15-14" class="event" x1="190" y1="15" x2="198" y2="33" stroke-width="8" stroke-opacity="0"/>\n\t<line id="function random() { [native code] }:Bond:17-16" class="event" x1="158" y1="29" x2="170" y2="13" stroke-width="8" stroke-opacity="0"/>\n\t<line id="function random() { [native code] }:Bond:19-11" class="event" x1="135" y1="50" x2="152" y2="60" stroke-width="8" stroke-opacity="0"/>\n\t<line id="function random() { [native code] }:Bond:22-21" class="event" x1="101" y1="30" x2="101" y2="50" stroke-width="8" stroke-opacity="0"/>\n\t<line id="function random() { [native code] }:Bond:24-23" class="event" x1="67" y1="30" x2="84" y2="21" stroke-width="8" stroke-opacity="0"/>\n\t<line id="function random() { [native code] }:Bond:28-26" class="event" x1="84" y1="60" x2="67" y2="50" stroke-width="8" stroke-opacity="0"/>\n\t<line id="function random() { [native code] }:Bond:29-20" class="event" x1="118" y1="80" x2="118" y2="60" stroke-width="8" stroke-opacity="0"/>\n\t<line id="function random() { [native code] }:Bond:2-1" class="event" x1="118" y1="119" x2="135" y2="109" stroke-width="8" stroke-opacity="0"/>\n\t<line id="function random() { [native code] }:Bond:3-2" class="event" x1="101" y1="109" x2="118" y2="119" stroke-width="8" stroke-opacity="0"/>\n\t<line id="function random() { [native code] }:Bond:4-3" class="event" x1="84" y1="119" x2="101" y2="109" stroke-width="8" stroke-opacity="0"/>\n\t<line id="function random() { [native code] }:Bond:5-4" class="event" x1="67" y1="109" x2="84" y2="119" stroke-width="8" stroke-opacity="0"/>\n\t<line id="function random() { [native code] }:Bond:6-5" class="event" x1="50" y1="119" x2="67" y2="109" stroke-width="8" stroke-opacity="0"/>\n\t<line id="function random() { [native code] }:Bond:7-6" class="event" x1="33" y1="109" x2="50" y2="119" stroke-width="8" stroke-opacity="0"/>\n\t<line id="function random() { [native code] }:Bond:8-7" class="event" x1="16" y1="119" x2="33" y2="109" stroke-width="8" stroke-opacity="0"/>\n\t<line id="function random() { [native code] }:Bond:9-1" class="event" x1="135" y1="89" x2="135" y2="109" stroke-width="8" stroke-opacity="0"/>\n\t<line id="function random() { [native code] }:Bond:11-10" class="event" x1="152" y1="60" x2="152" y2="80" stroke-width="8" stroke-opacity="0"/>\n\t<line id="function random() { [native code] }:Bond:12-11" class="event" x1="166" y1="47" x2="152" y2="60" stroke-width="8" stroke-opacity="0"/>\n\t<line id="function random() { [native code] }:Bond:14-13" class="event" x1="198" y1="33" x2="186" y2="49" stroke-width="8" stroke-opacity="0"/>\n\t<line id="function random() { [native code] }:Bond:16-15" class="event" x1="170" y1="13" x2="190" y2="15" stroke-width="8" stroke-opacity="0"/>\n\t<line id="function random() { [native code] }:Bond:17-12" class="event" x1="158" y1="29" x2="166" y2="47" stroke-width="8" stroke-opacity="0"/>\n\t<line id="function random() { [native code] }:Bond:18-17" class="event" x1="139" y1="31" x2="158" y2="29" stroke-width="8" stroke-opacity="0"/>\n\t<line id="function random() { [native code] }:Bond:19-18" class="event" x1="135" y1="50" x2="139" y2="31" stroke-width="8" stroke-opacity="0"/>\n\t<line id="function random() { [native code] }:Bond:20-19" class="event" x1="118" y1="60" x2="135" y2="50" stroke-width="8" stroke-opacity="0"/>\n\t<line id="function random() { [native code] }:Bond:21-20" class="event" x1="101" y1="50" x2="118" y2="60" stroke-width="8" stroke-opacity="0"/>\n\t<line id="function random() { [native code] }:Bond:23-22" class="event" x1="84" y1="21" x2="101" y2="30" stroke-width="8" stroke-opacity="0"/>\n\t<line id="function random() { [native code] }:Bond:25-24" class="event" x1="50" y1="21" x2="67" y2="30" stroke-width="8" stroke-opacity="0"/>\n\t<line id="function random() { [native code] }:Bond:26-24" class="event" x1="67" y1="50" x2="67" y2="30" stroke-width="8" stroke-opacity="0"/>\n\t<line id="function random() { [native code] }:Bond:27-26" class="event" x1="50" y1="60" x2="67" y2="50" stroke-width="8" stroke-opacity="0"/>\n\t<line id="function random() { [native code] }:Bond:28-21" class="event" x1="84" y1="60" x2="101" y2="50" stroke-width="8" stroke-opacity="0"/>\n\t<line id="function random() { [native code] }:Bond:29-9" class="event" x1="118" y1="80" x2="135" y2="89" stroke-width="8" stroke-opacity="0"/>\n\t<circle id="function random() { [native code] }:Atom:0" class="event" cx="152" cy="119" r="8" fill-opacity="0"/>\n\t<circle id="function random() { [native code] }:Atom:1" class="event" cx="135" cy="109" r="8" fill-opacity="0"/>\n\t<circle id="function random() { [native code] }:Atom:2" class="event" cx="118" cy="119" r="8" fill-opacity="0"/>\n\t<circle id="function random() { [native code] }:Atom:3" class="event" cx="101" cy="109" r="8" fill-opacity="0"/>\n\t<circle id="function random() { [native code] }:Atom:4" class="event" cx="84" cy="119" r="8" fill-opacity="0"/>\n\t<circle id="function random() { [native code] }:Atom:5" class="event" cx="67" cy="109" r="8" fill-opacity="0"/>\n\t<circle id="function random() { [native code] }:Atom:6" class="event" cx="50" cy="119" r="8" fill-opacity="0"/>\n\t<circle id="function random() { [native code] }:Atom:7" class="event" cx="33" cy="109" r="8" fill-opacity="0"/>\n\t<circle id="function random() { [native code] }:Atom:8" class="event" cx="16" cy="119" r="8" fill-opacity="0"/>\n\t<circle id="function random() { [native code] }:Atom:9" class="event" cx="135" cy="89" r="8" fill-opacity="0"/>\n\t<circle id="function random() { [native code] }:Atom:10" class="event" cx="152" cy="80" r="8" fill-opacity="0"/>\n\t<circle id="function random() { [native code] }:Atom:11" class="event" cx="152" cy="60" r="8" fill-opacity="0"/>\n\t<circle id="function random() { [native code] }:Atom:12" class="event" cx="166" cy="47" r="8" fill-opacity="0"/>\n\t<circle id="function random() { [native code] }:Atom:13" class="event" cx="186" cy="49" r="8" fill-opacity="0"/>\n\t<circle id="function random() { [native code] }:Atom:14" class="event" cx="198" cy="33" r="8" fill-opacity="0"/>\n\t<circle id="function random() { [native code] }:Atom:15" class="event" cx="190" cy="15" r="8" fill-opacity="0"/>\n\t<circle id="function random() { [native code] }:Atom:16" class="event" cx="170" cy="13" r="8" fill-opacity="0"/>\n\t<circle id="function random() { [native code] }:Atom:17" class="event" cx="158" cy="29" r="8" fill-opacity="0"/>\n\t<circle id="function random() { [native code] }:Atom:18" class="event" cx="139" cy="31" r="8" fill-opacity="0"/>\n\t<circle id="function random() { [native code] }:Atom:19" class="event" cx="135" cy="50" r="8" fill-opacity="0"/>\n\t<circle id="function random() { [native code] }:Atom:20" class="event" cx="118" cy="60" r="8" fill-opacity="0"/>\n\t<circle id="function random() { [native code] }:Atom:21" class="event" cx="101" cy="50" r="8" fill-opacity="0"/>\n\t<circle id="function random() { [native code] }:Atom:22" class="event" cx="101" cy="30" r="8" fill-opacity="0"/>\n\t<circle id="function random() { [native code] }:Atom:23" class="event" cx="84" cy="21" r="8" fill-opacity="0"/>\n\t<circle id="function random() { [native code] }:Atom:24" class="event" cx="67" cy="30" r="8" fill-opacity="0"/>\n\t<circle id="function random() { [native code] }:Atom:25" class="event" cx="50" cy="21" r="8" fill-opacity="0"/>\n\t<circle id="function random() { [native code] }:Atom:26" class="event" cx="67" cy="50" r="8" fill-opacity="0"/>\n\t<circle id="function random() { [native code] }:Atom:27" class="event" cx="50" cy="60" r="8" fill-opacity="0"/>\n\t<circle id="function random() { [native code] }:Atom:28" class="event" cx="84" cy="60" r="8" fill-opacity="0"/>\n\t<circle id="function random() { [native code] }:Atom:29" class="event" cx="118" cy="80" r="8" fill-opacity="0"/>\n</svg>