<svg id="function random() { [native code] }" xmlns="http://www.w3.org/2000/svg" version="1.1" width="200px" height="150px" viewBox="0 0 200 150">\n\t<style> #function random() { [native code] } {pointer-events:none; }  #function random() { [native code] } .event  { pointer-events:all;}  </style>\n\t<text x="181" y="46" font-family=" Helvetica" font-weight="900" font-size="9" fill="rgb(255,13,13)">O</text>\n\t<text x="167" y="23" font-family=" Helvetica" font-weight="900" font-size="9" fill="rgb(255,13,13)">O</text>\n\t<text x="141" y="39" font-family=" Helvetica" font-weight="900" font-size="9" fill="rgb(48,80,248)">N</text>\n\t<text x="141" y="30" font-family=" Helvetica" font-weight="900" font-size="9" fill="rgb(48,80,248)">H</text>\n\t<text x="100" y="46" font-family=" Helvetica" font-weight="900" font-size="9" fill="rgb(48,80,248)">N</text>\n\t<text x="100" y="55" font-family=" Helvetica" font-weight="900" font-size="9" fill="rgb(48,80,248)">H</text>\n\t<text x="87" y="23" font-family=" Helvetica" font-weight="900" font-size="9" fill="rgb(255,13,13)">O</text>\n\t<text x="32" y="67" font-family=" Helvetica" font-weight="900" font-size="9" fill="rgb(48,80,248)">N</text>\n\t<text x="32" y="76" font-family=" Helvetica" font-weight="900" font-size="9" fill="rgb(48,80,248)">H</text>\n\t<text x="59" y="132" font-family=" Helvetica" font-weight="900" font-size="9" fill="rgb(31,240,31)">Cl</text>\n\t<text x="86" y="116" font-family=" Helvetica" font-weight="900" font-size="9" fill="rgb(31,240,31)">Cl</text>\n\t<text x="73" y="62" font-family=" Helvetica" font-weight="900" font-size="9" fill="rgb(48,80,248)">N</text>\n\t<line x1="172" y1="36" x2="172" y2="24" style="stroke:rgb(0,0,0);stroke-width:1"/>\n\t<line x1="170" y1="36" x2="170" y2="24" style="stroke:rgb(0,0,0);stroke-width:1"/>\n\t<line x1="91" y1="36" x2="91" y2="24" style="stroke:rgb(0,0,0);stroke-width:1"/>\n\t<line x1="89" y1="36" x2="89" y2="24" style="stroke:rgb(0,0,0);stroke-width:1"/>\n\t<line x1="63" y1="36" x2="77" y2="43" style="stroke:rgb(0,0,0);stroke-width:1"/>\n\t<line x1="63" y1="38" x2="74" y2="45" style="stroke:rgb(0,0,0);stroke-width:1"/>\n\t<line x1="29" y1="24" x2="35" y2="39" style="stroke:rgb(0,0,0);stroke-width:1"/>\n\t<line x1="27" y1="27" x2="32" y2="38" style="stroke:rgb(0,0,0);stroke-width:1"/>\n\t<line x1="4" y1="35" x2="13" y2="23" style="stroke:rgb(0,0,0);stroke-width:1"/>\n\t<line x1="7" y1="35" x2="14" y2="25" style="stroke:rgb(0,0,0);stroke-width:1"/>\n\t<line x1="26" y1="51" x2="10" y2="50" style="stroke:rgb(0,0,0);stroke-width:1"/>\n\t<line x1="24" y1="49" x2="12" y2="47" style="stroke:rgb(0,0,0);stroke-width:1"/>\n\t<line x1="50" y1="59" x2="50" y2="43" style="stroke:rgb(0,0,0);stroke-width:1"/>\n\t<line x1="52" y1="57" x2="52" y2="45" style="stroke:rgb(0,0,0);stroke-width:1"/>\n\t<line x1="50" y1="90" x2="63" y2="82" style="stroke:rgb(0,0,0);stroke-width:1"/>\n\t<line x1="52" y1="91" x2="63" y2="85" style="stroke:rgb(0,0,0);stroke-width:1"/>\n\t<line x1="63" y1="113" x2="50" y2="106" style="stroke:rgb(0,0,0);stroke-width:1"/>\n\t<line x1="63" y1="111" x2="52" y2="104" style="stroke:rgb(0,0,0);stroke-width:1"/>\n\t<line x1="77" y1="90" x2="77" y2="106" style="stroke:rgb(0,0,0);stroke-width:1"/>\n\t<line x1="74" y1="92" x2="74" y2="104" style="stroke:rgb(0,0,0);stroke-width:1"/>\n\t<line x1="63" y1="67" x2="72" y2="61" style="stroke:rgb(0,0,0);stroke-width:1"/>\n\t<line x1="63" y1="64" x2="71" y2="59" style="stroke:rgb(0,0,0);stroke-width:1"/>\n\t<line x1="189" y1="41" x2="198" y2="36" style="stroke:rgb(0,0,0);stroke-width:1"/>\n\t<line x1="171" y1="36" x2="180" y2="41" style="stroke:rgb(0,0,0);stroke-width:1"/>\n\t<line x1="157" y1="43" x2="171" y2="36" style="stroke:rgb(0,0,0);stroke-width:1"/>\n\t<line x1="148" y1="38" x2="157" y2="43" style="stroke:rgb(0,0,0);stroke-width:1"/>\n\t<line x1="131" y1="43" x2="140" y2="38" style="stroke:rgb(0,0,0);stroke-width:1"/>\n\t<line x1="117" y1="36" x2="131" y2="43" style="stroke:rgb(0,0,0);stroke-width:1"/>\n\t<line x1="108" y1="41" x2="117" y2="36" style="stroke:rgb(0,0,0);stroke-width:1"/>\n\t<line x1="90" y1="36" x2="99" y2="41" style="stroke:rgb(0,0,0);stroke-width:1"/>\n\t<line x1="77" y1="43" x2="90" y2="36" style="stroke:rgb(0,0,0);stroke-width:1"/>\n\t<line x1="50" y1="43" x2="63" y2="36" style="stroke:rgb(0,0,0);stroke-width:1"/>\n\t<line x1="35" y1="39" x2="50" y2="43" style="stroke:rgb(0,0,0);stroke-width:1"/>\n\t<line x1="13" y1="23" x2="29" y2="24" style="stroke:rgb(0,0,0);stroke-width:1"/>\n\t<line x1="10" y1="50" x2="4" y2="35" style="stroke:rgb(0,0,0);stroke-width:1"/>\n\t<line x1="1" y1="62" x2="10" y2="50" style="stroke:rgb(0,0,0);stroke-width:1"/>\n\t<line x1="26" y1="51" x2="35" y2="39" style="stroke:rgb(0,0,0);stroke-width:1"/>\n\t<line x1="32" y1="60" x2="26" y2="51" style="stroke:rgb(0,0,0);stroke-width:1"/>\n\t<line x1="50" y1="59" x2="39" y2="62" style="stroke:rgb(0,0,0);stroke-width:1"/>\n\t<line x1="63" y1="67" x2="50" y2="59" style="stroke:rgb(0,0,0);stroke-width:1"/>\n\t<line x1="63" y1="82" x2="63" y2="67" style="stroke:rgb(0,0,0);stroke-width:1"/>\n\t<line x1="50" y1="106" x2="50" y2="90" style="stroke:rgb(0,0,0);stroke-width:1"/>\n\t<line x1="63" y1="125" x2="63" y2="113" style="stroke:rgb(0,0,0);stroke-width:1"/>\n\t<line x1="77" y1="106" x2="63" y2="113" style="stroke:rgb(0,0,0);stroke-width:1"/>\n\t<line x1="85" y1="110" x2="77" y2="106" style="stroke:rgb(0,0,0);stroke-width:1"/>\n\t<line x1="77" y1="90" x2="63" y2="82" style="stroke:rgb(0,0,0);stroke-width:1"/>\n\t<line x1="77" y1="55" x2="77" y2="43" style="stroke:rgb(0,0,0);stroke-width:1"/>\n\t<line id="function random() { [native code] }:Bond:3-2" class="event" x1="171" y1="20" x2="171" y2="36" stroke-width="8" stroke-opacity="0"/>\n\t<line id="function random() { [native code] }:Bond:10-9" class="event" x1="90" y1="20" x2="90" y2="36" stroke-width="8" stroke-opacity="0"/>\n\t<line id="function random() { [native code] }:Bond:12-11" class="event" x1="63" y1="36" x2="77" y2="43" stroke-width="8" stroke-opacity="0"/>\n\t<line id="function random() { [native code] }:Bond:15-14" class="event" x1="29" y1="24" x2="35" y2="39" stroke-width="8" stroke-opacity="0"/>\n\t<line id="function random() { [native code] }:Bond:17-16" class="event" x1="4" y1="35" x2="13" y2="23" stroke-width="8" stroke-opacity="0"/>\n\t<line id="function random() { [native code] }:Bond:20-18" class="event" x1="26" y1="51" x2="10" y2="50" stroke-width="8" stroke-opacity="0"/>\n\t<line id="function random() { [native code] }:Bond:22-13" class="event" x1="50" y1="59" x2="50" y2="43" stroke-width="8" stroke-opacity="0"/>\n\t<line id="function random() { [native code] }:Bond:25-24" class="event" x1="50" y1="90" x2="63" y2="82" stroke-width="8" stroke-opacity="0"/>\n\t<line id="function random() { [native code] }:Bond:27-26" class="event" x1="63" y1="113" x2="50" y2="106" stroke-width="8" stroke-opacity="0"/>\n\t<line id="function random() { [native code] }:Bond:31-29" class="event" x1="77" y1="90" x2="77" y2="106" stroke-width="8" stroke-opacity="0"/>\n\t<line id="function random() { [native code] }:Bond:32-23" class="event" x1="77" y1="59" x2="63" y2="67" stroke-width="8" stroke-opacity="0"/>\n\t<line id="function random() { [native code] }:Bond:1-0" class="event" x1="184" y1="43" x2="198" y2="36" stroke-width="8" stroke-opacity="0"/>\n\t<line id="function random() { [native code] }:Bond:2-1" class="event" x1="171" y1="36" x2="184" y2="43" stroke-width="8" stroke-opacity="0"/>\n\t<line id="function random() { [native code] }:Bond:4-2" class="event" x1="157" y1="43" x2="171" y2="36" stroke-width="8" stroke-opacity="0"/>\n\t<line id="function random() { [native code] }:Bond:5-4" class="event" x1="144" y1="36" x2="157" y2="43" stroke-width="8" stroke-opacity="0"/>\n\t<line id="function random() { [native code] }:Bond:6-5" class="event" x1="131" y1="43" x2="144" y2="36" stroke-width="8" stroke-opacity="0"/>\n\t<line id="function random() { [native code] }:Bond:7-6" class="event" x1="117" y1="36" x2="131" y2="43" stroke-width="8" stroke-opacity="0"/>\n\t<line id="function random() { [native code] }:Bond:8-7" class="event" x1="104" y1="43" x2="117" y2="36" stroke-width="8" stroke-opacity="0"/>\n\t<line id="function random() { [native code] }:Bond:9-8" class="event" x1="90" y1="36" x2="104" y2="43" stroke-width="8" stroke-opacity="0"/>\n\t<line id="function random() { [native code] }:Bond:11-9" class="event" x1="77" y1="43" x2="90" y2="36" stroke-width="8" stroke-opacity="0"/>\n\t<line id="function random() { [native code] }:Bond:13-12" class="event" x1="50" y1="43" x2="63" y2="36" stroke-width="8" stroke-opacity="0"/>\n\t<line id="function random() { [native code] }:Bond:14-13" class="event" x1="35" y1="39" x2="50" y2="43" stroke-width="8" stroke-opacity="0"/>\n\t<line id="function random() { [native code] }:Bond:16-15" class="event" x1="13" y1="23" x2="29" y2="24" stroke-width="8" stroke-opacity="0"/>\n\t<line id="function random() { [native code] }:Bond:18-17" class="event" x1="10" y1="50" x2="4" y2="35" stroke-width="8" stroke-opacity="0"/>\n\t<line id="function random() { [native code] }:Bond:19-18" class="event" x1="1" y1="62" x2="10" y2="50" stroke-width="8" stroke-opacity="0"/>\n\t<line id="function random() { [native code] }:Bond:20-14" class="event" x1="26" y1="51" x2="35" y2="39" stroke-width="8" stroke-opacity="0"/>\n\t<line id="function random() { [native code] }:Bond:21-20" class="event" x1="35" y1="64" x2="26" y2="51" stroke-width="8" stroke-opacity="0"/>\n\t<line id="function random() { [native code] }:Bond:22-21" class="event" x1="50" y1="59" x2="35" y2="64" stroke-width="8" stroke-opacity="0"/>\n\t<line id="function random() { [native code] }:Bond:23-22" class="event" x1="63" y1="67" x2="50" y2="59" stroke-width="8" stroke-opacity="0"/>\n\t<line id="function random() { [native code] }:Bond:24-23" class="event" x1="63" y1="82" x2="63" y2="67" stroke-width="8" stroke-opacity="0"/>\n\t<line id="function random() { [native code] }:Bond:26-25" class="event" x1="50" y1="106" x2="50" y2="90" stroke-width="8" stroke-opacity="0"/>\n\t<line id="function random() { [native code] }:Bond:28-27" class="event" x1="63" y1="129" x2="63" y2="113" stroke-width="8" stroke-opacity="0"/>\n\t<line id="function random() { [native code] }:Bond:29-27" class="event" x1="77" y1="106" x2="63" y2="113" stroke-width="8" stroke-opacity="0"/>\n\t<line id="function random() { [native code] }:Bond:30-29" class="event" x1="90" y1="113" x2="77" y2="106" stroke-width="8" stroke-opacity="0"/>\n\t<line id="function random() { [native code] }:Bond:31-24" class="event" x1="77" y1="90" x2="63" y2="82" stroke-width="8" stroke-opacity="0"/>\n\t<line id="function random() { [native code] }:Bond:32-11" class="event" x1="77" y1="59" x2="77" y2="43" stroke-width="8" stroke-opacity="0"/>\n\t<circle id="function random() { [native code] }:Atom:0" class="event" cx="198" cy="36" r="8" fill-opacity="0"/>\n\t<circle id="function random() { [native code] }:Atom:1" class="event" cx="184" cy="43" r="8" fill-opacity="0"/>\n\t<circle id="function random() { [native code] }:Atom:2" class="event" cx="171" cy="36" r="8" fill-opacity="0"/>\n\t<circle id="function random() { [native code] }:Atom:3" class="event" cx="171" cy="20" r="8" fill-opacity="0"/>\n\t<circle id="function random() { [native code] }:Atom:4" class="event" cx="157" cy="43" r="8" fill-opacity="0"/>\n\t<circle id="function random() { [native code] }:Atom:5" class="event" cx="144" cy="36" r="8" fill-opacity="0"/>\n\t<circle id="function random() { [native code] }:Atom:6" class="event" cx="131" cy="43" r="8" fill-opacity="0"/>\n\t<circle id="function random() { [native code] }:Atom:7" class="event" cx="117" cy="36" r="8" fill-opacity="0"/>\n\t<circle id="function random() { [native code] }:Atom:8" class="event" cx="104" cy="43" r="8" fill-opacity="0"/>\n\t<circle id="function random() { [native code] }:Atom:9" class="event" cx="90" cy="36" r="8" fill-opacity="0"/>\n\t<circle id="function random() { [native code] }:Atom:10" class="event" cx="90" cy="20" r="8" fill-opacity="0"/>\n\t<circle id="function random() { [native code] }:Atom:11" class="event" cx="77" cy="43" r="8" fill-opacity="0"/>\n\t<circle id="function random() { [native code] }:Atom:12" class="event" cx="63" cy="36" r="8" fill-opacity="0"/>\n\t<circle id="function random() { [native code] }:Atom:13" class="event" cx="50" cy="43" r="8" fill-opacity="0"/>\n\t<circle id="function random() { [native code] }:Atom:14" class="event" cx="35" cy="39" r="8" fill-opacity="0"/>\n\t<circle id="function random() { [native code] }:Atom:15" class="event" cx="29" cy="24" r="8" fill-opacity="0"/>\n\t<circle id="function random() { [native code] }:Atom:16" class="event" cx="13" cy="23" r="8" fill-opacity="0"/>\n\t<circle id="function random() { [native code] }:Atom:17" class="event" cx="4" cy="35" r="8" fill-opacity="0"/>\n\t<circle id="function random() { [native code] }:Atom:18" class="event" cx="10" cy="50" r="8" fill-opacity="0"/>\n\t<circle id="function random() { [native code] }:Atom:19" class="event" cx="1" cy="62" r="8" fill-opacity="0"/>\n\t<circle id="function random() { [native code] }:Atom:20" class="event" cx="26" cy="51" r="8" fill-opacity="0"/>\n\t<circle id="function random() { [native code] }:Atom:21" class="event" cx="35" cy="64" r="8" fill-opacity="0"/>\n\t<circle id="function random() { [native code] }:Atom:22" class="event" cx="50" cy="59" r="8" fill-opacity="0"/>\n\t<circle id="function random() { [native code] }:Atom:23" class="event" cx="63" cy="67" r="8" fill-opacity="0"/>\n\t<circle id="function random() { [native code] }:Atom:24" class="event" cx="63" cy="82" r="8" fill-opacity="0"/>\n\t<circle id="function random() { [native code] }:Atom:25" class="event" cx="50" cy="90" r="8" fill-opacity="0"/>\n\t<circle id="function random() { [native code] }:Atom:26" class="event" cx="50" cy="106" r="8" fill-opacity="0"/>\n\t<circle id="function random() { [native code] }:Atom:27" class="event" cx="63" cy="113" r="8" fill-opacity="0"/>\n\t<circle id="function random() { [native code] }:Atom:28" class="event" cx="63" cy="129" r="8" fill-opacity="0"/>\n\t<circle id="function random() { [native code] }:Atom:29" class="event" cx="77" cy="106" r="8" fill-opacity="0"/>\n\t<circle id="function random() { [native code] }:Atom:30" class="event" cx="90" cy="113" r="8" fill-opacity="0"/>\n\t<circle id="function random() { [native code] }:Atom:31" class="event" cx="77" cy="90" r="8" fill-opacity="0"/>\n\t<circle id="function random() { [native code] }:Atom:32" class="event" cx="77" cy="59" r="8" fill-opacity="0"/>\n</svg>