<svg id="function random() { [native code] }" xmlns="http://www.w3.org/2000/svg" version="1.1" width="200px" height="150px" viewBox="0 0 200 150">\n\t<style> #function random() { [native code] } {pointer-events:none; }  #function random() { [native code] } .event  { pointer-events:all;}  </style>\n\t<text x="81" y="11" font-family=" Helvetica" font-weight="900" font-size="12" fill="rgb(255,13,13)">O</text>\n\t<text x="65" y="40" font-family=" Helvetica" font-weight="900" font-size="12" fill="rgb(48,80,248)">N</text>\n\t<text x="65" y="52" font-family=" Helvetica" font-weight="900" font-size="12" fill="rgb(48,80,248)">H</text>\n\t<text x="15" y="30" font-family=" Helvetica" font-weight="900" font-size="12" fill="rgb(48,80,248)">N</text>\n\t<text x="98" y="59" font-family=" Helvetica" font-weight="900" font-size="12" fill="rgb(48,80,248)">N</text>\n\t<text x="80" y="127" font-family=" Helvetica" font-weight="900" font-size="12" fill="rgb(31,240,31)">Cl</text>\n\t<text x="114" y="146" font-family=" Helvetica" font-weight="900" font-size="12" fill="rgb(31,240,31)">Cl</text>\n\t<text x="150" y="65" font-family=" Helvetica" font-weight="900" font-size="12" fill="rgb(48,80,248)">N</text>\n\t<text x="159" y="65" font-family=" Helvetica" font-weight="900" font-size="12" fill="rgb(48,80,248)">H</text>\n\t<line x1="193" y1="26" x2="185" y2="44" style="stroke:rgb(0,0,0);stroke-width:1"/>\n\t<line x1="189" y1="27" x2="183" y2="41" style="stroke:rgb(0,0,0);stroke-width:1"/>\n\t<line x1="162" y1="13" x2="181" y2="11" style="stroke:rgb(0,0,0);stroke-width:1"/>\n\t<line x1="165" y1="15" x2="180" y2="14" style="stroke:rgb(0,0,0);stroke-width:1"/>\n\t<line x1="119" y1="26" x2="136" y2="36" style="stroke:rgb(0,0,0);stroke-width:1"/>\n\t<line x1="120" y1="30" x2="133" y2="38" style="stroke:rgb(0,0,0);stroke-width:1"/>\n\t<line x1="88" y1="27" x2="88" y2="13" style="stroke:rgb(0,0,0);stroke-width:1"/>\n\t<line x1="85" y1="27" x2="85" y2="13" style="stroke:rgb(0,0,0);stroke-width:1"/>\n\t<line x1="103" y1="36" x2="103" y2="49" style="stroke:rgb(0,0,0);stroke-width:1"/>\n\t<line x1="106" y1="38" x2="106" y2="49" style="stroke:rgb(0,0,0);stroke-width:1"/>\n\t<line x1="103" y1="94" x2="119" y2="84" style="stroke:rgb(0,0,0);stroke-width:1"/>\n\t<line x1="106" y1="95" x2="119" y2="88" style="stroke:rgb(0,0,0);stroke-width:1"/>\n\t<line x1="119" y1="123" x2="103" y2="113" style="stroke:rgb(0,0,0);stroke-width:1"/>\n\t<line x1="119" y1="119" x2="106" y2="111" style="stroke:rgb(0,0,0);stroke-width:1"/>\n\t<line x1="136" y1="94" x2="136" y2="113" style="stroke:rgb(0,0,0);stroke-width:1"/>\n\t<line x1="133" y1="96" x2="133" y2="111" style="stroke:rgb(0,0,0);stroke-width:1"/>\n\t<line x1="136" y1="55" x2="119" y2="65" style="stroke:rgb(0,0,0);stroke-width:1"/>\n\t<line x1="133" y1="54" x2="120" y2="61" style="stroke:rgb(0,0,0);stroke-width:1"/>\n\t<line x1="166" y1="46" x2="154" y2="30" style="stroke:rgb(0,0,0);stroke-width:1"/>\n\t<line x1="167" y1="42" x2="158" y2="30" style="stroke:rgb(0,0,0);stroke-width:1"/>\n\t<line x1="185" y1="44" x2="196" y2="59" style="stroke:rgb(0,0,0);stroke-width:1"/>\n\t<line x1="181" y1="11" x2="193" y2="26" style="stroke:rgb(0,0,0);stroke-width:1"/>\n\t<line x1="154" y1="30" x2="162" y2="13" style="stroke:rgb(0,0,0);stroke-width:1"/>\n\t<line x1="136" y1="36" x2="154" y2="30" style="stroke:rgb(0,0,0);stroke-width:1"/>\n\t<line x1="103" y1="36" x2="119" y2="26" style="stroke:rgb(0,0,0);stroke-width:1"/>\n\t<line x1="86" y1="26" x2="103" y2="36" style="stroke:rgb(0,0,0);stroke-width:1"/>\n\t<line x1="75" y1="33" x2="86" y2="26" style="stroke:rgb(0,0,0);stroke-width:1"/>\n\t<line x1="53" y1="26" x2="64" y2="33" style="stroke:rgb(0,0,0);stroke-width:1"/>\n\t<line x1="36" y1="36" x2="53" y2="26" style="stroke:rgb(0,0,0);stroke-width:1"/>\n\t<line x1="25" y1="30" x2="36" y2="36" style="stroke:rgb(0,0,0);stroke-width:1"/>\n\t<line x1="20" y1="7" x2="20" y2="20" style="stroke:rgb(0,0,0);stroke-width:1"/>\n\t<line x1="3" y1="36" x2="14" y2="30" style="stroke:rgb(0,0,0);stroke-width:1"/>\n\t<line x1="119" y1="65" x2="108" y2="58" style="stroke:rgb(0,0,0);stroke-width:1"/>\n\t<line x1="119" y1="84" x2="119" y2="65" style="stroke:rgb(0,0,0);stroke-width:1"/>\n\t<line x1="103" y1="113" x2="103" y2="94" style="stroke:rgb(0,0,0);stroke-width:1"/>\n\t<line x1="93" y1="119" x2="103" y2="113" style="stroke:rgb(0,0,0);stroke-width:1"/>\n\t<line x1="119" y1="136" x2="119" y2="123" style="stroke:rgb(0,0,0);stroke-width:1"/>\n\t<line x1="136" y1="113" x2="119" y2="123" style="stroke:rgb(0,0,0);stroke-width:1"/>\n\t<line x1="136" y1="94" x2="119" y2="84" style="stroke:rgb(0,0,0);stroke-width:1"/>\n\t<line x1="136" y1="55" x2="136" y2="36" style="stroke:rgb(0,0,0);stroke-width:1"/>\n\t<line x1="149" y1="59" x2="136" y2="55" style="stroke:rgb(0,0,0);stroke-width:1"/>\n\t<line x1="166" y1="46" x2="159" y2="55" style="stroke:rgb(0,0,0);stroke-width:1"/>\n\t<line x1="166" y1="46" x2="185" y2="44" style="stroke:rgb(0,0,0);stroke-width:1"/>\n\t<line id="function random() { [native code] }:Bond:2-1" class="event" x1="193" y1="26" x2="185" y2="44" stroke-width="8" stroke-opacity="0"/>\n\t<line id="function random() { [native code] }:Bond:4-3" class="event" x1="162" y1="13" x2="181" y2="11" stroke-width="8" stroke-opacity="0"/>\n\t<line id="function random() { [native code] }:Bond:7-6" class="event" x1="119" y1="26" x2="136" y2="36" stroke-width="8" stroke-opacity="0"/>\n\t<line id="function random() { [native code] }:Bond:10-9" class="event" x1="86" y1="7" x2="86" y2="26" stroke-width="8" stroke-opacity="0"/>\n\t<line id="function random() { [native code] }:Bond:17-8" class="event" x1="103" y1="55" x2="103" y2="36" stroke-width="8" stroke-opacity="0"/>\n\t<line id="function random() { [native code] }:Bond:20-19" class="event" x1="103" y1="94" x2="119" y2="84" stroke-width="8" stroke-opacity="0"/>\n\t<line id="function random() { [native code] }:Bond:23-21" class="event" x1="119" y1="123" x2="103" y2="113" stroke-width="8" stroke-opacity="0"/>\n\t<line id="function random() { [native code] }:Bond:26-25" class="event" x1="136" y1="94" x2="136" y2="113" stroke-width="8" stroke-opacity="0"/>\n\t<line id="function random() { [native code] }:Bond:27-18" class="event" x1="136" y1="55" x2="119" y2="65" stroke-width="8" stroke-opacity="0"/>\n\t<line id="function random() { [native code] }:Bond:29-5" class="event" x1="166" y1="46" x2="154" y2="30" stroke-width="8" stroke-opacity="0"/>\n\t<line id="function random() { [native code] }:Bond:1-0" class="event" x1="185" y1="44" x2="196" y2="59" stroke-width="8" stroke-opacity="0"/>\n\t<line id="function random() { [native code] }:Bond:3-2" class="event" x1="181" y1="11" x2="193" y2="26" stroke-width="8" stroke-opacity="0"/>\n\t<line id="function random() { [native code] }:Bond:5-4" class="event" x1="154" y1="30" x2="162" y2="13" stroke-width="8" stroke-opacity="0"/>\n\t<line id="function random() { [native code] }:Bond:6-5" class="event" x1="136" y1="36" x2="154" y2="30" stroke-width="8" stroke-opacity="0"/>\n\t<line id="function random() { [native code] }:Bond:8-7" class="event" x1="103" y1="36" x2="119" y2="26" stroke-width="8" stroke-opacity="0"/>\n\t<line id="function random() { [native code] }:Bond:9-8" class="event" x1="86" y1="26" x2="103" y2="36" stroke-width="8" stroke-opacity="0"/>\n\t<line id="function random() { [native code] }:Bond:11-9" class="event" x1="70" y1="36" x2="86" y2="26" stroke-width="8" stroke-opacity="0"/>\n\t<line id="function random() { [native code] }:Bond:12-11" class="event" x1="53" y1="26" x2="70" y2="36" stroke-width="8" stroke-opacity="0"/>\n\t<line id="function random() { [native code] }:Bond:13-12" class="event" x1="36" y1="36" x2="53" y2="26" stroke-width="8" stroke-opacity="0"/>\n\t<line id="function random() { [native code] }:Bond:14-13" class="event" x1="20" y1="26" x2="36" y2="36" stroke-width="8" stroke-opacity="0"/>\n\t<line id="function random() { [native code] }:Bond:15-14" class="event" x1="20" y1="7" x2="20" y2="26" stroke-width="8" stroke-opacity="0"/>\n\t<line id="function random() { [native code] }:Bond:16-14" class="event" x1="3" y1="36" x2="20" y2="26" stroke-width="8" stroke-opacity="0"/>\n\t<line id="function random() { [native code] }:Bond:18-17" class="event" x1="119" y1="65" x2="103" y2="55" stroke-width="8" stroke-opacity="0"/>\n\t<line id="function random() { [native code] }:Bond:19-18" class="event" x1="119" y1="84" x2="119" y2="65" stroke-width="8" stroke-opacity="0"/>\n\t<line id="function random() { [native code] }:Bond:21-20" class="event" x1="103" y1="113" x2="103" y2="94" stroke-width="8" stroke-opacity="0"/>\n\t<line id="function random() { [native code] }:Bond:22-21" class="event" x1="86" y1="123" x2="103" y2="113" stroke-width="8" stroke-opacity="0"/>\n\t<line id="function random() { [native code] }:Bond:24-23" class="event" x1="119" y1="142" x2="119" y2="123" stroke-width="8" stroke-opacity="0"/>\n\t<line id="function random() { [native code] }:Bond:25-23" class="event" x1="136" y1="113" x2="119" y2="123" stroke-width="8" stroke-opacity="0"/>\n\t<line id="function random() { [native code] }:Bond:26-19" class="event" x1="136" y1="94" x2="119" y2="84" stroke-width="8" stroke-opacity="0"/>\n\t<line id="function random() { [native code] }:Bond:27-6" class="event" x1="136" y1="55" x2="136" y2="36" stroke-width="8" stroke-opacity="0"/>\n\t<line id="function random() { [native code] }:Bond:28-27" class="event" x1="154" y1="61" x2="136" y2="55" stroke-width="8" stroke-opacity="0"/>\n\t<line id="function random() { [native code] }:Bond:29-28" class="event" x1="166" y1="46" x2="154" y2="61" stroke-width="8" stroke-opacity="0"/>\n\t<line id="function random() { [native code] }:Bond:29-1" class="event" x1="166" y1="46" x2="185" y2="44" stroke-width="8" stroke-opacity="0"/>\n\t<circle id="function random() { [native code] }:Atom:0" class="event" cx="196" cy="59" r="8" fill-opacity="0"/>\n\t<circle id="function random() { [native code] }:Atom:1" class="event" cx="185" cy="44" r="8" fill-opacity="0"/>\n\t<circle id="function random() { [native code] }:Atom:2" class="event" cx="193" cy="26" r="8" fill-opacity="0"/>\n\t<circle id="function random() { [native code] }:Atom:3" class="event" cx="181" cy="11" r="8" fill-opacity="0"/>\n\t<circle id="function random() { [native code] }:Atom:4" class="event" cx="162" cy="13" r="8" fill-opacity="0"/>\n\t<circle id="function random() { [native code] }:Atom:5" class="event" cx="154" cy="30" r="8" fill-opacity="0"/>\n\t<circle id="function random() { [native code] }:Atom:6" class="event" cx="136" cy="36" r="8" fill-opacity="0"/>\n\t<circle id="function random() { [native code] }:Atom:7" class="event" cx="119" cy="26" r="8" fill-opacity="0"/>\n\t<circle id="function random() { [native code] }:Atom:8" class="event" cx="103" cy="36" r="8" fill-opacity="0"/>\n\t<circle id="function random() { [native code] }:Atom:9" class="event" cx="86" cy="26" r="8" fill-opacity="0"/>\n\t<circle id="function random() { [native code] }:Atom:10" class="event" cx="86" cy="7" r="8" fill-opacity="0"/>\n\t<circle id="function random() { [native code] }:Atom:11" class="event" cx="70" cy="36" r="8" fill-opacity="0"/>\n\t<circle id="function random() { [native code] }:Atom:12" class="event" cx="53" cy="26" r="8" fill-opacity="0"/>\n\t<circle id="function random() { [native code] }:Atom:13" class="event" cx="36" cy="36" r="8" fill-opacity="0"/>\n\t<circle id="function random() { [native code] }:Atom:14" class="event" cx="20" cy="26" r="8" fill-opacity="0"/>\n\t<circle id="function random() { [native code] }:Atom:15" class="event" cx="20" cy="7" r="8" fill-opacity="0"/>\n\t<circle id="function random() { [native code] }:Atom:16" class="event" cx="3" cy="36" r="8" fill-opacity="0"/>\n\t<circle id="function random() { [native code] }:Atom:17" class="event" cx="103" cy="55" r="8" fill-opacity="0"/>\n\t<circle id="function random() { [native code] }:Atom:18" class="event" cx="119" cy="65" r="8" fill-opacity="0"/>\n\t<circle id="function random() { [native code] }:Atom:19" class="event" cx="119" cy="84" r="8" fill-opacity="0"/>\n\t<circle id="function random() { [native code] }:Atom:20" class="event" cx="103" cy="94" r="8" fill-opacity="0"/>\n\t<circle id="function random() { [native code] }:Atom:21" class="event" cx="103" cy="113" r="8" fill-opacity="0"/>\n\t<circle id="function random() { [native code] }:Atom:22" class="event" cx="86" cy="123" r="8" fill-opacity="0"/>\n\t<circle id="function random() { [native code] }:Atom:23" class="event" cx="119" cy="123" r="8" fill-opacity="0"/>\n\t<circle id="function random() { [native code] }:Atom:24" class="event" cx="119" cy="142" r="8" fill-opacity="0"/>\n\t<circle id="function random() { [native code] }:Atom:25" class="event" cx="136" cy="113" r="8" fill-opacity="0"/>\n\t<circle id="function random() { [native code] }:Atom:26" class="event" cx="136" cy="94" r="8" fill-opacity="0"/>\n\t<circle id="function random() { [native code] }:Atom:27" class="event" cx="136" cy="55" r="8" fill-opacity="0"/>\n\t<circle id="function random() { [native code] }:Atom:28" class="event" cx="154" cy="61" r="8" fill-opacity="0"/>\n\t<circle id="function random() { [native code] }:Atom:29" class="event" cx="166" cy="46" r="8" fill-opacity="0"/>\n</svg>