<svg id="function random() { [native code] }" xmlns="http://www.w3.org/2000/svg" version="1.1" width="200px" height="150px" viewBox="0 0 200 150">\n\t<style> #function random() { [native code] } {pointer-events:none; }  #function random() { [native code] } .event  { pointer-events:all;}  </style>\n\t<text x="162" y="25" font-family=" Helvetica" font-weight="900" font-size="10" fill="rgb(48,80,248)">N</text>\n\t<text x="176" y="28" font-family=" Helvetica" font-weight="900" font-size="7" fill="rgb(48,80,248)">2</text>\n\t<text x="169" y="25" font-family=" Helvetica" font-weight="900" font-size="10" fill="rgb(48,80,248)">H</text>\n\t<text x="119" y="33" font-family=" Helvetica" font-weight="900" font-size="10" fill="rgb(48,80,248)">N</text>\n\t<text x="119" y="43" font-family=" Helvetica" font-weight="900" font-size="10" fill="rgb(48,80,248)">H</text>\n\t<text x="105" y="9" font-family=" Helvetica" font-weight="900" font-size="10" fill="rgb(255,13,13)">O</text>\n\t<text x="48" y="54" font-family=" Helvetica" font-weight="900" font-size="10" fill="rgb(48,80,248)">N</text>\n\t<text x="48" y="64" font-family=" Helvetica" font-weight="900" font-size="10" fill="rgb(48,80,248)">H</text>\n\t<text x="77" y="122" font-family=" Helvetica" font-weight="900" font-size="10" fill="rgb(255,13,13)">O</text>\n\t<text x="50" y="122" font-family=" Helvetica" font-weight="900" font-size="10" fill="rgb(144,224,80)">F</text>\n\t<text x="64" y="146" font-family=" Helvetica" font-weight="900" font-size="10" fill="rgb(144,224,80)">F</text>\n\t<text x="91" y="49" font-family=" Helvetica" font-weight="900" font-size="10" fill="rgb(48,80,248)">N</text>\n\t<line x1="110" y1="23" x2="110" y2="11" style="stroke:rgb(0,0,0);stroke-width:1"/>\n\t<line x1="108" y1="23" x2="108" y2="11" style="stroke:rgb(0,0,0);stroke-width:1"/>\n\t<line x1="81" y1="22" x2="95" y2="30" style="stroke:rgb(0,0,0);stroke-width:1"/>\n\t<line x1="81" y1="25" x2="92" y2="31" style="stroke:rgb(0,0,0);stroke-width:1"/>\n\t<line x1="45" y1="10" x2="52" y2="25" style="stroke:rgb(0,0,0);stroke-width:1"/>\n\t<line x1="43" y1="13" x2="49" y2="24" style="stroke:rgb(0,0,0);stroke-width:1"/>\n\t<line x1="19" y1="22" x2="29" y2="9" style="stroke:rgb(0,0,0);stroke-width:1"/>\n\t<line x1="22" y1="22" x2="30" y2="11" style="stroke:rgb(0,0,0);stroke-width:1"/>\n\t<line x1="42" y1="38" x2="26" y2="36" style="stroke:rgb(0,0,0);stroke-width:1"/>\n\t<line x1="41" y1="35" x2="28" y2="34" style="stroke:rgb(0,0,0);stroke-width:1"/>\n\t<line x1="67" y1="46" x2="67" y2="30" style="stroke:rgb(0,0,0);stroke-width:1"/>\n\t<line x1="69" y1="44" x2="69" y2="32" style="stroke:rgb(0,0,0);stroke-width:1"/>\n\t<line x1="67" y1="79" x2="81" y2="70" style="stroke:rgb(0,0,0);stroke-width:1"/>\n\t<line x1="70" y1="80" x2="81" y2="73" style="stroke:rgb(0,0,0);stroke-width:1"/>\n\t<line x1="81" y1="103" x2="67" y2="95" style="stroke:rgb(0,0,0);stroke-width:1"/>\n\t<line x1="81" y1="100" x2="70" y2="93" style="stroke:rgb(0,0,0);stroke-width:1"/>\n\t<line x1="95" y1="79" x2="95" y2="95" style="stroke:rgb(0,0,0);stroke-width:1"/>\n\t<line x1="93" y1="80" x2="93" y2="93" style="stroke:rgb(0,0,0);stroke-width:1"/>\n\t<line x1="81" y1="54" x2="90" y2="49" style="stroke:rgb(0,0,0);stroke-width:1"/>\n\t<line x1="81" y1="51" x2="89" y2="47" style="stroke:rgb(0,0,0);stroke-width:1"/>\n\t<line x1="151" y1="30" x2="161" y2="25" style="stroke:rgb(0,0,0);stroke-width:1"/>\n\t<line x1="137" y1="22" x2="151" y2="30" style="stroke:rgb(0,0,0);stroke-width:1"/>\n\t<line x1="128" y1="27" x2="137" y2="22" style="stroke:rgb(0,0,0);stroke-width:1"/>\n\t<line x1="109" y1="22" x2="118" y2="27" style="stroke:rgb(0,0,0);stroke-width:1"/>\n\t<line x1="95" y1="30" x2="109" y2="22" style="stroke:rgb(0,0,0);stroke-width:1"/>\n\t<line x1="67" y1="30" x2="81" y2="22" style="stroke:rgb(0,0,0);stroke-width:1"/>\n\t<line x1="52" y1="25" x2="67" y2="30" style="stroke:rgb(0,0,0);stroke-width:1"/>\n\t<line x1="29" y1="9" x2="45" y2="10" style="stroke:rgb(0,0,0);stroke-width:1"/>\n\t<line x1="26" y1="36" x2="19" y2="22" style="stroke:rgb(0,0,0);stroke-width:1"/>\n\t<line x1="42" y1="38" x2="52" y2="25" style="stroke:rgb(0,0,0);stroke-width:1"/>\n\t<line x1="48" y1="46" x2="42" y2="38" style="stroke:rgb(0,0,0);stroke-width:1"/>\n\t<line x1="67" y1="46" x2="56" y2="50" style="stroke:rgb(0,0,0);stroke-width:1"/>\n\t<line x1="81" y1="54" x2="67" y2="46" style="stroke:rgb(0,0,0);stroke-width:1"/>\n\t<line x1="81" y1="70" x2="81" y2="54" style="stroke:rgb(0,0,0);stroke-width:1"/>\n\t<line x1="67" y1="95" x2="67" y2="79" style="stroke:rgb(0,0,0);stroke-width:1"/>\n\t<line x1="81" y1="114" x2="81" y2="103" style="stroke:rgb(0,0,0);stroke-width:1"/>\n\t<line x1="67" y1="127" x2="76" y2="122" style="stroke:rgb(0,0,0);stroke-width:1"/>\n\t<line x1="57" y1="121" x2="67" y2="127" style="stroke:rgb(0,0,0);stroke-width:1"/>\n\t<line x1="67" y1="138" x2="67" y2="127" style="stroke:rgb(0,0,0);stroke-width:1"/>\n\t<line x1="95" y1="95" x2="81" y2="103" style="stroke:rgb(0,0,0);stroke-width:1"/>\n\t<line x1="95" y1="79" x2="81" y2="70" style="stroke:rgb(0,0,0);stroke-width:1"/>\n\t<line x1="95" y1="41" x2="95" y2="30" style="stroke:rgb(0,0,0);stroke-width:1"/>\n\t<line id="function random() { [native code] }:Bond:5-4" class="event" x1="109" y1="6" x2="109" y2="22" stroke-width="8" stroke-opacity="0"/>\n\t<line id="function random() { [native code] }:Bond:7-6" class="event" x1="81" y1="22" x2="95" y2="30" stroke-width="8" stroke-opacity="0"/>\n\t<line id="function random() { [native code] }:Bond:10-9" class="event" x1="45" y1="10" x2="52" y2="25" stroke-width="8" stroke-opacity="0"/>\n\t<line id="function random() { [native code] }:Bond:12-11" class="event" x1="19" y1="22" x2="29" y2="9" stroke-width="8" stroke-opacity="0"/>\n\t<line id="function random() { [native code] }:Bond:14-13" class="event" x1="42" y1="38" x2="26" y2="36" stroke-width="8" stroke-opacity="0"/>\n\t<line id="function random() { [native code] }:Bond:16-8" class="event" x1="67" y1="46" x2="67" y2="30" stroke-width="8" stroke-opacity="0"/>\n\t<line id="function random() { [native code] }:Bond:19-18" class="event" x1="67" y1="79" x2="81" y2="70" stroke-width="8" stroke-opacity="0"/>\n\t<line id="function random() { [native code] }:Bond:21-20" class="event" x1="81" y1="103" x2="67" y2="95" stroke-width="8" stroke-opacity="0"/>\n\t<line id="function random() { [native code] }:Bond:27-26" class="event" x1="95" y1="79" x2="95" y2="95" stroke-width="8" stroke-opacity="0"/>\n\t<line id="function random() { [native code] }:Bond:28-17" class="event" x1="95" y1="46" x2="81" y2="54" stroke-width="8" stroke-opacity="0"/>\n\t<line id="function random() { [native code] }:Bond:1-0" class="event" x1="151" y1="30" x2="165" y2="22" stroke-width="8" stroke-opacity="0"/>\n\t<line id="function random() { [native code] }:Bond:2-1" class="event" x1="137" y1="22" x2="151" y2="30" stroke-width="8" stroke-opacity="0"/>\n\t<line id="function random() { [native code] }:Bond:3-2" class="event" x1="123" y1="30" x2="137" y2="22" stroke-width="8" stroke-opacity="0"/>\n\t<line id="function random() { [native code] }:Bond:4-3" class="event" x1="109" y1="22" x2="123" y2="30" stroke-width="8" stroke-opacity="0"/>\n\t<line id="function random() { [native code] }:Bond:6-4" class="event" x1="95" y1="30" x2="109" y2="22" stroke-width="8" stroke-opacity="0"/>\n\t<line id="function random() { [native code] }:Bond:8-7" class="event" x1="67" y1="30" x2="81" y2="22" stroke-width="8" stroke-opacity="0"/>\n\t<line id="function random() { [native code] }:Bond:9-8" class="event" x1="52" y1="25" x2="67" y2="30" stroke-width="8" stroke-opacity="0"/>\n\t<line id="function random() { [native code] }:Bond:11-10" class="event" x1="29" y1="9" x2="45" y2="10" stroke-width="8" stroke-opacity="0"/>\n\t<line id="function random() { [native code] }:Bond:13-12" class="event" x1="26" y1="36" x2="19" y2="22" stroke-width="8" stroke-opacity="0"/>\n\t<line id="function random() { [native code] }:Bond:14-9" class="event" x1="42" y1="38" x2="52" y2="25" stroke-width="8" stroke-opacity="0"/>\n\t<line id="function random() { [native code] }:Bond:15-14" class="event" x1="52" y1="51" x2="42" y2="38" stroke-width="8" stroke-opacity="0"/>\n\t<line id="function random() { [native code] }:Bond:16-15" class="event" x1="67" y1="46" x2="52" y2="51" stroke-width="8" stroke-opacity="0"/>\n\t<line id="function random() { [native code] }:Bond:17-16" class="event" x1="81" y1="54" x2="67" y2="46" stroke-width="8" stroke-opacity="0"/>\n\t<line id="function random() { [native code] }:Bond:18-17" class="event" x1="81" y1="70" x2="81" y2="54" stroke-width="8" stroke-opacity="0"/>\n\t<line id="function random() { [native code] }:Bond:20-19" class="event" x1="67" y1="95" x2="67" y2="79" stroke-width="8" stroke-opacity="0"/>\n\t<line id="function random() { [native code] }:Bond:22-21" class="event" x1="81" y1="119" x2="81" y2="103" stroke-width="8" stroke-opacity="0"/>\n\t<line id="function random() { [native code] }:Bond:23-22" class="event" x1="67" y1="127" x2="81" y2="119" stroke-width="8" stroke-opacity="0"/>\n\t<line id="function random() { [native code] }:Bond:24-23" class="event" x1="53" y1="119" x2="67" y2="127" stroke-width="8" stroke-opacity="0"/>\n\t<line id="function random() { [native code] }:Bond:25-23" class="event" x1="67" y1="143" x2="67" y2="127" stroke-width="8" stroke-opacity="0"/>\n\t<line id="function random() { [native code] }:Bond:26-21" class="event" x1="95" y1="95" x2="81" y2="103" stroke-width="8" stroke-opacity="0"/>\n\t<line id="function random() { [native code] }:Bond:27-18" class="event" x1="95" y1="79" x2="81" y2="70" stroke-width="8" stroke-opacity="0"/>\n\t<line id="function random() { [native code] }:Bond:28-6" class="event" x1="95" y1="46" x2="95" y2="30" stroke-width="8" stroke-opacity="0"/>\n\t<circle id="function random() { [native code] }:Atom:0" class="event" cx="165" cy="22" r="8" fill-opacity="0"/>\n\t<circle id="function random() { [native code] }:Atom:1" class="event" cx="151" cy="30" r="8" fill-opacity="0"/>\n\t<circle id="function random() { [native code] }:Atom:2" class="event" cx="137" cy="22" r="8" fill-opacity="0"/>\n\t<circle id="function random() { [native code] }:Atom:3" class="event" cx="123" cy="30" r="8" fill-opacity="0"/>\n\t<circle id="function random() { [native code] }:Atom:4" class="event" cx="109" cy="22" r="8" fill-opacity="0"/>\n\t<circle id="function random() { [native code] }:Atom:5" class="event" cx="109" cy="6" r="8" fill-opacity="0"/>\n\t<circle id="function random() { [native code] }:Atom:6" class="event" cx="95" cy="30" r="8" fill-opacity="0"/>\n\t<circle id="function random() { [native code] }:Atom:7" class="event" cx="81" cy="22" r="8" fill-opacity="0"/>\n\t<circle id="function random() { [native code] }:Atom:8" class="event" cx="67" cy="30" r="8" fill-opacity="0"/>\n\t<circle id="function random() { [native code] }:Atom:9" class="event" cx="52" cy="25" r="8" fill-opacity="0"/>\n\t<circle id="function random() { [native code] }:Atom:10" class="event" cx="45" cy="10" r="8" fill-opacity="0"/>\n\t<circle id="function random() { [native code] }:Atom:11" class="event" cx="29" cy="9" r="8" fill-opacity="0"/>\n\t<circle id="function random() { [native code] }:Atom:12" class="event" cx="19" cy="22" r="8" fill-opacity="0"/>\n\t<circle id="function random() { [native code] }:Atom:13" class="event" cx="26" cy="36" r="8" fill-opacity="0"/>\n\t<circle id="function random() { [native code] }:Atom:14" class="event" cx="42" cy="38" r="8" fill-opacity="0"/>\n\t<circle id="function random() { [native code] }:Atom:15" class="event" cx="52" cy="51" r="8" fill-opacity="0"/>\n\t<circle id="function random() { [native code] }:Atom:16" class="event" cx="67" cy="46" r="8" fill-opacity="0"/>\n\t<circle id="function random() { [native code] }:Atom:17" class="event" cx="81" cy="54" r="8" fill-opacity="0"/>\n\t<circle id="function random() { [native code] }:Atom:18" class="event" cx="81" cy="70" r="8" fill-opacity="0"/>\n\t<circle id="function random() { [native code] }:Atom:19" class="event" cx="67" cy="79" r="8" fill-opacity="0"/>\n\t<circle id="function random() { [native code] }:Atom:20" class="event" cx="67" cy="95" r="8" fill-opacity="0"/>\n\t<circle id="function random() { [native code] }:Atom:21" class="event" cx="81" cy="103" r="8" fill-opacity="0"/>\n\t<circle id="function random() { [native code] }:Atom:22" class="event" cx="81" cy="119" r="8" fill-opacity="0"/>\n\t<circle id="function random() { [native code] }:Atom:23" class="event" cx="67" cy="127" r="8" fill-opacity="0"/>\n\t<circle id="function random() { [native code] }:Atom:24" class="event" cx="53" cy="119" r="8" fill-opacity="0"/>\n\t<circle id="function random() { [native code] }:Atom:25" class="event" cx="67" cy="143" r="8" fill-opacity="0"/>\n\t<circle id="function random() { [native code] }:Atom:26" class="event" cx="95" cy="95" r="8" fill-opacity="0"/>\n\t<circle id="function random() { [native code] }:Atom:27" class="event" cx="95" cy="79" r="8" fill-opacity="0"/>\n\t<circle id="function random() { [native code] }:Atom:28" class="event" cx="95" cy="46" r="8" fill-opacity="0"/>\n</svg>