<svg id="function random() { [native code] }" xmlns="http://www.w3.org/2000/svg" version="1.1" width="200px" height="150px" viewBox="0 0 200 150">\n\t<style> #function random() { [native code] } {pointer-events:none; }  #function random() { [native code] } .event  { pointer-events:all;}  </style>\n\t<text x="147" y="130" font-family=" Helvetica" font-weight="900" font-size="12" fill="rgb(255,13,13)">O</text>\n\t<text x="113" y="130" font-family=" Helvetica" font-weight="900" font-size="12" fill="rgb(48,80,248)">N</text>\n\t<text x="113" y="142" font-family=" Helvetica" font-weight="900" font-size="12" fill="rgb(48,80,248)">H</text>\n\t<text x="62" y="120" font-family=" Helvetica" font-weight="900" font-size="12" fill="rgb(48,80,248)">N</text>\n\t<text x="62" y="108" font-family=" Helvetica" font-weight="900" font-size="12" fill="rgb(48,80,248)">H</text>\n\t<text x="11" y="130" font-family=" Helvetica" font-weight="900" font-size="12" fill="rgb(255,13,13)">O</text>\n\t<text x="2" y="130" font-family=" Helvetica" font-weight="900" font-size="12" fill="rgb(255,13,13)">H</text>\n\t<text x="135" y="42" font-family=" Helvetica" font-weight="900" font-size="12" fill="rgb(48,80,248)">N</text>\n\t<text x="126" y="42" font-family=" Helvetica" font-weight="900" font-size="12" fill="rgb(48,80,248)">H</text>\n\t<text x="36" y="49" font-family=" Helvetica" font-weight="900" font-size="12" fill="rgb(144,224,80)">F</text>\n\t<text x="29" y="22" font-family=" Helvetica" font-weight="900" font-size="12" fill="rgb(144,224,80)">F</text>\n\t<text x="56" y="15" font-family=" Helvetica" font-weight="900" font-size="12" fill="rgb(144,224,80)">F</text>\n\t<text x="113" y="91" font-family=" Helvetica" font-weight="900" font-size="12" fill="rgb(48,80,248)">N</text>\n\t<line x1="133" y1="117" x2="145" y2="124" style="stroke:rgb(0,0,0);stroke-width:1"/>\n\t<line x1="135" y1="115" x2="147" y2="122" style="stroke:rgb(0,0,0);stroke-width:1"/>\n\t<line x1="152" y1="87" x2="135" y2="97" style="stroke:rgb(0,0,0);stroke-width:1"/>\n\t<line x1="149" y1="85" x2="135" y2="93" style="stroke:rgb(0,0,0);stroke-width:1"/>\n\t<line x1="186" y1="56" x2="166" y2="54" style="stroke:rgb(0,0,0);stroke-width:1"/>\n\t<line x1="184" y1="53" x2="169" y2="51" style="stroke:rgb(0,0,0);stroke-width:1"/>\n\t<line x1="190" y1="22" x2="198" y2="40" style="stroke:rgb(0,0,0);stroke-width:1"/>\n\t<line x1="188" y1="25" x2="194" y2="40" style="stroke:rgb(0,0,0);stroke-width:1"/>\n\t<line x1="158" y1="36" x2="170" y2="20" style="stroke:rgb(0,0,0);stroke-width:1"/>\n\t<line x1="162" y1="36" x2="171" y2="24" style="stroke:rgb(0,0,0);stroke-width:1"/>\n\t<line x1="135" y1="57" x2="152" y2="67" style="stroke:rgb(0,0,0);stroke-width:1"/>\n\t<line x1="135" y1="61" x2="149" y2="69" style="stroke:rgb(0,0,0);stroke-width:1"/>\n\t<line x1="101" y1="38" x2="101" y2="57" style="stroke:rgb(0,0,0);stroke-width:1"/>\n\t<line x1="98" y1="40" x2="98" y2="55" style="stroke:rgb(0,0,0);stroke-width:1"/>\n\t<line x1="67" y1="38" x2="84" y2="28" style="stroke:rgb(0,0,0);stroke-width:1"/>\n\t<line x1="70" y1="39" x2="83" y2="32" style="stroke:rgb(0,0,0);stroke-width:1"/>\n\t<line x1="84" y1="67" x2="67" y2="57" style="stroke:rgb(0,0,0);stroke-width:1"/>\n\t<line x1="83" y1="64" x2="70" y2="56" style="stroke:rgb(0,0,0);stroke-width:1"/>\n\t<line x1="118" y1="67" x2="118" y2="81" style="stroke:rgb(0,0,0);stroke-width:1"/>\n\t<line x1="121" y1="69" x2="121" y2="81" style="stroke:rgb(0,0,0);stroke-width:1"/>\n\t<line x1="123" y1="123" x2="135" y2="116" style="stroke:rgb(0,0,0);stroke-width:1"/>\n\t<line x1="101" y1="116" x2="112" y2="123" style="stroke:rgb(0,0,0);stroke-width:1"/>\n\t<line x1="84" y1="126" x2="101" y2="116" style="stroke:rgb(0,0,0);stroke-width:1"/>\n\t<line x1="72" y1="120" x2="84" y2="126" style="stroke:rgb(0,0,0);stroke-width:1"/>\n\t<line x1="50" y1="126" x2="61" y2="120" style="stroke:rgb(0,0,0);stroke-width:1"/>\n\t<line x1="33" y1="116" x2="50" y2="126" style="stroke:rgb(0,0,0);stroke-width:1"/>\n\t<line x1="21" y1="123" x2="33" y2="116" style="stroke:rgb(0,0,0);stroke-width:1"/>\n\t<line x1="135" y1="97" x2="135" y2="116" style="stroke:rgb(0,0,0);stroke-width:1"/>\n\t<line x1="152" y1="67" x2="152" y2="87" style="stroke:rgb(0,0,0);stroke-width:1"/>\n\t<line x1="166" y1="54" x2="152" y2="67" style="stroke:rgb(0,0,0);stroke-width:1"/>\n\t<line x1="198" y1="40" x2="186" y2="56" style="stroke:rgb(0,0,0);stroke-width:1"/>\n\t<line x1="170" y1="20" x2="190" y2="22" style="stroke:rgb(0,0,0);stroke-width:1"/>\n\t<line x1="158" y1="36" x2="166" y2="54" style="stroke:rgb(0,0,0);stroke-width:1"/>\n\t<line x1="144" y1="38" x2="158" y2="36" style="stroke:rgb(0,0,0);stroke-width:1"/>\n\t<line x1="135" y1="57" x2="138" y2="44" style="stroke:rgb(0,0,0);stroke-width:1"/>\n\t<line x1="118" y1="67" x2="135" y2="57" style="stroke:rgb(0,0,0);stroke-width:1"/>\n\t<line x1="101" y1="57" x2="118" y2="67" style="stroke:rgb(0,0,0);stroke-width:1"/>\n\t<line x1="84" y1="28" x2="101" y2="38" style="stroke:rgb(0,0,0);stroke-width:1"/>\n\t<line x1="50" y1="28" x2="67" y2="38" style="stroke:rgb(0,0,0);stroke-width:1"/>\n\t<line x1="43" y1="39" x2="50" y2="28" style="stroke:rgb(0,0,0);stroke-width:1"/>\n\t<line x1="37" y1="21" x2="50" y2="28" style="stroke:rgb(0,0,0);stroke-width:1"/>\n\t<line x1="56" y1="17" x2="50" y2="28" style="stroke:rgb(0,0,0);stroke-width:1"/>\n\t<line x1="67" y1="57" x2="67" y2="38" style="stroke:rgb(0,0,0);stroke-width:1"/>\n\t<line x1="84" y1="67" x2="101" y2="57" style="stroke:rgb(0,0,0);stroke-width:1"/>\n\t<line x1="123" y1="90" x2="135" y2="97" style="stroke:rgb(0,0,0);stroke-width:1"/>\n\t<line id="function random() { [native code] }:Bond:1-0" class="event" x1="135" y1="116" x2="152" y2="126" stroke-width="8" stroke-opacity="0"/>\n\t<line id="function random() { [native code] }:Bond:10-9" class="event" x1="152" y1="87" x2="135" y2="97" stroke-width="8" stroke-opacity="0"/>\n\t<line id="function random() { [native code] }:Bond:13-12" class="event" x1="186" y1="56" x2="166" y2="54" stroke-width="8" stroke-opacity="0"/>\n\t<line id="function random() { [native code] }:Bond:15-14" class="event" x1="190" y1="22" x2="198" y2="40" stroke-width="8" stroke-opacity="0"/>\n\t<line id="function random() { [native code] }:Bond:17-16" class="event" x1="158" y1="36" x2="170" y2="20" stroke-width="8" stroke-opacity="0"/>\n\t<line id="function random() { [native code] }:Bond:19-11" class="event" x1="135" y1="57" x2="152" y2="67" stroke-width="8" stroke-opacity="0"/>\n\t<line id="function random() { [native code] }:Bond:22-21" class="event" x1="101" y1="38" x2="101" y2="57" stroke-width="8" stroke-opacity="0"/>\n\t<line id="function random() { [native code] }:Bond:24-23" class="event" x1="67" y1="38" x2="84" y2="28" stroke-width="8" stroke-opacity="0"/>\n\t<line id="function random() { [native code] }:Bond:30-29" class="event" x1="84" y1="67" x2="67" y2="57" stroke-width="8" stroke-opacity="0"/>\n\t<line id="function random() { [native code] }:Bond:31-20" class="event" x1="118" y1="87" x2="118" y2="67" stroke-width="8" stroke-opacity="0"/>\n\t<line id="function random() { [native code] }:Bond:2-1" class="event" x1="118" y1="126" x2="135" y2="116" stroke-width="8" stroke-opacity="0"/>\n\t<line id="function random() { [native code] }:Bond:3-2" class="event" x1="101" y1="116" x2="118" y2="126" stroke-width="8" stroke-opacity="0"/>\n\t<line id="function random() { [native code] }:Bond:4-3" class="event" x1="84" y1="126" x2="101" y2="116" stroke-width="8" stroke-opacity="0"/>\n\t<line id="function random() { [native code] }:Bond:5-4" class="event" x1="67" y1="116" x2="84" y2="126" stroke-width="8" stroke-opacity="0"/>\n\t<line id="function random() { [native code] }:Bond:6-5" class="event" x1="50" y1="126" x2="67" y2="116" stroke-width="8" stroke-opacity="0"/>\n\t<line id="function random() { [native code] }:Bond:7-6" class="event" x1="33" y1="116" x2="50" y2="126" stroke-width="8" stroke-opacity="0"/>\n\t<line id="function random() { [native code] }:Bond:8-7" class="event" x1="16" y1="126" x2="33" y2="116" stroke-width="8" stroke-opacity="0"/>\n\t<line id="function random() { [native code] }:Bond:9-1" class="event" x1="135" y1="97" x2="135" y2="116" stroke-width="8" stroke-opacity="0"/>\n\t<line id="function random() { [native code] }:Bond:11-10" class="event" x1="152" y1="67" x2="152" y2="87" stroke-width="8" stroke-opacity="0"/>\n\t<line id="function random() { [native code] }:Bond:12-11" class="event" x1="166" y1="54" x2="152" y2="67" stroke-width="8" stroke-opacity="0"/>\n\t<line id="function random() { [native code] }:Bond:14-13" class="event" x1="198" y1="40" x2="186" y2="56" stroke-width="8" stroke-opacity="0"/>\n\t<line id="function random() { [native code] }:Bond:16-15" class="event" x1="170" y1="20" x2="190" y2="22" stroke-width="8" stroke-opacity="0"/>\n\t<line id="function random() { [native code] }:Bond:17-12" class="event" x1="158" y1="36" x2="166" y2="54" stroke-width="8" stroke-opacity="0"/>\n\t<line id="function random() { [native code] }:Bond:18-17" class="event" x1="139" y1="38" x2="158" y2="36" stroke-width="8" stroke-opacity="0"/>\n\t<line id="function random() { [native code] }:Bond:19-18" class="event" x1="135" y1="57" x2="139" y2="38" stroke-width="8" stroke-opacity="0"/>\n\t<line id="function random() { [native code] }:Bond:20-19" class="event" x1="118" y1="67" x2="135" y2="57" stroke-width="8" stroke-opacity="0"/>\n\t<line id="function random() { [native code] }:Bond:21-20" class="event" x1="101" y1="57" x2="118" y2="67" stroke-width="8" stroke-opacity="0"/>\n\t<line id="function random() { [native code] }:Bond:23-22" class="event" x1="84" y1="28" x2="101" y2="38" stroke-width="8" stroke-opacity="0"/>\n\t<line id="function random() { [native code] }:Bond:25-24" class="event" x1="50" y1="28" x2="67" y2="38" stroke-width="8" stroke-opacity="0"/>\n\t<line id="function random() { [native code] }:Bond:26-25" class="event" x1="40" y1="45" x2="50" y2="28" stroke-width="8" stroke-opacity="0"/>\n\t<line id="function random() { [native code] }:Bond:27-25" class="event" x1="33" y1="18" x2="50" y2="28" stroke-width="8" stroke-opacity="0"/>\n\t<line id="function random() { [native code] }:Bond:28-25" class="event" x1="59" y1="11" x2="50" y2="28" stroke-width="8" stroke-opacity="0"/>\n\t<line id="function random() { [native code] }:Bond:29-24" class="event" x1="67" y1="57" x2="67" y2="38" stroke-width="8" stroke-opacity="0"/>\n\t<line id="function random() { [native code] }:Bond:30-21" class="event" x1="84" y1="67" x2="101" y2="57" stroke-width="8" stroke-opacity="0"/>\n\t<line id="function random() { [native code] }:Bond:31-9" class="event" x1="118" y1="87" x2="135" y2="97" stroke-width="8" stroke-opacity="0"/>\n\t<circle id="function random() { [native code] }:Atom:0" class="event" cx="152" cy="126" r="8" fill-opacity="0"/>\n\t<circle id="function random() { [native code] }:Atom:1" class="event" cx="135" cy="116" r="8" fill-opacity="0"/>\n\t<circle id="function random() { [native code] }:Atom:2" class="event" cx="118" cy="126" r="8" fill-opacity="0"/>\n\t<circle id="function random() { [native code] }:Atom:3" class="event" cx="101" cy="116" r="8" fill-opacity="0"/>\n\t<circle id="function random() { [native code] }:Atom:4" class="event" cx="84" cy="126" r="8" fill-opacity="0"/>\n\t<circle id="function random() { [native code] }:Atom:5" class="event" cx="67" cy="116" r="8" fill-opacity="0"/>\n\t<circle id="function random() { [native code] }:Atom:6" class="event" cx="50" cy="126" r="8" fill-opacity="0"/>\n\t<circle id="function random() { [native code] }:Atom:7" class="event" cx="33" cy="116" r="8" fill-opacity="0"/>\n\t<circle id="function random() { [native code] }:Atom:8" class="event" cx="16" cy="126" r="8" fill-opacity="0"/>\n\t<circle id="function random() { [native code] }:Atom:9" class="event" cx="135" cy="97" r="8" fill-opacity="0"/>\n\t<circle id="function random() { [native code] }:Atom:10" class="event" cx="152" cy="87" r="8" fill-opacity="0"/>\n\t<circle id="function random() { [native code] }:Atom:11" class="event" cx="152" cy="67" r="8" fill-opacity="0"/>\n\t<circle id="function random() { [native code] }:Atom:12" class="event" cx="166" cy="54" r="8" fill-opacity="0"/>\n\t<circle id="function random() { [native code] }:Atom:13" class="event" cx="186" cy="56" r="8" fill-opacity="0"/>\n\t<circle id="function random() { [native code] }:Atom:14" class="event" cx="198" cy="40" r="8" fill-opacity="0"/>\n\t<circle id="function random() { [native code] }:Atom:15" class="event" cx="190" cy="22" r="8" fill-opacity="0"/>\n\t<circle id="function random() { [native code] }:Atom:16" class="event" cx="170" cy="20" r="8" fill-opacity="0"/>\n\t<circle id="function random() { [native code] }:Atom:17" class="event" cx="158" cy="36" r="8" fill-opacity="0"/>\n\t<circle id="function random() { [native code] }:Atom:18" class="event" cx="139" cy="38" r="8" fill-opacity="0"/>\n\t<circle id="function random() { [native code] }:Atom:19" class="event" cx="135" cy="57" r="8" fill-opacity="0"/>\n\t<circle id="function random() { [native code] }:Atom:20" class="event" cx="118" cy="67" r="8" fill-opacity="0"/>\n\t<circle id="function random() { [native code] }:Atom:21" class="event" cx="101" cy="57" r="8" fill-opacity="0"/>\n\t<circle id="function random() { [native code] }:Atom:22" class="event" cx="101" cy="38" r="8" fill-opacity="0"/>\n\t<circle id="function random() { [native code] }:Atom:23" class="event" cx="84" cy="28" r="8" fill-opacity="0"/>\n\t<circle id="function random() { [native code] }:Atom:24" class="event" cx="67" cy="38" r="8" fill-opacity="0"/>\n\t<circle id="function random() { [native code] }:Atom:25" class="event" cx="50" cy="28" r="8" fill-opacity="0"/>\n\t<circle id="function random() { [native code] }:Atom:26" class="event" cx="40" cy="45" r="8" fill-opacity="0"/>\n\t<circle id="function random() { [native code] }:Atom:27" class="event" cx="33" cy="18" r="8" fill-opacity="0"/>\n\t<circle id="function random() { [native code] }:Atom:28" class="event" cx="59" cy="11" r="8" fill-opacity="0"/>\n\t<circle id="function random() { [native code] }:Atom:29" class="event" cx="67" cy="57" r="8" fill-opacity="0"/>\n\t<circle id="function random() { [native code] }:Atom:30" class="event" cx="84" cy="67" r="8" fill-opacity="0"/>\n\t<circle id="function random() { [native code] }:Atom:31" class="event" cx="118" cy="87" r="8" fill-opacity="0"/>\n</svg>