<svg id="function random() { [native code] }" xmlns="http://www.w3.org/2000/svg" version="1.1" width="200px" height="150px" viewBox="0 0 200 150">\n\t<style> #function random() { [native code] } {pointer-events:none; }  #function random() { [native code] } .event  { pointer-events:all;}  </style>\n\t<text x="175" y="39" font-family=" Helvetica" font-weight="900" font-size="12" fill="rgb(48,80,248)">N</text>\n\t<text x="193" y="41" font-family=" Helvetica" font-weight="900" font-size="8" fill="rgb(48,80,248)">2</text>\n\t<text x="184" y="39" font-family=" Helvetica" font-weight="900" font-size="12" fill="rgb(48,80,248)">H</text>\n\t<text x="124" y="49" font-family=" Helvetica" font-weight="900" font-size="12" fill="rgb(48,80,248)">N</text>\n\t<text x="124" y="61" font-family=" Helvetica" font-weight="900" font-size="12" fill="rgb(48,80,248)">H</text>\n\t<text x="106" y="19" font-family=" Helvetica" font-weight="900" font-size="12" fill="rgb(255,13,13)">O</text>\n\t<text x="37" y="75" font-family=" Helvetica" font-weight="900" font-size="12" fill="rgb(48,80,248)">N</text>\n\t<text x="37" y="87" font-family=" Helvetica" font-weight="900" font-size="12" fill="rgb(48,80,248)">H</text>\n\t<text x="37" y="138" font-family=" Helvetica" font-weight="900" font-size="12" fill="rgb(166,41,41)">Br</text>\n\t<text x="107" y="138" font-family=" Helvetica" font-weight="900" font-size="12" fill="rgb(144,224,80)">F</text>\n\t<text x="90" y="69" font-family=" Helvetica" font-weight="900" font-size="12" fill="rgb(48,80,248)">N</text>\n\t<line x1="113" y1="36" x2="113" y2="21" style="stroke:rgb(0,0,0);stroke-width:1"/>\n\t<line x1="110" y1="36" x2="110" y2="21" style="stroke:rgb(0,0,0);stroke-width:1"/>\n\t<line x1="77" y1="35" x2="94" y2="45" style="stroke:rgb(0,0,0);stroke-width:1"/>\n\t<line x1="77" y1="39" x2="91" y2="46" style="stroke:rgb(0,0,0);stroke-width:1"/>\n\t<line x1="33" y1="21" x2="41" y2="39" style="stroke:rgb(0,0,0);stroke-width:1"/>\n\t<line x1="31" y1="24" x2="37" y2="38" style="stroke:rgb(0,0,0);stroke-width:1"/>\n\t<line x1="1" y1="35" x2="13" y2="19" style="stroke:rgb(0,0,0);stroke-width:1"/>\n\t<line x1="5" y1="35" x2="14" y2="22" style="stroke:rgb(0,0,0);stroke-width:1"/>\n\t<line x1="29" y1="55" x2="10" y2="53" style="stroke:rgb(0,0,0);stroke-width:1"/>\n\t<line x1="27" y1="52" x2="12" y2="50" style="stroke:rgb(0,0,0);stroke-width:1"/>\n\t<line x1="60" y1="65" x2="60" y2="45" style="stroke:rgb(0,0,0);stroke-width:1"/>\n\t<line x1="63" y1="62" x2="63" y2="47" style="stroke:rgb(0,0,0);stroke-width:1"/>\n\t<line x1="60" y1="104" x2="77" y2="94" style="stroke:rgb(0,0,0);stroke-width:1"/>\n\t<line x1="63" y1="106" x2="76" y2="98" style="stroke:rgb(0,0,0);stroke-width:1"/>\n\t<line x1="77" y1="134" x2="60" y2="124" style="stroke:rgb(0,0,0);stroke-width:1"/>\n\t<line x1="76" y1="130" x2="63" y2="122" style="stroke:rgb(0,0,0);stroke-width:1"/>\n\t<line x1="94" y1="104" x2="94" y2="124" style="stroke:rgb(0,0,0);stroke-width:1"/>\n\t<line x1="91" y1="106" x2="91" y2="122" style="stroke:rgb(0,0,0);stroke-width:1"/>\n\t<line x1="77" y1="74" x2="89" y2="68" style="stroke:rgb(0,0,0);stroke-width:1"/>\n\t<line x1="77" y1="71" x2="87" y2="65" style="stroke:rgb(0,0,0);stroke-width:1"/>\n\t<line x1="162" y1="45" x2="174" y2="38" style="stroke:rgb(0,0,0);stroke-width:1"/>\n\t<line x1="145" y1="35" x2="162" y2="45" style="stroke:rgb(0,0,0);stroke-width:1"/>\n\t<line x1="134" y1="42" x2="145" y2="35" style="stroke:rgb(0,0,0);stroke-width:1"/>\n\t<line x1="111" y1="35" x2="123" y2="42" style="stroke:rgb(0,0,0);stroke-width:1"/>\n\t<line x1="94" y1="45" x2="111" y2="35" style="stroke:rgb(0,0,0);stroke-width:1"/>\n\t<line x1="60" y1="45" x2="77" y2="35" style="stroke:rgb(0,0,0);stroke-width:1"/>\n\t<line x1="41" y1="39" x2="60" y2="45" style="stroke:rgb(0,0,0);stroke-width:1"/>\n\t<line x1="13" y1="19" x2="33" y2="21" style="stroke:rgb(0,0,0);stroke-width:1"/>\n\t<line x1="10" y1="53" x2="1" y2="35" style="stroke:rgb(0,0,0);stroke-width:1"/>\n\t<line x1="29" y1="55" x2="41" y2="39" style="stroke:rgb(0,0,0);stroke-width:1"/>\n\t<line x1="36" y1="65" x2="29" y2="55" style="stroke:rgb(0,0,0);stroke-width:1"/>\n\t<line x1="60" y1="65" x2="46" y2="69" style="stroke:rgb(0,0,0);stroke-width:1"/>\n\t<line x1="77" y1="74" x2="60" y2="65" style="stroke:rgb(0,0,0);stroke-width:1"/>\n\t<line x1="77" y1="94" x2="77" y2="74" style="stroke:rgb(0,0,0);stroke-width:1"/>\n\t<line x1="60" y1="124" x2="60" y2="104" style="stroke:rgb(0,0,0);stroke-width:1"/>\n\t<line x1="50" y1="130" x2="60" y2="124" style="stroke:rgb(0,0,0);stroke-width:1"/>\n\t<line x1="94" y1="124" x2="77" y2="134" style="stroke:rgb(0,0,0);stroke-width:1"/>\n\t<line x1="106" y1="131" x2="94" y2="124" style="stroke:rgb(0,0,0);stroke-width:1"/>\n\t<line x1="94" y1="104" x2="77" y2="94" style="stroke:rgb(0,0,0);stroke-width:1"/>\n\t<line x1="94" y1="59" x2="94" y2="45" style="stroke:rgb(0,0,0);stroke-width:1"/>\n\t<line id="function random() { [native code] }:Bond:5-4" class="event" x1="111" y1="15" x2="111" y2="35" stroke-width="8" stroke-opacity="0"/>\n\t<line id="function random() { [native code] }:Bond:7-6" class="event" x1="77" y1="35" x2="94" y2="45" stroke-width="8" stroke-opacity="0"/>\n\t<line id="function random() { [native code] }:Bond:10-9" class="event" x1="33" y1="21" x2="41" y2="39" stroke-width="8" stroke-opacity="0"/>\n\t<line id="function random() { [native code] }:Bond:12-11" class="event" x1="1" y1="35" x2="13" y2="19" stroke-width="8" stroke-opacity="0"/>\n\t<line id="function random() { [native code] }:Bond:14-13" class="event" x1="29" y1="55" x2="10" y2="53" stroke-width="8" stroke-opacity="0"/>\n\t<line id="function random() { [native code] }:Bond:16-8" class="event" x1="60" y1="65" x2="60" y2="45" stroke-width="8" stroke-opacity="0"/>\n\t<line id="function random() { [native code] }:Bond:19-18" class="event" x1="60" y1="104" x2="77" y2="94" stroke-width="8" stroke-opacity="0"/>\n\t<line id="function random() { [native code] }:Bond:22-20" class="event" x1="77" y1="134" x2="60" y2="124" stroke-width="8" stroke-opacity="0"/>\n\t<line id="function random() { [native code] }:Bond:25-23" class="event" x1="94" y1="104" x2="94" y2="124" stroke-width="8" stroke-opacity="0"/>\n\t<line id="function random() { [native code] }:Bond:26-17" class="event" x1="94" y1="65" x2="77" y2="74" stroke-width="8" stroke-opacity="0"/>\n\t<line id="function random() { [native code] }:Bond:1-0" class="event" x1="162" y1="45" x2="180" y2="35" stroke-width="8" stroke-opacity="0"/>\n\t<line id="function random() { [native code] }:Bond:2-1" class="event" x1="145" y1="35" x2="162" y2="45" stroke-width="8" stroke-opacity="0"/>\n\t<line id="function random() { [native code] }:Bond:3-2" class="event" x1="128" y1="45" x2="145" y2="35" stroke-width="8" stroke-opacity="0"/>\n\t<line id="function random() { [native code] }:Bond:4-3" class="event" x1="111" y1="35" x2="128" y2="45" stroke-width="8" stroke-opacity="0"/>\n\t<line id="function random() { [native code] }:Bond:6-4" class="event" x1="94" y1="45" x2="111" y2="35" stroke-width="8" stroke-opacity="0"/>\n\t<line id="function random() { [native code] }:Bond:8-7" class="event" x1="60" y1="45" x2="77" y2="35" stroke-width="8" stroke-opacity="0"/>\n\t<line id="function random() { [native code] }:Bond:9-8" class="event" x1="41" y1="39" x2="60" y2="45" stroke-width="8" stroke-opacity="0"/>\n\t<line id="function random() { [native code] }:Bond:11-10" class="event" x1="13" y1="19" x2="33" y2="21" stroke-width="8" stroke-opacity="0"/>\n\t<line id="function random() { [native code] }:Bond:13-12" class="event" x1="10" y1="53" x2="1" y2="35" stroke-width="8" stroke-opacity="0"/>\n\t<line id="function random() { [native code] }:Bond:14-9" class="event" x1="29" y1="55" x2="41" y2="39" stroke-width="8" stroke-opacity="0"/>\n\t<line id="function random() { [native code] }:Bond:15-14" class="event" x1="41" y1="71" x2="29" y2="55" stroke-width="8" stroke-opacity="0"/>\n\t<line id="function random() { [native code] }:Bond:16-15" class="event" x1="60" y1="65" x2="41" y2="71" stroke-width="8" stroke-opacity="0"/>\n\t<line id="function random() { [native code] }:Bond:17-16" class="event" x1="77" y1="74" x2="60" y2="65" stroke-width="8" stroke-opacity="0"/>\n\t<line id="function random() { [native code] }:Bond:18-17" class="event" x1="77" y1="94" x2="77" y2="74" stroke-width="8" stroke-opacity="0"/>\n\t<line id="function random() { [native code] }:Bond:20-19" class="event" x1="60" y1="124" x2="60" y2="104" stroke-width="8" stroke-opacity="0"/>\n\t<line id="function random() { [native code] }:Bond:21-20" class="event" x1="43" y1="134" x2="60" y2="124" stroke-width="8" stroke-opacity="0"/>\n\t<line id="function random() { [native code] }:Bond:23-22" class="event" x1="94" y1="124" x2="77" y2="134" stroke-width="8" stroke-opacity="0"/>\n\t<line id="function random() { [native code] }:Bond:24-23" class="event" x1="111" y1="134" x2="94" y2="124" stroke-width="8" stroke-opacity="0"/>\n\t<line id="function random() { [native code] }:Bond:25-18" class="event" x1="94" y1="104" x2="77" y2="94" stroke-width="8" stroke-opacity="0"/>\n\t<line id="function random() { [native code] }:Bond:26-6" class="event" x1="94" y1="65" x2="94" y2="45" stroke-width="8" stroke-opacity="0"/>\n\t<circle id="function random() { [native code] }:Atom:0" class="event" cx="180" cy="35" r="8" fill-opacity="0"/>\n\t<circle id="function random() { [native code] }:Atom:1" class="event" cx="162" cy="45" r="8" fill-opacity="0"/>\n\t<circle id="function random() { [native code] }:Atom:2" class="event" cx="145" cy="35" r="8" fill-opacity="0"/>\n\t<circle id="function random() { [native code] }:Atom:3" class="event" cx="128" cy="45" r="8" fill-opacity="0"/>\n\t<circle id="function random() { [native code] }:Atom:4" class="event" cx="111" cy="35" r="8" fill-opacity="0"/>\n\t<circle id="function random() { [native code] }:Atom:5" class="event" cx="111" cy="15" r="8" fill-opacity="0"/>\n\t<circle id="function random() { [native code] }:Atom:6" class="event" cx="94" cy="45" r="8" fill-opacity="0"/>\n\t<circle id="function random() { [native code] }:Atom:7" class="event" cx="77" cy="35" r="8" fill-opacity="0"/>\n\t<circle id="function random() { [native code] }:Atom:8" class="event" cx="60" cy="45" r="8" fill-opacity="0"/>\n\t<circle id="function random() { [native code] }:Atom:9" class="event" cx="41" cy="39" r="8" fill-opacity="0"/>\n\t<circle id="function random() { [native code] }:Atom:10" class="event" cx="33" cy="21" r="8" fill-opacity="0"/>\n\t<circle id="function random() { [native code] }:Atom:11" class="event" cx="13" cy="19" r="8" fill-opacity="0"/>\n\t<circle id="function random() { [native code] }:Atom:12" class="event" cx="1" cy="35" r="8" fill-opacity="0"/>\n\t<circle id="function random() { [native code] }:Atom:13" class="event" cx="10" cy="53" r="8" fill-opacity="0"/>\n\t<circle id="function random() { [native code] }:Atom:14" class="event" cx="29" cy="55" r="8" fill-opacity="0"/>\n\t<circle id="function random() { [native code] }:Atom:15" class="event" cx="41" cy="71" r="8" fill-opacity="0"/>\n\t<circle id="function random() { [native code] }:Atom:16" class="event" cx="60" cy="65" r="8" fill-opacity="0"/>\n\t<circle id="function random() { [native code] }:Atom:17" class="event" cx="77" cy="74" r="8" fill-opacity="0"/>\n\t<circle id="function random() { [native code] }:Atom:18" class="event" cx="77" cy="94" r="8" fill-opacity="0"/>\n\t<circle id="function random() { [native code] }:Atom:19" class="event" cx="60" cy="104" r="8" fill-opacity="0"/>\n\t<circle id="function random() { [native code] }:Atom:20" class="event" cx="60" cy="124" r="8" fill-opacity="0"/>\n\t<circle id="function random() { [native code] }:Atom:21" class="event" cx="43" cy="134" r="8" fill-opacity="0"/>\n\t<circle id="function random() { [native code] }:Atom:22" class="event" cx="77" cy="134" r="8" fill-opacity="0"/>\n\t<circle id="function random() { [native code] }:Atom:23" class="event" cx="94" cy="124" r="8" fill-opacity="0"/>\n\t<circle id="function random() { [native code] }:Atom:24" class="event" cx="111" cy="134" r="8" fill-opacity="0"/>\n\t<circle id="function random() { [native code] }:Atom:25" class="event" cx="94" cy="104" r="8" fill-opacity="0"/>\n\t<circle id="function random() { [native code] }:Atom:26" class="event" cx="94" cy="65" r="8" fill-opacity="0"/>\n</svg>