<svg id="function random() { [native code] }" xmlns="http://www.w3.org/2000/svg" version="1.1" width="200px" height="150px" viewBox="0 0 200 150">\n\t<style> #function random() { [native code] } {pointer-events:none; }  #function random() { [native code] } .event  { pointer-events:all;}  </style>\n\t<text x="84" y="112" font-family=" Helvetica" font-weight="900" font-size="10" fill="rgb(255,13,13)">O</text>\n\t<text x="69" y="86" font-family=" Helvetica" font-weight="900" font-size="10" fill="rgb(48,80,248)">N</text>\n\t<text x="69" y="76" font-family=" Helvetica" font-weight="900" font-size="10" fill="rgb(48,80,248)">H</text>\n\t<text x="25" y="95" font-family=" Helvetica" font-weight="900" font-size="10" fill="rgb(48,80,248)">N</text>\n\t<text x="114" y="95" font-family=" Helvetica" font-weight="900" font-size="10" fill="rgb(48,80,248)">N</text>\n\t<text x="157" y="138" font-family=" Helvetica" font-weight="900" font-size="10" fill="rgb(31,240,31)">Cl</text>\n\t<text x="187" y="121" font-family=" Helvetica" font-weight="900" font-size="10" fill="rgb(31,240,31)">Cl</text>\n\t<text x="142" y="58" font-family=" Helvetica" font-weight="900" font-size="10" fill="rgb(48,80,248)">N</text>\n\t<text x="149" y="58" font-family=" Helvetica" font-weight="900" font-size="10" fill="rgb(48,80,248)">H</text>\n\t<line x1="135" y1="9" x2="145" y2="23" style="stroke:rgb(0,0,0);stroke-width:1"/>\n\t<line x1="134" y1="12" x2="142" y2="23" style="stroke:rgb(0,0,0);stroke-width:1"/>\n\t<line x1="111" y1="27" x2="118" y2="11" style="stroke:rgb(0,0,0);stroke-width:1"/>\n\t<line x1="114" y1="26" x2="120" y2="14" style="stroke:rgb(0,0,0);stroke-width:1"/>\n\t<line x1="103" y1="66" x2="118" y2="58" style="stroke:rgb(0,0,0);stroke-width:1"/>\n\t<line x1="106" y1="67" x2="117" y2="61" style="stroke:rgb(0,0,0);stroke-width:1"/>\n\t<line x1="87" y1="91" x2="87" y2="104" style="stroke:rgb(0,0,0);stroke-width:1"/>\n\t<line x1="89" y1="91" x2="89" y2="104" style="stroke:rgb(0,0,0);stroke-width:1"/>\n\t<line x1="103" y1="83" x2="113" y2="89" style="stroke:rgb(0,0,0);stroke-width:1"/>\n\t<line x1="106" y1="82" x2="114" y2="87" style="stroke:rgb(0,0,0);stroke-width:1"/>\n\t<line x1="147" y1="109" x2="147" y2="92" style="stroke:rgb(0,0,0);stroke-width:1"/>\n\t<line x1="150" y1="107" x2="150" y2="94" style="stroke:rgb(0,0,0);stroke-width:1"/>\n\t<line x1="177" y1="109" x2="162" y2="118" style="stroke:rgb(0,0,0);stroke-width:1"/>\n\t<line x1="174" y1="108" x2="162" y2="114" style="stroke:rgb(0,0,0);stroke-width:1"/>\n\t<line x1="162" y1="83" x2="177" y2="92" style="stroke:rgb(0,0,0);stroke-width:1"/>\n\t<line x1="162" y1="86" x2="174" y2="93" style="stroke:rgb(0,0,0);stroke-width:1"/>\n\t<line x1="132" y1="66" x2="132" y2="83" style="stroke:rgb(0,0,0);stroke-width:1"/>\n\t<line x1="130" y1="68" x2="130" y2="81" style="stroke:rgb(0,0,0);stroke-width:1"/>\n\t<line x1="138" y1="39" x2="121" y2="41" style="stroke:rgb(0,0,0);stroke-width:1"/>\n\t<line x1="136" y1="37" x2="123" y2="38" style="stroke:rgb(0,0,0);stroke-width:1"/>\n\t<line x1="145" y1="23" x2="162" y2="22" style="stroke:rgb(0,0,0);stroke-width:1"/>\n\t<line x1="118" y1="11" x2="135" y2="9" style="stroke:rgb(0,0,0);stroke-width:1"/>\n\t<line x1="121" y1="41" x2="111" y2="27" style="stroke:rgb(0,0,0);stroke-width:1"/>\n\t<line x1="118" y1="58" x2="121" y2="41" style="stroke:rgb(0,0,0);stroke-width:1"/>\n\t<line x1="103" y1="83" x2="103" y2="66" style="stroke:rgb(0,0,0);stroke-width:1"/>\n\t<line x1="88" y1="92" x2="103" y2="83" style="stroke:rgb(0,0,0);stroke-width:1"/>\n\t<line x1="78" y1="86" x2="88" y2="92" style="stroke:rgb(0,0,0);stroke-width:1"/>\n\t<line x1="58" y1="92" x2="68" y2="86" style="stroke:rgb(0,0,0);stroke-width:1"/>\n\t<line x1="43" y1="83" x2="58" y2="92" style="stroke:rgb(0,0,0);stroke-width:1"/>\n\t<line x1="33" y1="89" x2="43" y2="83" style="stroke:rgb(0,0,0);stroke-width:1"/>\n\t<line x1="13" y1="85" x2="24" y2="90" style="stroke:rgb(0,0,0);stroke-width:1"/>\n\t<line x1="1" y1="98" x2="13" y2="85" style="stroke:rgb(0,0,0);stroke-width:1"/>\n\t<line x1="10" y1="113" x2="1" y2="98" style="stroke:rgb(0,0,0);stroke-width:1"/>\n\t<line x1="27" y1="109" x2="10" y2="113" style="stroke:rgb(0,0,0);stroke-width:1"/>\n\t<line x1="27" y1="109" x2="28" y2="97" style="stroke:rgb(0,0,0);stroke-width:1"/>\n\t<line x1="132" y1="83" x2="122" y2="89" style="stroke:rgb(0,0,0);stroke-width:1"/>\n\t<line x1="147" y1="92" x2="132" y2="83" style="stroke:rgb(0,0,0);stroke-width:1"/>\n\t<line x1="162" y1="118" x2="147" y2="109" style="stroke:rgb(0,0,0);stroke-width:1"/>\n\t<line x1="162" y1="130" x2="162" y2="118" style="stroke:rgb(0,0,0);stroke-width:1"/>\n\t<line x1="186" y1="114" x2="177" y2="109" style="stroke:rgb(0,0,0);stroke-width:1"/>\n\t<line x1="177" y1="92" x2="177" y2="109" style="stroke:rgb(0,0,0);stroke-width:1"/>\n\t<line x1="162" y1="83" x2="147" y2="92" style="stroke:rgb(0,0,0);stroke-width:1"/>\n\t<line x1="132" y1="66" x2="118" y2="58" style="stroke:rgb(0,0,0);stroke-width:1"/>\n\t<line x1="141" y1="59" x2="132" y2="66" style="stroke:rgb(0,0,0);stroke-width:1"/>\n\t<line x1="138" y1="39" x2="143" y2="50" style="stroke:rgb(0,0,0);stroke-width:1"/>\n\t<line x1="138" y1="39" x2="145" y2="23" style="stroke:rgb(0,0,0);stroke-width:1"/>\n\t<line id="function random() { [native code] }:Bond:2-1" class="event" x1="135" y1="9" x2="145" y2="23" stroke-width="8" stroke-opacity="0"/>\n\t<line id="function random() { [native code] }:Bond:4-3" class="event" x1="111" y1="27" x2="118" y2="11" stroke-width="8" stroke-opacity="0"/>\n\t<line id="function random() { [native code] }:Bond:7-6" class="event" x1="103" y1="66" x2="118" y2="58" stroke-width="8" stroke-opacity="0"/>\n\t<line id="function random() { [native code] }:Bond:10-9" class="event" x1="88" y1="109" x2="88" y2="92" stroke-width="8" stroke-opacity="0"/>\n\t<line id="function random() { [native code] }:Bond:19-8" class="event" x1="118" y1="92" x2="103" y2="83" stroke-width="8" stroke-opacity="0"/>\n\t<line id="function random() { [native code] }:Bond:22-21" class="event" x1="147" y1="109" x2="147" y2="92" stroke-width="8" stroke-opacity="0"/>\n\t<line id="function random() { [native code] }:Bond:25-23" class="event" x1="177" y1="109" x2="162" y2="118" stroke-width="8" stroke-opacity="0"/>\n\t<line id="function random() { [native code] }:Bond:28-27" class="event" x1="162" y1="83" x2="177" y2="92" stroke-width="8" stroke-opacity="0"/>\n\t<line id="function random() { [native code] }:Bond:29-20" class="event" x1="132" y1="66" x2="132" y2="83" stroke-width="8" stroke-opacity="0"/>\n\t<line id="function random() { [native code] }:Bond:31-5" class="event" x1="138" y1="39" x2="121" y2="41" stroke-width="8" stroke-opacity="0"/>\n\t<line id="function random() { [native code] }:Bond:1-0" class="event" x1="145" y1="23" x2="162" y2="22" stroke-width="8" stroke-opacity="0"/>\n\t<line id="function random() { [native code] }:Bond:3-2" class="event" x1="118" y1="11" x2="135" y2="9" stroke-width="8" stroke-opacity="0"/>\n\t<line id="function random() { [native code] }:Bond:5-4" class="event" x1="121" y1="41" x2="111" y2="27" stroke-width="8" stroke-opacity="0"/>\n\t<line id="function random() { [native code] }:Bond:6-5" class="event" x1="118" y1="58" x2="121" y2="41" stroke-width="8" stroke-opacity="0"/>\n\t<line id="function random() { [native code] }:Bond:8-7" class="event" x1="103" y1="83" x2="103" y2="66" stroke-width="8" stroke-opacity="0"/>\n\t<line id="function random() { [native code] }:Bond:9-8" class="event" x1="88" y1="92" x2="103" y2="83" stroke-width="8" stroke-opacity="0"/>\n\t<line id="function random() { [native code] }:Bond:11-9" class="event" x1="73" y1="83" x2="88" y2="92" stroke-width="8" stroke-opacity="0"/>\n\t<line id="function random() { [native code] }:Bond:12-11" class="event" x1="58" y1="92" x2="73" y2="83" stroke-width="8" stroke-opacity="0"/>\n\t<line id="function random() { [native code] }:Bond:13-12" class="event" x1="43" y1="83" x2="58" y2="92" stroke-width="8" stroke-opacity="0"/>\n\t<line id="function random() { [native code] }:Bond:14-13" class="event" x1="28" y1="92" x2="43" y2="83" stroke-width="8" stroke-opacity="0"/>\n\t<line id="function random() { [native code] }:Bond:15-14" class="event" x1="13" y1="85" x2="28" y2="92" stroke-width="8" stroke-opacity="0"/>\n\t<line id="function random() { [native code] }:Bond:16-15" class="event" x1="1" y1="98" x2="13" y2="85" stroke-width="8" stroke-opacity="0"/>\n\t<line id="function random() { [native code] }:Bond:17-16" class="event" x1="10" y1="113" x2="1" y2="98" stroke-width="8" stroke-opacity="0"/>\n\t<line id="function random() { [native code] }:Bond:18-17" class="event" x1="27" y1="109" x2="10" y2="113" stroke-width="8" stroke-opacity="0"/>\n\t<line id="function random() { [native code] }:Bond:18-14" class="event" x1="27" y1="109" x2="28" y2="92" stroke-width="8" stroke-opacity="0"/>\n\t<line id="function random() { [native code] }:Bond:20-19" class="event" x1="132" y1="83" x2="118" y2="92" stroke-width="8" stroke-opacity="0"/>\n\t<line id="function random() { [native code] }:Bond:21-20" class="event" x1="147" y1="92" x2="132" y2="83" stroke-width="8" stroke-opacity="0"/>\n\t<line id="function random() { [native code] }:Bond:23-22" class="event" x1="162" y1="118" x2="147" y2="109" stroke-width="8" stroke-opacity="0"/>\n\t<line id="function random() { [native code] }:Bond:24-23" class="event" x1="162" y1="135" x2="162" y2="118" stroke-width="8" stroke-opacity="0"/>\n\t<line id="function random() { [native code] }:Bond:26-25" class="event" x1="192" y1="118" x2="177" y2="109" stroke-width="8" stroke-opacity="0"/>\n\t<line id="function random() { [native code] }:Bond:27-25" class="event" x1="177" y1="92" x2="177" y2="109" stroke-width="8" stroke-opacity="0"/>\n\t<line id="function random() { [native code] }:Bond:28-21" class="event" x1="162" y1="83" x2="147" y2="92" stroke-width="8" stroke-opacity="0"/>\n\t<line id="function random() { [native code] }:Bond:29-6" class="event" x1="132" y1="66" x2="118" y2="58" stroke-width="8" stroke-opacity="0"/>\n\t<line id="function random() { [native code] }:Bond:30-29" class="event" x1="145" y1="55" x2="132" y2="66" stroke-width="8" stroke-opacity="0"/>\n\t<line id="function random() { [native code] }:Bond:31-30" class="event" x1="138" y1="39" x2="145" y2="55" stroke-width="8" stroke-opacity="0"/>\n\t<line id="function random() { [native code] }:Bond:31-1" class="event" x1="138" y1="39" x2="145" y2="23" stroke-width="8" stroke-opacity="0"/>\n\t<circle id="function random() { [native code] }:Atom:0" class="event" cx="162" cy="22" r="8" fill-opacity="0"/>\n\t<circle id="function random() { [native code] }:Atom:1" class="event" cx="145" cy="23" r="8" fill-opacity="0"/>\n\t<circle id="function random() { [native code] }:Atom:2" class="event" cx="135" cy="9" r="8" fill-opacity="0"/>\n\t<circle id="function random() { [native code] }:Atom:3" class="event" cx="118" cy="11" r="8" fill-opacity="0"/>\n\t<circle id="function random() { [native code] }:Atom:4" class="event" cx="111" cy="27" r="8" fill-opacity="0"/>\n\t<circle id="function random() { [native code] }:Atom:5" class="event" cx="121" cy="41" r="8" fill-opacity="0"/>\n\t<circle id="function random() { [native code] }:Atom:6" class="event" cx="118" cy="58" r="8" fill-opacity="0"/>\n\t<circle id="function random() { [native code] }:Atom:7" class="event" cx="103" cy="66" r="8" fill-opacity="0"/>\n\t<circle id="function random() { [native code] }:Atom:8" class="event" cx="103" cy="83" r="8" fill-opacity="0"/>\n\t<circle id="function random() { [native code] }:Atom:9" class="event" cx="88" cy="92" r="8" fill-opacity="0"/>\n\t<circle id="function random() { [native code] }:Atom:10" class="event" cx="88" cy="109" r="8" fill-opacity="0"/>\n\t<circle id="function random() { [native code] }:Atom:11" class="event" cx="73" cy="83" r="8" fill-opacity="0"/>\n\t<circle id="function random() { [native code] }:Atom:12" class="event" cx="58" cy="92" r="8" fill-opacity="0"/>\n\t<circle id="function random() { [native code] }:Atom:13" class="event" cx="43" cy="83" r="8" fill-opacity="0"/>\n\t<circle id="function random() { [native code] }:Atom:14" class="event" cx="28" cy="92" r="8" fill-opacity="0"/>\n\t<circle id="function random() { [native code] }:Atom:15" class="event" cx="13" cy="85" r="8" fill-opacity="0"/>\n\t<circle id="function random() { [native code] }:Atom:16" class="event" cx="1" cy="98" r="8" fill-opacity="0"/>\n\t<circle id="function random() { [native code] }:Atom:17" class="event" cx="10" cy="113" r="8" fill-opacity="0"/>\n\t<circle id="function random() { [native code] }:Atom:18" class="event" cx="27" cy="109" r="8" fill-opacity="0"/>\n\t<circle id="function random() { [native code] }:Atom:19" class="event" cx="118" cy="92" r="8" fill-opacity="0"/>\n\t<circle id="function random() { [native code] }:Atom:20" class="event" cx="132" cy="83" r="8" fill-opacity="0"/>\n\t<circle id="function random() { [native code] }:Atom:21" class="event" cx="147" cy="92" r="8" fill-opacity="0"/>\n\t<circle id="function random() { [native code] }:Atom:22" class="event" cx="147" cy="109" r="8" fill-opacity="0"/>\n\t<circle id="function random() { [native code] }:Atom:23" class="event" cx="162" cy="118" r="8" fill-opacity="0"/>\n\t<circle id="function random() { [native code] }:Atom:24" class="event" cx="162" cy="135" r="8" fill-opacity="0"/>\n\t<circle id="function random() { [native code] }:Atom:25" class="event" cx="177" cy="109" r="8" fill-opacity="0"/>\n\t<circle id="function random() { [native code] }:Atom:26" class="event" cx="192" cy="118" r="8" fill-opacity="0"/>\n\t<circle id="function random() { [native code] }:Atom:27" class="event" cx="177" cy="92" r="8" fill-opacity="0"/>\n\t<circle id="function random() { [native code] }:Atom:28" class="event" cx="162" cy="83" r="8" fill-opacity="0"/>\n\t<circle id="function random() { [native code] }:Atom:29" class="event" cx="132" cy="66" r="8" fill-opacity="0"/>\n\t<circle id="function random() { [native code] }:Atom:30" class="event" cx="145" cy="55" r="8" fill-opacity="0"/>\n\t<circle id="function random() { [native code] }:Atom:31" class="event" cx="138" cy="39" r="8" fill-opacity="0"/>\n</svg>