<svg id="function random() { [native code] }" xmlns="http://www.w3.org/2000/svg" version="1.1" width="200px" height="150px" viewBox="0 0 200 150">\n\t<style> #function random() { [native code] } {pointer-events:none; }  #function random() { [native code] } .event  { pointer-events:all;}  </style>\n\t<text x="178" y="42" font-family=" Helvetica" font-weight="900" font-size="11" fill="rgb(48,80,248)">N</text>\n\t<text x="178" y="53" font-family=" Helvetica" font-weight="900" font-size="11" fill="rgb(48,80,248)">H</text>\n\t<text x="116" y="42" font-family=" Helvetica" font-weight="900" font-size="11" fill="rgb(48,80,248)">N</text>\n\t<text x="116" y="53" font-family=" Helvetica" font-weight="900" font-size="11" fill="rgb(48,80,248)">H</text>\n\t<text x="100" y="15" font-family=" Helvetica" font-weight="900" font-size="11" fill="rgb(255,13,13)">O</text>\n\t<text x="36" y="65" font-family=" Helvetica" font-weight="900" font-size="11" fill="rgb(48,80,248)">N</text>\n\t<text x="36" y="76" font-family=" Helvetica" font-weight="900" font-size="11" fill="rgb(48,80,248)">H</text>\n\t<text x="68" y="140" font-family=" Helvetica" font-weight="900" font-size="11" fill="rgb(31,240,31)">Cl</text>\n\t<text x="99" y="122" font-family=" Helvetica" font-weight="900" font-size="11" fill="rgb(31,240,31)">Cl</text>\n\t<text x="85" y="60" font-family=" Helvetica" font-weight="900" font-size="11" fill="rgb(48,80,248)">N</text>\n\t<line x1="106" y1="30" x2="106" y2="17" style="stroke:rgb(0,0,0);stroke-width:1"/>\n\t<line x1="103" y1="30" x2="103" y2="17" style="stroke:rgb(0,0,0);stroke-width:1"/>\n\t<line x1="73" y1="30" x2="89" y2="39" style="stroke:rgb(0,0,0);stroke-width:1"/>\n\t<line x1="73" y1="33" x2="86" y2="40" style="stroke:rgb(0,0,0);stroke-width:1"/>\n\t<line x1="33" y1="17" x2="40" y2="33" style="stroke:rgb(0,0,0);stroke-width:1"/>\n\t<line x1="31" y1="19" x2="37" y2="32" style="stroke:rgb(0,0,0);stroke-width:1"/>\n\t<line x1="5" y1="29" x2="15" y2="15" style="stroke:rgb(0,0,0);stroke-width:1"/>\n\t<line x1="8" y1="29" x2="16" y2="18" style="stroke:rgb(0,0,0);stroke-width:1"/>\n\t<line x1="30" y1="48" x2="12" y2="46" style="stroke:rgb(0,0,0);stroke-width:1"/>\n\t<line x1="28" y1="45" x2="14" y2="43" style="stroke:rgb(0,0,0);stroke-width:1"/>\n\t<line x1="57" y1="57" x2="57" y2="39" style="stroke:rgb(0,0,0);stroke-width:1"/>\n\t<line x1="60" y1="55" x2="60" y2="40" style="stroke:rgb(0,0,0);stroke-width:1"/>\n\t<line x1="57" y1="92" x2="73" y2="83" style="stroke:rgb(0,0,0);stroke-width:1"/>\n\t<line x1="60" y1="94" x2="73" y2="87" style="stroke:rgb(0,0,0);stroke-width:1"/>\n\t<line x1="73" y1="119" x2="57" y2="110" style="stroke:rgb(0,0,0);stroke-width:1"/>\n\t<line x1="73" y1="116" x2="60" y2="109" style="stroke:rgb(0,0,0);stroke-width:1"/>\n\t<line x1="89" y1="92" x2="89" y2="110" style="stroke:rgb(0,0,0);stroke-width:1"/>\n\t<line x1="86" y1="94" x2="86" y2="109" style="stroke:rgb(0,0,0);stroke-width:1"/>\n\t<line x1="73" y1="66" x2="84" y2="59" style="stroke:rgb(0,0,0);stroke-width:1"/>\n\t<line x1="73" y1="62" x2="82" y2="57" style="stroke:rgb(0,0,0);stroke-width:1"/>\n\t<line x1="187" y1="36" x2="198" y2="30" style="stroke:rgb(0,0,0);stroke-width:1"/>\n\t<line x1="167" y1="30" x2="177" y2="36" style="stroke:rgb(0,0,0);stroke-width:1"/>\n\t<line x1="151" y1="39" x2="167" y2="30" style="stroke:rgb(0,0,0);stroke-width:1"/>\n\t<line x1="135" y1="30" x2="151" y2="39" style="stroke:rgb(0,0,0);stroke-width:1"/>\n\t<line x1="125" y1="36" x2="135" y2="30" style="stroke:rgb(0,0,0);stroke-width:1"/>\n\t<line x1="104" y1="30" x2="115" y2="36" style="stroke:rgb(0,0,0);stroke-width:1"/>\n\t<line x1="89" y1="39" x2="104" y2="30" style="stroke:rgb(0,0,0);stroke-width:1"/>\n\t<line x1="57" y1="39" x2="73" y2="30" style="stroke:rgb(0,0,0);stroke-width:1"/>\n\t<line x1="40" y1="33" x2="57" y2="39" style="stroke:rgb(0,0,0);stroke-width:1"/>\n\t<line x1="15" y1="15" x2="33" y2="17" style="stroke:rgb(0,0,0);stroke-width:1"/>\n\t<line x1="12" y1="46" x2="5" y2="29" style="stroke:rgb(0,0,0);stroke-width:1"/>\n\t<line x1="1" y1="60" x2="12" y2="46" style="stroke:rgb(0,0,0);stroke-width:1"/>\n\t<line x1="30" y1="48" x2="40" y2="33" style="stroke:rgb(0,0,0);stroke-width:1"/>\n\t<line x1="37" y1="57" x2="30" y2="48" style="stroke:rgb(0,0,0);stroke-width:1"/>\n\t<line x1="57" y1="57" x2="45" y2="60" style="stroke:rgb(0,0,0);stroke-width:1"/>\n\t<line x1="73" y1="66" x2="57" y2="57" style="stroke:rgb(0,0,0);stroke-width:1"/>\n\t<line x1="73" y1="83" x2="73" y2="66" style="stroke:rgb(0,0,0);stroke-width:1"/>\n\t<line x1="57" y1="110" x2="57" y2="92" style="stroke:rgb(0,0,0);stroke-width:1"/>\n\t<line x1="73" y1="132" x2="73" y2="119" style="stroke:rgb(0,0,0);stroke-width:1"/>\n\t<line x1="89" y1="110" x2="73" y2="119" style="stroke:rgb(0,0,0);stroke-width:1"/>\n\t<line x1="98" y1="116" x2="89" y2="110" style="stroke:rgb(0,0,0);stroke-width:1"/>\n\t<line x1="89" y1="92" x2="73" y2="83" style="stroke:rgb(0,0,0);stroke-width:1"/>\n\t<line x1="89" y1="52" x2="89" y2="39" style="stroke:rgb(0,0,0);stroke-width:1"/>\n\t<line id="function random() { [native code] }:Bond:7-6" class="event" x1="104" y1="12" x2="104" y2="30" stroke-width="8" stroke-opacity="0"/>\n\t<line id="function random() { [native code] }:Bond:9-8" class="event" x1="73" y1="30" x2="89" y2="39" stroke-width="8" stroke-opacity="0"/>\n\t<line id="function random() { [native code] }:Bond:12-11" class="event" x1="33" y1="17" x2="40" y2="33" stroke-width="8" stroke-opacity="0"/>\n\t<line id="function random() { [native code] }:Bond:14-13" class="event" x1="5" y1="29" x2="15" y2="15" stroke-width="8" stroke-opacity="0"/>\n\t<line id="function random() { [native code] }:Bond:17-15" class="event" x1="30" y1="48" x2="12" y2="46" stroke-width="8" stroke-opacity="0"/>\n\t<line id="function random() { [native code] }:Bond:19-10" class="event" x1="57" y1="57" x2="57" y2="39" stroke-width="8" stroke-opacity="0"/>\n\t<line id="function random() { [native code] }:Bond:22-21" class="event" x1="57" y1="92" x2="73" y2="83" stroke-width="8" stroke-opacity="0"/>\n\t<line id="function random() { [native code] }:Bond:24-23" class="event" x1="73" y1="119" x2="57" y2="110" stroke-width="8" stroke-opacity="0"/>\n\t<line id="function random() { [native code] }:Bond:28-26" class="event" x1="89" y1="92" x2="89" y2="110" stroke-width="8" stroke-opacity="0"/>\n\t<line id="function random() { [native code] }:Bond:29-20" class="event" x1="89" y1="57" x2="73" y2="66" stroke-width="8" stroke-opacity="0"/>\n\t<line id="function random() { [native code] }:Bond:1-0" class="event" x1="182" y1="39" x2="198" y2="30" stroke-width="8" stroke-opacity="0"/>\n\t<line id="function random() { [native code] }:Bond:2-1" class="event" x1="167" y1="30" x2="182" y2="39" stroke-width="8" stroke-opacity="0"/>\n\t<line id="function random() { [native code] }:Bond:3-2" class="event" x1="151" y1="39" x2="167" y2="30" stroke-width="8" stroke-opacity="0"/>\n\t<line id="function random() { [native code] }:Bond:4-3" class="event" x1="135" y1="30" x2="151" y2="39" stroke-width="8" stroke-opacity="0"/>\n\t<line id="function random() { [native code] }:Bond:5-4" class="event" x1="120" y1="39" x2="135" y2="30" stroke-width="8" stroke-opacity="0"/>\n\t<line id="function random() { [native code] }:Bond:6-5" class="event" x1="104" y1="30" x2="120" y2="39" stroke-width="8" stroke-opacity="0"/>\n\t<line id="function random() { [native code] }:Bond:8-6" class="event" x1="89" y1="39" x2="104" y2="30" stroke-width="8" stroke-opacity="0"/>\n\t<line id="function random() { [native code] }:Bond:10-9" class="event" x1="57" y1="39" x2="73" y2="30" stroke-width="8" stroke-opacity="0"/>\n\t<line id="function random() { [native code] }:Bond:11-10" class="event" x1="40" y1="33" x2="57" y2="39" stroke-width="8" stroke-opacity="0"/>\n\t<line id="function random() { [native code] }:Bond:13-12" class="event" x1="15" y1="15" x2="33" y2="17" stroke-width="8" stroke-opacity="0"/>\n\t<line id="function random() { [native code] }:Bond:15-14" class="event" x1="12" y1="46" x2="5" y2="29" stroke-width="8" stroke-opacity="0"/>\n\t<line id="function random() { [native code] }:Bond:16-15" class="event" x1="1" y1="60" x2="12" y2="46" stroke-width="8" stroke-opacity="0"/>\n\t<line id="function random() { [native code] }:Bond:17-11" class="event" x1="30" y1="48" x2="40" y2="33" stroke-width="8" stroke-opacity="0"/>\n\t<line id="function random() { [native code] }:Bond:18-17" class="event" x1="40" y1="62" x2="30" y2="48" stroke-width="8" stroke-opacity="0"/>\n\t<line id="function random() { [native code] }:Bond:19-18" class="event" x1="57" y1="57" x2="40" y2="62" stroke-width="8" stroke-opacity="0"/>\n\t<line id="function random() { [native code] }:Bond:20-19" class="event" x1="73" y1="66" x2="57" y2="57" stroke-width="8" stroke-opacity="0"/>\n\t<line id="function random() { [native code] }:Bond:21-20" class="event" x1="73" y1="83" x2="73" y2="66" stroke-width="8" stroke-opacity="0"/>\n\t<line id="function random() { [native code] }:Bond:23-22" class="event" x1="57" y1="110" x2="57" y2="92" stroke-width="8" stroke-opacity="0"/>\n\t<line id="function random() { [native code] }:Bond:25-24" class="event" x1="73" y1="137" x2="73" y2="119" stroke-width="8" stroke-opacity="0"/>\n\t<line id="function random() { [native code] }:Bond:26-24" class="event" x1="89" y1="110" x2="73" y2="119" stroke-width="8" stroke-opacity="0"/>\n\t<line id="function random() { [native code] }:Bond:27-26" class="event" x1="104" y1="119" x2="89" y2="110" stroke-width="8" stroke-opacity="0"/>\n\t<line id="function random() { [native code] }:Bond:28-21" class="event" x1="89" y1="92" x2="73" y2="83" stroke-width="8" stroke-opacity="0"/>\n\t<line id="function random() { [native code] }:Bond:29-8" class="event" x1="89" y1="57" x2="89" y2="39" stroke-width="8" stroke-opacity="0"/>\n\t<circle id="function random() { [native code] }:Atom:0" class="event" cx="198" cy="30" r="8" fill-opacity="0"/>\n\t<circle id="function random() { [native code] }:Atom:1" class="event" cx="182" cy="39" r="8" fill-opacity="0"/>\n\t<circle id="function random() { [native code] }:Atom:2" class="event" cx="167" cy="30" r="8" fill-opacity="0"/>\n\t<circle id="function random() { [native code] }:Atom:3" class="event" cx="151" cy="39" r="8" fill-opacity="0"/>\n\t<circle id="function random() { [native code] }:Atom:4" class="event" cx="135" cy="30" r="8" fill-opacity="0"/>\n\t<circle id="function random() { [native code] }:Atom:5" class="event" cx="120" cy="39" r="8" fill-opacity="0"/>\n\t<circle id="function random() { [native code] }:Atom:6" class="event" cx="104" cy="30" r="8" fill-opacity="0"/>\n\t<circle id="function random() { [native code] }:Atom:7" class="event" cx="104" cy="12" r="8" fill-opacity="0"/>\n\t<circle id="function random() { [native code] }:Atom:8" class="event" cx="89" cy="39" r="8" fill-opacity="0"/>\n\t<circle id="function random() { [native code] }:Atom:9" class="event" cx="73" cy="30" r="8" fill-opacity="0"/>\n\t<circle id="function random() { [native code] }:Atom:10" class="event" cx="57" cy="39" r="8" fill-opacity="0"/>\n\t<circle id="function random() { [native code] }:Atom:11" class="event" cx="40" cy="33" r="8" fill-opacity="0"/>\n\t<circle id="function random() { [native code] }:Atom:12" class="event" cx="33" cy="17" r="8" fill-opacity="0"/>\n\t<circle id="function random() { [native code] }:Atom:13" class="event" cx="15" cy="15" r="8" fill-opacity="0"/>\n\t<circle id="function random() { [native code] }:Atom:14" class="event" cx="5" cy="29" r="8" fill-opacity="0"/>\n\t<circle id="function random() { [native code] }:Atom:15" class="event" cx="12" cy="46" r="8" fill-opacity="0"/>\n\t<circle id="function random() { [native code] }:Atom:16" class="event" cx="1" cy="60" r="8" fill-opacity="0"/>\n\t<circle id="function random() { [native code] }:Atom:17" class="event" cx="30" cy="48" r="8" fill-opacity="0"/>\n\t<circle id="function random() { [native code] }:Atom:18" class="event" cx="40" cy="62" r="8" fill-opacity="0"/>\n\t<circle id="function random() { [native code] }:Atom:19" class="event" cx="57" cy="57" r="8" fill-opacity="0"/>\n\t<circle id="function random() { [native code] }:Atom:20" class="event" cx="73" cy="66" r="8" fill-opacity="0"/>\n\t<circle id="function random() { [native code] }:Atom:21" class="event" cx="73" cy="83" r="8" fill-opacity="0"/>\n\t<circle id="function random() { [native code] }:Atom:22" class="event" cx="57" cy="92" r="8" fill-opacity="0"/>\n\t<circle id="function random() { [native code] }:Atom:23" class="event" cx="57" cy="110" r="8" fill-opacity="0"/>\n\t<circle id="function random() { [native code] }:Atom:24" class="event" cx="73" cy="119" r="8" fill-opacity="0"/>\n\t<circle id="function random() { [native code] }:Atom:25" class="event" cx="73" cy="137" r="8" fill-opacity="0"/>\n\t<circle id="function random() { [native code] }:Atom:26" class="event" cx="89" cy="110" r="8" fill-opacity="0"/>\n\t<circle id="function random() { [native code] }:Atom:27" class="event" cx="104" cy="119" r="8" fill-opacity="0"/>\n\t<circle id="function random() { [native code] }:Atom:28" class="event" cx="89" cy="92" r="8" fill-opacity="0"/>\n\t<circle id="function random() { [native code] }:Atom:29" class="event" cx="89" cy="57" r="8" fill-opacity="0"/>\n</svg>