<svg id="function random() { [native code] }" xmlns="http://www.w3.org/2000/svg" version="1.1" width="200px" height="150px" viewBox="0 0 200 150">\n\t<style> #function random() { [native code] } {pointer-events:none; }  #function random() { [native code] } .event  { pointer-events:all;}  </style>\n\t<text x="178" y="41" font-family=" Helvetica" font-weight="900" font-size="11" fill="rgb(48,80,248)">N</text>\n\t<text x="178" y="52" font-family=" Helvetica" font-weight="900" font-size="11" fill="rgb(48,80,248)">H</text>\n\t<text x="114" y="41" font-family=" Helvetica" font-weight="900" font-size="11" fill="rgb(48,80,248)">N</text>\n\t<text x="114" y="52" font-family=" Helvetica" font-weight="900" font-size="11" fill="rgb(48,80,248)">H</text>\n\t<text x="98" y="13" font-family=" Helvetica" font-weight="900" font-size="11" fill="rgb(255,13,13)">O</text>\n\t<text x="34" y="65" font-family=" Helvetica" font-weight="900" font-size="11" fill="rgb(48,80,248)">N</text>\n\t<text x="34" y="76" font-family=" Helvetica" font-weight="900" font-size="11" fill="rgb(48,80,248)">H</text>\n\t<text x="36" y="123" font-family=" Helvetica" font-weight="900" font-size="11" fill="rgb(144,224,80)">F</text>\n\t<text x="66" y="142" font-family=" Helvetica" font-weight="900" font-size="11" fill="rgb(31,240,31)">Cl</text>\n\t<text x="83" y="59" font-family=" Helvetica" font-weight="900" font-size="11" fill="rgb(48,80,248)">N</text>\n\t<line x1="104" y1="30" x2="104" y2="15" style="stroke:rgb(0,0,0);stroke-width:1"/>\n\t<line x1="101" y1="30" x2="101" y2="15" style="stroke:rgb(0,0,0);stroke-width:1"/>\n\t<line x1="71" y1="29" x2="87" y2="38" style="stroke:rgb(0,0,0);stroke-width:1"/>\n\t<line x1="71" y1="32" x2="84" y2="39" style="stroke:rgb(0,0,0);stroke-width:1"/>\n\t<line x1="30" y1="16" x2="38" y2="32" style="stroke:rgb(0,0,0);stroke-width:1"/>\n\t<line x1="29" y1="18" x2="34" y2="32" style="stroke:rgb(0,0,0);stroke-width:1"/>\n\t<line x1="1" y1="28" x2="12" y2="14" style="stroke:rgb(0,0,0);stroke-width:1"/>\n\t<line x1="5" y1="28" x2="13" y2="17" style="stroke:rgb(0,0,0);stroke-width:1"/>\n\t<line x1="27" y1="47" x2="9" y2="45" style="stroke:rgb(0,0,0);stroke-width:1"/>\n\t<line x1="25" y1="44" x2="11" y2="43" style="stroke:rgb(0,0,0);stroke-width:1"/>\n\t<line x1="55" y1="56" x2="55" y2="38" style="stroke:rgb(0,0,0);stroke-width:1"/>\n\t<line x1="58" y1="54" x2="58" y2="40" style="stroke:rgb(0,0,0);stroke-width:1"/>\n\t<line x1="55" y1="93" x2="71" y2="84" style="stroke:rgb(0,0,0);stroke-width:1"/>\n\t<line x1="58" y1="94" x2="71" y2="87" style="stroke:rgb(0,0,0);stroke-width:1"/>\n\t<line x1="71" y1="120" x2="55" y2="111" style="stroke:rgb(0,0,0);stroke-width:1"/>\n\t<line x1="71" y1="117" x2="58" y2="110" style="stroke:rgb(0,0,0);stroke-width:1"/>\n\t<line x1="87" y1="93" x2="87" y2="111" style="stroke:rgb(0,0,0);stroke-width:1"/>\n\t<line x1="84" y1="95" x2="84" y2="109" style="stroke:rgb(0,0,0);stroke-width:1"/>\n\t<line x1="71" y1="65" x2="82" y2="59" style="stroke:rgb(0,0,0);stroke-width:1"/>\n\t<line x1="71" y1="62" x2="80" y2="57" style="stroke:rgb(0,0,0);stroke-width:1"/>\n\t<line x1="187" y1="35" x2="198" y2="29" style="stroke:rgb(0,0,0);stroke-width:1"/>\n\t<line x1="166" y1="29" x2="177" y2="35" style="stroke:rgb(0,0,0);stroke-width:1"/>\n\t<line x1="150" y1="38" x2="166" y2="29" style="stroke:rgb(0,0,0);stroke-width:1"/>\n\t<line x1="134" y1="29" x2="150" y2="38" style="stroke:rgb(0,0,0);stroke-width:1"/>\n\t<line x1="123" y1="35" x2="134" y2="29" style="stroke:rgb(0,0,0);stroke-width:1"/>\n\t<line x1="103" y1="29" x2="113" y2="35" style="stroke:rgb(0,0,0);stroke-width:1"/>\n\t<line x1="87" y1="38" x2="103" y2="29" style="stroke:rgb(0,0,0);stroke-width:1"/>\n\t<line x1="55" y1="38" x2="71" y2="29" style="stroke:rgb(0,0,0);stroke-width:1"/>\n\t<line x1="38" y1="32" x2="55" y2="38" style="stroke:rgb(0,0,0);stroke-width:1"/>\n\t<line x1="12" y1="14" x2="30" y2="16" style="stroke:rgb(0,0,0);stroke-width:1"/>\n\t<line x1="9" y1="45" x2="1" y2="28" style="stroke:rgb(0,0,0);stroke-width:1"/>\n\t<line x1="27" y1="47" x2="38" y2="32" style="stroke:rgb(0,0,0);stroke-width:1"/>\n\t<line x1="34" y1="57" x2="27" y2="47" style="stroke:rgb(0,0,0);stroke-width:1"/>\n\t<line x1="55" y1="56" x2="43" y2="60" style="stroke:rgb(0,0,0);stroke-width:1"/>\n\t<line x1="71" y1="65" x2="55" y2="56" style="stroke:rgb(0,0,0);stroke-width:1"/>\n\t<line x1="71" y1="84" x2="71" y2="65" style="stroke:rgb(0,0,0);stroke-width:1"/>\n\t<line x1="55" y1="111" x2="55" y2="93" style="stroke:rgb(0,0,0);stroke-width:1"/>\n\t<line x1="44" y1="118" x2="55" y2="111" style="stroke:rgb(0,0,0);stroke-width:1"/>\n\t<line x1="71" y1="134" x2="71" y2="120" style="stroke:rgb(0,0,0);stroke-width:1"/>\n\t<line x1="87" y1="111" x2="71" y2="120" style="stroke:rgb(0,0,0);stroke-width:1"/>\n\t<line x1="87" y1="93" x2="71" y2="84" style="stroke:rgb(0,0,0);stroke-width:1"/>\n\t<line x1="87" y1="51" x2="87" y2="38" style="stroke:rgb(0,0,0);stroke-width:1"/>\n\t<line id="function random() { [native code] }:Bond:7-6" class="event" x1="103" y1="10" x2="103" y2="29" stroke-width="8" stroke-opacity="0"/>\n\t<line id="function random() { [native code] }:Bond:9-8" class="event" x1="71" y1="29" x2="87" y2="38" stroke-width="8" stroke-opacity="0"/>\n\t<line id="function random() { [native code] }:Bond:12-11" class="event" x1="30" y1="16" x2="38" y2="32" stroke-width="8" stroke-opacity="0"/>\n\t<line id="function random() { [native code] }:Bond:14-13" class="event" x1="1" y1="28" x2="12" y2="14" stroke-width="8" stroke-opacity="0"/>\n\t<line id="function random() { [native code] }:Bond:16-15" class="event" x1="27" y1="47" x2="9" y2="45" stroke-width="8" stroke-opacity="0"/>\n\t<line id="function random() { [native code] }:Bond:18-10" class="event" x1="55" y1="56" x2="55" y2="38" stroke-width="8" stroke-opacity="0"/>\n\t<line id="function random() { [native code] }:Bond:21-20" class="event" x1="55" y1="93" x2="71" y2="84" stroke-width="8" stroke-opacity="0"/>\n\t<line id="function random() { [native code] }:Bond:24-22" class="event" x1="71" y1="120" x2="55" y2="111" stroke-width="8" stroke-opacity="0"/>\n\t<line id="function random() { [native code] }:Bond:27-26" class="event" x1="87" y1="93" x2="87" y2="111" stroke-width="8" stroke-opacity="0"/>\n\t<line id="function random() { [native code] }:Bond:28-19" class="event" x1="87" y1="56" x2="71" y2="65" stroke-width="8" stroke-opacity="0"/>\n\t<line id="function random() { [native code] }:Bond:1-0" class="event" x1="182" y1="38" x2="198" y2="29" stroke-width="8" stroke-opacity="0"/>\n\t<line id="function random() { [native code] }:Bond:2-1" class="event" x1="166" y1="29" x2="182" y2="38" stroke-width="8" stroke-opacity="0"/>\n\t<line id="function random() { [native code] }:Bond:3-2" class="event" x1="150" y1="38" x2="166" y2="29" stroke-width="8" stroke-opacity="0"/>\n\t<line id="function random() { [native code] }:Bond:4-3" class="event" x1="134" y1="29" x2="150" y2="38" stroke-width="8" stroke-opacity="0"/>\n\t<line id="function random() { [native code] }:Bond:5-4" class="event" x1="118" y1="38" x2="134" y2="29" stroke-width="8" stroke-opacity="0"/>\n\t<line id="function random() { [native code] }:Bond:6-5" class="event" x1="103" y1="29" x2="118" y2="38" stroke-width="8" stroke-opacity="0"/>\n\t<line id="function random() { [native code] }:Bond:8-6" class="event" x1="87" y1="38" x2="103" y2="29" stroke-width="8" stroke-opacity="0"/>\n\t<line id="function random() { [native code] }:Bond:10-9" class="event" x1="55" y1="38" x2="71" y2="29" stroke-width="8" stroke-opacity="0"/>\n\t<line id="function random() { [native code] }:Bond:11-10" class="event" x1="38" y1="32" x2="55" y2="38" stroke-width="8" stroke-opacity="0"/>\n\t<line id="function random() { [native code] }:Bond:13-12" class="event" x1="12" y1="14" x2="30" y2="16" stroke-width="8" stroke-opacity="0"/>\n\t<line id="function random() { [native code] }:Bond:15-14" class="event" x1="9" y1="45" x2="1" y2="28" stroke-width="8" stroke-opacity="0"/>\n\t<line id="function random() { [native code] }:Bond:16-11" class="event" x1="27" y1="47" x2="38" y2="32" stroke-width="8" stroke-opacity="0"/>\n\t<line id="function random() { [native code] }:Bond:17-16" class="event" x1="38" y1="62" x2="27" y2="47" stroke-width="8" stroke-opacity="0"/>\n\t<line id="function random() { [native code] }:Bond:18-17" class="event" x1="55" y1="56" x2="38" y2="62" stroke-width="8" stroke-opacity="0"/>\n\t<line id="function random() { [native code] }:Bond:19-18" class="event" x1="71" y1="65" x2="55" y2="56" stroke-width="8" stroke-opacity="0"/>\n\t<line id="function random() { [native code] }:Bond:20-19" class="event" x1="71" y1="84" x2="71" y2="65" stroke-width="8" stroke-opacity="0"/>\n\t<line id="function random() { [native code] }:Bond:22-21" class="event" x1="55" y1="111" x2="55" y2="93" stroke-width="8" stroke-opacity="0"/>\n\t<line id="function random() { [native code] }:Bond:23-22" class="event" x1="39" y1="120" x2="55" y2="111" stroke-width="8" stroke-opacity="0"/>\n\t<line id="function random() { [native code] }:Bond:25-24" class="event" x1="71" y1="139" x2="71" y2="120" stroke-width="8" stroke-opacity="0"/>\n\t<line id="function random() { [native code] }:Bond:26-24" class="event" x1="87" y1="111" x2="71" y2="120" stroke-width="8" stroke-opacity="0"/>\n\t<line id="function random() { [native code] }:Bond:27-20" class="event" x1="87" y1="93" x2="71" y2="84" stroke-width="8" stroke-opacity="0"/>\n\t<line id="function random() { [native code] }:Bond:28-8" class="event" x1="87" y1="56" x2="87" y2="38" stroke-width="8" stroke-opacity="0"/>\n\t<circle id="function random() { [native code] }:Atom:0" class="event" cx="198" cy="29" r="8" fill-opacity="0"/>\n\t<circle id="function random() { [native code] }:Atom:1" class="event" cx="182" cy="38" r="8" fill-opacity="0"/>\n\t<circle id="function random() { [native code] }:Atom:2" class="event" cx="166" cy="29" r="8" fill-opacity="0"/>\n\t<circle id="function random() { [native code] }:Atom:3" class="event" cx="150" cy="38" r="8" fill-opacity="0"/>\n\t<circle id="function random() { [native code] }:Atom:4" class="event" cx="134" cy="29" r="8" fill-opacity="0"/>\n\t<circle id="function random() { [native code] }:Atom:5" class="event" cx="118" cy="38" r="8" fill-opacity="0"/>\n\t<circle id="function random() { [native code] }:Atom:6" class="event" cx="103" cy="29" r="8" fill-opacity="0"/>\n\t<circle id="function random() { [native code] }:Atom:7" class="event" cx="103" cy="10" r="8" fill-opacity="0"/>\n\t<circle id="function random() { [native code] }:Atom:8" class="event" cx="87" cy="38" r="8" fill-opacity="0"/>\n\t<circle id="function random() { [native code] }:Atom:9" class="event" cx="71" cy="29" r="8" fill-opacity="0"/>\n\t<circle id="function random() { [native code] }:Atom:10" class="event" cx="55" cy="38" r="8" fill-opacity="0"/>\n\t<circle id="function random() { [native code] }:Atom:11" class="event" cx="38" cy="32" r="8" fill-opacity="0"/>\n\t<circle id="function random() { [native code] }:Atom:12" class="event" cx="30" cy="16" r="8" fill-opacity="0"/>\n\t<circle id="function random() { [native code] }:Atom:13" class="event" cx="12" cy="14" r="8" fill-opacity="0"/>\n\t<circle id="function random() { [native code] }:Atom:14" class="event" cx="1" cy="28" r="8" fill-opacity="0"/>\n\t<circle id="function random() { [native code] }:Atom:15" class="event" cx="9" cy="45" r="8" fill-opacity="0"/>\n\t<circle id="function random() { [native code] }:Atom:16" class="event" cx="27" cy="47" r="8" fill-opacity="0"/>\n\t<circle id="function random() { [native code] }:Atom:17" class="event" cx="38" cy="62" r="8" fill-opacity="0"/>\n\t<circle id="function random() { [native code] }:Atom:18" class="event" cx="55" cy="56" r="8" fill-opacity="0"/>\n\t<circle id="function random() { [native code] }:Atom:19" class="event" cx="71" cy="65" r="8" fill-opacity="0"/>\n\t<circle id="function random() { [native code] }:Atom:20" class="event" cx="71" cy="84" r="8" fill-opacity="0"/>\n\t<circle id="function random() { [native code] }:Atom:21" class="event" cx="55" cy="93" r="8" fill-opacity="0"/>\n\t<circle id="function random() { [native code] }:Atom:22" class="event" cx="55" cy="111" r="8" fill-opacity="0"/>\n\t<circle id="function random() { [native code] }:Atom:23" class="event" cx="39" cy="120" r="8" fill-opacity="0"/>\n\t<circle id="function random() { [native code] }:Atom:24" class="event" cx="71" cy="120" r="8" fill-opacity="0"/>\n\t<circle id="function random() { [native code] }:Atom:25" class="event" cx="71" cy="139" r="8" fill-opacity="0"/>\n\t<circle id="function random() { [native code] }:Atom:26" class="event" cx="87" cy="111" r="8" fill-opacity="0"/>\n\t<circle id="function random() { [native code] }:Atom:27" class="event" cx="87" cy="93" r="8" fill-opacity="0"/>\n\t<circle id="function random() { [native code] }:Atom:28" class="event" cx="87" cy="56" r="8" fill-opacity="0"/>\n</svg>