<svg id="function random() { [native code] }" xmlns="http://www.w3.org/2000/svg" version="1.1" width="200px" height="150px" viewBox="0 0 200 150">\n\t<style> #function random() { [native code] } {pointer-events:none; }  #function random() { [native code] } .event  { pointer-events:all;}  </style>\n\t<text x="175" y="31" font-family=" Helvetica" font-weight="900" font-size="12" fill="rgb(48,80,248)">N</text>\n\t<text x="192" y="33" font-family=" Helvetica" font-weight="900" font-size="8" fill="rgb(48,80,248)">2</text>\n\t<text x="183" y="31" font-family=" Helvetica" font-weight="900" font-size="12" fill="rgb(48,80,248)">H</text>\n\t<text x="124" y="40" font-family=" Helvetica" font-weight="900" font-size="12" fill="rgb(48,80,248)">N</text>\n\t<text x="124" y="52" font-family=" Helvetica" font-weight="900" font-size="12" fill="rgb(48,80,248)">H</text>\n\t<text x="106" y="11" font-family=" Helvetica" font-weight="900" font-size="12" fill="rgb(255,13,13)">O</text>\n\t<text x="37" y="66" font-family=" Helvetica" font-weight="900" font-size="12" fill="rgb(48,80,248)">N</text>\n\t<text x="37" y="78" font-family=" Helvetica" font-weight="900" font-size="12" fill="rgb(48,80,248)">H</text>\n\t<text x="49" y="146" font-family=" Helvetica" font-weight="900" font-size="12" fill="rgb(144,224,80)">F</text>\n\t<text x="22" y="139" font-family=" Helvetica" font-weight="900" font-size="12" fill="rgb(144,224,80)">F</text>\n\t<text x="29" y="112" font-family=" Helvetica" font-weight="900" font-size="12" fill="rgb(144,224,80)">F</text>\n\t<text x="105" y="129" font-family=" Helvetica" font-weight="900" font-size="12" fill="rgb(166,41,41)">Br</text>\n\t<text x="89" y="60" font-family=" Helvetica" font-weight="900" font-size="12" fill="rgb(48,80,248)">N</text>\n\t<line x1="112" y1="27" x2="112" y2="13" style="stroke:rgb(0,0,0);stroke-width:1"/>\n\t<line x1="109" y1="27" x2="109" y2="13" style="stroke:rgb(0,0,0);stroke-width:1"/>\n\t<line x1="77" y1="27" x2="94" y2="36" style="stroke:rgb(0,0,0);stroke-width:1"/>\n\t<line x1="77" y1="30" x2="91" y2="38" style="stroke:rgb(0,0,0);stroke-width:1"/>\n\t<line x1="33" y1="12" x2="41" y2="30" style="stroke:rgb(0,0,0);stroke-width:1"/>\n\t<line x1="31" y1="15" x2="37" y2="30" style="stroke:rgb(0,0,0);stroke-width:1"/>\n\t<line x1="2" y1="26" x2="13" y2="10" style="stroke:rgb(0,0,0);stroke-width:1"/>\n\t<line x1="5" y1="26" x2="15" y2="14" style="stroke:rgb(0,0,0);stroke-width:1"/>\n\t<line x1="29" y1="46" x2="10" y2="44" style="stroke:rgb(0,0,0);stroke-width:1"/>\n\t<line x1="28" y1="43" x2="12" y2="41" style="stroke:rgb(0,0,0);stroke-width:1"/>\n\t<line x1="60" y1="56" x2="60" y2="36" style="stroke:rgb(0,0,0);stroke-width:1"/>\n\t<line x1="63" y1="54" x2="63" y2="39" style="stroke:rgb(0,0,0);stroke-width:1"/>\n\t<line x1="60" y1="96" x2="77" y2="86" style="stroke:rgb(0,0,0);stroke-width:1"/>\n\t<line x1="63" y1="97" x2="76" y2="89" style="stroke:rgb(0,0,0);stroke-width:1"/>\n\t<line x1="77" y1="125" x2="60" y2="115" style="stroke:rgb(0,0,0);stroke-width:1"/>\n\t<line x1="76" y1="121" x2="63" y2="114" style="stroke:rgb(0,0,0);stroke-width:1"/>\n\t<line x1="94" y1="96" x2="94" y2="115" style="stroke:rgb(0,0,0);stroke-width:1"/>\n\t<line x1="91" y1="98" x2="91" y2="113" style="stroke:rgb(0,0,0);stroke-width:1"/>\n\t<line x1="77" y1="66" x2="88" y2="59" style="stroke:rgb(0,0,0);stroke-width:1"/>\n\t<line x1="77" y1="62" x2="87" y2="57" style="stroke:rgb(0,0,0);stroke-width:1"/>\n\t<line x1="162" y1="36" x2="174" y2="30" style="stroke:rgb(0,0,0);stroke-width:1"/>\n\t<line x1="145" y1="27" x2="162" y2="36" style="stroke:rgb(0,0,0);stroke-width:1"/>\n\t<line x1="133" y1="33" x2="145" y2="27" style="stroke:rgb(0,0,0);stroke-width:1"/>\n\t<line x1="111" y1="27" x2="123" y2="33" style="stroke:rgb(0,0,0);stroke-width:1"/>\n\t<line x1="94" y1="36" x2="111" y2="27" style="stroke:rgb(0,0,0);stroke-width:1"/>\n\t<line x1="60" y1="36" x2="77" y2="27" style="stroke:rgb(0,0,0);stroke-width:1"/>\n\t<line x1="41" y1="30" x2="60" y2="36" style="stroke:rgb(0,0,0);stroke-width:1"/>\n\t<line x1="13" y1="10" x2="33" y2="12" style="stroke:rgb(0,0,0);stroke-width:1"/>\n\t<line x1="10" y1="44" x2="2" y2="26" style="stroke:rgb(0,0,0);stroke-width:1"/>\n\t<line x1="29" y1="46" x2="41" y2="30" style="stroke:rgb(0,0,0);stroke-width:1"/>\n\t<line x1="37" y1="56" x2="29" y2="46" style="stroke:rgb(0,0,0);stroke-width:1"/>\n\t<line x1="60" y1="56" x2="46" y2="60" style="stroke:rgb(0,0,0);stroke-width:1"/>\n\t<line x1="77" y1="66" x2="60" y2="56" style="stroke:rgb(0,0,0);stroke-width:1"/>\n\t<line x1="77" y1="86" x2="77" y2="66" style="stroke:rgb(0,0,0);stroke-width:1"/>\n\t<line x1="60" y1="115" x2="60" y2="96" style="stroke:rgb(0,0,0);stroke-width:1"/>\n\t<line x1="43" y1="125" x2="60" y2="115" style="stroke:rgb(0,0,0);stroke-width:1"/>\n\t<line x1="49" y1="136" x2="43" y2="125" style="stroke:rgb(0,0,0);stroke-width:1"/>\n\t<line x1="30" y1="132" x2="43" y2="125" style="stroke:rgb(0,0,0);stroke-width:1"/>\n\t<line x1="36" y1="114" x2="43" y2="125" style="stroke:rgb(0,0,0);stroke-width:1"/>\n\t<line x1="94" y1="115" x2="77" y2="125" style="stroke:rgb(0,0,0);stroke-width:1"/>\n\t<line x1="104" y1="121" x2="94" y2="115" style="stroke:rgb(0,0,0);stroke-width:1"/>\n\t<line x1="94" y1="96" x2="77" y2="86" style="stroke:rgb(0,0,0);stroke-width:1"/>\n\t<line x1="94" y1="50" x2="94" y2="36" style="stroke:rgb(0,0,0);stroke-width:1"/>\n\t<line id="function random() { [native code] }:Bond:5-4" class="event" x1="111" y1="7" x2="111" y2="27" stroke-width="8" stroke-opacity="0"/>\n\t<line id="function random() { [native code] }:Bond:7-6" class="event" x1="77" y1="27" x2="94" y2="36" stroke-width="8" stroke-opacity="0"/>\n\t<line id="function random() { [native code] }:Bond:10-9" class="event" x1="33" y1="12" x2="41" y2="30" stroke-width="8" stroke-opacity="0"/>\n\t<line id="function random() { [native code] }:Bond:12-11" class="event" x1="2" y1="26" x2="13" y2="10" stroke-width="8" stroke-opacity="0"/>\n\t<line id="function random() { [native code] }:Bond:14-13" class="event" x1="29" y1="46" x2="10" y2="44" stroke-width="8" stroke-opacity="0"/>\n\t<line id="function random() { [native code] }:Bond:16-8" class="event" x1="60" y1="56" x2="60" y2="36" stroke-width="8" stroke-opacity="0"/>\n\t<line id="function random() { [native code] }:Bond:19-18" class="event" x1="60" y1="96" x2="77" y2="86" stroke-width="8" stroke-opacity="0"/>\n\t<line id="function random() { [native code] }:Bond:25-20" class="event" x1="77" y1="125" x2="60" y2="115" stroke-width="8" stroke-opacity="0"/>\n\t<line id="function random() { [native code] }:Bond:28-26" class="event" x1="94" y1="96" x2="94" y2="115" stroke-width="8" stroke-opacity="0"/>\n\t<line id="function random() { [native code] }:Bond:29-17" class="event" x1="94" y1="56" x2="77" y2="66" stroke-width="8" stroke-opacity="0"/>\n\t<line id="function random() { [native code] }:Bond:1-0" class="event" x1="162" y1="36" x2="179" y2="27" stroke-width="8" stroke-opacity="0"/>\n\t<line id="function random() { [native code] }:Bond:2-1" class="event" x1="145" y1="27" x2="162" y2="36" stroke-width="8" stroke-opacity="0"/>\n\t<line id="function random() { [native code] }:Bond:3-2" class="event" x1="128" y1="36" x2="145" y2="27" stroke-width="8" stroke-opacity="0"/>\n\t<line id="function random() { [native code] }:Bond:4-3" class="event" x1="111" y1="27" x2="128" y2="36" stroke-width="8" stroke-opacity="0"/>\n\t<line id="function random() { [native code] }:Bond:6-4" class="event" x1="94" y1="36" x2="111" y2="27" stroke-width="8" stroke-opacity="0"/>\n\t<line id="function random() { [native code] }:Bond:8-7" class="event" x1="60" y1="36" x2="77" y2="27" stroke-width="8" stroke-opacity="0"/>\n\t<line id="function random() { [native code] }:Bond:9-8" class="event" x1="41" y1="30" x2="60" y2="36" stroke-width="8" stroke-opacity="0"/>\n\t<line id="function random() { [native code] }:Bond:11-10" class="event" x1="13" y1="10" x2="33" y2="12" stroke-width="8" stroke-opacity="0"/>\n\t<line id="function random() { [native code] }:Bond:13-12" class="event" x1="10" y1="44" x2="2" y2="26" stroke-width="8" stroke-opacity="0"/>\n\t<line id="function random() { [native code] }:Bond:14-9" class="event" x1="29" y1="46" x2="41" y2="30" stroke-width="8" stroke-opacity="0"/>\n\t<line id="function random() { [native code] }:Bond:15-14" class="event" x1="41" y1="62" x2="29" y2="46" stroke-width="8" stroke-opacity="0"/>\n\t<line id="function random() { [native code] }:Bond:16-15" class="event" x1="60" y1="56" x2="41" y2="62" stroke-width="8" stroke-opacity="0"/>\n\t<line id="function random() { [native code] }:Bond:17-16" class="event" x1="77" y1="66" x2="60" y2="56" stroke-width="8" stroke-opacity="0"/>\n\t<line id="function random() { [native code] }:Bond:18-17" class="event" x1="77" y1="86" x2="77" y2="66" stroke-width="8" stroke-opacity="0"/>\n\t<line id="function random() { [native code] }:Bond:20-19" class="event" x1="60" y1="115" x2="60" y2="96" stroke-width="8" stroke-opacity="0"/>\n\t<line id="function random() { [native code] }:Bond:21-20" class="event" x1="43" y1="125" x2="60" y2="115" stroke-width="8" stroke-opacity="0"/>\n\t<line id="function random() { [native code] }:Bond:22-21" class="event" x1="52" y1="142" x2="43" y2="125" stroke-width="8" stroke-opacity="0"/>\n\t<line id="function random() { [native code] }:Bond:23-21" class="event" x1="26" y1="135" x2="43" y2="125" stroke-width="8" stroke-opacity="0"/>\n\t<line id="function random() { [native code] }:Bond:24-21" class="event" x1="33" y1="108" x2="43" y2="125" stroke-width="8" stroke-opacity="0"/>\n\t<line id="function random() { [native code] }:Bond:26-25" class="event" x1="94" y1="115" x2="77" y2="125" stroke-width="8" stroke-opacity="0"/>\n\t<line id="function random() { [native code] }:Bond:27-26" class="event" x1="111" y1="125" x2="94" y2="115" stroke-width="8" stroke-opacity="0"/>\n\t<line id="function random() { [native code] }:Bond:28-18" class="event" x1="94" y1="96" x2="77" y2="86" stroke-width="8" stroke-opacity="0"/>\n\t<line id="function random() { [native code] }:Bond:29-6" class="event" x1="94" y1="56" x2="94" y2="36" stroke-width="8" stroke-opacity="0"/>\n\t<circle id="function random() { [native code] }:Atom:0" class="event" cx="179" cy="27" r="8" fill-opacity="0"/>\n\t<circle id="function random() { [native code] }:Atom:1" class="event" cx="162" cy="36" r="8" fill-opacity="0"/>\n\t<circle id="function random() { [native code] }:Atom:2" class="event" cx="145" cy="27" r="8" fill-opacity="0"/>\n\t<circle id="function random() { [native code] }:Atom:3" class="event" cx="128" cy="36" r="8" fill-opacity="0"/>\n\t<circle id="function random() { [native code] }:Atom:4" class="event" cx="111" cy="27" r="8" fill-opacity="0"/>\n\t<circle id="function random() { [native code] }:Atom:5" class="event" cx="111" cy="7" r="8" fill-opacity="0"/>\n\t<circle id="function random() { [native code] }:Atom:6" class="event" cx="94" cy="36" r="8" fill-opacity="0"/>\n\t<circle id="function random() { [native code] }:Atom:7" class="event" cx="77" cy="27" r="8" fill-opacity="0"/>\n\t<circle id="function random() { [native code] }:Atom:8" class="event" cx="60" cy="36" r="8" fill-opacity="0"/>\n\t<circle id="function random() { [native code] }:Atom:9" class="event" cx="41" cy="30" r="8" fill-opacity="0"/>\n\t<circle id="function random() { [native code] }:Atom:10" class="event" cx="33" cy="12" r="8" fill-opacity="0"/>\n\t<circle id="function random() { [native code] }:Atom:11" class="event" cx="13" cy="10" r="8" fill-opacity="0"/>\n\t<circle id="function random() { [native code] }:Atom:12" class="event" cx="2" cy="26" r="8" fill-opacity="0"/>\n\t<circle id="function random() { [native code] }:Atom:13" class="event" cx="10" cy="44" r="8" fill-opacity="0"/>\n\t<circle id="function random() { [native code] }:Atom:14" class="event" cx="29" cy="46" r="8" fill-opacity="0"/>\n\t<circle id="function random() { [native code] }:Atom:15" class="event" cx="41" cy="62" r="8" fill-opacity="0"/>\n\t<circle id="function random() { [native code] }:Atom:16" class="event" cx="60" cy="56" r="8" fill-opacity="0"/>\n\t<circle id="function random() { [native code] }:Atom:17" class="event" cx="77" cy="66" r="8" fill-opacity="0"/>\n\t<circle id="function random() { [native code] }:Atom:18" class="event" cx="77" cy="86" r="8" fill-opacity="0"/>\n\t<circle id="function random() { [native code] }:Atom:19" class="event" cx="60" cy="96" r="8" fill-opacity="0"/>\n\t<circle id="function random() { [native code] }:Atom:20" class="event" cx="60" cy="115" r="8" fill-opacity="0"/>\n\t<circle id="function random() { [native code] }:Atom:21" class="event" cx="43" cy="125" r="8" fill-opacity="0"/>\n\t<circle id="function random() { [native code] }:Atom:22" class="event" cx="52" cy="142" r="8" fill-opacity="0"/>\n\t<circle id="function random() { [native code] }:Atom:23" class="event" cx="26" cy="135" r="8" fill-opacity="0"/>\n\t<circle id="function random() { [native code] }:Atom:24" class="event" cx="33" cy="108" r="8" fill-opacity="0"/>\n\t<circle id="function random() { [native code] }:Atom:25" class="event" cx="77" cy="125" r="8" fill-opacity="0"/>\n\t<circle id="function random() { [native code] }:Atom:26" class="event" cx="94" cy="115" r="8" fill-opacity="0"/>\n\t<circle id="function random() { [native code] }:Atom:27" class="event" cx="111" cy="125" r="8" fill-opacity="0"/>\n\t<circle id="function random() { [native code] }:Atom:28" class="event" cx="94" cy="96" r="8" fill-opacity="0"/>\n\t<circle id="function random() { [native code] }:Atom:29" class="event" cx="94" cy="56" r="8" fill-opacity="0"/>\n</svg>