<svg id="function random() { [native code] }" xmlns="http://www.w3.org/2000/svg" version="1.1" width="200px" height="150px" viewBox="0 0 200 150">\n\t<style> #function random() { [native code] } {pointer-events:none; }  #function random() { [native code] } .event  { pointer-events:all;}  </style>\n\t<text x="145" y="118" font-family=" Helvetica" font-weight="900" font-size="12" fill="rgb(255,13,13)">O</text>\n\t<text x="110" y="118" font-family=" Helvetica" font-weight="900" font-size="12" fill="rgb(48,80,248)">N</text>\n\t<text x="110" y="130" font-family=" Helvetica" font-weight="900" font-size="12" fill="rgb(48,80,248)">H</text>\n\t<text x="39" y="118" font-family=" Helvetica" font-weight="900" font-size="12" fill="rgb(48,80,248)">N</text>\n\t<text x="3" y="139" font-family=" Helvetica" font-weight="900" font-size="12" fill="rgb(255,13,13)">O</text>\n\t<text x="132" y="26" font-family=" Helvetica" font-weight="900" font-size="12" fill="rgb(48,80,248)">N</text>\n\t<text x="123" y="26" font-family=" Helvetica" font-weight="900" font-size="12" fill="rgb(48,80,248)">H</text>\n\t<text x="37" y="16" font-family=" Helvetica" font-weight="900" font-size="12" fill="rgb(31,240,31)">Cl</text>\n\t<text x="37" y="57" font-family=" Helvetica" font-weight="900" font-size="12" fill="rgb(31,240,31)">Cl</text>\n\t<text x="110" y="77" font-family=" Helvetica" font-weight="900" font-size="12" fill="rgb(48,80,248)">N</text>\n\t<line x1="130" y1="105" x2="143" y2="113" style="stroke:rgb(0,0,0);stroke-width:1"/>\n\t<line x1="132" y1="102" x2="145" y2="110" style="stroke:rgb(0,0,0);stroke-width:1"/>\n\t<line x1="150" y1="73" x2="132" y2="84" style="stroke:rgb(0,0,0);stroke-width:1"/>\n\t<line x1="146" y1="72" x2="132" y2="80" style="stroke:rgb(0,0,0);stroke-width:1"/>\n\t<line x1="185" y1="41" x2="165" y2="39" style="stroke:rgb(0,0,0);stroke-width:1"/>\n\t<line x1="184" y1="38" x2="167" y2="36" style="stroke:rgb(0,0,0);stroke-width:1"/>\n\t<line x1="189" y1="6" x2="197" y2="25" style="stroke:rgb(0,0,0);stroke-width:1"/>\n\t<line x1="187" y1="9" x2="194" y2="24" style="stroke:rgb(0,0,0);stroke-width:1"/>\n\t<line x1="157" y1="20" x2="169" y2="4" style="stroke:rgb(0,0,0);stroke-width:1"/>\n\t<line x1="160" y1="20" x2="170" y2="7" style="stroke:rgb(0,0,0);stroke-width:1"/>\n\t<line x1="132" y1="43" x2="150" y2="53" style="stroke:rgb(0,0,0);stroke-width:1"/>\n\t<line x1="132" y1="46" x2="146" y2="54" style="stroke:rgb(0,0,0);stroke-width:1"/>\n\t<line x1="96" y1="22" x2="96" y2="43" style="stroke:rgb(0,0,0);stroke-width:1"/>\n\t<line x1="93" y1="24" x2="93" y2="40" style="stroke:rgb(0,0,0);stroke-width:1"/>\n\t<line x1="61" y1="22" x2="78" y2="12" style="stroke:rgb(0,0,0);stroke-width:1"/>\n\t<line x1="64" y1="24" x2="78" y2="16" style="stroke:rgb(0,0,0);stroke-width:1"/>\n\t<line x1="78" y1="53" x2="61" y2="43" style="stroke:rgb(0,0,0);stroke-width:1"/>\n\t<line x1="78" y1="49" x2="64" y2="41" style="stroke:rgb(0,0,0);stroke-width:1"/>\n\t<line x1="114" y1="53" x2="114" y2="67" style="stroke:rgb(0,0,0);stroke-width:1"/>\n\t<line x1="117" y1="55" x2="117" y2="67" style="stroke:rgb(0,0,0);stroke-width:1"/>\n\t<line x1="119" y1="111" x2="132" y2="104" style="stroke:rgb(0,0,0);stroke-width:1"/>\n\t<line x1="96" y1="104" x2="109" y2="111" style="stroke:rgb(0,0,0);stroke-width:1"/>\n\t<line x1="78" y1="114" x2="96" y2="104" style="stroke:rgb(0,0,0);stroke-width:1"/>\n\t<line x1="61" y1="104" x2="78" y2="114" style="stroke:rgb(0,0,0);stroke-width:1"/>\n\t<line x1="48" y1="111" x2="61" y2="104" style="stroke:rgb(0,0,0);stroke-width:1"/>\n\t<line x1="25" y1="104" x2="38" y2="111" style="stroke:rgb(0,0,0);stroke-width:1"/>\n\t<line x1="7" y1="114" x2="25" y2="104" style="stroke:rgb(0,0,0);stroke-width:1"/>\n\t<line x1="7" y1="129" x2="7" y2="114" style="stroke:rgb(0,0,0);stroke-width:1"/>\n\t<line x1="25" y1="145" x2="13" y2="138" style="stroke:rgb(0,0,0);stroke-width:1"/>\n\t<line x1="43" y1="135" x2="25" y2="145" style="stroke:rgb(0,0,0);stroke-width:1"/>\n\t<line x1="43" y1="135" x2="43" y2="120" style="stroke:rgb(0,0,0);stroke-width:1"/>\n\t<line x1="132" y1="84" x2="132" y2="104" style="stroke:rgb(0,0,0);stroke-width:1"/>\n\t<line x1="150" y1="53" x2="150" y2="73" style="stroke:rgb(0,0,0);stroke-width:1"/>\n\t<line x1="165" y1="39" x2="150" y2="53" style="stroke:rgb(0,0,0);stroke-width:1"/>\n\t<line x1="197" y1="25" x2="185" y2="41" style="stroke:rgb(0,0,0);stroke-width:1"/>\n\t<line x1="169" y1="4" x2="189" y2="6" style="stroke:rgb(0,0,0);stroke-width:1"/>\n\t<line x1="157" y1="20" x2="165" y2="39" style="stroke:rgb(0,0,0);stroke-width:1"/>\n\t<line x1="141" y1="22" x2="157" y2="20" style="stroke:rgb(0,0,0);stroke-width:1"/>\n\t<line x1="132" y1="43" x2="135" y2="28" style="stroke:rgb(0,0,0);stroke-width:1"/>\n\t<line x1="114" y1="53" x2="132" y2="43" style="stroke:rgb(0,0,0);stroke-width:1"/>\n\t<line x1="96" y1="43" x2="114" y2="53" style="stroke:rgb(0,0,0);stroke-width:1"/>\n\t<line x1="78" y1="12" x2="96" y2="22" style="stroke:rgb(0,0,0);stroke-width:1"/>\n\t<line x1="50" y1="16" x2="61" y2="22" style="stroke:rgb(0,0,0);stroke-width:1"/>\n\t<line x1="61" y1="43" x2="61" y2="22" style="stroke:rgb(0,0,0);stroke-width:1"/>\n\t<line x1="50" y1="49" x2="61" y2="43" style="stroke:rgb(0,0,0);stroke-width:1"/>\n\t<line x1="78" y1="53" x2="96" y2="43" style="stroke:rgb(0,0,0);stroke-width:1"/>\n\t<line x1="119" y1="76" x2="132" y2="84" style="stroke:rgb(0,0,0);stroke-width:1"/>\n\t<line id="function random() { [native code] }:Bond:1-0" class="event" x1="132" y1="104" x2="150" y2="114" stroke-width="8" stroke-opacity="0"/>\n\t<line id="function random() { [native code] }:Bond:13-12" class="event" x1="150" y1="73" x2="132" y2="84" stroke-width="8" stroke-opacity="0"/>\n\t<line id="function random() { [native code] }:Bond:16-15" class="event" x1="185" y1="41" x2="165" y2="39" stroke-width="8" stroke-opacity="0"/>\n\t<line id="function random() { [native code] }:Bond:18-17" class="event" x1="189" y1="6" x2="197" y2="25" stroke-width="8" stroke-opacity="0"/>\n\t<line id="function random() { [native code] }:Bond:20-19" class="event" x1="157" y1="20" x2="169" y2="4" stroke-width="8" stroke-opacity="0"/>\n\t<line id="function random() { [native code] }:Bond:22-14" class="event" x1="132" y1="43" x2="150" y2="53" stroke-width="8" stroke-opacity="0"/>\n\t<line id="function random() { [native code] }:Bond:25-24" class="event" x1="96" y1="22" x2="96" y2="43" stroke-width="8" stroke-opacity="0"/>\n\t<line id="function random() { [native code] }:Bond:27-26" class="event" x1="61" y1="22" x2="78" y2="12" stroke-width="8" stroke-opacity="0"/>\n\t<line id="function random() { [native code] }:Bond:31-29" class="event" x1="78" y1="53" x2="61" y2="43" stroke-width="8" stroke-opacity="0"/>\n\t<line id="function random() { [native code] }:Bond:32-23" class="event" x1="114" y1="73" x2="114" y2="53" stroke-width="8" stroke-opacity="0"/>\n\t<line id="function random() { [native code] }:Bond:2-1" class="event" x1="114" y1="114" x2="132" y2="104" stroke-width="8" stroke-opacity="0"/>\n\t<line id="function random() { [native code] }:Bond:3-2" class="event" x1="96" y1="104" x2="114" y2="114" stroke-width="8" stroke-opacity="0"/>\n\t<line id="function random() { [native code] }:Bond:4-3" class="event" x1="78" y1="114" x2="96" y2="104" stroke-width="8" stroke-opacity="0"/>\n\t<line id="function random() { [native code] }:Bond:5-4" class="event" x1="61" y1="104" x2="78" y2="114" stroke-width="8" stroke-opacity="0"/>\n\t<line id="function random() { [native code] }:Bond:6-5" class="event" x1="43" y1="114" x2="61" y2="104" stroke-width="8" stroke-opacity="0"/>\n\t<line id="function random() { [native code] }:Bond:7-6" class="event" x1="25" y1="104" x2="43" y2="114" stroke-width="8" stroke-opacity="0"/>\n\t<line id="function random() { [native code] }:Bond:8-7" class="event" x1="7" y1="114" x2="25" y2="104" stroke-width="8" stroke-opacity="0"/>\n\t<line id="function random() { [native code] }:Bond:9-8" class="event" x1="7" y1="135" x2="7" y2="114" stroke-width="8" stroke-opacity="0"/>\n\t<line id="function random() { [native code] }:Bond:10-9" class="event" x1="25" y1="145" x2="7" y2="135" stroke-width="8" stroke-opacity="0"/>\n\t<line id="function random() { [native code] }:Bond:11-10" class="event" x1="43" y1="135" x2="25" y2="145" stroke-width="8" stroke-opacity="0"/>\n\t<line id="function random() { [native code] }:Bond:11-6" class="event" x1="43" y1="135" x2="43" y2="114" stroke-width="8" stroke-opacity="0"/>\n\t<line id="function random() { [native code] }:Bond:12-1" class="event" x1="132" y1="84" x2="132" y2="104" stroke-width="8" stroke-opacity="0"/>\n\t<line id="function random() { [native code] }:Bond:14-13" class="event" x1="150" y1="53" x2="150" y2="73" stroke-width="8" stroke-opacity="0"/>\n\t<line id="function random() { [native code] }:Bond:15-14" class="event" x1="165" y1="39" x2="150" y2="53" stroke-width="8" stroke-opacity="0"/>\n\t<line id="function random() { [native code] }:Bond:17-16" class="event" x1="197" y1="25" x2="185" y2="41" stroke-width="8" stroke-opacity="0"/>\n\t<line id="function random() { [native code] }:Bond:19-18" class="event" x1="169" y1="4" x2="189" y2="6" stroke-width="8" stroke-opacity="0"/>\n\t<line id="function random() { [native code] }:Bond:20-15" class="event" x1="157" y1="20" x2="165" y2="39" stroke-width="8" stroke-opacity="0"/>\n\t<line id="function random() { [native code] }:Bond:21-20" class="event" x1="136" y1="22" x2="157" y2="20" stroke-width="8" stroke-opacity="0"/>\n\t<line id="function random() { [native code] }:Bond:22-21" class="event" x1="132" y1="43" x2="136" y2="22" stroke-width="8" stroke-opacity="0"/>\n\t<line id="function random() { [native code] }:Bond:23-22" class="event" x1="114" y1="53" x2="132" y2="43" stroke-width="8" stroke-opacity="0"/>\n\t<line id="function random() { [native code] }:Bond:24-23" class="event" x1="96" y1="43" x2="114" y2="53" stroke-width="8" stroke-opacity="0"/>\n\t<line id="function random() { [native code] }:Bond:26-25" class="event" x1="78" y1="12" x2="96" y2="22" stroke-width="8" stroke-opacity="0"/>\n\t<line id="function random() { [native code] }:Bond:28-27" class="event" x1="43" y1="12" x2="61" y2="22" stroke-width="8" stroke-opacity="0"/>\n\t<line id="function random() { [native code] }:Bond:29-27" class="event" x1="61" y1="43" x2="61" y2="22" stroke-width="8" stroke-opacity="0"/>\n\t<line id="function random() { [native code] }:Bond:30-29" class="event" x1="43" y1="53" x2="61" y2="43" stroke-width="8" stroke-opacity="0"/>\n\t<line id="function random() { [native code] }:Bond:31-24" class="event" x1="78" y1="53" x2="96" y2="43" stroke-width="8" stroke-opacity="0"/>\n\t<line id="function random() { [native code] }:Bond:32-12" class="event" x1="114" y1="73" x2="132" y2="84" stroke-width="8" stroke-opacity="0"/>\n\t<circle id="function random() { [native code] }:Atom:0" class="event" cx="150" cy="114" r="8" fill-opacity="0"/>\n\t<circle id="function random() { [native code] }:Atom:1" class="event" cx="132" cy="104" r="8" fill-opacity="0"/>\n\t<circle id="function random() { [native code] }:Atom:2" class="event" cx="114" cy="114" r="8" fill-opacity="0"/>\n\t<circle id="function random() { [native code] }:Atom:3" class="event" cx="96" cy="104" r="8" fill-opacity="0"/>\n\t<circle id="function random() { [native code] }:Atom:4" class="event" cx="78" cy="114" r="8" fill-opacity="0"/>\n\t<circle id="function random() { [native code] }:Atom:5" class="event" cx="61" cy="104" r="8" fill-opacity="0"/>\n\t<circle id="function random() { [native code] }:Atom:6" class="event" cx="43" cy="114" r="8" fill-opacity="0"/>\n\t<circle id="function random() { [native code] }:Atom:7" class="event" cx="25" cy="104" r="8" fill-opacity="0"/>\n\t<circle id="function random() { [native code] }:Atom:8" class="event" cx="7" cy="114" r="8" fill-opacity="0"/>\n\t<circle id="function random() { [native code] }:Atom:9" class="event" cx="7" cy="135" r="8" fill-opacity="0"/>\n\t<circle id="function random() { [native code] }:Atom:10" class="event" cx="25" cy="145" r="8" fill-opacity="0"/>\n\t<circle id="function random() { [native code] }:Atom:11" class="event" cx="43" cy="135" r="8" fill-opacity="0"/>\n\t<circle id="function random() { [native code] }:Atom:12" class="event" cx="132" cy="84" r="8" fill-opacity="0"/>\n\t<circle id="function random() { [native code] }:Atom:13" class="event" cx="150" cy="73" r="8" fill-opacity="0"/>\n\t<circle id="function random() { [native code] }:Atom:14" class="event" cx="150" cy="53" r="8" fill-opacity="0"/>\n\t<circle id="function random() { [native code] }:Atom:15" class="event" cx="165" cy="39" r="8" fill-opacity="0"/>\n\t<circle id="function random() { [native code] }:Atom:16" class="event" cx="185" cy="41" r="8" fill-opacity="0"/>\n\t<circle id="function random() { [native code] }:Atom:17" class="event" cx="197" cy="25" r="8" fill-opacity="0"/>\n\t<circle id="function random() { [native code] }:Atom:18" class="event" cx="189" cy="6" r="8" fill-opacity="0"/>\n\t<circle id="function random() { [native code] }:Atom:19" class="event" cx="169" cy="4" r="8" fill-opacity="0"/>\n\t<circle id="function random() { [native code] }:Atom:20" class="event" cx="157" cy="20" r="8" fill-opacity="0"/>\n\t<circle id="function random() { [native code] }:Atom:21" class="event" cx="136" cy="22" r="8" fill-opacity="0"/>\n\t<circle id="function random() { [native code] }:Atom:22" class="event" cx="132" cy="43" r="8" fill-opacity="0"/>\n\t<circle id="function random() { [native code] }:Atom:23" class="event" cx="114" cy="53" r="8" fill-opacity="0"/>\n\t<circle id="function random() { [native code] }:Atom:24" class="event" cx="96" cy="43" r="8" fill-opacity="0"/>\n\t<circle id="function random() { [native code] }:Atom:25" class="event" cx="96" cy="22" r="8" fill-opacity="0"/>\n\t<circle id="function random() { [native code] }:Atom:26" class="event" cx="78" cy="12" r="8" fill-opacity="0"/>\n\t<circle id="function random() { [native code] }:Atom:27" class="event" cx="61" cy="22" r="8" fill-opacity="0"/>\n\t<circle id="function random() { [native code] }:Atom:28" class="event" cx="43" cy="12" r="8" fill-opacity="0"/>\n\t<circle id="function random() { [native code] }:Atom:29" class="event" cx="61" cy="43" r="8" fill-opacity="0"/>\n\t<circle id="function random() { [native code] }:Atom:30" class="event" cx="43" cy="53" r="8" fill-opacity="0"/>\n\t<circle id="function random() { [native code] }:Atom:31" class="event" cx="78" cy="53" r="8" fill-opacity="0"/>\n\t<circle id="function random() { [native code] }:Atom:32" class="event" cx="114" cy="73" r="8" fill-opacity="0"/>\n</svg>