<svg id="function random() { [native code] }" xmlns="http://www.w3.org/2000/svg" version="1.1" width="200px" height="150px" viewBox="0 0 200 150">\n\t<style> #function random() { [native code] } {pointer-events:none; }  #function random() { [native code] } .event  { pointer-events:all;}  </style>\n\t<text x="105" y="23" font-family=" Helvetica" font-weight="900" font-size="9" fill="rgb(255,13,13)">O</text>\n\t<text x="92" y="46" font-family=" Helvetica" font-weight="900" font-size="9" fill="rgb(48,80,248)">N</text>\n\t<text x="92" y="55" font-family=" Helvetica" font-weight="900" font-size="9" fill="rgb(48,80,248)">H</text>\n\t<text x="51" y="39" font-family=" Helvetica" font-weight="900" font-size="9" fill="rgb(48,80,248)">N</text>\n\t<text x="51" y="30" font-family=" Helvetica" font-weight="900" font-size="9" fill="rgb(48,80,248)">H</text>\n\t<text x="11" y="46" font-family=" Helvetica" font-weight="900" font-size="9" fill="rgb(255,13,13)">O</text>\n\t<text x="4" y="46" font-family=" Helvetica" font-weight="900" font-size="9" fill="rgb(255,13,13)">H</text>\n\t<text x="119" y="62" font-family=" Helvetica" font-weight="900" font-size="9" fill="rgb(48,80,248)">N</text>\n\t<text x="105" y="116" font-family=" Helvetica" font-weight="900" font-size="9" fill="rgb(31,240,31)">Cl</text>\n\t<text x="132" y="132" font-family=" Helvetica" font-weight="900" font-size="9" fill="rgb(31,240,31)">Cl</text>\n\t<text x="161" y="67" font-family=" Helvetica" font-weight="900" font-size="9" fill="rgb(48,80,248)">N</text>\n\t<text x="167" y="67" font-family=" Helvetica" font-weight="900" font-size="9" fill="rgb(48,80,248)">H</text>\n\t<line x1="195" y1="35" x2="189" y2="49" style="stroke:rgb(0,0,0);stroke-width:1"/>\n\t<line x1="192" y1="36" x2="187" y2="47" style="stroke:rgb(0,0,0);stroke-width:1"/>\n\t<line x1="170" y1="24" x2="186" y2="23" style="stroke:rgb(0,0,0);stroke-width:1"/>\n\t<line x1="172" y1="26" x2="185" y2="25" style="stroke:rgb(0,0,0);stroke-width:1"/>\n\t<line x1="136" y1="36" x2="149" y2="43" style="stroke:rgb(0,0,0);stroke-width:1"/>\n\t<line x1="136" y1="38" x2="147" y2="45" style="stroke:rgb(0,0,0);stroke-width:1"/>\n\t<line x1="110" y1="36" x2="110" y2="24" style="stroke:rgb(0,0,0);stroke-width:1"/>\n\t<line x1="108" y1="36" x2="108" y2="24" style="stroke:rgb(0,0,0);stroke-width:1"/>\n\t<line x1="122" y1="43" x2="122" y2="55" style="stroke:rgb(0,0,0);stroke-width:1"/>\n\t<line x1="125" y1="45" x2="125" y2="55" style="stroke:rgb(0,0,0);stroke-width:1"/>\n\t<line x1="122" y1="90" x2="136" y2="82" style="stroke:rgb(0,0,0);stroke-width:1"/>\n\t<line x1="125" y1="91" x2="135" y2="85" style="stroke:rgb(0,0,0);stroke-width:1"/>\n\t<line x1="136" y1="113" x2="122" y2="106" style="stroke:rgb(0,0,0);stroke-width:1"/>\n\t<line x1="135" y1="111" x2="125" y2="104" style="stroke:rgb(0,0,0);stroke-width:1"/>\n\t<line x1="149" y1="90" x2="149" y2="106" style="stroke:rgb(0,0,0);stroke-width:1"/>\n\t<line x1="147" y1="92" x2="147" y2="104" style="stroke:rgb(0,0,0);stroke-width:1"/>\n\t<line x1="149" y1="59" x2="136" y2="67" style="stroke:rgb(0,0,0);stroke-width:1"/>\n\t<line x1="147" y1="58" x2="136" y2="64" style="stroke:rgb(0,0,0);stroke-width:1"/>\n\t<line x1="173" y1="51" x2="164" y2="38" style="stroke:rgb(0,0,0);stroke-width:1"/>\n\t<line x1="174" y1="48" x2="167" y2="38" style="stroke:rgb(0,0,0);stroke-width:1"/>\n\t<line x1="189" y1="49" x2="198" y2="62" style="stroke:rgb(0,0,0);stroke-width:1"/>\n\t<line x1="186" y1="23" x2="195" y2="35" style="stroke:rgb(0,0,0);stroke-width:1"/>\n\t<line x1="164" y1="38" x2="170" y2="24" style="stroke:rgb(0,0,0);stroke-width:1"/>\n\t<line x1="149" y1="43" x2="164" y2="38" style="stroke:rgb(0,0,0);stroke-width:1"/>\n\t<line x1="122" y1="43" x2="136" y2="36" style="stroke:rgb(0,0,0);stroke-width:1"/>\n\t<line x1="109" y1="36" x2="122" y2="43" style="stroke:rgb(0,0,0);stroke-width:1"/>\n\t<line x1="100" y1="41" x2="109" y2="36" style="stroke:rgb(0,0,0);stroke-width:1"/>\n\t<line x1="82" y1="36" x2="91" y2="41" style="stroke:rgb(0,0,0);stroke-width:1"/>\n\t<line x1="68" y1="43" x2="82" y2="36" style="stroke:rgb(0,0,0);stroke-width:1"/>\n\t<line x1="59" y1="38" x2="68" y2="43" style="stroke:rgb(0,0,0);stroke-width:1"/>\n\t<line x1="41" y1="43" x2="50" y2="38" style="stroke:rgb(0,0,0);stroke-width:1"/>\n\t<line x1="28" y1="36" x2="41" y2="43" style="stroke:rgb(0,0,0);stroke-width:1"/>\n\t<line x1="19" y1="41" x2="28" y2="36" style="stroke:rgb(0,0,0);stroke-width:1"/>\n\t<line x1="136" y1="67" x2="127" y2="61" style="stroke:rgb(0,0,0);stroke-width:1"/>\n\t<line x1="136" y1="82" x2="136" y2="67" style="stroke:rgb(0,0,0);stroke-width:1"/>\n\t<line x1="122" y1="106" x2="122" y2="90" style="stroke:rgb(0,0,0);stroke-width:1"/>\n\t<line x1="114" y1="110" x2="122" y2="106" style="stroke:rgb(0,0,0);stroke-width:1"/>\n\t<line x1="136" y1="125" x2="136" y2="113" style="stroke:rgb(0,0,0);stroke-width:1"/>\n\t<line x1="149" y1="106" x2="136" y2="113" style="stroke:rgb(0,0,0);stroke-width:1"/>\n\t<line x1="149" y1="90" x2="136" y2="82" style="stroke:rgb(0,0,0);stroke-width:1"/>\n\t<line x1="149" y1="59" x2="149" y2="43" style="stroke:rgb(0,0,0);stroke-width:1"/>\n\t<line x1="160" y1="62" x2="149" y2="59" style="stroke:rgb(0,0,0);stroke-width:1"/>\n\t<line x1="173" y1="51" x2="167" y2="60" style="stroke:rgb(0,0,0);stroke-width:1"/>\n\t<line x1="173" y1="51" x2="189" y2="49" style="stroke:rgb(0,0,0);stroke-width:1"/>\n\t<line id="function random() { [native code] }:Bond:2-1" class="event" x1="195" y1="35" x2="189" y2="49" stroke-width="8" stroke-opacity="0"/>\n\t<line id="function random() { [native code] }:Bond:4-3" class="event" x1="170" y1="24" x2="186" y2="23" stroke-width="8" stroke-opacity="0"/>\n\t<line id="function random() { [native code] }:Bond:7-6" class="event" x1="136" y1="36" x2="149" y2="43" stroke-width="8" stroke-opacity="0"/>\n\t<line id="function random() { [native code] }:Bond:10-9" class="event" x1="109" y1="20" x2="109" y2="36" stroke-width="8" stroke-opacity="0"/>\n\t<line id="function random() { [native code] }:Bond:18-8" class="event" x1="122" y1="59" x2="122" y2="43" stroke-width="8" stroke-opacity="0"/>\n\t<line id="function random() { [native code] }:Bond:21-20" class="event" x1="122" y1="90" x2="136" y2="82" stroke-width="8" stroke-opacity="0"/>\n\t<line id="function random() { [native code] }:Bond:24-22" class="event" x1="136" y1="113" x2="122" y2="106" stroke-width="8" stroke-opacity="0"/>\n\t<line id="function random() { [native code] }:Bond:27-26" class="event" x1="149" y1="90" x2="149" y2="106" stroke-width="8" stroke-opacity="0"/>\n\t<line id="function random() { [native code] }:Bond:28-19" class="event" x1="149" y1="59" x2="136" y2="67" stroke-width="8" stroke-opacity="0"/>\n\t<line id="function random() { [native code] }:Bond:30-5" class="event" x1="173" y1="51" x2="164" y2="38" stroke-width="8" stroke-opacity="0"/>\n\t<line id="function random() { [native code] }:Bond:1-0" class="event" x1="189" y1="49" x2="198" y2="62" stroke-width="8" stroke-opacity="0"/>\n\t<line id="function random() { [native code] }:Bond:3-2" class="event" x1="186" y1="23" x2="195" y2="35" stroke-width="8" stroke-opacity="0"/>\n\t<line id="function random() { [native code] }:Bond:5-4" class="event" x1="164" y1="38" x2="170" y2="24" stroke-width="8" stroke-opacity="0"/>\n\t<line id="function random() { [native code] }:Bond:6-5" class="event" x1="149" y1="43" x2="164" y2="38" stroke-width="8" stroke-opacity="0"/>\n\t<line id="function random() { [native code] }:Bond:8-7" class="event" x1="122" y1="43" x2="136" y2="36" stroke-width="8" stroke-opacity="0"/>\n\t<line id="function random() { [native code] }:Bond:9-8" class="event" x1="109" y1="36" x2="122" y2="43" stroke-width="8" stroke-opacity="0"/>\n\t<line id="function random() { [native code] }:Bond:11-9" class="event" x1="95" y1="43" x2="109" y2="36" stroke-width="8" stroke-opacity="0"/>\n\t<line id="function random() { [native code] }:Bond:12-11" class="event" x1="82" y1="36" x2="95" y2="43" stroke-width="8" stroke-opacity="0"/>\n\t<line id="function random() { [native code] }:Bond:13-12" class="event" x1="68" y1="43" x2="82" y2="36" stroke-width="8" stroke-opacity="0"/>\n\t<line id="function random() { [native code] }:Bond:14-13" class="event" x1="55" y1="36" x2="68" y2="43" stroke-width="8" stroke-opacity="0"/>\n\t<line id="function random() { [native code] }:Bond:15-14" class="event" x1="41" y1="43" x2="55" y2="36" stroke-width="8" stroke-opacity="0"/>\n\t<line id="function random() { [native code] }:Bond:16-15" class="event" x1="28" y1="36" x2="41" y2="43" stroke-width="8" stroke-opacity="0"/>\n\t<line id="function random() { [native code] }:Bond:17-16" class="event" x1="14" y1="43" x2="28" y2="36" stroke-width="8" stroke-opacity="0"/>\n\t<line id="function random() { [native code] }:Bond:19-18" class="event" x1="136" y1="67" x2="122" y2="59" stroke-width="8" stroke-opacity="0"/>\n\t<line id="function random() { [native code] }:Bond:20-19" class="event" x1="136" y1="82" x2="136" y2="67" stroke-width="8" stroke-opacity="0"/>\n\t<line id="function random() { [native code] }:Bond:22-21" class="event" x1="122" y1="106" x2="122" y2="90" stroke-width="8" stroke-opacity="0"/>\n\t<line id="function random() { [native code] }:Bond:23-22" class="event" x1="109" y1="113" x2="122" y2="106" stroke-width="8" stroke-opacity="0"/>\n\t<line id="function random() { [native code] }:Bond:25-24" class="event" x1="136" y1="129" x2="136" y2="113" stroke-width="8" stroke-opacity="0"/>\n\t<line id="function random() { [native code] }:Bond:26-24" class="event" x1="149" y1="106" x2="136" y2="113" stroke-width="8" stroke-opacity="0"/>\n\t<line id="function random() { [native code] }:Bond:27-20" class="event" x1="149" y1="90" x2="136" y2="82" stroke-width="8" stroke-opacity="0"/>\n\t<line id="function random() { [native code] }:Bond:28-6" class="event" x1="149" y1="59" x2="149" y2="43" stroke-width="8" stroke-opacity="0"/>\n\t<line id="function random() { [native code] }:Bond:29-28" class="event" x1="164" y1="64" x2="149" y2="59" stroke-width="8" stroke-opacity="0"/>\n\t<line id="function random() { [native code] }:Bond:30-29" class="event" x1="173" y1="51" x2="164" y2="64" stroke-width="8" stroke-opacity="0"/>\n\t<line id="function random() { [native code] }:Bond:30-1" class="event" x1="173" y1="51" x2="189" y2="49" stroke-width="8" stroke-opacity="0"/>\n\t<circle id="function random() { [native code] }:Atom:0" class="event" cx="198" cy="62" r="8" fill-opacity="0"/>\n\t<circle id="function random() { [native code] }:Atom:1" class="event" cx="189" cy="49" r="8" fill-opacity="0"/>\n\t<circle id="function random() { [native code] }:Atom:2" class="event" cx="195" cy="35" r="8" fill-opacity="0"/>\n\t<circle id="function random() { [native code] }:Atom:3" class="event" cx="186" cy="23" r="8" fill-opacity="0"/>\n\t<circle id="function random() { [native code] }:Atom:4" class="event" cx="170" cy="24" r="8" fill-opacity="0"/>\n\t<circle id="function random() { [native code] }:Atom:5" class="event" cx="164" cy="38" r="8" fill-opacity="0"/>\n\t<circle id="function random() { [native code] }:Atom:6" class="event" cx="149" cy="43" r="8" fill-opacity="0"/>\n\t<circle id="function random() { [native code] }:Atom:7" class="event" cx="136" cy="36" r="8" fill-opacity="0"/>\n\t<circle id="function random() { [native code] }:Atom:8" class="event" cx="122" cy="43" r="8" fill-opacity="0"/>\n\t<circle id="function random() { [native code] }:Atom:9" class="event" cx="109" cy="36" r="8" fill-opacity="0"/>\n\t<circle id="function random() { [native code] }:Atom:10" class="event" cx="109" cy="20" r="8" fill-opacity="0"/>\n\t<circle id="function random() { [native code] }:Atom:11" class="event" cx="95" cy="43" r="8" fill-opacity="0"/>\n\t<circle id="function random() { [native code] }:Atom:12" class="event" cx="82" cy="36" r="8" fill-opacity="0"/>\n\t<circle id="function random() { [native code] }:Atom:13" class="event" cx="68" cy="43" r="8" fill-opacity="0"/>\n\t<circle id="function random() { [native code] }:Atom:14" class="event" cx="55" cy="36" r="8" fill-opacity="0"/>\n\t<circle id="function random() { [native code] }:Atom:15" class="event" cx="41" cy="43" r="8" fill-opacity="0"/>\n\t<circle id="function random() { [native code] }:Atom:16" class="event" cx="28" cy="36" r="8" fill-opacity="0"/>\n\t<circle id="function random() { [native code] }:Atom:17" class="event" cx="14" cy="43" r="8" fill-opacity="0"/>\n\t<circle id="function random() { [native code] }:Atom:18" class="event" cx="122" cy="59" r="8" fill-opacity="0"/>\n\t<circle id="function random() { [native code] }:Atom:19" class="event" cx="136" cy="67" r="8" fill-opacity="0"/>\n\t<circle id="function random() { [native code] }:Atom:20" class="event" cx="136" cy="82" r="8" fill-opacity="0"/>\n\t<circle id="function random() { [native code] }:Atom:21" class="event" cx="122" cy="90" r="8" fill-opacity="0"/>\n\t<circle id="function random() { [native code] }:Atom:22" class="event" cx="122" cy="106" r="8" fill-opacity="0"/>\n\t<circle id="function random() { [native code] }:Atom:23" class="event" cx="109" cy="113" r="8" fill-opacity="0"/>\n\t<circle id="function random() { [native code] }:Atom:24" class="event" cx="136" cy="113" r="8" fill-opacity="0"/>\n\t<circle id="function random() { [native code] }:Atom:25" class="event" cx="136" cy="129" r="8" fill-opacity="0"/>\n\t<circle id="function random() { [native code] }:Atom:26" class="event" cx="149" cy="106" r="8" fill-opacity="0"/>\n\t<circle id="function random() { [native code] }:Atom:27" class="event" cx="149" cy="90" r="8" fill-opacity="0"/>\n\t<circle id="function random() { [native code] }:Atom:28" class="event" cx="149" cy="59" r="8" fill-opacity="0"/>\n\t<circle id="function random() { [native code] }:Atom:29" class="event" cx="164" cy="64" r="8" fill-opacity="0"/>\n\t<circle id="function random() { [native code] }:Atom:30" class="event" cx="173" cy="51" r="8" fill-opacity="0"/>\n</svg>