<svg id="function random() { [native code] }" xmlns="http://www.w3.org/2000/svg" version="1.1" width="200px" height="150px" viewBox="0 0 200 150">\n\t<style> #function random() { [native code] } {pointer-events:none; }  #function random() { [native code] } .event  { pointer-events:all;}  </style>\n\t<text x="158" y="23" font-family=" Helvetica" font-weight="900" font-size="9" fill="rgb(48,80,248)">N</text>\n\t<text x="158" y="14" font-family=" Helvetica" font-weight="900" font-size="9" fill="rgb(48,80,248)">H</text>\n\t<text x="118" y="30" font-family=" Helvetica" font-weight="900" font-size="9" fill="rgb(48,80,248)">N</text>\n\t<text x="118" y="39" font-family=" Helvetica" font-weight="900" font-size="9" fill="rgb(48,80,248)">H</text>\n\t<text x="105" y="8" font-family=" Helvetica" font-weight="900" font-size="9" fill="rgb(255,13,13)">O</text>\n\t<text x="52" y="50" font-family=" Helvetica" font-weight="900" font-size="9" fill="rgb(48,80,248)">N</text>\n\t<text x="52" y="59" font-family=" Helvetica" font-weight="900" font-size="9" fill="rgb(48,80,248)">H</text>\n\t<text x="79" y="98" font-family=" Helvetica" font-weight="900" font-size="9" fill="rgb(48,80,248)">N</text>\n\t<text x="92" y="121" font-family=" Helvetica" font-weight="900" font-size="9" fill="rgb(255,13,13)">O</text>\n\t<text x="66" y="121" font-family=" Helvetica" font-weight="900" font-size="9" fill="rgb(255,13,13)">O</text>\n\t<text x="92" y="46" font-family=" Helvetica" font-weight="900" font-size="9" fill="rgb(48,80,248)">N</text>\n\t<line x1="110" y1="21" x2="110" y2="9" style="stroke:rgb(0,0,0);stroke-width:1"/>\n\t<line x1="107" y1="21" x2="107" y2="9" style="stroke:rgb(0,0,0);stroke-width:1"/>\n\t<line x1="83" y1="20" x2="96" y2="27" style="stroke:rgb(0,0,0);stroke-width:1"/>\n\t<line x1="83" y1="23" x2="93" y2="29" style="stroke:rgb(0,0,0);stroke-width:1"/>\n\t<line x1="49" y1="9" x2="55" y2="23" style="stroke:rgb(0,0,0);stroke-width:1"/>\n\t<line x1="48" y1="11" x2="52" y2="22" style="stroke:rgb(0,0,0);stroke-width:1"/>\n\t<line x1="25" y1="20" x2="34" y2="7" style="stroke:rgb(0,0,0);stroke-width:1"/>\n\t<line x1="28" y1="20" x2="35" y2="10" style="stroke:rgb(0,0,0);stroke-width:1"/>\n\t<line x1="46" y1="35" x2="31" y2="33" style="stroke:rgb(0,0,0);stroke-width:1"/>\n\t<line x1="45" y1="33" x2="33" y2="31" style="stroke:rgb(0,0,0);stroke-width:1"/>\n\t<line x1="69" y1="43" x2="69" y2="27" style="stroke:rgb(0,0,0);stroke-width:1"/>\n\t<line x1="72" y1="41" x2="72" y2="29" style="stroke:rgb(0,0,0);stroke-width:1"/>\n\t<line x1="81" y1="111" x2="90" y2="116" style="stroke:rgb(0,0,0);stroke-width:1"/>\n\t<line x1="83" y1="109" x2="92" y2="114" style="stroke:rgb(0,0,0);stroke-width:1"/>\n\t<line x1="83" y1="50" x2="91" y2="45" style="stroke:rgb(0,0,0);stroke-width:1"/>\n\t<line x1="83" y1="47" x2="90" y2="43" style="stroke:rgb(0,0,0);stroke-width:1"/>\n\t<line x1="165" y1="22" x2="174" y2="27" style="stroke:rgb(0,0,0);stroke-width:1"/>\n\t<line x1="148" y1="27" x2="157" y2="22" style="stroke:rgb(0,0,0);stroke-width:1"/>\n\t<line x1="135" y1="20" x2="148" y2="27" style="stroke:rgb(0,0,0);stroke-width:1"/>\n\t<line x1="126" y1="25" x2="135" y2="20" style="stroke:rgb(0,0,0);stroke-width:1"/>\n\t<line x1="109" y1="20" x2="117" y2="25" style="stroke:rgb(0,0,0);stroke-width:1"/>\n\t<line x1="96" y1="27" x2="109" y2="20" style="stroke:rgb(0,0,0);stroke-width:1"/>\n\t<line x1="69" y1="27" x2="83" y2="20" style="stroke:rgb(0,0,0);stroke-width:1"/>\n\t<line x1="55" y1="23" x2="69" y2="27" style="stroke:rgb(0,0,0);stroke-width:1"/>\n\t<line x1="34" y1="7" x2="49" y2="9" style="stroke:rgb(0,0,0);stroke-width:1"/>\n\t<line x1="31" y1="33" x2="25" y2="20" style="stroke:rgb(0,0,0);stroke-width:1"/>\n\t<line x1="46" y1="35" x2="55" y2="23" style="stroke:rgb(0,0,0);stroke-width:1"/>\n\t<line x1="52" y1="43" x2="46" y2="35" style="stroke:rgb(0,0,0);stroke-width:1"/>\n\t<line x1="69" y1="43" x2="59" y2="46" style="stroke:rgb(0,0,0);stroke-width:1"/>\n\t<line x1="83" y1="50" x2="69" y2="43" style="stroke:rgb(0,0,0);stroke-width:1"/>\n\t<line x1="83" y1="65" x2="83" y2="50" style="stroke:rgb(0,0,0);stroke-width:1"/>\n\t<line x1="69" y1="73" x2="83" y2="65" style="stroke:rgb(0,0,0);stroke-width:1"/>\n\t<line x1="69" y1="88" x2="69" y2="73" style="stroke:rgb(0,0,0);stroke-width:1"/>\n\t<line x1="78" y1="93" x2="69" y2="88" style="stroke:rgb(0,0,0);stroke-width:1"/>\n\t<line x1="83" y1="110" x2="83" y2="99" style="stroke:rgb(0,0,0);stroke-width:1"/>\n\t<line x1="74" y1="115" x2="83" y2="110" style="stroke:rgb(0,0,0);stroke-width:1"/>\n\t<line x1="69" y1="133" x2="69" y2="122" style="stroke:rgb(0,0,0);stroke-width:1"/>\n\t<line x1="85" y1="133" x2="69" y2="133" style="stroke:rgb(0,0,0);stroke-width:1"/>\n\t<line x1="69" y1="148" x2="69" y2="133" style="stroke:rgb(0,0,0);stroke-width:1"/>\n\t<line x1="54" y1="133" x2="69" y2="133" style="stroke:rgb(0,0,0);stroke-width:1"/>\n\t<line x1="96" y1="88" x2="87" y2="93" style="stroke:rgb(0,0,0);stroke-width:1"/>\n\t<line x1="96" y1="73" x2="96" y2="88" style="stroke:rgb(0,0,0);stroke-width:1"/>\n\t<line x1="96" y1="73" x2="83" y2="65" style="stroke:rgb(0,0,0);stroke-width:1"/>\n\t<line x1="96" y1="39" x2="96" y2="27" style="stroke:rgb(0,0,0);stroke-width:1"/>\n\t<line id="function random() { [native code] }:Bond:6-5" class="event" x1="109" y1="5" x2="109" y2="20" stroke-width="8" stroke-opacity="0"/>\n\t<line id="function random() { [native code] }:Bond:8-7" class="event" x1="83" y1="20" x2="96" y2="27" stroke-width="8" stroke-opacity="0"/>\n\t<line id="function random() { [native code] }:Bond:11-10" class="event" x1="49" y1="9" x2="55" y2="23" stroke-width="8" stroke-opacity="0"/>\n\t<line id="function random() { [native code] }:Bond:13-12" class="event" x1="25" y1="20" x2="34" y2="7" stroke-width="8" stroke-opacity="0"/>\n\t<line id="function random() { [native code] }:Bond:15-14" class="event" x1="46" y1="35" x2="31" y2="33" stroke-width="8" stroke-opacity="0"/>\n\t<line id="function random() { [native code] }:Bond:17-9" class="event" x1="69" y1="43" x2="69" y2="27" stroke-width="8" stroke-opacity="0"/>\n\t<line id="function random() { [native code] }:Bond:24-23" class="event" x1="96" y1="118" x2="83" y2="110" stroke-width="8" stroke-opacity="0"/>\n\t<line id="function random() { [native code] }:Bond:32-18" class="event" x1="96" y1="43" x2="83" y2="50" stroke-width="8" stroke-opacity="0"/>\n\t<line id="function random() { [native code] }:Bond:1-0" class="event" x1="161" y1="20" x2="174" y2="27" stroke-width="8" stroke-opacity="0"/>\n\t<line id="function random() { [native code] }:Bond:2-1" class="event" x1="148" y1="27" x2="161" y2="20" stroke-width="8" stroke-opacity="0"/>\n\t<line id="function random() { [native code] }:Bond:3-2" class="event" x1="135" y1="20" x2="148" y2="27" stroke-width="8" stroke-opacity="0"/>\n\t<line id="function random() { [native code] }:Bond:4-3" class="event" x1="122" y1="27" x2="135" y2="20" stroke-width="8" stroke-opacity="0"/>\n\t<line id="function random() { [native code] }:Bond:5-4" class="event" x1="109" y1="20" x2="122" y2="27" stroke-width="8" stroke-opacity="0"/>\n\t<line id="function random() { [native code] }:Bond:7-5" class="event" x1="96" y1="27" x2="109" y2="20" stroke-width="8" stroke-opacity="0"/>\n\t<line id="function random() { [native code] }:Bond:9-8" class="event" x1="69" y1="27" x2="83" y2="20" stroke-width="8" stroke-opacity="0"/>\n\t<line id="function random() { [native code] }:Bond:10-9" class="event" x1="55" y1="23" x2="69" y2="27" stroke-width="8" stroke-opacity="0"/>\n\t<line id="function random() { [native code] }:Bond:12-11" class="event" x1="34" y1="7" x2="49" y2="9" stroke-width="8" stroke-opacity="0"/>\n\t<line id="function random() { [native code] }:Bond:14-13" class="event" x1="31" y1="33" x2="25" y2="20" stroke-width="8" stroke-opacity="0"/>\n\t<line id="function random() { [native code] }:Bond:15-10" class="event" x1="46" y1="35" x2="55" y2="23" stroke-width="8" stroke-opacity="0"/>\n\t<line id="function random() { [native code] }:Bond:16-15" class="event" x1="55" y1="47" x2="46" y2="35" stroke-width="8" stroke-opacity="0"/>\n\t<line id="function random() { [native code] }:Bond:17-16" class="event" x1="69" y1="43" x2="55" y2="47" stroke-width="8" stroke-opacity="0"/>\n\t<line id="function random() { [native code] }:Bond:18-17" class="event" x1="83" y1="50" x2="69" y2="43" stroke-width="8" stroke-opacity="0"/>\n\t<line id="function random() { [native code] }:Bond:19-18" class="event" x1="83" y1="65" x2="83" y2="50" stroke-width="8" stroke-opacity="0"/>\n\t<line id="function random() { [native code] }:Bond:20-19" class="event" x1="69" y1="73" x2="83" y2="65" stroke-width="8" stroke-opacity="0"/>\n\t<line id="function random() { [native code] }:Bond:21-20" class="event" x1="69" y1="88" x2="69" y2="73" stroke-width="8" stroke-opacity="0"/>\n\t<line id="function random() { [native code] }:Bond:22-21" class="event" x1="83" y1="95" x2="69" y2="88" stroke-width="8" stroke-opacity="0"/>\n\t<line id="function random() { [native code] }:Bond:23-22" class="event" x1="83" y1="110" x2="83" y2="95" stroke-width="8" stroke-opacity="0"/>\n\t<line id="function random() { [native code] }:Bond:25-23" class="event" x1="69" y1="118" x2="83" y2="110" stroke-width="8" stroke-opacity="0"/>\n\t<line id="function random() { [native code] }:Bond:26-25" class="event" x1="69" y1="133" x2="69" y2="118" stroke-width="8" stroke-opacity="0"/>\n\t<line id="function random() { [native code] }:Bond:27-26" class="event" x1="85" y1="133" x2="69" y2="133" stroke-width="8" stroke-opacity="0"/>\n\t<line id="function random() { [native code] }:Bond:28-26" class="event" x1="69" y1="148" x2="69" y2="133" stroke-width="8" stroke-opacity="0"/>\n\t<line id="function random() { [native code] }:Bond:29-26" class="event" x1="54" y1="133" x2="69" y2="133" stroke-width="8" stroke-opacity="0"/>\n\t<line id="function random() { [native code] }:Bond:30-22" class="event" x1="96" y1="88" x2="83" y2="95" stroke-width="8" stroke-opacity="0"/>\n\t<line id="function random() { [native code] }:Bond:31-30" class="event" x1="96" y1="73" x2="96" y2="88" stroke-width="8" stroke-opacity="0"/>\n\t<line id="function random() { [native code] }:Bond:31-19" class="event" x1="96" y1="73" x2="83" y2="65" stroke-width="8" stroke-opacity="0"/>\n\t<line id="function random() { [native code] }:Bond:32-7" class="event" x1="96" y1="43" x2="96" y2="27" stroke-width="8" stroke-opacity="0"/>\n\t<circle id="function random() { [native code] }:Atom:0" class="event" cx="174" cy="27" r="8" fill-opacity="0"/>\n\t<circle id="function random() { [native code] }:Atom:1" class="event" cx="161" cy="20" r="8" fill-opacity="0"/>\n\t<circle id="function random() { [native code] }:Atom:2" class="event" cx="148" cy="27" r="8" fill-opacity="0"/>\n\t<circle id="function random() { [native code] }:Atom:3" class="event" cx="135" cy="20" r="8" fill-opacity="0"/>\n\t<circle id="function random() { [native code] }:Atom:4" class="event" cx="122" cy="27" r="8" fill-opacity="0"/>\n\t<circle id="function random() { [native code] }:Atom:5" class="event" cx="109" cy="20" r="8" fill-opacity="0"/>\n\t<circle id="function random() { [native code] }:Atom:6" class="event" cx="109" cy="5" r="8" fill-opacity="0"/>\n\t<circle id="function random() { [native code] }:Atom:7" class="event" cx="96" cy="27" r="8" fill-opacity="0"/>\n\t<circle id="function random() { [native code] }:Atom:8" class="event" cx="83" cy="20" r="8" fill-opacity="0"/>\n\t<circle id="function random() { [native code] }:Atom:9" class="event" cx="69" cy="27" r="8" fill-opacity="0"/>\n\t<circle id="function random() { [native code] }:Atom:10" class="event" cx="55" cy="23" r="8" fill-opacity="0"/>\n\t<circle id="function random() { [native code] }:Atom:11" class="event" cx="49" cy="9" r="8" fill-opacity="0"/>\n\t<circle id="function random() { [native code] }:Atom:12" class="event" cx="34" cy="7" r="8" fill-opacity="0"/>\n\t<circle id="function random() { [native code] }:Atom:13" class="event" cx="25" cy="20" r="8" fill-opacity="0"/>\n\t<circle id="function random() { [native code] }:Atom:14" class="event" cx="31" cy="33" r="8" fill-opacity="0"/>\n\t<circle id="function random() { [native code] }:Atom:15" class="event" cx="46" cy="35" r="8" fill-opacity="0"/>\n\t<circle id="function random() { [native code] }:Atom:16" class="event" cx="55" cy="47" r="8" fill-opacity="0"/>\n\t<circle id="function random() { [native code] }:Atom:17" class="event" cx="69" cy="43" r="8" fill-opacity="0"/>\n\t<circle id="function random() { [native code] }:Atom:18" class="event" cx="83" cy="50" r="8" fill-opacity="0"/>\n\t<circle id="function random() { [native code] }:Atom:19" class="event" cx="83" cy="65" r="8" fill-opacity="0"/>\n\t<circle id="function random() { [native code] }:Atom:20" class="event" cx="69" cy="73" r="8" fill-opacity="0"/>\n\t<circle id="function random() { [native code] }:Atom:21" class="event" cx="69" cy="88" r="8" fill-opacity="0"/>\n\t<circle id="function random() { [native code] }:Atom:22" class="event" cx="83" cy="95" r="8" fill-opacity="0"/>\n\t<circle id="function random() { [native code] }:Atom:23" class="event" cx="83" cy="110" r="8" fill-opacity="0"/>\n\t<circle id="function random() { [native code] }:Atom:24" class="event" cx="96" cy="118" r="8" fill-opacity="0"/>\n\t<circle id="function random() { [native code] }:Atom:25" class="event" cx="69" cy="118" r="8" fill-opacity="0"/>\n\t<circle id="function random() { [native code] }:Atom:26" class="event" cx="69" cy="133" r="8" fill-opacity="0"/>\n\t<circle id="function random() { [native code] }:Atom:27" class="event" cx="85" cy="133" r="8" fill-opacity="0"/>\n\t<circle id="function random() { [native code] }:Atom:28" class="event" cx="69" cy="148" r="8" fill-opacity="0"/>\n\t<circle id="function random() { [native code] }:Atom:29" class="event" cx="54" cy="133" r="8" fill-opacity="0"/>\n\t<circle id="function random() { [native code] }:Atom:30" class="event" cx="96" cy="88" r="8" fill-opacity="0"/>\n\t<circle id="function random() { [native code] }:Atom:31" class="event" cx="96" cy="73" r="8" fill-opacity="0"/>\n\t<circle id="function random() { [native code] }:Atom:32" class="event" cx="96" cy="43" r="8" fill-opacity="0"/>\n</svg>