<svg id="function random() { [native code] }" xmlns="http://www.w3.org/2000/svg" version="1.1" width="200px" height="150px" viewBox="0 0 200 150">\n\t<style> #function random() { [native code] } {pointer-events:none; }  #function random() { [native code] } .event  { pointer-events:all;}  </style>\n\t<text x="172" y="29" font-family=" Helvetica" font-weight="900" font-size="11" fill="rgb(48,80,248)">N</text>\n\t<text x="172" y="18" font-family=" Helvetica" font-weight="900" font-size="11" fill="rgb(48,80,248)">H</text>\n\t<text x="123" y="38" font-family=" Helvetica" font-weight="900" font-size="11" fill="rgb(48,80,248)">N</text>\n\t<text x="123" y="49" font-family=" Helvetica" font-weight="900" font-size="11" fill="rgb(48,80,248)">H</text>\n\t<text x="107" y="10" font-family=" Helvetica" font-weight="900" font-size="11" fill="rgb(255,13,13)">O</text>\n\t<text x="40" y="63" font-family=" Helvetica" font-weight="900" font-size="11" fill="rgb(48,80,248)">N</text>\n\t<text x="40" y="74" font-family=" Helvetica" font-weight="900" font-size="11" fill="rgb(48,80,248)">H</text>\n\t<text x="42" y="122" font-family=" Helvetica" font-weight="900" font-size="11" fill="rgb(255,13,13)">O</text>\n\t<text x="74" y="141" font-family=" Helvetica" font-weight="900" font-size="11" fill="rgb(255,13,13)">O</text>\n\t<text x="91" y="57" font-family=" Helvetica" font-weight="900" font-size="11" fill="rgb(48,80,248)">N</text>\n\t<line x1="112" y1="27" x2="112" y2="12" style="stroke:rgb(0,0,0);stroke-width:1"/>\n\t<line x1="109" y1="27" x2="109" y2="12" style="stroke:rgb(0,0,0);stroke-width:1"/>\n\t<line x1="78" y1="26" x2="95" y2="35" style="stroke:rgb(0,0,0);stroke-width:1"/>\n\t<line x1="79" y1="29" x2="91" y2="37" style="stroke:rgb(0,0,0);stroke-width:1"/>\n\t<line x1="37" y1="12" x2="44" y2="29" style="stroke:rgb(0,0,0);stroke-width:1"/>\n\t<line x1="35" y1="15" x2="41" y2="29" style="stroke:rgb(0,0,0);stroke-width:1"/>\n\t<line x1="7" y1="25" x2="18" y2="10" style="stroke:rgb(0,0,0);stroke-width:1"/>\n\t<line x1="10" y1="25" x2="19" y2="14" style="stroke:rgb(0,0,0);stroke-width:1"/>\n\t<line x1="33" y1="44" x2="15" y2="43" style="stroke:rgb(0,0,0);stroke-width:1"/>\n\t<line x1="32" y1="41" x2="17" y2="40" style="stroke:rgb(0,0,0);stroke-width:1"/>\n\t<line x1="62" y1="54" x2="62" y2="35" style="stroke:rgb(0,0,0);stroke-width:1"/>\n\t<line x1="65" y1="52" x2="65" y2="37" style="stroke:rgb(0,0,0);stroke-width:1"/>\n\t<line x1="62" y1="91" x2="78" y2="82" style="stroke:rgb(0,0,0);stroke-width:1"/>\n\t<line x1="65" y1="93" x2="78" y2="85" style="stroke:rgb(0,0,0);stroke-width:1"/>\n\t<line x1="78" y1="119" x2="62" y2="110" style="stroke:rgb(0,0,0);stroke-width:1"/>\n\t<line x1="78" y1="116" x2="65" y2="109" style="stroke:rgb(0,0,0);stroke-width:1"/>\n\t<line x1="95" y1="91" x2="95" y2="110" style="stroke:rgb(0,0,0);stroke-width:1"/>\n\t<line x1="92" y1="93" x2="92" y2="108" style="stroke:rgb(0,0,0);stroke-width:1"/>\n\t<line x1="78" y1="63" x2="90" y2="57" style="stroke:rgb(0,0,0);stroke-width:1"/>\n\t<line x1="79" y1="60" x2="88" y2="54" style="stroke:rgb(0,0,0);stroke-width:1"/>\n\t<line x1="181" y1="29" x2="192" y2="35" style="stroke:rgb(0,0,0);stroke-width:1"/>\n\t<line x1="160" y1="35" x2="171" y2="29" style="stroke:rgb(0,0,0);stroke-width:1"/>\n\t<line x1="143" y1="26" x2="160" y2="35" style="stroke:rgb(0,0,0);stroke-width:1"/>\n\t<line x1="132" y1="32" x2="143" y2="26" style="stroke:rgb(0,0,0);stroke-width:1"/>\n\t<line x1="111" y1="26" x2="122" y2="32" style="stroke:rgb(0,0,0);stroke-width:1"/>\n\t<line x1="95" y1="35" x2="111" y2="26" style="stroke:rgb(0,0,0);stroke-width:1"/>\n\t<line x1="62" y1="35" x2="78" y2="26" style="stroke:rgb(0,0,0);stroke-width:1"/>\n\t<line x1="44" y1="29" x2="62" y2="35" style="stroke:rgb(0,0,0);stroke-width:1"/>\n\t<line x1="18" y1="10" x2="37" y2="12" style="stroke:rgb(0,0,0);stroke-width:1"/>\n\t<line x1="15" y1="43" x2="7" y2="25" style="stroke:rgb(0,0,0);stroke-width:1"/>\n\t<line x1="33" y1="44" x2="44" y2="29" style="stroke:rgb(0,0,0);stroke-width:1"/>\n\t<line x1="41" y1="55" x2="33" y2="44" style="stroke:rgb(0,0,0);stroke-width:1"/>\n\t<line x1="62" y1="54" x2="49" y2="58" style="stroke:rgb(0,0,0);stroke-width:1"/>\n\t<line x1="78" y1="63" x2="62" y2="54" style="stroke:rgb(0,0,0);stroke-width:1"/>\n\t<line x1="78" y1="82" x2="78" y2="63" style="stroke:rgb(0,0,0);stroke-width:1"/>\n\t<line x1="62" y1="110" x2="62" y2="91" style="stroke:rgb(0,0,0);stroke-width:1"/>\n\t<line x1="51" y1="116" x2="62" y2="110" style="stroke:rgb(0,0,0);stroke-width:1"/>\n\t<line x1="46" y1="138" x2="46" y2="124" style="stroke:rgb(0,0,0);stroke-width:1"/>\n\t<line x1="78" y1="133" x2="78" y2="119" style="stroke:rgb(0,0,0);stroke-width:1"/>\n\t<line x1="95" y1="148" x2="84" y2="141" style="stroke:rgb(0,0,0);stroke-width:1"/>\n\t<line x1="95" y1="110" x2="78" y2="119" style="stroke:rgb(0,0,0);stroke-width:1"/>\n\t<line x1="95" y1="91" x2="78" y2="82" style="stroke:rgb(0,0,0);stroke-width:1"/>\n\t<line x1="95" y1="49" x2="95" y2="35" style="stroke:rgb(0,0,0);stroke-width:1"/>\n\t<line id="function random() { [native code] }:Bond:6-5" class="event" x1="111" y1="7" x2="111" y2="26" stroke-width="8" stroke-opacity="0"/>\n\t<line id="function random() { [native code] }:Bond:8-7" class="event" x1="78" y1="26" x2="95" y2="35" stroke-width="8" stroke-opacity="0"/>\n\t<line id="function random() { [native code] }:Bond:11-10" class="event" x1="37" y1="12" x2="44" y2="29" stroke-width="8" stroke-opacity="0"/>\n\t<line id="function random() { [native code] }:Bond:13-12" class="event" x1="7" y1="25" x2="18" y2="10" stroke-width="8" stroke-opacity="0"/>\n\t<line id="function random() { [native code] }:Bond:15-14" class="event" x1="33" y1="44" x2="15" y2="43" stroke-width="8" stroke-opacity="0"/>\n\t<line id="function random() { [native code] }:Bond:17-9" class="event" x1="62" y1="54" x2="62" y2="35" stroke-width="8" stroke-opacity="0"/>\n\t<line id="function random() { [native code] }:Bond:20-19" class="event" x1="62" y1="91" x2="78" y2="82" stroke-width="8" stroke-opacity="0"/>\n\t<line id="function random() { [native code] }:Bond:24-21" class="event" x1="78" y1="119" x2="62" y2="110" stroke-width="8" stroke-opacity="0"/>\n\t<line id="function random() { [native code] }:Bond:28-27" class="event" x1="95" y1="91" x2="95" y2="110" stroke-width="8" stroke-opacity="0"/>\n\t<line id="function random() { [native code] }:Bond:29-18" class="event" x1="95" y1="54" x2="78" y2="63" stroke-width="8" stroke-opacity="0"/>\n\t<line id="function random() { [native code] }:Bond:1-0" class="event" x1="176" y1="26" x2="192" y2="35" stroke-width="8" stroke-opacity="0"/>\n\t<line id="function random() { [native code] }:Bond:2-1" class="event" x1="160" y1="35" x2="176" y2="26" stroke-width="8" stroke-opacity="0"/>\n\t<line id="function random() { [native code] }:Bond:3-2" class="event" x1="143" y1="26" x2="160" y2="35" stroke-width="8" stroke-opacity="0"/>\n\t<line id="function random() { [native code] }:Bond:4-3" class="event" x1="127" y1="35" x2="143" y2="26" stroke-width="8" stroke-opacity="0"/>\n\t<line id="function random() { [native code] }:Bond:5-4" class="event" x1="111" y1="26" x2="127" y2="35" stroke-width="8" stroke-opacity="0"/>\n\t<line id="function random() { [native code] }:Bond:7-5" class="event" x1="95" y1="35" x2="111" y2="26" stroke-width="8" stroke-opacity="0"/>\n\t<line id="function random() { [native code] }:Bond:9-8" class="event" x1="62" y1="35" x2="78" y2="26" stroke-width="8" stroke-opacity="0"/>\n\t<line id="function random() { [native code] }:Bond:10-9" class="event" x1="44" y1="29" x2="62" y2="35" stroke-width="8" stroke-opacity="0"/>\n\t<line id="function random() { [native code] }:Bond:12-11" class="event" x1="18" y1="10" x2="37" y2="12" stroke-width="8" stroke-opacity="0"/>\n\t<line id="function random() { [native code] }:Bond:14-13" class="event" x1="15" y1="43" x2="7" y2="25" stroke-width="8" stroke-opacity="0"/>\n\t<line id="function random() { [native code] }:Bond:15-10" class="event" x1="33" y1="44" x2="44" y2="29" stroke-width="8" stroke-opacity="0"/>\n\t<line id="function random() { [native code] }:Bond:16-15" class="event" x1="44" y1="60" x2="33" y2="44" stroke-width="8" stroke-opacity="0"/>\n\t<line id="function random() { [native code] }:Bond:17-16" class="event" x1="62" y1="54" x2="44" y2="60" stroke-width="8" stroke-opacity="0"/>\n\t<line id="function random() { [native code] }:Bond:18-17" class="event" x1="78" y1="63" x2="62" y2="54" stroke-width="8" stroke-opacity="0"/>\n\t<line id="function random() { [native code] }:Bond:19-18" class="event" x1="78" y1="82" x2="78" y2="63" stroke-width="8" stroke-opacity="0"/>\n\t<line id="function random() { [native code] }:Bond:21-20" class="event" x1="62" y1="110" x2="62" y2="91" stroke-width="8" stroke-opacity="0"/>\n\t<line id="function random() { [native code] }:Bond:22-21" class="event" x1="46" y1="119" x2="62" y2="110" stroke-width="8" stroke-opacity="0"/>\n\t<line id="function random() { [native code] }:Bond:23-22" class="event" x1="46" y1="138" x2="46" y2="119" stroke-width="8" stroke-opacity="0"/>\n\t<line id="function random() { [native code] }:Bond:25-24" class="event" x1="78" y1="138" x2="78" y2="119" stroke-width="8" stroke-opacity="0"/>\n\t<line id="function random() { [native code] }:Bond:26-25" class="event" x1="95" y1="148" x2="78" y2="138" stroke-width="8" stroke-opacity="0"/>\n\t<line id="function random() { [native code] }:Bond:27-24" class="event" x1="95" y1="110" x2="78" y2="119" stroke-width="8" stroke-opacity="0"/>\n\t<line id="function random() { [native code] }:Bond:28-19" class="event" x1="95" y1="91" x2="78" y2="82" stroke-width="8" stroke-opacity="0"/>\n\t<line id="function random() { [native code] }:Bond:29-7" class="event" x1="95" y1="54" x2="95" y2="35" stroke-width="8" stroke-opacity="0"/>\n\t<circle id="function random() { [native code] }:Atom:0" class="event" cx="192" cy="35" r="8" fill-opacity="0"/>\n\t<circle id="function random() { [native code] }:Atom:1" class="event" cx="176" cy="26" r="8" fill-opacity="0"/>\n\t<circle id="function random() { [native code] }:Atom:2" class="event" cx="160" cy="35" r="8" fill-opacity="0"/>\n\t<circle id="function random() { [native code] }:Atom:3" class="event" cx="143" cy="26" r="8" fill-opacity="0"/>\n\t<circle id="function random() { [native code] }:Atom:4" class="event" cx="127" cy="35" r="8" fill-opacity="0"/>\n\t<circle id="function random() { [native code] }:Atom:5" class="event" cx="111" cy="26" r="8" fill-opacity="0"/>\n\t<circle id="function random() { [native code] }:Atom:6" class="event" cx="111" cy="7" r="8" fill-opacity="0"/>\n\t<circle id="function random() { [native code] }:Atom:7" class="event" cx="95" cy="35" r="8" fill-opacity="0"/>\n\t<circle id="function random() { [native code] }:Atom:8" class="event" cx="78" cy="26" r="8" fill-opacity="0"/>\n\t<circle id="function random() { [native code] }:Atom:9" class="event" cx="62" cy="35" r="8" fill-opacity="0"/>\n\t<circle id="function random() { [native code] }:Atom:10" class="event" cx="44" cy="29" r="8" fill-opacity="0"/>\n\t<circle id="function random() { [native code] }:Atom:11" class="event" cx="37" cy="12" r="8" fill-opacity="0"/>\n\t<circle id="function random() { [native code] }:Atom:12" class="event" cx="18" cy="10" r="8" fill-opacity="0"/>\n\t<circle id="function random() { [native code] }:Atom:13" class="event" cx="7" cy="25" r="8" fill-opacity="0"/>\n\t<circle id="function random() { [native code] }:Atom:14" class="event" cx="15" cy="43" r="8" fill-opacity="0"/>\n\t<circle id="function random() { [native code] }:Atom:15" class="event" cx="33" cy="44" r="8" fill-opacity="0"/>\n\t<circle id="function random() { [native code] }:Atom:16" class="event" cx="44" cy="60" r="8" fill-opacity="0"/>\n\t<circle id="function random() { [native code] }:Atom:17" class="event" cx="62" cy="54" r="8" fill-opacity="0"/>\n\t<circle id="function random() { [native code] }:Atom:18" class="event" cx="78" cy="63" r="8" fill-opacity="0"/>\n\t<circle id="function random() { [native code] }:Atom:19" class="event" cx="78" cy="82" r="8" fill-opacity="0"/>\n\t<circle id="function random() { [native code] }:Atom:20" class="event" cx="62" cy="91" r="8" fill-opacity="0"/>\n\t<circle id="function random() { [native code] }:Atom:21" class="event" cx="62" cy="110" r="8" fill-opacity="0"/>\n\t<circle id="function random() { [native code] }:Atom:22" class="event" cx="46" cy="119" r="8" fill-opacity="0"/>\n\t<circle id="function random() { [native code] }:Atom:23" class="event" cx="46" cy="138" r="8" fill-opacity="0"/>\n\t<circle id="function random() { [native code] }:Atom:24" class="event" cx="78" cy="119" r="8" fill-opacity="0"/>\n\t<circle id="function random() { [native code] }:Atom:25" class="event" cx="78" cy="138" r="8" fill-opacity="0"/>\n\t<circle id="function random() { [native code] }:Atom:26" class="event" cx="95" cy="148" r="8" fill-opacity="0"/>\n\t<circle id="function random() { [native code] }:Atom:27" class="event" cx="95" cy="110" r="8" fill-opacity="0"/>\n\t<circle id="function random() { [native code] }:Atom:28" class="event" cx="95" cy="91" r="8" fill-opacity="0"/>\n\t<circle id="function random() { [native code] }:Atom:29" class="event" cx="95" cy="54" r="8" fill-opacity="0"/>\n</svg>