<svg id="function random() { [native code] }" xmlns="http://www.w3.org/2000/svg" version="1.1" width="200px" height="150px" viewBox="0 0 200 150">\n\t<style> #function random() { [native code] } {pointer-events:none; }  #function random() { [native code] } .event  { pointer-events:all;}  </style>\n\t<text x="173" y="30" font-family=" Helvetica" font-weight="900" font-size="12" fill="rgb(48,80,248)">N</text>\n\t<text x="190" y="32" font-family=" Helvetica" font-weight="900" font-size="8" fill="rgb(48,80,248)">2</text>\n\t<text x="182" y="30" font-family=" Helvetica" font-weight="900" font-size="12" fill="rgb(48,80,248)">H</text>\n\t<text x="123" y="40" font-family=" Helvetica" font-weight="900" font-size="12" fill="rgb(48,80,248)">N</text>\n\t<text x="123" y="52" font-family=" Helvetica" font-weight="900" font-size="12" fill="rgb(48,80,248)">H</text>\n\t<text x="106" y="11" font-family=" Helvetica" font-weight="900" font-size="12" fill="rgb(255,13,13)">O</text>\n\t<text x="38" y="65" font-family=" Helvetica" font-weight="900" font-size="12" fill="rgb(48,80,248)">N</text>\n\t<text x="38" y="77" font-family=" Helvetica" font-weight="900" font-size="12" fill="rgb(48,80,248)">H</text>\n\t<text x="40" y="127" font-family=" Helvetica" font-weight="900" font-size="12" fill="rgb(144,224,80)">F</text>\n\t<text x="71" y="146" font-family=" Helvetica" font-weight="900" font-size="12" fill="rgb(166,41,41)">Br</text>\n\t<text x="89" y="59" font-family=" Helvetica" font-weight="900" font-size="12" fill="rgb(48,80,248)">N</text>\n\t<line x1="112" y1="27" x2="112" y2="13" style="stroke:rgb(0,0,0);stroke-width:1"/>\n\t<line x1="109" y1="27" x2="109" y2="13" style="stroke:rgb(0,0,0);stroke-width:1"/>\n\t<line x1="77" y1="26" x2="94" y2="36" style="stroke:rgb(0,0,0);stroke-width:1"/>\n\t<line x1="77" y1="30" x2="91" y2="37" style="stroke:rgb(0,0,0);stroke-width:1"/>\n\t<line x1="34" y1="12" x2="42" y2="30" style="stroke:rgb(0,0,0);stroke-width:1"/>\n\t<line x1="32" y1="15" x2="38" y2="29" style="stroke:rgb(0,0,0);stroke-width:1"/>\n\t<line x1="3" y1="26" x2="15" y2="10" style="stroke:rgb(0,0,0);stroke-width:1"/>\n\t<line x1="7" y1="26" x2="16" y2="14" style="stroke:rgb(0,0,0);stroke-width:1"/>\n\t<line x1="31" y1="46" x2="11" y2="43" style="stroke:rgb(0,0,0);stroke-width:1"/>\n\t<line x1="29" y1="42" x2="14" y2="41" style="stroke:rgb(0,0,0);stroke-width:1"/>\n\t<line x1="60" y1="55" x2="60" y2="36" style="stroke:rgb(0,0,0);stroke-width:1"/>\n\t<line x1="63" y1="53" x2="63" y2="38" style="stroke:rgb(0,0,0);stroke-width:1"/>\n\t<line x1="60" y1="94" x2="77" y2="84" style="stroke:rgb(0,0,0);stroke-width:1"/>\n\t<line x1="64" y1="95" x2="77" y2="88" style="stroke:rgb(0,0,0);stroke-width:1"/>\n\t<line x1="77" y1="123" x2="60" y2="113" style="stroke:rgb(0,0,0);stroke-width:1"/>\n\t<line x1="77" y1="119" x2="64" y2="112" style="stroke:rgb(0,0,0);stroke-width:1"/>\n\t<line x1="94" y1="94" x2="94" y2="113" style="stroke:rgb(0,0,0);stroke-width:1"/>\n\t<line x1="91" y1="96" x2="91" y2="111" style="stroke:rgb(0,0,0);stroke-width:1"/>\n\t<line x1="77" y1="65" x2="88" y2="58" style="stroke:rgb(0,0,0);stroke-width:1"/>\n\t<line x1="77" y1="61" x2="87" y2="56" style="stroke:rgb(0,0,0);stroke-width:1"/>\n\t<line x1="161" y1="36" x2="172" y2="29" style="stroke:rgb(0,0,0);stroke-width:1"/>\n\t<line x1="144" y1="26" x2="161" y2="36" style="stroke:rgb(0,0,0);stroke-width:1"/>\n\t<line x1="133" y1="33" x2="144" y2="26" style="stroke:rgb(0,0,0);stroke-width:1"/>\n\t<line x1="110" y1="26" x2="122" y2="33" style="stroke:rgb(0,0,0);stroke-width:1"/>\n\t<line x1="94" y1="36" x2="110" y2="26" style="stroke:rgb(0,0,0);stroke-width:1"/>\n\t<line x1="60" y1="36" x2="77" y2="26" style="stroke:rgb(0,0,0);stroke-width:1"/>\n\t<line x1="42" y1="30" x2="60" y2="36" style="stroke:rgb(0,0,0);stroke-width:1"/>\n\t<line x1="15" y1="10" x2="34" y2="12" style="stroke:rgb(0,0,0);stroke-width:1"/>\n\t<line x1="11" y1="43" x2="3" y2="26" style="stroke:rgb(0,0,0);stroke-width:1"/>\n\t<line x1="31" y1="46" x2="42" y2="30" style="stroke:rgb(0,0,0);stroke-width:1"/>\n\t<line x1="38" y1="55" x2="31" y2="46" style="stroke:rgb(0,0,0);stroke-width:1"/>\n\t<line x1="60" y1="55" x2="47" y2="59" style="stroke:rgb(0,0,0);stroke-width:1"/>\n\t<line x1="77" y1="65" x2="60" y2="55" style="stroke:rgb(0,0,0);stroke-width:1"/>\n\t<line x1="77" y1="84" x2="77" y2="65" style="stroke:rgb(0,0,0);stroke-width:1"/>\n\t<line x1="60" y1="113" x2="60" y2="94" style="stroke:rgb(0,0,0);stroke-width:1"/>\n\t<line x1="48" y1="120" x2="60" y2="113" style="stroke:rgb(0,0,0);stroke-width:1"/>\n\t<line x1="77" y1="136" x2="77" y2="123" style="stroke:rgb(0,0,0);stroke-width:1"/>\n\t<line x1="94" y1="113" x2="77" y2="123" style="stroke:rgb(0,0,0);stroke-width:1"/>\n\t<line x1="94" y1="94" x2="77" y2="84" style="stroke:rgb(0,0,0);stroke-width:1"/>\n\t<line x1="94" y1="49" x2="94" y2="36" style="stroke:rgb(0,0,0);stroke-width:1"/>\n\t<line id="function random() { [native code] }:Bond:5-4" class="event" x1="110" y1="7" x2="110" y2="26" stroke-width="8" stroke-opacity="0"/>\n\t<line id="function random() { [native code] }:Bond:7-6" class="event" x1="77" y1="26" x2="94" y2="36" stroke-width="8" stroke-opacity="0"/>\n\t<line id="function random() { [native code] }:Bond:10-9" class="event" x1="34" y1="12" x2="42" y2="30" stroke-width="8" stroke-opacity="0"/>\n\t<line id="function random() { [native code] }:Bond:12-11" class="event" x1="3" y1="26" x2="15" y2="10" stroke-width="8" stroke-opacity="0"/>\n\t<line id="function random() { [native code] }:Bond:14-13" class="event" x1="31" y1="46" x2="11" y2="43" stroke-width="8" stroke-opacity="0"/>\n\t<line id="function random() { [native code] }:Bond:16-8" class="event" x1="60" y1="55" x2="60" y2="36" stroke-width="8" stroke-opacity="0"/>\n\t<line id="function random() { [native code] }:Bond:19-18" class="event" x1="60" y1="94" x2="77" y2="84" stroke-width="8" stroke-opacity="0"/>\n\t<line id="function random() { [native code] }:Bond:22-20" class="event" x1="77" y1="123" x2="60" y2="113" stroke-width="8" stroke-opacity="0"/>\n\t<line id="function random() { [native code] }:Bond:25-24" class="event" x1="94" y1="94" x2="94" y2="113" stroke-width="8" stroke-opacity="0"/>\n\t<line id="function random() { [native code] }:Bond:26-17" class="event" x1="94" y1="55" x2="77" y2="65" stroke-width="8" stroke-opacity="0"/>\n\t<line id="function random() { [native code] }:Bond:1-0" class="event" x1="161" y1="36" x2="177" y2="26" stroke-width="8" stroke-opacity="0"/>\n\t<line id="function random() { [native code] }:Bond:2-1" class="event" x1="144" y1="26" x2="161" y2="36" stroke-width="8" stroke-opacity="0"/>\n\t<line id="function random() { [native code] }:Bond:3-2" class="event" x1="127" y1="36" x2="144" y2="26" stroke-width="8" stroke-opacity="0"/>\n\t<line id="function random() { [native code] }:Bond:4-3" class="event" x1="110" y1="26" x2="127" y2="36" stroke-width="8" stroke-opacity="0"/>\n\t<line id="function random() { [native code] }:Bond:6-4" class="event" x1="94" y1="36" x2="110" y2="26" stroke-width="8" stroke-opacity="0"/>\n\t<line id="function random() { [native code] }:Bond:8-7" class="event" x1="60" y1="36" x2="77" y2="26" stroke-width="8" stroke-opacity="0"/>\n\t<line id="function random() { [native code] }:Bond:9-8" class="event" x1="42" y1="30" x2="60" y2="36" stroke-width="8" stroke-opacity="0"/>\n\t<line id="function random() { [native code] }:Bond:11-10" class="event" x1="15" y1="10" x2="34" y2="12" stroke-width="8" stroke-opacity="0"/>\n\t<line id="function random() { [native code] }:Bond:13-12" class="event" x1="11" y1="43" x2="3" y2="26" stroke-width="8" stroke-opacity="0"/>\n\t<line id="function random() { [native code] }:Bond:14-9" class="event" x1="31" y1="46" x2="42" y2="30" stroke-width="8" stroke-opacity="0"/>\n\t<line id="function random() { [native code] }:Bond:15-14" class="event" x1="42" y1="61" x2="31" y2="46" stroke-width="8" stroke-opacity="0"/>\n\t<line id="function random() { [native code] }:Bond:16-15" class="event" x1="60" y1="55" x2="42" y2="61" stroke-width="8" stroke-opacity="0"/>\n\t<line id="function random() { [native code] }:Bond:17-16" class="event" x1="77" y1="65" x2="60" y2="55" stroke-width="8" stroke-opacity="0"/>\n\t<line id="function random() { [native code] }:Bond:18-17" class="event" x1="77" y1="84" x2="77" y2="65" stroke-width="8" stroke-opacity="0"/>\n\t<line id="function random() { [native code] }:Bond:20-19" class="event" x1="60" y1="113" x2="60" y2="94" stroke-width="8" stroke-opacity="0"/>\n\t<line id="function random() { [native code] }:Bond:21-20" class="event" x1="44" y1="123" x2="60" y2="113" stroke-width="8" stroke-opacity="0"/>\n\t<line id="function random() { [native code] }:Bond:23-22" class="event" x1="77" y1="142" x2="77" y2="123" stroke-width="8" stroke-opacity="0"/>\n\t<line id="function random() { [native code] }:Bond:24-22" class="event" x1="94" y1="113" x2="77" y2="123" stroke-width="8" stroke-opacity="0"/>\n\t<line id="function random() { [native code] }:Bond:25-18" class="event" x1="94" y1="94" x2="77" y2="84" stroke-width="8" stroke-opacity="0"/>\n\t<line id="function random() { [native code] }:Bond:26-6" class="event" x1="94" y1="55" x2="94" y2="36" stroke-width="8" stroke-opacity="0"/>\n\t<circle id="function random() { [native code] }:Atom:0" class="event" cx="177" cy="26" r="8" fill-opacity="0"/>\n\t<circle id="function random() { [native code] }:Atom:1" class="event" cx="161" cy="36" r="8" fill-opacity="0"/>\n\t<circle id="function random() { [native code] }:Atom:2" class="event" cx="144" cy="26" r="8" fill-opacity="0"/>\n\t<circle id="function random() { [native code] }:Atom:3" class="event" cx="127" cy="36" r="8" fill-opacity="0"/>\n\t<circle id="function random() { [native code] }:Atom:4" class="event" cx="110" cy="26" r="8" fill-opacity="0"/>\n\t<circle id="function random() { [native code] }:Atom:5" class="event" cx="110" cy="7" r="8" fill-opacity="0"/>\n\t<circle id="function random() { [native code] }:Atom:6" class="event" cx="94" cy="36" r="8" fill-opacity="0"/>\n\t<circle id="function random() { [native code] }:Atom:7" class="event" cx="77" cy="26" r="8" fill-opacity="0"/>\n\t<circle id="function random() { [native code] }:Atom:8" class="event" cx="60" cy="36" r="8" fill-opacity="0"/>\n\t<circle id="function random() { [native code] }:Atom:9" class="event" cx="42" cy="30" r="8" fill-opacity="0"/>\n\t<circle id="function random() { [native code] }:Atom:10" class="event" cx="34" cy="12" r="8" fill-opacity="0"/>\n\t<circle id="function random() { [native code] }:Atom:11" class="event" cx="15" cy="10" r="8" fill-opacity="0"/>\n\t<circle id="function random() { [native code] }:Atom:12" class="event" cx="3" cy="26" r="8" fill-opacity="0"/>\n\t<circle id="function random() { [native code] }:Atom:13" class="event" cx="11" cy="43" r="8" fill-opacity="0"/>\n\t<circle id="function random() { [native code] }:Atom:14" class="event" cx="31" cy="46" r="8" fill-opacity="0"/>\n\t<circle id="function random() { [native code] }:Atom:15" class="event" cx="42" cy="61" r="8" fill-opacity="0"/>\n\t<circle id="function random() { [native code] }:Atom:16" class="event" cx="60" cy="55" r="8" fill-opacity="0"/>\n\t<circle id="function random() { [native code] }:Atom:17" class="event" cx="77" cy="65" r="8" fill-opacity="0"/>\n\t<circle id="function random() { [native code] }:Atom:18" class="event" cx="77" cy="84" r="8" fill-opacity="0"/>\n\t<circle id="function random() { [native code] }:Atom:19" class="event" cx="60" cy="94" r="8" fill-opacity="0"/>\n\t<circle id="function random() { [native code] }:Atom:20" class="event" cx="60" cy="113" r="8" fill-opacity="0"/>\n\t<circle id="function random() { [native code] }:Atom:21" class="event" cx="44" cy="123" r="8" fill-opacity="0"/>\n\t<circle id="function random() { [native code] }:Atom:22" class="event" cx="77" cy="123" r="8" fill-opacity="0"/>\n\t<circle id="function random() { [native code] }:Atom:23" class="event" cx="77" cy="142" r="8" fill-opacity="0"/>\n\t<circle id="function random() { [native code] }:Atom:24" class="event" cx="94" cy="113" r="8" fill-opacity="0"/>\n\t<circle id="function random() { [native code] }:Atom:25" class="event" cx="94" cy="94" r="8" fill-opacity="0"/>\n\t<circle id="function random() { [native code] }:Atom:26" class="event" cx="94" cy="55" r="8" fill-opacity="0"/>\n</svg>