<svg id="function random() { [native code] }" xmlns="http://www.w3.org/2000/svg" version="1.1" width="200px" height="150px" viewBox="0 0 200 150">\n\t<style> #function random() { [native code] } {pointer-events:none; }  #function random() { [native code] } .event  { pointer-events:all;}  </style>\n\t<text x="163" y="25" font-family=" Helvetica" font-weight="900" font-size="10" fill="rgb(48,80,248)">N</text>\n\t<text x="177" y="28" font-family=" Helvetica" font-weight="900" font-size="7" fill="rgb(48,80,248)">2</text>\n\t<text x="170" y="25" font-family=" Helvetica" font-weight="900" font-size="10" fill="rgb(48,80,248)">H</text>\n\t<text x="120" y="33" font-family=" Helvetica" font-weight="900" font-size="10" fill="rgb(48,80,248)">N</text>\n\t<text x="120" y="43" font-family=" Helvetica" font-weight="900" font-size="10" fill="rgb(48,80,248)">H</text>\n\t<text x="105" y="9" font-family=" Helvetica" font-weight="900" font-size="10" fill="rgb(255,13,13)">O</text>\n\t<text x="47" y="55" font-family=" Helvetica" font-weight="900" font-size="10" fill="rgb(48,80,248)">N</text>\n\t<text x="47" y="65" font-family=" Helvetica" font-weight="900" font-size="10" fill="rgb(48,80,248)">H</text>\n\t<text x="77" y="124" font-family=" Helvetica" font-weight="900" font-size="10" fill="rgb(255,13,13)">O</text>\n\t<text x="100" y="118" font-family=" Helvetica" font-weight="900" font-size="10" fill="rgb(144,224,80)">F</text>\n\t<text x="106" y="140" font-family=" Helvetica" font-weight="900" font-size="10" fill="rgb(144,224,80)">F</text>\n\t<text x="84" y="146" font-family=" Helvetica" font-weight="900" font-size="10" fill="rgb(144,224,80)">F</text>\n\t<text x="91" y="50" font-family=" Helvetica" font-weight="900" font-size="10" fill="rgb(48,80,248)">N</text>\n\t<line x1="111" y1="23" x2="111" y2="11" style="stroke:rgb(0,0,0);stroke-width:1"/>\n\t<line x1="108" y1="23" x2="108" y2="11" style="stroke:rgb(0,0,0);stroke-width:1"/>\n\t<line x1="81" y1="22" x2="95" y2="30" style="stroke:rgb(0,0,0);stroke-width:1"/>\n\t<line x1="81" y1="25" x2="92" y2="32" style="stroke:rgb(0,0,0);stroke-width:1"/>\n\t<line x1="44" y1="10" x2="51" y2="25" style="stroke:rgb(0,0,0);stroke-width:1"/>\n\t<line x1="43" y1="13" x2="48" y2="25" style="stroke:rgb(0,0,0);stroke-width:1"/>\n\t<line x1="18" y1="22" x2="28" y2="9" style="stroke:rgb(0,0,0);stroke-width:1"/>\n\t<line x1="21" y1="22" x2="29" y2="11" style="stroke:rgb(0,0,0);stroke-width:1"/>\n\t<line x1="41" y1="39" x2="25" y2="37" style="stroke:rgb(0,0,0);stroke-width:1"/>\n\t<line x1="40" y1="36" x2="27" y2="35" style="stroke:rgb(0,0,0);stroke-width:1"/>\n\t<line x1="67" y1="47" x2="67" y2="30" style="stroke:rgb(0,0,0);stroke-width:1"/>\n\t<line x1="69" y1="45" x2="69" y2="32" style="stroke:rgb(0,0,0);stroke-width:1"/>\n\t<line x1="67" y1="80" x2="81" y2="71" style="stroke:rgb(0,0,0);stroke-width:1"/>\n\t<line x1="69" y1="81" x2="81" y2="75" style="stroke:rgb(0,0,0);stroke-width:1"/>\n\t<line x1="81" y1="104" x2="67" y2="96" style="stroke:rgb(0,0,0);stroke-width:1"/>\n\t<line x1="81" y1="101" x2="69" y2="95" style="stroke:rgb(0,0,0);stroke-width:1"/>\n\t<line x1="95" y1="80" x2="95" y2="96" style="stroke:rgb(0,0,0);stroke-width:1"/>\n\t<line x1="93" y1="81" x2="93" y2="94" style="stroke:rgb(0,0,0);stroke-width:1"/>\n\t<line x1="81" y1="55" x2="90" y2="49" style="stroke:rgb(0,0,0);stroke-width:1"/>\n\t<line x1="81" y1="52" x2="89" y2="47" style="stroke:rgb(0,0,0);stroke-width:1"/>\n\t<line x1="152" y1="30" x2="162" y2="25" style="stroke:rgb(0,0,0);stroke-width:1"/>\n\t<line x1="138" y1="22" x2="152" y2="30" style="stroke:rgb(0,0,0);stroke-width:1"/>\n\t<line x1="128" y1="28" x2="138" y2="22" style="stroke:rgb(0,0,0);stroke-width:1"/>\n\t<line x1="109" y1="22" x2="119" y2="28" style="stroke:rgb(0,0,0);stroke-width:1"/>\n\t<line x1="95" y1="30" x2="109" y2="22" style="stroke:rgb(0,0,0);stroke-width:1"/>\n\t<line x1="67" y1="30" x2="81" y2="22" style="stroke:rgb(0,0,0);stroke-width:1"/>\n\t<line x1="51" y1="25" x2="67" y2="30" style="stroke:rgb(0,0,0);stroke-width:1"/>\n\t<line x1="28" y1="9" x2="44" y2="10" style="stroke:rgb(0,0,0);stroke-width:1"/>\n\t<line x1="25" y1="37" x2="18" y2="22" style="stroke:rgb(0,0,0);stroke-width:1"/>\n\t<line x1="41" y1="39" x2="51" y2="25" style="stroke:rgb(0,0,0);stroke-width:1"/>\n\t<line x1="47" y1="47" x2="41" y2="39" style="stroke:rgb(0,0,0);stroke-width:1"/>\n\t<line x1="67" y1="47" x2="56" y2="50" style="stroke:rgb(0,0,0);stroke-width:1"/>\n\t<line x1="81" y1="55" x2="67" y2="47" style="stroke:rgb(0,0,0);stroke-width:1"/>\n\t<line x1="81" y1="71" x2="81" y2="55" style="stroke:rgb(0,0,0);stroke-width:1"/>\n\t<line x1="67" y1="96" x2="67" y2="80" style="stroke:rgb(0,0,0);stroke-width:1"/>\n\t<line x1="81" y1="116" x2="81" y2="104" style="stroke:rgb(0,0,0);stroke-width:1"/>\n\t<line x1="95" y1="129" x2="86" y2="124" style="stroke:rgb(0,0,0);stroke-width:1"/>\n\t<line x1="100" y1="120" x2="95" y2="129" style="stroke:rgb(0,0,0);stroke-width:1"/>\n\t<line x1="105" y1="135" x2="95" y2="129" style="stroke:rgb(0,0,0);stroke-width:1"/>\n\t<line x1="90" y1="138" x2="95" y2="129" style="stroke:rgb(0,0,0);stroke-width:1"/>\n\t<line x1="95" y1="96" x2="81" y2="104" style="stroke:rgb(0,0,0);stroke-width:1"/>\n\t<line x1="95" y1="80" x2="81" y2="71" style="stroke:rgb(0,0,0);stroke-width:1"/>\n\t<line x1="95" y1="42" x2="95" y2="30" style="stroke:rgb(0,0,0);stroke-width:1"/>\n\t<line id="function random() { [native code] }:Bond:5-4" class="event" x1="109" y1="6" x2="109" y2="22" stroke-width="8" stroke-opacity="0"/>\n\t<line id="function random() { [native code] }:Bond:7-6" class="event" x1="81" y1="22" x2="95" y2="30" stroke-width="8" stroke-opacity="0"/>\n\t<line id="function random() { [native code] }:Bond:10-9" class="event" x1="44" y1="10" x2="51" y2="25" stroke-width="8" stroke-opacity="0"/>\n\t<line id="function random() { [native code] }:Bond:12-11" class="event" x1="18" y1="22" x2="28" y2="9" stroke-width="8" stroke-opacity="0"/>\n\t<line id="function random() { [native code] }:Bond:14-13" class="event" x1="41" y1="39" x2="25" y2="37" stroke-width="8" stroke-opacity="0"/>\n\t<line id="function random() { [native code] }:Bond:16-8" class="event" x1="67" y1="47" x2="67" y2="30" stroke-width="8" stroke-opacity="0"/>\n\t<line id="function random() { [native code] }:Bond:19-18" class="event" x1="67" y1="80" x2="81" y2="71" stroke-width="8" stroke-opacity="0"/>\n\t<line id="function random() { [native code] }:Bond:21-20" class="event" x1="81" y1="104" x2="67" y2="96" stroke-width="8" stroke-opacity="0"/>\n\t<line id="function random() { [native code] }:Bond:28-27" class="event" x1="95" y1="80" x2="95" y2="96" stroke-width="8" stroke-opacity="0"/>\n\t<line id="function random() { [native code] }:Bond:29-17" class="event" x1="95" y1="47" x2="81" y2="55" stroke-width="8" stroke-opacity="0"/>\n\t<line id="function random() { [native code] }:Bond:1-0" class="event" x1="152" y1="30" x2="166" y2="22" stroke-width="8" stroke-opacity="0"/>\n\t<line id="function random() { [native code] }:Bond:2-1" class="event" x1="138" y1="22" x2="152" y2="30" stroke-width="8" stroke-opacity="0"/>\n\t<line id="function random() { [native code] }:Bond:3-2" class="event" x1="124" y1="30" x2="138" y2="22" stroke-width="8" stroke-opacity="0"/>\n\t<line id="function random() { [native code] }:Bond:4-3" class="event" x1="109" y1="22" x2="124" y2="30" stroke-width="8" stroke-opacity="0"/>\n\t<line id="function random() { [native code] }:Bond:6-4" class="event" x1="95" y1="30" x2="109" y2="22" stroke-width="8" stroke-opacity="0"/>\n\t<line id="function random() { [native code] }:Bond:8-7" class="event" x1="67" y1="30" x2="81" y2="22" stroke-width="8" stroke-opacity="0"/>\n\t<line id="function random() { [native code] }:Bond:9-8" class="event" x1="51" y1="25" x2="67" y2="30" stroke-width="8" stroke-opacity="0"/>\n\t<line id="function random() { [native code] }:Bond:11-10" class="event" x1="28" y1="9" x2="44" y2="10" stroke-width="8" stroke-opacity="0"/>\n\t<line id="function random() { [native code] }:Bond:13-12" class="event" x1="25" y1="37" x2="18" y2="22" stroke-width="8" stroke-opacity="0"/>\n\t<line id="function random() { [native code] }:Bond:14-9" class="event" x1="41" y1="39" x2="51" y2="25" stroke-width="8" stroke-opacity="0"/>\n\t<line id="function random() { [native code] }:Bond:15-14" class="event" x1="51" y1="52" x2="41" y2="39" stroke-width="8" stroke-opacity="0"/>\n\t<line id="function random() { [native code] }:Bond:16-15" class="event" x1="67" y1="47" x2="51" y2="52" stroke-width="8" stroke-opacity="0"/>\n\t<line id="function random() { [native code] }:Bond:17-16" class="event" x1="81" y1="55" x2="67" y2="47" stroke-width="8" stroke-opacity="0"/>\n\t<line id="function random() { [native code] }:Bond:18-17" class="event" x1="81" y1="71" x2="81" y2="55" stroke-width="8" stroke-opacity="0"/>\n\t<line id="function random() { [native code] }:Bond:20-19" class="event" x1="67" y1="96" x2="67" y2="80" stroke-width="8" stroke-opacity="0"/>\n\t<line id="function random() { [native code] }:Bond:22-21" class="event" x1="81" y1="121" x2="81" y2="104" stroke-width="8" stroke-opacity="0"/>\n\t<line id="function random() { [native code] }:Bond:23-22" class="event" x1="95" y1="129" x2="81" y2="121" stroke-width="8" stroke-opacity="0"/>\n\t<line id="function random() { [native code] }:Bond:24-23" class="event" x1="103" y1="115" x2="95" y2="129" stroke-width="8" stroke-opacity="0"/>\n\t<line id="function random() { [native code] }:Bond:25-23" class="event" x1="109" y1="137" x2="95" y2="129" stroke-width="8" stroke-opacity="0"/>\n\t<line id="function random() { [native code] }:Bond:26-23" class="event" x1="87" y1="143" x2="95" y2="129" stroke-width="8" stroke-opacity="0"/>\n\t<line id="function random() { [native code] }:Bond:27-21" class="event" x1="95" y1="96" x2="81" y2="104" stroke-width="8" stroke-opacity="0"/>\n\t<line id="function random() { [native code] }:Bond:28-18" class="event" x1="95" y1="80" x2="81" y2="71" stroke-width="8" stroke-opacity="0"/>\n\t<line id="function random() { [native code] }:Bond:29-6" class="event" x1="95" y1="47" x2="95" y2="30" stroke-width="8" stroke-opacity="0"/>\n\t<circle id="function random() { [native code] }:Atom:0" class="event" cx="166" cy="22" r="8" fill-opacity="0"/>\n\t<circle id="function random() { [native code] }:Atom:1" class="event" cx="152" cy="30" r="8" fill-opacity="0"/>\n\t<circle id="function random() { [native code] }:Atom:2" class="event" cx="138" cy="22" r="8" fill-opacity="0"/>\n\t<circle id="function random() { [native code] }:Atom:3" class="event" cx="124" cy="30" r="8" fill-opacity="0"/>\n\t<circle id="function random() { [native code] }:Atom:4" class="event" cx="109" cy="22" r="8" fill-opacity="0"/>\n\t<circle id="function random() { [native code] }:Atom:5" class="event" cx="109" cy="6" r="8" fill-opacity="0"/>\n\t<circle id="function random() { [native code] }:Atom:6" class="event" cx="95" cy="30" r="8" fill-opacity="0"/>\n\t<circle id="function random() { [native code] }:Atom:7" class="event" cx="81" cy="22" r="8" fill-opacity="0"/>\n\t<circle id="function random() { [native code] }:Atom:8" class="event" cx="67" cy="30" r="8" fill-opacity="0"/>\n\t<circle id="function random() { [native code] }:Atom:9" class="event" cx="51" cy="25" r="8" fill-opacity="0"/>\n\t<circle id="function random() { [native code] }:Atom:10" class="event" cx="44" cy="10" r="8" fill-opacity="0"/>\n\t<circle id="function random() { [native code] }:Atom:11" class="event" cx="28" cy="9" r="8" fill-opacity="0"/>\n\t<circle id="function random() { [native code] }:Atom:12" class="event" cx="18" cy="22" r="8" fill-opacity="0"/>\n\t<circle id="function random() { [native code] }:Atom:13" class="event" cx="25" cy="37" r="8" fill-opacity="0"/>\n\t<circle id="function random() { [native code] }:Atom:14" class="event" cx="41" cy="39" r="8" fill-opacity="0"/>\n\t<circle id="function random() { [native code] }:Atom:15" class="event" cx="51" cy="52" r="8" fill-opacity="0"/>\n\t<circle id="function random() { [native code] }:Atom:16" class="event" cx="67" cy="47" r="8" fill-opacity="0"/>\n\t<circle id="function random() { [native code] }:Atom:17" class="event" cx="81" cy="55" r="8" fill-opacity="0"/>\n\t<circle id="function random() { [native code] }:Atom:18" class="event" cx="81" cy="71" r="8" fill-opacity="0"/>\n\t<circle id="function random() { [native code] }:Atom:19" class="event" cx="67" cy="80" r="8" fill-opacity="0"/>\n\t<circle id="function random() { [native code] }:Atom:20" class="event" cx="67" cy="96" r="8" fill-opacity="0"/>\n\t<circle id="function random() { [native code] }:Atom:21" class="event" cx="81" cy="104" r="8" fill-opacity="0"/>\n\t<circle id="function random() { [native code] }:Atom:22" class="event" cx="81" cy="121" r="8" fill-opacity="0"/>\n\t<circle id="function random() { [native code] }:Atom:23" class="event" cx="95" cy="129" r="8" fill-opacity="0"/>\n\t<circle id="function random() { [native code] }:Atom:24" class="event" cx="103" cy="115" r="8" fill-opacity="0"/>\n\t<circle id="function random() { [native code] }:Atom:25" class="event" cx="109" cy="137" r="8" fill-opacity="0"/>\n\t<circle id="function random() { [native code] }:Atom:26" class="event" cx="87" cy="143" r="8" fill-opacity="0"/>\n\t<circle id="function random() { [native code] }:Atom:27" class="event" cx="95" cy="96" r="8" fill-opacity="0"/>\n\t<circle id="function random() { [native code] }:Atom:28" class="event" cx="95" cy="80" r="8" fill-opacity="0"/>\n\t<circle id="function random() { [native code] }:Atom:29" class="event" cx="95" cy="47" r="8" fill-opacity="0"/>\n</svg>