<svg id="function random() { [native code] }" xmlns="http://www.w3.org/2000/svg" version="1.1" width="200px" height="150px" viewBox="0 0 200 150">\n\t<style> #function random() { [native code] } {pointer-events:none; }  #function random() { [native code] } .event  { pointer-events:all;}  </style>\n\t<text x="117" y="14" font-family=" Helvetica" font-weight="900" font-size="11" fill="rgb(255,13,13)">O</text>\n\t<text x="101" y="98" font-family=" Helvetica" font-weight="900" font-size="11" fill="rgb(48,80,248)">N</text>\n\t<text x="84" y="145" font-family=" Helvetica" font-weight="900" font-size="11" fill="rgb(255,13,13)">O</text>\n\t<text x="68" y="117" font-family=" Helvetica" font-weight="900" font-size="11" fill="rgb(48,80,248)">N</text>\n\t<text x="68" y="106" font-family=" Helvetica" font-weight="900" font-size="11" fill="rgb(48,80,248)">H</text>\n\t<text x="20" y="126" font-family=" Helvetica" font-weight="900" font-size="11" fill="rgb(48,80,248)">N</text>\n\t<text x="16" y="129" font-family=" Helvetica" font-weight="900" font-size="7" fill="rgb(48,80,248)">2</text>\n\t<text x="8" y="126" font-family=" Helvetica" font-weight="900" font-size="11" fill="rgb(48,80,248)">H</text>\n\t<text x="151" y="92" font-family=" Helvetica" font-weight="900" font-size="11" fill="rgb(48,80,248)">N</text>\n\t<text x="159" y="92" font-family=" Helvetica" font-weight="900" font-size="11" fill="rgb(48,80,248)">H</text>\n\t<text x="149" y="33" font-family=" Helvetica" font-weight="900" font-size="11" fill="rgb(255,13,13)">O</text>\n\t<line x1="105" y1="39" x2="121" y2="30" style="stroke:rgb(0,0,0);stroke-width:1"/>\n\t<line x1="108" y1="40" x2="121" y2="33" style="stroke:rgb(0,0,0);stroke-width:1"/>\n\t<line x1="121" y1="67" x2="105" y2="58" style="stroke:rgb(0,0,0);stroke-width:1"/>\n\t<line x1="121" y1="64" x2="108" y2="56" style="stroke:rgb(0,0,0);stroke-width:1"/>\n\t<line x1="121" y1="86" x2="110" y2="92" style="stroke:rgb(0,0,0);stroke-width:1"/>\n\t<line x1="121" y1="89" x2="111" y2="95" style="stroke:rgb(0,0,0);stroke-width:1"/>\n\t<line x1="87" y1="122" x2="87" y2="137" style="stroke:rgb(0,0,0);stroke-width:1"/>\n\t<line x1="90" y1="122" x2="90" y2="137" style="stroke:rgb(0,0,0);stroke-width:1"/>\n\t<line x1="121" y1="123" x2="105" y2="114" style="stroke:rgb(0,0,0);stroke-width:1"/>\n\t<line x1="121" y1="120" x2="108" y2="112" style="stroke:rgb(0,0,0);stroke-width:1"/>\n\t<line x1="163" y1="137" x2="155" y2="120" style="stroke:rgb(0,0,0);stroke-width:1"/>\n\t<line x1="165" y1="134" x2="159" y2="120" style="stroke:rgb(0,0,0);stroke-width:1"/>\n\t<line x1="193" y1="124" x2="182" y2="139" style="stroke:rgb(0,0,0);stroke-width:1"/>\n\t<line x1="189" y1="124" x2="180" y2="135" style="stroke:rgb(0,0,0);stroke-width:1"/>\n\t<line x1="166" y1="105" x2="185" y2="106" style="stroke:rgb(0,0,0);stroke-width:1"/>\n\t<line x1="168" y1="108" x2="183" y2="109" style="stroke:rgb(0,0,0);stroke-width:1"/>\n\t<line x1="137" y1="95" x2="137" y2="114" style="stroke:rgb(0,0,0);stroke-width:1"/>\n\t<line x1="135" y1="97" x2="135" y2="112" style="stroke:rgb(0,0,0);stroke-width:1"/>\n\t<line x1="137" y1="39" x2="137" y2="58" style="stroke:rgb(0,0,0);stroke-width:1"/>\n\t<line x1="135" y1="41" x2="135" y2="56" style="stroke:rgb(0,0,0);stroke-width:1"/>\n\t<line x1="126" y1="8" x2="137" y2="1" style="stroke:rgb(0,0,0);stroke-width:1"/>\n\t<line x1="121" y1="30" x2="121" y2="16" style="stroke:rgb(0,0,0);stroke-width:1"/>\n\t<line x1="105" y1="58" x2="105" y2="39" style="stroke:rgb(0,0,0);stroke-width:1"/>\n\t<line x1="121" y1="86" x2="121" y2="67" style="stroke:rgb(0,0,0);stroke-width:1"/>\n\t<line x1="105" y1="114" x2="105" y2="100" style="stroke:rgb(0,0,0);stroke-width:1"/>\n\t<line x1="89" y1="123" x2="105" y2="114" style="stroke:rgb(0,0,0);stroke-width:1"/>\n\t<line x1="77" y1="117" x2="89" y2="123" style="stroke:rgb(0,0,0);stroke-width:1"/>\n\t<line x1="56" y1="123" x2="67" y2="117" style="stroke:rgb(0,0,0);stroke-width:1"/>\n\t<line x1="40" y1="114" x2="56" y2="123" style="stroke:rgb(0,0,0);stroke-width:1"/>\n\t<line x1="29" y1="120" x2="40" y2="114" style="stroke:rgb(0,0,0);stroke-width:1"/>\n\t<line x1="137" y1="114" x2="121" y2="123" style="stroke:rgb(0,0,0);stroke-width:1"/>\n\t<line x1="155" y1="120" x2="137" y2="114" style="stroke:rgb(0,0,0);stroke-width:1"/>\n\t<line x1="182" y1="139" x2="163" y2="137" style="stroke:rgb(0,0,0);stroke-width:1"/>\n\t<line x1="185" y1="106" x2="193" y2="124" style="stroke:rgb(0,0,0);stroke-width:1"/>\n\t<line x1="166" y1="105" x2="155" y2="120" style="stroke:rgb(0,0,0);stroke-width:1"/>\n\t<line x1="159" y1="94" x2="166" y2="105" style="stroke:rgb(0,0,0);stroke-width:1"/>\n\t<line x1="137" y1="95" x2="150" y2="91" style="stroke:rgb(0,0,0);stroke-width:1"/>\n\t<line x1="137" y1="95" x2="121" y2="86" style="stroke:rgb(0,0,0);stroke-width:1"/>\n\t<line x1="137" y1="58" x2="121" y2="67" style="stroke:rgb(0,0,0);stroke-width:1"/>\n\t<line x1="137" y1="39" x2="121" y2="30" style="stroke:rgb(0,0,0);stroke-width:1"/>\n\t<line x1="148" y1="33" x2="137" y2="39" style="stroke:rgb(0,0,0);stroke-width:1"/>\n\t<line x1="154" y1="11" x2="154" y2="25" style="stroke:rgb(0,0,0);stroke-width:1"/>\n\t<line id="function random() { [native code] }:Bond:3-2" class="event" x1="105" y1="39" x2="121" y2="30" stroke-width="8" stroke-opacity="0"/>\n\t<line id="function random() { [native code] }:Bond:5-4" class="event" x1="121" y1="67" x2="105" y2="58" stroke-width="8" stroke-opacity="0"/>\n\t<line id="function random() { [native code] }:Bond:7-6" class="event" x1="105" y1="95" x2="121" y2="86" stroke-width="8" stroke-opacity="0"/>\n\t<line id="function random() { [native code] }:Bond:10-9" class="event" x1="89" y1="142" x2="89" y2="123" stroke-width="8" stroke-opacity="0"/>\n\t<line id="function random() { [native code] }:Bond:15-8" class="event" x1="121" y1="123" x2="105" y2="114" stroke-width="8" stroke-opacity="0"/>\n\t<line id="function random() { [native code] }:Bond:18-17" class="event" x1="163" y1="137" x2="155" y2="120" stroke-width="8" stroke-opacity="0"/>\n\t<line id="function random() { [native code] }:Bond:20-19" class="event" x1="193" y1="124" x2="182" y2="139" stroke-width="8" stroke-opacity="0"/>\n\t<line id="function random() { [native code] }:Bond:22-21" class="event" x1="166" y1="105" x2="185" y2="106" stroke-width="8" stroke-opacity="0"/>\n\t<line id="function random() { [native code] }:Bond:24-16" class="event" x1="137" y1="95" x2="137" y2="114" stroke-width="8" stroke-opacity="0"/>\n\t<line id="function random() { [native code] }:Bond:26-25" class="event" x1="137" y1="39" x2="137" y2="58" stroke-width="8" stroke-opacity="0"/>\n\t<line id="function random() { [native code] }:Bond:1-0" class="event" x1="121" y1="11" x2="137" y2="1" stroke-width="8" stroke-opacity="0"/>\n\t<line id="function random() { [native code] }:Bond:2-1" class="event" x1="121" y1="30" x2="121" y2="11" stroke-width="8" stroke-opacity="0"/>\n\t<line id="function random() { [native code] }:Bond:4-3" class="event" x1="105" y1="58" x2="105" y2="39" stroke-width="8" stroke-opacity="0"/>\n\t<line id="function random() { [native code] }:Bond:6-5" class="event" x1="121" y1="86" x2="121" y2="67" stroke-width="8" stroke-opacity="0"/>\n\t<line id="function random() { [native code] }:Bond:8-7" class="event" x1="105" y1="114" x2="105" y2="95" stroke-width="8" stroke-opacity="0"/>\n\t<line id="function random() { [native code] }:Bond:9-8" class="event" x1="89" y1="123" x2="105" y2="114" stroke-width="8" stroke-opacity="0"/>\n\t<line id="function random() { [native code] }:Bond:11-9" class="event" x1="72" y1="114" x2="89" y2="123" stroke-width="8" stroke-opacity="0"/>\n\t<line id="function random() { [native code] }:Bond:12-11" class="event" x1="56" y1="123" x2="72" y2="114" stroke-width="8" stroke-opacity="0"/>\n\t<line id="function random() { [native code] }:Bond:13-12" class="event" x1="40" y1="114" x2="56" y2="123" stroke-width="8" stroke-opacity="0"/>\n\t<line id="function random() { [native code] }:Bond:14-13" class="event" x1="24" y1="123" x2="40" y2="114" stroke-width="8" stroke-opacity="0"/>\n\t<line id="function random() { [native code] }:Bond:16-15" class="event" x1="137" y1="114" x2="121" y2="123" stroke-width="8" stroke-opacity="0"/>\n\t<line id="function random() { [native code] }:Bond:17-16" class="event" x1="155" y1="120" x2="137" y2="114" stroke-width="8" stroke-opacity="0"/>\n\t<line id="function random() { [native code] }:Bond:19-18" class="event" x1="182" y1="139" x2="163" y2="137" stroke-width="8" stroke-opacity="0"/>\n\t<line id="function random() { [native code] }:Bond:21-20" class="event" x1="185" y1="106" x2="193" y2="124" stroke-width="8" stroke-opacity="0"/>\n\t<line id="function random() { [native code] }:Bond:22-17" class="event" x1="166" y1="105" x2="155" y2="120" stroke-width="8" stroke-opacity="0"/>\n\t<line id="function random() { [native code] }:Bond:23-22" class="event" x1="155" y1="89" x2="166" y2="105" stroke-width="8" stroke-opacity="0"/>\n\t<line id="function random() { [native code] }:Bond:24-23" class="event" x1="137" y1="95" x2="155" y2="89" stroke-width="8" stroke-opacity="0"/>\n\t<line id="function random() { [native code] }:Bond:24-6" class="event" x1="137" y1="95" x2="121" y2="86" stroke-width="8" stroke-opacity="0"/>\n\t<line id="function random() { [native code] }:Bond:25-5" class="event" x1="137" y1="58" x2="121" y2="67" stroke-width="8" stroke-opacity="0"/>\n\t<line id="function random() { [native code] }:Bond:26-2" class="event" x1="137" y1="39" x2="121" y2="30" stroke-width="8" stroke-opacity="0"/>\n\t<line id="function random() { [native code] }:Bond:27-26" class="event" x1="154" y1="30" x2="137" y2="39" stroke-width="8" stroke-opacity="0"/>\n\t<line id="function random() { [native code] }:Bond:28-27" class="event" x1="154" y1="11" x2="154" y2="30" stroke-width="8" stroke-opacity="0"/>\n\t<circle id="function random() { [native code] }:Atom:0" class="event" cx="137" cy="1" r="8" fill-opacity="0"/>\n\t<circle id="function random() { [native code] }:Atom:1" class="event" cx="121" cy="11" r="8" fill-opacity="0"/>\n\t<circle id="function random() { [native code] }:Atom:2" class="event" cx="121" cy="30" r="8" fill-opacity="0"/>\n\t<circle id="function random() { [native code] }:Atom:3" class="event" cx="105" cy="39" r="8" fill-opacity="0"/>\n\t<circle id="function random() { [native code] }:Atom:4" class="event" cx="105" cy="58" r="8" fill-opacity="0"/>\n\t<circle id="function random() { [native code] }:Atom:5" class="event" cx="121" cy="67" r="8" fill-opacity="0"/>\n\t<circle id="function random() { [native code] }:Atom:6" class="event" cx="121" cy="86" r="8" fill-opacity="0"/>\n\t<circle id="function random() { [native code] }:Atom:7" class="event" cx="105" cy="95" r="8" fill-opacity="0"/>\n\t<circle id="function random() { [native code] }:Atom:8" class="event" cx="105" cy="114" r="8" fill-opacity="0"/>\n\t<circle id="function random() { [native code] }:Atom:9" class="event" cx="89" cy="123" r="8" fill-opacity="0"/>\n\t<circle id="function random() { [native code] }:Atom:10" class="event" cx="89" cy="142" r="8" fill-opacity="0"/>\n\t<circle id="function random() { [native code] }:Atom:11" class="event" cx="72" cy="114" r="8" fill-opacity="0"/>\n\t<circle id="function random() { [native code] }:Atom:12" class="event" cx="56" cy="123" r="8" fill-opacity="0"/>\n\t<circle id="function random() { [native code] }:Atom:13" class="event" cx="40" cy="114" r="8" fill-opacity="0"/>\n\t<circle id="function random() { [native code] }:Atom:14" class="event" cx="24" cy="123" r="8" fill-opacity="0"/>\n\t<circle id="function random() { [native code] }:Atom:15" class="event" cx="121" cy="123" r="8" fill-opacity="0"/>\n\t<circle id="function random() { [native code] }:Atom:16" class="event" cx="137" cy="114" r="8" fill-opacity="0"/>\n\t<circle id="function random() { [native code] }:Atom:17" class="event" cx="155" cy="120" r="8" fill-opacity="0"/>\n\t<circle id="function random() { [native code] }:Atom:18" class="event" cx="163" cy="137" r="8" fill-opacity="0"/>\n\t<circle id="function random() { [native code] }:Atom:19" class="event" cx="182" cy="139" r="8" fill-opacity="0"/>\n\t<circle id="function random() { [native code] }:Atom:20" class="event" cx="193" cy="124" r="8" fill-opacity="0"/>\n\t<circle id="function random() { [native code] }:Atom:21" class="event" cx="185" cy="106" r="8" fill-opacity="0"/>\n\t<circle id="function random() { [native code] }:Atom:22" class="event" cx="166" cy="105" r="8" fill-opacity="0"/>\n\t<circle id="function random() { [native code] }:Atom:23" class="event" cx="155" cy="89" r="8" fill-opacity="0"/>\n\t<circle id="function random() { [native code] }:Atom:24" class="event" cx="137" cy="95" r="8" fill-opacity="0"/>\n\t<circle id="function random() { [native code] }:Atom:25" class="event" cx="137" cy="58" r="8" fill-opacity="0"/>\n\t<circle id="function random() { [native code] }:Atom:26" class="event" cx="137" cy="39" r="8" fill-opacity="0"/>\n\t<circle id="function random() { [native code] }:Atom:27" class="event" cx="154" cy="30" r="8" fill-opacity="0"/>\n\t<circle id="function random() { [native code] }:Atom:28" class="event" cx="154" cy="11" r="8" fill-opacity="0"/>\n</svg>