<svg id="function random() { [native code] }" xmlns="http://www.w3.org/2000/svg" version="1.1" width="200px" height="150px" viewBox="0 0 200 150">\n\t<style> #function random() { [native code] } {pointer-events:none; }  #function random() { [native code] } .event  { pointer-events:all;}  </style>\n\t<text x="123" y="36" font-family=" Helvetica" font-weight="900" font-size="11" fill="rgb(255,13,13)">O</text>\n\t<text x="91" y="36" font-family=" Helvetica" font-weight="900" font-size="11" fill="rgb(48,80,248)">N</text>\n\t<text x="91" y="25" font-family=" Helvetica" font-weight="900" font-size="11" fill="rgb(48,80,248)">H</text>\n\t<text x="43" y="45" font-family=" Helvetica" font-weight="900" font-size="11" fill="rgb(48,80,248)">N</text>\n\t<text x="11" y="64" font-family=" Helvetica" font-weight="900" font-size="11" fill="rgb(48,80,248)">N</text>\n\t<text x="3" y="64" font-family=" Helvetica" font-weight="900" font-size="11" fill="rgb(48,80,248)">H</text>\n\t<text x="103" y="119" font-family=" Helvetica" font-weight="900" font-size="11" fill="rgb(48,80,248)">N</text>\n\t<text x="111" y="119" font-family=" Helvetica" font-weight="900" font-size="11" fill="rgb(48,80,248)">H</text>\n\t<text x="186" y="129" font-family=" Helvetica" font-weight="900" font-size="11" fill="rgb(31,240,31)">Cl</text>\n\t<text x="186" y="92" font-family=" Helvetica" font-weight="900" font-size="11" fill="rgb(31,240,31)">Cl</text>\n\t<text x="123" y="73" font-family=" Helvetica" font-weight="900" font-size="11" fill="rgb(48,80,248)">N</text>\n\t<line x1="111" y1="44" x2="123" y2="37" style="stroke:rgb(0,0,0);stroke-width:1"/>\n\t<line x1="110" y1="41" x2="121" y2="35" style="stroke:rgb(0,0,0);stroke-width:1"/>\n\t<line x1="95" y1="70" x2="111" y2="61" style="stroke:rgb(0,0,0);stroke-width:1"/>\n\t<line x1="98" y1="71" x2="111" y2="64" style="stroke:rgb(0,0,0);stroke-width:1"/>\n\t<line x1="63" y1="99" x2="81" y2="101" style="stroke:rgb(0,0,0);stroke-width:1"/>\n\t<line x1="64" y1="102" x2="79" y2="104" style="stroke:rgb(0,0,0);stroke-width:1"/>\n\t<line x1="59" y1="131" x2="52" y2="114" style="stroke:rgb(0,0,0);stroke-width:1"/>\n\t<line x1="61" y1="128" x2="55" y2="115" style="stroke:rgb(0,0,0);stroke-width:1"/>\n\t<line x1="89" y1="118" x2="78" y2="133" style="stroke:rgb(0,0,0);stroke-width:1"/>\n\t<line x1="85" y1="118" x2="77" y2="130" style="stroke:rgb(0,0,0);stroke-width:1"/>\n\t<line x1="111" y1="98" x2="95" y2="89" style="stroke:rgb(0,0,0);stroke-width:1"/>\n\t<line x1="111" y1="94" x2="98" y2="87" style="stroke:rgb(0,0,0);stroke-width:1"/>\n\t<line x1="143" y1="116" x2="143" y2="98" style="stroke:rgb(0,0,0);stroke-width:1"/>\n\t<line x1="146" y1="114" x2="146" y2="100" style="stroke:rgb(0,0,0);stroke-width:1"/>\n\t<line x1="175" y1="116" x2="159" y2="126" style="stroke:rgb(0,0,0);stroke-width:1"/>\n\t<line x1="172" y1="115" x2="160" y2="122" style="stroke:rgb(0,0,0);stroke-width:1"/>\n\t<line x1="159" y1="89" x2="175" y2="98" style="stroke:rgb(0,0,0);stroke-width:1"/>\n\t<line x1="160" y1="92" x2="172" y2="99" style="stroke:rgb(0,0,0);stroke-width:1"/>\n\t<line x1="127" y1="89" x2="127" y2="75" style="stroke:rgb(0,0,0);stroke-width:1"/>\n\t<line x1="124" y1="87" x2="124" y2="75" style="stroke:rgb(0,0,0);stroke-width:1"/>\n\t<line x1="100" y1="36" x2="111" y2="42" style="stroke:rgb(0,0,0);stroke-width:1"/>\n\t<line x1="79" y1="42" x2="90" y2="36" style="stroke:rgb(0,0,0);stroke-width:1"/>\n\t<line x1="63" y1="33" x2="79" y2="42" style="stroke:rgb(0,0,0);stroke-width:1"/>\n\t<line x1="52" y1="39" x2="63" y2="33" style="stroke:rgb(0,0,0);stroke-width:1"/>\n\t<line x1="31" y1="33" x2="42" y2="39" style="stroke:rgb(0,0,0);stroke-width:1"/>\n\t<line x1="15" y1="42" x2="31" y2="33" style="stroke:rgb(0,0,0);stroke-width:1"/>\n\t<line x1="15" y1="56" x2="15" y2="42" style="stroke:rgb(0,0,0);stroke-width:1"/>\n\t<line x1="31" y1="70" x2="20" y2="64" style="stroke:rgb(0,0,0);stroke-width:1"/>\n\t<line x1="47" y1="61" x2="31" y2="70" style="stroke:rgb(0,0,0);stroke-width:1"/>\n\t<line x1="47" y1="61" x2="47" y2="47" style="stroke:rgb(0,0,0);stroke-width:1"/>\n\t<line x1="111" y1="61" x2="111" y2="42" style="stroke:rgb(0,0,0);stroke-width:1"/>\n\t<line x1="95" y1="89" x2="95" y2="70" style="stroke:rgb(0,0,0);stroke-width:1"/>\n\t<line x1="81" y1="101" x2="95" y2="89" style="stroke:rgb(0,0,0);stroke-width:1"/>\n\t<line x1="52" y1="114" x2="63" y2="99" style="stroke:rgb(0,0,0);stroke-width:1"/>\n\t<line x1="78" y1="133" x2="59" y2="131" style="stroke:rgb(0,0,0);stroke-width:1"/>\n\t<line x1="89" y1="118" x2="81" y2="101" style="stroke:rgb(0,0,0);stroke-width:1"/>\n\t<line x1="102" y1="116" x2="89" y2="118" style="stroke:rgb(0,0,0);stroke-width:1"/>\n\t<line x1="111" y1="98" x2="108" y2="111" style="stroke:rgb(0,0,0);stroke-width:1"/>\n\t<line x1="127" y1="89" x2="111" y2="98" style="stroke:rgb(0,0,0);stroke-width:1"/>\n\t<line x1="143" y1="98" x2="127" y2="89" style="stroke:rgb(0,0,0);stroke-width:1"/>\n\t<line x1="159" y1="126" x2="143" y2="116" style="stroke:rgb(0,0,0);stroke-width:1"/>\n\t<line x1="185" y1="122" x2="175" y2="116" style="stroke:rgb(0,0,0);stroke-width:1"/>\n\t<line x1="175" y1="98" x2="175" y2="116" style="stroke:rgb(0,0,0);stroke-width:1"/>\n\t<line x1="185" y1="92" x2="175" y2="98" style="stroke:rgb(0,0,0);stroke-width:1"/>\n\t<line x1="159" y1="89" x2="143" y2="98" style="stroke:rgb(0,0,0);stroke-width:1"/>\n\t<line x1="122" y1="67" x2="111" y2="61" style="stroke:rgb(0,0,0);stroke-width:1"/>\n\t<line id="function random() { [native code] }:Bond:1-0" class="event" x1="111" y1="42" x2="127" y2="33" stroke-width="8" stroke-opacity="0"/>\n\t<line id="function random() { [native code] }:Bond:12-11" class="event" x1="95" y1="70" x2="111" y2="61" stroke-width="8" stroke-opacity="0"/>\n\t<line id="function random() { [native code] }:Bond:15-14" class="event" x1="63" y1="99" x2="81" y2="101" stroke-width="8" stroke-opacity="0"/>\n\t<line id="function random() { [native code] }:Bond:17-16" class="event" x1="59" y1="131" x2="52" y2="114" stroke-width="8" stroke-opacity="0"/>\n\t<line id="function random() { [native code] }:Bond:19-18" class="event" x1="89" y1="118" x2="78" y2="133" stroke-width="8" stroke-opacity="0"/>\n\t<line id="function random() { [native code] }:Bond:21-13" class="event" x1="111" y1="98" x2="95" y2="89" stroke-width="8" stroke-opacity="0"/>\n\t<line id="function random() { [native code] }:Bond:24-23" class="event" x1="143" y1="116" x2="143" y2="98" stroke-width="8" stroke-opacity="0"/>\n\t<line id="function random() { [native code] }:Bond:26-25" class="event" x1="175" y1="116" x2="159" y2="126" stroke-width="8" stroke-opacity="0"/>\n\t<line id="function random() { [native code] }:Bond:30-28" class="event" x1="159" y1="89" x2="175" y2="98" stroke-width="8" stroke-opacity="0"/>\n\t<line id="function random() { [native code] }:Bond:31-22" class="event" x1="127" y1="70" x2="127" y2="89" stroke-width="8" stroke-opacity="0"/>\n\t<line id="function random() { [native code] }:Bond:2-1" class="event" x1="95" y1="33" x2="111" y2="42" stroke-width="8" stroke-opacity="0"/>\n\t<line id="function random() { [native code] }:Bond:3-2" class="event" x1="79" y1="42" x2="95" y2="33" stroke-width="8" stroke-opacity="0"/>\n\t<line id="function random() { [native code] }:Bond:4-3" class="event" x1="63" y1="33" x2="79" y2="42" stroke-width="8" stroke-opacity="0"/>\n\t<line id="function random() { [native code] }:Bond:5-4" class="event" x1="47" y1="42" x2="63" y2="33" stroke-width="8" stroke-opacity="0"/>\n\t<line id="function random() { [native code] }:Bond:6-5" class="event" x1="31" y1="33" x2="47" y2="42" stroke-width="8" stroke-opacity="0"/>\n\t<line id="function random() { [native code] }:Bond:7-6" class="event" x1="15" y1="42" x2="31" y2="33" stroke-width="8" stroke-opacity="0"/>\n\t<line id="function random() { [native code] }:Bond:8-7" class="event" x1="15" y1="61" x2="15" y2="42" stroke-width="8" stroke-opacity="0"/>\n\t<line id="function random() { [native code] }:Bond:9-8" class="event" x1="31" y1="70" x2="15" y2="61" stroke-width="8" stroke-opacity="0"/>\n\t<line id="function random() { [native code] }:Bond:10-9" class="event" x1="47" y1="61" x2="31" y2="70" stroke-width="8" stroke-opacity="0"/>\n\t<line id="function random() { [native code] }:Bond:10-5" class="event" x1="47" y1="61" x2="47" y2="42" stroke-width="8" stroke-opacity="0"/>\n\t<line id="function random() { [native code] }:Bond:11-1" class="event" x1="111" y1="61" x2="111" y2="42" stroke-width="8" stroke-opacity="0"/>\n\t<line id="function random() { [native code] }:Bond:13-12" class="event" x1="95" y1="89" x2="95" y2="70" stroke-width="8" stroke-opacity="0"/>\n\t<line id="function random() { [native code] }:Bond:14-13" class="event" x1="81" y1="101" x2="95" y2="89" stroke-width="8" stroke-opacity="0"/>\n\t<line id="function random() { [native code] }:Bond:16-15" class="event" x1="52" y1="114" x2="63" y2="99" stroke-width="8" stroke-opacity="0"/>\n\t<line id="function random() { [native code] }:Bond:18-17" class="event" x1="78" y1="133" x2="59" y2="131" stroke-width="8" stroke-opacity="0"/>\n\t<line id="function random() { [native code] }:Bond:19-14" class="event" x1="89" y1="118" x2="81" y2="101" stroke-width="8" stroke-opacity="0"/>\n\t<line id="function random() { [native code] }:Bond:20-19" class="event" x1="107" y1="116" x2="89" y2="118" stroke-width="8" stroke-opacity="0"/>\n\t<line id="function random() { [native code] }:Bond:21-20" class="event" x1="111" y1="98" x2="107" y2="116" stroke-width="8" stroke-opacity="0"/>\n\t<line id="function random() { [native code] }:Bond:22-21" class="event" x1="127" y1="89" x2="111" y2="98" stroke-width="8" stroke-opacity="0"/>\n\t<line id="function random() { [native code] }:Bond:23-22" class="event" x1="143" y1="98" x2="127" y2="89" stroke-width="8" stroke-opacity="0"/>\n\t<line id="function random() { [native code] }:Bond:25-24" class="event" x1="159" y1="126" x2="143" y2="116" stroke-width="8" stroke-opacity="0"/>\n\t<line id="function random() { [native code] }:Bond:27-26" class="event" x1="191" y1="126" x2="175" y2="116" stroke-width="8" stroke-opacity="0"/>\n\t<line id="function random() { [native code] }:Bond:28-26" class="event" x1="175" y1="98" x2="175" y2="116" stroke-width="8" stroke-opacity="0"/>\n\t<line id="function random() { [native code] }:Bond:29-28" class="event" x1="191" y1="89" x2="175" y2="98" stroke-width="8" stroke-opacity="0"/>\n\t<line id="function random() { [native code] }:Bond:30-23" class="event" x1="159" y1="89" x2="143" y2="98" stroke-width="8" stroke-opacity="0"/>\n\t<line id="function random() { [native code] }:Bond:31-11" class="event" x1="127" y1="70" x2="111" y2="61" stroke-width="8" stroke-opacity="0"/>\n\t<circle id="function random() { [native code] }:Atom:0" class="event" cx="127" cy="33" r="8" fill-opacity="0"/>\n\t<circle id="function random() { [native code] }:Atom:1" class="event" cx="111" cy="42" r="8" fill-opacity="0"/>\n\t<circle id="function random() { [native code] }:Atom:2" class="event" cx="95" cy="33" r="8" fill-opacity="0"/>\n\t<circle id="function random() { [native code] }:Atom:3" class="event" cx="79" cy="42" r="8" fill-opacity="0"/>\n\t<circle id="function random() { [native code] }:Atom:4" class="event" cx="63" cy="33" r="8" fill-opacity="0"/>\n\t<circle id="function random() { [native code] }:Atom:5" class="event" cx="47" cy="42" r="8" fill-opacity="0"/>\n\t<circle id="function random() { [native code] }:Atom:6" class="event" cx="31" cy="33" r="8" fill-opacity="0"/>\n\t<circle id="function random() { [native code] }:Atom:7" class="event" cx="15" cy="42" r="8" fill-opacity="0"/>\n\t<circle id="function random() { [native code] }:Atom:8" class="event" cx="15" cy="61" r="8" fill-opacity="0"/>\n\t<circle id="function random() { [native code] }:Atom:9" class="event" cx="31" cy="70" r="8" fill-opacity="0"/>\n\t<circle id="function random() { [native code] }:Atom:10" class="event" cx="47" cy="61" r="8" fill-opacity="0"/>\n\t<circle id="function random() { [native code] }:Atom:11" class="event" cx="111" cy="61" r="8" fill-opacity="0"/>\n\t<circle id="function random() { [native code] }:Atom:12" class="event" cx="95" cy="70" r="8" fill-opacity="0"/>\n\t<circle id="function random() { [native code] }:Atom:13" class="event" cx="95" cy="89" r="8" fill-opacity="0"/>\n\t<circle id="function random() { [native code] }:Atom:14" class="event" cx="81" cy="101" r="8" fill-opacity="0"/>\n\t<circle id="function random() { [native code] }:Atom:15" class="event" cx="63" cy="99" r="8" fill-opacity="0"/>\n\t<circle id="function random() { [native code] }:Atom:16" class="event" cx="52" cy="114" r="8" fill-opacity="0"/>\n\t<circle id="function random() { [native code] }:Atom:17" class="event" cx="59" cy="131" r="8" fill-opacity="0"/>\n\t<circle id="function random() { [native code] }:Atom:18" class="event" cx="78" cy="133" r="8" fill-opacity="0"/>\n\t<circle id="function random() { [native code] }:Atom:19" class="event" cx="89" cy="118" r="8" fill-opacity="0"/>\n\t<circle id="function random() { [native code] }:Atom:20" class="event" cx="107" cy="116" r="8" fill-opacity="0"/>\n\t<circle id="function random() { [native code] }:Atom:21" class="event" cx="111" cy="98" r="8" fill-opacity="0"/>\n\t<circle id="function random() { [native code] }:Atom:22" class="event" cx="127" cy="89" r="8" fill-opacity="0"/>\n\t<circle id="function random() { [native code] }:Atom:23" class="event" cx="143" cy="98" r="8" fill-opacity="0"/>\n\t<circle id="function random() { [native code] }:Atom:24" class="event" cx="143" cy="116" r="8" fill-opacity="0"/>\n\t<circle id="function random() { [native code] }:Atom:25" class="event" cx="159" cy="126" r="8" fill-opacity="0"/>\n\t<circle id="function random() { [native code] }:Atom:26" class="event" cx="175" cy="116" r="8" fill-opacity="0"/>\n\t<circle id="function random() { [native code] }:Atom:27" class="event" cx="191" cy="126" r="8" fill-opacity="0"/>\n\t<circle id="function random() { [native code] }:Atom:28" class="event" cx="175" cy="98" r="8" fill-opacity="0"/>\n\t<circle id="function random() { [native code] }:Atom:29" class="event" cx="191" cy="89" r="8" fill-opacity="0"/>\n\t<circle id="function random() { [native code] }:Atom:30" class="event" cx="159" cy="89" r="8" fill-opacity="0"/>\n\t<circle id="function random() { [native code] }:Atom:31" class="event" cx="127" cy="70" r="8" fill-opacity="0"/>\n</svg>