<svg id="function random() { [native code] }" xmlns="http://www.w3.org/2000/svg" version="1.1" width="200px" height="150px" viewBox="0 0 200 150">\n\t<style> #function random() { [native code] } {pointer-events:none; }  #function random() { [native code] } .event  { pointer-events:all;}  </style>\n\t<text x="166" y="26" font-family=" Helvetica" font-weight="900" font-size="10" fill="rgb(48,80,248)">N</text>\n\t<text x="121" y="35" font-family=" Helvetica" font-weight="900" font-size="10" fill="rgb(48,80,248)">N</text>\n\t<text x="121" y="45" font-family=" Helvetica" font-weight="900" font-size="10" fill="rgb(48,80,248)">H</text>\n\t<text x="106" y="9" font-family=" Helvetica" font-weight="900" font-size="10" fill="rgb(255,13,13)">O</text>\n\t<text x="45" y="57" font-family=" Helvetica" font-weight="900" font-size="10" fill="rgb(48,80,248)">N</text>\n\t<text x="45" y="67" font-family=" Helvetica" font-weight="900" font-size="10" fill="rgb(48,80,248)">H</text>\n\t<text x="94" y="129" font-family=" Helvetica" font-weight="900" font-size="10" fill="rgb(144,224,80)">F</text>\n\t<text x="77" y="146" font-family=" Helvetica" font-weight="900" font-size="10" fill="rgb(144,224,80)">F</text>\n\t<text x="60" y="129" font-family=" Helvetica" font-weight="900" font-size="10" fill="rgb(144,224,80)">F</text>\n\t<text x="91" y="52" font-family=" Helvetica" font-weight="900" font-size="10" fill="rgb(48,80,248)">N</text>\n\t<line x1="111" y1="24" x2="111" y2="11" style="stroke:rgb(0,0,0);stroke-width:1"/>\n\t<line x1="109" y1="24" x2="109" y2="11" style="stroke:rgb(0,0,0);stroke-width:1"/>\n\t<line x1="80" y1="23" x2="95" y2="32" style="stroke:rgb(0,0,0);stroke-width:1"/>\n\t<line x1="80" y1="26" x2="92" y2="33" style="stroke:rgb(0,0,0);stroke-width:1"/>\n\t<line x1="42" y1="11" x2="49" y2="26" style="stroke:rgb(0,0,0);stroke-width:1"/>\n\t<line x1="40" y1="13" x2="46" y2="26" style="stroke:rgb(0,0,0);stroke-width:1"/>\n\t<line x1="15" y1="23" x2="25" y2="9" style="stroke:rgb(0,0,0);stroke-width:1"/>\n\t<line x1="18" y1="23" x2="26" y2="12" style="stroke:rgb(0,0,0);stroke-width:1"/>\n\t<line x1="39" y1="40" x2="22" y2="38" style="stroke:rgb(0,0,0);stroke-width:1"/>\n\t<line x1="37" y1="37" x2="24" y2="36" style="stroke:rgb(0,0,0);stroke-width:1"/>\n\t<line x1="65" y1="49" x2="65" y2="32" style="stroke:rgb(0,0,0);stroke-width:1"/>\n\t<line x1="68" y1="47" x2="68" y2="33" style="stroke:rgb(0,0,0);stroke-width:1"/>\n\t<line x1="65" y1="83" x2="80" y2="75" style="stroke:rgb(0,0,0);stroke-width:1"/>\n\t<line x1="68" y1="84" x2="80" y2="78" style="stroke:rgb(0,0,0);stroke-width:1"/>\n\t<line x1="80" y1="109" x2="65" y2="100" style="stroke:rgb(0,0,0);stroke-width:1"/>\n\t<line x1="80" y1="106" x2="68" y2="99" style="stroke:rgb(0,0,0);stroke-width:1"/>\n\t<line x1="95" y1="83" x2="95" y2="100" style="stroke:rgb(0,0,0);stroke-width:1"/>\n\t<line x1="92" y1="85" x2="92" y2="98" style="stroke:rgb(0,0,0);stroke-width:1"/>\n\t<line x1="80" y1="57" x2="90" y2="51" style="stroke:rgb(0,0,0);stroke-width:1"/>\n\t<line x1="80" y1="54" x2="89" y2="49" style="stroke:rgb(0,0,0);stroke-width:1"/>\n\t<line x1="174" y1="26" x2="184" y2="32" style="stroke:rgb(0,0,0);stroke-width:1"/>\n\t<line x1="169" y1="6" x2="169" y2="18" style="stroke:rgb(0,0,0);stroke-width:1"/>\n\t<line x1="154" y1="32" x2="165" y2="26" style="stroke:rgb(0,0,0);stroke-width:1"/>\n\t<line x1="140" y1="23" x2="154" y2="32" style="stroke:rgb(0,0,0);stroke-width:1"/>\n\t<line x1="129" y1="29" x2="140" y2="23" style="stroke:rgb(0,0,0);stroke-width:1"/>\n\t<line x1="110" y1="23" x2="120" y2="29" style="stroke:rgb(0,0,0);stroke-width:1"/>\n\t<line x1="95" y1="32" x2="110" y2="23" style="stroke:rgb(0,0,0);stroke-width:1"/>\n\t<line x1="65" y1="32" x2="80" y2="23" style="stroke:rgb(0,0,0);stroke-width:1"/>\n\t<line x1="49" y1="26" x2="65" y2="32" style="stroke:rgb(0,0,0);stroke-width:1"/>\n\t<line x1="25" y1="9" x2="42" y2="11" style="stroke:rgb(0,0,0);stroke-width:1"/>\n\t<line x1="22" y1="38" x2="15" y2="23" style="stroke:rgb(0,0,0);stroke-width:1"/>\n\t<line x1="39" y1="40" x2="49" y2="26" style="stroke:rgb(0,0,0);stroke-width:1"/>\n\t<line x1="45" y1="49" x2="39" y2="40" style="stroke:rgb(0,0,0);stroke-width:1"/>\n\t<line x1="65" y1="49" x2="54" y2="53" style="stroke:rgb(0,0,0);stroke-width:1"/>\n\t<line x1="80" y1="57" x2="65" y2="49" style="stroke:rgb(0,0,0);stroke-width:1"/>\n\t<line x1="80" y1="75" x2="80" y2="57" style="stroke:rgb(0,0,0);stroke-width:1"/>\n\t<line x1="65" y1="100" x2="65" y2="83" style="stroke:rgb(0,0,0);stroke-width:1"/>\n\t<line x1="80" y1="126" x2="80" y2="109" style="stroke:rgb(0,0,0);stroke-width:1"/>\n\t<line x1="93" y1="126" x2="80" y2="126" style="stroke:rgb(0,0,0);stroke-width:1"/>\n\t<line x1="80" y1="138" x2="80" y2="126" style="stroke:rgb(0,0,0);stroke-width:1"/>\n\t<line x1="67" y1="126" x2="80" y2="126" style="stroke:rgb(0,0,0);stroke-width:1"/>\n\t<line x1="95" y1="100" x2="80" y2="109" style="stroke:rgb(0,0,0);stroke-width:1"/>\n\t<line x1="95" y1="83" x2="80" y2="75" style="stroke:rgb(0,0,0);stroke-width:1"/>\n\t<line x1="95" y1="44" x2="95" y2="32" style="stroke:rgb(0,0,0);stroke-width:1"/>\n\t<line id="function random() { [native code] }:Bond:7-6" class="event" x1="110" y1="6" x2="110" y2="23" stroke-width="8" stroke-opacity="0"/>\n\t<line id="function random() { [native code] }:Bond:9-8" class="event" x1="80" y1="23" x2="95" y2="32" stroke-width="8" stroke-opacity="0"/>\n\t<line id="function random() { [native code] }:Bond:12-11" class="event" x1="42" y1="11" x2="49" y2="26" stroke-width="8" stroke-opacity="0"/>\n\t<line id="function random() { [native code] }:Bond:14-13" class="event" x1="15" y1="23" x2="25" y2="9" stroke-width="8" stroke-opacity="0"/>\n\t<line id="function random() { [native code] }:Bond:16-15" class="event" x1="39" y1="40" x2="22" y2="38" stroke-width="8" stroke-opacity="0"/>\n\t<line id="function random() { [native code] }:Bond:18-10" class="event" x1="65" y1="49" x2="65" y2="32" stroke-width="8" stroke-opacity="0"/>\n\t<line id="function random() { [native code] }:Bond:21-20" class="event" x1="65" y1="83" x2="80" y2="75" stroke-width="8" stroke-opacity="0"/>\n\t<line id="function random() { [native code] }:Bond:23-22" class="event" x1="80" y1="109" x2="65" y2="100" stroke-width="8" stroke-opacity="0"/>\n\t<line id="function random() { [native code] }:Bond:29-28" class="event" x1="95" y1="83" x2="95" y2="100" stroke-width="8" stroke-opacity="0"/>\n\t<line id="function random() { [native code] }:Bond:30-19" class="event" x1="95" y1="49" x2="80" y2="57" stroke-width="8" stroke-opacity="0"/>\n\t<line id="function random() { [native code] }:Bond:1-0" class="event" x1="169" y1="23" x2="184" y2="32" stroke-width="8" stroke-opacity="0"/>\n\t<line id="function random() { [native code] }:Bond:2-1" class="event" x1="169" y1="6" x2="169" y2="23" stroke-width="8" stroke-opacity="0"/>\n\t<line id="function random() { [native code] }:Bond:3-1" class="event" x1="154" y1="32" x2="169" y2="23" stroke-width="8" stroke-opacity="0"/>\n\t<line id="function random() { [native code] }:Bond:4-3" class="event" x1="140" y1="23" x2="154" y2="32" stroke-width="8" stroke-opacity="0"/>\n\t<line id="function random() { [native code] }:Bond:5-4" class="event" x1="125" y1="32" x2="140" y2="23" stroke-width="8" stroke-opacity="0"/>\n\t<line id="function random() { [native code] }:Bond:6-5" class="event" x1="110" y1="23" x2="125" y2="32" stroke-width="8" stroke-opacity="0"/>\n\t<line id="function random() { [native code] }:Bond:8-6" class="event" x1="95" y1="32" x2="110" y2="23" stroke-width="8" stroke-opacity="0"/>\n\t<line id="function random() { [native code] }:Bond:10-9" class="event" x1="65" y1="32" x2="80" y2="23" stroke-width="8" stroke-opacity="0"/>\n\t<line id="function random() { [native code] }:Bond:11-10" class="event" x1="49" y1="26" x2="65" y2="32" stroke-width="8" stroke-opacity="0"/>\n\t<line id="function random() { [native code] }:Bond:13-12" class="event" x1="25" y1="9" x2="42" y2="11" stroke-width="8" stroke-opacity="0"/>\n\t<line id="function random() { [native code] }:Bond:15-14" class="event" x1="22" y1="38" x2="15" y2="23" stroke-width="8" stroke-opacity="0"/>\n\t<line id="function random() { [native code] }:Bond:16-11" class="event" x1="39" y1="40" x2="49" y2="26" stroke-width="8" stroke-opacity="0"/>\n\t<line id="function random() { [native code] }:Bond:17-16" class="event" x1="49" y1="54" x2="39" y2="40" stroke-width="8" stroke-opacity="0"/>\n\t<line id="function random() { [native code] }:Bond:18-17" class="event" x1="65" y1="49" x2="49" y2="54" stroke-width="8" stroke-opacity="0"/>\n\t<line id="function random() { [native code] }:Bond:19-18" class="event" x1="80" y1="57" x2="65" y2="49" stroke-width="8" stroke-opacity="0"/>\n\t<line id="function random() { [native code] }:Bond:20-19" class="event" x1="80" y1="75" x2="80" y2="57" stroke-width="8" stroke-opacity="0"/>\n\t<line id="function random() { [native code] }:Bond:22-21" class="event" x1="65" y1="100" x2="65" y2="83" stroke-width="8" stroke-opacity="0"/>\n\t<line id="function random() { [native code] }:Bond:24-23" class="event" x1="80" y1="126" x2="80" y2="109" stroke-width="8" stroke-opacity="0"/>\n\t<line id="function random() { [native code] }:Bond:25-24" class="event" x1="97" y1="126" x2="80" y2="126" stroke-width="8" stroke-opacity="0"/>\n\t<line id="function random() { [native code] }:Bond:26-24" class="event" x1="80" y1="143" x2="80" y2="126" stroke-width="8" stroke-opacity="0"/>\n\t<line id="function random() { [native code] }:Bond:27-24" class="event" x1="63" y1="126" x2="80" y2="126" stroke-width="8" stroke-opacity="0"/>\n\t<line id="function random() { [native code] }:Bond:28-23" class="event" x1="95" y1="100" x2="80" y2="109" stroke-width="8" stroke-opacity="0"/>\n\t<line id="function random() { [native code] }:Bond:29-20" class="event" x1="95" y1="83" x2="80" y2="75" stroke-width="8" stroke-opacity="0"/>\n\t<line id="function random() { [native code] }:Bond:30-8" class="event" x1="95" y1="49" x2="95" y2="32" stroke-width="8" stroke-opacity="0"/>\n\t<circle id="function random() { [native code] }:Atom:0" class="event" cx="184" cy="32" r="8" fill-opacity="0"/>\n\t<circle id="function random() { [native code] }:Atom:1" class="event" cx="169" cy="23" r="8" fill-opacity="0"/>\n\t<circle id="function random() { [native code] }:Atom:2" class="event" cx="169" cy="6" r="8" fill-opacity="0"/>\n\t<circle id="function random() { [native code] }:Atom:3" class="event" cx="154" cy="32" r="8" fill-opacity="0"/>\n\t<circle id="function random() { [native code] }:Atom:4" class="event" cx="140" cy="23" r="8" fill-opacity="0"/>\n\t<circle id="function random() { [native code] }:Atom:5" class="event" cx="125" cy="32" r="8" fill-opacity="0"/>\n\t<circle id="function random() { [native code] }:Atom:6" class="event" cx="110" cy="23" r="8" fill-opacity="0"/>\n\t<circle id="function random() { [native code] }:Atom:7" class="event" cx="110" cy="6" r="8" fill-opacity="0"/>\n\t<circle id="function random() { [native code] }:Atom:8" class="event" cx="95" cy="32" r="8" fill-opacity="0"/>\n\t<circle id="function random() { [native code] }:Atom:9" class="event" cx="80" cy="23" r="8" fill-opacity="0"/>\n\t<circle id="function random() { [native code] }:Atom:10" class="event" cx="65" cy="32" r="8" fill-opacity="0"/>\n\t<circle id="function random() { [native code] }:Atom:11" class="event" cx="49" cy="26" r="8" fill-opacity="0"/>\n\t<circle id="function random() { [native code] }:Atom:12" class="event" cx="42" cy="11" r="8" fill-opacity="0"/>\n\t<circle id="function random() { [native code] }:Atom:13" class="event" cx="25" cy="9" r="8" fill-opacity="0"/>\n\t<circle id="function random() { [native code] }:Atom:14" class="event" cx="15" cy="23" r="8" fill-opacity="0"/>\n\t<circle id="function random() { [native code] }:Atom:15" class="event" cx="22" cy="38" r="8" fill-opacity="0"/>\n\t<circle id="function random() { [native code] }:Atom:16" class="event" cx="39" cy="40" r="8" fill-opacity="0"/>\n\t<circle id="function random() { [native code] }:Atom:17" class="event" cx="49" cy="54" r="8" fill-opacity="0"/>\n\t<circle id="function random() { [native code] }:Atom:18" class="event" cx="65" cy="49" r="8" fill-opacity="0"/>\n\t<circle id="function random() { [native code] }:Atom:19" class="event" cx="80" cy="57" r="8" fill-opacity="0"/>\n\t<circle id="function random() { [native code] }:Atom:20" class="event" cx="80" cy="75" r="8" fill-opacity="0"/>\n\t<circle id="function random() { [native code] }:Atom:21" class="event" cx="65" cy="83" r="8" fill-opacity="0"/>\n\t<circle id="function random() { [native code] }:Atom:22" class="event" cx="65" cy="100" r="8" fill-opacity="0"/>\n\t<circle id="function random() { [native code] }:Atom:23" class="event" cx="80" cy="109" r="8" fill-opacity="0"/>\n\t<circle id="function random() { [native code] }:Atom:24" class="event" cx="80" cy="126" r="8" fill-opacity="0"/>\n\t<circle id="function random() { [native code] }:Atom:25" class="event" cx="97" cy="126" r="8" fill-opacity="0"/>\n\t<circle id="function random() { [native code] }:Atom:26" class="event" cx="80" cy="143" r="8" fill-opacity="0"/>\n\t<circle id="function random() { [native code] }:Atom:27" class="event" cx="63" cy="126" r="8" fill-opacity="0"/>\n\t<circle id="function random() { [native code] }:Atom:28" class="event" cx="95" cy="100" r="8" fill-opacity="0"/>\n\t<circle id="function random() { [native code] }:Atom:29" class="event" cx="95" cy="83" r="8" fill-opacity="0"/>\n\t<circle id="function random() { [native code] }:Atom:30" class="event" cx="95" cy="49" r="8" fill-opacity="0"/>\n</svg>