<svg id="function random() { [native code] }" xmlns="http://www.w3.org/2000/svg" version="1.1" width="200px" height="150px" viewBox="0 0 200 150">\n\t<style> #function random() { [native code] } {pointer-events:none; }  #function random() { [native code] } .event  { pointer-events:all;}  </style>\n\t<text x="176" y="32" font-family=" Helvetica" font-weight="900" font-size="12" fill="rgb(48,80,248)">N</text>\n\t<text x="176" y="20" font-family=" Helvetica" font-weight="900" font-size="12" fill="rgb(48,80,248)">H</text>\n\t<text x="124" y="42" font-family=" Helvetica" font-weight="900" font-size="12" fill="rgb(48,80,248)">N</text>\n\t<text x="124" y="54" font-family=" Helvetica" font-weight="900" font-size="12" fill="rgb(48,80,248)">H</text>\n\t<text x="107" y="12" font-family=" Helvetica" font-weight="900" font-size="12" fill="rgb(255,13,13)">O</text>\n\t<text x="37" y="68" font-family=" Helvetica" font-weight="900" font-size="12" fill="rgb(48,80,248)">N</text>\n\t<text x="37" y="80" font-family=" Helvetica" font-weight="900" font-size="12" fill="rgb(48,80,248)">H</text>\n\t<text x="90" y="62" font-family=" Helvetica" font-weight="900" font-size="12" fill="rgb(48,80,248)">N</text>\n\t<line x1="113" y1="29" x2="113" y2="14" style="stroke:rgb(0,0,0);stroke-width:1"/>\n\t<line x1="110" y1="29" x2="110" y2="14" style="stroke:rgb(0,0,0);stroke-width:1"/>\n\t<line x1="77" y1="28" x2="94" y2="38" style="stroke:rgb(0,0,0);stroke-width:1"/>\n\t<line x1="77" y1="31" x2="91" y2="39" style="stroke:rgb(0,0,0);stroke-width:1"/>\n\t<line x1="33" y1="13" x2="41" y2="32" style="stroke:rgb(0,0,0);stroke-width:1"/>\n\t<line x1="31" y1="17" x2="37" y2="31" style="stroke:rgb(0,0,0);stroke-width:1"/>\n\t<line x1="1" y1="27" x2="13" y2="11" style="stroke:rgb(0,0,0);stroke-width:1"/>\n\t<line x1="5" y1="27" x2="14" y2="15" style="stroke:rgb(0,0,0);stroke-width:1"/>\n\t<line x1="29" y1="48" x2="10" y2="46" style="stroke:rgb(0,0,0);stroke-width:1"/>\n\t<line x1="28" y1="44" x2="12" y2="43" style="stroke:rgb(0,0,0);stroke-width:1"/>\n\t<line x1="60" y1="58" x2="60" y2="38" style="stroke:rgb(0,0,0);stroke-width:1"/>\n\t<line x1="63" y1="55" x2="63" y2="40" style="stroke:rgb(0,0,0);stroke-width:1"/>\n\t<line x1="60" y1="97" x2="77" y2="87" style="stroke:rgb(0,0,0);stroke-width:1"/>\n\t<line x1="63" y1="99" x2="77" y2="91" style="stroke:rgb(0,0,0);stroke-width:1"/>\n\t<line x1="77" y1="127" x2="60" y2="117" style="stroke:rgb(0,0,0);stroke-width:1"/>\n\t<line x1="77" y1="123" x2="63" y2="116" style="stroke:rgb(0,0,0);stroke-width:1"/>\n\t<line x1="94" y1="97" x2="94" y2="117" style="stroke:rgb(0,0,0);stroke-width:1"/>\n\t<line x1="91" y1="99" x2="91" y2="115" style="stroke:rgb(0,0,0);stroke-width:1"/>\n\t<line x1="77" y1="68" x2="89" y2="61" style="stroke:rgb(0,0,0);stroke-width:1"/>\n\t<line x1="77" y1="64" x2="87" y2="58" style="stroke:rgb(0,0,0);stroke-width:1"/>\n\t<line x1="186" y1="31" x2="198" y2="38" style="stroke:rgb(0,0,0);stroke-width:1"/>\n\t<line x1="163" y1="38" x2="175" y2="31" style="stroke:rgb(0,0,0);stroke-width:1"/>\n\t<line x1="146" y1="28" x2="163" y2="38" style="stroke:rgb(0,0,0);stroke-width:1"/>\n\t<line x1="134" y1="35" x2="146" y2="28" style="stroke:rgb(0,0,0);stroke-width:1"/>\n\t<line x1="111" y1="28" x2="123" y2="35" style="stroke:rgb(0,0,0);stroke-width:1"/>\n\t<line x1="94" y1="38" x2="111" y2="28" style="stroke:rgb(0,0,0);stroke-width:1"/>\n\t<line x1="60" y1="38" x2="77" y2="28" style="stroke:rgb(0,0,0);stroke-width:1"/>\n\t<line x1="41" y1="32" x2="60" y2="38" style="stroke:rgb(0,0,0);stroke-width:1"/>\n\t<line x1="13" y1="11" x2="33" y2="13" style="stroke:rgb(0,0,0);stroke-width:1"/>\n\t<line x1="10" y1="46" x2="1" y2="27" style="stroke:rgb(0,0,0);stroke-width:1"/>\n\t<line x1="29" y1="48" x2="41" y2="32" style="stroke:rgb(0,0,0);stroke-width:1"/>\n\t<line x1="37" y1="58" x2="29" y2="48" style="stroke:rgb(0,0,0);stroke-width:1"/>\n\t<line x1="60" y1="58" x2="46" y2="62" style="stroke:rgb(0,0,0);stroke-width:1"/>\n\t<line x1="77" y1="68" x2="60" y2="58" style="stroke:rgb(0,0,0);stroke-width:1"/>\n\t<line x1="77" y1="87" x2="77" y2="68" style="stroke:rgb(0,0,0);stroke-width:1"/>\n\t<line x1="60" y1="117" x2="60" y2="97" style="stroke:rgb(0,0,0);stroke-width:1"/>\n\t<line x1="77" y1="147" x2="77" y2="127" style="stroke:rgb(0,0,0);stroke-width:1"/>\n\t<line x1="94" y1="117" x2="77" y2="127" style="stroke:rgb(0,0,0);stroke-width:1"/>\n\t<line x1="94" y1="97" x2="77" y2="87" style="stroke:rgb(0,0,0);stroke-width:1"/>\n\t<line x1="94" y1="52" x2="94" y2="38" style="stroke:rgb(0,0,0);stroke-width:1"/>\n\t<line id="function random() { [native code] }:Bond:6-5" class="event" x1="111" y1="8" x2="111" y2="28" stroke-width="8" stroke-opacity="0"/>\n\t<line id="function random() { [native code] }:Bond:8-7" class="event" x1="77" y1="28" x2="94" y2="38" stroke-width="8" stroke-opacity="0"/>\n\t<line id="function random() { [native code] }:Bond:11-10" class="event" x1="33" y1="13" x2="41" y2="32" stroke-width="8" stroke-opacity="0"/>\n\t<line id="function random() { [native code] }:Bond:13-12" class="event" x1="1" y1="27" x2="13" y2="11" stroke-width="8" stroke-opacity="0"/>\n\t<line id="function random() { [native code] }:Bond:15-14" class="event" x1="29" y1="48" x2="10" y2="46" stroke-width="8" stroke-opacity="0"/>\n\t<line id="function random() { [native code] }:Bond:17-9" class="event" x1="60" y1="58" x2="60" y2="38" stroke-width="8" stroke-opacity="0"/>\n\t<line id="function random() { [native code] }:Bond:20-19" class="event" x1="60" y1="97" x2="77" y2="87" stroke-width="8" stroke-opacity="0"/>\n\t<line id="function random() { [native code] }:Bond:22-21" class="event" x1="77" y1="127" x2="60" y2="117" stroke-width="8" stroke-opacity="0"/>\n\t<line id="function random() { [native code] }:Bond:25-24" class="event" x1="94" y1="97" x2="94" y2="117" stroke-width="8" stroke-opacity="0"/>\n\t<line id="function random() { [native code] }:Bond:26-18" class="event" x1="94" y1="58" x2="77" y2="68" stroke-width="8" stroke-opacity="0"/>\n\t<line id="function random() { [native code] }:Bond:1-0" class="event" x1="180" y1="28" x2="198" y2="38" stroke-width="8" stroke-opacity="0"/>\n\t<line id="function random() { [native code] }:Bond:2-1" class="event" x1="163" y1="38" x2="180" y2="28" stroke-width="8" stroke-opacity="0"/>\n\t<line id="function random() { [native code] }:Bond:3-2" class="event" x1="146" y1="28" x2="163" y2="38" stroke-width="8" stroke-opacity="0"/>\n\t<line id="function random() { [native code] }:Bond:4-3" class="event" x1="129" y1="38" x2="146" y2="28" stroke-width="8" stroke-opacity="0"/>\n\t<line id="function random() { [native code] }:Bond:5-4" class="event" x1="111" y1="28" x2="129" y2="38" stroke-width="8" stroke-opacity="0"/>\n\t<line id="function random() { [native code] }:Bond:7-5" class="event" x1="94" y1="38" x2="111" y2="28" stroke-width="8" stroke-opacity="0"/>\n\t<line id="function random() { [native code] }:Bond:9-8" class="event" x1="60" y1="38" x2="77" y2="28" stroke-width="8" stroke-opacity="0"/>\n\t<line id="function random() { [native code] }:Bond:10-9" class="event" x1="41" y1="32" x2="60" y2="38" stroke-width="8" stroke-opacity="0"/>\n\t<line id="function random() { [native code] }:Bond:12-11" class="event" x1="13" y1="11" x2="33" y2="13" stroke-width="8" stroke-opacity="0"/>\n\t<line id="function random() { [native code] }:Bond:14-13" class="event" x1="10" y1="46" x2="1" y2="27" stroke-width="8" stroke-opacity="0"/>\n\t<line id="function random() { [native code] }:Bond:15-10" class="event" x1="29" y1="48" x2="41" y2="32" stroke-width="8" stroke-opacity="0"/>\n\t<line id="function random() { [native code] }:Bond:16-15" class="event" x1="41" y1="64" x2="29" y2="48" stroke-width="8" stroke-opacity="0"/>\n\t<line id="function random() { [native code] }:Bond:17-16" class="event" x1="60" y1="58" x2="41" y2="64" stroke-width="8" stroke-opacity="0"/>\n\t<line id="function random() { [native code] }:Bond:18-17" class="event" x1="77" y1="68" x2="60" y2="58" stroke-width="8" stroke-opacity="0"/>\n\t<line id="function random() { [native code] }:Bond:19-18" class="event" x1="77" y1="87" x2="77" y2="68" stroke-width="8" stroke-opacity="0"/>\n\t<line id="function random() { [native code] }:Bond:21-20" class="event" x1="60" y1="117" x2="60" y2="97" stroke-width="8" stroke-opacity="0"/>\n\t<line id="function random() { [native code] }:Bond:23-22" class="event" x1="77" y1="147" x2="77" y2="127" stroke-width="8" stroke-opacity="0"/>\n\t<line id="function random() { [native code] }:Bond:24-22" class="event" x1="94" y1="117" x2="77" y2="127" stroke-width="8" stroke-opacity="0"/>\n\t<line id="function random() { [native code] }:Bond:25-19" class="event" x1="94" y1="97" x2="77" y2="87" stroke-width="8" stroke-opacity="0"/>\n\t<line id="function random() { [native code] }:Bond:26-7" class="event" x1="94" y1="58" x2="94" y2="38" stroke-width="8" stroke-opacity="0"/>\n\t<circle id="function random() { [native code] }:Atom:0" class="event" cx="198" cy="38" r="8" fill-opacity="0"/>\n\t<circle id="function random() { [native code] }:Atom:1" class="event" cx="180" cy="28" r="8" fill-opacity="0"/>\n\t<circle id="function random() { [native code] }:Atom:2" class="event" cx="163" cy="38" r="8" fill-opacity="0"/>\n\t<circle id="function random() { [native code] }:Atom:3" class="event" cx="146" cy="28" r="8" fill-opacity="0"/>\n\t<circle id="function random() { [native code] }:Atom:4" class="event" cx="129" cy="38" r="8" fill-opacity="0"/>\n\t<circle id="function random() { [native code] }:Atom:5" class="event" cx="111" cy="28" r="8" fill-opacity="0"/>\n\t<circle id="function random() { [native code] }:Atom:6" class="event" cx="111" cy="8" r="8" fill-opacity="0"/>\n\t<circle id="function random() { [native code] }:Atom:7" class="event" cx="94" cy="38" r="8" fill-opacity="0"/>\n\t<circle id="function random() { [native code] }:Atom:8" class="event" cx="77" cy="28" r="8" fill-opacity="0"/>\n\t<circle id="function random() { [native code] }:Atom:9" class="event" cx="60" cy="38" r="8" fill-opacity="0"/>\n\t<circle id="function random() { [native code] }:Atom:10" class="event" cx="41" cy="32" r="8" fill-opacity="0"/>\n\t<circle id="function random() { [native code] }:Atom:11" class="event" cx="33" cy="13" r="8" fill-opacity="0"/>\n\t<circle id="function random() { [native code] }:Atom:12" class="event" cx="13" cy="11" r="8" fill-opacity="0"/>\n\t<circle id="function random() { [native code] }:Atom:13" class="event" cx="1" cy="27" r="8" fill-opacity="0"/>\n\t<circle id="function random() { [native code] }:Atom:14" class="event" cx="10" cy="46" r="8" fill-opacity="0"/>\n\t<circle id="function random() { [native code] }:Atom:15" class="event" cx="29" cy="48" r="8" fill-opacity="0"/>\n\t<circle id="function random() { [native code] }:Atom:16" class="event" cx="41" cy="64" r="8" fill-opacity="0"/>\n\t<circle id="function random() { [native code] }:Atom:17" class="event" cx="60" cy="58" r="8" fill-opacity="0"/>\n\t<circle id="function random() { [native code] }:Atom:18" class="event" cx="77" cy="68" r="8" fill-opacity="0"/>\n\t<circle id="function random() { [native code] }:Atom:19" class="event" cx="77" cy="87" r="8" fill-opacity="0"/>\n\t<circle id="function random() { [native code] }:Atom:20" class="event" cx="60" cy="97" r="8" fill-opacity="0"/>\n\t<circle id="function random() { [native code] }:Atom:21" class="event" cx="60" cy="117" r="8" fill-opacity="0"/>\n\t<circle id="function random() { [native code] }:Atom:22" class="event" cx="77" cy="127" r="8" fill-opacity="0"/>\n\t<circle id="function random() { [native code] }:Atom:23" class="event" cx="77" cy="147" r="8" fill-opacity="0"/>\n\t<circle id="function random() { [native code] }:Atom:24" class="event" cx="94" cy="117" r="8" fill-opacity="0"/>\n\t<circle id="function random() { [native code] }:Atom:25" class="event" cx="94" cy="97" r="8" fill-opacity="0"/>\n\t<circle id="function random() { [native code] }:Atom:26" class="event" cx="94" cy="58" r="8" fill-opacity="0"/>\n</svg>