<svg id="function random() { [native code] }" xmlns="http://www.w3.org/2000/svg" version="1.1" width="200px" height="150px" viewBox="0 0 200 150">\n\t<style> #function random() { [native code] } {pointer-events:none; }  #function random() { [native code] } .event  { pointer-events:all;}  </style>\n\t<text x="103" y="70" font-family=" Helvetica" font-weight="900" font-size="14" fill="rgb(48,80,248)">N</text>\n\t<line x1="114" y1="63" x2="129" y2="54" style="stroke:rgb(0,0,0);stroke-width:1"/>\n\t<line x1="86" y1="56" x2="102" y2="63" style="stroke:rgb(0,0,0);stroke-width:1"/>\n\t<line x1="70" y1="74" x2="86" y2="56" style="stroke:rgb(0,0,0);stroke-width:1"/>\n\t<line x1="82" y1="95" x2="70" y2="74" style="stroke:rgb(0,0,0);stroke-width:1"/>\n\t<line x1="106" y1="90" x2="82" y2="95" style="stroke:rgb(0,0,0);stroke-width:1"/>\n\t<line x1="106" y1="90" x2="107" y2="73" style="stroke:rgb(0,0,0);stroke-width:1"/>\n\t<line id="function random() { [native code] }:Bond:1-0" class="event" x1="108" y1="66" x2="129" y2="54" stroke-width="8" stroke-opacity="0"/>\n\t<line id="function random() { [native code] }:Bond:2-1" class="event" x1="86" y1="56" x2="108" y2="66" stroke-width="8" stroke-opacity="0"/>\n\t<line id="function random() { [native code] }:Bond:3-2" class="event" x1="70" y1="74" x2="86" y2="56" stroke-width="8" stroke-opacity="0"/>\n\t<line id="function random() { [native code] }:Bond:4-3" class="event" x1="82" y1="95" x2="70" y2="74" stroke-width="8" stroke-opacity="0"/>\n\t<line id="function random() { [native code] }:Bond:5-4" class="event" x1="106" y1="90" x2="82" y2="95" stroke-width="8" stroke-opacity="0"/>\n\t<line id="function random() { [native code] }:Bond:5-1" class="event" x1="106" y1="90" x2="108" y2="66" stroke-width="8" stroke-opacity="0"/>\n\t<circle id="function random() { [native code] }:Atom:0" class="event" cx="129" cy="54" r="8" fill-opacity="0"/>\n\t<circle id="function random() { [native code] }:Atom:1" class="event" cx="108" cy="66" r="8" fill-opacity="0"/>\n\t<circle id="function random() { [native code] }:Atom:2" class="event" cx="86" cy="56" r="8" fill-opacity="0"/>\n\t<circle id="function random() { [native code] }:Atom:3" class="event" cx="70" cy="74" r="8" fill-opacity="0"/>\n\t<circle id="function random() { [native code] }:Atom:4" class="event" cx="82" cy="95" r="8" fill-opacity="0"/>\n\t<circle id="function random() { [native code] }:Atom:5" class="event" cx="106" cy="90" r="8" fill-opacity="0"/>\n</svg>