<svg id="function random() { [native code] }" xmlns="http://www.w3.org/2000/svg" version="1.1" width="200px" height="150px" viewBox="0 0 200 150">\n\t<style> #function random() { [native code] } {pointer-events:none; }  #function random() { [native code] } .event  { pointer-events:all;}  </style>\n\t<text x="105" y="67" font-family=" Helvetica" font-weight="900" font-size="14" fill="rgb(48,80,248)">N</text>\n\t<text x="63" y="91" font-family=" Helvetica" font-weight="900" font-size="14" fill="rgb(255,13,13)">O</text>\n\t<line x1="116" y1="59" x2="131" y2="51" style="stroke:rgb(0,0,0);stroke-width:1"/>\n\t<line x1="89" y1="51" x2="104" y2="59" style="stroke:rgb(0,0,0);stroke-width:1"/>\n\t<line x1="68" y1="62" x2="89" y2="51" style="stroke:rgb(0,0,0);stroke-width:1"/>\n\t<line x1="68" y1="80" x2="68" y2="62" style="stroke:rgb(0,0,0);stroke-width:1"/>\n\t<line x1="89" y1="99" x2="75" y2="90" style="stroke:rgb(0,0,0);stroke-width:1"/>\n\t<line x1="110" y1="87" x2="89" y2="99" style="stroke:rgb(0,0,0);stroke-width:1"/>\n\t<line x1="110" y1="87" x2="110" y2="70" style="stroke:rgb(0,0,0);stroke-width:1"/>\n\t<line id="function random() { [native code] }:Bond:1-0" class="event" x1="110" y1="63" x2="131" y2="51" stroke-width="8" stroke-opacity="0"/>\n\t<line id="function random() { [native code] }:Bond:2-1" class="event" x1="89" y1="51" x2="110" y2="63" stroke-width="8" stroke-opacity="0"/>\n\t<line id="function random() { [native code] }:Bond:3-2" class="event" x1="68" y1="62" x2="89" y2="51" stroke-width="8" stroke-opacity="0"/>\n\t<line id="function random() { [native code] }:Bond:4-3" class="event" x1="68" y1="87" x2="68" y2="62" stroke-width="8" stroke-opacity="0"/>\n\t<line id="function random() { [native code] }:Bond:5-4" class="event" x1="89" y1="99" x2="68" y2="87" stroke-width="8" stroke-opacity="0"/>\n\t<line id="function random() { [native code] }:Bond:6-5" class="event" x1="110" y1="87" x2="89" y2="99" stroke-width="8" stroke-opacity="0"/>\n\t<line id="function random() { [native code] }:Bond:6-1" class="event" x1="110" y1="87" x2="110" y2="63" stroke-width="8" stroke-opacity="0"/>\n\t<circle id="function random() { [native code] }:Atom:0" class="event" cx="131" cy="51" r="8" fill-opacity="0"/>\n\t<circle id="function random() { [native code] }:Atom:1" class="event" cx="110" cy="63" r="8" fill-opacity="0"/>\n\t<circle id="function random() { [native code] }:Atom:2" class="event" cx="89" cy="51" r="8" fill-opacity="0"/>\n\t<circle id="function random() { [native code] }:Atom:3" class="event" cx="68" cy="62" r="8" fill-opacity="0"/>\n\t<circle id="function random() { [native code] }:Atom:4" class="event" cx="68" cy="87" r="8" fill-opacity="0"/>\n\t<circle id="function random() { [native code] }:Atom:5" class="event" cx="89" cy="99" r="8" fill-opacity="0"/>\n\t<circle id="function random() { [native code] }:Atom:6" class="event" cx="110" cy="87" r="8" fill-opacity="0"/>\n</svg>