<svg id="function random() { [native code] }" xmlns="http://www.w3.org/2000/svg" version="1.1" width="200px" height="150px" viewBox="0 0 200 150">\n\t<style> #function random() { [native code] } {pointer-events:none; }  #function random() { [native code] } .event  { pointer-events:all;}  </style>\n\t<text x="132" y="49" font-family=" Helvetica" font-weight="900" font-size="14" fill="rgb(48,80,248)">N</text>\n\t<text x="132" y="63" font-family=" Helvetica" font-weight="900" font-size="14" fill="rgb(48,80,248)">H</text>\n\t<text x="111" y="13" font-family=" Helvetica" font-weight="900" font-size="14" fill="rgb(255,13,13)">O</text>\n\t<text x="70" y="37" font-family=" Helvetica" font-weight="900" font-size="14" fill="rgb(48,80,248)">N</text>\n\t<text x="32" y="88" font-family=" Helvetica" font-weight="900" font-size="14" fill="rgb(48,80,248)">N</text>\n\t<text x="22" y="88" font-family=" Helvetica" font-weight="900" font-size="14" fill="rgb(48,80,248)">H</text>\n\t<line x1="118" y1="34" x2="118" y2="16" style="stroke:rgb(0,0,0);stroke-width:1"/>\n\t<line x1="115" y1="34" x2="115" y2="16" style="stroke:rgb(0,0,0);stroke-width:1"/>\n\t<line x1="96" y1="68" x2="96" y2="45" style="stroke:rgb(0,0,0);stroke-width:1"/>\n\t<line x1="92" y1="66" x2="92" y2="47" style="stroke:rgb(0,0,0);stroke-width:1"/>\n\t<line x1="54" y1="68" x2="75" y2="80" style="stroke:rgb(0,0,0);stroke-width:1"/>\n\t<line x1="55" y1="73" x2="71" y2="82" style="stroke:rgb(0,0,0);stroke-width:1"/>\n\t<line x1="54" y1="45" x2="69" y2="36" style="stroke:rgb(0,0,0);stroke-width:1"/>\n\t<line x1="58" y1="46" x2="70" y2="40" style="stroke:rgb(0,0,0);stroke-width:1"/>\n\t<line x1="37" y1="128" x2="46" y2="106" style="stroke:rgb(0,0,0);stroke-width:1"/>\n\t<line x1="41" y1="127" x2="49" y2="110" style="stroke:rgb(0,0,0);stroke-width:1"/>\n\t<line x1="74" y1="145" x2="51" y2="147" style="stroke:rgb(0,0,0);stroke-width:1"/>\n\t<line x1="72" y1="141" x2="53" y2="143" style="stroke:rgb(0,0,0);stroke-width:1"/>\n\t<line x1="70" y1="104" x2="84" y2="123" style="stroke:rgb(0,0,0);stroke-width:1"/>\n\t<line x1="69" y1="108" x2="80" y2="123" style="stroke:rgb(0,0,0);stroke-width:1"/>\n\t<line x1="158" y1="33" x2="178" y2="45" style="stroke:rgb(0,0,0);stroke-width:1"/>\n\t<line x1="143" y1="41" x2="158" y2="33" style="stroke:rgb(0,0,0);stroke-width:1"/>\n\t<line x1="116" y1="33" x2="131" y2="41" style="stroke:rgb(0,0,0);stroke-width:1"/>\n\t<line x1="96" y1="45" x2="116" y2="33" style="stroke:rgb(0,0,0);stroke-width:1"/>\n\t<line x1="75" y1="80" x2="96" y2="68" style="stroke:rgb(0,0,0);stroke-width:1"/>\n\t<line x1="54" y1="45" x2="54" y2="68" style="stroke:rgb(0,0,0);stroke-width:1"/>\n\t<line x1="81" y1="36" x2="96" y2="45" style="stroke:rgb(0,0,0);stroke-width:1"/>\n\t<line x1="43" y1="79" x2="54" y2="68" style="stroke:rgb(0,0,0);stroke-width:1"/>\n\t<line x1="46" y1="106" x2="40" y2="91" style="stroke:rgb(0,0,0);stroke-width:1"/>\n\t<line x1="51" y1="147" x2="37" y2="128" style="stroke:rgb(0,0,0);stroke-width:1"/>\n\t<line x1="84" y1="123" x2="74" y2="145" style="stroke:rgb(0,0,0);stroke-width:1"/>\n\t<line x1="70" y1="104" x2="46" y2="106" style="stroke:rgb(0,0,0);stroke-width:1"/>\n\t<line x1="70" y1="104" x2="75" y2="80" style="stroke:rgb(0,0,0);stroke-width:1"/>\n\t<line id="function random() { [native code] }:Bond:4-3" class="event" x1="116" y1="9" x2="116" y2="33" stroke-width="8" stroke-opacity="0"/>\n\t<line id="function random() { [native code] }:Bond:6-5" class="event" x1="96" y1="68" x2="96" y2="45" stroke-width="8" stroke-opacity="0"/>\n\t<line id="function random() { [native code] }:Bond:8-7" class="event" x1="54" y1="68" x2="75" y2="80" stroke-width="8" stroke-opacity="0"/>\n\t<line id="function random() { [native code] }:Bond:10-9" class="event" x1="75" y1="33" x2="54" y2="45" stroke-width="8" stroke-opacity="0"/>\n\t<line id="function random() { [native code] }:Bond:13-12" class="event" x1="37" y1="128" x2="46" y2="106" stroke-width="8" stroke-opacity="0"/>\n\t<line id="function random() { [native code] }:Bond:15-14" class="event" x1="74" y1="145" x2="51" y2="147" stroke-width="8" stroke-opacity="0"/>\n\t<line id="function random() { [native code] }:Bond:17-16" class="event" x1="70" y1="104" x2="84" y2="123" stroke-width="8" stroke-opacity="0"/>\n\t<line id="function random() { [native code] }:Bond:1-0" class="event" x1="158" y1="33" x2="178" y2="45" stroke-width="8" stroke-opacity="0"/>\n\t<line id="function random() { [native code] }:Bond:2-1" class="event" x1="137" y1="45" x2="158" y2="33" stroke-width="8" stroke-opacity="0"/>\n\t<line id="function random() { [native code] }:Bond:3-2" class="event" x1="116" y1="33" x2="137" y2="45" stroke-width="8" stroke-opacity="0"/>\n\t<line id="function random() { [native code] }:Bond:5-3" class="event" x1="96" y1="45" x2="116" y2="33" stroke-width="8" stroke-opacity="0"/>\n\t<line id="function random() { [native code] }:Bond:7-6" class="event" x1="75" y1="80" x2="96" y2="68" stroke-width="8" stroke-opacity="0"/>\n\t<line id="function random() { [native code] }:Bond:9-8" class="event" x1="54" y1="45" x2="54" y2="68" stroke-width="8" stroke-opacity="0"/>\n\t<line id="function random() { [native code] }:Bond:10-5" class="event" x1="75" y1="33" x2="96" y2="45" stroke-width="8" stroke-opacity="0"/>\n\t<line id="function random() { [native code] }:Bond:11-8" class="event" x1="37" y1="84" x2="54" y2="68" stroke-width="8" stroke-opacity="0"/>\n\t<line id="function random() { [native code] }:Bond:12-11" class="event" x1="46" y1="106" x2="37" y2="84" stroke-width="8" stroke-opacity="0"/>\n\t<line id="function random() { [native code] }:Bond:14-13" class="event" x1="51" y1="147" x2="37" y2="128" stroke-width="8" stroke-opacity="0"/>\n\t<line id="function random() { [native code] }:Bond:16-15" class="event" x1="84" y1="123" x2="74" y2="145" stroke-width="8" stroke-opacity="0"/>\n\t<line id="function random() { [native code] }:Bond:17-12" class="event" x1="70" y1="104" x2="46" y2="106" stroke-width="8" stroke-opacity="0"/>\n\t<line id="function random() { [native code] }:Bond:17-7" class="event" x1="70" y1="104" x2="75" y2="80" stroke-width="8" stroke-opacity="0"/>\n\t<circle id="function random() { [native code] }:Atom:0" class="event" cx="178" cy="45" r="8" fill-opacity="0"/>\n\t<circle id="function random() { [native code] }:Atom:1" class="event" cx="158" cy="33" r="8" fill-opacity="0"/>\n\t<circle id="function random() { [native code] }:Atom:2" class="event" cx="137" cy="45" r="8" fill-opacity="0"/>\n\t<circle id="function random() { [native code] }:Atom:3" class="event" cx="116" cy="33" r="8" fill-opacity="0"/>\n\t<circle id="function random() { [native code] }:Atom:4" class="event" cx="116" cy="9" r="8" fill-opacity="0"/>\n\t<circle id="function random() { [native code] }:Atom:5" class="event" cx="96" cy="45" r="8" fill-opacity="0"/>\n\t<circle id="function random() { [native code] }:Atom:6" class="event" cx="96" cy="68" r="8" fill-opacity="0"/>\n\t<circle id="function random() { [native code] }:Atom:7" class="event" cx="75" cy="80" r="8" fill-opacity="0"/>\n\t<circle id="function random() { [native code] }:Atom:8" class="event" cx="54" cy="68" r="8" fill-opacity="0"/>\n\t<circle id="function random() { [native code] }:Atom:9" class="event" cx="54" cy="45" r="8" fill-opacity="0"/>\n\t<circle id="function random() { [native code] }:Atom:10" class="event" cx="75" cy="33" r="8" fill-opacity="0"/>\n\t<circle id="function random() { [native code] }:Atom:11" class="event" cx="37" cy="84" r="8" fill-opacity="0"/>\n\t<circle id="function random() { [native code] }:Atom:12" class="event" cx="46" cy="106" r="8" fill-opacity="0"/>\n\t<circle id="function random() { [native code] }:Atom:13" class="event" cx="37" cy="128" r="8" fill-opacity="0"/>\n\t<circle id="function random() { [native code] }:Atom:14" class="event" cx="51" cy="147" r="8" fill-opacity="0"/>\n\t<circle id="function random() { [native code] }:Atom:15" class="event" cx="74" cy="145" r="8" fill-opacity="0"/>\n\t<circle id="function random() { [native code] }:Atom:16" class="event" cx="84" cy="123" r="8" fill-opacity="0"/>\n\t<circle id="function random() { [native code] }:Atom:17" class="event" cx="70" cy="104" r="8" fill-opacity="0"/>\n</svg>