<svg id="function random() { [native code] }" xmlns="http://www.w3.org/2000/svg" version="1.1" width="200px" height="150px" viewBox="0 0 200 150">\n\t<style> #function random() { [native code] } {pointer-events:none; }  #function random() { [native code] } .event  { pointer-events:all;}  </style>\n\t<text x="115" y="85" font-family=" Helvetica" font-weight="900" font-size="14" fill="rgb(48,80,248)">N</text>\n\t<text x="73" y="61" font-family=" Helvetica" font-weight="900" font-size="14" fill="rgb(255,13,13)">O</text>\n\t<text x="52" y="97" font-family=" Helvetica" font-weight="900" font-size="14" fill="rgb(255,13,13)">O</text>\n\t<text x="42" y="97" font-family=" Helvetica" font-weight="900" font-size="14" fill="rgb(255,13,13)">H</text>\n\t<line x1="81" y1="82" x2="81" y2="64" style="stroke:rgb(0,0,0);stroke-width:1"/>\n\t<line x1="77" y1="82" x2="77" y2="64" style="stroke:rgb(0,0,0);stroke-width:1"/>\n\t<line x1="126" y1="84" x2="141" y2="93" style="stroke:rgb(0,0,0);stroke-width:1"/>\n\t<line x1="120" y1="56" x2="120" y2="74" style="stroke:rgb(0,0,0);stroke-width:1"/>\n\t<line x1="100" y1="93" x2="114" y2="84" style="stroke:rgb(0,0,0);stroke-width:1"/>\n\t<line x1="79" y1="81" x2="100" y2="93" style="stroke:rgb(0,0,0);stroke-width:1"/>\n\t<line x1="64" y1="89" x2="79" y2="81" style="stroke:rgb(0,0,0);stroke-width:1"/>\n\t<line id="function random() { [native code] }:Bond:5-4" class="event" x1="79" y1="57" x2="79" y2="81" stroke-width="8" stroke-opacity="0"/>\n\t<line id="function random() { [native code] }:Bond:1-0" class="event" x1="120" y1="81" x2="141" y2="93" stroke-width="8" stroke-opacity="0"/>\n\t<line id="function random() { [native code] }:Bond:2-1" class="event" x1="120" y1="56" x2="120" y2="81" stroke-width="8" stroke-opacity="0"/>\n\t<line id="function random() { [native code] }:Bond:3-1" class="event" x1="100" y1="93" x2="120" y2="81" stroke-width="8" stroke-opacity="0"/>\n\t<line id="function random() { [native code] }:Bond:4-3" class="event" x1="79" y1="81" x2="100" y2="93" stroke-width="8" stroke-opacity="0"/>\n\t<line id="function random() { [native code] }:Bond:6-4" class="event" x1="58" y1="93" x2="79" y2="81" stroke-width="8" stroke-opacity="0"/>\n\t<circle id="function random() { [native code] }:Atom:0" class="event" cx="141" cy="93" r="8" fill-opacity="0"/>\n\t<circle id="function random() { [native code] }:Atom:1" class="event" cx="120" cy="81" r="8" fill-opacity="0"/>\n\t<circle id="function random() { [native code] }:Atom:2" class="event" cx="120" cy="56" r="8" fill-opacity="0"/>\n\t<circle id="function random() { [native code] }:Atom:3" class="event" cx="100" cy="93" r="8" fill-opacity="0"/>\n\t<circle id="function random() { [native code] }:Atom:4" class="event" cx="79" cy="81" r="8" fill-opacity="0"/>\n\t<circle id="function random() { [native code] }:Atom:5" class="event" cx="79" cy="57" r="8" fill-opacity="0"/>\n\t<circle id="function random() { [native code] }:Atom:6" class="event" cx="58" cy="93" r="8" fill-opacity="0"/>\n</svg>