<svg id="function random() { [native code] }" xmlns="http://www.w3.org/2000/svg" version="1.1" width="200px" height="150px" viewBox="0 0 200 150">\n\t<style> #function random() { [native code] } {pointer-events:none; }  #function random() { [native code] } .event  { pointer-events:all;}  </style>\n\t<text x="65" y="67" font-family=" Helvetica" font-weight="900" font-size="14" fill="rgb(205,205,38)">S</text>\n\t<text x="65" y="110" font-family=" Helvetica" font-weight="900" font-size="14" fill="rgb(166,41,41)">Br</text>\n\t<line x1="86" y1="45" x2="108" y2="55" style="stroke:rgb(0,0,0);stroke-width:1"/>\n\t<line x1="87" y1="50" x2="104" y2="57" style="stroke:rgb(0,0,0);stroke-width:1"/>\n\t<line x1="106" y1="79" x2="82" y2="84" style="stroke:rgb(0,0,0);stroke-width:1"/>\n\t<line x1="102" y1="76" x2="84" y2="80" style="stroke:rgb(0,0,0);stroke-width:1"/>\n\t<line x1="108" y1="55" x2="129" y2="43" style="stroke:rgb(0,0,0);stroke-width:1"/>\n\t<line x1="76" y1="57" x2="86" y2="45" style="stroke:rgb(0,0,0);stroke-width:1"/>\n\t<line x1="82" y1="84" x2="74" y2="70" style="stroke:rgb(0,0,0);stroke-width:1"/>\n\t<line x1="75" y1="99" x2="82" y2="84" style="stroke:rgb(0,0,0);stroke-width:1"/>\n\t<line x1="106" y1="79" x2="108" y2="55" style="stroke:rgb(0,0,0);stroke-width:1"/>\n\t<line id="function random() { [native code] }:Bond:2-1" class="event" x1="86" y1="45" x2="108" y2="55" stroke-width="8" stroke-opacity="0"/>\n\t<line id="function random() { [native code] }:Bond:6-4" class="event" x1="106" y1="79" x2="82" y2="84" stroke-width="8" stroke-opacity="0"/>\n\t<line id="function random() { [native code] }:Bond:1-0" class="event" x1="108" y1="55" x2="129" y2="43" stroke-width="8" stroke-opacity="0"/>\n\t<line id="function random() { [native code] }:Bond:3-2" class="event" x1="70" y1="63" x2="86" y2="45" stroke-width="8" stroke-opacity="0"/>\n\t<line id="function random() { [native code] }:Bond:4-3" class="event" x1="82" y1="84" x2="70" y2="63" stroke-width="8" stroke-opacity="0"/>\n\t<line id="function random() { [native code] }:Bond:5-4" class="event" x1="72" y1="106" x2="82" y2="84" stroke-width="8" stroke-opacity="0"/>\n\t<line id="function random() { [native code] }:Bond:6-1" class="event" x1="106" y1="79" x2="108" y2="55" stroke-width="8" stroke-opacity="0"/>\n\t<circle id="function random() { [native code] }:Atom:0" class="event" cx="129" cy="43" r="8" fill-opacity="0"/>\n\t<circle id="function random() { [native code] }:Atom:1" class="event" cx="108" cy="55" r="8" fill-opacity="0"/>\n\t<circle id="function random() { [native code] }:Atom:2" class="event" cx="86" cy="45" r="8" fill-opacity="0"/>\n\t<circle id="function random() { [native code] }:Atom:3" class="event" cx="70" cy="63" r="8" fill-opacity="0"/>\n\t<circle id="function random() { [native code] }:Atom:4" class="event" cx="82" cy="84" r="8" fill-opacity="0"/>\n\t<circle id="function random() { [native code] }:Atom:5" class="event" cx="72" cy="106" r="8" fill-opacity="0"/>\n\t<circle id="function random() { [native code] }:Atom:6" class="event" cx="106" cy="79" r="8" fill-opacity="0"/>\n</svg>