<svg id="function random() { [native code] }" xmlns="http://www.w3.org/2000/svg" version="1.1" width="200px" height="150px" viewBox="0 0 200 150">\n\t<style> #function random() { [native code] } {pointer-events:none; }  #function random() { [native code] } .event  { pointer-events:all;}  </style>\n\t<text x="51" y="42" font-family=" Helvetica" font-weight="900" font-size="14" fill="rgb(166,41,41)">Br</text>\n\t<text x="95" y="115" font-family=" Helvetica" font-weight="900" font-size="14" fill="rgb(144,224,80)">F</text>\n\t<line x1="100" y1="39" x2="120" y2="51" style="stroke:rgb(0,0,0);stroke-width:1"/>\n\t<line x1="100" y1="43" x2="116" y2="52" style="stroke:rgb(0,0,0);stroke-width:1"/>\n\t<line x1="79" y1="75" x2="79" y2="51" style="stroke:rgb(0,0,0);stroke-width:1"/>\n\t<line x1="82" y1="72" x2="82" y2="53" style="stroke:rgb(0,0,0);stroke-width:1"/>\n\t<line x1="120" y1="75" x2="99" y2="87" style="stroke:rgb(0,0,0);stroke-width:1"/>\n\t<line x1="116" y1="73" x2="100" y2="82" style="stroke:rgb(0,0,0);stroke-width:1"/>\n\t<line x1="120" y1="51" x2="141" y2="39" style="stroke:rgb(0,0,0);stroke-width:1"/>\n\t<line x1="79" y1="51" x2="100" y2="39" style="stroke:rgb(0,0,0);stroke-width:1"/>\n\t<line x1="66" y1="43" x2="79" y2="51" style="stroke:rgb(0,0,0);stroke-width:1"/>\n\t<line x1="99" y1="87" x2="79" y2="75" style="stroke:rgb(0,0,0);stroke-width:1"/>\n\t<line x1="99" y1="104" x2="99" y2="87" style="stroke:rgb(0,0,0);stroke-width:1"/>\n\t<line x1="120" y1="75" x2="120" y2="51" style="stroke:rgb(0,0,0);stroke-width:1"/>\n\t<line id="function random() { [native code] }:Bond:2-1" class="event" x1="100" y1="39" x2="120" y2="51" stroke-width="8" stroke-opacity="0"/>\n\t<line id="function random() { [native code] }:Bond:5-3" class="event" x1="79" y1="75" x2="79" y2="51" stroke-width="8" stroke-opacity="0"/>\n\t<line id="function random() { [native code] }:Bond:8-6" class="event" x1="120" y1="75" x2="99" y2="87" stroke-width="8" stroke-opacity="0"/>\n\t<line id="function random() { [native code] }:Bond:1-0" class="event" x1="120" y1="51" x2="141" y2="39" stroke-width="8" stroke-opacity="0"/>\n\t<line id="function random() { [native code] }:Bond:3-2" class="event" x1="79" y1="51" x2="100" y2="39" stroke-width="8" stroke-opacity="0"/>\n\t<line id="function random() { [native code] }:Bond:4-3" class="event" x1="58" y1="38" x2="79" y2="51" stroke-width="8" stroke-opacity="0"/>\n\t<line id="function random() { [native code] }:Bond:6-5" class="event" x1="99" y1="87" x2="79" y2="75" stroke-width="8" stroke-opacity="0"/>\n\t<line id="function random() { [native code] }:Bond:7-6" class="event" x1="99" y1="111" x2="99" y2="87" stroke-width="8" stroke-opacity="0"/>\n\t<line id="function random() { [native code] }:Bond:8-1" class="event" x1="120" y1="75" x2="120" y2="51" stroke-width="8" stroke-opacity="0"/>\n\t<circle id="function random() { [native code] }:Atom:0" class="event" cx="141" cy="39" r="8" fill-opacity="0"/>\n\t<circle id="function random() { [native code] }:Atom:1" class="event" cx="120" cy="51" r="8" fill-opacity="0"/>\n\t<circle id="function random() { [native code] }:Atom:2" class="event" cx="100" cy="39" r="8" fill-opacity="0"/>\n\t<circle id="function random() { [native code] }:Atom:3" class="event" cx="79" cy="51" r="8" fill-opacity="0"/>\n\t<circle id="function random() { [native code] }:Atom:4" class="event" cx="58" cy="38" r="8" fill-opacity="0"/>\n\t<circle id="function random() { [native code] }:Atom:5" class="event" cx="79" cy="75" r="8" fill-opacity="0"/>\n\t<circle id="function random() { [native code] }:Atom:6" class="event" cx="99" cy="87" r="8" fill-opacity="0"/>\n\t<circle id="function random() { [native code] }:Atom:7" class="event" cx="99" cy="111" r="8" fill-opacity="0"/>\n\t<circle id="function random() { [native code] }:Atom:8" class="event" cx="120" cy="75" r="8" fill-opacity="0"/>\n</svg>