<svg id="function random() { [native code] }" xmlns="http://www.w3.org/2000/svg" version="1.1" width="200px" height="150px" viewBox="0 0 200 150">\n\t<style> #function random() { [native code] } {pointer-events:none; }  #function random() { [native code] } .event  { pointer-events:all;}  </style>\n\t<text x="52" y="86" font-family=" Helvetica" font-weight="900" font-size="14" fill="rgb(144,224,80)">F</text>\n\t<text x="43" y="53" font-family=" Helvetica" font-weight="900" font-size="14" fill="rgb(144,224,80)">F</text>\n\t<text x="76" y="44" font-family=" Helvetica" font-weight="900" font-size="14" fill="rgb(144,224,80)">F</text>\n\t<line x1="110" y1="61" x2="131" y2="73" style="stroke:rgb(0,0,0);stroke-width:1"/>\n\t<line x1="110" y1="65" x2="127" y2="75" style="stroke:rgb(0,0,0);stroke-width:1"/>\n\t<line x1="89" y1="97" x2="89" y2="73" style="stroke:rgb(0,0,0);stroke-width:1"/>\n\t<line x1="93" y1="94" x2="93" y2="75" style="stroke:rgb(0,0,0);stroke-width:1"/>\n\t<line x1="131" y1="97" x2="110" y2="109" style="stroke:rgb(0,0,0);stroke-width:1"/>\n\t<line x1="127" y1="95" x2="110" y2="104" style="stroke:rgb(0,0,0);stroke-width:1"/>\n\t<line x1="131" y1="73" x2="151" y2="61" style="stroke:rgb(0,0,0);stroke-width:1"/>\n\t<line x1="89" y1="73" x2="110" y2="61" style="stroke:rgb(0,0,0);stroke-width:1"/>\n\t<line x1="68" y1="61" x2="89" y2="73" style="stroke:rgb(0,0,0);stroke-width:1"/>\n\t<line x1="60" y1="75" x2="68" y2="61" style="stroke:rgb(0,0,0);stroke-width:1"/>\n\t<line x1="53" y1="52" x2="68" y2="61" style="stroke:rgb(0,0,0);stroke-width:1"/>\n\t<line x1="76" y1="47" x2="68" y2="61" style="stroke:rgb(0,0,0);stroke-width:1"/>\n\t<line x1="110" y1="109" x2="89" y2="97" style="stroke:rgb(0,0,0);stroke-width:1"/>\n\t<line x1="131" y1="97" x2="131" y2="73" style="stroke:rgb(0,0,0);stroke-width:1"/>\n\t<line id="function random() { [native code] }:Bond:2-1" class="event" x1="110" y1="61" x2="131" y2="73" stroke-width="8" stroke-opacity="0"/>\n\t<line id="function random() { [native code] }:Bond:8-3" class="event" x1="89" y1="97" x2="89" y2="73" stroke-width="8" stroke-opacity="0"/>\n\t<line id="function random() { [native code] }:Bond:10-9" class="event" x1="131" y1="97" x2="110" y2="109" stroke-width="8" stroke-opacity="0"/>\n\t<line id="function random() { [native code] }:Bond:1-0" class="event" x1="131" y1="73" x2="151" y2="61" stroke-width="8" stroke-opacity="0"/>\n\t<line id="function random() { [native code] }:Bond:3-2" class="event" x1="89" y1="73" x2="110" y2="61" stroke-width="8" stroke-opacity="0"/>\n\t<line id="function random() { [native code] }:Bond:4-3" class="event" x1="68" y1="61" x2="89" y2="73" stroke-width="8" stroke-opacity="0"/>\n\t<line id="function random() { [native code] }:Bond:5-4" class="event" x1="56" y1="82" x2="68" y2="61" stroke-width="8" stroke-opacity="0"/>\n\t<line id="function random() { [native code] }:Bond:6-4" class="event" x1="48" y1="49" x2="68" y2="61" stroke-width="8" stroke-opacity="0"/>\n\t<line id="function random() { [native code] }:Bond:7-4" class="event" x1="80" y1="40" x2="68" y2="61" stroke-width="8" stroke-opacity="0"/>\n\t<line id="function random() { [native code] }:Bond:9-8" class="event" x1="110" y1="109" x2="89" y2="97" stroke-width="8" stroke-opacity="0"/>\n\t<line id="function random() { [native code] }:Bond:10-1" class="event" x1="131" y1="97" x2="131" y2="73" stroke-width="8" stroke-opacity="0"/>\n\t<circle id="function random() { [native code] }:Atom:0" class="event" cx="151" cy="61" r="8" fill-opacity="0"/>\n\t<circle id="function random() { [native code] }:Atom:1" class="event" cx="131" cy="73" r="8" fill-opacity="0"/>\n\t<circle id="function random() { [native code] }:Atom:2" class="event" cx="110" cy="61" r="8" fill-opacity="0"/>\n\t<circle id="function random() { [native code] }:Atom:3" class="event" cx="89" cy="73" r="8" fill-opacity="0"/>\n\t<circle id="function random() { [native code] }:Atom:4" class="event" cx="68" cy="61" r="8" fill-opacity="0"/>\n\t<circle id="function random() { [native code] }:Atom:5" class="event" cx="56" cy="82" r="8" fill-opacity="0"/>\n\t<circle id="function random() { [native code] }:Atom:6" class="event" cx="48" cy="49" r="8" fill-opacity="0"/>\n\t<circle id="function random() { [native code] }:Atom:7" class="event" cx="80" cy="40" r="8" fill-opacity="0"/>\n\t<circle id="function random() { [native code] }:Atom:8" class="event" cx="89" cy="97" r="8" fill-opacity="0"/>\n\t<circle id="function random() { [native code] }:Atom:9" class="event" cx="110" cy="109" r="8" fill-opacity="0"/>\n\t<circle id="function random() { [native code] }:Atom:10" class="event" cx="131" cy="97" r="8" fill-opacity="0"/>\n</svg>