<svg id="function random() { [native code] }" xmlns="http://www.w3.org/2000/svg" version="1.1" width="200px" height="150px" viewBox="0 0 200 150">\n\t<style> #function random() { [native code] } {pointer-events:none; }  #function random() { [native code] } .event  { pointer-events:all;}  </style>\n\t<text x="151" y="92" font-family=" Helvetica" font-weight="900" font-size="12" fill="rgb(48,80,248)">N</text>\n\t<text x="160" y="92" font-family=" Helvetica" font-weight="900" font-size="12" fill="rgb(48,80,248)">H</text>\n\t<text x="99" y="98" font-family=" Helvetica" font-weight="900" font-size="12" fill="rgb(48,80,248)">N</text>\n\t<text x="148" y="30" font-family=" Helvetica" font-weight="900" font-size="12" fill="rgb(31,240,31)">Cl</text>\n\t<text x="115" y="11" font-family=" Helvetica" font-weight="900" font-size="12" fill="rgb(31,240,31)">Cl</text>\n\t<text x="66" y="117" font-family=" Helvetica" font-weight="900" font-size="12" fill="rgb(48,80,248)">N</text>\n\t<text x="66" y="105" font-family=" Helvetica" font-weight="900" font-size="12" fill="rgb(48,80,248)">H</text>\n\t<text x="15" y="127" font-family=" Helvetica" font-weight="900" font-size="12" fill="rgb(48,80,248)">N</text>\n\t<text x="11" y="129" font-family=" Helvetica" font-weight="900" font-size="8" fill="rgb(48,80,248)">2</text>\n\t<text x="2" y="127" font-family=" Helvetica" font-weight="900" font-size="12" fill="rgb(48,80,248)">H</text>\n\t<text x="82" y="146" font-family=" Helvetica" font-weight="900" font-size="12" fill="rgb(255,13,13)">O</text>\n\t<line x1="167" y1="103" x2="186" y2="106" style="stroke:rgb(0,0,0);stroke-width:1"/>\n\t<line x1="168" y1="107" x2="184" y2="108" style="stroke:rgb(0,0,0);stroke-width:1"/>\n\t<line x1="137" y1="113" x2="137" y2="94" style="stroke:rgb(0,0,0);stroke-width:1"/>\n\t<line x1="140" y1="111" x2="140" y2="96" style="stroke:rgb(0,0,0);stroke-width:1"/>\n\t<line x1="163" y1="137" x2="155" y2="119" style="stroke:rgb(0,0,0);stroke-width:1"/>\n\t<line x1="165" y1="134" x2="159" y2="120" style="stroke:rgb(0,0,0);stroke-width:1"/>\n\t<line x1="194" y1="123" x2="182" y2="139" style="stroke:rgb(0,0,0);stroke-width:1"/>\n\t<line x1="190" y1="123" x2="181" y2="135" style="stroke:rgb(0,0,0);stroke-width:1"/>\n\t<line x1="104" y1="113" x2="120" y2="123" style="stroke:rgb(0,0,0);stroke-width:1"/>\n\t<line x1="107" y1="112" x2="120" y2="119" style="stroke:rgb(0,0,0);stroke-width:1"/>\n\t<line x1="120" y1="84" x2="109" y2="91" style="stroke:rgb(0,0,0);stroke-width:1"/>\n\t<line x1="120" y1="88" x2="110" y2="93" style="stroke:rgb(0,0,0);stroke-width:1"/>\n\t<line x1="137" y1="55" x2="120" y2="65" style="stroke:rgb(0,0,0);stroke-width:1"/>\n\t<line x1="134" y1="54" x2="121" y2="61" style="stroke:rgb(0,0,0);stroke-width:1"/>\n\t<line x1="120" y1="26" x2="137" y2="36" style="stroke:rgb(0,0,0);stroke-width:1"/>\n\t<line x1="121" y1="30" x2="134" y2="37" style="stroke:rgb(0,0,0);stroke-width:1"/>\n\t<line x1="104" y1="55" x2="104" y2="36" style="stroke:rgb(0,0,0);stroke-width:1"/>\n\t<line x1="106" y1="53" x2="106" y2="38" style="stroke:rgb(0,0,0);stroke-width:1"/>\n\t<line x1="85" y1="122" x2="85" y2="136" style="stroke:rgb(0,0,0);stroke-width:1"/>\n\t<line x1="88" y1="122" x2="88" y2="136" style="stroke:rgb(0,0,0);stroke-width:1"/>\n\t<line x1="186" y1="106" x2="197" y2="90" style="stroke:rgb(0,0,0);stroke-width:1"/>\n\t<line x1="160" y1="94" x2="167" y2="103" style="stroke:rgb(0,0,0);stroke-width:1"/>\n\t<line x1="137" y1="94" x2="150" y2="90" style="stroke:rgb(0,0,0);stroke-width:1"/>\n\t<line x1="155" y1="119" x2="137" y2="113" style="stroke:rgb(0,0,0);stroke-width:1"/>\n\t<line x1="155" y1="119" x2="167" y2="103" style="stroke:rgb(0,0,0);stroke-width:1"/>\n\t<line x1="182" y1="139" x2="163" y2="137" style="stroke:rgb(0,0,0);stroke-width:1"/>\n\t<line x1="194" y1="123" x2="186" y2="106" style="stroke:rgb(0,0,0);stroke-width:1"/>\n\t<line x1="120" y1="123" x2="137" y2="113" style="stroke:rgb(0,0,0);stroke-width:1"/>\n\t<line x1="104" y1="100" x2="104" y2="113" style="stroke:rgb(0,0,0);stroke-width:1"/>\n\t<line x1="120" y1="84" x2="137" y2="94" style="stroke:rgb(0,0,0);stroke-width:1"/>\n\t<line x1="120" y1="65" x2="120" y2="84" style="stroke:rgb(0,0,0);stroke-width:1"/>\n\t<line x1="137" y1="36" x2="137" y2="55" style="stroke:rgb(0,0,0);stroke-width:1"/>\n\t<line x1="147" y1="30" x2="137" y2="36" style="stroke:rgb(0,0,0);stroke-width:1"/>\n\t<line x1="104" y1="36" x2="120" y2="26" style="stroke:rgb(0,0,0);stroke-width:1"/>\n\t<line x1="104" y1="55" x2="120" y2="65" style="stroke:rgb(0,0,0);stroke-width:1"/>\n\t<line x1="120" y1="13" x2="120" y2="26" style="stroke:rgb(0,0,0);stroke-width:1"/>\n\t<line x1="87" y1="123" x2="104" y2="113" style="stroke:rgb(0,0,0);stroke-width:1"/>\n\t<line x1="75" y1="116" x2="87" y2="123" style="stroke:rgb(0,0,0);stroke-width:1"/>\n\t<line x1="53" y1="123" x2="65" y2="116" style="stroke:rgb(0,0,0);stroke-width:1"/>\n\t<line x1="37" y1="113" x2="53" y2="123" style="stroke:rgb(0,0,0);stroke-width:1"/>\n\t<line x1="25" y1="120" x2="37" y2="113" style="stroke:rgb(0,0,0);stroke-width:1"/>\n\t<line id="function random() { [native code] }:Bond:2-1" class="event" x1="167" y1="103" x2="186" y2="106" stroke-width="8" stroke-opacity="0"/>\n\t<line id="function random() { [native code] }:Bond:5-4" class="event" x1="137" y1="113" x2="137" y2="94" stroke-width="8" stroke-opacity="0"/>\n\t<line id="function random() { [native code] }:Bond:7-6" class="event" x1="163" y1="137" x2="155" y2="119" stroke-width="8" stroke-opacity="0"/>\n\t<line id="function random() { [native code] }:Bond:9-8" class="event" x1="194" y1="123" x2="182" y2="139" stroke-width="8" stroke-opacity="0"/>\n\t<line id="function random() { [native code] }:Bond:11-10" class="event" x1="104" y1="113" x2="120" y2="123" stroke-width="8" stroke-opacity="0"/>\n\t<line id="function random() { [native code] }:Bond:13-12" class="event" x1="120" y1="84" x2="104" y2="94" stroke-width="8" stroke-opacity="0"/>\n\t<line id="function random() { [native code] }:Bond:15-14" class="event" x1="137" y1="55" x2="120" y2="65" stroke-width="8" stroke-opacity="0"/>\n\t<line id="function random() { [native code] }:Bond:18-16" class="event" x1="120" y1="26" x2="137" y2="36" stroke-width="8" stroke-opacity="0"/>\n\t<line id="function random() { [native code] }:Bond:20-19" class="event" x1="104" y1="55" x2="104" y2="36" stroke-width="8" stroke-opacity="0"/>\n\t<line id="function random() { [native code] }:Bond:27-22" class="event" x1="87" y1="142" x2="87" y2="123" stroke-width="8" stroke-opacity="0"/>\n\t<line id="function random() { [native code] }:Bond:1-0" class="event" x1="186" y1="106" x2="197" y2="90" stroke-width="8" stroke-opacity="0"/>\n\t<line id="function random() { [native code] }:Bond:3-2" class="event" x1="155" y1="88" x2="167" y2="103" stroke-width="8" stroke-opacity="0"/>\n\t<line id="function random() { [native code] }:Bond:4-3" class="event" x1="137" y1="94" x2="155" y2="88" stroke-width="8" stroke-opacity="0"/>\n\t<line id="function random() { [native code] }:Bond:6-5" class="event" x1="155" y1="119" x2="137" y2="113" stroke-width="8" stroke-opacity="0"/>\n\t<line id="function random() { [native code] }:Bond:6-2" class="event" x1="155" y1="119" x2="167" y2="103" stroke-width="8" stroke-opacity="0"/>\n\t<line id="function random() { [native code] }:Bond:8-7" class="event" x1="182" y1="139" x2="163" y2="137" stroke-width="8" stroke-opacity="0"/>\n\t<line id="function random() { [native code] }:Bond:9-1" class="event" x1="194" y1="123" x2="186" y2="106" stroke-width="8" stroke-opacity="0"/>\n\t<line id="function random() { [native code] }:Bond:10-5" class="event" x1="120" y1="123" x2="137" y2="113" stroke-width="8" stroke-opacity="0"/>\n\t<line id="function random() { [native code] }:Bond:12-11" class="event" x1="104" y1="94" x2="104" y2="113" stroke-width="8" stroke-opacity="0"/>\n\t<line id="function random() { [native code] }:Bond:13-4" class="event" x1="120" y1="84" x2="137" y2="94" stroke-width="8" stroke-opacity="0"/>\n\t<line id="function random() { [native code] }:Bond:14-13" class="event" x1="120" y1="65" x2="120" y2="84" stroke-width="8" stroke-opacity="0"/>\n\t<line id="function random() { [native code] }:Bond:16-15" class="event" x1="137" y1="36" x2="137" y2="55" stroke-width="8" stroke-opacity="0"/>\n\t<line id="function random() { [native code] }:Bond:17-16" class="event" x1="154" y1="26" x2="137" y2="36" stroke-width="8" stroke-opacity="0"/>\n\t<line id="function random() { [native code] }:Bond:19-18" class="event" x1="104" y1="36" x2="120" y2="26" stroke-width="8" stroke-opacity="0"/>\n\t<line id="function random() { [native code] }:Bond:20-14" class="event" x1="104" y1="55" x2="120" y2="65" stroke-width="8" stroke-opacity="0"/>\n\t<line id="function random() { [native code] }:Bond:21-18" class="event" x1="120" y1="7" x2="120" y2="26" stroke-width="8" stroke-opacity="0"/>\n\t<line id="function random() { [native code] }:Bond:22-11" class="event" x1="87" y1="123" x2="104" y2="113" stroke-width="8" stroke-opacity="0"/>\n\t<line id="function random() { [native code] }:Bond:23-22" class="event" x1="70" y1="113" x2="87" y2="123" stroke-width="8" stroke-opacity="0"/>\n\t<line id="function random() { [native code] }:Bond:24-23" class="event" x1="53" y1="123" x2="70" y2="113" stroke-width="8" stroke-opacity="0"/>\n\t<line id="function random() { [native code] }:Bond:25-24" class="event" x1="37" y1="113" x2="53" y2="123" stroke-width="8" stroke-opacity="0"/>\n\t<line id="function random() { [native code] }:Bond:26-25" class="event" x1="20" y1="123" x2="37" y2="113" stroke-width="8" stroke-opacity="0"/>\n\t<circle id="function random() { [native code] }:Atom:0" class="event" cx="197" cy="90" r="8" fill-opacity="0"/>\n\t<circle id="function random() { [native code] }:Atom:1" class="event" cx="186" cy="106" r="8" fill-opacity="0"/>\n\t<circle id="function random() { [native code] }:Atom:2" class="event" cx="167" cy="103" r="8" fill-opacity="0"/>\n\t<circle id="function random() { [native code] }:Atom:3" class="event" cx="155" cy="88" r="8" fill-opacity="0"/>\n\t<circle id="function random() { [native code] }:Atom:4" class="event" cx="137" cy="94" r="8" fill-opacity="0"/>\n\t<circle id="function random() { [native code] }:Atom:5" class="event" cx="137" cy="113" r="8" fill-opacity="0"/>\n\t<circle id="function random() { [native code] }:Atom:6" class="event" cx="155" cy="119" r="8" fill-opacity="0"/>\n\t<circle id="function random() { [native code] }:Atom:7" class="event" cx="163" cy="137" r="8" fill-opacity="0"/>\n\t<circle id="function random() { [native code] }:Atom:8" class="event" cx="182" cy="139" r="8" fill-opacity="0"/>\n\t<circle id="function random() { [native code] }:Atom:9" class="event" cx="194" cy="123" r="8" fill-opacity="0"/>\n\t<circle id="function random() { [native code] }:Atom:10" class="event" cx="120" cy="123" r="8" fill-opacity="0"/>\n\t<circle id="function random() { [native code] }:Atom:11" class="event" cx="104" cy="113" r="8" fill-opacity="0"/>\n\t<circle id="function random() { [native code] }:Atom:12" class="event" cx="104" cy="94" r="8" fill-opacity="0"/>\n\t<circle id="function random() { [native code] }:Atom:13" class="event" cx="120" cy="84" r="8" fill-opacity="0"/>\n\t<circle id="function random() { [native code] }:Atom:14" class="event" cx="120" cy="65" r="8" fill-opacity="0"/>\n\t<circle id="function random() { [native code] }:Atom:15" class="event" cx="137" cy="55" r="8" fill-opacity="0"/>\n\t<circle id="function random() { [native code] }:Atom:16" class="event" cx="137" cy="36" r="8" fill-opacity="0"/>\n\t<circle id="function random() { [native code] }:Atom:17" class="event" cx="154" cy="26" r="8" fill-opacity="0"/>\n\t<circle id="function random() { [native code] }:Atom:18" class="event" cx="120" cy="26" r="8" fill-opacity="0"/>\n\t<circle id="function random() { [native code] }:Atom:19" class="event" cx="104" cy="36" r="8" fill-opacity="0"/>\n\t<circle id="function random() { [native code] }:Atom:20" class="event" cx="104" cy="55" r="8" fill-opacity="0"/>\n\t<circle id="function random() { [native code] }:Atom:21" class="event" cx="120" cy="7" r="8" fill-opacity="0"/>\n\t<circle id="function random() { [native code] }:Atom:22" class="event" cx="87" cy="123" r="8" fill-opacity="0"/>\n\t<circle id="function random() { [native code] }:Atom:23" class="event" cx="70" cy="113" r="8" fill-opacity="0"/>\n\t<circle id="function random() { [native code] }:Atom:24" class="event" cx="53" cy="123" r="8" fill-opacity="0"/>\n\t<circle id="function random() { [native code] }:Atom:25" class="event" cx="37" cy="113" r="8" fill-opacity="0"/>\n\t<circle id="function random() { [native code] }:Atom:26" class="event" cx="20" cy="123" r="8" fill-opacity="0"/>\n\t<circle id="function random() { [native code] }:Atom:27" class="event" cx="87" cy="142" r="8" fill-opacity="0"/>\n</svg>