<svg id="function random() { [native code] }" xmlns="http://www.w3.org/2000/svg" version="1.1" width="200px" height="150px" viewBox="0 0 200 150">\n\t<style> #function random() { [native code] } {pointer-events:none; }  #function random() { [native code] } .event  { pointer-events:all;}  </style>\n\t<text x="152" y="35" font-family=" Helvetica" font-weight="900" font-size="12" fill="rgb(255,13,13)">O</text>\n\t<text x="124" y="68" font-family=" Helvetica" font-weight="900" font-size="12" fill="rgb(48,80,248)">N</text>\n\t<text x="66" y="84" font-family=" Helvetica" font-weight="900" font-size="12" fill="rgb(31,240,31)">Cl</text>\n\t<text x="66" y="117" font-family=" Helvetica" font-weight="900" font-size="12" fill="rgb(31,240,31)">Cl</text>\n\t<text x="142" y="108" font-family=" Helvetica" font-weight="900" font-size="12" fill="rgb(48,80,248)">N</text>\n\t<text x="133" y="108" font-family=" Helvetica" font-weight="900" font-size="12" fill="rgb(48,80,248)">H</text>\n\t<text x="124" y="35" font-family=" Helvetica" font-weight="900" font-size="12" fill="rgb(48,80,248)">N</text>\n\t<text x="124" y="25" font-family=" Helvetica" font-weight="900" font-size="12" fill="rgb(48,80,248)">H</text>\n\t<text x="82" y="43" font-family=" Helvetica" font-weight="900" font-size="12" fill="rgb(48,80,248)">N</text>\n\t<text x="82" y="53" font-family=" Helvetica" font-weight="900" font-size="12" fill="rgb(48,80,248)">H</text>\n\t<text x="39" y="35" font-family=" Helvetica" font-weight="900" font-size="12" fill="rgb(255,13,13)">O</text>\n\t<text x="11" y="35" font-family=" Helvetica" font-weight="900" font-size="12" fill="rgb(255,13,13)">O</text>\n\t<line x1="143" y1="42" x2="152" y2="36" style="stroke:rgb(0,0,0);stroke-width:1"/>\n\t<line x1="141" y1="40" x2="151" y2="34" style="stroke:rgb(0,0,0);stroke-width:1"/>\n\t<line x1="143" y1="57" x2="134" y2="62" style="stroke:rgb(0,0,0);stroke-width:1"/>\n\t<line x1="142" y1="60" x2="135" y2="64" style="stroke:rgb(0,0,0);stroke-width:1"/>\n\t<line x1="100" y1="81" x2="114" y2="89" style="stroke:rgb(0,0,0);stroke-width:1"/>\n\t<line x1="101" y1="84" x2="112" y2="91" style="stroke:rgb(0,0,0);stroke-width:1"/>\n\t<line x1="86" y1="106" x2="86" y2="89" style="stroke:rgb(0,0,0);stroke-width:1"/>\n\t<line x1="89" y1="104" x2="89" y2="91" style="stroke:rgb(0,0,0);stroke-width:1"/>\n\t<line x1="114" y1="106" x2="100" y2="114" style="stroke:rgb(0,0,0);stroke-width:1"/>\n\t<line x1="112" y1="104" x2="101" y2="111" style="stroke:rgb(0,0,0);stroke-width:1"/>\n\t<line x1="143" y1="89" x2="129" y2="81" style="stroke:rgb(0,0,0);stroke-width:1"/>\n\t<line x1="142" y1="86" x2="131" y2="80" style="stroke:rgb(0,0,0);stroke-width:1"/>\n\t<line x1="172" y1="120" x2="162" y2="107" style="stroke:rgb(0,0,0);stroke-width:1"/>\n\t<line x1="173" y1="117" x2="165" y2="107" style="stroke:rgb(0,0,0);stroke-width:1"/>\n\t<line x1="195" y1="104" x2="188" y2="118" style="stroke:rgb(0,0,0);stroke-width:1"/>\n\t<line x1="192" y1="104" x2="187" y2="116" style="stroke:rgb(0,0,0);stroke-width:1"/>\n\t<line x1="169" y1="92" x2="185" y2="90" style="stroke:rgb(0,0,0);stroke-width:1"/>\n\t<line x1="171" y1="94" x2="184" y2="93" style="stroke:rgb(0,0,0);stroke-width:1"/>\n\t<line x1="157" y1="65" x2="157" y2="81" style="stroke:rgb(0,0,0);stroke-width:1"/>\n\t<line x1="154" y1="66" x2="154" y2="79" style="stroke:rgb(0,0,0);stroke-width:1"/>\n\t<line x1="143" y1="57" x2="143" y2="40" style="stroke:rgb(0,0,0);stroke-width:1"/>\n\t<line x1="129" y1="81" x2="129" y2="70" style="stroke:rgb(0,0,0);stroke-width:1"/>\n\t<line x1="114" y1="89" x2="129" y2="81" style="stroke:rgb(0,0,0);stroke-width:1"/>\n\t<line x1="86" y1="89" x2="100" y2="81" style="stroke:rgb(0,0,0);stroke-width:1"/>\n\t<line x1="79" y1="85" x2="86" y2="89" style="stroke:rgb(0,0,0);stroke-width:1"/>\n\t<line x1="100" y1="114" x2="86" y2="106" style="stroke:rgb(0,0,0);stroke-width:1"/>\n\t<line x1="114" y1="106" x2="114" y2="89" style="stroke:rgb(0,0,0);stroke-width:1"/>\n\t<line x1="79" y1="110" x2="86" y2="106" style="stroke:rgb(0,0,0);stroke-width:1"/>\n\t<line x1="145" y1="100" x2="143" y2="89" style="stroke:rgb(0,0,0);stroke-width:1"/>\n\t<line x1="162" y1="107" x2="151" y2="106" style="stroke:rgb(0,0,0);stroke-width:1"/>\n\t<line x1="188" y1="118" x2="172" y2="120" style="stroke:rgb(0,0,0);stroke-width:1"/>\n\t<line x1="198" y1="132" x2="188" y2="118" style="stroke:rgb(0,0,0);stroke-width:1"/>\n\t<line x1="185" y1="90" x2="195" y2="104" style="stroke:rgb(0,0,0);stroke-width:1"/>\n\t<line x1="169" y1="92" x2="162" y2="107" style="stroke:rgb(0,0,0);stroke-width:1"/>\n\t<line x1="157" y1="81" x2="169" y2="92" style="stroke:rgb(0,0,0);stroke-width:1"/>\n\t<line x1="157" y1="81" x2="143" y2="89" style="stroke:rgb(0,0,0);stroke-width:1"/>\n\t<line x1="157" y1="65" x2="143" y2="57" style="stroke:rgb(0,0,0);stroke-width:1"/>\n\t<line x1="134" y1="35" x2="143" y2="40" style="stroke:rgb(0,0,0);stroke-width:1"/>\n\t<line x1="114" y1="40" x2="123" y2="35" style="stroke:rgb(0,0,0);stroke-width:1"/>\n\t<line x1="100" y1="32" x2="114" y2="40" style="stroke:rgb(0,0,0);stroke-width:1"/>\n\t<line x1="91" y1="37" x2="100" y2="32" style="stroke:rgb(0,0,0);stroke-width:1"/>\n\t<line x1="72" y1="32" x2="81" y2="37" style="stroke:rgb(0,0,0);stroke-width:1"/>\n\t<line x1="58" y1="40" x2="72" y2="32" style="stroke:rgb(0,0,0);stroke-width:1"/>\n\t<line x1="49" y1="35" x2="58" y2="40" style="stroke:rgb(0,0,0);stroke-width:1"/>\n\t<line x1="29" y1="40" x2="38" y2="35" style="stroke:rgb(0,0,0);stroke-width:1"/>\n\t<line x1="21" y1="35" x2="29" y2="40" style="stroke:rgb(0,0,0);stroke-width:1"/>\n\t<line x1="1" y1="40" x2="10" y2="35" style="stroke:rgb(0,0,0);stroke-width:1"/>\n\t<line id="function random() { [native code] }:Bond:1-0" class="event" x1="143" y1="40" x2="157" y2="32" stroke-width="8" stroke-opacity="0"/>\n\t<line id="function random() { [native code] }:Bond:3-2" class="event" x1="129" y1="65" x2="143" y2="57" stroke-width="8" stroke-opacity="0"/>\n\t<line id="function random() { [native code] }:Bond:6-5" class="event" x1="100" y1="81" x2="114" y2="89" stroke-width="8" stroke-opacity="0"/>\n\t<line id="function random() { [native code] }:Bond:9-7" class="event" x1="86" y1="106" x2="86" y2="89" stroke-width="8" stroke-opacity="0"/>\n\t<line id="function random() { [native code] }:Bond:11-10" class="event" x1="114" y1="106" x2="100" y2="114" stroke-width="8" stroke-opacity="0"/>\n\t<line id="function random() { [native code] }:Bond:13-4" class="event" x1="143" y1="89" x2="129" y2="81" stroke-width="8" stroke-opacity="0"/>\n\t<line id="function random() { [native code] }:Bond:16-15" class="event" x1="172" y1="120" x2="162" y2="107" stroke-width="8" stroke-opacity="0"/>\n\t<line id="function random() { [native code] }:Bond:19-17" class="event" x1="195" y1="104" x2="188" y2="118" stroke-width="8" stroke-opacity="0"/>\n\t<line id="function random() { [native code] }:Bond:21-20" class="event" x1="169" y1="92" x2="185" y2="90" stroke-width="8" stroke-opacity="0"/>\n\t<line id="function random() { [native code] }:Bond:23-22" class="event" x1="157" y1="65" x2="157" y2="81" stroke-width="8" stroke-opacity="0"/>\n\t<line id="function random() { [native code] }:Bond:2-1" class="event" x1="143" y1="57" x2="143" y2="40" stroke-width="8" stroke-opacity="0"/>\n\t<line id="function random() { [native code] }:Bond:4-3" class="event" x1="129" y1="81" x2="129" y2="65" stroke-width="8" stroke-opacity="0"/>\n\t<line id="function random() { [native code] }:Bond:5-4" class="event" x1="114" y1="89" x2="129" y2="81" stroke-width="8" stroke-opacity="0"/>\n\t<line id="function random() { [native code] }:Bond:7-6" class="event" x1="86" y1="89" x2="100" y2="81" stroke-width="8" stroke-opacity="0"/>\n\t<line id="function random() { [native code] }:Bond:8-7" class="event" x1="72" y1="81" x2="86" y2="89" stroke-width="8" stroke-opacity="0"/>\n\t<line id="function random() { [native code] }:Bond:10-9" class="event" x1="100" y1="114" x2="86" y2="106" stroke-width="8" stroke-opacity="0"/>\n\t<line id="function random() { [native code] }:Bond:11-5" class="event" x1="114" y1="106" x2="114" y2="89" stroke-width="8" stroke-opacity="0"/>\n\t<line id="function random() { [native code] }:Bond:12-9" class="event" x1="72" y1="114" x2="86" y2="106" stroke-width="8" stroke-opacity="0"/>\n\t<line id="function random() { [native code] }:Bond:14-13" class="event" x1="146" y1="105" x2="143" y2="89" stroke-width="8" stroke-opacity="0"/>\n\t<line id="function random() { [native code] }:Bond:15-14" class="event" x1="162" y1="107" x2="146" y2="105" stroke-width="8" stroke-opacity="0"/>\n\t<line id="function random() { [native code] }:Bond:17-16" class="event" x1="188" y1="118" x2="172" y2="120" stroke-width="8" stroke-opacity="0"/>\n\t<line id="function random() { [native code] }:Bond:18-17" class="event" x1="198" y1="132" x2="188" y2="118" stroke-width="8" stroke-opacity="0"/>\n\t<line id="function random() { [native code] }:Bond:20-19" class="event" x1="185" y1="90" x2="195" y2="104" stroke-width="8" stroke-opacity="0"/>\n\t<line id="function random() { [native code] }:Bond:21-15" class="event" x1="169" y1="92" x2="162" y2="107" stroke-width="8" stroke-opacity="0"/>\n\t<line id="function random() { [native code] }:Bond:22-21" class="event" x1="157" y1="81" x2="169" y2="92" stroke-width="8" stroke-opacity="0"/>\n\t<line id="function random() { [native code] }:Bond:22-13" class="event" x1="157" y1="81" x2="143" y2="89" stroke-width="8" stroke-opacity="0"/>\n\t<line id="function random() { [native code] }:Bond:23-2" class="event" x1="157" y1="65" x2="143" y2="57" stroke-width="8" stroke-opacity="0"/>\n\t<line id="function random() { [native code] }:Bond:24-1" class="event" x1="129" y1="32" x2="143" y2="40" stroke-width="8" stroke-opacity="0"/>\n\t<line id="function random() { [native code] }:Bond:25-24" class="event" x1="114" y1="40" x2="129" y2="32" stroke-width="8" stroke-opacity="0"/>\n\t<line id="function random() { [native code] }:Bond:26-25" class="event" x1="100" y1="32" x2="114" y2="40" stroke-width="8" stroke-opacity="0"/>\n\t<line id="function random() { [native code] }:Bond:27-26" class="event" x1="86" y1="40" x2="100" y2="32" stroke-width="8" stroke-opacity="0"/>\n\t<line id="function random() { [native code] }:Bond:28-27" class="event" x1="72" y1="32" x2="86" y2="40" stroke-width="8" stroke-opacity="0"/>\n\t<line id="function random() { [native code] }:Bond:29-28" class="event" x1="58" y1="40" x2="72" y2="32" stroke-width="8" stroke-opacity="0"/>\n\t<line id="function random() { [native code] }:Bond:30-29" class="event" x1="44" y1="32" x2="58" y2="40" stroke-width="8" stroke-opacity="0"/>\n\t<line id="function random() { [native code] }:Bond:31-30" class="event" x1="29" y1="40" x2="44" y2="32" stroke-width="8" stroke-opacity="0"/>\n\t<line id="function random() { [native code] }:Bond:32-31" class="event" x1="15" y1="32" x2="29" y2="40" stroke-width="8" stroke-opacity="0"/>\n\t<line id="function random() { [native code] }:Bond:33-32" class="event" x1="1" y1="40" x2="15" y2="32" stroke-width="8" stroke-opacity="0"/>\n\t<circle id="function random() { [native code] }:Atom:0" class="event" cx="157" cy="32" r="8" fill-opacity="0"/>\n\t<circle id="function random() { [native code] }:Atom:1" class="event" cx="143" cy="40" r="8" fill-opacity="0"/>\n\t<circle id="function random() { [native code] }:Atom:2" class="event" cx="143" cy="57" r="8" fill-opacity="0"/>\n\t<circle id="function random() { [native code] }:Atom:3" class="event" cx="129" cy="65" r="8" fill-opacity="0"/>\n\t<circle id="function random() { [native code] }:Atom:4" class="event" cx="129" cy="81" r="8" fill-opacity="0"/>\n\t<circle id="function random() { [native code] }:Atom:5" class="event" cx="114" cy="89" r="8" fill-opacity="0"/>\n\t<circle id="function random() { [native code] }:Atom:6" class="event" cx="100" cy="81" r="8" fill-opacity="0"/>\n\t<circle id="function random() { [native code] }:Atom:7" class="event" cx="86" cy="89" r="8" fill-opacity="0"/>\n\t<circle id="function random() { [native code] }:Atom:8" class="event" cx="72" cy="81" r="8" fill-opacity="0"/>\n\t<circle id="function random() { [native code] }:Atom:9" class="event" cx="86" cy="106" r="8" fill-opacity="0"/>\n\t<circle id="function random() { [native code] }:Atom:10" class="event" cx="100" cy="114" r="8" fill-opacity="0"/>\n\t<circle id="function random() { [native code] }:Atom:11" class="event" cx="114" cy="106" r="8" fill-opacity="0"/>\n\t<circle id="function random() { [native code] }:Atom:12" class="event" cx="72" cy="114" r="8" fill-opacity="0"/>\n\t<circle id="function random() { [native code] }:Atom:13" class="event" cx="143" cy="89" r="8" fill-opacity="0"/>\n\t<circle id="function random() { [native code] }:Atom:14" class="event" cx="146" cy="105" r="8" fill-opacity="0"/>\n\t<circle id="function random() { [native code] }:Atom:15" class="event" cx="162" cy="107" r="8" fill-opacity="0"/>\n\t<circle id="function random() { [native code] }:Atom:16" class="event" cx="172" cy="120" r="8" fill-opacity="0"/>\n\t<circle id="function random() { [native code] }:Atom:17" class="event" cx="188" cy="118" r="8" fill-opacity="0"/>\n\t<circle id="function random() { [native code] }:Atom:18" class="event" cx="198" cy="132" r="8" fill-opacity="0"/>\n\t<circle id="function random() { [native code] }:Atom:19" class="event" cx="195" cy="104" r="8" fill-opacity="0"/>\n\t<circle id="function random() { [native code] }:Atom:20" class="event" cx="185" cy="90" r="8" fill-opacity="0"/>\n\t<circle id="function random() { [native code] }:Atom:21" class="event" cx="169" cy="92" r="8" fill-opacity="0"/>\n\t<circle id="function random() { [native code] }:Atom:22" class="event" cx="157" cy="81" r="8" fill-opacity="0"/>\n\t<circle id="function random() { [native code] }:Atom:23" class="event" cx="157" cy="65" r="8" fill-opacity="0"/>\n\t<circle id="function random() { [native code] }:Atom:24" class="event" cx="129" cy="32" r="8" fill-opacity="0"/>\n\t<circle id="function random() { [native code] }:Atom:25" class="event" cx="114" cy="40" r="8" fill-opacity="0"/>\n\t<circle id="function random() { [native code] }:Atom:26" class="event" cx="100" cy="32" r="8" fill-opacity="0"/>\n\t<circle id="function random() { [native code] }:Atom:27" class="event" cx="86" cy="40" r="8" fill-opacity="0"/>\n\t<circle id="function random() { [native code] }:Atom:28" class="event" cx="72" cy="32" r="8" fill-opacity="0"/>\n\t<circle id="function random() { [native code] }:Atom:29" class="event" cx="58" cy="40" r="8" fill-opacity="0"/>\n\t<circle id="function random() { [native code] }:Atom:30" class="event" cx="44" cy="32" r="8" fill-opacity="0"/>\n\t<circle id="function random() { [native code] }:Atom:31" class="event" cx="29" cy="40" r="8" fill-opacity="0"/>\n\t<circle id="function random() { [native code] }:Atom:32" class="event" cx="15" cy="32" r="8" fill-opacity="0"/>\n\t<circle id="function random() { [native code] }:Atom:33" class="event" cx="1" cy="40" r="8" fill-opacity="0"/>\n</svg>