<svg id="function random() { [native code] }" xmlns="http://www.w3.org/2000/svg" version="1.1" width="200px" height="150px" viewBox="0 0 200 150">\n\t<style> #function random() { [native code] } {pointer-events:none; }  #function random() { [native code] } .event  { pointer-events:all;}  </style>\n\t<text x="158" y="119" font-family=" Helvetica" font-weight="900" font-size="14" fill="rgb(48,80,248)">N</text>\n\t<text x="97" y="131" font-family=" Helvetica" font-weight="900" font-size="14" fill="rgb(48,80,248)">N</text>\n\t<text x="97" y="145" font-family=" Helvetica" font-weight="900" font-size="14" fill="rgb(48,80,248)">H</text>\n\t<text x="97" y="84" font-family=" Helvetica" font-weight="900" font-size="14" fill="rgb(48,80,248)">N</text>\n\t<text x="176" y="15" font-family=" Helvetica" font-weight="900" font-size="14" fill="rgb(166,41,41)">Br</text>\n\t<text x="73" y="27" font-family=" Helvetica" font-weight="900" font-size="14" fill="rgb(48,80,248)">N</text>\n\t<text x="83" y="27" font-family=" Helvetica" font-weight="900" font-size="14" fill="rgb(48,80,248)">H</text>\n\t<text x="57" y="131" font-family=" Helvetica" font-weight="900" font-size="14" fill="rgb(255,13,13)">O</text>\n\t<line x1="82" y1="92" x2="96" y2="84" style="stroke:rgb(0,0,0);stroke-width:1"/>\n\t<line x1="83" y1="88" x2="95" y2="81" style="stroke:rgb(0,0,0);stroke-width:1"/>\n\t<line x1="143" y1="57" x2="123" y2="46" style="stroke:rgb(0,0,0);stroke-width:1"/>\n\t<line x1="142" y1="53" x2="126" y2="44" style="stroke:rgb(0,0,0);stroke-width:1"/>\n\t<line x1="163" y1="23" x2="163" y2="46" style="stroke:rgb(0,0,0);stroke-width:1"/>\n\t<line x1="159" y1="25" x2="159" y2="43" style="stroke:rgb(0,0,0);stroke-width:1"/>\n\t<line x1="123" y1="23" x2="143" y2="11" style="stroke:rgb(0,0,0);stroke-width:1"/>\n\t<line x1="126" y1="24" x2="142" y2="15" style="stroke:rgb(0,0,0);stroke-width:1"/>\n\t<line x1="82" y1="46" x2="103" y2="57" style="stroke:rgb(0,0,0);stroke-width:1"/>\n\t<line x1="83" y1="50" x2="99" y2="59" style="stroke:rgb(0,0,0);stroke-width:1"/>\n\t<line x1="41" y1="2" x2="55" y2="21" style="stroke:rgb(0,0,0);stroke-width:1"/>\n\t<line x1="40" y1="6" x2="50" y2="21" style="stroke:rgb(0,0,0);stroke-width:1"/>\n\t<line x1="8" y1="25" x2="18" y2="4" style="stroke:rgb(0,0,0);stroke-width:1"/>\n\t<line x1="13" y1="25" x2="20" y2="8" style="stroke:rgb(0,0,0);stroke-width:1"/>\n\t<line x1="45" y1="42" x2="22" y2="44" style="stroke:rgb(0,0,0);stroke-width:1"/>\n\t<line x1="42" y1="39" x2="24" y2="40" style="stroke:rgb(0,0,0);stroke-width:1"/>\n\t<line x1="62" y1="80" x2="62" y2="57" style="stroke:rgb(0,0,0);stroke-width:1"/>\n\t<line x1="66" y1="78" x2="66" y2="60" style="stroke:rgb(0,0,0);stroke-width:1"/>\n\t<line x1="82" y1="113" x2="68" y2="122" style="stroke:rgb(0,0,0);stroke-width:1"/>\n\t<line x1="84" y1="116" x2="70" y2="125" style="stroke:rgb(0,0,0);stroke-width:1"/>\n\t<line x1="169" y1="119" x2="183" y2="127" style="stroke:rgb(0,0,0);stroke-width:1"/>\n\t<line x1="143" y1="127" x2="157" y2="119" style="stroke:rgb(0,0,0);stroke-width:1"/>\n\t<line x1="123" y1="115" x2="143" y2="127" style="stroke:rgb(0,0,0);stroke-width:1"/>\n\t<line x1="109" y1="123" x2="123" y2="115" style="stroke:rgb(0,0,0);stroke-width:1"/>\n\t<line x1="82" y1="115" x2="96" y2="123" style="stroke:rgb(0,0,0);stroke-width:1"/>\n\t<line x1="82" y1="92" x2="82" y2="115" style="stroke:rgb(0,0,0);stroke-width:1"/>\n\t<line x1="103" y1="57" x2="103" y2="73" style="stroke:rgb(0,0,0);stroke-width:1"/>\n\t<line x1="123" y1="46" x2="103" y2="57" style="stroke:rgb(0,0,0);stroke-width:1"/>\n\t<line x1="163" y1="46" x2="143" y2="57" style="stroke:rgb(0,0,0);stroke-width:1"/>\n\t<line x1="143" y1="11" x2="163" y2="23" style="stroke:rgb(0,0,0);stroke-width:1"/>\n\t<line x1="123" y1="23" x2="123" y2="46" style="stroke:rgb(0,0,0);stroke-width:1"/>\n\t<line x1="175" y1="16" x2="163" y2="23" style="stroke:rgb(0,0,0);stroke-width:1"/>\n\t<line x1="79" y1="30" x2="82" y2="46" style="stroke:rgb(0,0,0);stroke-width:1"/>\n\t<line x1="55" y1="21" x2="72" y2="22" style="stroke:rgb(0,0,0);stroke-width:1"/>\n\t<line x1="18" y1="4" x2="41" y2="2" style="stroke:rgb(0,0,0);stroke-width:1"/>\n\t<line x1="22" y1="44" x2="8" y2="25" style="stroke:rgb(0,0,0);stroke-width:1"/>\n\t<line x1="45" y1="42" x2="55" y2="21" style="stroke:rgb(0,0,0);stroke-width:1"/>\n\t<line x1="62" y1="57" x2="45" y2="42" style="stroke:rgb(0,0,0);stroke-width:1"/>\n\t<line x1="62" y1="57" x2="82" y2="46" style="stroke:rgb(0,0,0);stroke-width:1"/>\n\t<line x1="62" y1="80" x2="82" y2="92" style="stroke:rgb(0,0,0);stroke-width:1"/>\n\t<line x1="163" y1="92" x2="163" y2="108" style="stroke:rgb(0,0,0);stroke-width:1"/>\n\t<line id="function random() { [native code] }:Bond:7-6" class="event" x1="103" y1="80" x2="82" y2="92" stroke-width="8" stroke-opacity="0"/>\n\t<line id="function random() { [native code] }:Bond:10-9" class="event" x1="143" y1="57" x2="123" y2="46" stroke-width="8" stroke-opacity="0"/>\n\t<line id="function random() { [native code] }:Bond:12-11" class="event" x1="163" y1="23" x2="163" y2="46" stroke-width="8" stroke-opacity="0"/>\n\t<line id="function random() { [native code] }:Bond:14-13" class="event" x1="123" y1="23" x2="143" y2="11" stroke-width="8" stroke-opacity="0"/>\n\t<line id="function random() { [native code] }:Bond:16-8" class="event" x1="82" y1="46" x2="103" y2="57" stroke-width="8" stroke-opacity="0"/>\n\t<line id="function random() { [native code] }:Bond:19-18" class="event" x1="41" y1="2" x2="55" y2="21" stroke-width="8" stroke-opacity="0"/>\n\t<line id="function random() { [native code] }:Bond:21-20" class="event" x1="8" y1="25" x2="18" y2="4" stroke-width="8" stroke-opacity="0"/>\n\t<line id="function random() { [native code] }:Bond:23-22" class="event" x1="45" y1="42" x2="22" y2="44" stroke-width="8" stroke-opacity="0"/>\n\t<line id="function random() { [native code] }:Bond:25-24" class="event" x1="62" y1="80" x2="62" y2="57" stroke-width="8" stroke-opacity="0"/>\n\t<line id="function random() { [native code] }:Bond:26-5" class="event" x1="62" y1="127" x2="82" y2="115" stroke-width="8" stroke-opacity="0"/>\n\t<line id="function random() { [native code] }:Bond:1-0" class="event" x1="163" y1="115" x2="183" y2="127" stroke-width="8" stroke-opacity="0"/>\n\t<line id="function random() { [native code] }:Bond:2-1" class="event" x1="143" y1="127" x2="163" y2="115" stroke-width="8" stroke-opacity="0"/>\n\t<line id="function random() { [native code] }:Bond:3-2" class="event" x1="123" y1="115" x2="143" y2="127" stroke-width="8" stroke-opacity="0"/>\n\t<line id="function random() { [native code] }:Bond:4-3" class="event" x1="103" y1="127" x2="123" y2="115" stroke-width="8" stroke-opacity="0"/>\n\t<line id="function random() { [native code] }:Bond:5-4" class="event" x1="82" y1="115" x2="103" y2="127" stroke-width="8" stroke-opacity="0"/>\n\t<line id="function random() { [native code] }:Bond:6-5" class="event" x1="82" y1="92" x2="82" y2="115" stroke-width="8" stroke-opacity="0"/>\n\t<line id="function random() { [native code] }:Bond:8-7" class="event" x1="103" y1="57" x2="103" y2="80" stroke-width="8" stroke-opacity="0"/>\n\t<line id="function random() { [native code] }:Bond:9-8" class="event" x1="123" y1="46" x2="103" y2="57" stroke-width="8" stroke-opacity="0"/>\n\t<line id="function random() { [native code] }:Bond:11-10" class="event" x1="163" y1="46" x2="143" y2="57" stroke-width="8" stroke-opacity="0"/>\n\t<line id="function random() { [native code] }:Bond:13-12" class="event" x1="143" y1="11" x2="163" y2="23" stroke-width="8" stroke-opacity="0"/>\n\t<line id="function random() { [native code] }:Bond:14-9" class="event" x1="123" y1="23" x2="123" y2="46" stroke-width="8" stroke-opacity="0"/>\n\t<line id="function random() { [native code] }:Bond:15-12" class="event" x1="183" y1="11" x2="163" y2="23" stroke-width="8" stroke-opacity="0"/>\n\t<line id="function random() { [native code] }:Bond:17-16" class="event" x1="78" y1="23" x2="82" y2="46" stroke-width="8" stroke-opacity="0"/>\n\t<line id="function random() { [native code] }:Bond:18-17" class="event" x1="55" y1="21" x2="78" y2="23" stroke-width="8" stroke-opacity="0"/>\n\t<line id="function random() { [native code] }:Bond:20-19" class="event" x1="18" y1="4" x2="41" y2="2" stroke-width="8" stroke-opacity="0"/>\n\t<line id="function random() { [native code] }:Bond:22-21" class="event" x1="22" y1="44" x2="8" y2="25" stroke-width="8" stroke-opacity="0"/>\n\t<line id="function random() { [native code] }:Bond:23-18" class="event" x1="45" y1="42" x2="55" y2="21" stroke-width="8" stroke-opacity="0"/>\n\t<line id="function random() { [native code] }:Bond:24-23" class="event" x1="62" y1="57" x2="45" y2="42" stroke-width="8" stroke-opacity="0"/>\n\t<line id="function random() { [native code] }:Bond:24-16" class="event" x1="62" y1="57" x2="82" y2="46" stroke-width="8" stroke-opacity="0"/>\n\t<line id="function random() { [native code] }:Bond:25-6" class="event" x1="62" y1="80" x2="82" y2="92" stroke-width="8" stroke-opacity="0"/>\n\t<line id="function random() { [native code] }:Bond:27-1" class="event" x1="163" y1="92" x2="163" y2="115" stroke-width="8" stroke-opacity="0"/>\n\t<circle id="function random() { [native code] }:Atom:0" class="event" cx="183" cy="127" r="8" fill-opacity="0"/>\n\t<circle id="function random() { [native code] }:Atom:1" class="event" cx="163" cy="115" r="8" fill-opacity="0"/>\n\t<circle id="function random() { [native code] }:Atom:2" class="event" cx="143" cy="127" r="8" fill-opacity="0"/>\n\t<circle id="function random() { [native code] }:Atom:3" class="event" cx="123" cy="115" r="8" fill-opacity="0"/>\n\t<circle id="function random() { [native code] }:Atom:4" class="event" cx="103" cy="127" r="8" fill-opacity="0"/>\n\t<circle id="function random() { [native code] }:Atom:5" class="event" cx="82" cy="115" r="8" fill-opacity="0"/>\n\t<circle id="function random() { [native code] }:Atom:6" class="event" cx="82" cy="92" r="8" fill-opacity="0"/>\n\t<circle id="function random() { [native code] }:Atom:7" class="event" cx="103" cy="80" r="8" fill-opacity="0"/>\n\t<circle id="function random() { [native code] }:Atom:8" class="event" cx="103" cy="57" r="8" fill-opacity="0"/>\n\t<circle id="function random() { [native code] }:Atom:9" class="event" cx="123" cy="46" r="8" fill-opacity="0"/>\n\t<circle id="function random() { [native code] }:Atom:10" class="event" cx="143" cy="57" r="8" fill-opacity="0"/>\n\t<circle id="function random() { [native code] }:Atom:11" class="event" cx="163" cy="46" r="8" fill-opacity="0"/>\n\t<circle id="function random() { [native code] }:Atom:12" class="event" cx="163" cy="23" r="8" fill-opacity="0"/>\n\t<circle id="function random() { [native code] }:Atom:13" class="event" cx="143" cy="11" r="8" fill-opacity="0"/>\n\t<circle id="function random() { [native code] }:Atom:14" class="event" cx="123" cy="23" r="8" fill-opacity="0"/>\n\t<circle id="function random() { [native code] }:Atom:15" class="event" cx="183" cy="11" r="8" fill-opacity="0"/>\n\t<circle id="function random() { [native code] }:Atom:16" class="event" cx="82" cy="46" r="8" fill-opacity="0"/>\n\t<circle id="function random() { [native code] }:Atom:17" class="event" cx="78" cy="23" r="8" fill-opacity="0"/>\n\t<circle id="function random() { [native code] }:Atom:18" class="event" cx="55" cy="21" r="8" fill-opacity="0"/>\n\t<circle id="function random() { [native code] }:Atom:19" class="event" cx="41" cy="2" r="8" fill-opacity="0"/>\n\t<circle id="function random() { [native code] }:Atom:20" class="event" cx="18" cy="4" r="8" fill-opacity="0"/>\n\t<circle id="function random() { [native code] }:Atom:21" class="event" cx="8" cy="25" r="8" fill-opacity="0"/>\n\t<circle id="function random() { [native code] }:Atom:22" class="event" cx="22" cy="44" r="8" fill-opacity="0"/>\n\t<circle id="function random() { [native code] }:Atom:23" class="event" cx="45" cy="42" r="8" fill-opacity="0"/>\n\t<circle id="function random() { [native code] }:Atom:24" class="event" cx="62" cy="57" r="8" fill-opacity="0"/>\n\t<circle id="function random() { [native code] }:Atom:25" class="event" cx="62" cy="80" r="8" fill-opacity="0"/>\n\t<circle id="function random() { [native code] }:Atom:26" class="event" cx="62" cy="127" r="8" fill-opacity="0"/>\n\t<circle id="function random() { [native code] }:Atom:27" class="event" cx="163" cy="92" r="8" fill-opacity="0"/>\n</svg>