<svg id="function random() { [native code] }" xmlns="http://www.w3.org/2000/svg" version="1.1" width="200px" height="150px" viewBox="0 0 200 150">\n\t<style> #function random() { [native code] } {pointer-events:none; }  #function random() { [native code] } .event  { pointer-events:all;}  </style>\n\t<text x="149" y="87" font-family=" Helvetica" font-weight="900" font-size="9" fill="rgb(48,80,248)">N</text>\n\t<text x="155" y="87" font-family=" Helvetica" font-weight="900" font-size="9" fill="rgb(48,80,248)">H</text>\n\t<text x="99" y="41" font-family=" Helvetica" font-weight="900" font-size="9" fill="rgb(255,13,13)">O</text>\n\t<text x="87" y="63" font-family=" Helvetica" font-weight="900" font-size="9" fill="rgb(48,80,248)">N</text>\n\t<text x="87" y="72" font-family=" Helvetica" font-weight="900" font-size="9" fill="rgb(48,80,248)">H</text>\n\t<text x="49" y="55" font-family=" Helvetica" font-weight="900" font-size="9" fill="rgb(48,80,248)">N</text>\n\t<text x="23" y="41" font-family=" Helvetica" font-weight="900" font-size="9" fill="rgb(255,13,13)">O</text>\n\t<text x="10" y="63" font-family=" Helvetica" font-weight="900" font-size="9" fill="rgb(255,13,13)">O</text>\n\t<text x="4" y="63" font-family=" Helvetica" font-weight="900" font-size="9" fill="rgb(255,13,13)">H</text>\n\t<text x="125" y="55" font-family=" Helvetica" font-weight="900" font-size="9" fill="rgb(48,80,248)">N</text>\n\t<text x="188" y="63" font-family=" Helvetica" font-weight="900" font-size="9" fill="rgb(31,240,31)">Cl</text>\n\t<text x="188" y="33" font-family=" Helvetica" font-weight="900" font-size="9" fill="rgb(31,240,31)">Cl</text>\n\t<line x1="146" y1="98" x2="152" y2="111" style="stroke:rgb(0,0,0);stroke-width:1"/>\n\t<line x1="145" y1="100" x2="149" y2="111" style="stroke:rgb(0,0,0);stroke-width:1"/>\n\t<line x1="128" y1="82" x2="141" y2="74" style="stroke:rgb(0,0,0);stroke-width:1"/>\n\t<line x1="131" y1="83" x2="141" y2="77" style="stroke:rgb(0,0,0);stroke-width:1"/>\n\t<line x1="116" y1="60" x2="116" y2="74" style="stroke:rgb(0,0,0);stroke-width:1"/>\n\t<line x1="118" y1="61" x2="118" y2="73" style="stroke:rgb(0,0,0);stroke-width:1"/>\n\t<line x1="104" y1="53" x2="104" y2="42" style="stroke:rgb(0,0,0);stroke-width:1"/>\n\t<line x1="102" y1="53" x2="102" y2="42" style="stroke:rgb(0,0,0);stroke-width:1"/>\n\t<line x1="28" y1="53" x2="28" y2="42" style="stroke:rgb(0,0,0);stroke-width:1"/>\n\t<line x1="25" y1="53" x2="25" y2="42" style="stroke:rgb(0,0,0);stroke-width:1"/>\n\t<line x1="141" y1="60" x2="133" y2="55" style="stroke:rgb(0,0,0);stroke-width:1"/>\n\t<line x1="139" y1="61" x2="132" y2="57" style="stroke:rgb(0,0,0);stroke-width:1"/>\n\t<line x1="167" y1="60" x2="154" y2="52" style="stroke:rgb(0,0,0);stroke-width:1"/>\n\t<line x1="166" y1="57" x2="156" y2="51" style="stroke:rgb(0,0,0);stroke-width:1"/>\n\t<line x1="179" y1="38" x2="179" y2="52" style="stroke:rgb(0,0,0);stroke-width:1"/>\n\t<line x1="177" y1="39" x2="177" y2="51" style="stroke:rgb(0,0,0);stroke-width:1"/>\n\t<line x1="154" y1="38" x2="167" y2="30" style="stroke:rgb(0,0,0);stroke-width:1"/>\n\t<line x1="156" y1="39" x2="166" y2="33" style="stroke:rgb(0,0,0);stroke-width:1"/>\n\t<line x1="123" y1="108" x2="131" y2="96" style="stroke:rgb(0,0,0);stroke-width:1"/>\n\t<line x1="126" y1="108" x2="132" y2="99" style="stroke:rgb(0,0,0);stroke-width:1"/>\n\t<line x1="143" y1="123" x2="129" y2="122" style="stroke:rgb(0,0,0);stroke-width:1"/>\n\t<line x1="142" y1="121" x2="131" y2="120" style="stroke:rgb(0,0,0);stroke-width:1"/>\n\t<line x1="152" y1="111" x2="167" y2="113" style="stroke:rgb(0,0,0);stroke-width:1"/>\n\t<line x1="150" y1="88" x2="146" y2="98" style="stroke:rgb(0,0,0);stroke-width:1"/>\n\t<line x1="141" y1="74" x2="148" y2="81" style="stroke:rgb(0,0,0);stroke-width:1"/>\n\t<line x1="116" y1="74" x2="128" y2="82" style="stroke:rgb(0,0,0);stroke-width:1"/>\n\t<line x1="103" y1="52" x2="116" y2="60" style="stroke:rgb(0,0,0);stroke-width:1"/>\n\t<line x1="94" y1="57" x2="103" y2="52" style="stroke:rgb(0,0,0);stroke-width:1"/>\n\t<line x1="77" y1="52" x2="86" y2="57" style="stroke:rgb(0,0,0);stroke-width:1"/>\n\t<line x1="65" y1="60" x2="77" y2="52" style="stroke:rgb(0,0,0);stroke-width:1"/>\n\t<line x1="56" y1="55" x2="65" y2="60" style="stroke:rgb(0,0,0);stroke-width:1"/>\n\t<line x1="52" y1="38" x2="52" y2="48" style="stroke:rgb(0,0,0);stroke-width:1"/>\n\t<line x1="39" y1="60" x2="48" y2="55" style="stroke:rgb(0,0,0);stroke-width:1"/>\n\t<line x1="26" y1="52" x2="39" y2="60" style="stroke:rgb(0,0,0);stroke-width:1"/>\n\t<line x1="18" y1="57" x2="26" y2="52" style="stroke:rgb(0,0,0);stroke-width:1"/>\n\t<line x1="124" y1="55" x2="116" y2="60" style="stroke:rgb(0,0,0);stroke-width:1"/>\n\t<line x1="141" y1="60" x2="141" y2="74" style="stroke:rgb(0,0,0);stroke-width:1"/>\n\t<line x1="154" y1="52" x2="141" y2="60" style="stroke:rgb(0,0,0);stroke-width:1"/>\n\t<line x1="179" y1="52" x2="167" y2="60" style="stroke:rgb(0,0,0);stroke-width:1"/>\n\t<line x1="187" y1="57" x2="179" y2="52" style="stroke:rgb(0,0,0);stroke-width:1"/>\n\t<line x1="187" y1="33" x2="179" y2="38" style="stroke:rgb(0,0,0);stroke-width:1"/>\n\t<line x1="167" y1="30" x2="179" y2="38" style="stroke:rgb(0,0,0);stroke-width:1"/>\n\t<line x1="154" y1="38" x2="154" y2="52" style="stroke:rgb(0,0,0);stroke-width:1"/>\n\t<line x1="131" y1="96" x2="128" y2="82" style="stroke:rgb(0,0,0);stroke-width:1"/>\n\t<line x1="131" y1="96" x2="146" y2="98" style="stroke:rgb(0,0,0);stroke-width:1"/>\n\t<line x1="129" y1="122" x2="123" y2="108" style="stroke:rgb(0,0,0);stroke-width:1"/>\n\t<line x1="143" y1="123" x2="152" y2="111" style="stroke:rgb(0,0,0);stroke-width:1"/>\n\t<line id="function random() { [native code] }:Bond:2-1" class="event" x1="146" y1="98" x2="152" y2="111" stroke-width="8" stroke-opacity="0"/>\n\t<line id="function random() { [native code] }:Bond:5-4" class="event" x1="128" y1="82" x2="141" y2="74" stroke-width="8" stroke-opacity="0"/>\n\t<line id="function random() { [native code] }:Bond:7-6" class="event" x1="116" y1="60" x2="116" y2="74" stroke-width="8" stroke-opacity="0"/>\n\t<line id="function random() { [native code] }:Bond:9-8" class="event" x1="103" y1="38" x2="103" y2="52" stroke-width="8" stroke-opacity="0"/>\n\t<line id="function random() { [native code] }:Bond:17-16" class="event" x1="26" y1="38" x2="26" y2="52" stroke-width="8" stroke-opacity="0"/>\n\t<line id="function random() { [native code] }:Bond:20-19" class="event" x1="141" y1="60" x2="128" y2="52" stroke-width="8" stroke-opacity="0"/>\n\t<line id="function random() { [native code] }:Bond:22-21" class="event" x1="167" y1="60" x2="154" y2="52" stroke-width="8" stroke-opacity="0"/>\n\t<line id="function random() { [native code] }:Bond:25-23" class="event" x1="179" y1="38" x2="179" y2="52" stroke-width="8" stroke-opacity="0"/>\n\t<line id="function random() { [native code] }:Bond:28-27" class="event" x1="154" y1="38" x2="167" y2="30" stroke-width="8" stroke-opacity="0"/>\n\t<line id="function random() { [native code] }:Bond:30-29" class="event" x1="123" y1="108" x2="131" y2="96" stroke-width="8" stroke-opacity="0"/>\n\t<line id="function random() { [native code] }:Bond:32-31" class="event" x1="143" y1="123" x2="129" y2="122" stroke-width="8" stroke-opacity="0"/>\n\t<line id="function random() { [native code] }:Bond:1-0" class="event" x1="152" y1="111" x2="167" y2="113" stroke-width="8" stroke-opacity="0"/>\n\t<line id="function random() { [native code] }:Bond:3-2" class="event" x1="152" y1="84" x2="146" y2="98" stroke-width="8" stroke-opacity="0"/>\n\t<line id="function random() { [native code] }:Bond:4-3" class="event" x1="141" y1="74" x2="152" y2="84" stroke-width="8" stroke-opacity="0"/>\n\t<line id="function random() { [native code] }:Bond:6-5" class="event" x1="116" y1="74" x2="128" y2="82" stroke-width="8" stroke-opacity="0"/>\n\t<line id="function random() { [native code] }:Bond:8-7" class="event" x1="103" y1="52" x2="116" y2="60" stroke-width="8" stroke-opacity="0"/>\n\t<line id="function random() { [native code] }:Bond:10-8" class="event" x1="90" y1="60" x2="103" y2="52" stroke-width="8" stroke-opacity="0"/>\n\t<line id="function random() { [native code] }:Bond:11-10" class="event" x1="77" y1="52" x2="90" y2="60" stroke-width="8" stroke-opacity="0"/>\n\t<line id="function random() { [native code] }:Bond:12-11" class="event" x1="65" y1="60" x2="77" y2="52" stroke-width="8" stroke-opacity="0"/>\n\t<line id="function random() { [native code] }:Bond:13-12" class="event" x1="52" y1="52" x2="65" y2="60" stroke-width="8" stroke-opacity="0"/>\n\t<line id="function random() { [native code] }:Bond:14-13" class="event" x1="52" y1="38" x2="52" y2="52" stroke-width="8" stroke-opacity="0"/>\n\t<line id="function random() { [native code] }:Bond:15-13" class="event" x1="39" y1="60" x2="52" y2="52" stroke-width="8" stroke-opacity="0"/>\n\t<line id="function random() { [native code] }:Bond:16-15" class="event" x1="26" y1="52" x2="39" y2="60" stroke-width="8" stroke-opacity="0"/>\n\t<line id="function random() { [native code] }:Bond:18-16" class="event" x1="14" y1="60" x2="26" y2="52" stroke-width="8" stroke-opacity="0"/>\n\t<line id="function random() { [native code] }:Bond:19-7" class="event" x1="128" y1="52" x2="116" y2="60" stroke-width="8" stroke-opacity="0"/>\n\t<line id="function random() { [native code] }:Bond:20-4" class="event" x1="141" y1="60" x2="141" y2="74" stroke-width="8" stroke-opacity="0"/>\n\t<line id="function random() { [native code] }:Bond:21-20" class="event" x1="154" y1="52" x2="141" y2="60" stroke-width="8" stroke-opacity="0"/>\n\t<line id="function random() { [native code] }:Bond:23-22" class="event" x1="179" y1="52" x2="167" y2="60" stroke-width="8" stroke-opacity="0"/>\n\t<line id="function random() { [native code] }:Bond:24-23" class="event" x1="192" y1="60" x2="179" y2="52" stroke-width="8" stroke-opacity="0"/>\n\t<line id="function random() { [native code] }:Bond:26-25" class="event" x1="192" y1="30" x2="179" y2="38" stroke-width="8" stroke-opacity="0"/>\n\t<line id="function random() { [native code] }:Bond:27-25" class="event" x1="167" y1="30" x2="179" y2="38" stroke-width="8" stroke-opacity="0"/>\n\t<line id="function random() { [native code] }:Bond:28-21" class="event" x1="154" y1="38" x2="154" y2="52" stroke-width="8" stroke-opacity="0"/>\n\t<line id="function random() { [native code] }:Bond:29-5" class="event" x1="131" y1="96" x2="128" y2="82" stroke-width="8" stroke-opacity="0"/>\n\t<line id="function random() { [native code] }:Bond:29-2" class="event" x1="131" y1="96" x2="146" y2="98" stroke-width="8" stroke-opacity="0"/>\n\t<line id="function random() { [native code] }:Bond:31-30" class="event" x1="129" y1="122" x2="123" y2="108" stroke-width="8" stroke-opacity="0"/>\n\t<line id="function random() { [native code] }:Bond:32-1" class="event" x1="143" y1="123" x2="152" y2="111" stroke-width="8" stroke-opacity="0"/>\n\t<circle id="function random() { [native code] }:Atom:0" class="event" cx="167" cy="113" r="8" fill-opacity="0"/>\n\t<circle id="function random() { [native code] }:Atom:1" class="event" cx="152" cy="111" r="8" fill-opacity="0"/>\n\t<circle id="function random() { [native code] }:Atom:2" class="event" cx="146" cy="98" r="8" fill-opacity="0"/>\n\t<circle id="function random() { [native code] }:Atom:3" class="event" cx="152" cy="84" r="8" fill-opacity="0"/>\n\t<circle id="function random() { [native code] }:Atom:4" class="event" cx="141" cy="74" r="8" fill-opacity="0"/>\n\t<circle id="function random() { [native code] }:Atom:5" class="event" cx="128" cy="82" r="8" fill-opacity="0"/>\n\t<circle id="function random() { [native code] }:Atom:6" class="event" cx="116" cy="74" r="8" fill-opacity="0"/>\n\t<circle id="function random() { [native code] }:Atom:7" class="event" cx="116" cy="60" r="8" fill-opacity="0"/>\n\t<circle id="function random() { [native code] }:Atom:8" class="event" cx="103" cy="52" r="8" fill-opacity="0"/>\n\t<circle id="function random() { [native code] }:Atom:9" class="event" cx="103" cy="38" r="8" fill-opacity="0"/>\n\t<circle id="function random() { [native code] }:Atom:10" class="event" cx="90" cy="60" r="8" fill-opacity="0"/>\n\t<circle id="function random() { [native code] }:Atom:11" class="event" cx="77" cy="52" r="8" fill-opacity="0"/>\n\t<circle id="function random() { [native code] }:Atom:12" class="event" cx="65" cy="60" r="8" fill-opacity="0"/>\n\t<circle id="function random() { [native code] }:Atom:13" class="event" cx="52" cy="52" r="8" fill-opacity="0"/>\n\t<circle id="function random() { [native code] }:Atom:14" class="event" cx="52" cy="38" r="8" fill-opacity="0"/>\n\t<circle id="function random() { [native code] }:Atom:15" class="event" cx="39" cy="60" r="8" fill-opacity="0"/>\n\t<circle id="function random() { [native code] }:Atom:16" class="event" cx="26" cy="52" r="8" fill-opacity="0"/>\n\t<circle id="function random() { [native code] }:Atom:17" class="event" cx="26" cy="38" r="8" fill-opacity="0"/>\n\t<circle id="function random() { [native code] }:Atom:18" class="event" cx="14" cy="60" r="8" fill-opacity="0"/>\n\t<circle id="function random() { [native code] }:Atom:19" class="event" cx="128" cy="52" r="8" fill-opacity="0"/>\n\t<circle id="function random() { [native code] }:Atom:20" class="event" cx="141" cy="60" r="8" fill-opacity="0"/>\n\t<circle id="function random() { [native code] }:Atom:21" class="event" cx="154" cy="52" r="8" fill-opacity="0"/>\n\t<circle id="function random() { [native code] }:Atom:22" class="event" cx="167" cy="60" r="8" fill-opacity="0"/>\n\t<circle id="function random() { [native code] }:Atom:23" class="event" cx="179" cy="52" r="8" fill-opacity="0"/>\n\t<circle id="function random() { [native code] }:Atom:24" class="event" cx="192" cy="60" r="8" fill-opacity="0"/>\n\t<circle id="function random() { [native code] }:Atom:25" class="event" cx="179" cy="38" r="8" fill-opacity="0"/>\n\t<circle id="function random() { [native code] }:Atom:26" class="event" cx="192" cy="30" r="8" fill-opacity="0"/>\n\t<circle id="function random() { [native code] }:Atom:27" class="event" cx="167" cy="30" r="8" fill-opacity="0"/>\n\t<circle id="function random() { [native code] }:Atom:28" class="event" cx="154" cy="38" r="8" fill-opacity="0"/>\n\t<circle id="function random() { [native code] }:Atom:29" class="event" cx="131" cy="96" r="8" fill-opacity="0"/>\n\t<circle id="function random() { [native code] }:Atom:30" class="event" cx="123" cy="108" r="8" fill-opacity="0"/>\n\t<circle id="function random() { [native code] }:Atom:31" class="event" cx="129" cy="122" r="8" fill-opacity="0"/>\n\t<circle id="function random() { [native code] }:Atom:32" class="event" cx="143" cy="123" r="8" fill-opacity="0"/>\n</svg>