<svg id="function random() { [native code] }" xmlns="http://www.w3.org/2000/svg" version="1.1" width="200px" height="150px" viewBox="0 0 200 150">\n\t<style> #function random() { [native code] } {pointer-events:none; }  #function random() { [native code] } .event  { pointer-events:all;}  </style>\n\t<text x="179" y="59" font-family=" Helvetica" font-weight="900" font-size="10" fill="rgb(48,80,248)">N</text>\n\t<text x="135" y="68" font-family=" Helvetica" font-weight="900" font-size="10" fill="rgb(48,80,248)">N</text>\n\t<text x="135" y="78" font-family=" Helvetica" font-weight="900" font-size="10" fill="rgb(48,80,248)">H</text>\n\t<text x="120" y="42" font-family=" Helvetica" font-weight="900" font-size="10" fill="rgb(255,13,13)">O</text>\n\t<text x="91" y="59" font-family=" Helvetica" font-weight="900" font-size="10" fill="rgb(48,80,248)">N</text>\n\t<text x="76" y="33" font-family=" Helvetica" font-weight="900" font-size="10" fill="rgb(144,224,80)">F</text>\n\t<text x="9" y="48" font-family=" Helvetica" font-weight="900" font-size="10" fill="rgb(144,224,80)">F</text>\n\t<text x="2" y="25" font-family=" Helvetica" font-weight="900" font-size="10" fill="rgb(144,224,80)">F</text>\n\t<text x="26" y="19" font-family=" Helvetica" font-weight="900" font-size="10" fill="rgb(144,224,80)">F</text>\n\t<text x="63" y="96" font-family=" Helvetica" font-weight="900" font-size="10" fill="rgb(48,80,248)">N</text>\n\t<text x="56" y="96" font-family=" Helvetica" font-weight="900" font-size="10" fill="rgb(48,80,248)">H</text>\n\t<line x1="125" y1="57" x2="125" y2="44" style="stroke:rgb(0,0,0);stroke-width:1"/>\n\t<line x1="123" y1="57" x2="123" y2="44" style="stroke:rgb(0,0,0);stroke-width:1"/>\n\t<line x1="109" y1="65" x2="99" y2="59" style="stroke:rgb(0,0,0);stroke-width:1"/>\n\t<line x1="106" y1="66" x2="98" y2="61" style="stroke:rgb(0,0,0);stroke-width:1"/>\n\t<line x1="65" y1="39" x2="65" y2="56" style="stroke:rgb(0,0,0);stroke-width:1"/>\n\t<line x1="62" y1="41" x2="62" y2="54" style="stroke:rgb(0,0,0);stroke-width:1"/>\n\t<line x1="35" y1="39" x2="50" y2="30" style="stroke:rgb(0,0,0);stroke-width:1"/>\n\t<line x1="38" y1="40" x2="50" y2="34" style="stroke:rgb(0,0,0);stroke-width:1"/>\n\t<line x1="50" y1="65" x2="35" y2="56" style="stroke:rgb(0,0,0);stroke-width:1"/>\n\t<line x1="50" y1="61" x2="38" y2="55" style="stroke:rgb(0,0,0);stroke-width:1"/>\n\t<line x1="79" y1="82" x2="79" y2="65" style="stroke:rgb(0,0,0);stroke-width:1"/>\n\t<line x1="82" y1="80" x2="82" y2="66" style="stroke:rgb(0,0,0);stroke-width:1"/>\n\t<line x1="91" y1="107" x2="74" y2="109" style="stroke:rgb(0,0,0);stroke-width:1"/>\n\t<line x1="88" y1="105" x2="76" y2="106" style="stroke:rgb(0,0,0);stroke-width:1"/>\n\t<line x1="94" y1="136" x2="101" y2="121" style="stroke:rgb(0,0,0);stroke-width:1"/>\n\t<line x1="92" y1="134" x2="98" y2="121" style="stroke:rgb(0,0,0);stroke-width:1"/>\n\t<line x1="67" y1="124" x2="77" y2="138" style="stroke:rgb(0,0,0);stroke-width:1"/>\n\t<line x1="70" y1="124" x2="78" y2="135" style="stroke:rgb(0,0,0);stroke-width:1"/>\n\t<line x1="109" y1="82" x2="94" y2="90" style="stroke:rgb(0,0,0);stroke-width:1"/>\n\t<line x1="106" y1="80" x2="94" y2="87" style="stroke:rgb(0,0,0);stroke-width:1"/>\n\t<line x1="188" y1="59" x2="198" y2="65" style="stroke:rgb(0,0,0);stroke-width:1"/>\n\t<line x1="183" y1="39" x2="183" y2="51" style="stroke:rgb(0,0,0);stroke-width:1"/>\n\t<line x1="168" y1="65" x2="178" y2="59" style="stroke:rgb(0,0,0);stroke-width:1"/>\n\t<line x1="153" y1="56" x2="168" y2="65" style="stroke:rgb(0,0,0);stroke-width:1"/>\n\t<line x1="143" y1="62" x2="153" y2="56" style="stroke:rgb(0,0,0);stroke-width:1"/>\n\t<line x1="124" y1="56" x2="134" y2="62" style="stroke:rgb(0,0,0);stroke-width:1"/>\n\t<line x1="109" y1="65" x2="124" y2="56" style="stroke:rgb(0,0,0);stroke-width:1"/>\n\t<line x1="79" y1="65" x2="90" y2="59" style="stroke:rgb(0,0,0);stroke-width:1"/>\n\t<line x1="65" y1="56" x2="79" y2="65" style="stroke:rgb(0,0,0);stroke-width:1"/>\n\t<line x1="75" y1="33" x2="65" y2="39" style="stroke:rgb(0,0,0);stroke-width:1"/>\n\t<line x1="50" y1="30" x2="65" y2="39" style="stroke:rgb(0,0,0);stroke-width:1"/>\n\t<line x1="20" y1="30" x2="35" y2="39" style="stroke:rgb(0,0,0);stroke-width:1"/>\n\t<line x1="15" y1="40" x2="20" y2="30" style="stroke:rgb(0,0,0);stroke-width:1"/>\n\t<line x1="9" y1="24" x2="20" y2="30" style="stroke:rgb(0,0,0);stroke-width:1"/>\n\t<line x1="26" y1="21" x2="20" y2="30" style="stroke:rgb(0,0,0);stroke-width:1"/>\n\t<line x1="35" y1="56" x2="35" y2="39" style="stroke:rgb(0,0,0);stroke-width:1"/>\n\t<line x1="50" y1="65" x2="65" y2="56" style="stroke:rgb(0,0,0);stroke-width:1"/>\n\t<line x1="71" y1="89" x2="79" y2="82" style="stroke:rgb(0,0,0);stroke-width:1"/>\n\t<line x1="74" y1="109" x2="69" y2="98" style="stroke:rgb(0,0,0);stroke-width:1"/>\n\t<line x1="101" y1="121" x2="91" y2="107" style="stroke:rgb(0,0,0);stroke-width:1"/>\n\t<line x1="77" y1="138" x2="94" y2="136" style="stroke:rgb(0,0,0);stroke-width:1"/>\n\t<line x1="67" y1="124" x2="74" y2="109" style="stroke:rgb(0,0,0);stroke-width:1"/>\n\t<line x1="94" y1="90" x2="91" y2="107" style="stroke:rgb(0,0,0);stroke-width:1"/>\n\t<line x1="94" y1="90" x2="79" y2="82" style="stroke:rgb(0,0,0);stroke-width:1"/>\n\t<line x1="109" y1="82" x2="109" y2="65" style="stroke:rgb(0,0,0);stroke-width:1"/>\n\t<line id="function random() { [native code] }:Bond:7-6" class="event" x1="124" y1="39" x2="124" y2="56" stroke-width="8" stroke-opacity="0"/>\n\t<line id="function random() { [native code] }:Bond:9-8" class="event" x1="94" y1="56" x2="109" y2="65" stroke-width="8" stroke-opacity="0"/>\n\t<line id="function random() { [native code] }:Bond:12-11" class="event" x1="65" y1="39" x2="65" y2="56" stroke-width="8" stroke-opacity="0"/>\n\t<line id="function random() { [native code] }:Bond:15-14" class="event" x1="35" y1="39" x2="50" y2="30" stroke-width="8" stroke-opacity="0"/>\n\t<line id="function random() { [native code] }:Bond:21-20" class="event" x1="50" y1="65" x2="35" y2="56" stroke-width="8" stroke-opacity="0"/>\n\t<line id="function random() { [native code] }:Bond:22-10" class="event" x1="79" y1="82" x2="79" y2="65" stroke-width="8" stroke-opacity="0"/>\n\t<line id="function random() { [native code] }:Bond:25-24" class="event" x1="91" y1="107" x2="74" y2="109" stroke-width="8" stroke-opacity="0"/>\n\t<line id="function random() { [native code] }:Bond:27-26" class="event" x1="94" y1="136" x2="101" y2="121" stroke-width="8" stroke-opacity="0"/>\n\t<line id="function random() { [native code] }:Bond:29-28" class="event" x1="67" y1="124" x2="77" y2="138" stroke-width="8" stroke-opacity="0"/>\n\t<line id="function random() { [native code] }:Bond:31-30" class="event" x1="109" y1="82" x2="94" y2="90" stroke-width="8" stroke-opacity="0"/>\n\t<line id="function random() { [native code] }:Bond:1-0" class="event" x1="183" y1="56" x2="198" y2="65" stroke-width="8" stroke-opacity="0"/>\n\t<line id="function random() { [native code] }:Bond:2-1" class="event" x1="183" y1="39" x2="183" y2="56" stroke-width="8" stroke-opacity="0"/>\n\t<line id="function random() { [native code] }:Bond:3-1" class="event" x1="168" y1="65" x2="183" y2="56" stroke-width="8" stroke-opacity="0"/>\n\t<line id="function random() { [native code] }:Bond:4-3" class="event" x1="153" y1="56" x2="168" y2="65" stroke-width="8" stroke-opacity="0"/>\n\t<line id="function random() { [native code] }:Bond:5-4" class="event" x1="139" y1="65" x2="153" y2="56" stroke-width="8" stroke-opacity="0"/>\n\t<line id="function random() { [native code] }:Bond:6-5" class="event" x1="124" y1="56" x2="139" y2="65" stroke-width="8" stroke-opacity="0"/>\n\t<line id="function random() { [native code] }:Bond:8-6" class="event" x1="109" y1="65" x2="124" y2="56" stroke-width="8" stroke-opacity="0"/>\n\t<line id="function random() { [native code] }:Bond:10-9" class="event" x1="79" y1="65" x2="94" y2="56" stroke-width="8" stroke-opacity="0"/>\n\t<line id="function random() { [native code] }:Bond:11-10" class="event" x1="65" y1="56" x2="79" y2="65" stroke-width="8" stroke-opacity="0"/>\n\t<line id="function random() { [native code] }:Bond:13-12" class="event" x1="79" y1="30" x2="65" y2="39" stroke-width="8" stroke-opacity="0"/>\n\t<line id="function random() { [native code] }:Bond:14-12" class="event" x1="50" y1="30" x2="65" y2="39" stroke-width="8" stroke-opacity="0"/>\n\t<line id="function random() { [native code] }:Bond:16-15" class="event" x1="20" y1="30" x2="35" y2="39" stroke-width="8" stroke-opacity="0"/>\n\t<line id="function random() { [native code] }:Bond:17-16" class="event" x1="12" y1="45" x2="20" y2="30" stroke-width="8" stroke-opacity="0"/>\n\t<line id="function random() { [native code] }:Bond:18-16" class="event" x1="5" y1="22" x2="20" y2="30" stroke-width="8" stroke-opacity="0"/>\n\t<line id="function random() { [native code] }:Bond:19-16" class="event" x1="29" y1="16" x2="20" y2="30" stroke-width="8" stroke-opacity="0"/>\n\t<line id="function random() { [native code] }:Bond:20-15" class="event" x1="35" y1="56" x2="35" y2="39" stroke-width="8" stroke-opacity="0"/>\n\t<line id="function random() { [native code] }:Bond:21-11" class="event" x1="50" y1="65" x2="65" y2="56" stroke-width="8" stroke-opacity="0"/>\n\t<line id="function random() { [native code] }:Bond:23-22" class="event" x1="67" y1="93" x2="79" y2="82" stroke-width="8" stroke-opacity="0"/>\n\t<line id="function random() { [native code] }:Bond:24-23" class="event" x1="74" y1="109" x2="67" y2="93" stroke-width="8" stroke-opacity="0"/>\n\t<line id="function random() { [native code] }:Bond:26-25" class="event" x1="101" y1="121" x2="91" y2="107" stroke-width="8" stroke-opacity="0"/>\n\t<line id="function random() { [native code] }:Bond:28-27" class="event" x1="77" y1="138" x2="94" y2="136" stroke-width="8" stroke-opacity="0"/>\n\t<line id="function random() { [native code] }:Bond:29-24" class="event" x1="67" y1="124" x2="74" y2="109" stroke-width="8" stroke-opacity="0"/>\n\t<line id="function random() { [native code] }:Bond:30-25" class="event" x1="94" y1="90" x2="91" y2="107" stroke-width="8" stroke-opacity="0"/>\n\t<line id="function random() { [native code] }:Bond:30-22" class="event" x1="94" y1="90" x2="79" y2="82" stroke-width="8" stroke-opacity="0"/>\n\t<line id="function random() { [native code] }:Bond:31-8" class="event" x1="109" y1="82" x2="109" y2="65" stroke-width="8" stroke-opacity="0"/>\n\t<circle id="function random() { [native code] }:Atom:0" class="event" cx="198" cy="65" r="8" fill-opacity="0"/>\n\t<circle id="function random() { [native code] }:Atom:1" class="event" cx="183" cy="56" r="8" fill-opacity="0"/>\n\t<circle id="function random() { [native code] }:Atom:2" class="event" cx="183" cy="39" r="8" fill-opacity="0"/>\n\t<circle id="function random() { [native code] }:Atom:3" class="event" cx="168" cy="65" r="8" fill-opacity="0"/>\n\t<circle id="function random() { [native code] }:Atom:4" class="event" cx="153" cy="56" r="8" fill-opacity="0"/>\n\t<circle id="function random() { [native code] }:Atom:5" class="event" cx="139" cy="65" r="8" fill-opacity="0"/>\n\t<circle id="function random() { [native code] }:Atom:6" class="event" cx="124" cy="56" r="8" fill-opacity="0"/>\n\t<circle id="function random() { [native code] }:Atom:7" class="event" cx="124" cy="39" r="8" fill-opacity="0"/>\n\t<circle id="function random() { [native code] }:Atom:8" class="event" cx="109" cy="65" r="8" fill-opacity="0"/>\n\t<circle id="function random() { [native code] }:Atom:9" class="event" cx="94" cy="56" r="8" fill-opacity="0"/>\n\t<circle id="function random() { [native code] }:Atom:10" class="event" cx="79" cy="65" r="8" fill-opacity="0"/>\n\t<circle id="function random() { [native code] }:Atom:11" class="event" cx="65" cy="56" r="8" fill-opacity="0"/>\n\t<circle id="function random() { [native code] }:Atom:12" class="event" cx="65" cy="39" r="8" fill-opacity="0"/>\n\t<circle id="function random() { [native code] }:Atom:13" class="event" cx="79" cy="30" r="8" fill-opacity="0"/>\n\t<circle id="function random() { [native code] }:Atom:14" class="event" cx="50" cy="30" r="8" fill-opacity="0"/>\n\t<circle id="function random() { [native code] }:Atom:15" class="event" cx="35" cy="39" r="8" fill-opacity="0"/>\n\t<circle id="function random() { [native code] }:Atom:16" class="event" cx="20" cy="30" r="8" fill-opacity="0"/>\n\t<circle id="function random() { [native code] }:Atom:17" class="event" cx="12" cy="45" r="8" fill-opacity="0"/>\n\t<circle id="function random() { [native code] }:Atom:18" class="event" cx="5" cy="22" r="8" fill-opacity="0"/>\n\t<circle id="function random() { [native code] }:Atom:19" class="event" cx="29" cy="16" r="8" fill-opacity="0"/>\n\t<circle id="function random() { [native code] }:Atom:20" class="event" cx="35" cy="56" r="8" fill-opacity="0"/>\n\t<circle id="function random() { [native code] }:Atom:21" class="event" cx="50" cy="65" r="8" fill-opacity="0"/>\n\t<circle id="function random() { [native code] }:Atom:22" class="event" cx="79" cy="82" r="8" fill-opacity="0"/>\n\t<circle id="function random() { [native code] }:Atom:23" class="event" cx="67" cy="93" r="8" fill-opacity="0"/>\n\t<circle id="function random() { [native code] }:Atom:24" class="event" cx="74" cy="109" r="8" fill-opacity="0"/>\n\t<circle id="function random() { [native code] }:Atom:25" class="event" cx="91" cy="107" r="8" fill-opacity="0"/>\n\t<circle id="function random() { [native code] }:Atom:26" class="event" cx="101" cy="121" r="8" fill-opacity="0"/>\n\t<circle id="function random() { [native code] }:Atom:27" class="event" cx="94" cy="136" r="8" fill-opacity="0"/>\n\t<circle id="function random() { [native code] }:Atom:28" class="event" cx="77" cy="138" r="8" fill-opacity="0"/>\n\t<circle id="function random() { [native code] }:Atom:29" class="event" cx="67" cy="124" r="8" fill-opacity="0"/>\n\t<circle id="function random() { [native code] }:Atom:30" class="event" cx="94" cy="90" r="8" fill-opacity="0"/>\n\t<circle id="function random() { [native code] }:Atom:31" class="event" cx="109" cy="82" r="8" fill-opacity="0"/>\n</svg>