<svg id="function random() { [native code] }" xmlns="http://www.w3.org/2000/svg" version="1.1" width="200px" height="150px" viewBox="0 0 200 150">\n\t<style> #function random() { [native code] } {pointer-events:none; }  #function random() { [native code] } .event  { pointer-events:all;}  </style>\n\t<text x="132" y="24" font-family=" Helvetica" font-weight="900" font-size="13" fill="rgb(255,13,13)">O</text>\n\t<text x="96" y="66" font-family=" Helvetica" font-weight="900" font-size="13" fill="rgb(48,80,248)">N</text>\n\t<text x="22" y="87" font-family=" Helvetica" font-weight="900" font-size="13" fill="rgb(31,240,31)">Cl</text>\n\t<text x="22" y="129" font-family=" Helvetica" font-weight="900" font-size="13" fill="rgb(31,240,31)">Cl</text>\n\t<text x="118" y="118" font-family=" Helvetica" font-weight="900" font-size="13" fill="rgb(48,80,248)">N</text>\n\t<text x="109" y="118" font-family=" Helvetica" font-weight="900" font-size="13" fill="rgb(48,80,248)">H</text>\n\t<text x="96" y="24" font-family=" Helvetica" font-weight="900" font-size="13" fill="rgb(48,80,248)">N</text>\n\t<text x="96" y="11" font-family=" Helvetica" font-weight="900" font-size="13" fill="rgb(48,80,248)">H</text>\n\t<text x="24" y="24" font-family=" Helvetica" font-weight="900" font-size="13" fill="rgb(48,80,248)">N</text>\n\t<text x="24" y="11" font-family=" Helvetica" font-weight="900" font-size="13" fill="rgb(48,80,248)">H</text>\n\t<line x1="119" y1="33" x2="131" y2="25" style="stroke:rgb(0,0,0);stroke-width:1"/>\n\t<line x1="117" y1="30" x2="130" y2="22" style="stroke:rgb(0,0,0);stroke-width:1"/>\n\t<line x1="119" y1="52" x2="106" y2="59" style="stroke:rgb(0,0,0);stroke-width:1"/>\n\t<line x1="118" y1="55" x2="108" y2="61" style="stroke:rgb(0,0,0);stroke-width:1"/>\n\t<line x1="64" y1="83" x2="82" y2="93" style="stroke:rgb(0,0,0);stroke-width:1"/>\n\t<line x1="65" y1="87" x2="79" y2="95" style="stroke:rgb(0,0,0);stroke-width:1"/>\n\t<line x1="46" y1="114" x2="46" y2="93" style="stroke:rgb(0,0,0);stroke-width:1"/>\n\t<line x1="49" y1="112" x2="49" y2="96" style="stroke:rgb(0,0,0);stroke-width:1"/>\n\t<line x1="82" y1="114" x2="64" y2="125" style="stroke:rgb(0,0,0);stroke-width:1"/>\n\t<line x1="79" y1="113" x2="65" y2="121" style="stroke:rgb(0,0,0);stroke-width:1"/>\n\t<line x1="119" y1="93" x2="100" y2="83" style="stroke:rgb(0,0,0);stroke-width:1"/>\n\t<line x1="118" y1="89" x2="104" y2="81" style="stroke:rgb(0,0,0);stroke-width:1"/>\n\t<line x1="156" y1="133" x2="144" y2="116" style="stroke:rgb(0,0,0);stroke-width:1"/>\n\t<line x1="157" y1="129" x2="147" y2="116" style="stroke:rgb(0,0,0);stroke-width:1"/>\n\t<line x1="185" y1="112" x2="177" y2="131" style="stroke:rgb(0,0,0);stroke-width:1"/>\n\t<line x1="181" y1="112" x2="175" y2="127" style="stroke:rgb(0,0,0);stroke-width:1"/>\n\t<line x1="152" y1="97" x2="173" y2="95" style="stroke:rgb(0,0,0);stroke-width:1"/>\n\t<line x1="155" y1="100" x2="171" y2="98" style="stroke:rgb(0,0,0);stroke-width:1"/>\n\t<line x1="137" y1="62" x2="137" y2="83" style="stroke:rgb(0,0,0);stroke-width:1"/>\n\t<line x1="133" y1="64" x2="133" y2="81" style="stroke:rgb(0,0,0);stroke-width:1"/>\n\t<line x1="119" y1="52" x2="119" y2="31" style="stroke:rgb(0,0,0);stroke-width:1"/>\n\t<line x1="100" y1="83" x2="100" y2="68" style="stroke:rgb(0,0,0);stroke-width:1"/>\n\t<line x1="82" y1="93" x2="100" y2="83" style="stroke:rgb(0,0,0);stroke-width:1"/>\n\t<line x1="46" y1="93" x2="64" y2="83" style="stroke:rgb(0,0,0);stroke-width:1"/>\n\t<line x1="35" y1="87" x2="46" y2="93" style="stroke:rgb(0,0,0);stroke-width:1"/>\n\t<line x1="64" y1="125" x2="46" y2="114" style="stroke:rgb(0,0,0);stroke-width:1"/>\n\t<line x1="82" y1="114" x2="82" y2="93" style="stroke:rgb(0,0,0);stroke-width:1"/>\n\t<line x1="35" y1="120" x2="46" y2="114" style="stroke:rgb(0,0,0);stroke-width:1"/>\n\t<line x1="122" y1="108" x2="119" y2="93" style="stroke:rgb(0,0,0);stroke-width:1"/>\n\t<line x1="144" y1="116" x2="129" y2="114" style="stroke:rgb(0,0,0);stroke-width:1"/>\n\t<line x1="177" y1="131" x2="156" y2="133" style="stroke:rgb(0,0,0);stroke-width:1"/>\n\t<line x1="189" y1="147" x2="177" y2="131" style="stroke:rgb(0,0,0);stroke-width:1"/>\n\t<line x1="173" y1="95" x2="185" y2="112" style="stroke:rgb(0,0,0);stroke-width:1"/>\n\t<line x1="152" y1="97" x2="144" y2="116" style="stroke:rgb(0,0,0);stroke-width:1"/>\n\t<line x1="137" y1="83" x2="152" y2="97" style="stroke:rgb(0,0,0);stroke-width:1"/>\n\t<line x1="137" y1="83" x2="119" y2="93" style="stroke:rgb(0,0,0);stroke-width:1"/>\n\t<line x1="137" y1="62" x2="119" y2="52" style="stroke:rgb(0,0,0);stroke-width:1"/>\n\t<line x1="106" y1="24" x2="119" y2="31" style="stroke:rgb(0,0,0);stroke-width:1"/>\n\t<line x1="82" y1="31" x2="95" y2="24" style="stroke:rgb(0,0,0);stroke-width:1"/>\n\t<line x1="64" y1="20" x2="82" y2="31" style="stroke:rgb(0,0,0);stroke-width:1"/>\n\t<line x1="46" y1="31" x2="64" y2="20" style="stroke:rgb(0,0,0);stroke-width:1"/>\n\t<line x1="34" y1="24" x2="46" y2="31" style="stroke:rgb(0,0,0);stroke-width:1"/>\n\t<line x1="10" y1="31" x2="23" y2="24" style="stroke:rgb(0,0,0);stroke-width:1"/>\n\t<line id="function random() { [native code] }:Bond:1-0" class="event" x1="119" y1="31" x2="137" y2="20" stroke-width="8" stroke-opacity="0"/>\n\t<line id="function random() { [native code] }:Bond:3-2" class="event" x1="100" y1="62" x2="119" y2="52" stroke-width="8" stroke-opacity="0"/>\n\t<line id="function random() { [native code] }:Bond:6-5" class="event" x1="64" y1="83" x2="82" y2="93" stroke-width="8" stroke-opacity="0"/>\n\t<line id="function random() { [native code] }:Bond:9-7" class="event" x1="46" y1="114" x2="46" y2="93" stroke-width="8" stroke-opacity="0"/>\n\t<line id="function random() { [native code] }:Bond:11-10" class="event" x1="82" y1="114" x2="64" y2="125" stroke-width="8" stroke-opacity="0"/>\n\t<line id="function random() { [native code] }:Bond:13-4" class="event" x1="119" y1="93" x2="100" y2="83" stroke-width="8" stroke-opacity="0"/>\n\t<line id="function random() { [native code] }:Bond:16-15" class="event" x1="156" y1="133" x2="144" y2="116" stroke-width="8" stroke-opacity="0"/>\n\t<line id="function random() { [native code] }:Bond:19-17" class="event" x1="185" y1="112" x2="177" y2="131" stroke-width="8" stroke-opacity="0"/>\n\t<line id="function random() { [native code] }:Bond:21-20" class="event" x1="152" y1="97" x2="173" y2="95" stroke-width="8" stroke-opacity="0"/>\n\t<line id="function random() { [native code] }:Bond:23-22" class="event" x1="137" y1="62" x2="137" y2="83" stroke-width="8" stroke-opacity="0"/>\n\t<line id="function random() { [native code] }:Bond:2-1" class="event" x1="119" y1="52" x2="119" y2="31" stroke-width="8" stroke-opacity="0"/>\n\t<line id="function random() { [native code] }:Bond:4-3" class="event" x1="100" y1="83" x2="100" y2="62" stroke-width="8" stroke-opacity="0"/>\n\t<line id="function random() { [native code] }:Bond:5-4" class="event" x1="82" y1="93" x2="100" y2="83" stroke-width="8" stroke-opacity="0"/>\n\t<line id="function random() { [native code] }:Bond:7-6" class="event" x1="46" y1="93" x2="64" y2="83" stroke-width="8" stroke-opacity="0"/>\n\t<line id="function random() { [native code] }:Bond:8-7" class="event" x1="28" y1="83" x2="46" y2="93" stroke-width="8" stroke-opacity="0"/>\n\t<line id="function random() { [native code] }:Bond:10-9" class="event" x1="64" y1="125" x2="46" y2="114" stroke-width="8" stroke-opacity="0"/>\n\t<line id="function random() { [native code] }:Bond:11-5" class="event" x1="82" y1="114" x2="82" y2="93" stroke-width="8" stroke-opacity="0"/>\n\t<line id="function random() { [native code] }:Bond:12-9" class="event" x1="28" y1="125" x2="46" y2="114" stroke-width="8" stroke-opacity="0"/>\n\t<line id="function random() { [native code] }:Bond:14-13" class="event" x1="123" y1="114" x2="119" y2="93" stroke-width="8" stroke-opacity="0"/>\n\t<line id="function random() { [native code] }:Bond:15-14" class="event" x1="144" y1="116" x2="123" y2="114" stroke-width="8" stroke-opacity="0"/>\n\t<line id="function random() { [native code] }:Bond:17-16" class="event" x1="177" y1="131" x2="156" y2="133" stroke-width="8" stroke-opacity="0"/>\n\t<line id="function random() { [native code] }:Bond:18-17" class="event" x1="189" y1="147" x2="177" y2="131" stroke-width="8" stroke-opacity="0"/>\n\t<line id="function random() { [native code] }:Bond:20-19" class="event" x1="173" y1="95" x2="185" y2="112" stroke-width="8" stroke-opacity="0"/>\n\t<line id="function random() { [native code] }:Bond:21-15" class="event" x1="152" y1="97" x2="144" y2="116" stroke-width="8" stroke-opacity="0"/>\n\t<line id="function random() { [native code] }:Bond:22-21" class="event" x1="137" y1="83" x2="152" y2="97" stroke-width="8" stroke-opacity="0"/>\n\t<line id="function random() { [native code] }:Bond:22-13" class="event" x1="137" y1="83" x2="119" y2="93" stroke-width="8" stroke-opacity="0"/>\n\t<line id="function random() { [native code] }:Bond:23-2" class="event" x1="137" y1="62" x2="119" y2="52" stroke-width="8" stroke-opacity="0"/>\n\t<line id="function random() { [native code] }:Bond:24-1" class="event" x1="100" y1="20" x2="119" y2="31" stroke-width="8" stroke-opacity="0"/>\n\t<line id="function random() { [native code] }:Bond:25-24" class="event" x1="82" y1="31" x2="100" y2="20" stroke-width="8" stroke-opacity="0"/>\n\t<line id="function random() { [native code] }:Bond:26-25" class="event" x1="64" y1="20" x2="82" y2="31" stroke-width="8" stroke-opacity="0"/>\n\t<line id="function random() { [native code] }:Bond:27-26" class="event" x1="46" y1="31" x2="64" y2="20" stroke-width="8" stroke-opacity="0"/>\n\t<line id="function random() { [native code] }:Bond:28-27" class="event" x1="28" y1="20" x2="46" y2="31" stroke-width="8" stroke-opacity="0"/>\n\t<line id="function random() { [native code] }:Bond:29-28" class="event" x1="10" y1="31" x2="28" y2="20" stroke-width="8" stroke-opacity="0"/>\n\t<circle id="function random() { [native code] }:Atom:0" class="event" cx="137" cy="20" r="8" fill-opacity="0"/>\n\t<circle id="function random() { [native code] }:Atom:1" class="event" cx="119" cy="31" r="8" fill-opacity="0"/>\n\t<circle id="function random() { [native code] }:Atom:2" class="event" cx="119" cy="52" r="8" fill-opacity="0"/>\n\t<circle id="function random() { [native code] }:Atom:3" class="event" cx="100" cy="62" r="8" fill-opacity="0"/>\n\t<circle id="function random() { [native code] }:Atom:4" class="event" cx="100" cy="83" r="8" fill-opacity="0"/>\n\t<circle id="function random() { [native code] }:Atom:5" class="event" cx="82" cy="93" r="8" fill-opacity="0"/>\n\t<circle id="function random() { [native code] }:Atom:6" class="event" cx="64" cy="83" r="8" fill-opacity="0"/>\n\t<circle id="function random() { [native code] }:Atom:7" class="event" cx="46" cy="93" r="8" fill-opacity="0"/>\n\t<circle id="function random() { [native code] }:Atom:8" class="event" cx="28" cy="83" r="8" fill-opacity="0"/>\n\t<circle id="function random() { [native code] }:Atom:9" class="event" cx="46" cy="114" r="8" fill-opacity="0"/>\n\t<circle id="function random() { [native code] }:Atom:10" class="event" cx="64" cy="125" r="8" fill-opacity="0"/>\n\t<circle id="function random() { [native code] }:Atom:11" class="event" cx="82" cy="114" r="8" fill-opacity="0"/>\n\t<circle id="function random() { [native code] }:Atom:12" class="event" cx="28" cy="125" r="8" fill-opacity="0"/>\n\t<circle id="function random() { [native code] }:Atom:13" class="event" cx="119" cy="93" r="8" fill-opacity="0"/>\n\t<circle id="function random() { [native code] }:Atom:14" class="event" cx="123" cy="114" r="8" fill-opacity="0"/>\n\t<circle id="function random() { [native code] }:Atom:15" class="event" cx="144" cy="116" r="8" fill-opacity="0"/>\n\t<circle id="function random() { [native code] }:Atom:16" class="event" cx="156" cy="133" r="8" fill-opacity="0"/>\n\t<circle id="function random() { [native code] }:Atom:17" class="event" cx="177" cy="131" r="8" fill-opacity="0"/>\n\t<circle id="function random() { [native code] }:Atom:18" class="event" cx="189" cy="147" r="8" fill-opacity="0"/>\n\t<circle id="function random() { [native code] }:Atom:19" class="event" cx="185" cy="112" r="8" fill-opacity="0"/>\n\t<circle id="function random() { [native code] }:Atom:20" class="event" cx="173" cy="95" r="8" fill-opacity="0"/>\n\t<circle id="function random() { [native code] }:Atom:21" class="event" cx="152" cy="97" r="8" fill-opacity="0"/>\n\t<circle id="function random() { [native code] }:Atom:22" class="event" cx="137" cy="83" r="8" fill-opacity="0"/>\n\t<circle id="function random() { [native code] }:Atom:23" class="event" cx="137" cy="62" r="8" fill-opacity="0"/>\n\t<circle id="function random() { [native code] }:Atom:24" class="event" cx="100" cy="20" r="8" fill-opacity="0"/>\n\t<circle id="function random() { [native code] }:Atom:25" class="event" cx="82" cy="31" r="8" fill-opacity="0"/>\n\t<circle id="function random() { [native code] }:Atom:26" class="event" cx="64" cy="20" r="8" fill-opacity="0"/>\n\t<circle id="function random() { [native code] }:Atom:27" class="event" cx="46" cy="31" r="8" fill-opacity="0"/>\n\t<circle id="function random() { [native code] }:Atom:28" class="event" cx="28" cy="20" r="8" fill-opacity="0"/>\n\t<circle id="function random() { [native code] }:Atom:29" class="event" cx="10" cy="31" r="8" fill-opacity="0"/>\n</svg>