<svg id="function random() { [native code] }" xmlns="http://www.w3.org/2000/svg" version="1.1" width="200px" height="150px" viewBox="0 0 200 150">\n\t<style> #function random() { [native code] } {pointer-events:none; }  #function random() { [native code] } .event  { pointer-events:all;}  </style>\n\t<text x="178" y="50" font-family=" Helvetica" font-weight="900" font-size="11" fill="rgb(48,80,248)">N</text>\n\t<text x="178" y="39" font-family=" Helvetica" font-weight="900" font-size="11" fill="rgb(48,80,248)">H</text>\n\t<text x="130" y="59" font-family=" Helvetica" font-weight="900" font-size="11" fill="rgb(48,80,248)">N</text>\n\t<text x="130" y="70" font-family=" Helvetica" font-weight="900" font-size="11" fill="rgb(48,80,248)">H</text>\n\t<text x="114" y="32" font-family=" Helvetica" font-weight="900" font-size="11" fill="rgb(255,13,13)">O</text>\n\t<text x="83" y="50" font-family=" Helvetica" font-weight="900" font-size="11" fill="rgb(48,80,248)">N</text>\n\t<text x="2" y="23" font-family=" Helvetica" font-weight="900" font-size="11" fill="rgb(166,41,41)">Br</text>\n\t<text x="54" y="90" font-family=" Helvetica" font-weight="900" font-size="11" fill="rgb(48,80,248)">N</text>\n\t<text x="46" y="90" font-family=" Helvetica" font-weight="900" font-size="11" fill="rgb(48,80,248)">H</text>\n\t<line x1="120" y1="48" x2="120" y2="34" style="stroke:rgb(0,0,0);stroke-width:1"/>\n\t<line x1="117" y1="48" x2="117" y2="34" style="stroke:rgb(0,0,0);stroke-width:1"/>\n\t<line x1="103" y1="56" x2="92" y2="50" style="stroke:rgb(0,0,0);stroke-width:1"/>\n\t<line x1="100" y1="58" x2="91" y2="52" style="stroke:rgb(0,0,0);stroke-width:1"/>\n\t<line x1="55" y1="29" x2="55" y2="47" style="stroke:rgb(0,0,0);stroke-width:1"/>\n\t<line x1="53" y1="31" x2="53" y2="45" style="stroke:rgb(0,0,0);stroke-width:1"/>\n\t<line x1="24" y1="29" x2="40" y2="20" style="stroke:rgb(0,0,0);stroke-width:1"/>\n\t<line x1="27" y1="30" x2="39" y2="23" style="stroke:rgb(0,0,0);stroke-width:1"/>\n\t<line x1="40" y1="56" x2="24" y2="47" style="stroke:rgb(0,0,0);stroke-width:1"/>\n\t<line x1="39" y1="53" x2="27" y2="46" style="stroke:rgb(0,0,0);stroke-width:1"/>\n\t<line x1="71" y1="75" x2="71" y2="56" style="stroke:rgb(0,0,0);stroke-width:1"/>\n\t<line x1="74" y1="73" x2="74" y2="58" style="stroke:rgb(0,0,0);stroke-width:1"/>\n\t<line x1="58" y1="120" x2="65" y2="103" style="stroke:rgb(0,0,0);stroke-width:1"/>\n\t<line x1="61" y1="119" x2="67" y2="106" style="stroke:rgb(0,0,0);stroke-width:1"/>\n\t<line x1="87" y1="133" x2="68" y2="135" style="stroke:rgb(0,0,0);stroke-width:1"/>\n\t<line x1="84" y1="130" x2="70" y2="132" style="stroke:rgb(0,0,0);stroke-width:1"/>\n\t<line x1="83" y1="102" x2="94" y2="116" style="stroke:rgb(0,0,0);stroke-width:1"/>\n\t<line x1="82" y1="105" x2="91" y2="116" style="stroke:rgb(0,0,0);stroke-width:1"/>\n\t<line x1="103" y1="75" x2="87" y2="84" style="stroke:rgb(0,0,0);stroke-width:1"/>\n\t<line x1="100" y1="73" x2="87" y2="80" style="stroke:rgb(0,0,0);stroke-width:1"/>\n\t<line x1="187" y1="50" x2="198" y2="56" style="stroke:rgb(0,0,0);stroke-width:1"/>\n\t<line x1="166" y1="56" x2="177" y2="50" style="stroke:rgb(0,0,0);stroke-width:1"/>\n\t<line x1="150" y1="47" x2="166" y2="56" style="stroke:rgb(0,0,0);stroke-width:1"/>\n\t<line x1="139" y1="53" x2="150" y2="47" style="stroke:rgb(0,0,0);stroke-width:1"/>\n\t<line x1="119" y1="47" x2="129" y2="53" style="stroke:rgb(0,0,0);stroke-width:1"/>\n\t<line x1="103" y1="56" x2="119" y2="47" style="stroke:rgb(0,0,0);stroke-width:1"/>\n\t<line x1="71" y1="56" x2="82" y2="50" style="stroke:rgb(0,0,0);stroke-width:1"/>\n\t<line x1="55" y1="47" x2="71" y2="56" style="stroke:rgb(0,0,0);stroke-width:1"/>\n\t<line x1="40" y1="20" x2="55" y2="29" style="stroke:rgb(0,0,0);stroke-width:1"/>\n\t<line x1="14" y1="24" x2="24" y2="29" style="stroke:rgb(0,0,0);stroke-width:1"/>\n\t<line x1="24" y1="47" x2="24" y2="29" style="stroke:rgb(0,0,0);stroke-width:1"/>\n\t<line x1="40" y1="56" x2="55" y2="47" style="stroke:rgb(0,0,0);stroke-width:1"/>\n\t<line x1="63" y1="82" x2="71" y2="75" style="stroke:rgb(0,0,0);stroke-width:1"/>\n\t<line x1="65" y1="103" x2="60" y2="92" style="stroke:rgb(0,0,0);stroke-width:1"/>\n\t<line x1="68" y1="135" x2="58" y2="120" style="stroke:rgb(0,0,0);stroke-width:1"/>\n\t<line x1="94" y1="116" x2="87" y2="133" style="stroke:rgb(0,0,0);stroke-width:1"/>\n\t<line x1="83" y1="102" x2="65" y2="103" style="stroke:rgb(0,0,0);stroke-width:1"/>\n\t<line x1="87" y1="84" x2="83" y2="102" style="stroke:rgb(0,0,0);stroke-width:1"/>\n\t<line x1="87" y1="84" x2="71" y2="75" style="stroke:rgb(0,0,0);stroke-width:1"/>\n\t<line x1="103" y1="75" x2="103" y2="56" style="stroke:rgb(0,0,0);stroke-width:1"/>\n\t<line id="function random() { [native code] }:Bond:6-5" class="event" x1="119" y1="29" x2="119" y2="47" stroke-width="8" stroke-opacity="0"/>\n\t<line id="function random() { [native code] }:Bond:8-7" class="event" x1="87" y1="47" x2="103" y2="56" stroke-width="8" stroke-opacity="0"/>\n\t<line id="function random() { [native code] }:Bond:11-10" class="event" x1="55" y1="29" x2="55" y2="47" stroke-width="8" stroke-opacity="0"/>\n\t<line id="function random() { [native code] }:Bond:13-12" class="event" x1="24" y1="29" x2="40" y2="20" stroke-width="8" stroke-opacity="0"/>\n\t<line id="function random() { [native code] }:Bond:16-15" class="event" x1="40" y1="56" x2="24" y2="47" stroke-width="8" stroke-opacity="0"/>\n\t<line id="function random() { [native code] }:Bond:17-9" class="event" x1="71" y1="75" x2="71" y2="56" stroke-width="8" stroke-opacity="0"/>\n\t<line id="function random() { [native code] }:Bond:20-19" class="event" x1="58" y1="120" x2="65" y2="103" stroke-width="8" stroke-opacity="0"/>\n\t<line id="function random() { [native code] }:Bond:22-21" class="event" x1="87" y1="133" x2="68" y2="135" stroke-width="8" stroke-opacity="0"/>\n\t<line id="function random() { [native code] }:Bond:24-23" class="event" x1="83" y1="102" x2="94" y2="116" stroke-width="8" stroke-opacity="0"/>\n\t<line id="function random() { [native code] }:Bond:26-25" class="event" x1="103" y1="75" x2="87" y2="84" stroke-width="8" stroke-opacity="0"/>\n\t<line id="function random() { [native code] }:Bond:1-0" class="event" x1="182" y1="47" x2="198" y2="56" stroke-width="8" stroke-opacity="0"/>\n\t<line id="function random() { [native code] }:Bond:2-1" class="event" x1="166" y1="56" x2="182" y2="47" stroke-width="8" stroke-opacity="0"/>\n\t<line id="function random() { [native code] }:Bond:3-2" class="event" x1="150" y1="47" x2="166" y2="56" stroke-width="8" stroke-opacity="0"/>\n\t<line id="function random() { [native code] }:Bond:4-3" class="event" x1="134" y1="56" x2="150" y2="47" stroke-width="8" stroke-opacity="0"/>\n\t<line id="function random() { [native code] }:Bond:5-4" class="event" x1="119" y1="47" x2="134" y2="56" stroke-width="8" stroke-opacity="0"/>\n\t<line id="function random() { [native code] }:Bond:7-5" class="event" x1="103" y1="56" x2="119" y2="47" stroke-width="8" stroke-opacity="0"/>\n\t<line id="function random() { [native code] }:Bond:9-8" class="event" x1="71" y1="56" x2="87" y2="47" stroke-width="8" stroke-opacity="0"/>\n\t<line id="function random() { [native code] }:Bond:10-9" class="event" x1="55" y1="47" x2="71" y2="56" stroke-width="8" stroke-opacity="0"/>\n\t<line id="function random() { [native code] }:Bond:12-11" class="event" x1="40" y1="20" x2="55" y2="29" stroke-width="8" stroke-opacity="0"/>\n\t<line id="function random() { [native code] }:Bond:14-13" class="event" x1="8" y1="20" x2="24" y2="29" stroke-width="8" stroke-opacity="0"/>\n\t<line id="function random() { [native code] }:Bond:15-13" class="event" x1="24" y1="47" x2="24" y2="29" stroke-width="8" stroke-opacity="0"/>\n\t<line id="function random() { [native code] }:Bond:16-10" class="event" x1="40" y1="56" x2="55" y2="47" stroke-width="8" stroke-opacity="0"/>\n\t<line id="function random() { [native code] }:Bond:18-17" class="event" x1="58" y1="87" x2="71" y2="75" stroke-width="8" stroke-opacity="0"/>\n\t<line id="function random() { [native code] }:Bond:19-18" class="event" x1="65" y1="103" x2="58" y2="87" stroke-width="8" stroke-opacity="0"/>\n\t<line id="function random() { [native code] }:Bond:21-20" class="event" x1="68" y1="135" x2="58" y2="120" stroke-width="8" stroke-opacity="0"/>\n\t<line id="function random() { [native code] }:Bond:23-22" class="event" x1="94" y1="116" x2="87" y2="133" stroke-width="8" stroke-opacity="0"/>\n\t<line id="function random() { [native code] }:Bond:24-19" class="event" x1="83" y1="102" x2="65" y2="103" stroke-width="8" stroke-opacity="0"/>\n\t<line id="function random() { [native code] }:Bond:25-24" class="event" x1="87" y1="84" x2="83" y2="102" stroke-width="8" stroke-opacity="0"/>\n\t<line id="function random() { [native code] }:Bond:25-17" class="event" x1="87" y1="84" x2="71" y2="75" stroke-width="8" stroke-opacity="0"/>\n\t<line id="function random() { [native code] }:Bond:26-7" class="event" x1="103" y1="75" x2="103" y2="56" stroke-width="8" stroke-opacity="0"/>\n\t<circle id="function random() { [native code] }:Atom:0" class="event" cx="198" cy="56" r="8" fill-opacity="0"/>\n\t<circle id="function random() { [native code] }:Atom:1" class="event" cx="182" cy="47" r="8" fill-opacity="0"/>\n\t<circle id="function random() { [native code] }:Atom:2" class="event" cx="166" cy="56" r="8" fill-opacity="0"/>\n\t<circle id="function random() { [native code] }:Atom:3" class="event" cx="150" cy="47" r="8" fill-opacity="0"/>\n\t<circle id="function random() { [native code] }:Atom:4" class="event" cx="134" cy="56" r="8" fill-opacity="0"/>\n\t<circle id="function random() { [native code] }:Atom:5" class="event" cx="119" cy="47" r="8" fill-opacity="0"/>\n\t<circle id="function random() { [native code] }:Atom:6" class="event" cx="119" cy="29" r="8" fill-opacity="0"/>\n\t<circle id="function random() { [native code] }:Atom:7" class="event" cx="103" cy="56" r="8" fill-opacity="0"/>\n\t<circle id="function random() { [native code] }:Atom:8" class="event" cx="87" cy="47" r="8" fill-opacity="0"/>\n\t<circle id="function random() { [native code] }:Atom:9" class="event" cx="71" cy="56" r="8" fill-opacity="0"/>\n\t<circle id="function random() { [native code] }:Atom:10" class="event" cx="55" cy="47" r="8" fill-opacity="0"/>\n\t<circle id="function random() { [native code] }:Atom:11" class="event" cx="55" cy="29" r="8" fill-opacity="0"/>\n\t<circle id="function random() { [native code] }:Atom:12" class="event" cx="40" cy="20" r="8" fill-opacity="0"/>\n\t<circle id="function random() { [native code] }:Atom:13" class="event" cx="24" cy="29" r="8" fill-opacity="0"/>\n\t<circle id="function random() { [native code] }:Atom:14" class="event" cx="8" cy="20" r="8" fill-opacity="0"/>\n\t<circle id="function random() { [native code] }:Atom:15" class="event" cx="24" cy="47" r="8" fill-opacity="0"/>\n\t<circle id="function random() { [native code] }:Atom:16" class="event" cx="40" cy="56" r="8" fill-opacity="0"/>\n\t<circle id="function random() { [native code] }:Atom:17" class="event" cx="71" cy="75" r="8" fill-opacity="0"/>\n\t<circle id="function random() { [native code] }:Atom:18" class="event" cx="58" cy="87" r="8" fill-opacity="0"/>\n\t<circle id="function random() { [native code] }:Atom:19" class="event" cx="65" cy="103" r="8" fill-opacity="0"/>\n\t<circle id="function random() { [native code] }:Atom:20" class="event" cx="58" cy="120" r="8" fill-opacity="0"/>\n\t<circle id="function random() { [native code] }:Atom:21" class="event" cx="68" cy="135" r="8" fill-opacity="0"/>\n\t<circle id="function random() { [native code] }:Atom:22" class="event" cx="87" cy="133" r="8" fill-opacity="0"/>\n\t<circle id="function random() { [native code] }:Atom:23" class="event" cx="94" cy="116" r="8" fill-opacity="0"/>\n\t<circle id="function random() { [native code] }:Atom:24" class="event" cx="83" cy="102" r="8" fill-opacity="0"/>\n\t<circle id="function random() { [native code] }:Atom:25" class="event" cx="87" cy="84" r="8" fill-opacity="0"/>\n\t<circle id="function random() { [native code] }:Atom:26" class="event" cx="103" cy="75" r="8" fill-opacity="0"/>\n</svg>