<svg id="function random() { [native code] }" xmlns="http://www.w3.org/2000/svg" version="1.1" width="200px" height="150px" viewBox="0 0 200 150">\n\t<style> #function random() { [native code] } {pointer-events:none; }  #function random() { [native code] } .event  { pointer-events:all;}  </style>\n\t<text x="109" y="132" font-family=" Helvetica" font-weight="900" font-size="12" fill="rgb(255,13,13)">O</text>\n\t<text x="110" y="91" font-family=" Helvetica" font-weight="900" font-size="12" fill="rgb(48,80,248)">N</text>\n\t<text x="181" y="70" font-family=" Helvetica" font-weight="900" font-size="12" fill="rgb(31,240,31)">Cl</text>\n\t<text x="181" y="28" font-family=" Helvetica" font-weight="900" font-size="12" fill="rgb(31,240,31)">Cl</text>\n\t<text x="87" y="39" font-family=" Helvetica" font-weight="900" font-size="12" fill="rgb(48,80,248)">N</text>\n\t<text x="96" y="39" font-family=" Helvetica" font-weight="900" font-size="12" fill="rgb(48,80,248)">H</text>\n\t<text x="74" y="132" font-family=" Helvetica" font-weight="900" font-size="12" fill="rgb(48,80,248)">N</text>\n\t<text x="74" y="144" font-family=" Helvetica" font-weight="900" font-size="12" fill="rgb(48,80,248)">H</text>\n\t<text x="20" y="122" font-family=" Helvetica" font-weight="900" font-size="12" fill="rgb(48,80,248)">N</text>\n\t<text x="20" y="110" font-family=" Helvetica" font-weight="900" font-size="12" fill="rgb(48,80,248)">H</text>\n\t<line x1="95" y1="119" x2="108" y2="127" style="stroke:rgb(0,0,0);stroke-width:1"/>\n\t<line x1="96" y1="116" x2="109" y2="124" style="stroke:rgb(0,0,0);stroke-width:1"/>\n\t<line x1="96" y1="97" x2="109" y2="90" style="stroke:rgb(0,0,0);stroke-width:1"/>\n\t<line x1="96" y1="93" x2="107" y2="87" style="stroke:rgb(0,0,0);stroke-width:1"/>\n\t<line x1="150" y1="66" x2="132" y2="56" style="stroke:rgb(0,0,0);stroke-width:1"/>\n\t<line x1="150" y1="62" x2="136" y2="54" style="stroke:rgb(0,0,0);stroke-width:1"/>\n\t<line x1="168" y1="35" x2="168" y2="56" style="stroke:rgb(0,0,0);stroke-width:1"/>\n\t<line x1="165" y1="37" x2="165" y2="53" style="stroke:rgb(0,0,0);stroke-width:1"/>\n\t<line x1="132" y1="35" x2="150" y2="24" style="stroke:rgb(0,0,0);stroke-width:1"/>\n\t<line x1="136" y1="36" x2="150" y2="28" style="stroke:rgb(0,0,0);stroke-width:1"/>\n\t<line x1="96" y1="56" x2="114" y2="66" style="stroke:rgb(0,0,0);stroke-width:1"/>\n\t<line x1="96" y1="59" x2="111" y2="68" style="stroke:rgb(0,0,0);stroke-width:1"/>\n\t<line x1="59" y1="16" x2="71" y2="33" style="stroke:rgb(0,0,0);stroke-width:1"/>\n\t<line x1="58" y1="20" x2="67" y2="33" style="stroke:rgb(0,0,0);stroke-width:1"/>\n\t<line x1="30" y1="37" x2="38" y2="18" style="stroke:rgb(0,0,0);stroke-width:1"/>\n\t<line x1="33" y1="37" x2="40" y2="22" style="stroke:rgb(0,0,0);stroke-width:1"/>\n\t<line x1="63" y1="52" x2="42" y2="54" style="stroke:rgb(0,0,0);stroke-width:1"/>\n\t<line x1="60" y1="49" x2="44" y2="51" style="stroke:rgb(0,0,0);stroke-width:1"/>\n\t<line x1="78" y1="87" x2="78" y2="66" style="stroke:rgb(0,0,0);stroke-width:1"/>\n\t<line x1="81" y1="85" x2="81" y2="68" style="stroke:rgb(0,0,0);stroke-width:1"/>\n\t<line x1="96" y1="97" x2="96" y2="118" style="stroke:rgb(0,0,0);stroke-width:1"/>\n\t<line x1="114" y1="66" x2="114" y2="81" style="stroke:rgb(0,0,0);stroke-width:1"/>\n\t<line x1="132" y1="56" x2="114" y2="66" style="stroke:rgb(0,0,0);stroke-width:1"/>\n\t<line x1="168" y1="56" x2="150" y2="66" style="stroke:rgb(0,0,0);stroke-width:1"/>\n\t<line x1="180" y1="62" x2="168" y2="56" style="stroke:rgb(0,0,0);stroke-width:1"/>\n\t<line x1="150" y1="24" x2="168" y2="35" style="stroke:rgb(0,0,0);stroke-width:1"/>\n\t<line x1="132" y1="35" x2="132" y2="56" style="stroke:rgb(0,0,0);stroke-width:1"/>\n\t<line x1="180" y1="28" x2="168" y2="35" style="stroke:rgb(0,0,0);stroke-width:1"/>\n\t<line x1="93" y1="41" x2="96" y2="56" style="stroke:rgb(0,0,0);stroke-width:1"/>\n\t<line x1="71" y1="33" x2="86" y2="35" style="stroke:rgb(0,0,0);stroke-width:1"/>\n\t<line x1="38" y1="18" x2="59" y2="16" style="stroke:rgb(0,0,0);stroke-width:1"/>\n\t<line x1="26" y1="2" x2="38" y2="18" style="stroke:rgb(0,0,0);stroke-width:1"/>\n\t<line x1="42" y1="54" x2="30" y2="37" style="stroke:rgb(0,0,0);stroke-width:1"/>\n\t<line x1="63" y1="52" x2="71" y2="33" style="stroke:rgb(0,0,0);stroke-width:1"/>\n\t<line x1="78" y1="66" x2="63" y2="52" style="stroke:rgb(0,0,0);stroke-width:1"/>\n\t<line x1="78" y1="66" x2="96" y2="56" style="stroke:rgb(0,0,0);stroke-width:1"/>\n\t<line x1="78" y1="87" x2="96" y2="97" style="stroke:rgb(0,0,0);stroke-width:1"/>\n\t<line x1="83" y1="125" x2="96" y2="118" style="stroke:rgb(0,0,0);stroke-width:1"/>\n\t<line x1="60" y1="118" x2="73" y2="125" style="stroke:rgb(0,0,0);stroke-width:1"/>\n\t<line x1="42" y1="128" x2="60" y2="118" style="stroke:rgb(0,0,0);stroke-width:1"/>\n\t<line x1="29" y1="121" x2="42" y2="128" style="stroke:rgb(0,0,0);stroke-width:1"/>\n\t<line x1="6" y1="128" x2="19" y2="121" style="stroke:rgb(0,0,0);stroke-width:1"/>\n\t<line id="function random() { [native code] }:Bond:1-0" class="event" x1="96" y1="118" x2="114" y2="128" stroke-width="8" stroke-opacity="0"/>\n\t<line id="function random() { [native code] }:Bond:3-2" class="event" x1="114" y1="87" x2="96" y2="97" stroke-width="8" stroke-opacity="0"/>\n\t<line id="function random() { [native code] }:Bond:6-5" class="event" x1="150" y1="66" x2="132" y2="56" stroke-width="8" stroke-opacity="0"/>\n\t<line id="function random() { [native code] }:Bond:9-7" class="event" x1="168" y1="35" x2="168" y2="56" stroke-width="8" stroke-opacity="0"/>\n\t<line id="function random() { [native code] }:Bond:11-10" class="event" x1="132" y1="35" x2="150" y2="24" stroke-width="8" stroke-opacity="0"/>\n\t<line id="function random() { [native code] }:Bond:13-4" class="event" x1="96" y1="56" x2="114" y2="66" stroke-width="8" stroke-opacity="0"/>\n\t<line id="function random() { [native code] }:Bond:16-15" class="event" x1="59" y1="16" x2="71" y2="33" stroke-width="8" stroke-opacity="0"/>\n\t<line id="function random() { [native code] }:Bond:19-17" class="event" x1="30" y1="37" x2="38" y2="18" stroke-width="8" stroke-opacity="0"/>\n\t<line id="function random() { [native code] }:Bond:21-20" class="event" x1="63" y1="52" x2="42" y2="54" stroke-width="8" stroke-opacity="0"/>\n\t<line id="function random() { [native code] }:Bond:23-22" class="event" x1="78" y1="87" x2="78" y2="66" stroke-width="8" stroke-opacity="0"/>\n\t<line id="function random() { [native code] }:Bond:2-1" class="event" x1="96" y1="97" x2="96" y2="118" stroke-width="8" stroke-opacity="0"/>\n\t<line id="function random() { [native code] }:Bond:4-3" class="event" x1="114" y1="66" x2="114" y2="87" stroke-width="8" stroke-opacity="0"/>\n\t<line id="function random() { [native code] }:Bond:5-4" class="event" x1="132" y1="56" x2="114" y2="66" stroke-width="8" stroke-opacity="0"/>\n\t<line id="function random() { [native code] }:Bond:7-6" class="event" x1="168" y1="56" x2="150" y2="66" stroke-width="8" stroke-opacity="0"/>\n\t<line id="function random() { [native code] }:Bond:8-7" class="event" x1="186" y1="66" x2="168" y2="56" stroke-width="8" stroke-opacity="0"/>\n\t<line id="function random() { [native code] }:Bond:10-9" class="event" x1="150" y1="24" x2="168" y2="35" stroke-width="8" stroke-opacity="0"/>\n\t<line id="function random() { [native code] }:Bond:11-5" class="event" x1="132" y1="35" x2="132" y2="56" stroke-width="8" stroke-opacity="0"/>\n\t<line id="function random() { [native code] }:Bond:12-9" class="event" x1="186" y1="24" x2="168" y2="35" stroke-width="8" stroke-opacity="0"/>\n\t<line id="function random() { [native code] }:Bond:14-13" class="event" x1="92" y1="35" x2="96" y2="56" stroke-width="8" stroke-opacity="0"/>\n\t<line id="function random() { [native code] }:Bond:15-14" class="event" x1="71" y1="33" x2="92" y2="35" stroke-width="8" stroke-opacity="0"/>\n\t<line id="function random() { [native code] }:Bond:17-16" class="event" x1="38" y1="18" x2="59" y2="16" stroke-width="8" stroke-opacity="0"/>\n\t<line id="function random() { [native code] }:Bond:18-17" class="event" x1="26" y1="2" x2="38" y2="18" stroke-width="8" stroke-opacity="0"/>\n\t<line id="function random() { [native code] }:Bond:20-19" class="event" x1="42" y1="54" x2="30" y2="37" stroke-width="8" stroke-opacity="0"/>\n\t<line id="function random() { [native code] }:Bond:21-15" class="event" x1="63" y1="52" x2="71" y2="33" stroke-width="8" stroke-opacity="0"/>\n\t<line id="function random() { [native code] }:Bond:22-21" class="event" x1="78" y1="66" x2="63" y2="52" stroke-width="8" stroke-opacity="0"/>\n\t<line id="function random() { [native code] }:Bond:22-13" class="event" x1="78" y1="66" x2="96" y2="56" stroke-width="8" stroke-opacity="0"/>\n\t<line id="function random() { [native code] }:Bond:23-2" class="event" x1="78" y1="87" x2="96" y2="97" stroke-width="8" stroke-opacity="0"/>\n\t<line id="function random() { [native code] }:Bond:24-1" class="event" x1="78" y1="128" x2="96" y2="118" stroke-width="8" stroke-opacity="0"/>\n\t<line id="function random() { [native code] }:Bond:25-24" class="event" x1="60" y1="118" x2="78" y2="128" stroke-width="8" stroke-opacity="0"/>\n\t<line id="function random() { [native code] }:Bond:26-25" class="event" x1="42" y1="128" x2="60" y2="118" stroke-width="8" stroke-opacity="0"/>\n\t<line id="function random() { [native code] }:Bond:27-26" class="event" x1="24" y1="118" x2="42" y2="128" stroke-width="8" stroke-opacity="0"/>\n\t<line id="function random() { [native code] }:Bond:28-27" class="event" x1="6" y1="128" x2="24" y2="118" stroke-width="8" stroke-opacity="0"/>\n\t<circle id="function random() { [native code] }:Atom:0" class="event" cx="114" cy="128" r="8" fill-opacity="0"/>\n\t<circle id="function random() { [native code] }:Atom:1" class="event" cx="96" cy="118" r="8" fill-opacity="0"/>\n\t<circle id="function random() { [native code] }:Atom:2" class="event" cx="96" cy="97" r="8" fill-opacity="0"/>\n\t<circle id="function random() { [native code] }:Atom:3" class="event" cx="114" cy="87" r="8" fill-opacity="0"/>\n\t<circle id="function random() { [native code] }:Atom:4" class="event" cx="114" cy="66" r="8" fill-opacity="0"/>\n\t<circle id="function random() { [native code] }:Atom:5" class="event" cx="132" cy="56" r="8" fill-opacity="0"/>\n\t<circle id="function random() { [native code] }:Atom:6" class="event" cx="150" cy="66" r="8" fill-opacity="0"/>\n\t<circle id="function random() { [native code] }:Atom:7" class="event" cx="168" cy="56" r="8" fill-opacity="0"/>\n\t<circle id="function random() { [native code] }:Atom:8" class="event" cx="186" cy="66" r="8" fill-opacity="0"/>\n\t<circle id="function random() { [native code] }:Atom:9" class="event" cx="168" cy="35" r="8" fill-opacity="0"/>\n\t<circle id="function random() { [native code] }:Atom:10" class="event" cx="150" cy="24" r="8" fill-opacity="0"/>\n\t<circle id="function random() { [native code] }:Atom:11" class="event" cx="132" cy="35" r="8" fill-opacity="0"/>\n\t<circle id="function random() { [native code] }:Atom:12" class="event" cx="186" cy="24" r="8" fill-opacity="0"/>\n\t<circle id="function random() { [native code] }:Atom:13" class="event" cx="96" cy="56" r="8" fill-opacity="0"/>\n\t<circle id="function random() { [native code] }:Atom:14" class="event" cx="92" cy="35" r="8" fill-opacity="0"/>\n\t<circle id="function random() { [native code] }:Atom:15" class="event" cx="71" cy="33" r="8" fill-opacity="0"/>\n\t<circle id="function random() { [native code] }:Atom:16" class="event" cx="59" cy="16" r="8" fill-opacity="0"/>\n\t<circle id="function random() { [native code] }:Atom:17" class="event" cx="38" cy="18" r="8" fill-opacity="0"/>\n\t<circle id="function random() { [native code] }:Atom:18" class="event" cx="26" cy="2" r="8" fill-opacity="0"/>\n\t<circle id="function random() { [native code] }:Atom:19" class="event" cx="30" cy="37" r="8" fill-opacity="0"/>\n\t<circle id="function random() { [native code] }:Atom:20" class="event" cx="42" cy="54" r="8" fill-opacity="0"/>\n\t<circle id="function random() { [native code] }:Atom:21" class="event" cx="63" cy="52" r="8" fill-opacity="0"/>\n\t<circle id="function random() { [native code] }:Atom:22" class="event" cx="78" cy="66" r="8" fill-opacity="0"/>\n\t<circle id="function random() { [native code] }:Atom:23" class="event" cx="78" cy="87" r="8" fill-opacity="0"/>\n\t<circle id="function random() { [native code] }:Atom:24" class="event" cx="78" cy="128" r="8" fill-opacity="0"/>\n\t<circle id="function random() { [native code] }:Atom:25" class="event" cx="60" cy="118" r="8" fill-opacity="0"/>\n\t<circle id="function random() { [native code] }:Atom:26" class="event" cx="42" cy="128" r="8" fill-opacity="0"/>\n\t<circle id="function random() { [native code] }:Atom:27" class="event" cx="24" cy="118" r="8" fill-opacity="0"/>\n\t<circle id="function random() { [native code] }:Atom:28" class="event" cx="6" cy="128" r="8" fill-opacity="0"/>\n</svg>