<svg id="function random() { [native code] }" xmlns="http://www.w3.org/2000/svg" version="1.1" width="200px" height="150px" viewBox="0 0 200 150">\n\t<style> #function random() { [native code] } {pointer-events:none; }  #function random() { [native code] } .event  { pointer-events:all;}  </style>\n\t<text x="100" y="62" font-family=" Helvetica" font-weight="900" font-size="12" fill="rgb(48,80,248)">N</text>\n\t<text x="83" y="12" font-family=" Helvetica" font-weight="900" font-size="12" fill="rgb(255,13,13)">O</text>\n\t<text x="66" y="42" font-family=" Helvetica" font-weight="900" font-size="12" fill="rgb(48,80,248)">N</text>\n\t<text x="66" y="54" font-family=" Helvetica" font-weight="900" font-size="12" fill="rgb(48,80,248)">H</text>\n\t<text x="14" y="32" font-family=" Helvetica" font-weight="900" font-size="12" fill="rgb(48,80,248)">N</text>\n\t<text x="154" y="68" font-family=" Helvetica" font-weight="900" font-size="12" fill="rgb(48,80,248)">N</text>\n\t<text x="162" y="68" font-family=" Helvetica" font-weight="900" font-size="12" fill="rgb(48,80,248)">H</text>\n\t<line x1="139" y1="117" x2="122" y2="127" style="stroke:rgb(0,0,0);stroke-width:1"/>\n\t<line x1="136" y1="116" x2="122" y2="123" style="stroke:rgb(0,0,0);stroke-width:1"/>\n\t<line x1="122" y1="87" x2="139" y2="97" style="stroke:rgb(0,0,0);stroke-width:1"/>\n\t<line x1="122" y1="91" x2="136" y2="99" style="stroke:rgb(0,0,0);stroke-width:1"/>\n\t<line x1="122" y1="68" x2="110" y2="61" style="stroke:rgb(0,0,0);stroke-width:1"/>\n\t<line x1="122" y1="64" x2="112" y2="58" style="stroke:rgb(0,0,0);stroke-width:1"/>\n\t<line x1="89" y1="29" x2="89" y2="14" style="stroke:rgb(0,0,0);stroke-width:1"/>\n\t<line x1="86" y1="29" x2="86" y2="14" style="stroke:rgb(0,0,0);stroke-width:1"/>\n\t<line x1="122" y1="28" x2="105" y2="38" style="stroke:rgb(0,0,0);stroke-width:1"/>\n\t<line x1="122" y1="31" x2="108" y2="39" style="stroke:rgb(0,0,0);stroke-width:1"/>\n\t<line x1="139" y1="58" x2="139" y2="38" style="stroke:rgb(0,0,0);stroke-width:1"/>\n\t<line x1="142" y1="55" x2="142" y2="40" style="stroke:rgb(0,0,0);stroke-width:1"/>\n\t<line x1="189" y1="46" x2="170" y2="48" style="stroke:rgb(0,0,0);stroke-width:1"/>\n\t<line x1="187" y1="43" x2="171" y2="44" style="stroke:rgb(0,0,0);stroke-width:1"/>\n\t<line x1="186" y1="11" x2="198" y2="27" style="stroke:rgb(0,0,0);stroke-width:1"/>\n\t<line x1="185" y1="15" x2="194" y2="27" style="stroke:rgb(0,0,0);stroke-width:1"/>\n\t<line x1="158" y1="32" x2="166" y2="13" style="stroke:rgb(0,0,0);stroke-width:1"/>\n\t<line x1="162" y1="31" x2="168" y2="17" style="stroke:rgb(0,0,0);stroke-width:1"/>\n\t<line x1="105" y1="117" x2="105" y2="97" style="stroke:rgb(0,0,0);stroke-width:1"/>\n\t<line x1="108" y1="115" x2="108" y2="99" style="stroke:rgb(0,0,0);stroke-width:1"/>\n\t<line x1="122" y1="127" x2="122" y2="147" style="stroke:rgb(0,0,0);stroke-width:1"/>\n\t<line x1="139" y1="97" x2="139" y2="117" style="stroke:rgb(0,0,0);stroke-width:1"/>\n\t<line x1="122" y1="68" x2="122" y2="87" style="stroke:rgb(0,0,0);stroke-width:1"/>\n\t<line x1="105" y1="38" x2="105" y2="52" style="stroke:rgb(0,0,0);stroke-width:1"/>\n\t<line x1="88" y1="28" x2="105" y2="38" style="stroke:rgb(0,0,0);stroke-width:1"/>\n\t<line x1="76" y1="35" x2="88" y2="28" style="stroke:rgb(0,0,0);stroke-width:1"/>\n\t<line x1="53" y1="28" x2="65" y2="35" style="stroke:rgb(0,0,0);stroke-width:1"/>\n\t<line x1="36" y1="38" x2="53" y2="28" style="stroke:rgb(0,0,0);stroke-width:1"/>\n\t<line x1="24" y1="31" x2="36" y2="38" style="stroke:rgb(0,0,0);stroke-width:1"/>\n\t<line x1="19" y1="8" x2="19" y2="22" style="stroke:rgb(0,0,0);stroke-width:1"/>\n\t<line x1="1" y1="38" x2="13" y2="31" style="stroke:rgb(0,0,0);stroke-width:1"/>\n\t<line x1="139" y1="38" x2="122" y2="28" style="stroke:rgb(0,0,0);stroke-width:1"/>\n\t<line x1="139" y1="58" x2="122" y2="68" style="stroke:rgb(0,0,0);stroke-width:1"/>\n\t<line x1="153" y1="62" x2="139" y2="58" style="stroke:rgb(0,0,0);stroke-width:1"/>\n\t<line x1="170" y1="48" x2="162" y2="58" style="stroke:rgb(0,0,0);stroke-width:1"/>\n\t<line x1="198" y1="27" x2="189" y2="46" style="stroke:rgb(0,0,0);stroke-width:1"/>\n\t<line x1="166" y1="13" x2="186" y2="11" style="stroke:rgb(0,0,0);stroke-width:1"/>\n\t<line x1="158" y1="32" x2="170" y2="48" style="stroke:rgb(0,0,0);stroke-width:1"/>\n\t<line x1="158" y1="32" x2="139" y2="38" style="stroke:rgb(0,0,0);stroke-width:1"/>\n\t<line x1="105" y1="97" x2="122" y2="87" style="stroke:rgb(0,0,0);stroke-width:1"/>\n\t<line x1="105" y1="117" x2="122" y2="127" style="stroke:rgb(0,0,0);stroke-width:1"/>\n\t<line id="function random() { [native code] }:Bond:2-1" class="event" x1="139" y1="117" x2="122" y2="127" stroke-width="8" stroke-opacity="0"/>\n\t<line id="function random() { [native code] }:Bond:4-3" class="event" x1="122" y1="87" x2="139" y2="97" stroke-width="8" stroke-opacity="0"/>\n\t<line id="function random() { [native code] }:Bond:6-5" class="event" x1="105" y1="58" x2="122" y2="68" stroke-width="8" stroke-opacity="0"/>\n\t<line id="function random() { [native code] }:Bond:9-8" class="event" x1="88" y1="8" x2="88" y2="28" stroke-width="8" stroke-opacity="0"/>\n\t<line id="function random() { [native code] }:Bond:16-7" class="event" x1="122" y1="28" x2="105" y2="38" stroke-width="8" stroke-opacity="0"/>\n\t<line id="function random() { [native code] }:Bond:18-17" class="event" x1="139" y1="58" x2="139" y2="38" stroke-width="8" stroke-opacity="0"/>\n\t<line id="function random() { [native code] }:Bond:21-20" class="event" x1="189" y1="46" x2="170" y2="48" stroke-width="8" stroke-opacity="0"/>\n\t<line id="function random() { [native code] }:Bond:23-22" class="event" x1="186" y1="11" x2="198" y2="27" stroke-width="8" stroke-opacity="0"/>\n\t<line id="function random() { [native code] }:Bond:25-24" class="event" x1="158" y1="32" x2="166" y2="13" stroke-width="8" stroke-opacity="0"/>\n\t<line id="function random() { [native code] }:Bond:27-26" class="event" x1="105" y1="117" x2="105" y2="97" stroke-width="8" stroke-opacity="0"/>\n\t<line id="function random() { [native code] }:Bond:1-0" class="event" x1="122" y1="127" x2="122" y2="147" stroke-width="8" stroke-opacity="0"/>\n\t<line id="function random() { [native code] }:Bond:3-2" class="event" x1="139" y1="97" x2="139" y2="117" stroke-width="8" stroke-opacity="0"/>\n\t<line id="function random() { [native code] }:Bond:5-4" class="event" x1="122" y1="68" x2="122" y2="87" stroke-width="8" stroke-opacity="0"/>\n\t<line id="function random() { [native code] }:Bond:7-6" class="event" x1="105" y1="38" x2="105" y2="58" stroke-width="8" stroke-opacity="0"/>\n\t<line id="function random() { [native code] }:Bond:8-7" class="event" x1="88" y1="28" x2="105" y2="38" stroke-width="8" stroke-opacity="0"/>\n\t<line id="function random() { [native code] }:Bond:10-8" class="event" x1="70" y1="38" x2="88" y2="28" stroke-width="8" stroke-opacity="0"/>\n\t<line id="function random() { [native code] }:Bond:11-10" class="event" x1="53" y1="28" x2="70" y2="38" stroke-width="8" stroke-opacity="0"/>\n\t<line id="function random() { [native code] }:Bond:12-11" class="event" x1="36" y1="38" x2="53" y2="28" stroke-width="8" stroke-opacity="0"/>\n\t<line id="function random() { [native code] }:Bond:13-12" class="event" x1="19" y1="28" x2="36" y2="38" stroke-width="8" stroke-opacity="0"/>\n\t<line id="function random() { [native code] }:Bond:14-13" class="event" x1="19" y1="8" x2="19" y2="28" stroke-width="8" stroke-opacity="0"/>\n\t<line id="function random() { [native code] }:Bond:15-13" class="event" x1="1" y1="38" x2="19" y2="28" stroke-width="8" stroke-opacity="0"/>\n\t<line id="function random() { [native code] }:Bond:17-16" class="event" x1="139" y1="38" x2="122" y2="28" stroke-width="8" stroke-opacity="0"/>\n\t<line id="function random() { [native code] }:Bond:18-5" class="event" x1="139" y1="58" x2="122" y2="68" stroke-width="8" stroke-opacity="0"/>\n\t<line id="function random() { [native code] }:Bond:19-18" class="event" x1="158" y1="64" x2="139" y2="58" stroke-width="8" stroke-opacity="0"/>\n\t<line id="function random() { [native code] }:Bond:20-19" class="event" x1="170" y1="48" x2="158" y2="64" stroke-width="8" stroke-opacity="0"/>\n\t<line id="function random() { [native code] }:Bond:22-21" class="event" x1="198" y1="27" x2="189" y2="46" stroke-width="8" stroke-opacity="0"/>\n\t<line id="function random() { [native code] }:Bond:24-23" class="event" x1="166" y1="13" x2="186" y2="11" stroke-width="8" stroke-opacity="0"/>\n\t<line id="function random() { [native code] }:Bond:25-20" class="event" x1="158" y1="32" x2="170" y2="48" stroke-width="8" stroke-opacity="0"/>\n\t<line id="function random() { [native code] }:Bond:25-17" class="event" x1="158" y1="32" x2="139" y2="38" stroke-width="8" stroke-opacity="0"/>\n\t<line id="function random() { [native code] }:Bond:26-4" class="event" x1="105" y1="97" x2="122" y2="87" stroke-width="8" stroke-opacity="0"/>\n\t<line id="function random() { [native code] }:Bond:27-1" class="event" x1="105" y1="117" x2="122" y2="127" stroke-width="8" stroke-opacity="0"/>\n\t<circle id="function random() { [native code] }:Atom:0" class="event" cx="122" cy="147" r="8" fill-opacity="0"/>\n\t<circle id="function random() { [native code] }:Atom:1" class="event" cx="122" cy="127" r="8" fill-opacity="0"/>\n\t<circle id="function random() { [native code] }:Atom:2" class="event" cx="139" cy="117" r="8" fill-opacity="0"/>\n\t<circle id="function random() { [native code] }:Atom:3" class="event" cx="139" cy="97" r="8" fill-opacity="0"/>\n\t<circle id="function random() { [native code] }:Atom:4" class="event" cx="122" cy="87" r="8" fill-opacity="0"/>\n\t<circle id="function random() { [native code] }:Atom:5" class="event" cx="122" cy="68" r="8" fill-opacity="0"/>\n\t<circle id="function random() { [native code] }:Atom:6" class="event" cx="105" cy="58" r="8" fill-opacity="0"/>\n\t<circle id="function random() { [native code] }:Atom:7" class="event" cx="105" cy="38" r="8" fill-opacity="0"/>\n\t<circle id="function random() { [native code] }:Atom:8" class="event" cx="88" cy="28" r="8" fill-opacity="0"/>\n\t<circle id="function random() { [native code] }:Atom:9" class="event" cx="88" cy="8" r="8" fill-opacity="0"/>\n\t<circle id="function random() { [native code] }:Atom:10" class="event" cx="70" cy="38" r="8" fill-opacity="0"/>\n\t<circle id="function random() { [native code] }:Atom:11" class="event" cx="53" cy="28" r="8" fill-opacity="0"/>\n\t<circle id="function random() { [native code] }:Atom:12" class="event" cx="36" cy="38" r="8" fill-opacity="0"/>\n\t<circle id="function random() { [native code] }:Atom:13" class="event" cx="19" cy="28" r="8" fill-opacity="0"/>\n\t<circle id="function random() { [native code] }:Atom:14" class="event" cx="19" cy="8" r="8" fill-opacity="0"/>\n\t<circle id="function random() { [native code] }:Atom:15" class="event" cx="1" cy="38" r="8" fill-opacity="0"/>\n\t<circle id="function random() { [native code] }:Atom:16" class="event" cx="122" cy="28" r="8" fill-opacity="0"/>\n\t<circle id="function random() { [native code] }:Atom:17" class="event" cx="139" cy="38" r="8" fill-opacity="0"/>\n\t<circle id="function random() { [native code] }:Atom:18" class="event" cx="139" cy="58" r="8" fill-opacity="0"/>\n\t<circle id="function random() { [native code] }:Atom:19" class="event" cx="158" cy="64" r="8" fill-opacity="0"/>\n\t<circle id="function random() { [native code] }:Atom:20" class="event" cx="170" cy="48" r="8" fill-opacity="0"/>\n\t<circle id="function random() { [native code] }:Atom:21" class="event" cx="189" cy="46" r="8" fill-opacity="0"/>\n\t<circle id="function random() { [native code] }:Atom:22" class="event" cx="198" cy="27" r="8" fill-opacity="0"/>\n\t<circle id="function random() { [native code] }:Atom:23" class="event" cx="186" cy="11" r="8" fill-opacity="0"/>\n\t<circle id="function random() { [native code] }:Atom:24" class="event" cx="166" cy="13" r="8" fill-opacity="0"/>\n\t<circle id="function random() { [native code] }:Atom:25" class="event" cx="158" cy="32" r="8" fill-opacity="0"/>\n\t<circle id="function random() { [native code] }:Atom:26" class="event" cx="105" cy="97" r="8" fill-opacity="0"/>\n\t<circle id="function random() { [native code] }:Atom:27" class="event" cx="105" cy="117" r="8" fill-opacity="0"/>\n</svg>