<svg id="function random() { [native code] }" xmlns="http://www.w3.org/2000/svg" version="1.1" width="200px" height="150px" viewBox="0 0 200 150">\n\t<style> #function random() { [native code] } {pointer-events:none; }  #function random() { [native code] } .event  { pointer-events:all;}  </style>\n\t<text x="149" y="124" font-family=" Helvetica" font-weight="900" font-size="12" fill="rgb(48,80,248)">N</text>\n\t<text x="149" y="112" font-family=" Helvetica" font-weight="900" font-size="12" fill="rgb(48,80,248)">H</text>\n\t<text x="98" y="134" font-family=" Helvetica" font-weight="900" font-size="12" fill="rgb(48,80,248)">N</text>\n\t<text x="98" y="146" font-family=" Helvetica" font-weight="900" font-size="12" fill="rgb(48,80,248)">H</text>\n\t<text x="132" y="15" font-family=" Helvetica" font-weight="900" font-size="12" fill="rgb(255,13,13)">O</text>\n\t<text x="166" y="35" font-family=" Helvetica" font-weight="900" font-size="12" fill="rgb(255,13,13)">O</text>\n\t<text x="98" y="94" font-family=" Helvetica" font-weight="900" font-size="12" fill="rgb(48,80,248)">N</text>\n\t<text x="77" y="45" font-family=" Helvetica" font-weight="900" font-size="12" fill="rgb(48,80,248)">N</text>\n\t<text x="86" y="45" font-family=" Helvetica" font-weight="900" font-size="12" fill="rgb(48,80,248)">H</text>\n\t<text x="64" y="134" font-family=" Helvetica" font-weight="900" font-size="12" fill="rgb(255,13,13)">O</text>\n\t<line x1="68" y1="90" x2="86" y2="100" style="stroke:rgb(0,0,0);stroke-width:1"/>\n\t<line x1="72" y1="89" x2="85" y2="96" style="stroke:rgb(0,0,0);stroke-width:1"/>\n\t<line x1="86" y1="61" x2="68" y2="70" style="stroke:rgb(0,0,0);stroke-width:1"/>\n\t<line x1="82" y1="59" x2="69" y2="67" style="stroke:rgb(0,0,0);stroke-width:1"/>\n\t<line x1="137" y1="70" x2="120" y2="61" style="stroke:rgb(0,0,0);stroke-width:1"/>\n\t<line x1="136" y1="67" x2="123" y2="59" style="stroke:rgb(0,0,0);stroke-width:1"/>\n\t<line x1="154" y1="41" x2="154" y2="61" style="stroke:rgb(0,0,0);stroke-width:1"/>\n\t<line x1="151" y1="43" x2="151" y2="59" style="stroke:rgb(0,0,0);stroke-width:1"/>\n\t<line x1="120" y1="41" x2="137" y2="31" style="stroke:rgb(0,0,0);stroke-width:1"/>\n\t<line x1="123" y1="42" x2="136" y2="35" style="stroke:rgb(0,0,0);stroke-width:1"/>\n\t<line x1="103" y1="70" x2="103" y2="84" style="stroke:rgb(0,0,0);stroke-width:1"/>\n\t<line x1="100" y1="73" x2="100" y2="84" style="stroke:rgb(0,0,0);stroke-width:1"/>\n\t<line x1="50" y1="23" x2="62" y2="39" style="stroke:rgb(0,0,0);stroke-width:1"/>\n\t<line x1="49" y1="27" x2="58" y2="39" style="stroke:rgb(0,0,0);stroke-width:1"/>\n\t<line x1="23" y1="43" x2="31" y2="25" style="stroke:rgb(0,0,0);stroke-width:1"/>\n\t<line x1="26" y1="43" x2="32" y2="29" style="stroke:rgb(0,0,0);stroke-width:1"/>\n\t<line x1="54" y1="57" x2="34" y2="59" style="stroke:rgb(0,0,0);stroke-width:1"/>\n\t<line x1="51" y1="55" x2="36" y2="56" style="stroke:rgb(0,0,0);stroke-width:1"/>\n\t<line x1="86" y1="118" x2="73" y2="125" style="stroke:rgb(0,0,0);stroke-width:1"/>\n\t<line x1="87" y1="121" x2="75" y2="128" style="stroke:rgb(0,0,0);stroke-width:1"/>\n\t<line x1="159" y1="123" x2="171" y2="130" style="stroke:rgb(0,0,0);stroke-width:1"/>\n\t<line x1="137" y1="130" x2="148" y2="123" style="stroke:rgb(0,0,0);stroke-width:1"/>\n\t<line x1="120" y1="120" x2="137" y2="130" style="stroke:rgb(0,0,0);stroke-width:1"/>\n\t<line x1="108" y1="127" x2="120" y2="120" style="stroke:rgb(0,0,0);stroke-width:1"/>\n\t<line x1="86" y1="120" x2="97" y2="127" style="stroke:rgb(0,0,0);stroke-width:1"/>\n\t<line x1="86" y1="100" x2="86" y2="120" style="stroke:rgb(0,0,0);stroke-width:1"/>\n\t<line x1="68" y1="70" x2="68" y2="90" style="stroke:rgb(0,0,0);stroke-width:1"/>\n\t<line x1="103" y1="70" x2="86" y2="61" style="stroke:rgb(0,0,0);stroke-width:1"/>\n\t<line x1="120" y1="61" x2="103" y2="70" style="stroke:rgb(0,0,0);stroke-width:1"/>\n\t<line x1="154" y1="61" x2="137" y2="70" style="stroke:rgb(0,0,0);stroke-width:1"/>\n\t<line x1="137" y1="31" x2="154" y2="41" style="stroke:rgb(0,0,0);stroke-width:1"/>\n\t<line x1="137" y1="17" x2="137" y2="31" style="stroke:rgb(0,0,0);stroke-width:1"/>\n\t<line x1="120" y1="1" x2="131" y2="8" style="stroke:rgb(0,0,0);stroke-width:1"/>\n\t<line x1="120" y1="41" x2="120" y2="61" style="stroke:rgb(0,0,0);stroke-width:1"/>\n\t<line x1="165" y1="34" x2="154" y2="41" style="stroke:rgb(0,0,0);stroke-width:1"/>\n\t<line x1="171" y1="11" x2="171" y2="25" style="stroke:rgb(0,0,0);stroke-width:1"/>\n\t<line x1="97" y1="93" x2="86" y2="100" style="stroke:rgb(0,0,0);stroke-width:1"/>\n\t<line x1="83" y1="47" x2="86" y2="61" style="stroke:rgb(0,0,0);stroke-width:1"/>\n\t<line x1="62" y1="39" x2="76" y2="41" style="stroke:rgb(0,0,0);stroke-width:1"/>\n\t<line x1="31" y1="25" x2="50" y2="23" style="stroke:rgb(0,0,0);stroke-width:1"/>\n\t<line x1="34" y1="59" x2="23" y2="43" style="stroke:rgb(0,0,0);stroke-width:1"/>\n\t<line x1="54" y1="57" x2="62" y2="39" style="stroke:rgb(0,0,0);stroke-width:1"/>\n\t<line x1="54" y1="57" x2="68" y2="70" style="stroke:rgb(0,0,0);stroke-width:1"/>\n\t<line id="function random() { [native code] }:Bond:7-6" class="event" x1="68" y1="90" x2="86" y2="100" stroke-width="8" stroke-opacity="0"/>\n\t<line id="function random() { [native code] }:Bond:9-8" class="event" x1="86" y1="61" x2="68" y2="70" stroke-width="8" stroke-opacity="0"/>\n\t<line id="function random() { [native code] }:Bond:12-11" class="event" x1="137" y1="70" x2="120" y2="61" stroke-width="8" stroke-opacity="0"/>\n\t<line id="function random() { [native code] }:Bond:14-13" class="event" x1="154" y1="41" x2="154" y2="61" stroke-width="8" stroke-opacity="0"/>\n\t<line id="function random() { [native code] }:Bond:18-15" class="event" x1="120" y1="41" x2="137" y2="31" stroke-width="8" stroke-opacity="0"/>\n\t<line id="function random() { [native code] }:Bond:21-10" class="event" x1="103" y1="90" x2="103" y2="70" stroke-width="8" stroke-opacity="0"/>\n\t<line id="function random() { [native code] }:Bond:24-23" class="event" x1="50" y1="23" x2="62" y2="39" stroke-width="8" stroke-opacity="0"/>\n\t<line id="function random() { [native code] }:Bond:26-25" class="event" x1="23" y1="43" x2="31" y2="25" stroke-width="8" stroke-opacity="0"/>\n\t<line id="function random() { [native code] }:Bond:28-27" class="event" x1="54" y1="57" x2="34" y2="59" stroke-width="8" stroke-opacity="0"/>\n\t<line id="function random() { [native code] }:Bond:29-5" class="event" x1="68" y1="130" x2="86" y2="120" stroke-width="8" stroke-opacity="0"/>\n\t<line id="function random() { [native code] }:Bond:1-0" class="event" x1="154" y1="120" x2="171" y2="130" stroke-width="8" stroke-opacity="0"/>\n\t<line id="function random() { [native code] }:Bond:2-1" class="event" x1="137" y1="130" x2="154" y2="120" stroke-width="8" stroke-opacity="0"/>\n\t<line id="function random() { [native code] }:Bond:3-2" class="event" x1="120" y1="120" x2="137" y2="130" stroke-width="8" stroke-opacity="0"/>\n\t<line id="function random() { [native code] }:Bond:4-3" class="event" x1="103" y1="130" x2="120" y2="120" stroke-width="8" stroke-opacity="0"/>\n\t<line id="function random() { [native code] }:Bond:5-4" class="event" x1="86" y1="120" x2="103" y2="130" stroke-width="8" stroke-opacity="0"/>\n\t<line id="function random() { [native code] }:Bond:6-5" class="event" x1="86" y1="100" x2="86" y2="120" stroke-width="8" stroke-opacity="0"/>\n\t<line id="function random() { [native code] }:Bond:8-7" class="event" x1="68" y1="70" x2="68" y2="90" stroke-width="8" stroke-opacity="0"/>\n\t<line id="function random() { [native code] }:Bond:10-9" class="event" x1="103" y1="70" x2="86" y2="61" stroke-width="8" stroke-opacity="0"/>\n\t<line id="function random() { [native code] }:Bond:11-10" class="event" x1="120" y1="61" x2="103" y2="70" stroke-width="8" stroke-opacity="0"/>\n\t<line id="function random() { [native code] }:Bond:13-12" class="event" x1="154" y1="61" x2="137" y2="70" stroke-width="8" stroke-opacity="0"/>\n\t<line id="function random() { [native code] }:Bond:15-14" class="event" x1="137" y1="31" x2="154" y2="41" stroke-width="8" stroke-opacity="0"/>\n\t<line id="function random() { [native code] }:Bond:16-15" class="event" x1="137" y1="11" x2="137" y2="31" stroke-width="8" stroke-opacity="0"/>\n\t<line id="function random() { [native code] }:Bond:17-16" class="event" x1="120" y1="1" x2="137" y2="11" stroke-width="8" stroke-opacity="0"/>\n\t<line id="function random() { [native code] }:Bond:18-11" class="event" x1="120" y1="41" x2="120" y2="61" stroke-width="8" stroke-opacity="0"/>\n\t<line id="function random() { [native code] }:Bond:19-14" class="event" x1="171" y1="31" x2="154" y2="41" stroke-width="8" stroke-opacity="0"/>\n\t<line id="function random() { [native code] }:Bond:20-19" class="event" x1="171" y1="11" x2="171" y2="31" stroke-width="8" stroke-opacity="0"/>\n\t<line id="function random() { [native code] }:Bond:21-6" class="event" x1="103" y1="90" x2="86" y2="100" stroke-width="8" stroke-opacity="0"/>\n\t<line id="function random() { [native code] }:Bond:22-9" class="event" x1="81" y1="41" x2="86" y2="61" stroke-width="8" stroke-opacity="0"/>\n\t<line id="function random() { [native code] }:Bond:23-22" class="event" x1="62" y1="39" x2="81" y2="41" stroke-width="8" stroke-opacity="0"/>\n\t<line id="function random() { [native code] }:Bond:25-24" class="event" x1="31" y1="25" x2="50" y2="23" stroke-width="8" stroke-opacity="0"/>\n\t<line id="function random() { [native code] }:Bond:27-26" class="event" x1="34" y1="59" x2="23" y2="43" stroke-width="8" stroke-opacity="0"/>\n\t<line id="function random() { [native code] }:Bond:28-23" class="event" x1="54" y1="57" x2="62" y2="39" stroke-width="8" stroke-opacity="0"/>\n\t<line id="function random() { [native code] }:Bond:28-8" class="event" x1="54" y1="57" x2="68" y2="70" stroke-width="8" stroke-opacity="0"/>\n\t<circle id="function random() { [native code] }:Atom:0" class="event" cx="171" cy="130" r="8" fill-opacity="0"/>\n\t<circle id="function random() { [native code] }:Atom:1" class="event" cx="154" cy="120" r="8" fill-opacity="0"/>\n\t<circle id="function random() { [native code] }:Atom:2" class="event" cx="137" cy="130" r="8" fill-opacity="0"/>\n\t<circle id="function random() { [native code] }:Atom:3" class="event" cx="120" cy="120" r="8" fill-opacity="0"/>\n\t<circle id="function random() { [native code] }:Atom:4" class="event" cx="103" cy="130" r="8" fill-opacity="0"/>\n\t<circle id="function random() { [native code] }:Atom:5" class="event" cx="86" cy="120" r="8" fill-opacity="0"/>\n\t<circle id="function random() { [native code] }:Atom:6" class="event" cx="86" cy="100" r="8" fill-opacity="0"/>\n\t<circle id="function random() { [native code] }:Atom:7" class="event" cx="68" cy="90" r="8" fill-opacity="0"/>\n\t<circle id="function random() { [native code] }:Atom:8" class="event" cx="68" cy="70" r="8" fill-opacity="0"/>\n\t<circle id="function random() { [native code] }:Atom:9" class="event" cx="86" cy="61" r="8" fill-opacity="0"/>\n\t<circle id="function random() { [native code] }:Atom:10" class="event" cx="103" cy="70" r="8" fill-opacity="0"/>\n\t<circle id="function random() { [native code] }:Atom:11" class="event" cx="120" cy="61" r="8" fill-opacity="0"/>\n\t<circle id="function random() { [native code] }:Atom:12" class="event" cx="137" cy="70" r="8" fill-opacity="0"/>\n\t<circle id="function random() { [native code] }:Atom:13" class="event" cx="154" cy="61" r="8" fill-opacity="0"/>\n\t<circle id="function random() { [native code] }:Atom:14" class="event" cx="154" cy="41" r="8" fill-opacity="0"/>\n\t<circle id="function random() { [native code] }:Atom:15" class="event" cx="137" cy="31" r="8" fill-opacity="0"/>\n\t<circle id="function random() { [native code] }:Atom:16" class="event" cx="137" cy="11" r="8" fill-opacity="0"/>\n\t<circle id="function random() { [native code] }:Atom:17" class="event" cx="120" cy="1" r="8" fill-opacity="0"/>\n\t<circle id="function random() { [native code] }:Atom:18" class="event" cx="120" cy="41" r="8" fill-opacity="0"/>\n\t<circle id="function random() { [native code] }:Atom:19" class="event" cx="171" cy="31" r="8" fill-opacity="0"/>\n\t<circle id="function random() { [native code] }:Atom:20" class="event" cx="171" cy="11" r="8" fill-opacity="0"/>\n\t<circle id="function random() { [native code] }:Atom:21" class="event" cx="103" cy="90" r="8" fill-opacity="0"/>\n\t<circle id="function random() { [native code] }:Atom:22" class="event" cx="81" cy="41" r="8" fill-opacity="0"/>\n\t<circle id="function random() { [native code] }:Atom:23" class="event" cx="62" cy="39" r="8" fill-opacity="0"/>\n\t<circle id="function random() { [native code] }:Atom:24" class="event" cx="50" cy="23" r="8" fill-opacity="0"/>\n\t<circle id="function random() { [native code] }:Atom:25" class="event" cx="31" cy="25" r="8" fill-opacity="0"/>\n\t<circle id="function random() { [native code] }:Atom:26" class="event" cx="23" cy="43" r="8" fill-opacity="0"/>\n\t<circle id="function random() { [native code] }:Atom:27" class="event" cx="34" cy="59" r="8" fill-opacity="0"/>\n\t<circle id="function random() { [native code] }:Atom:28" class="event" cx="54" cy="57" r="8" fill-opacity="0"/>\n\t<circle id="function random() { [native code] }:Atom:29" class="event" cx="68" cy="130" r="8" fill-opacity="0"/>\n</svg>