<svg id="function random() { [native code] }" xmlns="http://www.w3.org/2000/svg" version="1.1" width="200px" height="150px" viewBox="0 0 200 150">\n\t<style> #function random() { [native code] } {pointer-events:none; }  #function random() { [native code] } .event  { pointer-events:all;}  </style>\n\t<text x="151" y="37" font-family=" Helvetica" font-weight="900" font-size="11" fill="rgb(255,13,13)">O</text>\n\t<text x="120" y="73" font-family=" Helvetica" font-weight="900" font-size="11" fill="rgb(48,80,248)">N</text>\n\t<text x="56" y="91" font-family=" Helvetica" font-weight="900" font-size="11" fill="rgb(31,240,31)">Cl</text>\n\t<text x="56" y="127" font-family=" Helvetica" font-weight="900" font-size="11" fill="rgb(31,240,31)">Cl</text>\n\t<text x="140" y="118" font-family=" Helvetica" font-weight="900" font-size="11" fill="rgb(48,80,248)">N</text>\n\t<text x="132" y="118" font-family=" Helvetica" font-weight="900" font-size="11" fill="rgb(48,80,248)">H</text>\n\t<text x="120" y="37" font-family=" Helvetica" font-weight="900" font-size="11" fill="rgb(48,80,248)">N</text>\n\t<text x="120" y="26" font-family=" Helvetica" font-weight="900" font-size="11" fill="rgb(48,80,248)">H</text>\n\t<text x="58" y="37" font-family=" Helvetica" font-weight="900" font-size="11" fill="rgb(48,80,248)">N</text>\n\t<text x="58" y="26" font-family=" Helvetica" font-weight="900" font-size="11" fill="rgb(48,80,248)">H</text>\n\t<text x="10" y="46" font-family=" Helvetica" font-weight="900" font-size="11" fill="rgb(255,13,13)">O</text>\n\t<text x="2" y="46" font-family=" Helvetica" font-weight="900" font-size="11" fill="rgb(255,13,13)">H</text>\n\t<line x1="140" y1="45" x2="151" y2="38" style="stroke:rgb(0,0,0);stroke-width:1"/>\n\t<line x1="139" y1="42" x2="150" y2="36" style="stroke:rgb(0,0,0);stroke-width:1"/>\n\t<line x1="140" y1="61" x2="129" y2="67" style="stroke:rgb(0,0,0);stroke-width:1"/>\n\t<line x1="140" y1="64" x2="131" y2="70" style="stroke:rgb(0,0,0);stroke-width:1"/>\n\t<line x1="93" y1="88" x2="109" y2="97" style="stroke:rgb(0,0,0);stroke-width:1"/>\n\t<line x1="93" y1="92" x2="106" y2="99" style="stroke:rgb(0,0,0);stroke-width:1"/>\n\t<line x1="77" y1="115" x2="77" y2="97" style="stroke:rgb(0,0,0);stroke-width:1"/>\n\t<line x1="80" y1="113" x2="80" y2="99" style="stroke:rgb(0,0,0);stroke-width:1"/>\n\t<line x1="109" y1="115" x2="93" y2="124" style="stroke:rgb(0,0,0);stroke-width:1"/>\n\t<line x1="106" y1="114" x2="93" y2="121" style="stroke:rgb(0,0,0);stroke-width:1"/>\n\t<line x1="140" y1="97" x2="124" y2="88" style="stroke:rgb(0,0,0);stroke-width:1"/>\n\t<line x1="140" y1="94" x2="127" y2="87" style="stroke:rgb(0,0,0);stroke-width:1"/>\n\t<line x1="172" y1="132" x2="162" y2="117" style="stroke:rgb(0,0,0);stroke-width:1"/>\n\t<line x1="173" y1="128" x2="165" y2="117" style="stroke:rgb(0,0,0);stroke-width:1"/>\n\t<line x1="198" y1="113" x2="190" y2="130" style="stroke:rgb(0,0,0);stroke-width:1"/>\n\t<line x1="194" y1="114" x2="189" y2="127" style="stroke:rgb(0,0,0);stroke-width:1"/>\n\t<line x1="169" y1="100" x2="187" y2="98" style="stroke:rgb(0,0,0);stroke-width:1"/>\n\t<line x1="171" y1="103" x2="185" y2="101" style="stroke:rgb(0,0,0);stroke-width:1"/>\n\t<line x1="156" y1="70" x2="156" y2="88" style="stroke:rgb(0,0,0);stroke-width:1"/>\n\t<line x1="153" y1="72" x2="153" y2="86" style="stroke:rgb(0,0,0);stroke-width:1"/>\n\t<line x1="140" y1="61" x2="140" y2="43" style="stroke:rgb(0,0,0);stroke-width:1"/>\n\t<line x1="124" y1="88" x2="124" y2="75" style="stroke:rgb(0,0,0);stroke-width:1"/>\n\t<line x1="109" y1="97" x2="124" y2="88" style="stroke:rgb(0,0,0);stroke-width:1"/>\n\t<line x1="77" y1="97" x2="93" y2="88" style="stroke:rgb(0,0,0);stroke-width:1"/>\n\t<line x1="68" y1="92" x2="77" y2="97" style="stroke:rgb(0,0,0);stroke-width:1"/>\n\t<line x1="93" y1="124" x2="77" y2="115" style="stroke:rgb(0,0,0);stroke-width:1"/>\n\t<line x1="109" y1="115" x2="109" y2="97" style="stroke:rgb(0,0,0);stroke-width:1"/>\n\t<line x1="68" y1="121" x2="77" y2="115" style="stroke:rgb(0,0,0);stroke-width:1"/>\n\t<line x1="143" y1="110" x2="140" y2="97" style="stroke:rgb(0,0,0);stroke-width:1"/>\n\t<line x1="162" y1="117" x2="149" y2="116" style="stroke:rgb(0,0,0);stroke-width:1"/>\n\t<line x1="190" y1="130" x2="172" y2="132" style="stroke:rgb(0,0,0);stroke-width:1"/>\n\t<line x1="187" y1="98" x2="198" y2="113" style="stroke:rgb(0,0,0);stroke-width:1"/>\n\t<line x1="169" y1="100" x2="162" y2="117" style="stroke:rgb(0,0,0);stroke-width:1"/>\n\t<line x1="156" y1="88" x2="169" y2="100" style="stroke:rgb(0,0,0);stroke-width:1"/>\n\t<line x1="156" y1="88" x2="140" y2="97" style="stroke:rgb(0,0,0);stroke-width:1"/>\n\t<line x1="156" y1="70" x2="140" y2="61" style="stroke:rgb(0,0,0);stroke-width:1"/>\n\t<line x1="129" y1="37" x2="140" y2="43" style="stroke:rgb(0,0,0);stroke-width:1"/>\n\t<line x1="109" y1="43" x2="119" y2="37" style="stroke:rgb(0,0,0);stroke-width:1"/>\n\t<line x1="93" y1="34" x2="109" y2="43" style="stroke:rgb(0,0,0);stroke-width:1"/>\n\t<line x1="77" y1="43" x2="93" y2="34" style="stroke:rgb(0,0,0);stroke-width:1"/>\n\t<line x1="66" y1="37" x2="77" y2="43" style="stroke:rgb(0,0,0);stroke-width:1"/>\n\t<line x1="46" y1="43" x2="57" y2="37" style="stroke:rgb(0,0,0);stroke-width:1"/>\n\t<line x1="30" y1="34" x2="46" y2="43" style="stroke:rgb(0,0,0);stroke-width:1"/>\n\t<line x1="20" y1="40" x2="30" y2="34" style="stroke:rgb(0,0,0);stroke-width:1"/>\n\t<line id="function random() { [native code] }:Bond:1-0" class="event" x1="140" y1="43" x2="156" y2="34" stroke-width="8" stroke-opacity="0"/>\n\t<line id="function random() { [native code] }:Bond:3-2" class="event" x1="124" y1="70" x2="140" y2="61" stroke-width="8" stroke-opacity="0"/>\n\t<line id="function random() { [native code] }:Bond:6-5" class="event" x1="93" y1="88" x2="109" y2="97" stroke-width="8" stroke-opacity="0"/>\n\t<line id="function random() { [native code] }:Bond:9-7" class="event" x1="77" y1="115" x2="77" y2="97" stroke-width="8" stroke-opacity="0"/>\n\t<line id="function random() { [native code] }:Bond:11-10" class="event" x1="109" y1="115" x2="93" y2="124" stroke-width="8" stroke-opacity="0"/>\n\t<line id="function random() { [native code] }:Bond:13-4" class="event" x1="140" y1="97" x2="124" y2="88" stroke-width="8" stroke-opacity="0"/>\n\t<line id="function random() { [native code] }:Bond:16-15" class="event" x1="172" y1="132" x2="162" y2="117" stroke-width="8" stroke-opacity="0"/>\n\t<line id="function random() { [native code] }:Bond:18-17" class="event" x1="198" y1="113" x2="190" y2="130" stroke-width="8" stroke-opacity="0"/>\n\t<line id="function random() { [native code] }:Bond:20-19" class="event" x1="169" y1="100" x2="187" y2="98" stroke-width="8" stroke-opacity="0"/>\n\t<line id="function random() { [native code] }:Bond:22-21" class="event" x1="156" y1="70" x2="156" y2="88" stroke-width="8" stroke-opacity="0"/>\n\t<line id="function random() { [native code] }:Bond:2-1" class="event" x1="140" y1="61" x2="140" y2="43" stroke-width="8" stroke-opacity="0"/>\n\t<line id="function random() { [native code] }:Bond:4-3" class="event" x1="124" y1="88" x2="124" y2="70" stroke-width="8" stroke-opacity="0"/>\n\t<line id="function random() { [native code] }:Bond:5-4" class="event" x1="109" y1="97" x2="124" y2="88" stroke-width="8" stroke-opacity="0"/>\n\t<line id="function random() { [native code] }:Bond:7-6" class="event" x1="77" y1="97" x2="93" y2="88" stroke-width="8" stroke-opacity="0"/>\n\t<line id="function random() { [native code] }:Bond:8-7" class="event" x1="61" y1="88" x2="77" y2="97" stroke-width="8" stroke-opacity="0"/>\n\t<line id="function random() { [native code] }:Bond:10-9" class="event" x1="93" y1="124" x2="77" y2="115" stroke-width="8" stroke-opacity="0"/>\n\t<line id="function random() { [native code] }:Bond:11-5" class="event" x1="109" y1="115" x2="109" y2="97" stroke-width="8" stroke-opacity="0"/>\n\t<line id="function random() { [native code] }:Bond:12-9" class="event" x1="61" y1="124" x2="77" y2="115" stroke-width="8" stroke-opacity="0"/>\n\t<line id="function random() { [native code] }:Bond:14-13" class="event" x1="144" y1="115" x2="140" y2="97" stroke-width="8" stroke-opacity="0"/>\n\t<line id="function random() { [native code] }:Bond:15-14" class="event" x1="162" y1="117" x2="144" y2="115" stroke-width="8" stroke-opacity="0"/>\n\t<line id="function random() { [native code] }:Bond:17-16" class="event" x1="190" y1="130" x2="172" y2="132" stroke-width="8" stroke-opacity="0"/>\n\t<line id="function random() { [native code] }:Bond:19-18" class="event" x1="187" y1="98" x2="198" y2="113" stroke-width="8" stroke-opacity="0"/>\n\t<line id="function random() { [native code] }:Bond:20-15" class="event" x1="169" y1="100" x2="162" y2="117" stroke-width="8" stroke-opacity="0"/>\n\t<line id="function random() { [native code] }:Bond:21-20" class="event" x1="156" y1="88" x2="169" y2="100" stroke-width="8" stroke-opacity="0"/>\n\t<line id="function random() { [native code] }:Bond:21-13" class="event" x1="156" y1="88" x2="140" y2="97" stroke-width="8" stroke-opacity="0"/>\n\t<line id="function random() { [native code] }:Bond:22-2" class="event" x1="156" y1="70" x2="140" y2="61" stroke-width="8" stroke-opacity="0"/>\n\t<line id="function random() { [native code] }:Bond:23-1" class="event" x1="124" y1="34" x2="140" y2="43" stroke-width="8" stroke-opacity="0"/>\n\t<line id="function random() { [native code] }:Bond:24-23" class="event" x1="109" y1="43" x2="124" y2="34" stroke-width="8" stroke-opacity="0"/>\n\t<line id="function random() { [native code] }:Bond:25-24" class="event" x1="93" y1="34" x2="109" y2="43" stroke-width="8" stroke-opacity="0"/>\n\t<line id="function random() { [native code] }:Bond:26-25" class="event" x1="77" y1="43" x2="93" y2="34" stroke-width="8" stroke-opacity="0"/>\n\t<line id="function random() { [native code] }:Bond:27-26" class="event" x1="61" y1="34" x2="77" y2="43" stroke-width="8" stroke-opacity="0"/>\n\t<line id="function random() { [native code] }:Bond:28-27" class="event" x1="46" y1="43" x2="61" y2="34" stroke-width="8" stroke-opacity="0"/>\n\t<line id="function random() { [native code] }:Bond:29-28" class="event" x1="30" y1="34" x2="46" y2="43" stroke-width="8" stroke-opacity="0"/>\n\t<line id="function random() { [native code] }:Bond:30-29" class="event" x1="14" y1="43" x2="30" y2="34" stroke-width="8" stroke-opacity="0"/>\n\t<circle id="function random() { [native code] }:Atom:0" class="event" cx="156" cy="34" r="8" fill-opacity="0"/>\n\t<circle id="function random() { [native code] }:Atom:1" class="event" cx="140" cy="43" r="8" fill-opacity="0"/>\n\t<circle id="function random() { [native code] }:Atom:2" class="event" cx="140" cy="61" r="8" fill-opacity="0"/>\n\t<circle id="function random() { [native code] }:Atom:3" class="event" cx="124" cy="70" r="8" fill-opacity="0"/>\n\t<circle id="function random() { [native code] }:Atom:4" class="event" cx="124" cy="88" r="8" fill-opacity="0"/>\n\t<circle id="function random() { [native code] }:Atom:5" class="event" cx="109" cy="97" r="8" fill-opacity="0"/>\n\t<circle id="function random() { [native code] }:Atom:6" class="event" cx="93" cy="88" r="8" fill-opacity="0"/>\n\t<circle id="function random() { [native code] }:Atom:7" class="event" cx="77" cy="97" r="8" fill-opacity="0"/>\n\t<circle id="function random() { [native code] }:Atom:8" class="event" cx="61" cy="88" r="8" fill-opacity="0"/>\n\t<circle id="function random() { [native code] }:Atom:9" class="event" cx="77" cy="115" r="8" fill-opacity="0"/>\n\t<circle id="function random() { [native code] }:Atom:10" class="event" cx="93" cy="124" r="8" fill-opacity="0"/>\n\t<circle id="function random() { [native code] }:Atom:11" class="event" cx="109" cy="115" r="8" fill-opacity="0"/>\n\t<circle id="function random() { [native code] }:Atom:12" class="event" cx="61" cy="124" r="8" fill-opacity="0"/>\n\t<circle id="function random() { [native code] }:Atom:13" class="event" cx="140" cy="97" r="8" fill-opacity="0"/>\n\t<circle id="function random() { [native code] }:Atom:14" class="event" cx="144" cy="115" r="8" fill-opacity="0"/>\n\t<circle id="function random() { [native code] }:Atom:15" class="event" cx="162" cy="117" r="8" fill-opacity="0"/>\n\t<circle id="function random() { [native code] }:Atom:16" class="event" cx="172" cy="132" r="8" fill-opacity="0"/>\n\t<circle id="function random() { [native code] }:Atom:17" class="event" cx="190" cy="130" r="8" fill-opacity="0"/>\n\t<circle id="function random() { [native code] }:Atom:18" class="event" cx="198" cy="113" r="8" fill-opacity="0"/>\n\t<circle id="function random() { [native code] }:Atom:19" class="event" cx="187" cy="98" r="8" fill-opacity="0"/>\n\t<circle id="function random() { [native code] }:Atom:20" class="event" cx="169" cy="100" r="8" fill-opacity="0"/>\n\t<circle id="function random() { [native code] }:Atom:21" class="event" cx="156" cy="88" r="8" fill-opacity="0"/>\n\t<circle id="function random() { [native code] }:Atom:22" class="event" cx="156" cy="70" r="8" fill-opacity="0"/>\n\t<circle id="function random() { [native code] }:Atom:23" class="event" cx="124" cy="34" r="8" fill-opacity="0"/>\n\t<circle id="function random() { [native code] }:Atom:24" class="event" cx="109" cy="43" r="8" fill-opacity="0"/>\n\t<circle id="function random() { [native code] }:Atom:25" class="event" cx="93" cy="34" r="8" fill-opacity="0"/>\n\t<circle id="function random() { [native code] }:Atom:26" class="event" cx="77" cy="43" r="8" fill-opacity="0"/>\n\t<circle id="function random() { [native code] }:Atom:27" class="event" cx="61" cy="34" r="8" fill-opacity="0"/>\n\t<circle id="function random() { [native code] }:Atom:28" class="event" cx="46" cy="43" r="8" fill-opacity="0"/>\n\t<circle id="function random() { [native code] }:Atom:29" class="event" cx="30" cy="34" r="8" fill-opacity="0"/>\n\t<circle id="function random() { [native code] }:Atom:30" class="event" cx="14" cy="43" r="8" fill-opacity="0"/>\n</svg>