<svg id="function random() { [native code] }" xmlns="http://www.w3.org/2000/svg" version="1.1" width="200px" height="150px" viewBox="0 0 200 150">\n\t<style> #function random() { [native code] } {pointer-events:none; }  #function random() { [native code] } .event  { pointer-events:all;}  </style>\n\t<text x="175" y="45" font-family=" Helvetica" font-weight="900" font-size="12" fill="rgb(48,80,248)">N</text>\n\t<text x="175" y="33" font-family=" Helvetica" font-weight="900" font-size="12" fill="rgb(48,80,248)">H</text>\n\t<text x="122" y="55" font-family=" Helvetica" font-weight="900" font-size="12" fill="rgb(48,80,248)">N</text>\n\t<text x="122" y="67" font-family=" Helvetica" font-weight="900" font-size="12" fill="rgb(48,80,248)">H</text>\n\t<text x="104" y="24" font-family=" Helvetica" font-weight="900" font-size="12" fill="rgb(255,13,13)">O</text>\n\t<text x="35" y="89" font-family=" Helvetica" font-weight="900" font-size="12" fill="rgb(48,80,248)">N</text>\n\t<text x="27" y="89" font-family=" Helvetica" font-weight="900" font-size="12" fill="rgb(48,80,248)">H</text>\n\t<text x="68" y="45" font-family=" Helvetica" font-weight="900" font-size="12" fill="rgb(48,80,248)">N</text>\n\t<line x1="110" y1="41" x2="110" y2="26" style="stroke:rgb(0,0,0);stroke-width:1"/>\n\t<line x1="107" y1="41" x2="107" y2="26" style="stroke:rgb(0,0,0);stroke-width:1"/>\n\t<line x1="91" y1="71" x2="91" y2="51" style="stroke:rgb(0,0,0);stroke-width:1"/>\n\t<line x1="88" y1="69" x2="88" y2="53" style="stroke:rgb(0,0,0);stroke-width:1"/>\n\t<line x1="55" y1="71" x2="73" y2="82" style="stroke:rgb(0,0,0);stroke-width:1"/>\n\t<line x1="56" y1="75" x2="69" y2="83" style="stroke:rgb(0,0,0);stroke-width:1"/>\n\t<line x1="40" y1="123" x2="48" y2="104" style="stroke:rgb(0,0,0);stroke-width:1"/>\n\t<line x1="43" y1="122" x2="50" y2="107" style="stroke:rgb(0,0,0);stroke-width:1"/>\n\t<line x1="72" y1="137" x2="52" y2="139" style="stroke:rgb(0,0,0);stroke-width:1"/>\n\t<line x1="70" y1="134" x2="54" y2="136" style="stroke:rgb(0,0,0);stroke-width:1"/>\n\t<line x1="69" y1="102" x2="81" y2="118" style="stroke:rgb(0,0,0);stroke-width:1"/>\n\t<line x1="67" y1="105" x2="77" y2="118" style="stroke:rgb(0,0,0);stroke-width:1"/>\n\t<line x1="37" y1="20" x2="37" y2="41" style="stroke:rgb(0,0,0);stroke-width:1"/>\n\t<line x1="34" y1="22" x2="34" y2="38" style="stroke:rgb(0,0,0);stroke-width:1"/>\n\t<line x1="2" y1="20" x2="19" y2="10" style="stroke:rgb(0,0,0);stroke-width:1"/>\n\t<line x1="5" y1="22" x2="19" y2="13" style="stroke:rgb(0,0,0);stroke-width:1"/>\n\t<line x1="19" y1="51" x2="2" y2="41" style="stroke:rgb(0,0,0);stroke-width:1"/>\n\t<line x1="19" y1="47" x2="5" y2="39" style="stroke:rgb(0,0,0);stroke-width:1"/>\n\t<line x1="55" y1="51" x2="67" y2="44" style="stroke:rgb(0,0,0);stroke-width:1"/>\n\t<line x1="58" y1="52" x2="69" y2="47" style="stroke:rgb(0,0,0);stroke-width:1"/>\n\t<line x1="185" y1="44" x2="197" y2="51" style="stroke:rgb(0,0,0);stroke-width:1"/>\n\t<line x1="162" y1="51" x2="174" y2="44" style="stroke:rgb(0,0,0);stroke-width:1"/>\n\t<line x1="144" y1="41" x2="162" y2="51" style="stroke:rgb(0,0,0);stroke-width:1"/>\n\t<line x1="132" y1="48" x2="144" y2="41" style="stroke:rgb(0,0,0);stroke-width:1"/>\n\t<line x1="108" y1="41" x2="121" y2="48" style="stroke:rgb(0,0,0);stroke-width:1"/>\n\t<line x1="91" y1="51" x2="108" y2="41" style="stroke:rgb(0,0,0);stroke-width:1"/>\n\t<line x1="73" y1="82" x2="91" y2="71" style="stroke:rgb(0,0,0);stroke-width:1"/>\n\t<line x1="45" y1="80" x2="55" y2="71" style="stroke:rgb(0,0,0);stroke-width:1"/>\n\t<line x1="48" y1="104" x2="42" y2="91" style="stroke:rgb(0,0,0);stroke-width:1"/>\n\t<line x1="52" y1="139" x2="40" y2="123" style="stroke:rgb(0,0,0);stroke-width:1"/>\n\t<line x1="81" y1="118" x2="72" y2="137" style="stroke:rgb(0,0,0);stroke-width:1"/>\n\t<line x1="69" y1="102" x2="48" y2="104" style="stroke:rgb(0,0,0);stroke-width:1"/>\n\t<line x1="69" y1="102" x2="73" y2="82" style="stroke:rgb(0,0,0);stroke-width:1"/>\n\t<line x1="55" y1="51" x2="55" y2="71" style="stroke:rgb(0,0,0);stroke-width:1"/>\n\t<line x1="37" y1="41" x2="55" y2="51" style="stroke:rgb(0,0,0);stroke-width:1"/>\n\t<line x1="19" y1="10" x2="37" y2="20" style="stroke:rgb(0,0,0);stroke-width:1"/>\n\t<line x1="2" y1="41" x2="2" y2="20" style="stroke:rgb(0,0,0);stroke-width:1"/>\n\t<line x1="19" y1="51" x2="37" y2="41" style="stroke:rgb(0,0,0);stroke-width:1"/>\n\t<line x1="78" y1="44" x2="91" y2="51" style="stroke:rgb(0,0,0);stroke-width:1"/>\n\t<line id="function random() { [native code] }:Bond:6-5" class="event" x1="108" y1="20" x2="108" y2="41" stroke-width="8" stroke-opacity="0"/>\n\t<line id="function random() { [native code] }:Bond:8-7" class="event" x1="91" y1="71" x2="91" y2="51" stroke-width="8" stroke-opacity="0"/>\n\t<line id="function random() { [native code] }:Bond:10-9" class="event" x1="55" y1="71" x2="73" y2="82" stroke-width="8" stroke-opacity="0"/>\n\t<line id="function random() { [native code] }:Bond:13-12" class="event" x1="40" y1="123" x2="48" y2="104" stroke-width="8" stroke-opacity="0"/>\n\t<line id="function random() { [native code] }:Bond:15-14" class="event" x1="72" y1="137" x2="52" y2="139" stroke-width="8" stroke-opacity="0"/>\n\t<line id="function random() { [native code] }:Bond:17-16" class="event" x1="69" y1="102" x2="81" y2="118" stroke-width="8" stroke-opacity="0"/>\n\t<line id="function random() { [native code] }:Bond:20-19" class="event" x1="37" y1="20" x2="37" y2="41" stroke-width="8" stroke-opacity="0"/>\n\t<line id="function random() { [native code] }:Bond:22-21" class="event" x1="2" y1="20" x2="19" y2="10" stroke-width="8" stroke-opacity="0"/>\n\t<line id="function random() { [native code] }:Bond:24-23" class="event" x1="19" y1="51" x2="2" y2="41" stroke-width="8" stroke-opacity="0"/>\n\t<line id="function random() { [native code] }:Bond:25-18" class="event" x1="73" y1="41" x2="55" y2="51" stroke-width="8" stroke-opacity="0"/>\n\t<line id="function random() { [native code] }:Bond:1-0" class="event" x1="180" y1="41" x2="197" y2="51" stroke-width="8" stroke-opacity="0"/>\n\t<line id="function random() { [native code] }:Bond:2-1" class="event" x1="162" y1="51" x2="180" y2="41" stroke-width="8" stroke-opacity="0"/>\n\t<line id="function random() { [native code] }:Bond:3-2" class="event" x1="144" y1="41" x2="162" y2="51" stroke-width="8" stroke-opacity="0"/>\n\t<line id="function random() { [native code] }:Bond:4-3" class="event" x1="126" y1="51" x2="144" y2="41" stroke-width="8" stroke-opacity="0"/>\n\t<line id="function random() { [native code] }:Bond:5-4" class="event" x1="108" y1="41" x2="126" y2="51" stroke-width="8" stroke-opacity="0"/>\n\t<line id="function random() { [native code] }:Bond:7-5" class="event" x1="91" y1="51" x2="108" y2="41" stroke-width="8" stroke-opacity="0"/>\n\t<line id="function random() { [native code] }:Bond:9-8" class="event" x1="73" y1="82" x2="91" y2="71" stroke-width="8" stroke-opacity="0"/>\n\t<line id="function random() { [native code] }:Bond:11-10" class="event" x1="40" y1="85" x2="55" y2="71" stroke-width="8" stroke-opacity="0"/>\n\t<line id="function random() { [native code] }:Bond:12-11" class="event" x1="48" y1="104" x2="40" y2="85" stroke-width="8" stroke-opacity="0"/>\n\t<line id="function random() { [native code] }:Bond:14-13" class="event" x1="52" y1="139" x2="40" y2="123" stroke-width="8" stroke-opacity="0"/>\n\t<line id="function random() { [native code] }:Bond:16-15" class="event" x1="81" y1="118" x2="72" y2="137" stroke-width="8" stroke-opacity="0"/>\n\t<line id="function random() { [native code] }:Bond:17-12" class="event" x1="69" y1="102" x2="48" y2="104" stroke-width="8" stroke-opacity="0"/>\n\t<line id="function random() { [native code] }:Bond:17-9" class="event" x1="69" y1="102" x2="73" y2="82" stroke-width="8" stroke-opacity="0"/>\n\t<line id="function random() { [native code] }:Bond:18-10" class="event" x1="55" y1="51" x2="55" y2="71" stroke-width="8" stroke-opacity="0"/>\n\t<line id="function random() { [native code] }:Bond:19-18" class="event" x1="37" y1="41" x2="55" y2="51" stroke-width="8" stroke-opacity="0"/>\n\t<line id="function random() { [native code] }:Bond:21-20" class="event" x1="19" y1="10" x2="37" y2="20" stroke-width="8" stroke-opacity="0"/>\n\t<line id="function random() { [native code] }:Bond:23-22" class="event" x1="2" y1="41" x2="2" y2="20" stroke-width="8" stroke-opacity="0"/>\n\t<line id="function random() { [native code] }:Bond:24-19" class="event" x1="19" y1="51" x2="37" y2="41" stroke-width="8" stroke-opacity="0"/>\n\t<line id="function random() { [native code] }:Bond:25-7" class="event" x1="73" y1="41" x2="91" y2="51" stroke-width="8" stroke-opacity="0"/>\n\t<circle id="function random() { [native code] }:Atom:0" class="event" cx="197" cy="51" r="8" fill-opacity="0"/>\n\t<circle id="function random() { [native code] }:Atom:1" class="event" cx="180" cy="41" r="8" fill-opacity="0"/>\n\t<circle id="function random() { [native code] }:Atom:2" class="event" cx="162" cy="51" r="8" fill-opacity="0"/>\n\t<circle id="function random() { [native code] }:Atom:3" class="event" cx="144" cy="41" r="8" fill-opacity="0"/>\n\t<circle id="function random() { [native code] }:Atom:4" class="event" cx="126" cy="51" r="8" fill-opacity="0"/>\n\t<circle id="function random() { [native code] }:Atom:5" class="event" cx="108" cy="41" r="8" fill-opacity="0"/>\n\t<circle id="function random() { [native code] }:Atom:6" class="event" cx="108" cy="20" r="8" fill-opacity="0"/>\n\t<circle id="function random() { [native code] }:Atom:7" class="event" cx="91" cy="51" r="8" fill-opacity="0"/>\n\t<circle id="function random() { [native code] }:Atom:8" class="event" cx="91" cy="71" r="8" fill-opacity="0"/>\n\t<circle id="function random() { [native code] }:Atom:9" class="event" cx="73" cy="82" r="8" fill-opacity="0"/>\n\t<circle id="function random() { [native code] }:Atom:10" class="event" cx="55" cy="71" r="8" fill-opacity="0"/>\n\t<circle id="function random() { [native code] }:Atom:11" class="event" cx="40" cy="85" r="8" fill-opacity="0"/>\n\t<circle id="function random() { [native code] }:Atom:12" class="event" cx="48" cy="104" r="8" fill-opacity="0"/>\n\t<circle id="function random() { [native code] }:Atom:13" class="event" cx="40" cy="123" r="8" fill-opacity="0"/>\n\t<circle id="function random() { [native code] }:Atom:14" class="event" cx="52" cy="139" r="8" fill-opacity="0"/>\n\t<circle id="function random() { [native code] }:Atom:15" class="event" cx="72" cy="137" r="8" fill-opacity="0"/>\n\t<circle id="function random() { [native code] }:Atom:16" class="event" cx="81" cy="118" r="8" fill-opacity="0"/>\n\t<circle id="function random() { [native code] }:Atom:17" class="event" cx="69" cy="102" r="8" fill-opacity="0"/>\n\t<circle id="function random() { [native code] }:Atom:18" class="event" cx="55" cy="51" r="8" fill-opacity="0"/>\n\t<circle id="function random() { [native code] }:Atom:19" class="event" cx="37" cy="41" r="8" fill-opacity="0"/>\n\t<circle id="function random() { [native code] }:Atom:20" class="event" cx="37" cy="20" r="8" fill-opacity="0"/>\n\t<circle id="function random() { [native code] }:Atom:21" class="event" cx="19" cy="10" r="8" fill-opacity="0"/>\n\t<circle id="function random() { [native code] }:Atom:22" class="event" cx="2" cy="20" r="8" fill-opacity="0"/>\n\t<circle id="function random() { [native code] }:Atom:23" class="event" cx="2" cy="41" r="8" fill-opacity="0"/>\n\t<circle id="function random() { [native code] }:Atom:24" class="event" cx="19" cy="51" r="8" fill-opacity="0"/>\n\t<circle id="function random() { [native code] }:Atom:25" class="event" cx="73" cy="41" r="8" fill-opacity="0"/>\n</svg>