<svg id="function random() { [native code] }" xmlns="http://www.w3.org/2000/svg" version="1.1" width="200px" height="150px" viewBox="0 0 200 150">\n\t<style> #function random() { [native code] } {pointer-events:none; }  #function random() { [native code] } .event  { pointer-events:all;}  </style>\n\t<text x="170" y="128" font-family=" Helvetica" font-weight="900" font-size="14" fill="rgb(48,80,248)">N</text>\n\t<text x="91" y="128" font-family=" Helvetica" font-weight="900" font-size="14" fill="rgb(48,80,248)">N</text>\n\t<text x="91" y="142" font-family=" Helvetica" font-weight="900" font-size="14" fill="rgb(48,80,248)">H</text>\n\t<text x="169" y="60" font-family=" Helvetica" font-weight="900" font-size="14" fill="rgb(31,240,31)">Cl</text>\n\t<text x="169" y="15" font-family=" Helvetica" font-weight="900" font-size="14" fill="rgb(31,240,31)">Cl</text>\n\t<text x="91" y="83" font-family=" Helvetica" font-weight="900" font-size="14" fill="rgb(48,80,248)">N</text>\n\t<text x="67" y="27" font-family=" Helvetica" font-weight="900" font-size="14" fill="rgb(48,80,248)">N</text>\n\t<text x="77" y="27" font-family=" Helvetica" font-weight="900" font-size="14" fill="rgb(48,80,248)">H</text>\n\t<text x="52" y="128" font-family=" Helvetica" font-weight="900" font-size="14" fill="rgb(255,13,13)">O</text>\n\t<line x1="57" y1="79" x2="77" y2="90" style="stroke:rgb(0,0,0);stroke-width:1"/>\n\t<line x1="61" y1="77" x2="76" y2="86" style="stroke:rgb(0,0,0);stroke-width:1"/>\n\t<line x1="77" y1="45" x2="57" y2="56" style="stroke:rgb(0,0,0);stroke-width:1"/>\n\t<line x1="73" y1="43" x2="58" y2="52" style="stroke:rgb(0,0,0);stroke-width:1"/>\n\t<line x1="136" y1="56" x2="116" y2="45" style="stroke:rgb(0,0,0);stroke-width:1"/>\n\t<line x1="135" y1="52" x2="120" y2="43" style="stroke:rgb(0,0,0);stroke-width:1"/>\n\t<line x1="156" y1="22" x2="156" y2="45" style="stroke:rgb(0,0,0);stroke-width:1"/>\n\t<line x1="152" y1="24" x2="152" y2="42" style="stroke:rgb(0,0,0);stroke-width:1"/>\n\t<line x1="116" y1="22" x2="136" y2="11" style="stroke:rgb(0,0,0);stroke-width:1"/>\n\t<line x1="120" y1="24" x2="135" y2="15" style="stroke:rgb(0,0,0);stroke-width:1"/>\n\t<line x1="96" y1="56" x2="96" y2="72" style="stroke:rgb(0,0,0);stroke-width:1"/>\n\t<line x1="93" y1="59" x2="93" y2="72" style="stroke:rgb(0,0,0);stroke-width:1"/>\n\t<line x1="36" y1="2" x2="49" y2="20" style="stroke:rgb(0,0,0);stroke-width:1"/>\n\t<line x1="35" y1="6" x2="45" y2="20" style="stroke:rgb(0,0,0);stroke-width:1"/>\n\t<line x1="4" y1="25" x2="13" y2="4" style="stroke:rgb(0,0,0);stroke-width:1"/>\n\t<line x1="8" y1="24" x2="15" y2="8" style="stroke:rgb(0,0,0);stroke-width:1"/>\n\t<line x1="40" y1="41" x2="17" y2="43" style="stroke:rgb(0,0,0);stroke-width:1"/>\n\t<line x1="37" y1="38" x2="19" y2="40" style="stroke:rgb(0,0,0);stroke-width:1"/>\n\t<line x1="77" y1="111" x2="63" y2="119" style="stroke:rgb(0,0,0);stroke-width:1"/>\n\t<line x1="78" y1="114" x2="64" y2="122" style="stroke:rgb(0,0,0);stroke-width:1"/>\n\t<line x1="181" y1="121" x2="195" y2="113" style="stroke:rgb(0,0,0);stroke-width:1"/>\n\t<line x1="156" y1="113" x2="169" y2="121" style="stroke:rgb(0,0,0);stroke-width:1"/>\n\t<line x1="136" y1="124" x2="156" y2="113" style="stroke:rgb(0,0,0);stroke-width:1"/>\n\t<line x1="116" y1="113" x2="136" y2="124" style="stroke:rgb(0,0,0);stroke-width:1"/>\n\t<line x1="102" y1="121" x2="116" y2="113" style="stroke:rgb(0,0,0);stroke-width:1"/>\n\t<line x1="77" y1="113" x2="90" y2="121" style="stroke:rgb(0,0,0);stroke-width:1"/>\n\t<line x1="77" y1="90" x2="77" y2="113" style="stroke:rgb(0,0,0);stroke-width:1"/>\n\t<line x1="57" y1="56" x2="57" y2="79" style="stroke:rgb(0,0,0);stroke-width:1"/>\n\t<line x1="96" y1="56" x2="77" y2="45" style="stroke:rgb(0,0,0);stroke-width:1"/>\n\t<line x1="116" y1="45" x2="96" y2="56" style="stroke:rgb(0,0,0);stroke-width:1"/>\n\t<line x1="156" y1="45" x2="136" y2="56" style="stroke:rgb(0,0,0);stroke-width:1"/>\n\t<line x1="168" y1="52" x2="156" y2="45" style="stroke:rgb(0,0,0);stroke-width:1"/>\n\t<line x1="136" y1="11" x2="156" y2="22" style="stroke:rgb(0,0,0);stroke-width:1"/>\n\t<line x1="116" y1="22" x2="116" y2="45" style="stroke:rgb(0,0,0);stroke-width:1"/>\n\t<line x1="168" y1="15" x2="156" y2="22" style="stroke:rgb(0,0,0);stroke-width:1"/>\n\t<line x1="90" y1="82" x2="77" y2="90" style="stroke:rgb(0,0,0);stroke-width:1"/>\n\t<line x1="73" y1="30" x2="77" y2="45" style="stroke:rgb(0,0,0);stroke-width:1"/>\n\t<line x1="49" y1="20" x2="66" y2="22" style="stroke:rgb(0,0,0);stroke-width:1"/>\n\t<line x1="13" y1="4" x2="36" y2="2" style="stroke:rgb(0,0,0);stroke-width:1"/>\n\t<line x1="17" y1="43" x2="4" y2="25" style="stroke:rgb(0,0,0);stroke-width:1"/>\n\t<line x1="40" y1="41" x2="49" y2="20" style="stroke:rgb(0,0,0);stroke-width:1"/>\n\t<line x1="40" y1="41" x2="57" y2="56" style="stroke:rgb(0,0,0);stroke-width:1"/>\n\t<line x1="175" y1="147" x2="175" y2="131" style="stroke:rgb(0,0,0);stroke-width:1"/>\n\t<line id="function random() { [native code] }:Bond:8-7" class="event" x1="57" y1="79" x2="77" y2="90" stroke-width="8" stroke-opacity="0"/>\n\t<line id="function random() { [native code] }:Bond:10-9" class="event" x1="77" y1="45" x2="57" y2="56" stroke-width="8" stroke-opacity="0"/>\n\t<line id="function random() { [native code] }:Bond:13-12" class="event" x1="136" y1="56" x2="116" y2="45" stroke-width="8" stroke-opacity="0"/>\n\t<line id="function random() { [native code] }:Bond:16-14" class="event" x1="156" y1="22" x2="156" y2="45" stroke-width="8" stroke-opacity="0"/>\n\t<line id="function random() { [native code] }:Bond:18-17" class="event" x1="116" y1="22" x2="136" y2="11" stroke-width="8" stroke-opacity="0"/>\n\t<line id="function random() { [native code] }:Bond:20-11" class="event" x1="96" y1="79" x2="96" y2="56" stroke-width="8" stroke-opacity="0"/>\n\t<line id="function random() { [native code] }:Bond:23-22" class="event" x1="36" y1="2" x2="49" y2="20" stroke-width="8" stroke-opacity="0"/>\n\t<line id="function random() { [native code] }:Bond:25-24" class="event" x1="4" y1="25" x2="13" y2="4" stroke-width="8" stroke-opacity="0"/>\n\t<line id="function random() { [native code] }:Bond:27-26" class="event" x1="40" y1="41" x2="17" y2="43" stroke-width="8" stroke-opacity="0"/>\n\t<line id="function random() { [native code] }:Bond:28-6" class="event" x1="57" y1="124" x2="77" y2="113" stroke-width="8" stroke-opacity="0"/>\n\t<line id="function random() { [native code] }:Bond:1-0" class="event" x1="175" y1="124" x2="195" y2="113" stroke-width="8" stroke-opacity="0"/>\n\t<line id="function random() { [native code] }:Bond:2-1" class="event" x1="156" y1="113" x2="175" y2="124" stroke-width="8" stroke-opacity="0"/>\n\t<line id="function random() { [native code] }:Bond:3-2" class="event" x1="136" y1="124" x2="156" y2="113" stroke-width="8" stroke-opacity="0"/>\n\t<line id="function random() { [native code] }:Bond:4-3" class="event" x1="116" y1="113" x2="136" y2="124" stroke-width="8" stroke-opacity="0"/>\n\t<line id="function random() { [native code] }:Bond:5-4" class="event" x1="96" y1="124" x2="116" y2="113" stroke-width="8" stroke-opacity="0"/>\n\t<line id="function random() { [native code] }:Bond:6-5" class="event" x1="77" y1="113" x2="96" y2="124" stroke-width="8" stroke-opacity="0"/>\n\t<line id="function random() { [native code] }:Bond:7-6" class="event" x1="77" y1="90" x2="77" y2="113" stroke-width="8" stroke-opacity="0"/>\n\t<line id="function random() { [native code] }:Bond:9-8" class="event" x1="57" y1="56" x2="57" y2="79" stroke-width="8" stroke-opacity="0"/>\n\t<line id="function random() { [native code] }:Bond:11-10" class="event" x1="96" y1="56" x2="77" y2="45" stroke-width="8" stroke-opacity="0"/>\n\t<line id="function random() { [native code] }:Bond:12-11" class="event" x1="116" y1="45" x2="96" y2="56" stroke-width="8" stroke-opacity="0"/>\n\t<line id="function random() { [native code] }:Bond:14-13" class="event" x1="156" y1="45" x2="136" y2="56" stroke-width="8" stroke-opacity="0"/>\n\t<line id="function random() { [native code] }:Bond:15-14" class="event" x1="175" y1="56" x2="156" y2="45" stroke-width="8" stroke-opacity="0"/>\n\t<line id="function random() { [native code] }:Bond:17-16" class="event" x1="136" y1="11" x2="156" y2="22" stroke-width="8" stroke-opacity="0"/>\n\t<line id="function random() { [native code] }:Bond:18-12" class="event" x1="116" y1="22" x2="116" y2="45" stroke-width="8" stroke-opacity="0"/>\n\t<line id="function random() { [native code] }:Bond:19-16" class="event" x1="175" y1="11" x2="156" y2="22" stroke-width="8" stroke-opacity="0"/>\n\t<line id="function random() { [native code] }:Bond:20-7" class="event" x1="96" y1="79" x2="77" y2="90" stroke-width="8" stroke-opacity="0"/>\n\t<line id="function random() { [native code] }:Bond:21-10" class="event" x1="72" y1="23" x2="77" y2="45" stroke-width="8" stroke-opacity="0"/>\n\t<line id="function random() { [native code] }:Bond:22-21" class="event" x1="49" y1="20" x2="72" y2="23" stroke-width="8" stroke-opacity="0"/>\n\t<line id="function random() { [native code] }:Bond:24-23" class="event" x1="13" y1="4" x2="36" y2="2" stroke-width="8" stroke-opacity="0"/>\n\t<line id="function random() { [native code] }:Bond:26-25" class="event" x1="17" y1="43" x2="4" y2="25" stroke-width="8" stroke-opacity="0"/>\n\t<line id="function random() { [native code] }:Bond:27-22" class="event" x1="40" y1="41" x2="49" y2="20" stroke-width="8" stroke-opacity="0"/>\n\t<line id="function random() { [native code] }:Bond:27-9" class="event" x1="40" y1="41" x2="57" y2="56" stroke-width="8" stroke-opacity="0"/>\n\t<line id="function random() { [native code] }:Bond:29-1" class="event" x1="175" y1="147" x2="175" y2="124" stroke-width="8" stroke-opacity="0"/>\n\t<circle id="function random() { [native code] }:Atom:0" class="event" cx="195" cy="113" r="8" fill-opacity="0"/>\n\t<circle id="function random() { [native code] }:Atom:1" class="event" cx="175" cy="124" r="8" fill-opacity="0"/>\n\t<circle id="function random() { [native code] }:Atom:2" class="event" cx="156" cy="113" r="8" fill-opacity="0"/>\n\t<circle id="function random() { [native code] }:Atom:3" class="event" cx="136" cy="124" r="8" fill-opacity="0"/>\n\t<circle id="function random() { [native code] }:Atom:4" class="event" cx="116" cy="113" r="8" fill-opacity="0"/>\n\t<circle id="function random() { [native code] }:Atom:5" class="event" cx="96" cy="124" r="8" fill-opacity="0"/>\n\t<circle id="function random() { [native code] }:Atom:6" class="event" cx="77" cy="113" r="8" fill-opacity="0"/>\n\t<circle id="function random() { [native code] }:Atom:7" class="event" cx="77" cy="90" r="8" fill-opacity="0"/>\n\t<circle id="function random() { [native code] }:Atom:8" class="event" cx="57" cy="79" r="8" fill-opacity="0"/>\n\t<circle id="function random() { [native code] }:Atom:9" class="event" cx="57" cy="56" r="8" fill-opacity="0"/>\n\t<circle id="function random() { [native code] }:Atom:10" class="event" cx="77" cy="45" r="8" fill-opacity="0"/>\n\t<circle id="function random() { [native code] }:Atom:11" class="event" cx="96" cy="56" r="8" fill-opacity="0"/>\n\t<circle id="function random() { [native code] }:Atom:12" class="event" cx="116" cy="45" r="8" fill-opacity="0"/>\n\t<circle id="function random() { [native code] }:Atom:13" class="event" cx="136" cy="56" r="8" fill-opacity="0"/>\n\t<circle id="function random() { [native code] }:Atom:14" class="event" cx="156" cy="45" r="8" fill-opacity="0"/>\n\t<circle id="function random() { [native code] }:Atom:15" class="event" cx="175" cy="56" r="8" fill-opacity="0"/>\n\t<circle id="function random() { [native code] }:Atom:16" class="event" cx="156" cy="22" r="8" fill-opacity="0"/>\n\t<circle id="function random() { [native code] }:Atom:17" class="event" cx="136" cy="11" r="8" fill-opacity="0"/>\n\t<circle id="function random() { [native code] }:Atom:18" class="event" cx="116" cy="22" r="8" fill-opacity="0"/>\n\t<circle id="function random() { [native code] }:Atom:19" class="event" cx="175" cy="11" r="8" fill-opacity="0"/>\n\t<circle id="function random() { [native code] }:Atom:20" class="event" cx="96" cy="79" r="8" fill-opacity="0"/>\n\t<circle id="function random() { [native code] }:Atom:21" class="event" cx="72" cy="23" r="8" fill-opacity="0"/>\n\t<circle id="function random() { [native code] }:Atom:22" class="event" cx="49" cy="20" r="8" fill-opacity="0"/>\n\t<circle id="function random() { [native code] }:Atom:23" class="event" cx="36" cy="2" r="8" fill-opacity="0"/>\n\t<circle id="function random() { [native code] }:Atom:24" class="event" cx="13" cy="4" r="8" fill-opacity="0"/>\n\t<circle id="function random() { [native code] }:Atom:25" class="event" cx="4" cy="25" r="8" fill-opacity="0"/>\n\t<circle id="function random() { [native code] }:Atom:26" class="event" cx="17" cy="43" r="8" fill-opacity="0"/>\n\t<circle id="function random() { [native code] }:Atom:27" class="event" cx="40" cy="41" r="8" fill-opacity="0"/>\n\t<circle id="function random() { [native code] }:Atom:28" class="event" cx="57" cy="124" r="8" fill-opacity="0"/>\n\t<circle id="function random() { [native code] }:Atom:29" class="event" cx="175" cy="147" r="8" fill-opacity="0"/>\n</svg>