<svg id="function random() { [native code] }" xmlns="http://www.w3.org/2000/svg" version="1.1" width="200px" height="150px" viewBox="0 0 200 150">\n\t<style> #function random() { [native code] } {pointer-events:none; }  #function random() { [native code] } .event  { pointer-events:all;}  </style>\n\t<text x="188" y="121" font-family=" Helvetica" font-weight="900" font-size="11" fill="rgb(255,13,13)">O</text>\n\t<text x="109" y="94" font-family=" Helvetica" font-weight="900" font-size="11" fill="rgb(48,80,248)">N</text>\n\t<text x="78" y="112" font-family=" Helvetica" font-weight="900" font-size="11" fill="rgb(255,13,13)">O</text>\n\t<text x="62" y="85" font-family=" Helvetica" font-weight="900" font-size="11" fill="rgb(48,80,248)">N</text>\n\t<text x="62" y="74" font-family=" Helvetica" font-weight="900" font-size="11" fill="rgb(48,80,248)">H</text>\n\t<text x="15" y="94" font-family=" Helvetica" font-weight="900" font-size="11" fill="rgb(48,80,248)">N</text>\n\t<text x="11" y="97" font-family=" Helvetica" font-weight="900" font-size="7" fill="rgb(48,80,248)">2</text>\n\t<text x="3" y="94" font-family=" Helvetica" font-weight="900" font-size="11" fill="rgb(48,80,248)">H</text>\n\t<text x="139" y="54" font-family=" Helvetica" font-weight="900" font-size="11" fill="rgb(48,80,248)">N</text>\n\t<text x="147" y="54" font-family=" Helvetica" font-weight="900" font-size="11" fill="rgb(48,80,248)">H</text>\n\t<text x="156" y="139" font-family=" Helvetica" font-weight="900" font-size="11" fill="rgb(255,13,13)">O</text>\n\t<line x1="177" y1="91" x2="177" y2="109" style="stroke:rgb(0,0,0);stroke-width:1"/>\n\t<line x1="174" y1="93" x2="174" y2="107" style="stroke:rgb(0,0,0);stroke-width:1"/>\n\t<line x1="145" y1="91" x2="161" y2="82" style="stroke:rgb(0,0,0);stroke-width:1"/>\n\t<line x1="148" y1="92" x2="160" y2="85" style="stroke:rgb(0,0,0);stroke-width:1"/>\n\t<line x1="129" y1="82" x2="118" y2="88" style="stroke:rgb(0,0,0);stroke-width:1"/>\n\t<line x1="126" y1="80" x2="117" y2="86" style="stroke:rgb(0,0,0);stroke-width:1"/>\n\t<line x1="81" y1="90" x2="81" y2="104" style="stroke:rgb(0,0,0);stroke-width:1"/>\n\t<line x1="83" y1="90" x2="83" y2="104" style="stroke:rgb(0,0,0);stroke-width:1"/>\n\t<line x1="98" y1="64" x2="98" y2="82" style="stroke:rgb(0,0,0);stroke-width:1"/>\n\t<line x1="100" y1="66" x2="100" y2="80" style="stroke:rgb(0,0,0);stroke-width:1"/>\n\t<line x1="129" y1="64" x2="113" y2="55" style="stroke:rgb(0,0,0);stroke-width:1"/>\n\t<line x1="129" y1="60" x2="117" y2="53" style="stroke:rgb(0,0,0);stroke-width:1"/>\n\t<line x1="143" y1="18" x2="135" y2="35" style="stroke:rgb(0,0,0);stroke-width:1"/>\n\t<line x1="139" y1="19" x2="134" y2="32" style="stroke:rgb(0,0,0);stroke-width:1"/>\n\t<line x1="114" y1="5" x2="132" y2="3" style="stroke:rgb(0,0,0);stroke-width:1"/>\n\t<line x1="116" y1="8" x2="130" y2="6" style="stroke:rgb(0,0,0);stroke-width:1"/>\n\t<line x1="117" y1="37" x2="107" y2="22" style="stroke:rgb(0,0,0);stroke-width:1"/>\n\t<line x1="118" y1="34" x2="110" y2="22" style="stroke:rgb(0,0,0);stroke-width:1"/>\n\t<line x1="161" y1="118" x2="145" y2="109" style="stroke:rgb(0,0,0);stroke-width:1"/>\n\t<line x1="160" y1="115" x2="148" y2="108" style="stroke:rgb(0,0,0);stroke-width:1"/>\n\t<line x1="192" y1="123" x2="192" y2="136" style="stroke:rgb(0,0,0);stroke-width:1"/>\n\t<line x1="177" y1="109" x2="187" y2="115" style="stroke:rgb(0,0,0);stroke-width:1"/>\n\t<line x1="161" y1="82" x2="177" y2="91" style="stroke:rgb(0,0,0);stroke-width:1"/>\n\t<line x1="129" y1="82" x2="145" y2="91" style="stroke:rgb(0,0,0);stroke-width:1"/>\n\t<line x1="98" y1="82" x2="108" y2="88" style="stroke:rgb(0,0,0);stroke-width:1"/>\n\t<line x1="82" y1="91" x2="98" y2="82" style="stroke:rgb(0,0,0);stroke-width:1"/>\n\t<line x1="71" y1="85" x2="82" y2="91" style="stroke:rgb(0,0,0);stroke-width:1"/>\n\t<line x1="50" y1="91" x2="61" y2="85" style="stroke:rgb(0,0,0);stroke-width:1"/>\n\t<line x1="35" y1="82" x2="50" y2="91" style="stroke:rgb(0,0,0);stroke-width:1"/>\n\t<line x1="24" y1="88" x2="35" y2="82" style="stroke:rgb(0,0,0);stroke-width:1"/>\n\t<line x1="113" y1="55" x2="98" y2="64" style="stroke:rgb(0,0,0);stroke-width:1"/>\n\t<line x1="129" y1="64" x2="129" y2="82" style="stroke:rgb(0,0,0);stroke-width:1"/>\n\t<line x1="138" y1="56" x2="129" y2="64" style="stroke:rgb(0,0,0);stroke-width:1"/>\n\t<line x1="135" y1="35" x2="141" y2="46" style="stroke:rgb(0,0,0);stroke-width:1"/>\n\t<line x1="132" y1="3" x2="143" y2="18" style="stroke:rgb(0,0,0);stroke-width:1"/>\n\t<line x1="107" y1="22" x2="114" y2="5" style="stroke:rgb(0,0,0);stroke-width:1"/>\n\t<line x1="117" y1="37" x2="135" y2="35" style="stroke:rgb(0,0,0);stroke-width:1"/>\n\t<line x1="117" y1="37" x2="113" y2="55" style="stroke:rgb(0,0,0);stroke-width:1"/>\n\t<line x1="145" y1="109" x2="145" y2="91" style="stroke:rgb(0,0,0);stroke-width:1"/>\n\t<line x1="161" y1="118" x2="177" y2="109" style="stroke:rgb(0,0,0);stroke-width:1"/>\n\t<line x1="161" y1="131" x2="161" y2="118" style="stroke:rgb(0,0,0);stroke-width:1"/>\n\t<line x1="177" y1="146" x2="166" y2="140" style="stroke:rgb(0,0,0);stroke-width:1"/>\n\t<line id="function random() { [native code] }:Bond:3-2" class="event" x1="177" y1="91" x2="177" y2="109" stroke-width="8" stroke-opacity="0"/>\n\t<line id="function random() { [native code] }:Bond:5-4" class="event" x1="145" y1="91" x2="161" y2="82" stroke-width="8" stroke-opacity="0"/>\n\t<line id="function random() { [native code] }:Bond:7-6" class="event" x1="113" y1="91" x2="129" y2="82" stroke-width="8" stroke-opacity="0"/>\n\t<line id="function random() { [native code] }:Bond:10-9" class="event" x1="82" y1="109" x2="82" y2="91" stroke-width="8" stroke-opacity="0"/>\n\t<line id="function random() { [native code] }:Bond:15-8" class="event" x1="98" y1="64" x2="98" y2="82" stroke-width="8" stroke-opacity="0"/>\n\t<line id="function random() { [native code] }:Bond:17-16" class="event" x1="129" y1="64" x2="113" y2="55" stroke-width="8" stroke-opacity="0"/>\n\t<line id="function random() { [native code] }:Bond:20-19" class="event" x1="143" y1="18" x2="135" y2="35" stroke-width="8" stroke-opacity="0"/>\n\t<line id="function random() { [native code] }:Bond:22-21" class="event" x1="114" y1="5" x2="132" y2="3" stroke-width="8" stroke-opacity="0"/>\n\t<line id="function random() { [native code] }:Bond:24-23" class="event" x1="117" y1="37" x2="107" y2="22" stroke-width="8" stroke-opacity="0"/>\n\t<line id="function random() { [native code] }:Bond:26-25" class="event" x1="161" y1="118" x2="145" y2="109" stroke-width="8" stroke-opacity="0"/>\n\t<line id="function random() { [native code] }:Bond:1-0" class="event" x1="192" y1="118" x2="192" y2="136" stroke-width="8" stroke-opacity="0"/>\n\t<line id="function random() { [native code] }:Bond:2-1" class="event" x1="177" y1="109" x2="192" y2="118" stroke-width="8" stroke-opacity="0"/>\n\t<line id="function random() { [native code] }:Bond:4-3" class="event" x1="161" y1="82" x2="177" y2="91" stroke-width="8" stroke-opacity="0"/>\n\t<line id="function random() { [native code] }:Bond:6-5" class="event" x1="129" y1="82" x2="145" y2="91" stroke-width="8" stroke-opacity="0"/>\n\t<line id="function random() { [native code] }:Bond:8-7" class="event" x1="98" y1="82" x2="113" y2="91" stroke-width="8" stroke-opacity="0"/>\n\t<line id="function random() { [native code] }:Bond:9-8" class="event" x1="82" y1="91" x2="98" y2="82" stroke-width="8" stroke-opacity="0"/>\n\t<line id="function random() { [native code] }:Bond:11-9" class="event" x1="66" y1="82" x2="82" y2="91" stroke-width="8" stroke-opacity="0"/>\n\t<line id="function random() { [native code] }:Bond:12-11" class="event" x1="50" y1="91" x2="66" y2="82" stroke-width="8" stroke-opacity="0"/>\n\t<line id="function random() { [native code] }:Bond:13-12" class="event" x1="35" y1="82" x2="50" y2="91" stroke-width="8" stroke-opacity="0"/>\n\t<line id="function random() { [native code] }:Bond:14-13" class="event" x1="19" y1="91" x2="35" y2="82" stroke-width="8" stroke-opacity="0"/>\n\t<line id="function random() { [native code] }:Bond:16-15" class="event" x1="113" y1="55" x2="98" y2="64" stroke-width="8" stroke-opacity="0"/>\n\t<line id="function random() { [native code] }:Bond:17-6" class="event" x1="129" y1="64" x2="129" y2="82" stroke-width="8" stroke-opacity="0"/>\n\t<line id="function random() { [native code] }:Bond:18-17" class="event" x1="143" y1="51" x2="129" y2="64" stroke-width="8" stroke-opacity="0"/>\n\t<line id="function random() { [native code] }:Bond:19-18" class="event" x1="135" y1="35" x2="143" y2="51" stroke-width="8" stroke-opacity="0"/>\n\t<line id="function random() { [native code] }:Bond:21-20" class="event" x1="132" y1="3" x2="143" y2="18" stroke-width="8" stroke-opacity="0"/>\n\t<line id="function random() { [native code] }:Bond:23-22" class="event" x1="107" y1="22" x2="114" y2="5" stroke-width="8" stroke-opacity="0"/>\n\t<line id="function random() { [native code] }:Bond:24-19" class="event" x1="117" y1="37" x2="135" y2="35" stroke-width="8" stroke-opacity="0"/>\n\t<line id="function random() { [native code] }:Bond:24-16" class="event" x1="117" y1="37" x2="113" y2="55" stroke-width="8" stroke-opacity="0"/>\n\t<line id="function random() { [native code] }:Bond:25-5" class="event" x1="145" y1="109" x2="145" y2="91" stroke-width="8" stroke-opacity="0"/>\n\t<line id="function random() { [native code] }:Bond:26-2" class="event" x1="161" y1="118" x2="177" y2="109" stroke-width="8" stroke-opacity="0"/>\n\t<line id="function random() { [native code] }:Bond:27-26" class="event" x1="161" y1="136" x2="161" y2="118" stroke-width="8" stroke-opacity="0"/>\n\t<line id="function random() { [native code] }:Bond:28-27" class="event" x1="177" y1="146" x2="161" y2="136" stroke-width="8" stroke-opacity="0"/>\n\t<circle id="function random() { [native code] }:Atom:0" class="event" cx="192" cy="136" r="8" fill-opacity="0"/>\n\t<circle id="function random() { [native code] }:Atom:1" class="event" cx="192" cy="118" r="8" fill-opacity="0"/>\n\t<circle id="function random() { [native code] }:Atom:2" class="event" cx="177" cy="109" r="8" fill-opacity="0"/>\n\t<circle id="function random() { [native code] }:Atom:3" class="event" cx="177" cy="91" r="8" fill-opacity="0"/>\n\t<circle id="function random() { [native code] }:Atom:4" class="event" cx="161" cy="82" r="8" fill-opacity="0"/>\n\t<circle id="function random() { [native code] }:Atom:5" class="event" cx="145" cy="91" r="8" fill-opacity="0"/>\n\t<circle id="function random() { [native code] }:Atom:6" class="event" cx="129" cy="82" r="8" fill-opacity="0"/>\n\t<circle id="function random() { [native code] }:Atom:7" class="event" cx="113" cy="91" r="8" fill-opacity="0"/>\n\t<circle id="function random() { [native code] }:Atom:8" class="event" cx="98" cy="82" r="8" fill-opacity="0"/>\n\t<circle id="function random() { [native code] }:Atom:9" class="event" cx="82" cy="91" r="8" fill-opacity="0"/>\n\t<circle id="function random() { [native code] }:Atom:10" class="event" cx="82" cy="109" r="8" fill-opacity="0"/>\n\t<circle id="function random() { [native code] }:Atom:11" class="event" cx="66" cy="82" r="8" fill-opacity="0"/>\n\t<circle id="function random() { [native code] }:Atom:12" class="event" cx="50" cy="91" r="8" fill-opacity="0"/>\n\t<circle id="function random() { [native code] }:Atom:13" class="event" cx="35" cy="82" r="8" fill-opacity="0"/>\n\t<circle id="function random() { [native code] }:Atom:14" class="event" cx="19" cy="91" r="8" fill-opacity="0"/>\n\t<circle id="function random() { [native code] }:Atom:15" class="event" cx="98" cy="64" r="8" fill-opacity="0"/>\n\t<circle id="function random() { [native code] }:Atom:16" class="event" cx="113" cy="55" r="8" fill-opacity="0"/>\n\t<circle id="function random() { [native code] }:Atom:17" class="event" cx="129" cy="64" r="8" fill-opacity="0"/>\n\t<circle id="function random() { [native code] }:Atom:18" class="event" cx="143" cy="51" r="8" fill-opacity="0"/>\n\t<circle id="function random() { [native code] }:Atom:19" class="event" cx="135" cy="35" r="8" fill-opacity="0"/>\n\t<circle id="function random() { [native code] }:Atom:20" class="event" cx="143" cy="18" r="8" fill-opacity="0"/>\n\t<circle id="function random() { [native code] }:Atom:21" class="event" cx="132" cy="3" r="8" fill-opacity="0"/>\n\t<circle id="function random() { [native code] }:Atom:22" class="event" cx="114" cy="5" r="8" fill-opacity="0"/>\n\t<circle id="function random() { [native code] }:Atom:23" class="event" cx="107" cy="22" r="8" fill-opacity="0"/>\n\t<circle id="function random() { [native code] }:Atom:24" class="event" cx="117" cy="37" r="8" fill-opacity="0"/>\n\t<circle id="function random() { [native code] }:Atom:25" class="event" cx="145" cy="109" r="8" fill-opacity="0"/>\n\t<circle id="function random() { [native code] }:Atom:26" class="event" cx="161" cy="118" r="8" fill-opacity="0"/>\n\t<circle id="function random() { [native code] }:Atom:27" class="event" cx="161" cy="136" r="8" fill-opacity="0"/>\n\t<circle id="function random() { [native code] }:Atom:28" class="event" cx="177" cy="146" r="8" fill-opacity="0"/>\n</svg>