<svg id="function random() { [native code] }" xmlns="http://www.w3.org/2000/svg" version="1.1" width="200px" height="150px" viewBox="0 0 200 150">\n\t<style> #function random() { [native code] } {pointer-events:none; }  #function random() { [native code] } .event  { pointer-events:all;}  </style>\n\t<text x="177" y="59" font-family=" Helvetica" font-weight="900" font-size="11" fill="rgb(48,80,248)">N</text>\n\t<text x="193" y="62" font-family=" Helvetica" font-weight="900" font-size="7" fill="rgb(48,80,248)">2</text>\n\t<text x="185" y="59" font-family=" Helvetica" font-weight="900" font-size="11" fill="rgb(48,80,248)">H</text>\n\t<text x="129" y="68" font-family=" Helvetica" font-weight="900" font-size="11" fill="rgb(48,80,248)">N</text>\n\t<text x="129" y="79" font-family=" Helvetica" font-weight="900" font-size="11" fill="rgb(48,80,248)">H</text>\n\t<text x="113" y="41" font-family=" Helvetica" font-weight="900" font-size="11" fill="rgb(255,13,13)">O</text>\n\t<text x="81" y="59" font-family=" Helvetica" font-weight="900" font-size="11" fill="rgb(48,80,248)">N</text>\n\t<text x="32" y="13" font-family=" Helvetica" font-weight="900" font-size="11" fill="rgb(166,41,41)">Br</text>\n\t<text x="2" y="68" font-family=" Helvetica" font-weight="900" font-size="11" fill="rgb(144,224,80)">F</text>\n\t<text x="52" y="99" font-family=" Helvetica" font-weight="900" font-size="11" fill="rgb(48,80,248)">N</text>\n\t<text x="44" y="99" font-family=" Helvetica" font-weight="900" font-size="11" fill="rgb(48,80,248)">H</text>\n\t<line x1="119" y1="57" x2="119" y2="43" style="stroke:rgb(0,0,0);stroke-width:1"/>\n\t<line x1="116" y1="57" x2="116" y2="43" style="stroke:rgb(0,0,0);stroke-width:1"/>\n\t<line x1="101" y1="65" x2="90" y2="59" style="stroke:rgb(0,0,0);stroke-width:1"/>\n\t<line x1="98" y1="67" x2="89" y2="61" style="stroke:rgb(0,0,0);stroke-width:1"/>\n\t<line x1="53" y1="38" x2="53" y2="56" style="stroke:rgb(0,0,0);stroke-width:1"/>\n\t<line x1="51" y1="39" x2="51" y2="54" style="stroke:rgb(0,0,0);stroke-width:1"/>\n\t<line x1="21" y1="38" x2="37" y2="28" style="stroke:rgb(0,0,0);stroke-width:1"/>\n\t<line x1="25" y1="39" x2="37" y2="32" style="stroke:rgb(0,0,0);stroke-width:1"/>\n\t<line x1="37" y1="65" x2="21" y2="56" style="stroke:rgb(0,0,0);stroke-width:1"/>\n\t<line x1="37" y1="62" x2="25" y2="55" style="stroke:rgb(0,0,0);stroke-width:1"/>\n\t<line x1="69" y1="84" x2="69" y2="65" style="stroke:rgb(0,0,0);stroke-width:1"/>\n\t<line x1="72" y1="82" x2="72" y2="67" style="stroke:rgb(0,0,0);stroke-width:1"/>\n\t<line x1="82" y1="111" x2="63" y2="113" style="stroke:rgb(0,0,0);stroke-width:1"/>\n\t<line x1="79" y1="108" x2="65" y2="110" style="stroke:rgb(0,0,0);stroke-width:1"/>\n\t<line x1="85" y1="143" x2="92" y2="126" style="stroke:rgb(0,0,0);stroke-width:1"/>\n\t<line x1="83" y1="140" x2="89" y2="126" style="stroke:rgb(0,0,0);stroke-width:1"/>\n\t<line x1="56" y1="130" x2="67" y2="145" style="stroke:rgb(0,0,0);stroke-width:1"/>\n\t<line x1="59" y1="130" x2="68" y2="141" style="stroke:rgb(0,0,0);stroke-width:1"/>\n\t<line x1="101" y1="84" x2="85" y2="93" style="stroke:rgb(0,0,0);stroke-width:1"/>\n\t<line x1="98" y1="82" x2="86" y2="89" style="stroke:rgb(0,0,0);stroke-width:1"/>\n\t<line x1="165" y1="65" x2="176" y2="59" style="stroke:rgb(0,0,0);stroke-width:1"/>\n\t<line x1="149" y1="56" x2="165" y2="65" style="stroke:rgb(0,0,0);stroke-width:1"/>\n\t<line x1="138" y1="62" x2="149" y2="56" style="stroke:rgb(0,0,0);stroke-width:1"/>\n\t<line x1="117" y1="56" x2="128" y2="62" style="stroke:rgb(0,0,0);stroke-width:1"/>\n\t<line x1="101" y1="65" x2="117" y2="56" style="stroke:rgb(0,0,0);stroke-width:1"/>\n\t<line x1="69" y1="65" x2="80" y2="59" style="stroke:rgb(0,0,0);stroke-width:1"/>\n\t<line x1="53" y1="56" x2="69" y2="65" style="stroke:rgb(0,0,0);stroke-width:1"/>\n\t<line x1="37" y1="28" x2="53" y2="38" style="stroke:rgb(0,0,0);stroke-width:1"/>\n\t<line x1="37" y1="15" x2="37" y2="28" style="stroke:rgb(0,0,0);stroke-width:1"/>\n\t<line x1="21" y1="56" x2="21" y2="38" style="stroke:rgb(0,0,0);stroke-width:1"/>\n\t<line x1="10" y1="63" x2="21" y2="56" style="stroke:rgb(0,0,0);stroke-width:1"/>\n\t<line x1="37" y1="65" x2="53" y2="56" style="stroke:rgb(0,0,0);stroke-width:1"/>\n\t<line x1="61" y1="91" x2="69" y2="84" style="stroke:rgb(0,0,0);stroke-width:1"/>\n\t<line x1="63" y1="113" x2="58" y2="101" style="stroke:rgb(0,0,0);stroke-width:1"/>\n\t<line x1="92" y1="126" x2="82" y2="111" style="stroke:rgb(0,0,0);stroke-width:1"/>\n\t<line x1="67" y1="145" x2="85" y2="143" style="stroke:rgb(0,0,0);stroke-width:1"/>\n\t<line x1="56" y1="130" x2="63" y2="113" style="stroke:rgb(0,0,0);stroke-width:1"/>\n\t<line x1="85" y1="93" x2="82" y2="111" style="stroke:rgb(0,0,0);stroke-width:1"/>\n\t<line x1="85" y1="93" x2="69" y2="84" style="stroke:rgb(0,0,0);stroke-width:1"/>\n\t<line x1="101" y1="84" x2="101" y2="65" style="stroke:rgb(0,0,0);stroke-width:1"/>\n\t<line id="function random() { [native code] }:Bond:5-4" class="event" x1="117" y1="38" x2="117" y2="56" stroke-width="8" stroke-opacity="0"/>\n\t<line id="function random() { [native code] }:Bond:7-6" class="event" x1="85" y1="56" x2="101" y2="65" stroke-width="8" stroke-opacity="0"/>\n\t<line id="function random() { [native code] }:Bond:10-9" class="event" x1="53" y1="38" x2="53" y2="56" stroke-width="8" stroke-opacity="0"/>\n\t<line id="function random() { [native code] }:Bond:13-11" class="event" x1="21" y1="38" x2="37" y2="28" stroke-width="8" stroke-opacity="0"/>\n\t<line id="function random() { [native code] }:Bond:16-14" class="event" x1="37" y1="65" x2="21" y2="56" stroke-width="8" stroke-opacity="0"/>\n\t<line id="function random() { [native code] }:Bond:17-8" class="event" x1="69" y1="84" x2="69" y2="65" stroke-width="8" stroke-opacity="0"/>\n\t<line id="function random() { [native code] }:Bond:20-19" class="event" x1="82" y1="111" x2="63" y2="113" stroke-width="8" stroke-opacity="0"/>\n\t<line id="function random() { [native code] }:Bond:22-21" class="event" x1="85" y1="143" x2="92" y2="126" stroke-width="8" stroke-opacity="0"/>\n\t<line id="function random() { [native code] }:Bond:24-23" class="event" x1="56" y1="130" x2="67" y2="145" stroke-width="8" stroke-opacity="0"/>\n\t<line id="function random() { [native code] }:Bond:26-25" class="event" x1="101" y1="84" x2="85" y2="93" stroke-width="8" stroke-opacity="0"/>\n\t<line id="function random() { [native code] }:Bond:1-0" class="event" x1="165" y1="65" x2="181" y2="56" stroke-width="8" stroke-opacity="0"/>\n\t<line id="function random() { [native code] }:Bond:2-1" class="event" x1="149" y1="56" x2="165" y2="65" stroke-width="8" stroke-opacity="0"/>\n\t<line id="function random() { [native code] }:Bond:3-2" class="event" x1="133" y1="65" x2="149" y2="56" stroke-width="8" stroke-opacity="0"/>\n\t<line id="function random() { [native code] }:Bond:4-3" class="event" x1="117" y1="56" x2="133" y2="65" stroke-width="8" stroke-opacity="0"/>\n\t<line id="function random() { [native code] }:Bond:6-4" class="event" x1="101" y1="65" x2="117" y2="56" stroke-width="8" stroke-opacity="0"/>\n\t<line id="function random() { [native code] }:Bond:8-7" class="event" x1="69" y1="65" x2="85" y2="56" stroke-width="8" stroke-opacity="0"/>\n\t<line id="function random() { [native code] }:Bond:9-8" class="event" x1="53" y1="56" x2="69" y2="65" stroke-width="8" stroke-opacity="0"/>\n\t<line id="function random() { [native code] }:Bond:11-10" class="event" x1="37" y1="28" x2="53" y2="38" stroke-width="8" stroke-opacity="0"/>\n\t<line id="function random() { [native code] }:Bond:12-11" class="event" x1="37" y1="10" x2="37" y2="28" stroke-width="8" stroke-opacity="0"/>\n\t<line id="function random() { [native code] }:Bond:14-13" class="event" x1="21" y1="56" x2="21" y2="38" stroke-width="8" stroke-opacity="0"/>\n\t<line id="function random() { [native code] }:Bond:15-14" class="event" x1="6" y1="65" x2="21" y2="56" stroke-width="8" stroke-opacity="0"/>\n\t<line id="function random() { [native code] }:Bond:16-9" class="event" x1="37" y1="65" x2="53" y2="56" stroke-width="8" stroke-opacity="0"/>\n\t<line id="function random() { [native code] }:Bond:18-17" class="event" x1="56" y1="96" x2="69" y2="84" stroke-width="8" stroke-opacity="0"/>\n\t<line id="function random() { [native code] }:Bond:19-18" class="event" x1="63" y1="113" x2="56" y2="96" stroke-width="8" stroke-opacity="0"/>\n\t<line id="function random() { [native code] }:Bond:21-20" class="event" x1="92" y1="126" x2="82" y2="111" stroke-width="8" stroke-opacity="0"/>\n\t<line id="function random() { [native code] }:Bond:23-22" class="event" x1="67" y1="145" x2="85" y2="143" stroke-width="8" stroke-opacity="0"/>\n\t<line id="function random() { [native code] }:Bond:24-19" class="event" x1="56" y1="130" x2="63" y2="113" stroke-width="8" stroke-opacity="0"/>\n\t<line id="function random() { [native code] }:Bond:25-20" class="event" x1="85" y1="93" x2="82" y2="111" stroke-width="8" stroke-opacity="0"/>\n\t<line id="function random() { [native code] }:Bond:25-17" class="event" x1="85" y1="93" x2="69" y2="84" stroke-width="8" stroke-opacity="0"/>\n\t<line id="function random() { [native code] }:Bond:26-6" class="event" x1="101" y1="84" x2="101" y2="65" stroke-width="8" stroke-opacity="0"/>\n\t<circle id="function random() { [native code] }:Atom:0" class="event" cx="181" cy="56" r="8" fill-opacity="0"/>\n\t<circle id="function random() { [native code] }:Atom:1" class="event" cx="165" cy="65" r="8" fill-opacity="0"/>\n\t<circle id="function random() { [native code] }:Atom:2" class="event" cx="149" cy="56" r="8" fill-opacity="0"/>\n\t<circle id="function random() { [native code] }:Atom:3" class="event" cx="133" cy="65" r="8" fill-opacity="0"/>\n\t<circle id="function random() { [native code] }:Atom:4" class="event" cx="117" cy="56" r="8" fill-opacity="0"/>\n\t<circle id="function random() { [native code] }:Atom:5" class="event" cx="117" cy="38" r="8" fill-opacity="0"/>\n\t<circle id="function random() { [native code] }:Atom:6" class="event" cx="101" cy="65" r="8" fill-opacity="0"/>\n\t<circle id="function random() { [native code] }:Atom:7" class="event" cx="85" cy="56" r="8" fill-opacity="0"/>\n\t<circle id="function random() { [native code] }:Atom:8" class="event" cx="69" cy="65" r="8" fill-opacity="0"/>\n\t<circle id="function random() { [native code] }:Atom:9" class="event" cx="53" cy="56" r="8" fill-opacity="0"/>\n\t<circle id="function random() { [native code] }:Atom:10" class="event" cx="53" cy="38" r="8" fill-opacity="0"/>\n\t<circle id="function random() { [native code] }:Atom:11" class="event" cx="37" cy="28" r="8" fill-opacity="0"/>\n\t<circle id="function random() { [native code] }:Atom:12" class="event" cx="37" cy="10" r="8" fill-opacity="0"/>\n\t<circle id="function random() { [native code] }:Atom:13" class="event" cx="21" cy="38" r="8" fill-opacity="0"/>\n\t<circle id="function random() { [native code] }:Atom:14" class="event" cx="21" cy="56" r="8" fill-opacity="0"/>\n\t<circle id="function random() { [native code] }:Atom:15" class="event" cx="6" cy="65" r="8" fill-opacity="0"/>\n\t<circle id="function random() { [native code] }:Atom:16" class="event" cx="37" cy="65" r="8" fill-opacity="0"/>\n\t<circle id="function random() { [native code] }:Atom:17" class="event" cx="69" cy="84" r="8" fill-opacity="0"/>\n\t<circle id="function random() { [native code] }:Atom:18" class="event" cx="56" cy="96" r="8" fill-opacity="0"/>\n\t<circle id="function random() { [native code] }:Atom:19" class="event" cx="63" cy="113" r="8" fill-opacity="0"/>\n\t<circle id="function random() { [native code] }:Atom:20" class="event" cx="82" cy="111" r="8" fill-opacity="0"/>\n\t<circle id="function random() { [native code] }:Atom:21" class="event" cx="92" cy="126" r="8" fill-opacity="0"/>\n\t<circle id="function random() { [native code] }:Atom:22" class="event" cx="85" cy="143" r="8" fill-opacity="0"/>\n\t<circle id="function random() { [native code] }:Atom:23" class="event" cx="67" cy="145" r="8" fill-opacity="0"/>\n\t<circle id="function random() { [native code] }:Atom:24" class="event" cx="56" cy="130" r="8" fill-opacity="0"/>\n\t<circle id="function random() { [native code] }:Atom:25" class="event" cx="85" cy="93" r="8" fill-opacity="0"/>\n\t<circle id="function random() { [native code] }:Atom:26" class="event" cx="101" cy="84" r="8" fill-opacity="0"/>\n</svg>