<svg id="function random() { [native code] }" xmlns="http://www.w3.org/2000/svg" version="1.1" width="200px" height="150px" viewBox="0 0 200 150">\n\t<style> #function random() { [native code] } {pointer-events:none; }  #function random() { [native code] } .event  { pointer-events:all;}  </style>\n\t<text x="138" y="126" font-family=" Helvetica" font-weight="900" font-size="11" fill="rgb(48,80,248)">N</text>\n\t<text x="153" y="129" font-family=" Helvetica" font-weight="900" font-size="7" fill="rgb(48,80,248)">2</text>\n\t<text x="146" y="126" font-family=" Helvetica" font-weight="900" font-size="11" fill="rgb(48,80,248)">H</text>\n\t<text x="91" y="135" font-family=" Helvetica" font-weight="900" font-size="11" fill="rgb(48,80,248)">N</text>\n\t<text x="91" y="146" font-family=" Helvetica" font-weight="900" font-size="11" fill="rgb(48,80,248)">H</text>\n\t<text x="91" y="99" font-family=" Helvetica" font-weight="900" font-size="11" fill="rgb(48,80,248)">N</text>\n\t<text x="163" y="65" font-family=" Helvetica" font-weight="900" font-size="11" fill="rgb(144,224,80)">F</text>\n\t<text x="169" y="90" font-family=" Helvetica" font-weight="900" font-size="11" fill="rgb(144,224,80)">F</text>\n\t<text x="145" y="97" font-family=" Helvetica" font-weight="900" font-size="11" fill="rgb(144,224,80)">F</text>\n\t<text x="105" y="27" font-family=" Helvetica" font-weight="900" font-size="11" fill="rgb(144,224,80)">F</text>\n\t<text x="123" y="9" font-family=" Helvetica" font-weight="900" font-size="11" fill="rgb(144,224,80)">F</text>\n\t<text x="141" y="27" font-family=" Helvetica" font-weight="900" font-size="11" fill="rgb(144,224,80)">F</text>\n\t<text x="72" y="55" font-family=" Helvetica" font-weight="900" font-size="11" fill="rgb(48,80,248)">N</text>\n\t<text x="80" y="55" font-family=" Helvetica" font-weight="900" font-size="11" fill="rgb(48,80,248)">H</text>\n\t<text x="60" y="135" font-family=" Helvetica" font-weight="900" font-size="11" fill="rgb(255,13,13)">O</text>\n\t<line x1="79" y1="105" x2="90" y2="99" style="stroke:rgb(0,0,0);stroke-width:1"/>\n\t<line x1="80" y1="102" x2="89" y2="96" style="stroke:rgb(0,0,0);stroke-width:1"/>\n\t<line x1="126" y1="78" x2="111" y2="69" style="stroke:rgb(0,0,0);stroke-width:1"/>\n\t<line x1="126" y1="75" x2="114" y2="68" style="stroke:rgb(0,0,0);stroke-width:1"/>\n\t<line x1="142" y1="51" x2="142" y2="69" style="stroke:rgb(0,0,0);stroke-width:1"/>\n\t<line x1="139" y1="53" x2="139" y2="67" style="stroke:rgb(0,0,0);stroke-width:1"/>\n\t<line x1="111" y1="51" x2="126" y2="42" style="stroke:rgb(0,0,0);stroke-width:1"/>\n\t<line x1="114" y1="53" x2="126" y2="45" style="stroke:rgb(0,0,0);stroke-width:1"/>\n\t<line x1="79" y1="69" x2="95" y2="78" style="stroke:rgb(0,0,0);stroke-width:1"/>\n\t<line x1="80" y1="72" x2="92" y2="79" style="stroke:rgb(0,0,0);stroke-width:1"/>\n\t<line x1="47" y1="35" x2="58" y2="50" style="stroke:rgb(0,0,0);stroke-width:1"/>\n\t<line x1="46" y1="38" x2="55" y2="50" style="stroke:rgb(0,0,0);stroke-width:1"/>\n\t<line x1="22" y1="53" x2="30" y2="37" style="stroke:rgb(0,0,0);stroke-width:1"/>\n\t<line x1="25" y1="53" x2="31" y2="40" style="stroke:rgb(0,0,0);stroke-width:1"/>\n\t<line x1="51" y1="66" x2="33" y2="68" style="stroke:rgb(0,0,0);stroke-width:1"/>\n\t<line x1="48" y1="64" x2="34" y2="65" style="stroke:rgb(0,0,0);stroke-width:1"/>\n\t<line x1="64" y1="96" x2="64" y2="78" style="stroke:rgb(0,0,0);stroke-width:1"/>\n\t<line x1="67" y1="94" x2="67" y2="80" style="stroke:rgb(0,0,0);stroke-width:1"/>\n\t<line x1="79" y1="121" x2="69" y2="128" style="stroke:rgb(0,0,0);stroke-width:1"/>\n\t<line x1="81" y1="124" x2="70" y2="130" style="stroke:rgb(0,0,0);stroke-width:1"/>\n\t<line x1="126" y1="132" x2="137" y2="126" style="stroke:rgb(0,0,0);stroke-width:1"/>\n\t<line x1="111" y1="123" x2="126" y2="132" style="stroke:rgb(0,0,0);stroke-width:1"/>\n\t<line x1="100" y1="129" x2="111" y2="123" style="stroke:rgb(0,0,0);stroke-width:1"/>\n\t<line x1="79" y1="123" x2="90" y2="129" style="stroke:rgb(0,0,0);stroke-width:1"/>\n\t<line x1="79" y1="105" x2="79" y2="123" style="stroke:rgb(0,0,0);stroke-width:1"/>\n\t<line x1="95" y1="78" x2="95" y2="91" style="stroke:rgb(0,0,0);stroke-width:1"/>\n\t<line x1="111" y1="69" x2="95" y2="78" style="stroke:rgb(0,0,0);stroke-width:1"/>\n\t<line x1="142" y1="69" x2="126" y2="78" style="stroke:rgb(0,0,0);stroke-width:1"/>\n\t<line x1="157" y1="78" x2="142" y2="69" style="stroke:rgb(0,0,0);stroke-width:1"/>\n\t<line x1="163" y1="67" x2="157" y2="78" style="stroke:rgb(0,0,0);stroke-width:1"/>\n\t<line x1="168" y1="84" x2="157" y2="78" style="stroke:rgb(0,0,0);stroke-width:1"/>\n\t<line x1="151" y1="89" x2="157" y2="78" style="stroke:rgb(0,0,0);stroke-width:1"/>\n\t<line x1="126" y1="42" x2="142" y2="51" style="stroke:rgb(0,0,0);stroke-width:1"/>\n\t<line x1="126" y1="24" x2="126" y2="42" style="stroke:rgb(0,0,0);stroke-width:1"/>\n\t<line x1="112" y1="24" x2="126" y2="24" style="stroke:rgb(0,0,0);stroke-width:1"/>\n\t<line x1="126" y1="11" x2="126" y2="24" style="stroke:rgb(0,0,0);stroke-width:1"/>\n\t<line x1="140" y1="24" x2="126" y2="24" style="stroke:rgb(0,0,0);stroke-width:1"/>\n\t<line x1="111" y1="51" x2="111" y2="69" style="stroke:rgb(0,0,0);stroke-width:1"/>\n\t<line x1="77" y1="57" x2="79" y2="69" style="stroke:rgb(0,0,0);stroke-width:1"/>\n\t<line x1="58" y1="50" x2="71" y2="51" style="stroke:rgb(0,0,0);stroke-width:1"/>\n\t<line x1="30" y1="37" x2="47" y2="35" style="stroke:rgb(0,0,0);stroke-width:1"/>\n\t<line x1="33" y1="68" x2="22" y2="53" style="stroke:rgb(0,0,0);stroke-width:1"/>\n\t<line x1="51" y1="66" x2="58" y2="50" style="stroke:rgb(0,0,0);stroke-width:1"/>\n\t<line x1="64" y1="78" x2="51" y2="66" style="stroke:rgb(0,0,0);stroke-width:1"/>\n\t<line x1="64" y1="78" x2="79" y2="69" style="stroke:rgb(0,0,0);stroke-width:1"/>\n\t<line x1="64" y1="96" x2="79" y2="105" style="stroke:rgb(0,0,0);stroke-width:1"/>\n\t<line id="function random() { [native code] }:Bond:6-5" class="event" x1="95" y1="96" x2="79" y2="105" stroke-width="8" stroke-opacity="0"/>\n\t<line id="function random() { [native code] }:Bond:9-8" class="event" x1="126" y1="78" x2="111" y2="69" stroke-width="8" stroke-opacity="0"/>\n\t<line id="function random() { [native code] }:Bond:15-10" class="event" x1="142" y1="51" x2="142" y2="69" stroke-width="8" stroke-opacity="0"/>\n\t<line id="function random() { [native code] }:Bond:21-16" class="event" x1="111" y1="51" x2="126" y2="42" stroke-width="8" stroke-opacity="0"/>\n\t<line id="function random() { [native code] }:Bond:22-7" class="event" x1="79" y1="69" x2="95" y2="78" stroke-width="8" stroke-opacity="0"/>\n\t<line id="function random() { [native code] }:Bond:25-24" class="event" x1="47" y1="35" x2="58" y2="50" stroke-width="8" stroke-opacity="0"/>\n\t<line id="function random() { [native code] }:Bond:27-26" class="event" x1="22" y1="53" x2="30" y2="37" stroke-width="8" stroke-opacity="0"/>\n\t<line id="function random() { [native code] }:Bond:29-28" class="event" x1="51" y1="66" x2="33" y2="68" stroke-width="8" stroke-opacity="0"/>\n\t<line id="function random() { [native code] }:Bond:31-30" class="event" x1="64" y1="96" x2="64" y2="78" stroke-width="8" stroke-opacity="0"/>\n\t<line id="function random() { [native code] }:Bond:32-4" class="event" x1="64" y1="132" x2="79" y2="123" stroke-width="8" stroke-opacity="0"/>\n\t<line id="function random() { [native code] }:Bond:1-0" class="event" x1="126" y1="132" x2="142" y2="123" stroke-width="8" stroke-opacity="0"/>\n\t<line id="function random() { [native code] }:Bond:2-1" class="event" x1="111" y1="123" x2="126" y2="132" stroke-width="8" stroke-opacity="0"/>\n\t<line id="function random() { [native code] }:Bond:3-2" class="event" x1="95" y1="132" x2="111" y2="123" stroke-width="8" stroke-opacity="0"/>\n\t<line id="function random() { [native code] }:Bond:4-3" class="event" x1="79" y1="123" x2="95" y2="132" stroke-width="8" stroke-opacity="0"/>\n\t<line id="function random() { [native code] }:Bond:5-4" class="event" x1="79" y1="105" x2="79" y2="123" stroke-width="8" stroke-opacity="0"/>\n\t<line id="function random() { [native code] }:Bond:7-6" class="event" x1="95" y1="78" x2="95" y2="96" stroke-width="8" stroke-opacity="0"/>\n\t<line id="function random() { [native code] }:Bond:8-7" class="event" x1="111" y1="69" x2="95" y2="78" stroke-width="8" stroke-opacity="0"/>\n\t<line id="function random() { [native code] }:Bond:10-9" class="event" x1="142" y1="69" x2="126" y2="78" stroke-width="8" stroke-opacity="0"/>\n\t<line id="function random() { [native code] }:Bond:11-10" class="event" x1="157" y1="78" x2="142" y2="69" stroke-width="8" stroke-opacity="0"/>\n\t<line id="function random() { [native code] }:Bond:12-11" class="event" x1="166" y1="62" x2="157" y2="78" stroke-width="8" stroke-opacity="0"/>\n\t<line id="function random() { [native code] }:Bond:13-11" class="event" x1="173" y1="87" x2="157" y2="78" stroke-width="8" stroke-opacity="0"/>\n\t<line id="function random() { [native code] }:Bond:14-11" class="event" x1="148" y1="94" x2="157" y2="78" stroke-width="8" stroke-opacity="0"/>\n\t<line id="function random() { [native code] }:Bond:16-15" class="event" x1="126" y1="42" x2="142" y2="51" stroke-width="8" stroke-opacity="0"/>\n\t<line id="function random() { [native code] }:Bond:17-16" class="event" x1="126" y1="24" x2="126" y2="42" stroke-width="8" stroke-opacity="0"/>\n\t<line id="function random() { [native code] }:Bond:18-17" class="event" x1="108" y1="24" x2="126" y2="24" stroke-width="8" stroke-opacity="0"/>\n\t<line id="function random() { [native code] }:Bond:19-17" class="event" x1="126" y1="6" x2="126" y2="24" stroke-width="8" stroke-opacity="0"/>\n\t<line id="function random() { [native code] }:Bond:20-17" class="event" x1="144" y1="24" x2="126" y2="24" stroke-width="8" stroke-opacity="0"/>\n\t<line id="function random() { [native code] }:Bond:21-8" class="event" x1="111" y1="51" x2="111" y2="69" stroke-width="8" stroke-opacity="0"/>\n\t<line id="function random() { [native code] }:Bond:23-22" class="event" x1="76" y1="52" x2="79" y2="69" stroke-width="8" stroke-opacity="0"/>\n\t<line id="function random() { [native code] }:Bond:24-23" class="event" x1="58" y1="50" x2="76" y2="52" stroke-width="8" stroke-opacity="0"/>\n\t<line id="function random() { [native code] }:Bond:26-25" class="event" x1="30" y1="37" x2="47" y2="35" stroke-width="8" stroke-opacity="0"/>\n\t<line id="function random() { [native code] }:Bond:28-27" class="event" x1="33" y1="68" x2="22" y2="53" stroke-width="8" stroke-opacity="0"/>\n\t<line id="function random() { [native code] }:Bond:29-24" class="event" x1="51" y1="66" x2="58" y2="50" stroke-width="8" stroke-opacity="0"/>\n\t<line id="function random() { [native code] }:Bond:30-29" class="event" x1="64" y1="78" x2="51" y2="66" stroke-width="8" stroke-opacity="0"/>\n\t<line id="function random() { [native code] }:Bond:30-22" class="event" x1="64" y1="78" x2="79" y2="69" stroke-width="8" stroke-opacity="0"/>\n\t<line id="function random() { [native code] }:Bond:31-5" class="event" x1="64" y1="96" x2="79" y2="105" stroke-width="8" stroke-opacity="0"/>\n\t<circle id="function random() { [native code] }:Atom:0" class="event" cx="142" cy="123" r="8" fill-opacity="0"/>\n\t<circle id="function random() { [native code] }:Atom:1" class="event" cx="126" cy="132" r="8" fill-opacity="0"/>\n\t<circle id="function random() { [native code] }:Atom:2" class="event" cx="111" cy="123" r="8" fill-opacity="0"/>\n\t<circle id="function random() { [native code] }:Atom:3" class="event" cx="95" cy="132" r="8" fill-opacity="0"/>\n\t<circle id="function random() { [native code] }:Atom:4" class="event" cx="79" cy="123" r="8" fill-opacity="0"/>\n\t<circle id="function random() { [native code] }:Atom:5" class="event" cx="79" cy="105" r="8" fill-opacity="0"/>\n\t<circle id="function random() { [native code] }:Atom:6" class="event" cx="95" cy="96" r="8" fill-opacity="0"/>\n\t<circle id="function random() { [native code] }:Atom:7" class="event" cx="95" cy="78" r="8" fill-opacity="0"/>\n\t<circle id="function random() { [native code] }:Atom:8" class="event" cx="111" cy="69" r="8" fill-opacity="0"/>\n\t<circle id="function random() { [native code] }:Atom:9" class="event" cx="126" cy="78" r="8" fill-opacity="0"/>\n\t<circle id="function random() { [native code] }:Atom:10" class="event" cx="142" cy="69" r="8" fill-opacity="0"/>\n\t<circle id="function random() { [native code] }:Atom:11" class="event" cx="157" cy="78" r="8" fill-opacity="0"/>\n\t<circle id="function random() { [native code] }:Atom:12" class="event" cx="166" cy="62" r="8" fill-opacity="0"/>\n\t<circle id="function random() { [native code] }:Atom:13" class="event" cx="173" cy="87" r="8" fill-opacity="0"/>\n\t<circle id="function random() { [native code] }:Atom:14" class="event" cx="148" cy="94" r="8" fill-opacity="0"/>\n\t<circle id="function random() { [native code] }:Atom:15" class="event" cx="142" cy="51" r="8" fill-opacity="0"/>\n\t<circle id="function random() { [native code] }:Atom:16" class="event" cx="126" cy="42" r="8" fill-opacity="0"/>\n\t<circle id="function random() { [native code] }:Atom:17" class="event" cx="126" cy="24" r="8" fill-opacity="0"/>\n\t<circle id="function random() { [native code] }:Atom:18" class="event" cx="108" cy="24" r="8" fill-opacity="0"/>\n\t<circle id="function random() { [native code] }:Atom:19" class="event" cx="126" cy="6" r="8" fill-opacity="0"/>\n\t<circle id="function random() { [native code] }:Atom:20" class="event" cx="144" cy="24" r="8" fill-opacity="0"/>\n\t<circle id="function random() { [native code] }:Atom:21" class="event" cx="111" cy="51" r="8" fill-opacity="0"/>\n\t<circle id="function random() { [native code] }:Atom:22" class="event" cx="79" cy="69" r="8" fill-opacity="0"/>\n\t<circle id="function random() { [native code] }:Atom:23" class="event" cx="76" cy="52" r="8" fill-opacity="0"/>\n\t<circle id="function random() { [native code] }:Atom:24" class="event" cx="58" cy="50" r="8" fill-opacity="0"/>\n\t<circle id="function random() { [native code] }:Atom:25" class="event" cx="47" cy="35" r="8" fill-opacity="0"/>\n\t<circle id="function random() { [native code] }:Atom:26" class="event" cx="30" cy="37" r="8" fill-opacity="0"/>\n\t<circle id="function random() { [native code] }:Atom:27" class="event" cx="22" cy="53" r="8" fill-opacity="0"/>\n\t<circle id="function random() { [native code] }:Atom:28" class="event" cx="33" cy="68" r="8" fill-opacity="0"/>\n\t<circle id="function random() { [native code] }:Atom:29" class="event" cx="51" cy="66" r="8" fill-opacity="0"/>\n\t<circle id="function random() { [native code] }:Atom:30" class="event" cx="64" cy="78" r="8" fill-opacity="0"/>\n\t<circle id="function random() { [native code] }:Atom:31" class="event" cx="64" cy="96" r="8" fill-opacity="0"/>\n\t<circle id="function random() { [native code] }:Atom:32" class="event" cx="64" cy="132" r="8" fill-opacity="0"/>\n</svg>