<svg id="function random() { [native code] }" xmlns="http://www.w3.org/2000/svg" version="1.1" width="200px" height="150px" viewBox="0 0 200 150">\n\t<style> #function random() { [native code] } {pointer-events:none; }  #function random() { [native code] } .event  { pointer-events:all;}  </style>\n\t<text x="140" y="23" font-family=" Helvetica" font-weight="900" font-size="12" fill="rgb(255,13,13)">O</text>\n\t<text x="105" y="23" font-family=" Helvetica" font-weight="900" font-size="12" fill="rgb(48,80,248)">N</text>\n\t<text x="105" y="11" font-family=" Helvetica" font-weight="900" font-size="12" fill="rgb(48,80,248)">H</text>\n\t<text x="52" y="34" font-family=" Helvetica" font-weight="900" font-size="12" fill="rgb(48,80,248)">N</text>\n\t<text x="17" y="54" font-family=" Helvetica" font-weight="900" font-size="12" fill="rgb(48,80,248)">N</text>\n\t<text x="8" y="54" font-family=" Helvetica" font-weight="900" font-size="12" fill="rgb(48,80,248)">H</text>\n\t<text x="105" y="64" font-family=" Helvetica" font-weight="900" font-size="12" fill="rgb(48,80,248)">N</text>\n\t<text x="33" y="125" font-family=" Helvetica" font-weight="900" font-size="12" fill="rgb(31,240,31)">Cl</text>\n\t<text x="68" y="145" font-family=" Helvetica" font-weight="900" font-size="12" fill="rgb(31,240,31)">Cl</text>\n\t<text x="127" y="115" font-family=" Helvetica" font-weight="900" font-size="12" fill="rgb(48,80,248)">N</text>\n\t<text x="118" y="115" font-family=" Helvetica" font-weight="900" font-size="12" fill="rgb(48,80,248)">H</text>\n\t<line x1="127" y1="31" x2="139" y2="24" style="stroke:rgb(0,0,0);stroke-width:1"/>\n\t<line x1="125" y1="29" x2="138" y2="21" style="stroke:rgb(0,0,0);stroke-width:1"/>\n\t<line x1="127" y1="50" x2="114" y2="57" style="stroke:rgb(0,0,0);stroke-width:1"/>\n\t<line x1="126" y1="54" x2="116" y2="60" style="stroke:rgb(0,0,0);stroke-width:1"/>\n\t<line x1="74" y1="80" x2="92" y2="91" style="stroke:rgb(0,0,0);stroke-width:1"/>\n\t<line x1="74" y1="84" x2="88" y2="92" style="stroke:rgb(0,0,0);stroke-width:1"/>\n\t<line x1="56" y1="111" x2="56" y2="91" style="stroke:rgb(0,0,0);stroke-width:1"/>\n\t<line x1="59" y1="109" x2="59" y2="93" style="stroke:rgb(0,0,0);stroke-width:1"/>\n\t<line x1="92" y1="111" x2="74" y2="121" style="stroke:rgb(0,0,0);stroke-width:1"/>\n\t<line x1="88" y1="109" x2="74" y2="117" style="stroke:rgb(0,0,0);stroke-width:1"/>\n\t<line x1="127" y1="91" x2="109" y2="80" style="stroke:rgb(0,0,0);stroke-width:1"/>\n\t<line x1="126" y1="87" x2="113" y2="79" style="stroke:rgb(0,0,0);stroke-width:1"/>\n\t<line x1="160" y1="94" x2="151" y2="113" style="stroke:rgb(0,0,0);stroke-width:1"/>\n\t<line x1="156" y1="95" x2="149" y2="109" style="stroke:rgb(0,0,0);stroke-width:1"/>\n\t<line x1="192" y1="108" x2="180" y2="92" style="stroke:rgb(0,0,0);stroke-width:1"/>\n\t<line x1="188" y1="108" x2="179" y2="96" style="stroke:rgb(0,0,0);stroke-width:1"/>\n\t<line x1="163" y1="129" x2="183" y2="127" style="stroke:rgb(0,0,0);stroke-width:1"/>\n\t<line x1="165" y1="126" x2="181" y2="124" style="stroke:rgb(0,0,0);stroke-width:1"/>\n\t<line x1="144" y1="60" x2="144" y2="80" style="stroke:rgb(0,0,0);stroke-width:1"/>\n\t<line x1="141" y1="62" x2="141" y2="78" style="stroke:rgb(0,0,0);stroke-width:1"/>\n\t<line x1="114" y1="23" x2="127" y2="30" style="stroke:rgb(0,0,0);stroke-width:1"/>\n\t<line x1="92" y1="30" x2="104" y2="23" style="stroke:rgb(0,0,0);stroke-width:1"/>\n\t<line x1="74" y1="19" x2="92" y2="30" style="stroke:rgb(0,0,0);stroke-width:1"/>\n\t<line x1="62" y1="27" x2="74" y2="19" style="stroke:rgb(0,0,0);stroke-width:1"/>\n\t<line x1="39" y1="19" x2="51" y2="27" style="stroke:rgb(0,0,0);stroke-width:1"/>\n\t<line x1="21" y1="30" x2="39" y2="19" style="stroke:rgb(0,0,0);stroke-width:1"/>\n\t<line x1="21" y1="44" x2="21" y2="30" style="stroke:rgb(0,0,0);stroke-width:1"/>\n\t<line x1="39" y1="60" x2="26" y2="53" style="stroke:rgb(0,0,0);stroke-width:1"/>\n\t<line x1="56" y1="50" x2="39" y2="60" style="stroke:rgb(0,0,0);stroke-width:1"/>\n\t<line x1="56" y1="50" x2="56" y2="36" style="stroke:rgb(0,0,0);stroke-width:1"/>\n\t<line x1="127" y1="50" x2="127" y2="30" style="stroke:rgb(0,0,0);stroke-width:1"/>\n\t<line x1="109" y1="80" x2="109" y2="66" style="stroke:rgb(0,0,0);stroke-width:1"/>\n\t<line x1="92" y1="91" x2="109" y2="80" style="stroke:rgb(0,0,0);stroke-width:1"/>\n\t<line x1="56" y1="91" x2="74" y2="80" style="stroke:rgb(0,0,0);stroke-width:1"/>\n\t<line x1="45" y1="117" x2="56" y2="111" style="stroke:rgb(0,0,0);stroke-width:1"/>\n\t<line x1="74" y1="121" x2="56" y2="111" style="stroke:rgb(0,0,0);stroke-width:1"/>\n\t<line x1="74" y1="135" x2="74" y2="121" style="stroke:rgb(0,0,0);stroke-width:1"/>\n\t<line x1="92" y1="111" x2="92" y2="91" style="stroke:rgb(0,0,0);stroke-width:1"/>\n\t<line x1="130" y1="105" x2="127" y2="91" style="stroke:rgb(0,0,0);stroke-width:1"/>\n\t<line x1="151" y1="113" x2="136" y2="111" style="stroke:rgb(0,0,0);stroke-width:1"/>\n\t<line x1="180" y1="92" x2="160" y2="94" style="stroke:rgb(0,0,0);stroke-width:1"/>\n\t<line x1="183" y1="127" x2="192" y2="108" style="stroke:rgb(0,0,0);stroke-width:1"/>\n\t<line x1="163" y1="129" x2="151" y2="113" style="stroke:rgb(0,0,0);stroke-width:1"/>\n\t<line x1="144" y1="80" x2="160" y2="94" style="stroke:rgb(0,0,0);stroke-width:1"/>\n\t<line x1="144" y1="80" x2="127" y2="91" style="stroke:rgb(0,0,0);stroke-width:1"/>\n\t<line x1="144" y1="60" x2="127" y2="50" style="stroke:rgb(0,0,0);stroke-width:1"/>\n\t<line id="function random() { [native code] }:Bond:1-0" class="event" x1="127" y1="30" x2="144" y2="19" stroke-width="8" stroke-opacity="0"/>\n\t<line id="function random() { [native code] }:Bond:12-11" class="event" x1="109" y1="60" x2="127" y2="50" stroke-width="8" stroke-opacity="0"/>\n\t<line id="function random() { [native code] }:Bond:15-14" class="event" x1="74" y1="80" x2="92" y2="91" stroke-width="8" stroke-opacity="0"/>\n\t<line id="function random() { [native code] }:Bond:17-16" class="event" x1="56" y1="111" x2="56" y2="91" stroke-width="8" stroke-opacity="0"/>\n\t<line id="function random() { [native code] }:Bond:21-19" class="event" x1="92" y1="111" x2="74" y2="121" stroke-width="8" stroke-opacity="0"/>\n\t<line id="function random() { [native code] }:Bond:22-13" class="event" x1="127" y1="91" x2="109" y2="80" stroke-width="8" stroke-opacity="0"/>\n\t<line id="function random() { [native code] }:Bond:25-24" class="event" x1="160" y1="94" x2="151" y2="113" stroke-width="8" stroke-opacity="0"/>\n\t<line id="function random() { [native code] }:Bond:27-26" class="event" x1="192" y1="108" x2="180" y2="92" stroke-width="8" stroke-opacity="0"/>\n\t<line id="function random() { [native code] }:Bond:29-28" class="event" x1="163" y1="129" x2="183" y2="127" stroke-width="8" stroke-opacity="0"/>\n\t<line id="function random() { [native code] }:Bond:31-30" class="event" x1="144" y1="60" x2="144" y2="80" stroke-width="8" stroke-opacity="0"/>\n\t<line id="function random() { [native code] }:Bond:2-1" class="event" x1="109" y1="19" x2="127" y2="30" stroke-width="8" stroke-opacity="0"/>\n\t<line id="function random() { [native code] }:Bond:3-2" class="event" x1="92" y1="30" x2="109" y2="19" stroke-width="8" stroke-opacity="0"/>\n\t<line id="function random() { [native code] }:Bond:4-3" class="event" x1="74" y1="19" x2="92" y2="30" stroke-width="8" stroke-opacity="0"/>\n\t<line id="function random() { [native code] }:Bond:5-4" class="event" x1="56" y1="30" x2="74" y2="19" stroke-width="8" stroke-opacity="0"/>\n\t<line id="function random() { [native code] }:Bond:6-5" class="event" x1="39" y1="19" x2="56" y2="30" stroke-width="8" stroke-opacity="0"/>\n\t<line id="function random() { [native code] }:Bond:7-6" class="event" x1="21" y1="30" x2="39" y2="19" stroke-width="8" stroke-opacity="0"/>\n\t<line id="function random() { [native code] }:Bond:8-7" class="event" x1="21" y1="50" x2="21" y2="30" stroke-width="8" stroke-opacity="0"/>\n\t<line id="function random() { [native code] }:Bond:9-8" class="event" x1="39" y1="60" x2="21" y2="50" stroke-width="8" stroke-opacity="0"/>\n\t<line id="function random() { [native code] }:Bond:10-9" class="event" x1="56" y1="50" x2="39" y2="60" stroke-width="8" stroke-opacity="0"/>\n\t<line id="function random() { [native code] }:Bond:10-5" class="event" x1="56" y1="50" x2="56" y2="30" stroke-width="8" stroke-opacity="0"/>\n\t<line id="function random() { [native code] }:Bond:11-1" class="event" x1="127" y1="50" x2="127" y2="30" stroke-width="8" stroke-opacity="0"/>\n\t<line id="function random() { [native code] }:Bond:13-12" class="event" x1="109" y1="80" x2="109" y2="60" stroke-width="8" stroke-opacity="0"/>\n\t<line id="function random() { [native code] }:Bond:14-13" class="event" x1="92" y1="91" x2="109" y2="80" stroke-width="8" stroke-opacity="0"/>\n\t<line id="function random() { [native code] }:Bond:16-15" class="event" x1="56" y1="91" x2="74" y2="80" stroke-width="8" stroke-opacity="0"/>\n\t<line id="function random() { [native code] }:Bond:18-17" class="event" x1="39" y1="121" x2="56" y2="111" stroke-width="8" stroke-opacity="0"/>\n\t<line id="function random() { [native code] }:Bond:19-17" class="event" x1="74" y1="121" x2="56" y2="111" stroke-width="8" stroke-opacity="0"/>\n\t<line id="function random() { [native code] }:Bond:20-19" class="event" x1="74" y1="141" x2="74" y2="121" stroke-width="8" stroke-opacity="0"/>\n\t<line id="function random() { [native code] }:Bond:21-14" class="event" x1="92" y1="111" x2="92" y2="91" stroke-width="8" stroke-opacity="0"/>\n\t<line id="function random() { [native code] }:Bond:23-22" class="event" x1="131" y1="111" x2="127" y2="91" stroke-width="8" stroke-opacity="0"/>\n\t<line id="function random() { [native code] }:Bond:24-23" class="event" x1="151" y1="113" x2="131" y2="111" stroke-width="8" stroke-opacity="0"/>\n\t<line id="function random() { [native code] }:Bond:26-25" class="event" x1="180" y1="92" x2="160" y2="94" stroke-width="8" stroke-opacity="0"/>\n\t<line id="function random() { [native code] }:Bond:28-27" class="event" x1="183" y1="127" x2="192" y2="108" stroke-width="8" stroke-opacity="0"/>\n\t<line id="function random() { [native code] }:Bond:29-24" class="event" x1="163" y1="129" x2="151" y2="113" stroke-width="8" stroke-opacity="0"/>\n\t<line id="function random() { [native code] }:Bond:30-25" class="event" x1="144" y1="80" x2="160" y2="94" stroke-width="8" stroke-opacity="0"/>\n\t<line id="function random() { [native code] }:Bond:30-22" class="event" x1="144" y1="80" x2="127" y2="91" stroke-width="8" stroke-opacity="0"/>\n\t<line id="function random() { [native code] }:Bond:31-11" class="event" x1="144" y1="60" x2="127" y2="50" stroke-width="8" stroke-opacity="0"/>\n\t<circle id="function random() { [native code] }:Atom:0" class="event" cx="144" cy="19" r="8" fill-opacity="0"/>\n\t<circle id="function random() { [native code] }:Atom:1" class="event" cx="127" cy="30" r="8" fill-opacity="0"/>\n\t<circle id="function random() { [native code] }:Atom:2" class="event" cx="109" cy="19" r="8" fill-opacity="0"/>\n\t<circle id="function random() { [native code] }:Atom:3" class="event" cx="92" cy="30" r="8" fill-opacity="0"/>\n\t<circle id="function random() { [native code] }:Atom:4" class="event" cx="74" cy="19" r="8" fill-opacity="0"/>\n\t<circle id="function random() { [native code] }:Atom:5" class="event" cx="56" cy="30" r="8" fill-opacity="0"/>\n\t<circle id="function random() { [native code] }:Atom:6" class="event" cx="39" cy="19" r="8" fill-opacity="0"/>\n\t<circle id="function random() { [native code] }:Atom:7" class="event" cx="21" cy="30" r="8" fill-opacity="0"/>\n\t<circle id="function random() { [native code] }:Atom:8" class="event" cx="21" cy="50" r="8" fill-opacity="0"/>\n\t<circle id="function random() { [native code] }:Atom:9" class="event" cx="39" cy="60" r="8" fill-opacity="0"/>\n\t<circle id="function random() { [native code] }:Atom:10" class="event" cx="56" cy="50" r="8" fill-opacity="0"/>\n\t<circle id="function random() { [native code] }:Atom:11" class="event" cx="127" cy="50" r="8" fill-opacity="0"/>\n\t<circle id="function random() { [native code] }:Atom:12" class="event" cx="109" cy="60" r="8" fill-opacity="0"/>\n\t<circle id="function random() { [native code] }:Atom:13" class="event" cx="109" cy="80" r="8" fill-opacity="0"/>\n\t<circle id="function random() { [native code] }:Atom:14" class="event" cx="92" cy="91" r="8" fill-opacity="0"/>\n\t<circle id="function random() { [native code] }:Atom:15" class="event" cx="74" cy="80" r="8" fill-opacity="0"/>\n\t<circle id="function random() { [native code] }:Atom:16" class="event" cx="56" cy="91" r="8" fill-opacity="0"/>\n\t<circle id="function random() { [native code] }:Atom:17" class="event" cx="56" cy="111" r="8" fill-opacity="0"/>\n\t<circle id="function random() { [native code] }:Atom:18" class="event" cx="39" cy="121" r="8" fill-opacity="0"/>\n\t<circle id="function random() { [native code] }:Atom:19" class="event" cx="74" cy="121" r="8" fill-opacity="0"/>\n\t<circle id="function random() { [native code] }:Atom:20" class="event" cx="74" cy="141" r="8" fill-opacity="0"/>\n\t<circle id="function random() { [native code] }:Atom:21" class="event" cx="92" cy="111" r="8" fill-opacity="0"/>\n\t<circle id="function random() { [native code] }:Atom:22" class="event" cx="127" cy="91" r="8" fill-opacity="0"/>\n\t<circle id="function random() { [native code] }:Atom:23" class="event" cx="131" cy="111" r="8" fill-opacity="0"/>\n\t<circle id="function random() { [native code] }:Atom:24" class="event" cx="151" cy="113" r="8" fill-opacity="0"/>\n\t<circle id="function random() { [native code] }:Atom:25" class="event" cx="160" cy="94" r="8" fill-opacity="0"/>\n\t<circle id="function random() { [native code] }:Atom:26" class="event" cx="180" cy="92" r="8" fill-opacity="0"/>\n\t<circle id="function random() { [native code] }:Atom:27" class="event" cx="192" cy="108" r="8" fill-opacity="0"/>\n\t<circle id="function random() { [native code] }:Atom:28" class="event" cx="183" cy="127" r="8" fill-opacity="0"/>\n\t<circle id="function random() { [native code] }:Atom:29" class="event" cx="163" cy="129" r="8" fill-opacity="0"/>\n\t<circle id="function random() { [native code] }:Atom:30" class="event" cx="144" cy="80" r="8" fill-opacity="0"/>\n\t<circle id="function random() { [native code] }:Atom:31" class="event" cx="144" cy="60" r="8" fill-opacity="0"/>\n</svg>