<svg id="function random() { [native code] }" xmlns="http://www.w3.org/2000/svg" version="1.1" width="200px" height="150px" viewBox="0 0 200 150">\n\t<style> #function random() { [native code] } {pointer-events:none; }  #function random() { [native code] } .event  { pointer-events:all;}  </style>\n\t<text x="172" y="131" font-family=" Helvetica" font-weight="900" font-size="14" fill="rgb(48,80,248)">N</text>\n\t<text x="172" y="145" font-family=" Helvetica" font-weight="900" font-size="14" fill="rgb(48,80,248)">H</text>\n\t<text x="91" y="131" font-family=" Helvetica" font-weight="900" font-size="14" fill="rgb(48,80,248)">N</text>\n\t<text x="91" y="145" font-family=" Helvetica" font-weight="900" font-size="14" fill="rgb(48,80,248)">H</text>\n\t<text x="170" y="61" font-family=" Helvetica" font-weight="900" font-size="14" fill="rgb(31,240,31)">Cl</text>\n\t<text x="170" y="15" font-family=" Helvetica" font-weight="900" font-size="14" fill="rgb(31,240,31)">Cl</text>\n\t<text x="91" y="84" font-family=" Helvetica" font-weight="900" font-size="14" fill="rgb(48,80,248)">N</text>\n\t<text x="66" y="27" font-family=" Helvetica" font-weight="900" font-size="14" fill="rgb(48,80,248)">N</text>\n\t<text x="77" y="27" font-family=" Helvetica" font-weight="900" font-size="14" fill="rgb(48,80,248)">H</text>\n\t<text x="51" y="131" font-family=" Helvetica" font-weight="900" font-size="14" fill="rgb(255,13,13)">O</text>\n\t<line x1="56" y1="80" x2="76" y2="92" style="stroke:rgb(0,0,0);stroke-width:1"/>\n\t<line x1="60" y1="79" x2="76" y2="88" style="stroke:rgb(0,0,0);stroke-width:1"/>\n\t<line x1="76" y1="46" x2="56" y2="57" style="stroke:rgb(0,0,0);stroke-width:1"/>\n\t<line x1="72" y1="44" x2="57" y2="53" style="stroke:rgb(0,0,0);stroke-width:1"/>\n\t<line x1="136" y1="57" x2="116" y2="46" style="stroke:rgb(0,0,0);stroke-width:1"/>\n\t<line x1="136" y1="53" x2="120" y2="44" style="stroke:rgb(0,0,0);stroke-width:1"/>\n\t<line x1="157" y1="22" x2="157" y2="46" style="stroke:rgb(0,0,0);stroke-width:1"/>\n\t<line x1="153" y1="25" x2="153" y2="43" style="stroke:rgb(0,0,0);stroke-width:1"/>\n\t<line x1="116" y1="22" x2="136" y2="11" style="stroke:rgb(0,0,0);stroke-width:1"/>\n\t<line x1="120" y1="24" x2="136" y2="15" style="stroke:rgb(0,0,0);stroke-width:1"/>\n\t<line x1="96" y1="57" x2="96" y2="73" style="stroke:rgb(0,0,0);stroke-width:1"/>\n\t<line x1="93" y1="60" x2="93" y2="73" style="stroke:rgb(0,0,0);stroke-width:1"/>\n\t<line x1="35" y1="2" x2="48" y2="21" style="stroke:rgb(0,0,0);stroke-width:1"/>\n\t<line x1="33" y1="6" x2="44" y2="21" style="stroke:rgb(0,0,0);stroke-width:1"/>\n\t<line x1="2" y1="25" x2="12" y2="4" style="stroke:rgb(0,0,0);stroke-width:1"/>\n\t<line x1="6" y1="25" x2="14" y2="8" style="stroke:rgb(0,0,0);stroke-width:1"/>\n\t<line x1="39" y1="42" x2="16" y2="44" style="stroke:rgb(0,0,0);stroke-width:1"/>\n\t<line x1="36" y1="39" x2="18" y2="40" style="stroke:rgb(0,0,0);stroke-width:1"/>\n\t<line x1="76" y1="113" x2="62" y2="122" style="stroke:rgb(0,0,0);stroke-width:1"/>\n\t<line x1="78" y1="116" x2="64" y2="125" style="stroke:rgb(0,0,0);stroke-width:1"/>\n\t<line x1="183" y1="123" x2="197" y2="115" style="stroke:rgb(0,0,0);stroke-width:1"/>\n\t<line x1="157" y1="115" x2="171" y2="123" style="stroke:rgb(0,0,0);stroke-width:1"/>\n\t<line x1="136" y1="127" x2="157" y2="115" style="stroke:rgb(0,0,0);stroke-width:1"/>\n\t<line x1="116" y1="115" x2="136" y2="127" style="stroke:rgb(0,0,0);stroke-width:1"/>\n\t<line x1="102" y1="123" x2="116" y2="115" style="stroke:rgb(0,0,0);stroke-width:1"/>\n\t<line x1="76" y1="115" x2="90" y2="123" style="stroke:rgb(0,0,0);stroke-width:1"/>\n\t<line x1="76" y1="92" x2="76" y2="115" style="stroke:rgb(0,0,0);stroke-width:1"/>\n\t<line x1="56" y1="57" x2="56" y2="80" style="stroke:rgb(0,0,0);stroke-width:1"/>\n\t<line x1="96" y1="57" x2="76" y2="46" style="stroke:rgb(0,0,0);stroke-width:1"/>\n\t<line x1="116" y1="46" x2="96" y2="57" style="stroke:rgb(0,0,0);stroke-width:1"/>\n\t<line x1="157" y1="46" x2="136" y2="57" style="stroke:rgb(0,0,0);stroke-width:1"/>\n\t<line x1="169" y1="53" x2="157" y2="46" style="stroke:rgb(0,0,0);stroke-width:1"/>\n\t<line x1="136" y1="11" x2="157" y2="22" style="stroke:rgb(0,0,0);stroke-width:1"/>\n\t<line x1="116" y1="22" x2="116" y2="46" style="stroke:rgb(0,0,0);stroke-width:1"/>\n\t<line x1="169" y1="15" x2="157" y2="22" style="stroke:rgb(0,0,0);stroke-width:1"/>\n\t<line x1="90" y1="84" x2="76" y2="92" style="stroke:rgb(0,0,0);stroke-width:1"/>\n\t<line x1="73" y1="30" x2="76" y2="46" style="stroke:rgb(0,0,0);stroke-width:1"/>\n\t<line x1="48" y1="21" x2="65" y2="22" style="stroke:rgb(0,0,0);stroke-width:1"/>\n\t<line x1="12" y1="4" x2="35" y2="2" style="stroke:rgb(0,0,0);stroke-width:1"/>\n\t<line x1="16" y1="44" x2="2" y2="25" style="stroke:rgb(0,0,0);stroke-width:1"/>\n\t<line x1="39" y1="42" x2="48" y2="21" style="stroke:rgb(0,0,0);stroke-width:1"/>\n\t<line x1="39" y1="42" x2="56" y2="57" style="stroke:rgb(0,0,0);stroke-width:1"/>\n\t<line id="function random() { [native code] }:Bond:8-7" class="event" x1="56" y1="80" x2="76" y2="92" stroke-width="8" stroke-opacity="0"/>\n\t<line id="function random() { [native code] }:Bond:10-9" class="event" x1="76" y1="46" x2="56" y2="57" stroke-width="8" stroke-opacity="0"/>\n\t<line id="function random() { [native code] }:Bond:13-12" class="event" x1="136" y1="57" x2="116" y2="46" stroke-width="8" stroke-opacity="0"/>\n\t<line id="function random() { [native code] }:Bond:16-14" class="event" x1="157" y1="22" x2="157" y2="46" stroke-width="8" stroke-opacity="0"/>\n\t<line id="function random() { [native code] }:Bond:18-17" class="event" x1="116" y1="22" x2="136" y2="11" stroke-width="8" stroke-opacity="0"/>\n\t<line id="function random() { [native code] }:Bond:20-11" class="event" x1="96" y1="80" x2="96" y2="57" stroke-width="8" stroke-opacity="0"/>\n\t<line id="function random() { [native code] }:Bond:23-22" class="event" x1="35" y1="2" x2="48" y2="21" stroke-width="8" stroke-opacity="0"/>\n\t<line id="function random() { [native code] }:Bond:25-24" class="event" x1="2" y1="25" x2="12" y2="4" stroke-width="8" stroke-opacity="0"/>\n\t<line id="function random() { [native code] }:Bond:27-26" class="event" x1="39" y1="42" x2="16" y2="44" stroke-width="8" stroke-opacity="0"/>\n\t<line id="function random() { [native code] }:Bond:28-6" class="event" x1="56" y1="127" x2="76" y2="115" stroke-width="8" stroke-opacity="0"/>\n\t<line id="function random() { [native code] }:Bond:1-0" class="event" x1="177" y1="127" x2="197" y2="115" stroke-width="8" stroke-opacity="0"/>\n\t<line id="function random() { [native code] }:Bond:2-1" class="event" x1="157" y1="115" x2="177" y2="127" stroke-width="8" stroke-opacity="0"/>\n\t<line id="function random() { [native code] }:Bond:3-2" class="event" x1="136" y1="127" x2="157" y2="115" stroke-width="8" stroke-opacity="0"/>\n\t<line id="function random() { [native code] }:Bond:4-3" class="event" x1="116" y1="115" x2="136" y2="127" stroke-width="8" stroke-opacity="0"/>\n\t<line id="function random() { [native code] }:Bond:5-4" class="event" x1="96" y1="127" x2="116" y2="115" stroke-width="8" stroke-opacity="0"/>\n\t<line id="function random() { [native code] }:Bond:6-5" class="event" x1="76" y1="115" x2="96" y2="127" stroke-width="8" stroke-opacity="0"/>\n\t<line id="function random() { [native code] }:Bond:7-6" class="event" x1="76" y1="92" x2="76" y2="115" stroke-width="8" stroke-opacity="0"/>\n\t<line id="function random() { [native code] }:Bond:9-8" class="event" x1="56" y1="57" x2="56" y2="80" stroke-width="8" stroke-opacity="0"/>\n\t<line id="function random() { [native code] }:Bond:11-10" class="event" x1="96" y1="57" x2="76" y2="46" stroke-width="8" stroke-opacity="0"/>\n\t<line id="function random() { [native code] }:Bond:12-11" class="event" x1="116" y1="46" x2="96" y2="57" stroke-width="8" stroke-opacity="0"/>\n\t<line id="function random() { [native code] }:Bond:14-13" class="event" x1="157" y1="46" x2="136" y2="57" stroke-width="8" stroke-opacity="0"/>\n\t<line id="function random() { [native code] }:Bond:15-14" class="event" x1="177" y1="57" x2="157" y2="46" stroke-width="8" stroke-opacity="0"/>\n\t<line id="function random() { [native code] }:Bond:17-16" class="event" x1="136" y1="11" x2="157" y2="22" stroke-width="8" stroke-opacity="0"/>\n\t<line id="function random() { [native code] }:Bond:18-12" class="event" x1="116" y1="22" x2="116" y2="46" stroke-width="8" stroke-opacity="0"/>\n\t<line id="function random() { [native code] }:Bond:19-16" class="event" x1="177" y1="11" x2="157" y2="22" stroke-width="8" stroke-opacity="0"/>\n\t<line id="function random() { [native code] }:Bond:20-7" class="event" x1="96" y1="80" x2="76" y2="92" stroke-width="8" stroke-opacity="0"/>\n\t<line id="function random() { [native code] }:Bond:21-10" class="event" x1="71" y1="23" x2="76" y2="46" stroke-width="8" stroke-opacity="0"/>\n\t<line id="function random() { [native code] }:Bond:22-21" class="event" x1="48" y1="21" x2="71" y2="23" stroke-width="8" stroke-opacity="0"/>\n\t<line id="function random() { [native code] }:Bond:24-23" class="event" x1="12" y1="4" x2="35" y2="2" stroke-width="8" stroke-opacity="0"/>\n\t<line id="function random() { [native code] }:Bond:26-25" class="event" x1="16" y1="44" x2="2" y2="25" stroke-width="8" stroke-opacity="0"/>\n\t<line id="function random() { [native code] }:Bond:27-22" class="event" x1="39" y1="42" x2="48" y2="21" stroke-width="8" stroke-opacity="0"/>\n\t<line id="function random() { [native code] }:Bond:27-9" class="event" x1="39" y1="42" x2="56" y2="57" stroke-width="8" stroke-opacity="0"/>\n\t<circle id="function random() { [native code] }:Atom:0" class="event" cx="197" cy="115" r="8" fill-opacity="0"/>\n\t<circle id="function random() { [native code] }:Atom:1" class="event" cx="177" cy="127" r="8" fill-opacity="0"/>\n\t<circle id="function random() { [native code] }:Atom:2" class="event" cx="157" cy="115" r="8" fill-opacity="0"/>\n\t<circle id="function random() { [native code] }:Atom:3" class="event" cx="136" cy="127" r="8" fill-opacity="0"/>\n\t<circle id="function random() { [native code] }:Atom:4" class="event" cx="116" cy="115" r="8" fill-opacity="0"/>\n\t<circle id="function random() { [native code] }:Atom:5" class="event" cx="96" cy="127" r="8" fill-opacity="0"/>\n\t<circle id="function random() { [native code] }:Atom:6" class="event" cx="76" cy="115" r="8" fill-opacity="0"/>\n\t<circle id="function random() { [native code] }:Atom:7" class="event" cx="76" cy="92" r="8" fill-opacity="0"/>\n\t<circle id="function random() { [native code] }:Atom:8" class="event" cx="56" cy="80" r="8" fill-opacity="0"/>\n\t<circle id="function random() { [native code] }:Atom:9" class="event" cx="56" cy="57" r="8" fill-opacity="0"/>\n\t<circle id="function random() { [native code] }:Atom:10" class="event" cx="76" cy="46" r="8" fill-opacity="0"/>\n\t<circle id="function random() { [native code] }:Atom:11" class="event" cx="96" cy="57" r="8" fill-opacity="0"/>\n\t<circle id="function random() { [native code] }:Atom:12" class="event" cx="116" cy="46" r="8" fill-opacity="0"/>\n\t<circle id="function random() { [native code] }:Atom:13" class="event" cx="136" cy="57" r="8" fill-opacity="0"/>\n\t<circle id="function random() { [native code] }:Atom:14" class="event" cx="157" cy="46" r="8" fill-opacity="0"/>\n\t<circle id="function random() { [native code] }:Atom:15" class="event" cx="177" cy="57" r="8" fill-opacity="0"/>\n\t<circle id="function random() { [native code] }:Atom:16" class="event" cx="157" cy="22" r="8" fill-opacity="0"/>\n\t<circle id="function random() { [native code] }:Atom:17" class="event" cx="136" cy="11" r="8" fill-opacity="0"/>\n\t<circle id="function random() { [native code] }:Atom:18" class="event" cx="116" cy="22" r="8" fill-opacity="0"/>\n\t<circle id="function random() { [native code] }:Atom:19" class="event" cx="177" cy="11" r="8" fill-opacity="0"/>\n\t<circle id="function random() { [native code] }:Atom:20" class="event" cx="96" cy="80" r="8" fill-opacity="0"/>\n\t<circle id="function random() { [native code] }:Atom:21" class="event" cx="71" cy="23" r="8" fill-opacity="0"/>\n\t<circle id="function random() { [native code] }:Atom:22" class="event" cx="48" cy="21" r="8" fill-opacity="0"/>\n\t<circle id="function random() { [native code] }:Atom:23" class="event" cx="35" cy="2" r="8" fill-opacity="0"/>\n\t<circle id="function random() { [native code] }:Atom:24" class="event" cx="12" cy="4" r="8" fill-opacity="0"/>\n\t<circle id="function random() { [native code] }:Atom:25" class="event" cx="2" cy="25" r="8" fill-opacity="0"/>\n\t<circle id="function random() { [native code] }:Atom:26" class="event" cx="16" cy="44" r="8" fill-opacity="0"/>\n\t<circle id="function random() { [native code] }:Atom:27" class="event" cx="39" cy="42" r="8" fill-opacity="0"/>\n\t<circle id="function random() { [native code] }:Atom:28" class="event" cx="56" cy="127" r="8" fill-opacity="0"/>\n</svg>