<svg id="function random() { [native code] }" xmlns="http://www.w3.org/2000/svg" version="1.1" width="200px" height="150px" viewBox="0 0 200 150">\n\t<style> #function random() { [native code] } {pointer-events:none; }  #function random() { [native code] } .event  { pointer-events:all;}  </style>\n\t<text x="176" y="137" font-family=" Helvetica" font-weight="900" font-size="10" fill="rgb(144,224,80)">F</text>\n\t<text x="191" y="111" font-family=" Helvetica" font-weight="900" font-size="10" fill="rgb(144,224,80)">F</text>\n\t<text x="102" y="94" font-family=" Helvetica" font-weight="900" font-size="10" fill="rgb(48,80,248)">N</text>\n\t<text x="58" y="86" font-family=" Helvetica" font-weight="900" font-size="10" fill="rgb(48,80,248)">N</text>\n\t<text x="58" y="76" font-family=" Helvetica" font-weight="900" font-size="10" fill="rgb(48,80,248)">H</text>\n\t<text x="14" y="94" font-family=" Helvetica" font-weight="900" font-size="10" fill="rgb(48,80,248)">N</text>\n\t<text x="10" y="97" font-family=" Helvetica" font-weight="900" font-size="7" fill="rgb(48,80,248)">2</text>\n\t<text x="3" y="94" font-family=" Helvetica" font-weight="900" font-size="10" fill="rgb(48,80,248)">H</text>\n\t<text x="72" y="111" font-family=" Helvetica" font-weight="900" font-size="10" fill="rgb(255,13,13)">O</text>\n\t<text x="129" y="58" font-family=" Helvetica" font-weight="900" font-size="10" fill="rgb(48,80,248)">N</text>\n\t<text x="136" y="58" font-family=" Helvetica" font-weight="900" font-size="10" fill="rgb(48,80,248)">H</text>\n\t<line x1="164" y1="91" x2="164" y2="108" style="stroke:rgb(0,0,0);stroke-width:1"/>\n\t<line x1="162" y1="93" x2="162" y2="107" style="stroke:rgb(0,0,0);stroke-width:1"/>\n\t<line x1="135" y1="91" x2="150" y2="83" style="stroke:rgb(0,0,0);stroke-width:1"/>\n\t<line x1="138" y1="93" x2="149" y2="86" style="stroke:rgb(0,0,0);stroke-width:1"/>\n\t<line x1="150" y1="117" x2="135" y2="108" style="stroke:rgb(0,0,0);stroke-width:1"/>\n\t<line x1="149" y1="114" x2="138" y2="107" style="stroke:rgb(0,0,0);stroke-width:1"/>\n\t<line x1="120" y1="83" x2="110" y2="89" style="stroke:rgb(0,0,0);stroke-width:1"/>\n\t<line x1="117" y1="82" x2="109" y2="86" style="stroke:rgb(0,0,0);stroke-width:1"/>\n\t<line x1="75" y1="91" x2="75" y2="103" style="stroke:rgb(0,0,0);stroke-width:1"/>\n\t<line x1="77" y1="91" x2="77" y2="103" style="stroke:rgb(0,0,0);stroke-width:1"/>\n\t<line x1="91" y1="66" x2="91" y2="83" style="stroke:rgb(0,0,0);stroke-width:1"/>\n\t<line x1="93" y1="68" x2="93" y2="81" style="stroke:rgb(0,0,0);stroke-width:1"/>\n\t<line x1="120" y1="66" x2="106" y2="57" style="stroke:rgb(0,0,0);stroke-width:1"/>\n\t<line x1="120" y1="63" x2="109" y2="56" style="stroke:rgb(0,0,0);stroke-width:1"/>\n\t<line x1="109" y1="41" x2="126" y2="39" style="stroke:rgb(0,0,0);stroke-width:1"/>\n\t<line x1="111" y1="43" x2="124" y2="42" style="stroke:rgb(0,0,0);stroke-width:1"/>\n\t<line x1="106" y1="12" x2="99" y2="27" style="stroke:rgb(0,0,0);stroke-width:1"/>\n\t<line x1="108" y1="14" x2="102" y2="27" style="stroke:rgb(0,0,0);stroke-width:1"/>\n\t<line x1="133" y1="24" x2="123" y2="10" style="stroke:rgb(0,0,0);stroke-width:1"/>\n\t<line x1="130" y1="24" x2="122" y2="13" style="stroke:rgb(0,0,0);stroke-width:1"/>\n\t<line x1="179" y1="117" x2="179" y2="129" style="stroke:rgb(0,0,0);stroke-width:1"/>\n\t<line x1="190" y1="111" x2="179" y2="117" style="stroke:rgb(0,0,0);stroke-width:1"/>\n\t<line x1="164" y1="108" x2="179" y2="117" style="stroke:rgb(0,0,0);stroke-width:1"/>\n\t<line x1="150" y1="83" x2="164" y2="91" style="stroke:rgb(0,0,0);stroke-width:1"/>\n\t<line x1="135" y1="108" x2="135" y2="91" style="stroke:rgb(0,0,0);stroke-width:1"/>\n\t<line x1="150" y1="117" x2="164" y2="108" style="stroke:rgb(0,0,0);stroke-width:1"/>\n\t<line x1="120" y1="83" x2="135" y2="91" style="stroke:rgb(0,0,0);stroke-width:1"/>\n\t<line x1="91" y1="83" x2="101" y2="89" style="stroke:rgb(0,0,0);stroke-width:1"/>\n\t<line x1="76" y1="91" x2="91" y2="83" style="stroke:rgb(0,0,0);stroke-width:1"/>\n\t<line x1="66" y1="86" x2="76" y2="91" style="stroke:rgb(0,0,0);stroke-width:1"/>\n\t<line x1="47" y1="91" x2="57" y2="86" style="stroke:rgb(0,0,0);stroke-width:1"/>\n\t<line x1="32" y1="83" x2="47" y2="91" style="stroke:rgb(0,0,0);stroke-width:1"/>\n\t<line x1="22" y1="89" x2="32" y2="83" style="stroke:rgb(0,0,0);stroke-width:1"/>\n\t<line x1="106" y1="57" x2="91" y2="66" style="stroke:rgb(0,0,0);stroke-width:1"/>\n\t<line x1="120" y1="66" x2="120" y2="83" style="stroke:rgb(0,0,0);stroke-width:1"/>\n\t<line x1="128" y1="59" x2="120" y2="66" style="stroke:rgb(0,0,0);stroke-width:1"/>\n\t<line x1="126" y1="39" x2="131" y2="50" style="stroke:rgb(0,0,0);stroke-width:1"/>\n\t<line x1="109" y1="41" x2="106" y2="57" style="stroke:rgb(0,0,0);stroke-width:1"/>\n\t<line x1="99" y1="27" x2="109" y2="41" style="stroke:rgb(0,0,0);stroke-width:1"/>\n\t<line x1="123" y1="10" x2="106" y2="12" style="stroke:rgb(0,0,0);stroke-width:1"/>\n\t<line x1="133" y1="24" x2="126" y2="39" style="stroke:rgb(0,0,0);stroke-width:1"/>\n\t<line id="function random() { [native code] }:Bond:4-3" class="event" x1="164" y1="91" x2="164" y2="108" stroke-width="8" stroke-opacity="0"/>\n\t<line id="function random() { [native code] }:Bond:6-5" class="event" x1="135" y1="91" x2="150" y2="83" stroke-width="8" stroke-opacity="0"/>\n\t<line id="function random() { [native code] }:Bond:8-7" class="event" x1="150" y1="117" x2="135" y2="108" stroke-width="8" stroke-opacity="0"/>\n\t<line id="function random() { [native code] }:Bond:10-9" class="event" x1="106" y1="91" x2="120" y2="83" stroke-width="8" stroke-opacity="0"/>\n\t<line id="function random() { [native code] }:Bond:17-12" class="event" x1="76" y1="108" x2="76" y2="91" stroke-width="8" stroke-opacity="0"/>\n\t<line id="function random() { [native code] }:Bond:18-11" class="event" x1="91" y1="66" x2="91" y2="83" stroke-width="8" stroke-opacity="0"/>\n\t<line id="function random() { [native code] }:Bond:20-19" class="event" x1="120" y1="66" x2="106" y2="57" stroke-width="8" stroke-opacity="0"/>\n\t<line id="function random() { [native code] }:Bond:23-22" class="event" x1="109" y1="41" x2="126" y2="39" stroke-width="8" stroke-opacity="0"/>\n\t<line id="function random() { [native code] }:Bond:25-24" class="event" x1="106" y1="12" x2="99" y2="27" stroke-width="8" stroke-opacity="0"/>\n\t<line id="function random() { [native code] }:Bond:27-26" class="event" x1="133" y1="24" x2="123" y2="10" stroke-width="8" stroke-opacity="0"/>\n\t<line id="function random() { [native code] }:Bond:1-0" class="event" x1="179" y1="117" x2="179" y2="134" stroke-width="8" stroke-opacity="0"/>\n\t<line id="function random() { [native code] }:Bond:2-1" class="event" x1="194" y1="108" x2="179" y2="117" stroke-width="8" stroke-opacity="0"/>\n\t<line id="function random() { [native code] }:Bond:3-1" class="event" x1="164" y1="108" x2="179" y2="117" stroke-width="8" stroke-opacity="0"/>\n\t<line id="function random() { [native code] }:Bond:5-4" class="event" x1="150" y1="83" x2="164" y2="91" stroke-width="8" stroke-opacity="0"/>\n\t<line id="function random() { [native code] }:Bond:7-6" class="event" x1="135" y1="108" x2="135" y2="91" stroke-width="8" stroke-opacity="0"/>\n\t<line id="function random() { [native code] }:Bond:8-3" class="event" x1="150" y1="117" x2="164" y2="108" stroke-width="8" stroke-opacity="0"/>\n\t<line id="function random() { [native code] }:Bond:9-6" class="event" x1="120" y1="83" x2="135" y2="91" stroke-width="8" stroke-opacity="0"/>\n\t<line id="function random() { [native code] }:Bond:11-10" class="event" x1="91" y1="83" x2="106" y2="91" stroke-width="8" stroke-opacity="0"/>\n\t<line id="function random() { [native code] }:Bond:12-11" class="event" x1="76" y1="91" x2="91" y2="83" stroke-width="8" stroke-opacity="0"/>\n\t<line id="function random() { [native code] }:Bond:13-12" class="event" x1="62" y1="83" x2="76" y2="91" stroke-width="8" stroke-opacity="0"/>\n\t<line id="function random() { [native code] }:Bond:14-13" class="event" x1="47" y1="91" x2="62" y2="83" stroke-width="8" stroke-opacity="0"/>\n\t<line id="function random() { [native code] }:Bond:15-14" class="event" x1="32" y1="83" x2="47" y2="91" stroke-width="8" stroke-opacity="0"/>\n\t<line id="function random() { [native code] }:Bond:16-15" class="event" x1="17" y1="91" x2="32" y2="83" stroke-width="8" stroke-opacity="0"/>\n\t<line id="function random() { [native code] }:Bond:19-18" class="event" x1="106" y1="57" x2="91" y2="66" stroke-width="8" stroke-opacity="0"/>\n\t<line id="function random() { [native code] }:Bond:20-9" class="event" x1="120" y1="66" x2="120" y2="83" stroke-width="8" stroke-opacity="0"/>\n\t<line id="function random() { [native code] }:Bond:21-20" class="event" x1="133" y1="55" x2="120" y2="66" stroke-width="8" stroke-opacity="0"/>\n\t<line id="function random() { [native code] }:Bond:22-21" class="event" x1="126" y1="39" x2="133" y2="55" stroke-width="8" stroke-opacity="0"/>\n\t<line id="function random() { [native code] }:Bond:23-19" class="event" x1="109" y1="41" x2="106" y2="57" stroke-width="8" stroke-opacity="0"/>\n\t<line id="function random() { [native code] }:Bond:24-23" class="event" x1="99" y1="27" x2="109" y2="41" stroke-width="8" stroke-opacity="0"/>\n\t<line id="function random() { [native code] }:Bond:26-25" class="event" x1="123" y1="10" x2="106" y2="12" stroke-width="8" stroke-opacity="0"/>\n\t<line id="function random() { [native code] }:Bond:27-22" class="event" x1="133" y1="24" x2="126" y2="39" stroke-width="8" stroke-opacity="0"/>\n\t<circle id="function random() { [native code] }:Atom:0" class="event" cx="179" cy="134" r="8" fill-opacity="0"/>\n\t<circle id="function random() { [native code] }:Atom:1" class="event" cx="179" cy="117" r="8" fill-opacity="0"/>\n\t<circle id="function random() { [native code] }:Atom:2" class="event" cx="194" cy="108" r="8" fill-opacity="0"/>\n\t<circle id="function random() { [native code] }:Atom:3" class="event" cx="164" cy="108" r="8" fill-opacity="0"/>\n\t<circle id="function random() { [native code] }:Atom:4" class="event" cx="164" cy="91" r="8" fill-opacity="0"/>\n\t<circle id="function random() { [native code] }:Atom:5" class="event" cx="150" cy="83" r="8" fill-opacity="0"/>\n\t<circle id="function random() { [native code] }:Atom:6" class="event" cx="135" cy="91" r="8" fill-opacity="0"/>\n\t<circle id="function random() { [native code] }:Atom:7" class="event" cx="135" cy="108" r="8" fill-opacity="0"/>\n\t<circle id="function random() { [native code] }:Atom:8" class="event" cx="150" cy="117" r="8" fill-opacity="0"/>\n\t<circle id="function random() { [native code] }:Atom:9" class="event" cx="120" cy="83" r="8" fill-opacity="0"/>\n\t<circle id="function random() { [native code] }:Atom:10" class="event" cx="106" cy="91" r="8" fill-opacity="0"/>\n\t<circle id="function random() { [native code] }:Atom:11" class="event" cx="91" cy="83" r="8" fill-opacity="0"/>\n\t<circle id="function random() { [native code] }:Atom:12" class="event" cx="76" cy="91" r="8" fill-opacity="0"/>\n\t<circle id="function random() { [native code] }:Atom:13" class="event" cx="62" cy="83" r="8" fill-opacity="0"/>\n\t<circle id="function random() { [native code] }:Atom:14" class="event" cx="47" cy="91" r="8" fill-opacity="0"/>\n\t<circle id="function random() { [native code] }:Atom:15" class="event" cx="32" cy="83" r="8" fill-opacity="0"/>\n\t<circle id="function random() { [native code] }:Atom:16" class="event" cx="17" cy="91" r="8" fill-opacity="0"/>\n\t<circle id="function random() { [native code] }:Atom:17" class="event" cx="76" cy="108" r="8" fill-opacity="0"/>\n\t<circle id="function random() { [native code] }:Atom:18" class="event" cx="91" cy="66" r="8" fill-opacity="0"/>\n\t<circle id="function random() { [native code] }:Atom:19" class="event" cx="106" cy="57" r="8" fill-opacity="0"/>\n\t<circle id="function random() { [native code] }:Atom:20" class="event" cx="120" cy="66" r="8" fill-opacity="0"/>\n\t<circle id="function random() { [native code] }:Atom:21" class="event" cx="133" cy="55" r="8" fill-opacity="0"/>\n\t<circle id="function random() { [native code] }:Atom:22" class="event" cx="126" cy="39" r="8" fill-opacity="0"/>\n\t<circle id="function random() { [native code] }:Atom:23" class="event" cx="109" cy="41" r="8" fill-opacity="0"/>\n\t<circle id="function random() { [native code] }:Atom:24" class="event" cx="99" cy="27" r="8" fill-opacity="0"/>\n\t<circle id="function random() { [native code] }:Atom:25" class="event" cx="106" cy="12" r="8" fill-opacity="0"/>\n\t<circle id="function random() { [native code] }:Atom:26" class="event" cx="123" cy="10" r="8" fill-opacity="0"/>\n\t<circle id="function random() { [native code] }:Atom:27" class="event" cx="133" cy="24" r="8" fill-opacity="0"/>\n</svg>