<svg id="function random() { [native code] }" xmlns="http://www.w3.org/2000/svg" version="1.1" width="200px" height="150px" viewBox="0 0 200 150">\n\t<style> #function random() { [native code] } {pointer-events:none; }  #function random() { [native code] } .event  { pointer-events:all;}  </style>\n\t<text x="152" y="123" font-family=" Helvetica" font-weight="900" font-size="12" fill="rgb(48,80,248)">N</text>\n\t<text x="99" y="134" font-family=" Helvetica" font-weight="900" font-size="12" fill="rgb(48,80,248)">N</text>\n\t<text x="99" y="146" font-family=" Helvetica" font-weight="900" font-size="12" fill="rgb(48,80,248)">H</text>\n\t<text x="170" y="73" font-family=" Helvetica" font-weight="900" font-size="12" fill="rgb(144,224,80)">F</text>\n\t<text x="135" y="11" font-family=" Helvetica" font-weight="900" font-size="12" fill="rgb(144,224,80)">F</text>\n\t<text x="99" y="93" font-family=" Helvetica" font-weight="900" font-size="12" fill="rgb(48,80,248)">N</text>\n\t<text x="77" y="42" font-family=" Helvetica" font-weight="900" font-size="12" fill="rgb(48,80,248)">N</text>\n\t<text x="86" y="42" font-family=" Helvetica" font-weight="900" font-size="12" fill="rgb(48,80,248)">H</text>\n\t<text x="63" y="134" font-family=" Helvetica" font-weight="900" font-size="12" fill="rgb(255,13,13)">O</text>\n\t<line x1="68" y1="89" x2="86" y2="99" style="stroke:rgb(0,0,0);stroke-width:1"/>\n\t<line x1="71" y1="87" x2="85" y2="95" style="stroke:rgb(0,0,0);stroke-width:1"/>\n\t<line x1="86" y1="58" x2="68" y2="69" style="stroke:rgb(0,0,0);stroke-width:1"/>\n\t<line x1="82" y1="57" x2="69" y2="65" style="stroke:rgb(0,0,0);stroke-width:1"/>\n\t<line x1="139" y1="69" x2="121" y2="58" style="stroke:rgb(0,0,0);stroke-width:1"/>\n\t<line x1="138" y1="65" x2="124" y2="57" style="stroke:rgb(0,0,0);stroke-width:1"/>\n\t<line x1="156" y1="38" x2="156" y2="58" style="stroke:rgb(0,0,0);stroke-width:1"/>\n\t<line x1="153" y1="40" x2="153" y2="56" style="stroke:rgb(0,0,0);stroke-width:1"/>\n\t<line x1="121" y1="38" x2="139" y2="28" style="stroke:rgb(0,0,0);stroke-width:1"/>\n\t<line x1="124" y1="40" x2="138" y2="32" style="stroke:rgb(0,0,0);stroke-width:1"/>\n\t<line x1="103" y1="69" x2="103" y2="83" style="stroke:rgb(0,0,0);stroke-width:1"/>\n\t<line x1="100" y1="71" x2="100" y2="83" style="stroke:rgb(0,0,0);stroke-width:1"/>\n\t<line x1="49" y1="20" x2="61" y2="36" style="stroke:rgb(0,0,0);stroke-width:1"/>\n\t<line x1="48" y1="23" x2="57" y2="36" style="stroke:rgb(0,0,0);stroke-width:1"/>\n\t<line x1="21" y1="41" x2="29" y2="22" style="stroke:rgb(0,0,0);stroke-width:1"/>\n\t<line x1="24" y1="40" x2="31" y2="25" style="stroke:rgb(0,0,0);stroke-width:1"/>\n\t<line x1="53" y1="55" x2="33" y2="57" style="stroke:rgb(0,0,0);stroke-width:1"/>\n\t<line x1="50" y1="52" x2="34" y2="54" style="stroke:rgb(0,0,0);stroke-width:1"/>\n\t<line x1="86" y1="118" x2="73" y2="125" style="stroke:rgb(0,0,0);stroke-width:1"/>\n\t<line x1="87" y1="120" x2="74" y2="128" style="stroke:rgb(0,0,0);stroke-width:1"/>\n\t<line x1="162" y1="123" x2="174" y2="130" style="stroke:rgb(0,0,0);stroke-width:1"/>\n\t<line x1="139" y1="130" x2="151" y2="123" style="stroke:rgb(0,0,0);stroke-width:1"/>\n\t<line x1="121" y1="119" x2="139" y2="130" style="stroke:rgb(0,0,0);stroke-width:1"/>\n\t<line x1="109" y1="127" x2="121" y2="119" style="stroke:rgb(0,0,0);stroke-width:1"/>\n\t<line x1="86" y1="119" x2="98" y2="127" style="stroke:rgb(0,0,0);stroke-width:1"/>\n\t<line x1="86" y1="99" x2="86" y2="119" style="stroke:rgb(0,0,0);stroke-width:1"/>\n\t<line x1="68" y1="69" x2="68" y2="89" style="stroke:rgb(0,0,0);stroke-width:1"/>\n\t<line x1="103" y1="69" x2="86" y2="58" style="stroke:rgb(0,0,0);stroke-width:1"/>\n\t<line x1="121" y1="58" x2="103" y2="69" style="stroke:rgb(0,0,0);stroke-width:1"/>\n\t<line x1="156" y1="58" x2="139" y2="69" style="stroke:rgb(0,0,0);stroke-width:1"/>\n\t<line x1="169" y1="66" x2="156" y2="58" style="stroke:rgb(0,0,0);stroke-width:1"/>\n\t<line x1="139" y1="28" x2="156" y2="38" style="stroke:rgb(0,0,0);stroke-width:1"/>\n\t<line x1="139" y1="13" x2="139" y2="28" style="stroke:rgb(0,0,0);stroke-width:1"/>\n\t<line x1="121" y1="38" x2="121" y2="58" style="stroke:rgb(0,0,0);stroke-width:1"/>\n\t<line x1="98" y1="92" x2="86" y2="99" style="stroke:rgb(0,0,0);stroke-width:1"/>\n\t<line x1="83" y1="44" x2="86" y2="58" style="stroke:rgb(0,0,0);stroke-width:1"/>\n\t<line x1="61" y1="36" x2="76" y2="38" style="stroke:rgb(0,0,0);stroke-width:1"/>\n\t<line x1="29" y1="22" x2="49" y2="20" style="stroke:rgb(0,0,0);stroke-width:1"/>\n\t<line x1="33" y1="57" x2="21" y2="41" style="stroke:rgb(0,0,0);stroke-width:1"/>\n\t<line x1="53" y1="55" x2="61" y2="36" style="stroke:rgb(0,0,0);stroke-width:1"/>\n\t<line x1="53" y1="55" x2="68" y2="69" style="stroke:rgb(0,0,0);stroke-width:1"/>\n\t<line x1="156" y1="99" x2="156" y2="113" style="stroke:rgb(0,0,0);stroke-width:1"/>\n\t<line id="function random() { [native code] }:Bond:7-6" class="event" x1="68" y1="89" x2="86" y2="99" stroke-width="8" stroke-opacity="0"/>\n\t<line id="function random() { [native code] }:Bond:9-8" class="event" x1="86" y1="58" x2="68" y2="69" stroke-width="8" stroke-opacity="0"/>\n\t<line id="function random() { [native code] }:Bond:12-11" class="event" x1="139" y1="69" x2="121" y2="58" stroke-width="8" stroke-opacity="0"/>\n\t<line id="function random() { [native code] }:Bond:15-13" class="event" x1="156" y1="38" x2="156" y2="58" stroke-width="8" stroke-opacity="0"/>\n\t<line id="function random() { [native code] }:Bond:18-16" class="event" x1="121" y1="38" x2="139" y2="28" stroke-width="8" stroke-opacity="0"/>\n\t<line id="function random() { [native code] }:Bond:19-10" class="event" x1="103" y1="89" x2="103" y2="69" stroke-width="8" stroke-opacity="0"/>\n\t<line id="function random() { [native code] }:Bond:22-21" class="event" x1="49" y1="20" x2="61" y2="36" stroke-width="8" stroke-opacity="0"/>\n\t<line id="function random() { [native code] }:Bond:24-23" class="event" x1="21" y1="41" x2="29" y2="22" stroke-width="8" stroke-opacity="0"/>\n\t<line id="function random() { [native code] }:Bond:26-25" class="event" x1="53" y1="55" x2="33" y2="57" stroke-width="8" stroke-opacity="0"/>\n\t<line id="function random() { [native code] }:Bond:27-5" class="event" x1="68" y1="130" x2="86" y2="119" stroke-width="8" stroke-opacity="0"/>\n\t<line id="function random() { [native code] }:Bond:1-0" class="event" x1="156" y1="119" x2="174" y2="130" stroke-width="8" stroke-opacity="0"/>\n\t<line id="function random() { [native code] }:Bond:2-1" class="event" x1="139" y1="130" x2="156" y2="119" stroke-width="8" stroke-opacity="0"/>\n\t<line id="function random() { [native code] }:Bond:3-2" class="event" x1="121" y1="119" x2="139" y2="130" stroke-width="8" stroke-opacity="0"/>\n\t<line id="function random() { [native code] }:Bond:4-3" class="event" x1="103" y1="130" x2="121" y2="119" stroke-width="8" stroke-opacity="0"/>\n\t<line id="function random() { [native code] }:Bond:5-4" class="event" x1="86" y1="119" x2="103" y2="130" stroke-width="8" stroke-opacity="0"/>\n\t<line id="function random() { [native code] }:Bond:6-5" class="event" x1="86" y1="99" x2="86" y2="119" stroke-width="8" stroke-opacity="0"/>\n\t<line id="function random() { [native code] }:Bond:8-7" class="event" x1="68" y1="69" x2="68" y2="89" stroke-width="8" stroke-opacity="0"/>\n\t<line id="function random() { [native code] }:Bond:10-9" class="event" x1="103" y1="69" x2="86" y2="58" stroke-width="8" stroke-opacity="0"/>\n\t<line id="function random() { [native code] }:Bond:11-10" class="event" x1="121" y1="58" x2="103" y2="69" stroke-width="8" stroke-opacity="0"/>\n\t<line id="function random() { [native code] }:Bond:13-12" class="event" x1="156" y1="58" x2="139" y2="69" stroke-width="8" stroke-opacity="0"/>\n\t<line id="function random() { [native code] }:Bond:14-13" class="event" x1="174" y1="69" x2="156" y2="58" stroke-width="8" stroke-opacity="0"/>\n\t<line id="function random() { [native code] }:Bond:16-15" class="event" x1="139" y1="28" x2="156" y2="38" stroke-width="8" stroke-opacity="0"/>\n\t<line id="function random() { [native code] }:Bond:17-16" class="event" x1="139" y1="7" x2="139" y2="28" stroke-width="8" stroke-opacity="0"/>\n\t<line id="function random() { [native code] }:Bond:18-11" class="event" x1="121" y1="38" x2="121" y2="58" stroke-width="8" stroke-opacity="0"/>\n\t<line id="function random() { [native code] }:Bond:19-6" class="event" x1="103" y1="89" x2="86" y2="99" stroke-width="8" stroke-opacity="0"/>\n\t<line id="function random() { [native code] }:Bond:20-9" class="event" x1="81" y1="38" x2="86" y2="58" stroke-width="8" stroke-opacity="0"/>\n\t<line id="function random() { [native code] }:Bond:21-20" class="event" x1="61" y1="36" x2="81" y2="38" stroke-width="8" stroke-opacity="0"/>\n\t<line id="function random() { [native code] }:Bond:23-22" class="event" x1="29" y1="22" x2="49" y2="20" stroke-width="8" stroke-opacity="0"/>\n\t<line id="function random() { [native code] }:Bond:25-24" class="event" x1="33" y1="57" x2="21" y2="41" stroke-width="8" stroke-opacity="0"/>\n\t<line id="function random() { [native code] }:Bond:26-21" class="event" x1="53" y1="55" x2="61" y2="36" stroke-width="8" stroke-opacity="0"/>\n\t<line id="function random() { [native code] }:Bond:26-8" class="event" x1="53" y1="55" x2="68" y2="69" stroke-width="8" stroke-opacity="0"/>\n\t<line id="function random() { [native code] }:Bond:28-1" class="event" x1="156" y1="99" x2="156" y2="119" stroke-width="8" stroke-opacity="0"/>\n\t<circle id="function random() { [native code] }:Atom:0" class="event" cx="174" cy="130" r="8" fill-opacity="0"/>\n\t<circle id="function random() { [native code] }:Atom:1" class="event" cx="156" cy="119" r="8" fill-opacity="0"/>\n\t<circle id="function random() { [native code] }:Atom:2" class="event" cx="139" cy="130" r="8" fill-opacity="0"/>\n\t<circle id="function random() { [native code] }:Atom:3" class="event" cx="121" cy="119" r="8" fill-opacity="0"/>\n\t<circle id="function random() { [native code] }:Atom:4" class="event" cx="103" cy="130" r="8" fill-opacity="0"/>\n\t<circle id="function random() { [native code] }:Atom:5" class="event" cx="86" cy="119" r="8" fill-opacity="0"/>\n\t<circle id="function random() { [native code] }:Atom:6" class="event" cx="86" cy="99" r="8" fill-opacity="0"/>\n\t<circle id="function random() { [native code] }:Atom:7" class="event" cx="68" cy="89" r="8" fill-opacity="0"/>\n\t<circle id="function random() { [native code] }:Atom:8" class="event" cx="68" cy="69" r="8" fill-opacity="0"/>\n\t<circle id="function random() { [native code] }:Atom:9" class="event" cx="86" cy="58" r="8" fill-opacity="0"/>\n\t<circle id="function random() { [native code] }:Atom:10" class="event" cx="103" cy="69" r="8" fill-opacity="0"/>\n\t<circle id="function random() { [native code] }:Atom:11" class="event" cx="121" cy="58" r="8" fill-opacity="0"/>\n\t<circle id="function random() { [native code] }:Atom:12" class="event" cx="139" cy="69" r="8" fill-opacity="0"/>\n\t<circle id="function random() { [native code] }:Atom:13" class="event" cx="156" cy="58" r="8" fill-opacity="0"/>\n\t<circle id="function random() { [native code] }:Atom:14" class="event" cx="174" cy="69" r="8" fill-opacity="0"/>\n\t<circle id="function random() { [native code] }:Atom:15" class="event" cx="156" cy="38" r="8" fill-opacity="0"/>\n\t<circle id="function random() { [native code] }:Atom:16" class="event" cx="139" cy="28" r="8" fill-opacity="0"/>\n\t<circle id="function random() { [native code] }:Atom:17" class="event" cx="139" cy="7" r="8" fill-opacity="0"/>\n\t<circle id="function random() { [native code] }:Atom:18" class="event" cx="121" cy="38" r="8" fill-opacity="0"/>\n\t<circle id="function random() { [native code] }:Atom:19" class="event" cx="103" cy="89" r="8" fill-opacity="0"/>\n\t<circle id="function random() { [native code] }:Atom:20" class="event" cx="81" cy="38" r="8" fill-opacity="0"/>\n\t<circle id="function random() { [native code] }:Atom:21" class="event" cx="61" cy="36" r="8" fill-opacity="0"/>\n\t<circle id="function random() { [native code] }:Atom:22" class="event" cx="49" cy="20" r="8" fill-opacity="0"/>\n\t<circle id="function random() { [native code] }:Atom:23" class="event" cx="29" cy="22" r="8" fill-opacity="0"/>\n\t<circle id="function random() { [native code] }:Atom:24" class="event" cx="21" cy="41" r="8" fill-opacity="0"/>\n\t<circle id="function random() { [native code] }:Atom:25" class="event" cx="33" cy="57" r="8" fill-opacity="0"/>\n\t<circle id="function random() { [native code] }:Atom:26" class="event" cx="53" cy="55" r="8" fill-opacity="0"/>\n\t<circle id="function random() { [native code] }:Atom:27" class="event" cx="68" cy="130" r="8" fill-opacity="0"/>\n\t<circle id="function random() { [native code] }:Atom:28" class="event" cx="156" cy="99" r="8" fill-opacity="0"/>\n</svg>