<svg id="function random() { [native code] }" xmlns="http://www.w3.org/2000/svg" version="1.1" width="200px" height="150px" viewBox="0 0 200 150">\n\t<style> #function random() { [native code] } {pointer-events:none; }  #function random() { [native code] } .event  { pointer-events:all;}  </style>\n\t<text x="139" y="28" font-family=" Helvetica" font-weight="900" font-size="14" fill="rgb(255,13,13)">O</text>\n\t<text x="101" y="73" font-family=" Helvetica" font-weight="900" font-size="14" fill="rgb(48,80,248)">N</text>\n\t<text x="21" y="95" font-family=" Helvetica" font-weight="900" font-size="14" fill="rgb(31,240,31)">Cl</text>\n\t<text x="21" y="140" font-family=" Helvetica" font-weight="900" font-size="14" fill="rgb(31,240,31)">Cl</text>\n\t<text x="125" y="129" font-family=" Helvetica" font-weight="900" font-size="14" fill="rgb(48,80,248)">N</text>\n\t<text x="115" y="129" font-family=" Helvetica" font-weight="900" font-size="14" fill="rgb(48,80,248)">H</text>\n\t<text x="101" y="28" font-family=" Helvetica" font-weight="900" font-size="14" fill="rgb(48,80,248)">N</text>\n\t<text x="101" y="14" font-family=" Helvetica" font-weight="900" font-size="14" fill="rgb(48,80,248)">H</text>\n\t<text x="42" y="39" font-family=" Helvetica" font-weight="900" font-size="14" fill="rgb(48,80,248)">N</text>\n\t<text x="2" y="61" font-family=" Helvetica" font-weight="900" font-size="14" fill="rgb(255,13,13)">O</text>\n\t<line x1="125" y1="37" x2="139" y2="29" style="stroke:rgb(0,0,0);stroke-width:1"/>\n\t<line x1="123" y1="34" x2="137" y2="26" style="stroke:rgb(0,0,0);stroke-width:1"/>\n\t<line x1="125" y1="57" x2="112" y2="65" style="stroke:rgb(0,0,0);stroke-width:1"/>\n\t<line x1="125" y1="62" x2="113" y2="68" style="stroke:rgb(0,0,0);stroke-width:1"/>\n\t<line x1="67" y1="91" x2="86" y2="103" style="stroke:rgb(0,0,0);stroke-width:1"/>\n\t<line x1="67" y1="95" x2="82" y2="104" style="stroke:rgb(0,0,0);stroke-width:1"/>\n\t<line x1="47" y1="125" x2="47" y2="103" style="stroke:rgb(0,0,0);stroke-width:1"/>\n\t<line x1="50" y1="123" x2="50" y2="105" style="stroke:rgb(0,0,0);stroke-width:1"/>\n\t<line x1="86" y1="125" x2="67" y2="136" style="stroke:rgb(0,0,0);stroke-width:1"/>\n\t<line x1="82" y1="123" x2="67" y2="132" style="stroke:rgb(0,0,0);stroke-width:1"/>\n\t<line x1="125" y1="103" x2="106" y2="91" style="stroke:rgb(0,0,0);stroke-width:1"/>\n\t<line x1="125" y1="98" x2="109" y2="90" style="stroke:rgb(0,0,0);stroke-width:1"/>\n\t<line x1="166" y1="145" x2="152" y2="127" style="stroke:rgb(0,0,0);stroke-width:1"/>\n\t<line x1="167" y1="141" x2="156" y2="127" style="stroke:rgb(0,0,0);stroke-width:1"/>\n\t<line x1="197" y1="122" x2="188" y2="143" style="stroke:rgb(0,0,0);stroke-width:1"/>\n\t<line x1="193" y1="123" x2="186" y2="139" style="stroke:rgb(0,0,0);stroke-width:1"/>\n\t<line x1="162" y1="106" x2="184" y2="104" style="stroke:rgb(0,0,0);stroke-width:1"/>\n\t<line x1="164" y1="110" x2="182" y2="108" style="stroke:rgb(0,0,0);stroke-width:1"/>\n\t<line x1="145" y1="69" x2="145" y2="91" style="stroke:rgb(0,0,0);stroke-width:1"/>\n\t<line x1="141" y1="71" x2="141" y2="89" style="stroke:rgb(0,0,0);stroke-width:1"/>\n\t<line x1="125" y1="57" x2="125" y2="35" style="stroke:rgb(0,0,0);stroke-width:1"/>\n\t<line x1="106" y1="91" x2="106" y2="76" style="stroke:rgb(0,0,0);stroke-width:1"/>\n\t<line x1="86" y1="103" x2="106" y2="91" style="stroke:rgb(0,0,0);stroke-width:1"/>\n\t<line x1="47" y1="103" x2="67" y2="91" style="stroke:rgb(0,0,0);stroke-width:1"/>\n\t<line x1="35" y1="96" x2="47" y2="103" style="stroke:rgb(0,0,0);stroke-width:1"/>\n\t<line x1="67" y1="136" x2="47" y2="125" style="stroke:rgb(0,0,0);stroke-width:1"/>\n\t<line x1="86" y1="125" x2="86" y2="103" style="stroke:rgb(0,0,0);stroke-width:1"/>\n\t<line x1="35" y1="132" x2="47" y2="125" style="stroke:rgb(0,0,0);stroke-width:1"/>\n\t<line x1="128" y1="118" x2="125" y2="103" style="stroke:rgb(0,0,0);stroke-width:1"/>\n\t<line x1="152" y1="127" x2="136" y2="125" style="stroke:rgb(0,0,0);stroke-width:1"/>\n\t<line x1="188" y1="143" x2="166" y2="145" style="stroke:rgb(0,0,0);stroke-width:1"/>\n\t<line x1="184" y1="104" x2="197" y2="122" style="stroke:rgb(0,0,0);stroke-width:1"/>\n\t<line x1="162" y1="106" x2="152" y2="127" style="stroke:rgb(0,0,0);stroke-width:1"/>\n\t<line x1="145" y1="91" x2="162" y2="106" style="stroke:rgb(0,0,0);stroke-width:1"/>\n\t<line x1="145" y1="91" x2="125" y2="103" style="stroke:rgb(0,0,0);stroke-width:1"/>\n\t<line x1="145" y1="69" x2="125" y2="57" style="stroke:rgb(0,0,0);stroke-width:1"/>\n\t<line x1="112" y1="27" x2="125" y2="35" style="stroke:rgb(0,0,0);stroke-width:1"/>\n\t<line x1="86" y1="35" x2="100" y2="27" style="stroke:rgb(0,0,0);stroke-width:1"/>\n\t<line x1="67" y1="24" x2="86" y2="35" style="stroke:rgb(0,0,0);stroke-width:1"/>\n\t<line x1="53" y1="31" x2="67" y2="24" style="stroke:rgb(0,0,0);stroke-width:1"/>\n\t<line x1="27" y1="24" x2="41" y2="31" style="stroke:rgb(0,0,0);stroke-width:1"/>\n\t<line x1="8" y1="35" x2="27" y2="24" style="stroke:rgb(0,0,0);stroke-width:1"/>\n\t<line x1="8" y1="50" x2="8" y2="35" style="stroke:rgb(0,0,0);stroke-width:1"/>\n\t<line x1="27" y1="69" x2="14" y2="61" style="stroke:rgb(0,0,0);stroke-width:1"/>\n\t<line x1="47" y1="57" x2="27" y2="69" style="stroke:rgb(0,0,0);stroke-width:1"/>\n\t<line x1="47" y1="57" x2="47" y2="42" style="stroke:rgb(0,0,0);stroke-width:1"/>\n\t<line id="function random() { [native code] }:Bond:1-0" class="event" x1="125" y1="35" x2="145" y2="24" stroke-width="8" stroke-opacity="0"/>\n\t<line id="function random() { [native code] }:Bond:3-2" class="event" x1="106" y1="69" x2="125" y2="57" stroke-width="8" stroke-opacity="0"/>\n\t<line id="function random() { [native code] }:Bond:6-5" class="event" x1="67" y1="91" x2="86" y2="103" stroke-width="8" stroke-opacity="0"/>\n\t<line id="function random() { [native code] }:Bond:9-7" class="event" x1="47" y1="125" x2="47" y2="103" stroke-width="8" stroke-opacity="0"/>\n\t<line id="function random() { [native code] }:Bond:11-10" class="event" x1="86" y1="125" x2="67" y2="136" stroke-width="8" stroke-opacity="0"/>\n\t<line id="function random() { [native code] }:Bond:13-4" class="event" x1="125" y1="103" x2="106" y2="91" stroke-width="8" stroke-opacity="0"/>\n\t<line id="function random() { [native code] }:Bond:16-15" class="event" x1="166" y1="145" x2="152" y2="127" stroke-width="8" stroke-opacity="0"/>\n\t<line id="function random() { [native code] }:Bond:18-17" class="event" x1="197" y1="122" x2="188" y2="143" stroke-width="8" stroke-opacity="0"/>\n\t<line id="function random() { [native code] }:Bond:20-19" class="event" x1="162" y1="106" x2="184" y2="104" stroke-width="8" stroke-opacity="0"/>\n\t<line id="function random() { [native code] }:Bond:22-21" class="event" x1="145" y1="69" x2="145" y2="91" stroke-width="8" stroke-opacity="0"/>\n\t<line id="function random() { [native code] }:Bond:2-1" class="event" x1="125" y1="57" x2="125" y2="35" stroke-width="8" stroke-opacity="0"/>\n\t<line id="function random() { [native code] }:Bond:4-3" class="event" x1="106" y1="91" x2="106" y2="69" stroke-width="8" stroke-opacity="0"/>\n\t<line id="function random() { [native code] }:Bond:5-4" class="event" x1="86" y1="103" x2="106" y2="91" stroke-width="8" stroke-opacity="0"/>\n\t<line id="function random() { [native code] }:Bond:7-6" class="event" x1="47" y1="103" x2="67" y2="91" stroke-width="8" stroke-opacity="0"/>\n\t<line id="function random() { [native code] }:Bond:8-7" class="event" x1="27" y1="91" x2="47" y2="103" stroke-width="8" stroke-opacity="0"/>\n\t<line id="function random() { [native code] }:Bond:10-9" class="event" x1="67" y1="136" x2="47" y2="125" stroke-width="8" stroke-opacity="0"/>\n\t<line id="function random() { [native code] }:Bond:11-5" class="event" x1="86" y1="125" x2="86" y2="103" stroke-width="8" stroke-opacity="0"/>\n\t<line id="function random() { [native code] }:Bond:12-9" class="event" x1="27" y1="136" x2="47" y2="125" stroke-width="8" stroke-opacity="0"/>\n\t<line id="function random() { [native code] }:Bond:14-13" class="event" x1="130" y1="125" x2="125" y2="103" stroke-width="8" stroke-opacity="0"/>\n\t<line id="function random() { [native code] }:Bond:15-14" class="event" x1="152" y1="127" x2="130" y2="125" stroke-width="8" stroke-opacity="0"/>\n\t<line id="function random() { [native code] }:Bond:17-16" class="event" x1="188" y1="143" x2="166" y2="145" stroke-width="8" stroke-opacity="0"/>\n\t<line id="function random() { [native code] }:Bond:19-18" class="event" x1="184" y1="104" x2="197" y2="122" stroke-width="8" stroke-opacity="0"/>\n\t<line id="function random() { [native code] }:Bond:20-15" class="event" x1="162" y1="106" x2="152" y2="127" stroke-width="8" stroke-opacity="0"/>\n\t<line id="function random() { [native code] }:Bond:21-20" class="event" x1="145" y1="91" x2="162" y2="106" stroke-width="8" stroke-opacity="0"/>\n\t<line id="function random() { [native code] }:Bond:21-13" class="event" x1="145" y1="91" x2="125" y2="103" stroke-width="8" stroke-opacity="0"/>\n\t<line id="function random() { [native code] }:Bond:22-2" class="event" x1="145" y1="69" x2="125" y2="57" stroke-width="8" stroke-opacity="0"/>\n\t<line id="function random() { [native code] }:Bond:23-1" class="event" x1="106" y1="24" x2="125" y2="35" stroke-width="8" stroke-opacity="0"/>\n\t<line id="function random() { [native code] }:Bond:24-23" class="event" x1="86" y1="35" x2="106" y2="24" stroke-width="8" stroke-opacity="0"/>\n\t<line id="function random() { [native code] }:Bond:25-24" class="event" x1="67" y1="24" x2="86" y2="35" stroke-width="8" stroke-opacity="0"/>\n\t<line id="function random() { [native code] }:Bond:26-25" class="event" x1="47" y1="35" x2="67" y2="24" stroke-width="8" stroke-opacity="0"/>\n\t<line id="function random() { [native code] }:Bond:27-26" class="event" x1="27" y1="24" x2="47" y2="35" stroke-width="8" stroke-opacity="0"/>\n\t<line id="function random() { [native code] }:Bond:28-27" class="event" x1="8" y1="35" x2="27" y2="24" stroke-width="8" stroke-opacity="0"/>\n\t<line id="function random() { [native code] }:Bond:29-28" class="event" x1="8" y1="57" x2="8" y2="35" stroke-width="8" stroke-opacity="0"/>\n\t<line id="function random() { [native code] }:Bond:30-29" class="event" x1="27" y1="69" x2="8" y2="57" stroke-width="8" stroke-opacity="0"/>\n\t<line id="function random() { [native code] }:Bond:31-30" class="event" x1="47" y1="57" x2="27" y2="69" stroke-width="8" stroke-opacity="0"/>\n\t<line id="function random() { [native code] }:Bond:31-26" class="event" x1="47" y1="57" x2="47" y2="35" stroke-width="8" stroke-opacity="0"/>\n\t<circle id="function random() { [native code] }:Atom:0" class="event" cx="145" cy="24" r="8" fill-opacity="0"/>\n\t<circle id="function random() { [native code] }:Atom:1" class="event" cx="125" cy="35" r="8" fill-opacity="0"/>\n\t<circle id="function random() { [native code] }:Atom:2" class="event" cx="125" cy="57" r="8" fill-opacity="0"/>\n\t<circle id="function random() { [native code] }:Atom:3" class="event" cx="106" cy="69" r="8" fill-opacity="0"/>\n\t<circle id="function random() { [native code] }:Atom:4" class="event" cx="106" cy="91" r="8" fill-opacity="0"/>\n\t<circle id="function random() { [native code] }:Atom:5" class="event" cx="86" cy="103" r="8" fill-opacity="0"/>\n\t<circle id="function random() { [native code] }:Atom:6" class="event" cx="67" cy="91" r="8" fill-opacity="0"/>\n\t<circle id="function random() { [native code] }:Atom:7" class="event" cx="47" cy="103" r="8" fill-opacity="0"/>\n\t<circle id="function random() { [native code] }:Atom:8" class="event" cx="27" cy="91" r="8" fill-opacity="0"/>\n\t<circle id="function random() { [native code] }:Atom:9" class="event" cx="47" cy="125" r="8" fill-opacity="0"/>\n\t<circle id="function random() { [native code] }:Atom:10" class="event" cx="67" cy="136" r="8" fill-opacity="0"/>\n\t<circle id="function random() { [native code] }:Atom:11" class="event" cx="86" cy="125" r="8" fill-opacity="0"/>\n\t<circle id="function random() { [native code] }:Atom:12" class="event" cx="27" cy="136" r="8" fill-opacity="0"/>\n\t<circle id="function random() { [native code] }:Atom:13" class="event" cx="125" cy="103" r="8" fill-opacity="0"/>\n\t<circle id="function random() { [native code] }:Atom:14" class="event" cx="130" cy="125" r="8" fill-opacity="0"/>\n\t<circle id="function random() { [native code] }:Atom:15" class="event" cx="152" cy="127" r="8" fill-opacity="0"/>\n\t<circle id="function random() { [native code] }:Atom:16" class="event" cx="166" cy="145" r="8" fill-opacity="0"/>\n\t<circle id="function random() { [native code] }:Atom:17" class="event" cx="188" cy="143" r="8" fill-opacity="0"/>\n\t<circle id="function random() { [native code] }:Atom:18" class="event" cx="197" cy="122" r="8" fill-opacity="0"/>\n\t<circle id="function random() { [native code] }:Atom:19" class="event" cx="184" cy="104" r="8" fill-opacity="0"/>\n\t<circle id="function random() { [native code] }:Atom:20" class="event" cx="162" cy="106" r="8" fill-opacity="0"/>\n\t<circle id="function random() { [native code] }:Atom:21" class="event" cx="145" cy="91" r="8" fill-opacity="0"/>\n\t<circle id="function random() { [native code] }:Atom:22" class="event" cx="145" cy="69" r="8" fill-opacity="0"/>\n\t<circle id="function random() { [native code] }:Atom:23" class="event" cx="106" cy="24" r="8" fill-opacity="0"/>\n\t<circle id="function random() { [native code] }:Atom:24" class="event" cx="86" cy="35" r="8" fill-opacity="0"/>\n\t<circle id="function random() { [native code] }:Atom:25" class="event" cx="67" cy="24" r="8" fill-opacity="0"/>\n\t<circle id="function random() { [native code] }:Atom:26" class="event" cx="47" cy="35" r="8" fill-opacity="0"/>\n\t<circle id="function random() { [native code] }:Atom:27" class="event" cx="27" cy="24" r="8" fill-opacity="0"/>\n\t<circle id="function random() { [native code] }:Atom:28" class="event" cx="8" cy="35" r="8" fill-opacity="0"/>\n\t<circle id="function random() { [native code] }:Atom:29" class="event" cx="8" cy="57" r="8" fill-opacity="0"/>\n\t<circle id="function random() { [native code] }:Atom:30" class="event" cx="27" cy="69" r="8" fill-opacity="0"/>\n\t<circle id="function random() { [native code] }:Atom:31" class="event" cx="47" cy="57" r="8" fill-opacity="0"/>\n</svg>