<svg id="function random() { [native code] }" xmlns="http://www.w3.org/2000/svg" version="1.1" width="200px" height="150px" viewBox="0 0 200 150">\n\t<style> #function random() { [native code] } {pointer-events:none; }  #function random() { [native code] } .event  { pointer-events:all;}  </style>\n\t<text x="179" y="132" font-family=" Helvetica" font-weight="900" font-size="12" fill="rgb(255,13,13)">O</text>\n\t<text x="188" y="132" font-family=" Helvetica" font-weight="900" font-size="12" fill="rgb(255,13,13)">H</text>\n\t<text x="128" y="122" font-family=" Helvetica" font-weight="900" font-size="12" fill="rgb(48,80,248)">N</text>\n\t<text x="128" y="110" font-family=" Helvetica" font-weight="900" font-size="12" fill="rgb(48,80,248)">H</text>\n\t<text x="77" y="132" font-family=" Helvetica" font-weight="900" font-size="12" fill="rgb(48,80,248)">N</text>\n\t<text x="77" y="144" font-family=" Helvetica" font-weight="900" font-size="12" fill="rgb(48,80,248)">H</text>\n\t<text x="77" y="92" font-family=" Helvetica" font-weight="900" font-size="12" fill="rgb(48,80,248)">N</text>\n\t<text x="144" y="73" font-family=" Helvetica" font-weight="900" font-size="12" fill="rgb(31,240,31)">Cl</text>\n\t<text x="110" y="14" font-family=" Helvetica" font-weight="900" font-size="12" fill="rgb(31,240,31)">Cl</text>\n\t<text x="56" y="44" font-family=" Helvetica" font-weight="900" font-size="12" fill="rgb(48,80,248)">N</text>\n\t<text x="64" y="44" font-family=" Helvetica" font-weight="900" font-size="12" fill="rgb(48,80,248)">H</text>\n\t<text x="43" y="132" font-family=" Helvetica" font-weight="900" font-size="12" fill="rgb(255,13,13)">O</text>\n\t<line x1="64" y1="98" x2="76" y2="91" style="stroke:rgb(0,0,0);stroke-width:1"/>\n\t<line x1="65" y1="94" x2="74" y2="89" style="stroke:rgb(0,0,0);stroke-width:1"/>\n\t<line x1="115" y1="69" x2="98" y2="59" style="stroke:rgb(0,0,0);stroke-width:1"/>\n\t<line x1="115" y1="65" x2="102" y2="57" style="stroke:rgb(0,0,0);stroke-width:1"/>\n\t<line x1="132" y1="39" x2="132" y2="59" style="stroke:rgb(0,0,0);stroke-width:1"/>\n\t<line x1="129" y1="41" x2="129" y2="57" style="stroke:rgb(0,0,0);stroke-width:1"/>\n\t<line x1="98" y1="39" x2="115" y2="29" style="stroke:rgb(0,0,0);stroke-width:1"/>\n\t<line x1="102" y1="41" x2="115" y2="33" style="stroke:rgb(0,0,0);stroke-width:1"/>\n\t<line x1="64" y1="59" x2="81" y2="69" style="stroke:rgb(0,0,0);stroke-width:1"/>\n\t<line x1="65" y1="62" x2="78" y2="70" style="stroke:rgb(0,0,0);stroke-width:1"/>\n\t<line x1="29" y1="22" x2="41" y2="37" style="stroke:rgb(0,0,0);stroke-width:1"/>\n\t<line x1="28" y1="25" x2="37" y2="37" style="stroke:rgb(0,0,0);stroke-width:1"/>\n\t<line x1="1" y1="42" x2="9" y2="24" style="stroke:rgb(0,0,0);stroke-width:1"/>\n\t<line x1="5" y1="41" x2="11" y2="27" style="stroke:rgb(0,0,0);stroke-width:1"/>\n\t<line x1="33" y1="55" x2="13" y2="57" style="stroke:rgb(0,0,0);stroke-width:1"/>\n\t<line x1="30" y1="53" x2="15" y2="54" style="stroke:rgb(0,0,0);stroke-width:1"/>\n\t<line x1="47" y1="88" x2="47" y2="69" style="stroke:rgb(0,0,0);stroke-width:1"/>\n\t<line x1="50" y1="86" x2="50" y2="71" style="stroke:rgb(0,0,0);stroke-width:1"/>\n\t<line x1="64" y1="116" x2="52" y2="123" style="stroke:rgb(0,0,0);stroke-width:1"/>\n\t<line x1="66" y1="119" x2="54" y2="126" style="stroke:rgb(0,0,0);stroke-width:1"/>\n\t<line x1="166" y1="118" x2="178" y2="124" style="stroke:rgb(0,0,0);stroke-width:1"/>\n\t<line x1="149" y1="128" x2="166" y2="118" style="stroke:rgb(0,0,0);stroke-width:1"/>\n\t<line x1="138" y1="121" x2="149" y2="128" style="stroke:rgb(0,0,0);stroke-width:1"/>\n\t<line x1="115" y1="128" x2="127" y2="121" style="stroke:rgb(0,0,0);stroke-width:1"/>\n\t<line x1="98" y1="118" x2="115" y2="128" style="stroke:rgb(0,0,0);stroke-width:1"/>\n\t<line x1="87" y1="125" x2="98" y2="118" style="stroke:rgb(0,0,0);stroke-width:1"/>\n\t<line x1="64" y1="118" x2="76" y2="125" style="stroke:rgb(0,0,0);stroke-width:1"/>\n\t<line x1="64" y1="98" x2="64" y2="118" style="stroke:rgb(0,0,0);stroke-width:1"/>\n\t<line x1="81" y1="69" x2="81" y2="82" style="stroke:rgb(0,0,0);stroke-width:1"/>\n\t<line x1="98" y1="59" x2="81" y2="69" style="stroke:rgb(0,0,0);stroke-width:1"/>\n\t<line x1="132" y1="59" x2="115" y2="69" style="stroke:rgb(0,0,0);stroke-width:1"/>\n\t<line x1="143" y1="65" x2="132" y2="59" style="stroke:rgb(0,0,0);stroke-width:1"/>\n\t<line x1="115" y1="29" x2="132" y2="39" style="stroke:rgb(0,0,0);stroke-width:1"/>\n\t<line x1="115" y1="16" x2="115" y2="29" style="stroke:rgb(0,0,0);stroke-width:1"/>\n\t<line x1="98" y1="39" x2="98" y2="59" style="stroke:rgb(0,0,0);stroke-width:1"/>\n\t<line x1="61" y1="46" x2="64" y2="59" style="stroke:rgb(0,0,0);stroke-width:1"/>\n\t<line x1="41" y1="37" x2="55" y2="39" style="stroke:rgb(0,0,0);stroke-width:1"/>\n\t<line x1="9" y1="24" x2="29" y2="22" style="stroke:rgb(0,0,0);stroke-width:1"/>\n\t<line x1="13" y1="57" x2="1" y2="42" style="stroke:rgb(0,0,0);stroke-width:1"/>\n\t<line x1="33" y1="55" x2="41" y2="37" style="stroke:rgb(0,0,0);stroke-width:1"/>\n\t<line x1="47" y1="69" x2="33" y2="55" style="stroke:rgb(0,0,0);stroke-width:1"/>\n\t<line x1="47" y1="69" x2="64" y2="59" style="stroke:rgb(0,0,0);stroke-width:1"/>\n\t<line x1="47" y1="88" x2="64" y2="98" style="stroke:rgb(0,0,0);stroke-width:1"/>\n\t<line id="function random() { [native code] }:Bond:9-8" class="event" x1="81" y1="88" x2="64" y2="98" stroke-width="8" stroke-opacity="0"/>\n\t<line id="function random() { [native code] }:Bond:12-11" class="event" x1="115" y1="69" x2="98" y2="59" stroke-width="8" stroke-opacity="0"/>\n\t<line id="function random() { [native code] }:Bond:15-13" class="event" x1="132" y1="39" x2="132" y2="59" stroke-width="8" stroke-opacity="0"/>\n\t<line id="function random() { [native code] }:Bond:18-16" class="event" x1="98" y1="39" x2="115" y2="29" stroke-width="8" stroke-opacity="0"/>\n\t<line id="function random() { [native code] }:Bond:19-10" class="event" x1="64" y1="59" x2="81" y2="69" stroke-width="8" stroke-opacity="0"/>\n\t<line id="function random() { [native code] }:Bond:22-21" class="event" x1="29" y1="22" x2="41" y2="37" stroke-width="8" stroke-opacity="0"/>\n\t<line id="function random() { [native code] }:Bond:24-23" class="event" x1="1" y1="42" x2="9" y2="24" stroke-width="8" stroke-opacity="0"/>\n\t<line id="function random() { [native code] }:Bond:26-25" class="event" x1="33" y1="55" x2="13" y2="57" stroke-width="8" stroke-opacity="0"/>\n\t<line id="function random() { [native code] }:Bond:28-27" class="event" x1="47" y1="88" x2="47" y2="69" stroke-width="8" stroke-opacity="0"/>\n\t<line id="function random() { [native code] }:Bond:29-7" class="event" x1="47" y1="128" x2="64" y2="118" stroke-width="8" stroke-opacity="0"/>\n\t<line id="function random() { [native code] }:Bond:1-0" class="event" x1="166" y1="118" x2="183" y2="128" stroke-width="8" stroke-opacity="0"/>\n\t<line id="function random() { [native code] }:Bond:2-1" class="event" x1="149" y1="128" x2="166" y2="118" stroke-width="8" stroke-opacity="0"/>\n\t<line id="function random() { [native code] }:Bond:3-2" class="event" x1="132" y1="118" x2="149" y2="128" stroke-width="8" stroke-opacity="0"/>\n\t<line id="function random() { [native code] }:Bond:4-3" class="event" x1="115" y1="128" x2="132" y2="118" stroke-width="8" stroke-opacity="0"/>\n\t<line id="function random() { [native code] }:Bond:5-4" class="event" x1="98" y1="118" x2="115" y2="128" stroke-width="8" stroke-opacity="0"/>\n\t<line id="function random() { [native code] }:Bond:6-5" class="event" x1="81" y1="128" x2="98" y2="118" stroke-width="8" stroke-opacity="0"/>\n\t<line id="function random() { [native code] }:Bond:7-6" class="event" x1="64" y1="118" x2="81" y2="128" stroke-width="8" stroke-opacity="0"/>\n\t<line id="function random() { [native code] }:Bond:8-7" class="event" x1="64" y1="98" x2="64" y2="118" stroke-width="8" stroke-opacity="0"/>\n\t<line id="function random() { [native code] }:Bond:10-9" class="event" x1="81" y1="69" x2="81" y2="88" stroke-width="8" stroke-opacity="0"/>\n\t<line id="function random() { [native code] }:Bond:11-10" class="event" x1="98" y1="59" x2="81" y2="69" stroke-width="8" stroke-opacity="0"/>\n\t<line id="function random() { [native code] }:Bond:13-12" class="event" x1="132" y1="59" x2="115" y2="69" stroke-width="8" stroke-opacity="0"/>\n\t<line id="function random() { [native code] }:Bond:14-13" class="event" x1="149" y1="69" x2="132" y2="59" stroke-width="8" stroke-opacity="0"/>\n\t<line id="function random() { [native code] }:Bond:16-15" class="event" x1="115" y1="29" x2="132" y2="39" stroke-width="8" stroke-opacity="0"/>\n\t<line id="function random() { [native code] }:Bond:17-16" class="event" x1="115" y1="10" x2="115" y2="29" stroke-width="8" stroke-opacity="0"/>\n\t<line id="function random() { [native code] }:Bond:18-11" class="event" x1="98" y1="39" x2="98" y2="59" stroke-width="8" stroke-opacity="0"/>\n\t<line id="function random() { [native code] }:Bond:20-19" class="event" x1="60" y1="40" x2="64" y2="59" stroke-width="8" stroke-opacity="0"/>\n\t<line id="function random() { [native code] }:Bond:21-20" class="event" x1="41" y1="37" x2="60" y2="40" stroke-width="8" stroke-opacity="0"/>\n\t<line id="function random() { [native code] }:Bond:23-22" class="event" x1="9" y1="24" x2="29" y2="22" stroke-width="8" stroke-opacity="0"/>\n\t<line id="function random() { [native code] }:Bond:25-24" class="event" x1="13" y1="57" x2="1" y2="42" stroke-width="8" stroke-opacity="0"/>\n\t<line id="function random() { [native code] }:Bond:26-21" class="event" x1="33" y1="55" x2="41" y2="37" stroke-width="8" stroke-opacity="0"/>\n\t<line id="function random() { [native code] }:Bond:27-26" class="event" x1="47" y1="69" x2="33" y2="55" stroke-width="8" stroke-opacity="0"/>\n\t<line id="function random() { [native code] }:Bond:27-19" class="event" x1="47" y1="69" x2="64" y2="59" stroke-width="8" stroke-opacity="0"/>\n\t<line id="function random() { [native code] }:Bond:28-8" class="event" x1="47" y1="88" x2="64" y2="98" stroke-width="8" stroke-opacity="0"/>\n\t<circle id="function random() { [native code] }:Atom:0" class="event" cx="183" cy="128" r="8" fill-opacity="0"/>\n\t<circle id="function random() { [native code] }:Atom:1" class="event" cx="166" cy="118" r="8" fill-opacity="0"/>\n\t<circle id="function random() { [native code] }:Atom:2" class="event" cx="149" cy="128" r="8" fill-opacity="0"/>\n\t<circle id="function random() { [native code] }:Atom:3" class="event" cx="132" cy="118" r="8" fill-opacity="0"/>\n\t<circle id="function random() { [native code] }:Atom:4" class="event" cx="115" cy="128" r="8" fill-opacity="0"/>\n\t<circle id="function random() { [native code] }:Atom:5" class="event" cx="98" cy="118" r="8" fill-opacity="0"/>\n\t<circle id="function random() { [native code] }:Atom:6" class="event" cx="81" cy="128" r="8" fill-opacity="0"/>\n\t<circle id="function random() { [native code] }:Atom:7" class="event" cx="64" cy="118" r="8" fill-opacity="0"/>\n\t<circle id="function random() { [native code] }:Atom:8" class="event" cx="64" cy="98" r="8" fill-opacity="0"/>\n\t<circle id="function random() { [native code] }:Atom:9" class="event" cx="81" cy="88" r="8" fill-opacity="0"/>\n\t<circle id="function random() { [native code] }:Atom:10" class="event" cx="81" cy="69" r="8" fill-opacity="0"/>\n\t<circle id="function random() { [native code] }:Atom:11" class="event" cx="98" cy="59" r="8" fill-opacity="0"/>\n\t<circle id="function random() { [native code] }:Atom:12" class="event" cx="115" cy="69" r="8" fill-opacity="0"/>\n\t<circle id="function random() { [native code] }:Atom:13" class="event" cx="132" cy="59" r="8" fill-opacity="0"/>\n\t<circle id="function random() { [native code] }:Atom:14" class="event" cx="149" cy="69" r="8" fill-opacity="0"/>\n\t<circle id="function random() { [native code] }:Atom:15" class="event" cx="132" cy="39" r="8" fill-opacity="0"/>\n\t<circle id="function random() { [native code] }:Atom:16" class="event" cx="115" cy="29" r="8" fill-opacity="0"/>\n\t<circle id="function random() { [native code] }:Atom:17" class="event" cx="115" cy="10" r="8" fill-opacity="0"/>\n\t<circle id="function random() { [native code] }:Atom:18" class="event" cx="98" cy="39" r="8" fill-opacity="0"/>\n\t<circle id="function random() { [native code] }:Atom:19" class="event" cx="64" cy="59" r="8" fill-opacity="0"/>\n\t<circle id="function random() { [native code] }:Atom:20" class="event" cx="60" cy="40" r="8" fill-opacity="0"/>\n\t<circle id="function random() { [native code] }:Atom:21" class="event" cx="41" cy="37" r="8" fill-opacity="0"/>\n\t<circle id="function random() { [native code] }:Atom:22" class="event" cx="29" cy="22" r="8" fill-opacity="0"/>\n\t<circle id="function random() { [native code] }:Atom:23" class="event" cx="9" cy="24" r="8" fill-opacity="0"/>\n\t<circle id="function random() { [native code] }:Atom:24" class="event" cx="1" cy="42" r="8" fill-opacity="0"/>\n\t<circle id="function random() { [native code] }:Atom:25" class="event" cx="13" cy="57" r="8" fill-opacity="0"/>\n\t<circle id="function random() { [native code] }:Atom:26" class="event" cx="33" cy="55" r="8" fill-opacity="0"/>\n\t<circle id="function random() { [native code] }:Atom:27" class="event" cx="47" cy="69" r="8" fill-opacity="0"/>\n\t<circle id="function random() { [native code] }:Atom:28" class="event" cx="47" cy="88" r="8" fill-opacity="0"/>\n\t<circle id="function random() { [native code] }:Atom:29" class="event" cx="47" cy="128" r="8" fill-opacity="0"/>\n</svg>