<svg id="function random() { [native code] }" xmlns="http://www.w3.org/2000/svg" version="1.1" width="200px" height="150px" viewBox="0 0 200 150">\n\t<style> #function random() { [native code] } {pointer-events:none; }  #function random() { [native code] } .event  { pointer-events:all;}  </style>\n\t<text x="124" y="131" font-family=" Helvetica" font-weight="900" font-size="14" fill="rgb(255,13,13)">O</text>\n\t<text x="125" y="84" font-family=" Helvetica" font-weight="900" font-size="14" fill="rgb(48,80,248)">N</text>\n\t<text x="100" y="27" font-family=" Helvetica" font-weight="900" font-size="14" fill="rgb(48,80,248)">N</text>\n\t<text x="110" y="27" font-family=" Helvetica" font-weight="900" font-size="14" fill="rgb(48,80,248)">H</text>\n\t<text x="84" y="131" font-family=" Helvetica" font-weight="900" font-size="14" fill="rgb(48,80,248)">N</text>\n\t<text x="84" y="145" font-family=" Helvetica" font-weight="900" font-size="14" fill="rgb(48,80,248)">H</text>\n\t<text x="24" y="119" font-family=" Helvetica" font-weight="900" font-size="14" fill="rgb(48,80,248)">N</text>\n\t<text x="24" y="105" font-family=" Helvetica" font-weight="900" font-size="14" fill="rgb(48,80,248)">H</text>\n\t<line x1="108" y1="116" x2="122" y2="125" style="stroke:rgb(0,0,0);stroke-width:1"/>\n\t<line x1="110" y1="113" x2="124" y2="122" style="stroke:rgb(0,0,0);stroke-width:1"/>\n\t<line x1="110" y1="92" x2="124" y2="84" style="stroke:rgb(0,0,0);stroke-width:1"/>\n\t<line x1="110" y1="88" x2="122" y2="81" style="stroke:rgb(0,0,0);stroke-width:1"/>\n\t<line x1="110" y1="46" x2="130" y2="57" style="stroke:rgb(0,0,0);stroke-width:1"/>\n\t<line x1="110" y1="50" x2="126" y2="59" style="stroke:rgb(0,0,0);stroke-width:1"/>\n\t<line x1="68" y1="2" x2="82" y2="21" style="stroke:rgb(0,0,0);stroke-width:1"/>\n\t<line x1="67" y1="6" x2="77" y2="21" style="stroke:rgb(0,0,0);stroke-width:1"/>\n\t<line x1="36" y1="25" x2="45" y2="4" style="stroke:rgb(0,0,0);stroke-width:1"/>\n\t<line x1="40" y1="25" x2="47" y2="8" style="stroke:rgb(0,0,0);stroke-width:1"/>\n\t<line x1="72" y1="42" x2="49" y2="44" style="stroke:rgb(0,0,0);stroke-width:1"/>\n\t<line x1="69" y1="39" x2="51" y2="40" style="stroke:rgb(0,0,0);stroke-width:1"/>\n\t<line x1="89" y1="80" x2="89" y2="57" style="stroke:rgb(0,0,0);stroke-width:1"/>\n\t<line x1="93" y1="78" x2="93" y2="60" style="stroke:rgb(0,0,0);stroke-width:1"/>\n\t<line x1="110" y1="92" x2="110" y2="115" style="stroke:rgb(0,0,0);stroke-width:1"/>\n\t<line x1="130" y1="57" x2="130" y2="73" style="stroke:rgb(0,0,0);stroke-width:1"/>\n\t<line x1="150" y1="46" x2="130" y2="57" style="stroke:rgb(0,0,0);stroke-width:1"/>\n\t<line x1="170" y1="57" x2="150" y2="46" style="stroke:rgb(0,0,0);stroke-width:1"/>\n\t<line x1="190" y1="46" x2="170" y2="57" style="stroke:rgb(0,0,0);stroke-width:1"/>\n\t<line x1="190" y1="23" x2="190" y2="46" style="stroke:rgb(0,0,0);stroke-width:1"/>\n\t<line x1="170" y1="11" x2="190" y2="23" style="stroke:rgb(0,0,0);stroke-width:1"/>\n\t<line x1="150" y1="23" x2="170" y2="11" style="stroke:rgb(0,0,0);stroke-width:1"/>\n\t<line x1="150" y1="23" x2="150" y2="46" style="stroke:rgb(0,0,0);stroke-width:1"/>\n\t<line x1="106" y1="30" x2="110" y2="46" style="stroke:rgb(0,0,0);stroke-width:1"/>\n\t<line x1="82" y1="21" x2="99" y2="22" style="stroke:rgb(0,0,0);stroke-width:1"/>\n\t<line x1="45" y1="4" x2="68" y2="2" style="stroke:rgb(0,0,0);stroke-width:1"/>\n\t<line x1="49" y1="44" x2="36" y2="25" style="stroke:rgb(0,0,0);stroke-width:1"/>\n\t<line x1="72" y1="42" x2="82" y2="21" style="stroke:rgb(0,0,0);stroke-width:1"/>\n\t<line x1="89" y1="57" x2="72" y2="42" style="stroke:rgb(0,0,0);stroke-width:1"/>\n\t<line x1="89" y1="57" x2="110" y2="46" style="stroke:rgb(0,0,0);stroke-width:1"/>\n\t<line x1="89" y1="80" x2="110" y2="92" style="stroke:rgb(0,0,0);stroke-width:1"/>\n\t<line x1="96" y1="123" x2="110" y2="115" style="stroke:rgb(0,0,0);stroke-width:1"/>\n\t<line x1="69" y1="115" x2="83" y2="123" style="stroke:rgb(0,0,0);stroke-width:1"/>\n\t<line x1="49" y1="127" x2="69" y2="115" style="stroke:rgb(0,0,0);stroke-width:1"/>\n\t<line x1="35" y1="119" x2="49" y2="127" style="stroke:rgb(0,0,0);stroke-width:1"/>\n\t<line x1="9" y1="127" x2="23" y2="119" style="stroke:rgb(0,0,0);stroke-width:1"/>\n\t<line id="function random() { [native code] }:Bond:1-0" class="event" x1="110" y1="115" x2="130" y2="127" stroke-width="8" stroke-opacity="0"/>\n\t<line id="function random() { [native code] }:Bond:3-2" class="event" x1="130" y1="80" x2="110" y2="92" stroke-width="8" stroke-opacity="0"/>\n\t<line id="function random() { [native code] }:Bond:11-4" class="event" x1="110" y1="46" x2="130" y2="57" stroke-width="8" stroke-opacity="0"/>\n\t<line id="function random() { [native code] }:Bond:14-13" class="event" x1="68" y1="2" x2="82" y2="21" stroke-width="8" stroke-opacity="0"/>\n\t<line id="function random() { [native code] }:Bond:16-15" class="event" x1="36" y1="25" x2="45" y2="4" stroke-width="8" stroke-opacity="0"/>\n\t<line id="function random() { [native code] }:Bond:18-17" class="event" x1="72" y1="42" x2="49" y2="44" stroke-width="8" stroke-opacity="0"/>\n\t<line id="function random() { [native code] }:Bond:20-19" class="event" x1="89" y1="80" x2="89" y2="57" stroke-width="8" stroke-opacity="0"/>\n\t<line id="function random() { [native code] }:Bond:2-1" class="event" x1="110" y1="92" x2="110" y2="115" stroke-width="8" stroke-opacity="0"/>\n\t<line id="function random() { [native code] }:Bond:4-3" class="event" x1="130" y1="57" x2="130" y2="80" stroke-width="8" stroke-opacity="0"/>\n\t<line id="function random() { [native code] }:Bond:5-4" class="event" x1="150" y1="46" x2="130" y2="57" stroke-width="8" stroke-opacity="0"/>\n\t<line id="function random() { [native code] }:Bond:6-5" class="event" x1="170" y1="57" x2="150" y2="46" stroke-width="8" stroke-opacity="0"/>\n\t<line id="function random() { [native code] }:Bond:7-6" class="event" x1="190" y1="46" x2="170" y2="57" stroke-width="8" stroke-opacity="0"/>\n\t<line id="function random() { [native code] }:Bond:8-7" class="event" x1="190" y1="23" x2="190" y2="46" stroke-width="8" stroke-opacity="0"/>\n\t<line id="function random() { [native code] }:Bond:9-8" class="event" x1="170" y1="11" x2="190" y2="23" stroke-width="8" stroke-opacity="0"/>\n\t<line id="function random() { [native code] }:Bond:10-9" class="event" x1="150" y1="23" x2="170" y2="11" stroke-width="8" stroke-opacity="0"/>\n\t<line id="function random() { [native code] }:Bond:10-5" class="event" x1="150" y1="23" x2="150" y2="46" stroke-width="8" stroke-opacity="0"/>\n\t<line id="function random() { [native code] }:Bond:12-11" class="event" x1="105" y1="23" x2="110" y2="46" stroke-width="8" stroke-opacity="0"/>\n\t<line id="function random() { [native code] }:Bond:13-12" class="event" x1="82" y1="21" x2="105" y2="23" stroke-width="8" stroke-opacity="0"/>\n\t<line id="function random() { [native code] }:Bond:15-14" class="event" x1="45" y1="4" x2="68" y2="2" stroke-width="8" stroke-opacity="0"/>\n\t<line id="function random() { [native code] }:Bond:17-16" class="event" x1="49" y1="44" x2="36" y2="25" stroke-width="8" stroke-opacity="0"/>\n\t<line id="function random() { [native code] }:Bond:18-13" class="event" x1="72" y1="42" x2="82" y2="21" stroke-width="8" stroke-opacity="0"/>\n\t<line id="function random() { [native code] }:Bond:19-18" class="event" x1="89" y1="57" x2="72" y2="42" stroke-width="8" stroke-opacity="0"/>\n\t<line id="function random() { [native code] }:Bond:19-11" class="event" x1="89" y1="57" x2="110" y2="46" stroke-width="8" stroke-opacity="0"/>\n\t<line id="function random() { [native code] }:Bond:20-2" class="event" x1="89" y1="80" x2="110" y2="92" stroke-width="8" stroke-opacity="0"/>\n\t<line id="function random() { [native code] }:Bond:21-1" class="event" x1="89" y1="127" x2="110" y2="115" stroke-width="8" stroke-opacity="0"/>\n\t<line id="function random() { [native code] }:Bond:22-21" class="event" x1="69" y1="115" x2="89" y2="127" stroke-width="8" stroke-opacity="0"/>\n\t<line id="function random() { [native code] }:Bond:23-22" class="event" x1="49" y1="127" x2="69" y2="115" stroke-width="8" stroke-opacity="0"/>\n\t<line id="function random() { [native code] }:Bond:24-23" class="event" x1="29" y1="115" x2="49" y2="127" stroke-width="8" stroke-opacity="0"/>\n\t<line id="function random() { [native code] }:Bond:25-24" class="event" x1="9" y1="127" x2="29" y2="115" stroke-width="8" stroke-opacity="0"/>\n\t<circle id="function random() { [native code] }:Atom:0" class="event" cx="130" cy="127" r="8" fill-opacity="0"/>\n\t<circle id="function random() { [native code] }:Atom:1" class="event" cx="110" cy="115" r="8" fill-opacity="0"/>\n\t<circle id="function random() { [native code] }:Atom:2" class="event" cx="110" cy="92" r="8" fill-opacity="0"/>\n\t<circle id="function random() { [native code] }:Atom:3" class="event" cx="130" cy="80" r="8" fill-opacity="0"/>\n\t<circle id="function random() { [native code] }:Atom:4" class="event" cx="130" cy="57" r="8" fill-opacity="0"/>\n\t<circle id="function random() { [native code] }:Atom:5" class="event" cx="150" cy="46" r="8" fill-opacity="0"/>\n\t<circle id="function random() { [native code] }:Atom:6" class="event" cx="170" cy="57" r="8" fill-opacity="0"/>\n\t<circle id="function random() { [native code] }:Atom:7" class="event" cx="190" cy="46" r="8" fill-opacity="0"/>\n\t<circle id="function random() { [native code] }:Atom:8" class="event" cx="190" cy="23" r="8" fill-opacity="0"/>\n\t<circle id="function random() { [native code] }:Atom:9" class="event" cx="170" cy="11" r="8" fill-opacity="0"/>\n\t<circle id="function random() { [native code] }:Atom:10" class="event" cx="150" cy="23" r="8" fill-opacity="0"/>\n\t<circle id="function random() { [native code] }:Atom:11" class="event" cx="110" cy="46" r="8" fill-opacity="0"/>\n\t<circle id="function random() { [native code] }:Atom:12" class="event" cx="105" cy="23" r="8" fill-opacity="0"/>\n\t<circle id="function random() { [native code] }:Atom:13" class="event" cx="82" cy="21" r="8" fill-opacity="0"/>\n\t<circle id="function random() { [native code] }:Atom:14" class="event" cx="68" cy="2" r="8" fill-opacity="0"/>\n\t<circle id="function random() { [native code] }:Atom:15" class="event" cx="45" cy="4" r="8" fill-opacity="0"/>\n\t<circle id="function random() { [native code] }:Atom:16" class="event" cx="36" cy="25" r="8" fill-opacity="0"/>\n\t<circle id="function random() { [native code] }:Atom:17" class="event" cx="49" cy="44" r="8" fill-opacity="0"/>\n\t<circle id="function random() { [native code] }:Atom:18" class="event" cx="72" cy="42" r="8" fill-opacity="0"/>\n\t<circle id="function random() { [native code] }:Atom:19" class="event" cx="89" cy="57" r="8" fill-opacity="0"/>\n\t<circle id="function random() { [native code] }:Atom:20" class="event" cx="89" cy="80" r="8" fill-opacity="0"/>\n\t<circle id="function random() { [native code] }:Atom:21" class="event" cx="89" cy="127" r="8" fill-opacity="0"/>\n\t<circle id="function random() { [native code] }:Atom:22" class="event" cx="69" cy="115" r="8" fill-opacity="0"/>\n\t<circle id="function random() { [native code] }:Atom:23" class="event" cx="49" cy="127" r="8" fill-opacity="0"/>\n\t<circle id="function random() { [native code] }:Atom:24" class="event" cx="29" cy="115" r="8" fill-opacity="0"/>\n\t<circle id="function random() { [native code] }:Atom:25" class="event" cx="9" cy="127" r="8" fill-opacity="0"/>\n</svg>