<svg id="function random() { [native code] }" xmlns="http://www.w3.org/2000/svg" version="1.1" width="200px" height="150px" viewBox="0 0 200 150">\n\t<style> #function random() { [native code] } {pointer-events:none; }  #function random() { [native code] } .event  { pointer-events:all;}  </style>\n\t<text x="129" y="124" font-family=" Helvetica" font-weight="900" font-size="10" fill="rgb(255,13,13)">O</text>\n\t<text x="99" y="124" font-family=" Helvetica" font-weight="900" font-size="10" fill="rgb(48,80,248)">N</text>\n\t<text x="99" y="134" font-family=" Helvetica" font-weight="900" font-size="10" fill="rgb(48,80,248)">H</text>\n\t<text x="55" y="115" font-family=" Helvetica" font-weight="900" font-size="10" fill="rgb(48,80,248)">N</text>\n\t<text x="55" y="105" font-family=" Helvetica" font-weight="900" font-size="10" fill="rgb(48,80,248)">H</text>\n\t<text x="10" y="124" font-family=" Helvetica" font-weight="900" font-size="10" fill="rgb(255,13,13)">O</text>\n\t<text x="3" y="124" font-family=" Helvetica" font-weight="900" font-size="10" fill="rgb(255,13,13)">H</text>\n\t<text x="111" y="47" font-family=" Helvetica" font-weight="900" font-size="10" fill="rgb(48,80,248)">N</text>\n\t<text x="118" y="47" font-family=" Helvetica" font-weight="900" font-size="10" fill="rgb(48,80,248)">H</text>\n\t<text x="187" y="72" font-family=" Helvetica" font-weight="900" font-size="10" fill="rgb(31,240,31)">Cl</text>\n\t<text x="187" y="38" font-family=" Helvetica" font-weight="900" font-size="10" fill="rgb(31,240,31)">Cl</text>\n\t<text x="157" y="21" font-family=" Helvetica" font-weight="900" font-size="10" fill="rgb(31,240,31)">Cl</text>\n\t<text x="129" y="89" font-family=" Helvetica" font-weight="900" font-size="10" fill="rgb(48,80,248)">N</text>\n\t<line x1="116" y1="113" x2="127" y2="119" style="stroke:rgb(0,0,0);stroke-width:1"/>\n\t<line x1="118" y1="110" x2="128" y2="117" style="stroke:rgb(0,0,0);stroke-width:1"/>\n\t<line x1="103" y1="86" x2="118" y2="95" style="stroke:rgb(0,0,0);stroke-width:1"/>\n\t<line x1="106" y1="85" x2="117" y2="92" style="stroke:rgb(0,0,0);stroke-width:1"/>\n\t<line x1="118" y1="61" x2="103" y2="69" style="stroke:rgb(0,0,0);stroke-width:1"/>\n\t<line x1="115" y1="59" x2="103" y2="66" style="stroke:rgb(0,0,0);stroke-width:1"/>\n\t<line x1="87" y1="28" x2="97" y2="42" style="stroke:rgb(0,0,0);stroke-width:1"/>\n\t<line x1="86" y1="31" x2="94" y2="42" style="stroke:rgb(0,0,0);stroke-width:1"/>\n\t<line x1="63" y1="46" x2="70" y2="30" style="stroke:rgb(0,0,0);stroke-width:1"/>\n\t<line x1="66" y1="45" x2="72" y2="33" style="stroke:rgb(0,0,0);stroke-width:1"/>\n\t<line x1="90" y1="58" x2="73" y2="59" style="stroke:rgb(0,0,0);stroke-width:1"/>\n\t<line x1="88" y1="55" x2="75" y2="57" style="stroke:rgb(0,0,0);stroke-width:1"/>\n\t<line x1="162" y1="69" x2="147" y2="61" style="stroke:rgb(0,0,0);stroke-width:1"/>\n\t<line x1="162" y1="66" x2="150" y2="59" style="stroke:rgb(0,0,0);stroke-width:1"/>\n\t<line x1="177" y1="43" x2="177" y2="61" style="stroke:rgb(0,0,0);stroke-width:1"/>\n\t<line x1="174" y1="45" x2="174" y2="59" style="stroke:rgb(0,0,0);stroke-width:1"/>\n\t<line x1="147" y1="43" x2="162" y2="35" style="stroke:rgb(0,0,0);stroke-width:1"/>\n\t<line x1="150" y1="45" x2="162" y2="38" style="stroke:rgb(0,0,0);stroke-width:1"/>\n\t<line x1="133" y1="69" x2="133" y2="81" style="stroke:rgb(0,0,0);stroke-width:1"/>\n\t<line x1="130" y1="71" x2="130" y2="81" style="stroke:rgb(0,0,0);stroke-width:1"/>\n\t<line x1="108" y1="118" x2="118" y2="112" style="stroke:rgb(0,0,0);stroke-width:1"/>\n\t<line x1="88" y1="112" x2="98" y2="118" style="stroke:rgb(0,0,0);stroke-width:1"/>\n\t<line x1="73" y1="121" x2="88" y2="112" style="stroke:rgb(0,0,0);stroke-width:1"/>\n\t<line x1="63" y1="115" x2="73" y2="121" style="stroke:rgb(0,0,0);stroke-width:1"/>\n\t<line x1="44" y1="121" x2="54" y2="115" style="stroke:rgb(0,0,0);stroke-width:1"/>\n\t<line x1="29" y1="112" x2="44" y2="121" style="stroke:rgb(0,0,0);stroke-width:1"/>\n\t<line x1="19" y1="118" x2="29" y2="112" style="stroke:rgb(0,0,0);stroke-width:1"/>\n\t<line x1="118" y1="95" x2="118" y2="112" style="stroke:rgb(0,0,0);stroke-width:1"/>\n\t<line x1="103" y1="69" x2="103" y2="86" style="stroke:rgb(0,0,0);stroke-width:1"/>\n\t<line x1="115" y1="49" x2="118" y2="61" style="stroke:rgb(0,0,0);stroke-width:1"/>\n\t<line x1="97" y1="42" x2="110" y2="43" style="stroke:rgb(0,0,0);stroke-width:1"/>\n\t<line x1="70" y1="30" x2="87" y2="28" style="stroke:rgb(0,0,0);stroke-width:1"/>\n\t<line x1="73" y1="59" x2="63" y2="46" style="stroke:rgb(0,0,0);stroke-width:1"/>\n\t<line x1="90" y1="58" x2="97" y2="42" style="stroke:rgb(0,0,0);stroke-width:1"/>\n\t<line x1="90" y1="58" x2="103" y2="69" style="stroke:rgb(0,0,0);stroke-width:1"/>\n\t<line x1="133" y1="69" x2="118" y2="61" style="stroke:rgb(0,0,0);stroke-width:1"/>\n\t<line x1="147" y1="61" x2="133" y2="69" style="stroke:rgb(0,0,0);stroke-width:1"/>\n\t<line x1="177" y1="61" x2="162" y2="69" style="stroke:rgb(0,0,0);stroke-width:1"/>\n\t<line x1="186" y1="66" x2="177" y2="61" style="stroke:rgb(0,0,0);stroke-width:1"/>\n\t<line x1="186" y1="38" x2="177" y2="43" style="stroke:rgb(0,0,0);stroke-width:1"/>\n\t<line x1="162" y1="35" x2="177" y2="43" style="stroke:rgb(0,0,0);stroke-width:1"/>\n\t<line x1="162" y1="23" x2="162" y2="35" style="stroke:rgb(0,0,0);stroke-width:1"/>\n\t<line x1="147" y1="43" x2="147" y2="61" style="stroke:rgb(0,0,0);stroke-width:1"/>\n\t<line x1="128" y1="89" x2="118" y2="95" style="stroke:rgb(0,0,0);stroke-width:1"/>\n\t<line id="function random() { [native code] }:Bond:1-0" class="event" x1="118" y1="112" x2="133" y2="121" stroke-width="8" stroke-opacity="0"/>\n\t<line id="function random() { [native code] }:Bond:10-9" class="event" x1="103" y1="86" x2="118" y2="95" stroke-width="8" stroke-opacity="0"/>\n\t<line id="function random() { [native code] }:Bond:12-11" class="event" x1="118" y1="61" x2="103" y2="69" stroke-width="8" stroke-opacity="0"/>\n\t<line id="function random() { [native code] }:Bond:15-14" class="event" x1="87" y1="28" x2="97" y2="42" stroke-width="8" stroke-opacity="0"/>\n\t<line id="function random() { [native code] }:Bond:17-16" class="event" x1="63" y1="46" x2="70" y2="30" stroke-width="8" stroke-opacity="0"/>\n\t<line id="function random() { [native code] }:Bond:19-18" class="event" x1="90" y1="58" x2="73" y2="59" stroke-width="8" stroke-opacity="0"/>\n\t<line id="function random() { [native code] }:Bond:22-21" class="event" x1="162" y1="69" x2="147" y2="61" stroke-width="8" stroke-opacity="0"/>\n\t<line id="function random() { [native code] }:Bond:25-23" class="event" x1="177" y1="43" x2="177" y2="61" stroke-width="8" stroke-opacity="0"/>\n\t<line id="function random() { [native code] }:Bond:29-27" class="event" x1="147" y1="43" x2="162" y2="35" stroke-width="8" stroke-opacity="0"/>\n\t<line id="function random() { [native code] }:Bond:30-20" class="event" x1="133" y1="86" x2="133" y2="69" stroke-width="8" stroke-opacity="0"/>\n\t<line id="function random() { [native code] }:Bond:2-1" class="event" x1="103" y1="121" x2="118" y2="112" stroke-width="8" stroke-opacity="0"/>\n\t<line id="function random() { [native code] }:Bond:3-2" class="event" x1="88" y1="112" x2="103" y2="121" stroke-width="8" stroke-opacity="0"/>\n\t<line id="function random() { [native code] }:Bond:4-3" class="event" x1="73" y1="121" x2="88" y2="112" stroke-width="8" stroke-opacity="0"/>\n\t<line id="function random() { [native code] }:Bond:5-4" class="event" x1="58" y1="112" x2="73" y2="121" stroke-width="8" stroke-opacity="0"/>\n\t<line id="function random() { [native code] }:Bond:6-5" class="event" x1="44" y1="121" x2="58" y2="112" stroke-width="8" stroke-opacity="0"/>\n\t<line id="function random() { [native code] }:Bond:7-6" class="event" x1="29" y1="112" x2="44" y2="121" stroke-width="8" stroke-opacity="0"/>\n\t<line id="function random() { [native code] }:Bond:8-7" class="event" x1="14" y1="121" x2="29" y2="112" stroke-width="8" stroke-opacity="0"/>\n\t<line id="function random() { [native code] }:Bond:9-1" class="event" x1="118" y1="95" x2="118" y2="112" stroke-width="8" stroke-opacity="0"/>\n\t<line id="function random() { [native code] }:Bond:11-10" class="event" x1="103" y1="69" x2="103" y2="86" stroke-width="8" stroke-opacity="0"/>\n\t<line id="function random() { [native code] }:Bond:13-12" class="event" x1="114" y1="44" x2="118" y2="61" stroke-width="8" stroke-opacity="0"/>\n\t<line id="function random() { [native code] }:Bond:14-13" class="event" x1="97" y1="42" x2="114" y2="44" stroke-width="8" stroke-opacity="0"/>\n\t<line id="function random() { [native code] }:Bond:16-15" class="event" x1="70" y1="30" x2="87" y2="28" stroke-width="8" stroke-opacity="0"/>\n\t<line id="function random() { [native code] }:Bond:18-17" class="event" x1="73" y1="59" x2="63" y2="46" stroke-width="8" stroke-opacity="0"/>\n\t<line id="function random() { [native code] }:Bond:19-14" class="event" x1="90" y1="58" x2="97" y2="42" stroke-width="8" stroke-opacity="0"/>\n\t<line id="function random() { [native code] }:Bond:19-11" class="event" x1="90" y1="58" x2="103" y2="69" stroke-width="8" stroke-opacity="0"/>\n\t<line id="function random() { [native code] }:Bond:20-12" class="event" x1="133" y1="69" x2="118" y2="61" stroke-width="8" stroke-opacity="0"/>\n\t<line id="function random() { [native code] }:Bond:21-20" class="event" x1="147" y1="61" x2="133" y2="69" stroke-width="8" stroke-opacity="0"/>\n\t<line id="function random() { [native code] }:Bond:23-22" class="event" x1="177" y1="61" x2="162" y2="69" stroke-width="8" stroke-opacity="0"/>\n\t<line id="function random() { [native code] }:Bond:24-23" class="event" x1="192" y1="69" x2="177" y2="61" stroke-width="8" stroke-opacity="0"/>\n\t<line id="function random() { [native code] }:Bond:26-25" class="event" x1="192" y1="35" x2="177" y2="43" stroke-width="8" stroke-opacity="0"/>\n\t<line id="function random() { [native code] }:Bond:27-25" class="event" x1="162" y1="35" x2="177" y2="43" stroke-width="8" stroke-opacity="0"/>\n\t<line id="function random() { [native code] }:Bond:28-27" class="event" x1="162" y1="18" x2="162" y2="35" stroke-width="8" stroke-opacity="0"/>\n\t<line id="function random() { [native code] }:Bond:29-21" class="event" x1="147" y1="43" x2="147" y2="61" stroke-width="8" stroke-opacity="0"/>\n\t<line id="function random() { [native code] }:Bond:30-9" class="event" x1="133" y1="86" x2="118" y2="95" stroke-width="8" stroke-opacity="0"/>\n\t<circle id="function random() { [native code] }:Atom:0" class="event" cx="133" cy="121" r="8" fill-opacity="0"/>\n\t<circle id="function random() { [native code] }:Atom:1" class="event" cx="118" cy="112" r="8" fill-opacity="0"/>\n\t<circle id="function random() { [native code] }:Atom:2" class="event" cx="103" cy="121" r="8" fill-opacity="0"/>\n\t<circle id="function random() { [native code] }:Atom:3" class="event" cx="88" cy="112" r="8" fill-opacity="0"/>\n\t<circle id="function random() { [native code] }:Atom:4" class="event" cx="73" cy="121" r="8" fill-opacity="0"/>\n\t<circle id="function random() { [native code] }:Atom:5" class="event" cx="58" cy="112" r="8" fill-opacity="0"/>\n\t<circle id="function random() { [native code] }:Atom:6" class="event" cx="44" cy="121" r="8" fill-opacity="0"/>\n\t<circle id="function random() { [native code] }:Atom:7" class="event" cx="29" cy="112" r="8" fill-opacity="0"/>\n\t<circle id="function random() { [native code] }:Atom:8" class="event" cx="14" cy="121" r="8" fill-opacity="0"/>\n\t<circle id="function random() { [native code] }:Atom:9" class="event" cx="118" cy="95" r="8" fill-opacity="0"/>\n\t<circle id="function random() { [native code] }:Atom:10" class="event" cx="103" cy="86" r="8" fill-opacity="0"/>\n\t<circle id="function random() { [native code] }:Atom:11" class="event" cx="103" cy="69" r="8" fill-opacity="0"/>\n\t<circle id="function random() { [native code] }:Atom:12" class="event" cx="118" cy="61" r="8" fill-opacity="0"/>\n\t<circle id="function random() { [native code] }:Atom:13" class="event" cx="114" cy="44" r="8" fill-opacity="0"/>\n\t<circle id="function random() { [native code] }:Atom:14" class="event" cx="97" cy="42" r="8" fill-opacity="0"/>\n\t<circle id="function random() { [native code] }:Atom:15" class="event" cx="87" cy="28" r="8" fill-opacity="0"/>\n\t<circle id="function random() { [native code] }:Atom:16" class="event" cx="70" cy="30" r="8" fill-opacity="0"/>\n\t<circle id="function random() { [native code] }:Atom:17" class="event" cx="63" cy="46" r="8" fill-opacity="0"/>\n\t<circle id="function random() { [native code] }:Atom:18" class="event" cx="73" cy="59" r="8" fill-opacity="0"/>\n\t<circle id="function random() { [native code] }:Atom:19" class="event" cx="90" cy="58" r="8" fill-opacity="0"/>\n\t<circle id="function random() { [native code] }:Atom:20" class="event" cx="133" cy="69" r="8" fill-opacity="0"/>\n\t<circle id="function random() { [native code] }:Atom:21" class="event" cx="147" cy="61" r="8" fill-opacity="0"/>\n\t<circle id="function random() { [native code] }:Atom:22" class="event" cx="162" cy="69" r="8" fill-opacity="0"/>\n\t<circle id="function random() { [native code] }:Atom:23" class="event" cx="177" cy="61" r="8" fill-opacity="0"/>\n\t<circle id="function random() { [native code] }:Atom:24" class="event" cx="192" cy="69" r="8" fill-opacity="0"/>\n\t<circle id="function random() { [native code] }:Atom:25" class="event" cx="177" cy="43" r="8" fill-opacity="0"/>\n\t<circle id="function random() { [native code] }:Atom:26" class="event" cx="192" cy="35" r="8" fill-opacity="0"/>\n\t<circle id="function random() { [native code] }:Atom:27" class="event" cx="162" cy="35" r="8" fill-opacity="0"/>\n\t<circle id="function random() { [native code] }:Atom:28" class="event" cx="162" cy="18" r="8" fill-opacity="0"/>\n\t<circle id="function random() { [native code] }:Atom:29" class="event" cx="147" cy="43" r="8" fill-opacity="0"/>\n\t<circle id="function random() { [native code] }:Atom:30" class="event" cx="133" cy="86" r="8" fill-opacity="0"/>\n</svg>