<svg id="function random() { [native code] }" xmlns="http://www.w3.org/2000/svg" version="1.1" width="200px" height="150px" viewBox="0 0 200 150">\n\t<style> #function random() { [native code] } {pointer-events:none; }  #function random() { [native code] } .event  { pointer-events:all;}  </style>\n\t<text x="177" y="46" font-family=" Helvetica" font-weight="900" font-size="11" fill="rgb(48,80,248)">N</text>\n\t<text x="177" y="35" font-family=" Helvetica" font-weight="900" font-size="11" fill="rgb(48,80,248)">H</text>\n\t<text x="128" y="56" font-family=" Helvetica" font-weight="900" font-size="11" fill="rgb(48,80,248)">N</text>\n\t<text x="128" y="67" font-family=" Helvetica" font-weight="900" font-size="11" fill="rgb(48,80,248)">H</text>\n\t<text x="112" y="27" font-family=" Helvetica" font-weight="900" font-size="11" fill="rgb(255,13,13)">O</text>\n\t<text x="49" y="87" font-family=" Helvetica" font-weight="900" font-size="11" fill="rgb(48,80,248)">N</text>\n\t<text x="41" y="87" font-family=" Helvetica" font-weight="900" font-size="11" fill="rgb(48,80,248)">H</text>\n\t<text x="79" y="46" font-family=" Helvetica" font-weight="900" font-size="11" fill="rgb(48,80,248)">N</text>\n\t<line x1="117" y1="44" x2="117" y2="29" style="stroke:rgb(0,0,0);stroke-width:1"/>\n\t<line x1="114" y1="44" x2="114" y2="29" style="stroke:rgb(0,0,0);stroke-width:1"/>\n\t<line x1="99" y1="72" x2="99" y2="53" style="stroke:rgb(0,0,0);stroke-width:1"/>\n\t<line x1="97" y1="70" x2="97" y2="55" style="stroke:rgb(0,0,0);stroke-width:1"/>\n\t<line x1="67" y1="72" x2="83" y2="81" style="stroke:rgb(0,0,0);stroke-width:1"/>\n\t<line x1="67" y1="75" x2="80" y2="82" style="stroke:rgb(0,0,0);stroke-width:1"/>\n\t<line x1="53" y1="119" x2="60" y2="102" style="stroke:rgb(0,0,0);stroke-width:1"/>\n\t<line x1="56" y1="118" x2="62" y2="104" style="stroke:rgb(0,0,0);stroke-width:1"/>\n\t<line x1="83" y1="132" x2="64" y2="134" style="stroke:rgb(0,0,0);stroke-width:1"/>\n\t<line x1="80" y1="129" x2="66" y2="131" style="stroke:rgb(0,0,0);stroke-width:1"/>\n\t<line x1="79" y1="100" x2="90" y2="115" style="stroke:rgb(0,0,0);stroke-width:1"/>\n\t<line x1="78" y1="103" x2="87" y2="115" style="stroke:rgb(0,0,0);stroke-width:1"/>\n\t<line x1="50" y1="24" x2="50" y2="43" style="stroke:rgb(0,0,0);stroke-width:1"/>\n\t<line x1="48" y1="26" x2="48" y2="41" style="stroke:rgb(0,0,0);stroke-width:1"/>\n\t<line x1="18" y1="24" x2="34" y2="15" style="stroke:rgb(0,0,0);stroke-width:1"/>\n\t<line x1="21" y1="26" x2="34" y2="18" style="stroke:rgb(0,0,0);stroke-width:1"/>\n\t<line x1="34" y1="53" x2="18" y2="43" style="stroke:rgb(0,0,0);stroke-width:1"/>\n\t<line x1="34" y1="49" x2="21" y2="42" style="stroke:rgb(0,0,0);stroke-width:1"/>\n\t<line x1="67" y1="53" x2="78" y2="46" style="stroke:rgb(0,0,0);stroke-width:1"/>\n\t<line x1="70" y1="54" x2="80" y2="49" style="stroke:rgb(0,0,0);stroke-width:1"/>\n\t<line x1="186" y1="46" x2="198" y2="53" style="stroke:rgb(0,0,0);stroke-width:1"/>\n\t<line x1="165" y1="53" x2="176" y2="46" style="stroke:rgb(0,0,0);stroke-width:1"/>\n\t<line x1="149" y1="43" x2="165" y2="53" style="stroke:rgb(0,0,0);stroke-width:1"/>\n\t<line x1="137" y1="50" x2="149" y2="43" style="stroke:rgb(0,0,0);stroke-width:1"/>\n\t<line x1="116" y1="43" x2="127" y2="50" style="stroke:rgb(0,0,0);stroke-width:1"/>\n\t<line x1="99" y1="53" x2="116" y2="43" style="stroke:rgb(0,0,0);stroke-width:1"/>\n\t<line x1="83" y1="81" x2="99" y2="72" style="stroke:rgb(0,0,0);stroke-width:1"/>\n\t<line x1="58" y1="80" x2="67" y2="72" style="stroke:rgb(0,0,0);stroke-width:1"/>\n\t<line x1="60" y1="102" x2="55" y2="89" style="stroke:rgb(0,0,0);stroke-width:1"/>\n\t<line x1="64" y1="134" x2="53" y2="119" style="stroke:rgb(0,0,0);stroke-width:1"/>\n\t<line x1="90" y1="115" x2="83" y2="132" style="stroke:rgb(0,0,0);stroke-width:1"/>\n\t<line x1="79" y1="100" x2="60" y2="102" style="stroke:rgb(0,0,0);stroke-width:1"/>\n\t<line x1="79" y1="100" x2="83" y2="81" style="stroke:rgb(0,0,0);stroke-width:1"/>\n\t<line x1="67" y1="53" x2="67" y2="72" style="stroke:rgb(0,0,0);stroke-width:1"/>\n\t<line x1="50" y1="43" x2="67" y2="53" style="stroke:rgb(0,0,0);stroke-width:1"/>\n\t<line x1="34" y1="15" x2="50" y2="24" style="stroke:rgb(0,0,0);stroke-width:1"/>\n\t<line x1="1" y1="15" x2="18" y2="24" style="stroke:rgb(0,0,0);stroke-width:1"/>\n\t<line x1="18" y1="43" x2="18" y2="24" style="stroke:rgb(0,0,0);stroke-width:1"/>\n\t<line x1="34" y1="53" x2="50" y2="43" style="stroke:rgb(0,0,0);stroke-width:1"/>\n\t<line x1="88" y1="46" x2="99" y2="53" style="stroke:rgb(0,0,0);stroke-width:1"/>\n\t<line id="function random() { [native code] }:Bond:6-5" class="event" x1="116" y1="24" x2="116" y2="43" stroke-width="8" stroke-opacity="0"/>\n\t<line id="function random() { [native code] }:Bond:8-7" class="event" x1="99" y1="72" x2="99" y2="53" stroke-width="8" stroke-opacity="0"/>\n\t<line id="function random() { [native code] }:Bond:10-9" class="event" x1="67" y1="72" x2="83" y2="81" stroke-width="8" stroke-opacity="0"/>\n\t<line id="function random() { [native code] }:Bond:13-12" class="event" x1="53" y1="119" x2="60" y2="102" stroke-width="8" stroke-opacity="0"/>\n\t<line id="function random() { [native code] }:Bond:15-14" class="event" x1="83" y1="132" x2="64" y2="134" stroke-width="8" stroke-opacity="0"/>\n\t<line id="function random() { [native code] }:Bond:17-16" class="event" x1="79" y1="100" x2="90" y2="115" stroke-width="8" stroke-opacity="0"/>\n\t<line id="function random() { [native code] }:Bond:20-19" class="event" x1="50" y1="24" x2="50" y2="43" stroke-width="8" stroke-opacity="0"/>\n\t<line id="function random() { [native code] }:Bond:22-21" class="event" x1="18" y1="24" x2="34" y2="15" stroke-width="8" stroke-opacity="0"/>\n\t<line id="function random() { [native code] }:Bond:25-24" class="event" x1="34" y1="53" x2="18" y2="43" stroke-width="8" stroke-opacity="0"/>\n\t<line id="function random() { [native code] }:Bond:26-18" class="event" x1="83" y1="43" x2="67" y2="53" stroke-width="8" stroke-opacity="0"/>\n\t<line id="function random() { [native code] }:Bond:1-0" class="event" x1="181" y1="43" x2="198" y2="53" stroke-width="8" stroke-opacity="0"/>\n\t<line id="function random() { [native code] }:Bond:2-1" class="event" x1="165" y1="53" x2="181" y2="43" stroke-width="8" stroke-opacity="0"/>\n\t<line id="function random() { [native code] }:Bond:3-2" class="event" x1="149" y1="43" x2="165" y2="53" stroke-width="8" stroke-opacity="0"/>\n\t<line id="function random() { [native code] }:Bond:4-3" class="event" x1="132" y1="53" x2="149" y2="43" stroke-width="8" stroke-opacity="0"/>\n\t<line id="function random() { [native code] }:Bond:5-4" class="event" x1="116" y1="43" x2="132" y2="53" stroke-width="8" stroke-opacity="0"/>\n\t<line id="function random() { [native code] }:Bond:7-5" class="event" x1="99" y1="53" x2="116" y2="43" stroke-width="8" stroke-opacity="0"/>\n\t<line id="function random() { [native code] }:Bond:9-8" class="event" x1="83" y1="81" x2="99" y2="72" stroke-width="8" stroke-opacity="0"/>\n\t<line id="function random() { [native code] }:Bond:11-10" class="event" x1="53" y1="84" x2="67" y2="72" stroke-width="8" stroke-opacity="0"/>\n\t<line id="function random() { [native code] }:Bond:12-11" class="event" x1="60" y1="102" x2="53" y2="84" stroke-width="8" stroke-opacity="0"/>\n\t<line id="function random() { [native code] }:Bond:14-13" class="event" x1="64" y1="134" x2="53" y2="119" stroke-width="8" stroke-opacity="0"/>\n\t<line id="function random() { [native code] }:Bond:16-15" class="event" x1="90" y1="115" x2="83" y2="132" stroke-width="8" stroke-opacity="0"/>\n\t<line id="function random() { [native code] }:Bond:17-12" class="event" x1="79" y1="100" x2="60" y2="102" stroke-width="8" stroke-opacity="0"/>\n\t<line id="function random() { [native code] }:Bond:17-9" class="event" x1="79" y1="100" x2="83" y2="81" stroke-width="8" stroke-opacity="0"/>\n\t<line id="function random() { [native code] }:Bond:18-10" class="event" x1="67" y1="53" x2="67" y2="72" stroke-width="8" stroke-opacity="0"/>\n\t<line id="function random() { [native code] }:Bond:19-18" class="event" x1="50" y1="43" x2="67" y2="53" stroke-width="8" stroke-opacity="0"/>\n\t<line id="function random() { [native code] }:Bond:21-20" class="event" x1="34" y1="15" x2="50" y2="24" stroke-width="8" stroke-opacity="0"/>\n\t<line id="function random() { [native code] }:Bond:23-22" class="event" x1="1" y1="15" x2="18" y2="24" stroke-width="8" stroke-opacity="0"/>\n\t<line id="function random() { [native code] }:Bond:24-22" class="event" x1="18" y1="43" x2="18" y2="24" stroke-width="8" stroke-opacity="0"/>\n\t<line id="function random() { [native code] }:Bond:25-19" class="event" x1="34" y1="53" x2="50" y2="43" stroke-width="8" stroke-opacity="0"/>\n\t<line id="function random() { [native code] }:Bond:26-7" class="event" x1="83" y1="43" x2="99" y2="53" stroke-width="8" stroke-opacity="0"/>\n\t<circle id="function random() { [native code] }:Atom:0" class="event" cx="198" cy="53" r="8" fill-opacity="0"/>\n\t<circle id="function random() { [native code] }:Atom:1" class="event" cx="181" cy="43" r="8" fill-opacity="0"/>\n\t<circle id="function random() { [native code] }:Atom:2" class="event" cx="165" cy="53" r="8" fill-opacity="0"/>\n\t<circle id="function random() { [native code] }:Atom:3" class="event" cx="149" cy="43" r="8" fill-opacity="0"/>\n\t<circle id="function random() { [native code] }:Atom:4" class="event" cx="132" cy="53" r="8" fill-opacity="0"/>\n\t<circle id="function random() { [native code] }:Atom:5" class="event" cx="116" cy="43" r="8" fill-opacity="0"/>\n\t<circle id="function random() { [native code] }:Atom:6" class="event" cx="116" cy="24" r="8" fill-opacity="0"/>\n\t<circle id="function random() { [native code] }:Atom:7" class="event" cx="99" cy="53" r="8" fill-opacity="0"/>\n\t<circle id="function random() { [native code] }:Atom:8" class="event" cx="99" cy="72" r="8" fill-opacity="0"/>\n\t<circle id="function random() { [native code] }:Atom:9" class="event" cx="83" cy="81" r="8" fill-opacity="0"/>\n\t<circle id="function random() { [native code] }:Atom:10" class="event" cx="67" cy="72" r="8" fill-opacity="0"/>\n\t<circle id="function random() { [native code] }:Atom:11" class="event" cx="53" cy="84" r="8" fill-opacity="0"/>\n\t<circle id="function random() { [native code] }:Atom:12" class="event" cx="60" cy="102" r="8" fill-opacity="0"/>\n\t<circle id="function random() { [native code] }:Atom:13" class="event" cx="53" cy="119" r="8" fill-opacity="0"/>\n\t<circle id="function random() { [native code] }:Atom:14" class="event" cx="64" cy="134" r="8" fill-opacity="0"/>\n\t<circle id="function random() { [native code] }:Atom:15" class="event" cx="83" cy="132" r="8" fill-opacity="0"/>\n\t<circle id="function random() { [native code] }:Atom:16" class="event" cx="90" cy="115" r="8" fill-opacity="0"/>\n\t<circle id="function random() { [native code] }:Atom:17" class="event" cx="79" cy="100" r="8" fill-opacity="0"/>\n\t<circle id="function random() { [native code] }:Atom:18" class="event" cx="67" cy="53" r="8" fill-opacity="0"/>\n\t<circle id="function random() { [native code] }:Atom:19" class="event" cx="50" cy="43" r="8" fill-opacity="0"/>\n\t<circle id="function random() { [native code] }:Atom:20" class="event" cx="50" cy="24" r="8" fill-opacity="0"/>\n\t<circle id="function random() { [native code] }:Atom:21" class="event" cx="34" cy="15" r="8" fill-opacity="0"/>\n\t<circle id="function random() { [native code] }:Atom:22" class="event" cx="18" cy="24" r="8" fill-opacity="0"/>\n\t<circle id="function random() { [native code] }:Atom:23" class="event" cx="1" cy="15" r="8" fill-opacity="0"/>\n\t<circle id="function random() { [native code] }:Atom:24" class="event" cx="18" cy="43" r="8" fill-opacity="0"/>\n\t<circle id="function random() { [native code] }:Atom:25" class="event" cx="34" cy="53" r="8" fill-opacity="0"/>\n\t<circle id="function random() { [native code] }:Atom:26" class="event" cx="83" cy="43" r="8" fill-opacity="0"/>\n</svg>