<svg id="function random() { [native code] }" xmlns="http://www.w3.org/2000/svg" version="1.1" width="200px" height="150px" viewBox="0 0 200 150">\n\t<style> #function random() { [native code] } {pointer-events:none; }  #function random() { [native code] } .event  { pointer-events:all;}  </style>\n\t<text x="166" y="69" font-family=" Helvetica" font-weight="900" font-size="10" fill="rgb(48,80,248)">N</text>\n\t<text x="180" y="72" font-family=" Helvetica" font-weight="900" font-size="7" fill="rgb(48,80,248)">2</text>\n\t<text x="173" y="69" font-family=" Helvetica" font-weight="900" font-size="10" fill="rgb(48,80,248)">H</text>\n\t<text x="121" y="77" font-family=" Helvetica" font-weight="900" font-size="10" fill="rgb(48,80,248)">N</text>\n\t<text x="121" y="87" font-family=" Helvetica" font-weight="900" font-size="10" fill="rgb(48,80,248)">H</text>\n\t<text x="106" y="52" font-family=" Helvetica" font-weight="900" font-size="10" fill="rgb(255,13,13)">O</text>\n\t<text x="77" y="69" font-family=" Helvetica" font-weight="900" font-size="10" fill="rgb(48,80,248)">N</text>\n\t<text x="16" y="26" font-family=" Helvetica" font-weight="900" font-size="10" fill="rgb(144,224,80)">F</text>\n\t<text x="33" y="9" font-family=" Helvetica" font-weight="900" font-size="10" fill="rgb(144,224,80)">F</text>\n\t<text x="50" y="26" font-family=" Helvetica" font-weight="900" font-size="10" fill="rgb(144,224,80)">F</text>\n\t<text x="49" y="106" font-family=" Helvetica" font-weight="900" font-size="10" fill="rgb(48,80,248)">N</text>\n\t<text x="42" y="106" font-family=" Helvetica" font-weight="900" font-size="10" fill="rgb(48,80,248)">H</text>\n\t<line x1="111" y1="66" x2="111" y2="54" style="stroke:rgb(0,0,0);stroke-width:1"/>\n\t<line x1="109" y1="66" x2="109" y2="54" style="stroke:rgb(0,0,0);stroke-width:1"/>\n\t<line x1="95" y1="74" x2="85" y2="68" style="stroke:rgb(0,0,0);stroke-width:1"/>\n\t<line x1="92" y1="76" x2="84" y2="71" style="stroke:rgb(0,0,0);stroke-width:1"/>\n\t<line x1="51" y1="49" x2="51" y2="66" style="stroke:rgb(0,0,0);stroke-width:1"/>\n\t<line x1="48" y1="50" x2="48" y2="64" style="stroke:rgb(0,0,0);stroke-width:1"/>\n\t<line x1="21" y1="49" x2="36" y2="40" style="stroke:rgb(0,0,0);stroke-width:1"/>\n\t<line x1="24" y1="50" x2="36" y2="43" style="stroke:rgb(0,0,0);stroke-width:1"/>\n\t<line x1="36" y1="74" x2="21" y2="66" style="stroke:rgb(0,0,0);stroke-width:1"/>\n\t<line x1="36" y1="71" x2="24" y2="64" style="stroke:rgb(0,0,0);stroke-width:1"/>\n\t<line x1="66" y1="91" x2="66" y2="74" style="stroke:rgb(0,0,0);stroke-width:1"/>\n\t<line x1="68" y1="90" x2="68" y2="76" style="stroke:rgb(0,0,0);stroke-width:1"/>\n\t<line x1="77" y1="117" x2="60" y2="118" style="stroke:rgb(0,0,0);stroke-width:1"/>\n\t<line x1="74" y1="114" x2="62" y2="116" style="stroke:rgb(0,0,0);stroke-width:1"/>\n\t<line x1="80" y1="146" x2="87" y2="130" style="stroke:rgb(0,0,0);stroke-width:1"/>\n\t<line x1="78" y1="143" x2="84" y2="131" style="stroke:rgb(0,0,0);stroke-width:1"/>\n\t<line x1="53" y1="134" x2="63" y2="148" style="stroke:rgb(0,0,0);stroke-width:1"/>\n\t<line x1="56" y1="134" x2="64" y2="145" style="stroke:rgb(0,0,0);stroke-width:1"/>\n\t<line x1="95" y1="91" x2="80" y2="100" style="stroke:rgb(0,0,0);stroke-width:1"/>\n\t<line x1="92" y1="90" x2="81" y2="97" style="stroke:rgb(0,0,0);stroke-width:1"/>\n\t<line x1="154" y1="74" x2="165" y2="68" style="stroke:rgb(0,0,0);stroke-width:1"/>\n\t<line x1="140" y1="66" x2="154" y2="74" style="stroke:rgb(0,0,0);stroke-width:1"/>\n\t<line x1="129" y1="72" x2="140" y2="66" style="stroke:rgb(0,0,0);stroke-width:1"/>\n\t<line x1="110" y1="66" x2="120" y2="72" style="stroke:rgb(0,0,0);stroke-width:1"/>\n\t<line x1="95" y1="74" x2="110" y2="66" style="stroke:rgb(0,0,0);stroke-width:1"/>\n\t<line x1="66" y1="74" x2="76" y2="68" style="stroke:rgb(0,0,0);stroke-width:1"/>\n\t<line x1="51" y1="66" x2="66" y2="74" style="stroke:rgb(0,0,0);stroke-width:1"/>\n\t<line x1="36" y1="40" x2="51" y2="49" style="stroke:rgb(0,0,0);stroke-width:1"/>\n\t<line x1="36" y1="23" x2="36" y2="40" style="stroke:rgb(0,0,0);stroke-width:1"/>\n\t<line x1="23" y1="23" x2="36" y2="23" style="stroke:rgb(0,0,0);stroke-width:1"/>\n\t<line x1="36" y1="11" x2="36" y2="23" style="stroke:rgb(0,0,0);stroke-width:1"/>\n\t<line x1="49" y1="23" x2="36" y2="23" style="stroke:rgb(0,0,0);stroke-width:1"/>\n\t<line x1="21" y1="66" x2="21" y2="49" style="stroke:rgb(0,0,0);stroke-width:1"/>\n\t<line x1="36" y1="74" x2="51" y2="66" style="stroke:rgb(0,0,0);stroke-width:1"/>\n\t<line x1="58" y1="99" x2="66" y2="91" style="stroke:rgb(0,0,0);stroke-width:1"/>\n\t<line x1="60" y1="118" x2="55" y2="108" style="stroke:rgb(0,0,0);stroke-width:1"/>\n\t<line x1="87" y1="130" x2="77" y2="117" style="stroke:rgb(0,0,0);stroke-width:1"/>\n\t<line x1="63" y1="148" x2="80" y2="146" style="stroke:rgb(0,0,0);stroke-width:1"/>\n\t<line x1="53" y1="134" x2="60" y2="118" style="stroke:rgb(0,0,0);stroke-width:1"/>\n\t<line x1="80" y1="100" x2="77" y2="117" style="stroke:rgb(0,0,0);stroke-width:1"/>\n\t<line x1="80" y1="100" x2="66" y2="91" style="stroke:rgb(0,0,0);stroke-width:1"/>\n\t<line x1="95" y1="91" x2="95" y2="74" style="stroke:rgb(0,0,0);stroke-width:1"/>\n\t<line id="function random() { [native code] }:Bond:5-4" class="event" x1="110" y1="49" x2="110" y2="66" stroke-width="8" stroke-opacity="0"/>\n\t<line id="function random() { [native code] }:Bond:7-6" class="event" x1="80" y1="66" x2="95" y2="74" stroke-width="8" stroke-opacity="0"/>\n\t<line id="function random() { [native code] }:Bond:10-9" class="event" x1="51" y1="49" x2="51" y2="66" stroke-width="8" stroke-opacity="0"/>\n\t<line id="function random() { [native code] }:Bond:16-11" class="event" x1="21" y1="49" x2="36" y2="40" stroke-width="8" stroke-opacity="0"/>\n\t<line id="function random() { [native code] }:Bond:18-17" class="event" x1="36" y1="74" x2="21" y2="66" stroke-width="8" stroke-opacity="0"/>\n\t<line id="function random() { [native code] }:Bond:19-8" class="event" x1="66" y1="91" x2="66" y2="74" stroke-width="8" stroke-opacity="0"/>\n\t<line id="function random() { [native code] }:Bond:22-21" class="event" x1="77" y1="117" x2="60" y2="118" stroke-width="8" stroke-opacity="0"/>\n\t<line id="function random() { [native code] }:Bond:24-23" class="event" x1="80" y1="146" x2="87" y2="130" stroke-width="8" stroke-opacity="0"/>\n\t<line id="function random() { [native code] }:Bond:26-25" class="event" x1="53" y1="134" x2="63" y2="148" stroke-width="8" stroke-opacity="0"/>\n\t<line id="function random() { [native code] }:Bond:28-27" class="event" x1="95" y1="91" x2="80" y2="100" stroke-width="8" stroke-opacity="0"/>\n\t<line id="function random() { [native code] }:Bond:1-0" class="event" x1="154" y1="74" x2="169" y2="66" stroke-width="8" stroke-opacity="0"/>\n\t<line id="function random() { [native code] }:Bond:2-1" class="event" x1="140" y1="66" x2="154" y2="74" stroke-width="8" stroke-opacity="0"/>\n\t<line id="function random() { [native code] }:Bond:3-2" class="event" x1="125" y1="74" x2="140" y2="66" stroke-width="8" stroke-opacity="0"/>\n\t<line id="function random() { [native code] }:Bond:4-3" class="event" x1="110" y1="66" x2="125" y2="74" stroke-width="8" stroke-opacity="0"/>\n\t<line id="function random() { [native code] }:Bond:6-4" class="event" x1="95" y1="74" x2="110" y2="66" stroke-width="8" stroke-opacity="0"/>\n\t<line id="function random() { [native code] }:Bond:8-7" class="event" x1="66" y1="74" x2="80" y2="66" stroke-width="8" stroke-opacity="0"/>\n\t<line id="function random() { [native code] }:Bond:9-8" class="event" x1="51" y1="66" x2="66" y2="74" stroke-width="8" stroke-opacity="0"/>\n\t<line id="function random() { [native code] }:Bond:11-10" class="event" x1="36" y1="40" x2="51" y2="49" stroke-width="8" stroke-opacity="0"/>\n\t<line id="function random() { [native code] }:Bond:12-11" class="event" x1="36" y1="23" x2="36" y2="40" stroke-width="8" stroke-opacity="0"/>\n\t<line id="function random() { [native code] }:Bond:13-12" class="event" x1="19" y1="23" x2="36" y2="23" stroke-width="8" stroke-opacity="0"/>\n\t<line id="function random() { [native code] }:Bond:14-12" class="event" x1="36" y1="6" x2="36" y2="23" stroke-width="8" stroke-opacity="0"/>\n\t<line id="function random() { [native code] }:Bond:15-12" class="event" x1="53" y1="23" x2="36" y2="23" stroke-width="8" stroke-opacity="0"/>\n\t<line id="function random() { [native code] }:Bond:17-16" class="event" x1="21" y1="66" x2="21" y2="49" stroke-width="8" stroke-opacity="0"/>\n\t<line id="function random() { [native code] }:Bond:18-9" class="event" x1="36" y1="74" x2="51" y2="66" stroke-width="8" stroke-opacity="0"/>\n\t<line id="function random() { [native code] }:Bond:20-19" class="event" x1="53" y1="103" x2="66" y2="91" stroke-width="8" stroke-opacity="0"/>\n\t<line id="function random() { [native code] }:Bond:21-20" class="event" x1="60" y1="118" x2="53" y2="103" stroke-width="8" stroke-opacity="0"/>\n\t<line id="function random() { [native code] }:Bond:23-22" class="event" x1="87" y1="130" x2="77" y2="117" stroke-width="8" stroke-opacity="0"/>\n\t<line id="function random() { [native code] }:Bond:25-24" class="event" x1="63" y1="148" x2="80" y2="146" stroke-width="8" stroke-opacity="0"/>\n\t<line id="function random() { [native code] }:Bond:26-21" class="event" x1="53" y1="134" x2="60" y2="118" stroke-width="8" stroke-opacity="0"/>\n\t<line id="function random() { [native code] }:Bond:27-22" class="event" x1="80" y1="100" x2="77" y2="117" stroke-width="8" stroke-opacity="0"/>\n\t<line id="function random() { [native code] }:Bond:27-19" class="event" x1="80" y1="100" x2="66" y2="91" stroke-width="8" stroke-opacity="0"/>\n\t<line id="function random() { [native code] }:Bond:28-6" class="event" x1="95" y1="91" x2="95" y2="74" stroke-width="8" stroke-opacity="0"/>\n\t<circle id="function random() { [native code] }:Atom:0" class="event" cx="169" cy="66" r="8" fill-opacity="0"/>\n\t<circle id="function random() { [native code] }:Atom:1" class="event" cx="154" cy="74" r="8" fill-opacity="0"/>\n\t<circle id="function random() { [native code] }:Atom:2" class="event" cx="140" cy="66" r="8" fill-opacity="0"/>\n\t<circle id="function random() { [native code] }:Atom:3" class="event" cx="125" cy="74" r="8" fill-opacity="0"/>\n\t<circle id="function random() { [native code] }:Atom:4" class="event" cx="110" cy="66" r="8" fill-opacity="0"/>\n\t<circle id="function random() { [native code] }:Atom:5" class="event" cx="110" cy="49" r="8" fill-opacity="0"/>\n\t<circle id="function random() { [native code] }:Atom:6" class="event" cx="95" cy="74" r="8" fill-opacity="0"/>\n\t<circle id="function random() { [native code] }:Atom:7" class="event" cx="80" cy="66" r="8" fill-opacity="0"/>\n\t<circle id="function random() { [native code] }:Atom:8" class="event" cx="66" cy="74" r="8" fill-opacity="0"/>\n\t<circle id="function random() { [native code] }:Atom:9" class="event" cx="51" cy="66" r="8" fill-opacity="0"/>\n\t<circle id="function random() { [native code] }:Atom:10" class="event" cx="51" cy="49" r="8" fill-opacity="0"/>\n\t<circle id="function random() { [native code] }:Atom:11" class="event" cx="36" cy="40" r="8" fill-opacity="0"/>\n\t<circle id="function random() { [native code] }:Atom:12" class="event" cx="36" cy="23" r="8" fill-opacity="0"/>\n\t<circle id="function random() { [native code] }:Atom:13" class="event" cx="19" cy="23" r="8" fill-opacity="0"/>\n\t<circle id="function random() { [native code] }:Atom:14" class="event" cx="36" cy="6" r="8" fill-opacity="0"/>\n\t<circle id="function random() { [native code] }:Atom:15" class="event" cx="53" cy="23" r="8" fill-opacity="0"/>\n\t<circle id="function random() { [native code] }:Atom:16" class="event" cx="21" cy="49" r="8" fill-opacity="0"/>\n\t<circle id="function random() { [native code] }:Atom:17" class="event" cx="21" cy="66" r="8" fill-opacity="0"/>\n\t<circle id="function random() { [native code] }:Atom:18" class="event" cx="36" cy="74" r="8" fill-opacity="0"/>\n\t<circle id="function random() { [native code] }:Atom:19" class="event" cx="66" cy="91" r="8" fill-opacity="0"/>\n\t<circle id="function random() { [native code] }:Atom:20" class="event" cx="53" cy="103" r="8" fill-opacity="0"/>\n\t<circle id="function random() { [native code] }:Atom:21" class="event" cx="60" cy="118" r="8" fill-opacity="0"/>\n\t<circle id="function random() { [native code] }:Atom:22" class="event" cx="77" cy="117" r="8" fill-opacity="0"/>\n\t<circle id="function random() { [native code] }:Atom:23" class="event" cx="87" cy="130" r="8" fill-opacity="0"/>\n\t<circle id="function random() { [native code] }:Atom:24" class="event" cx="80" cy="146" r="8" fill-opacity="0"/>\n\t<circle id="function random() { [native code] }:Atom:25" class="event" cx="63" cy="148" r="8" fill-opacity="0"/>\n\t<circle id="function random() { [native code] }:Atom:26" class="event" cx="53" cy="134" r="8" fill-opacity="0"/>\n\t<circle id="function random() { [native code] }:Atom:27" class="event" cx="80" cy="100" r="8" fill-opacity="0"/>\n\t<circle id="function random() { [native code] }:Atom:28" class="event" cx="95" cy="91" r="8" fill-opacity="0"/>\n</svg>