<svg id="function random() { [native code] }" xmlns="http://www.w3.org/2000/svg" version="1.1" width="200px" height="150px" viewBox="0 0 200 150">\n\t<style> #function random() { [native code] } {pointer-events:none; }  #function random() { [native code] } .event  { pointer-events:all;}  </style>\n\t<text x="109" y="135" font-family=" Helvetica" font-weight="900" font-size="11" fill="rgb(255,13,13)">O</text>\n\t<text x="109" y="99" font-family=" Helvetica" font-weight="900" font-size="11" fill="rgb(48,80,248)">N</text>\n\t<text x="172" y="81" font-family=" Helvetica" font-weight="900" font-size="11" fill="rgb(144,224,80)">F</text>\n\t<text x="123" y="27" font-family=" Helvetica" font-weight="900" font-size="11" fill="rgb(144,224,80)">F</text>\n\t<text x="141" y="9" font-family=" Helvetica" font-weight="900" font-size="11" fill="rgb(144,224,80)">F</text>\n\t<text x="159" y="27" font-family=" Helvetica" font-weight="900" font-size="11" fill="rgb(144,224,80)">F</text>\n\t<text x="90" y="55" font-family=" Helvetica" font-weight="900" font-size="11" fill="rgb(48,80,248)">N</text>\n\t<text x="98" y="55" font-family=" Helvetica" font-weight="900" font-size="11" fill="rgb(48,80,248)">H</text>\n\t<text x="78" y="135" font-family=" Helvetica" font-weight="900" font-size="11" fill="rgb(48,80,248)">N</text>\n\t<text x="78" y="146" font-family=" Helvetica" font-weight="900" font-size="11" fill="rgb(48,80,248)">H</text>\n\t<text x="31" y="126" font-family=" Helvetica" font-weight="900" font-size="11" fill="rgb(48,80,248)">N</text>\n\t<text x="31" y="115" font-family=" Helvetica" font-weight="900" font-size="11" fill="rgb(48,80,248)">H</text>\n\t<line x1="96" y1="124" x2="107" y2="130" style="stroke:rgb(0,0,0);stroke-width:1"/>\n\t<line x1="97" y1="121" x2="108" y2="128" style="stroke:rgb(0,0,0);stroke-width:1"/>\n\t<line x1="97" y1="105" x2="108" y2="99" style="stroke:rgb(0,0,0);stroke-width:1"/>\n\t<line x1="98" y1="102" x2="107" y2="96" style="stroke:rgb(0,0,0);stroke-width:1"/>\n\t<line x1="144" y1="78" x2="128" y2="69" style="stroke:rgb(0,0,0);stroke-width:1"/>\n\t<line x1="144" y1="75" x2="131" y2="68" style="stroke:rgb(0,0,0);stroke-width:1"/>\n\t<line x1="160" y1="51" x2="160" y2="69" style="stroke:rgb(0,0,0);stroke-width:1"/>\n\t<line x1="157" y1="53" x2="157" y2="67" style="stroke:rgb(0,0,0);stroke-width:1"/>\n\t<line x1="128" y1="51" x2="144" y2="42" style="stroke:rgb(0,0,0);stroke-width:1"/>\n\t<line x1="131" y1="53" x2="144" y2="45" style="stroke:rgb(0,0,0);stroke-width:1"/>\n\t<line x1="97" y1="69" x2="113" y2="78" style="stroke:rgb(0,0,0);stroke-width:1"/>\n\t<line x1="98" y1="72" x2="110" y2="79" style="stroke:rgb(0,0,0);stroke-width:1"/>\n\t<line x1="65" y1="35" x2="76" y2="50" style="stroke:rgb(0,0,0);stroke-width:1"/>\n\t<line x1="64" y1="38" x2="73" y2="50" style="stroke:rgb(0,0,0);stroke-width:1"/>\n\t<line x1="40" y1="53" x2="47" y2="37" style="stroke:rgb(0,0,0);stroke-width:1"/>\n\t<line x1="43" y1="53" x2="49" y2="40" style="stroke:rgb(0,0,0);stroke-width:1"/>\n\t<line x1="69" y1="66" x2="51" y2="68" style="stroke:rgb(0,0,0);stroke-width:1"/>\n\t<line x1="66" y1="64" x2="52" y2="65" style="stroke:rgb(0,0,0);stroke-width:1"/>\n\t<line x1="82" y1="96" x2="82" y2="78" style="stroke:rgb(0,0,0);stroke-width:1"/>\n\t<line x1="85" y1="94" x2="85" y2="80" style="stroke:rgb(0,0,0);stroke-width:1"/>\n\t<line x1="97" y1="105" x2="97" y2="123" style="stroke:rgb(0,0,0);stroke-width:1"/>\n\t<line x1="113" y1="78" x2="113" y2="91" style="stroke:rgb(0,0,0);stroke-width:1"/>\n\t<line x1="128" y1="69" x2="113" y2="78" style="stroke:rgb(0,0,0);stroke-width:1"/>\n\t<line x1="160" y1="69" x2="144" y2="78" style="stroke:rgb(0,0,0);stroke-width:1"/>\n\t<line x1="171" y1="76" x2="160" y2="69" style="stroke:rgb(0,0,0);stroke-width:1"/>\n\t<line x1="144" y1="42" x2="160" y2="51" style="stroke:rgb(0,0,0);stroke-width:1"/>\n\t<line x1="144" y1="24" x2="144" y2="42" style="stroke:rgb(0,0,0);stroke-width:1"/>\n\t<line x1="130" y1="24" x2="144" y2="24" style="stroke:rgb(0,0,0);stroke-width:1"/>\n\t<line x1="144" y1="11" x2="144" y2="24" style="stroke:rgb(0,0,0);stroke-width:1"/>\n\t<line x1="158" y1="24" x2="144" y2="24" style="stroke:rgb(0,0,0);stroke-width:1"/>\n\t<line x1="128" y1="51" x2="128" y2="69" style="stroke:rgb(0,0,0);stroke-width:1"/>\n\t<line x1="95" y1="57" x2="97" y2="69" style="stroke:rgb(0,0,0);stroke-width:1"/>\n\t<line x1="76" y1="50" x2="89" y2="51" style="stroke:rgb(0,0,0);stroke-width:1"/>\n\t<line x1="47" y1="37" x2="65" y2="35" style="stroke:rgb(0,0,0);stroke-width:1"/>\n\t<line x1="51" y1="68" x2="40" y2="53" style="stroke:rgb(0,0,0);stroke-width:1"/>\n\t<line x1="69" y1="66" x2="76" y2="50" style="stroke:rgb(0,0,0);stroke-width:1"/>\n\t<line x1="82" y1="78" x2="69" y2="66" style="stroke:rgb(0,0,0);stroke-width:1"/>\n\t<line x1="82" y1="78" x2="97" y2="69" style="stroke:rgb(0,0,0);stroke-width:1"/>\n\t<line x1="82" y1="96" x2="97" y2="105" style="stroke:rgb(0,0,0);stroke-width:1"/>\n\t<line x1="87" y1="129" x2="97" y2="123" style="stroke:rgb(0,0,0);stroke-width:1"/>\n\t<line x1="66" y1="123" x2="77" y2="129" style="stroke:rgb(0,0,0);stroke-width:1"/>\n\t<line x1="51" y1="132" x2="66" y2="123" style="stroke:rgb(0,0,0);stroke-width:1"/>\n\t<line x1="40" y1="126" x2="51" y2="132" style="stroke:rgb(0,0,0);stroke-width:1"/>\n\t<line x1="20" y1="132" x2="30" y2="126" style="stroke:rgb(0,0,0);stroke-width:1"/>\n\t<line id="function random() { [native code] }:Bond:1-0" class="event" x1="97" y1="123" x2="113" y2="132" stroke-width="8" stroke-opacity="0"/>\n\t<line id="function random() { [native code] }:Bond:3-2" class="event" x1="113" y1="96" x2="97" y2="105" stroke-width="8" stroke-opacity="0"/>\n\t<line id="function random() { [native code] }:Bond:6-5" class="event" x1="144" y1="78" x2="128" y2="69" stroke-width="8" stroke-opacity="0"/>\n\t<line id="function random() { [native code] }:Bond:9-7" class="event" x1="160" y1="51" x2="160" y2="69" stroke-width="8" stroke-opacity="0"/>\n\t<line id="function random() { [native code] }:Bond:15-10" class="event" x1="128" y1="51" x2="144" y2="42" stroke-width="8" stroke-opacity="0"/>\n\t<line id="function random() { [native code] }:Bond:16-4" class="event" x1="97" y1="69" x2="113" y2="78" stroke-width="8" stroke-opacity="0"/>\n\t<line id="function random() { [native code] }:Bond:19-18" class="event" x1="65" y1="35" x2="76" y2="50" stroke-width="8" stroke-opacity="0"/>\n\t<line id="function random() { [native code] }:Bond:21-20" class="event" x1="40" y1="53" x2="47" y2="37" stroke-width="8" stroke-opacity="0"/>\n\t<line id="function random() { [native code] }:Bond:23-22" class="event" x1="69" y1="66" x2="51" y2="68" stroke-width="8" stroke-opacity="0"/>\n\t<line id="function random() { [native code] }:Bond:25-24" class="event" x1="82" y1="96" x2="82" y2="78" stroke-width="8" stroke-opacity="0"/>\n\t<line id="function random() { [native code] }:Bond:2-1" class="event" x1="97" y1="105" x2="97" y2="123" stroke-width="8" stroke-opacity="0"/>\n\t<line id="function random() { [native code] }:Bond:4-3" class="event" x1="113" y1="78" x2="113" y2="96" stroke-width="8" stroke-opacity="0"/>\n\t<line id="function random() { [native code] }:Bond:5-4" class="event" x1="128" y1="69" x2="113" y2="78" stroke-width="8" stroke-opacity="0"/>\n\t<line id="function random() { [native code] }:Bond:7-6" class="event" x1="160" y1="69" x2="144" y2="78" stroke-width="8" stroke-opacity="0"/>\n\t<line id="function random() { [native code] }:Bond:8-7" class="event" x1="175" y1="78" x2="160" y2="69" stroke-width="8" stroke-opacity="0"/>\n\t<line id="function random() { [native code] }:Bond:10-9" class="event" x1="144" y1="42" x2="160" y2="51" stroke-width="8" stroke-opacity="0"/>\n\t<line id="function random() { [native code] }:Bond:11-10" class="event" x1="144" y1="24" x2="144" y2="42" stroke-width="8" stroke-opacity="0"/>\n\t<line id="function random() { [native code] }:Bond:12-11" class="event" x1="126" y1="24" x2="144" y2="24" stroke-width="8" stroke-opacity="0"/>\n\t<line id="function random() { [native code] }:Bond:13-11" class="event" x1="144" y1="6" x2="144" y2="24" stroke-width="8" stroke-opacity="0"/>\n\t<line id="function random() { [native code] }:Bond:14-11" class="event" x1="162" y1="24" x2="144" y2="24" stroke-width="8" stroke-opacity="0"/>\n\t<line id="function random() { [native code] }:Bond:15-5" class="event" x1="128" y1="51" x2="128" y2="69" stroke-width="8" stroke-opacity="0"/>\n\t<line id="function random() { [native code] }:Bond:17-16" class="event" x1="94" y1="52" x2="97" y2="69" stroke-width="8" stroke-opacity="0"/>\n\t<line id="function random() { [native code] }:Bond:18-17" class="event" x1="76" y1="50" x2="94" y2="52" stroke-width="8" stroke-opacity="0"/>\n\t<line id="function random() { [native code] }:Bond:20-19" class="event" x1="47" y1="37" x2="65" y2="35" stroke-width="8" stroke-opacity="0"/>\n\t<line id="function random() { [native code] }:Bond:22-21" class="event" x1="51" y1="68" x2="40" y2="53" stroke-width="8" stroke-opacity="0"/>\n\t<line id="function random() { [native code] }:Bond:23-18" class="event" x1="69" y1="66" x2="76" y2="50" stroke-width="8" stroke-opacity="0"/>\n\t<line id="function random() { [native code] }:Bond:24-23" class="event" x1="82" y1="78" x2="69" y2="66" stroke-width="8" stroke-opacity="0"/>\n\t<line id="function random() { [native code] }:Bond:24-16" class="event" x1="82" y1="78" x2="97" y2="69" stroke-width="8" stroke-opacity="0"/>\n\t<line id="function random() { [native code] }:Bond:25-2" class="event" x1="82" y1="96" x2="97" y2="105" stroke-width="8" stroke-opacity="0"/>\n\t<line id="function random() { [native code] }:Bond:26-1" class="event" x1="82" y1="132" x2="97" y2="123" stroke-width="8" stroke-opacity="0"/>\n\t<line id="function random() { [native code] }:Bond:27-26" class="event" x1="66" y1="123" x2="82" y2="132" stroke-width="8" stroke-opacity="0"/>\n\t<line id="function random() { [native code] }:Bond:28-27" class="event" x1="51" y1="132" x2="66" y2="123" stroke-width="8" stroke-opacity="0"/>\n\t<line id="function random() { [native code] }:Bond:29-28" class="event" x1="35" y1="123" x2="51" y2="132" stroke-width="8" stroke-opacity="0"/>\n\t<line id="function random() { [native code] }:Bond:30-29" class="event" x1="20" y1="132" x2="35" y2="123" stroke-width="8" stroke-opacity="0"/>\n\t<circle id="function random() { [native code] }:Atom:0" class="event" cx="113" cy="132" r="8" fill-opacity="0"/>\n\t<circle id="function random() { [native code] }:Atom:1" class="event" cx="97" cy="123" r="8" fill-opacity="0"/>\n\t<circle id="function random() { [native code] }:Atom:2" class="event" cx="97" cy="105" r="8" fill-opacity="0"/>\n\t<circle id="function random() { [native code] }:Atom:3" class="event" cx="113" cy="96" r="8" fill-opacity="0"/>\n\t<circle id="function random() { [native code] }:Atom:4" class="event" cx="113" cy="78" r="8" fill-opacity="0"/>\n\t<circle id="function random() { [native code] }:Atom:5" class="event" cx="128" cy="69" r="8" fill-opacity="0"/>\n\t<circle id="function random() { [native code] }:Atom:6" class="event" cx="144" cy="78" r="8" fill-opacity="0"/>\n\t<circle id="function random() { [native code] }:Atom:7" class="event" cx="160" cy="69" r="8" fill-opacity="0"/>\n\t<circle id="function random() { [native code] }:Atom:8" class="event" cx="175" cy="78" r="8" fill-opacity="0"/>\n\t<circle id="function random() { [native code] }:Atom:9" class="event" cx="160" cy="51" r="8" fill-opacity="0"/>\n\t<circle id="function random() { [native code] }:Atom:10" class="event" cx="144" cy="42" r="8" fill-opacity="0"/>\n\t<circle id="function random() { [native code] }:Atom:11" class="event" cx="144" cy="24" r="8" fill-opacity="0"/>\n\t<circle id="function random() { [native code] }:Atom:12" class="event" cx="126" cy="24" r="8" fill-opacity="0"/>\n\t<circle id="function random() { [native code] }:Atom:13" class="event" cx="144" cy="6" r="8" fill-opacity="0"/>\n\t<circle id="function random() { [native code] }:Atom:14" class="event" cx="162" cy="24" r="8" fill-opacity="0"/>\n\t<circle id="function random() { [native code] }:Atom:15" class="event" cx="128" cy="51" r="8" fill-opacity="0"/>\n\t<circle id="function random() { [native code] }:Atom:16" class="event" cx="97" cy="69" r="8" fill-opacity="0"/>\n\t<circle id="function random() { [native code] }:Atom:17" class="event" cx="94" cy="52" r="8" fill-opacity="0"/>\n\t<circle id="function random() { [native code] }:Atom:18" class="event" cx="76" cy="50" r="8" fill-opacity="0"/>\n\t<circle id="function random() { [native code] }:Atom:19" class="event" cx="65" cy="35" r="8" fill-opacity="0"/>\n\t<circle id="function random() { [native code] }:Atom:20" class="event" cx="47" cy="37" r="8" fill-opacity="0"/>\n\t<circle id="function random() { [native code] }:Atom:21" class="event" cx="40" cy="53" r="8" fill-opacity="0"/>\n\t<circle id="function random() { [native code] }:Atom:22" class="event" cx="51" cy="68" r="8" fill-opacity="0"/>\n\t<circle id="function random() { [native code] }:Atom:23" class="event" cx="69" cy="66" r="8" fill-opacity="0"/>\n\t<circle id="function random() { [native code] }:Atom:24" class="event" cx="82" cy="78" r="8" fill-opacity="0"/>\n\t<circle id="function random() { [native code] }:Atom:25" class="event" cx="82" cy="96" r="8" fill-opacity="0"/>\n\t<circle id="function random() { [native code] }:Atom:26" class="event" cx="82" cy="132" r="8" fill-opacity="0"/>\n\t<circle id="function random() { [native code] }:Atom:27" class="event" cx="66" cy="123" r="8" fill-opacity="0"/>\n\t<circle id="function random() { [native code] }:Atom:28" class="event" cx="51" cy="132" r="8" fill-opacity="0"/>\n\t<circle id="function random() { [native code] }:Atom:29" class="event" cx="35" cy="123" r="8" fill-opacity="0"/>\n\t<circle id="function random() { [native code] }:Atom:30" class="event" cx="20" cy="132" r="8" fill-opacity="0"/>\n</svg>