<svg id="function random() { [native code] }" xmlns="http://www.w3.org/2000/svg" version="1.1" width="200px" height="150px" viewBox="0 0 200 150">\n\t<style> #function random() { [native code] } {pointer-events:none; }  #function random() { [native code] } .event  { pointer-events:all;}  </style>\n\t<text x="144" y="123" font-family=" Helvetica" font-weight="900" font-size="12" fill="rgb(48,80,248)">N</text>\n\t<text x="161" y="125" font-family=" Helvetica" font-weight="900" font-size="8" fill="rgb(48,80,248)">2</text>\n\t<text x="153" y="123" font-family=" Helvetica" font-weight="900" font-size="12" fill="rgb(48,80,248)">H</text>\n\t<text x="90" y="133" font-family=" Helvetica" font-weight="900" font-size="12" fill="rgb(48,80,248)">N</text>\n\t<text x="90" y="145" font-family=" Helvetica" font-weight="900" font-size="12" fill="rgb(48,80,248)">H</text>\n\t<text x="90" y="92" font-family=" Helvetica" font-weight="900" font-size="12" fill="rgb(48,80,248)">N</text>\n\t<text x="160" y="71" font-family=" Helvetica" font-weight="900" font-size="12" fill="rgb(31,240,31)">Cl</text>\n\t<text x="152" y="12" font-family=" Helvetica" font-weight="900" font-size="12" fill="rgb(144,224,80)">F</text>\n\t<text x="180" y="19" font-family=" Helvetica" font-weight="900" font-size="12" fill="rgb(144,224,80)">F</text>\n\t<text x="173" y="48" font-family=" Helvetica" font-weight="900" font-size="12" fill="rgb(144,224,80)">F</text>\n\t<text x="68" y="40" font-family=" Helvetica" font-weight="900" font-size="12" fill="rgb(48,80,248)">N</text>\n\t<text x="76" y="40" font-family=" Helvetica" font-weight="900" font-size="12" fill="rgb(48,80,248)">H</text>\n\t<text x="54" y="133" font-family=" Helvetica" font-weight="900" font-size="12" fill="rgb(255,13,13)">O</text>\n\t<line x1="76" y1="98" x2="89" y2="91" style="stroke:rgb(0,0,0);stroke-width:1"/>\n\t<line x1="77" y1="94" x2="87" y2="88" style="stroke:rgb(0,0,0);stroke-width:1"/>\n\t<line x1="130" y1="67" x2="112" y2="57" style="stroke:rgb(0,0,0);stroke-width:1"/>\n\t<line x1="130" y1="63" x2="116" y2="55" style="stroke:rgb(0,0,0);stroke-width:1"/>\n\t<line x1="148" y1="36" x2="148" y2="57" style="stroke:rgb(0,0,0);stroke-width:1"/>\n\t<line x1="145" y1="38" x2="145" y2="54" style="stroke:rgb(0,0,0);stroke-width:1"/>\n\t<line x1="112" y1="36" x2="130" y2="26" style="stroke:rgb(0,0,0);stroke-width:1"/>\n\t<line x1="116" y1="38" x2="130" y2="29" style="stroke:rgb(0,0,0);stroke-width:1"/>\n\t<line x1="76" y1="57" x2="94" y2="67" style="stroke:rgb(0,0,0);stroke-width:1"/>\n\t<line x1="77" y1="60" x2="91" y2="69" style="stroke:rgb(0,0,0);stroke-width:1"/>\n\t<line x1="43" y1="53" x2="52" y2="34" style="stroke:rgb(0,0,0);stroke-width:1"/>\n\t<line x1="47" y1="52" x2="53" y2="38" style="stroke:rgb(0,0,0);stroke-width:1"/>\n\t<line x1="58" y1="88" x2="58" y2="67" style="stroke:rgb(0,0,0);stroke-width:1"/>\n\t<line x1="62" y1="86" x2="62" y2="69" style="stroke:rgb(0,0,0);stroke-width:1"/>\n\t<line x1="10" y1="39" x2="23" y2="55" style="stroke:rgb(0,0,0);stroke-width:1"/>\n\t<line x1="14" y1="39" x2="24" y2="52" style="stroke:rgb(0,0,0);stroke-width:1"/>\n\t<line x1="39" y1="17" x2="19" y2="20" style="stroke:rgb(0,0,0);stroke-width:1"/>\n\t<line x1="37" y1="21" x2="21" y2="23" style="stroke:rgb(0,0,0);stroke-width:1"/>\n\t<line x1="76" y1="117" x2="63" y2="125" style="stroke:rgb(0,0,0);stroke-width:1"/>\n\t<line x1="78" y1="120" x2="65" y2="127" style="stroke:rgb(0,0,0);stroke-width:1"/>\n\t<line x1="130" y1="129" x2="143" y2="122" style="stroke:rgb(0,0,0);stroke-width:1"/>\n\t<line x1="112" y1="119" x2="130" y2="129" style="stroke:rgb(0,0,0);stroke-width:1"/>\n\t<line x1="100" y1="126" x2="112" y2="119" style="stroke:rgb(0,0,0);stroke-width:1"/>\n\t<line x1="76" y1="119" x2="89" y2="126" style="stroke:rgb(0,0,0);stroke-width:1"/>\n\t<line x1="76" y1="98" x2="76" y2="119" style="stroke:rgb(0,0,0);stroke-width:1"/>\n\t<line x1="94" y1="67" x2="94" y2="82" style="stroke:rgb(0,0,0);stroke-width:1"/>\n\t<line x1="112" y1="57" x2="94" y2="67" style="stroke:rgb(0,0,0);stroke-width:1"/>\n\t<line x1="148" y1="57" x2="130" y2="67" style="stroke:rgb(0,0,0);stroke-width:1"/>\n\t<line x1="159" y1="63" x2="148" y2="57" style="stroke:rgb(0,0,0);stroke-width:1"/>\n\t<line x1="130" y1="26" x2="148" y2="36" style="stroke:rgb(0,0,0);stroke-width:1"/>\n\t<line x1="112" y1="36" x2="112" y2="57" style="stroke:rgb(0,0,0);stroke-width:1"/>\n\t<line x1="166" y1="26" x2="148" y2="36" style="stroke:rgb(0,0,0);stroke-width:1"/>\n\t<line x1="159" y1="14" x2="166" y2="26" style="stroke:rgb(0,0,0);stroke-width:1"/>\n\t<line x1="179" y1="18" x2="166" y2="26" style="stroke:rgb(0,0,0);stroke-width:1"/>\n\t<line x1="173" y1="38" x2="166" y2="26" style="stroke:rgb(0,0,0);stroke-width:1"/>\n\t<line x1="73" y1="42" x2="76" y2="57" style="stroke:rgb(0,0,0);stroke-width:1"/>\n\t<line x1="52" y1="34" x2="67" y2="36" style="stroke:rgb(0,0,0);stroke-width:1"/>\n\t<line x1="58" y1="67" x2="43" y2="53" style="stroke:rgb(0,0,0);stroke-width:1"/>\n\t<line x1="58" y1="67" x2="76" y2="57" style="stroke:rgb(0,0,0);stroke-width:1"/>\n\t<line x1="58" y1="88" x2="76" y2="98" style="stroke:rgb(0,0,0);stroke-width:1"/>\n\t<line x1="23" y1="55" x2="43" y2="53" style="stroke:rgb(0,0,0);stroke-width:1"/>\n\t<line x1="19" y1="20" x2="10" y2="39" style="stroke:rgb(0,0,0);stroke-width:1"/>\n\t<line x1="39" y1="17" x2="52" y2="34" style="stroke:rgb(0,0,0);stroke-width:1"/>\n\t<line id="function random() { [native code] }:Bond:6-5" class="event" x1="94" y1="88" x2="76" y2="98" stroke-width="8" stroke-opacity="0"/>\n\t<line id="function random() { [native code] }:Bond:9-8" class="event" x1="130" y1="67" x2="112" y2="57" stroke-width="8" stroke-opacity="0"/>\n\t<line id="function random() { [native code] }:Bond:12-10" class="event" x1="148" y1="36" x2="148" y2="57" stroke-width="8" stroke-opacity="0"/>\n\t<line id="function random() { [native code] }:Bond:14-13" class="event" x1="112" y1="36" x2="130" y2="26" stroke-width="8" stroke-opacity="0"/>\n\t<line id="function random() { [native code] }:Bond:19-7" class="event" x1="76" y1="57" x2="94" y2="67" stroke-width="8" stroke-opacity="0"/>\n\t<line id="function random() { [native code] }:Bond:22-21" class="event" x1="43" y1="53" x2="52" y2="34" stroke-width="8" stroke-opacity="0"/>\n\t<line id="function random() { [native code] }:Bond:24-23" class="event" x1="58" y1="88" x2="58" y2="67" stroke-width="8" stroke-opacity="0"/>\n\t<line id="function random() { [native code] }:Bond:26-25" class="event" x1="10" y1="39" x2="23" y2="55" stroke-width="8" stroke-opacity="0"/>\n\t<line id="function random() { [native code] }:Bond:28-27" class="event" x1="39" y1="17" x2="19" y2="20" stroke-width="8" stroke-opacity="0"/>\n\t<line id="function random() { [native code] }:Bond:29-4" class="event" x1="58" y1="129" x2="76" y2="119" stroke-width="8" stroke-opacity="0"/>\n\t<line id="function random() { [native code] }:Bond:1-0" class="event" x1="130" y1="129" x2="148" y2="119" stroke-width="8" stroke-opacity="0"/>\n\t<line id="function random() { [native code] }:Bond:2-1" class="event" x1="112" y1="119" x2="130" y2="129" stroke-width="8" stroke-opacity="0"/>\n\t<line id="function random() { [native code] }:Bond:3-2" class="event" x1="94" y1="129" x2="112" y2="119" stroke-width="8" stroke-opacity="0"/>\n\t<line id="function random() { [native code] }:Bond:4-3" class="event" x1="76" y1="119" x2="94" y2="129" stroke-width="8" stroke-opacity="0"/>\n\t<line id="function random() { [native code] }:Bond:5-4" class="event" x1="76" y1="98" x2="76" y2="119" stroke-width="8" stroke-opacity="0"/>\n\t<line id="function random() { [native code] }:Bond:7-6" class="event" x1="94" y1="67" x2="94" y2="88" stroke-width="8" stroke-opacity="0"/>\n\t<line id="function random() { [native code] }:Bond:8-7" class="event" x1="112" y1="57" x2="94" y2="67" stroke-width="8" stroke-opacity="0"/>\n\t<line id="function random() { [native code] }:Bond:10-9" class="event" x1="148" y1="57" x2="130" y2="67" stroke-width="8" stroke-opacity="0"/>\n\t<line id="function random() { [native code] }:Bond:11-10" class="event" x1="166" y1="67" x2="148" y2="57" stroke-width="8" stroke-opacity="0"/>\n\t<line id="function random() { [native code] }:Bond:13-12" class="event" x1="130" y1="26" x2="148" y2="36" stroke-width="8" stroke-opacity="0"/>\n\t<line id="function random() { [native code] }:Bond:14-8" class="event" x1="112" y1="36" x2="112" y2="57" stroke-width="8" stroke-opacity="0"/>\n\t<line id="function random() { [native code] }:Bond:15-12" class="event" x1="166" y1="26" x2="148" y2="36" stroke-width="8" stroke-opacity="0"/>\n\t<line id="function random() { [native code] }:Bond:16-15" class="event" x1="156" y1="8" x2="166" y2="26" stroke-width="8" stroke-opacity="0"/>\n\t<line id="function random() { [native code] }:Bond:17-15" class="event" x1="184" y1="15" x2="166" y2="26" stroke-width="8" stroke-opacity="0"/>\n\t<line id="function random() { [native code] }:Bond:18-15" class="event" x1="177" y1="44" x2="166" y2="26" stroke-width="8" stroke-opacity="0"/>\n\t<line id="function random() { [native code] }:Bond:20-19" class="event" x1="72" y1="36" x2="76" y2="57" stroke-width="8" stroke-opacity="0"/>\n\t<line id="function random() { [native code] }:Bond:21-20" class="event" x1="52" y1="34" x2="72" y2="36" stroke-width="8" stroke-opacity="0"/>\n\t<line id="function random() { [native code] }:Bond:23-22" class="event" x1="58" y1="67" x2="43" y2="53" stroke-width="8" stroke-opacity="0"/>\n\t<line id="function random() { [native code] }:Bond:23-19" class="event" x1="58" y1="67" x2="76" y2="57" stroke-width="8" stroke-opacity="0"/>\n\t<line id="function random() { [native code] }:Bond:24-5" class="event" x1="58" y1="88" x2="76" y2="98" stroke-width="8" stroke-opacity="0"/>\n\t<line id="function random() { [native code] }:Bond:25-22" class="event" x1="23" y1="55" x2="43" y2="53" stroke-width="8" stroke-opacity="0"/>\n\t<line id="function random() { [native code] }:Bond:27-26" class="event" x1="19" y1="20" x2="10" y2="39" stroke-width="8" stroke-opacity="0"/>\n\t<line id="function random() { [native code] }:Bond:28-21" class="event" x1="39" y1="17" x2="52" y2="34" stroke-width="8" stroke-opacity="0"/>\n\t<circle id="function random() { [native code] }:Atom:0" class="event" cx="148" cy="119" r="8" fill-opacity="0"/>\n\t<circle id="function random() { [native code] }:Atom:1" class="event" cx="130" cy="129" r="8" fill-opacity="0"/>\n\t<circle id="function random() { [native code] }:Atom:2" class="event" cx="112" cy="119" r="8" fill-opacity="0"/>\n\t<circle id="function random() { [native code] }:Atom:3" class="event" cx="94" cy="129" r="8" fill-opacity="0"/>\n\t<circle id="function random() { [native code] }:Atom:4" class="event" cx="76" cy="119" r="8" fill-opacity="0"/>\n\t<circle id="function random() { [native code] }:Atom:5" class="event" cx="76" cy="98" r="8" fill-opacity="0"/>\n\t<circle id="function random() { [native code] }:Atom:6" class="event" cx="94" cy="88" r="8" fill-opacity="0"/>\n\t<circle id="function random() { [native code] }:Atom:7" class="event" cx="94" cy="67" r="8" fill-opacity="0"/>\n\t<circle id="function random() { [native code] }:Atom:8" class="event" cx="112" cy="57" r="8" fill-opacity="0"/>\n\t<circle id="function random() { [native code] }:Atom:9" class="event" cx="130" cy="67" r="8" fill-opacity="0"/>\n\t<circle id="function random() { [native code] }:Atom:10" class="event" cx="148" cy="57" r="8" fill-opacity="0"/>\n\t<circle id="function random() { [native code] }:Atom:11" class="event" cx="166" cy="67" r="8" fill-opacity="0"/>\n\t<circle id="function random() { [native code] }:Atom:12" class="event" cx="148" cy="36" r="8" fill-opacity="0"/>\n\t<circle id="function random() { [native code] }:Atom:13" class="event" cx="130" cy="26" r="8" fill-opacity="0"/>\n\t<circle id="function random() { [native code] }:Atom:14" class="event" cx="112" cy="36" r="8" fill-opacity="0"/>\n\t<circle id="function random() { [native code] }:Atom:15" class="event" cx="166" cy="26" r="8" fill-opacity="0"/>\n\t<circle id="function random() { [native code] }:Atom:16" class="event" cx="156" cy="8" r="8" fill-opacity="0"/>\n\t<circle id="function random() { [native code] }:Atom:17" class="event" cx="184" cy="15" r="8" fill-opacity="0"/>\n\t<circle id="function random() { [native code] }:Atom:18" class="event" cx="177" cy="44" r="8" fill-opacity="0"/>\n\t<circle id="function random() { [native code] }:Atom:19" class="event" cx="76" cy="57" r="8" fill-opacity="0"/>\n\t<circle id="function random() { [native code] }:Atom:20" class="event" cx="72" cy="36" r="8" fill-opacity="0"/>\n\t<circle id="function random() { [native code] }:Atom:21" class="event" cx="52" cy="34" r="8" fill-opacity="0"/>\n\t<circle id="function random() { [native code] }:Atom:22" class="event" cx="43" cy="53" r="8" fill-opacity="0"/>\n\t<circle id="function random() { [native code] }:Atom:23" class="event" cx="58" cy="67" r="8" fill-opacity="0"/>\n\t<circle id="function random() { [native code] }:Atom:24" class="event" cx="58" cy="88" r="8" fill-opacity="0"/>\n\t<circle id="function random() { [native code] }:Atom:25" class="event" cx="23" cy="55" r="8" fill-opacity="0"/>\n\t<circle id="function random() { [native code] }:Atom:26" class="event" cx="10" cy="39" r="8" fill-opacity="0"/>\n\t<circle id="function random() { [native code] }:Atom:27" class="event" cx="19" cy="20" r="8" fill-opacity="0"/>\n\t<circle id="function random() { [native code] }:Atom:28" class="event" cx="39" cy="17" r="8" fill-opacity="0"/>\n\t<circle id="function random() { [native code] }:Atom:29" class="event" cx="58" cy="129" r="8" fill-opacity="0"/>\n</svg>