<svg id="function random() { [native code] }" xmlns="http://www.w3.org/2000/svg" version="1.1" width="200px" height="150px" viewBox="0 0 200 150">\n\t<style> #function random() { [native code] } {pointer-events:none; }  #function random() { [native code] } .event  { pointer-events:all;}  </style>\n\t<text x="54" y="94" font-family=" Helvetica" font-weight="900" font-size="14" fill="rgb(255,13,13)">O</text>\n\t<text x="88" y="113" font-family=" Helvetica" font-weight="900" font-size="14" fill="rgb(255,13,13)">O</text>\n\t<line x1="98" y1="38" x2="119" y2="50" style="stroke:rgb(0,0,0);stroke-width:1"/>\n\t<line x1="98" y1="42" x2="115" y2="51" style="stroke:rgb(0,0,0);stroke-width:1"/>\n\t<line x1="77" y1="74" x2="77" y2="50" style="stroke:rgb(0,0,0);stroke-width:1"/>\n\t<line x1="81" y1="71" x2="81" y2="52" style="stroke:rgb(0,0,0);stroke-width:1"/>\n\t<line x1="119" y1="74" x2="98" y2="86" style="stroke:rgb(0,0,0);stroke-width:1"/>\n\t<line x1="115" y1="72" x2="98" y2="81" style="stroke:rgb(0,0,0);stroke-width:1"/>\n\t<line x1="119" y1="50" x2="140" y2="38" style="stroke:rgb(0,0,0);stroke-width:1"/>\n\t<line x1="77" y1="50" x2="98" y2="38" style="stroke:rgb(0,0,0);stroke-width:1"/>\n\t<line x1="66" y1="84" x2="77" y2="74" style="stroke:rgb(0,0,0);stroke-width:1"/>\n\t<line x1="69" y1="111" x2="63" y2="97" style="stroke:rgb(0,0,0);stroke-width:1"/>\n\t<line x1="87" y1="110" x2="69" y2="111" style="stroke:rgb(0,0,0);stroke-width:1"/>\n\t<line x1="98" y1="86" x2="95" y2="102" style="stroke:rgb(0,0,0);stroke-width:1"/>\n\t<line x1="98" y1="86" x2="77" y2="74" style="stroke:rgb(0,0,0);stroke-width:1"/>\n\t<line x1="119" y1="74" x2="119" y2="50" style="stroke:rgb(0,0,0);stroke-width:1"/>\n\t<line id="function random() { [native code] }:Bond:2-1" class="event" x1="98" y1="38" x2="119" y2="50" stroke-width="8" stroke-opacity="0"/>\n\t<line id="function random() { [native code] }:Bond:4-3" class="event" x1="77" y1="74" x2="77" y2="50" stroke-width="8" stroke-opacity="0"/>\n\t<line id="function random() { [native code] }:Bond:9-8" class="event" x1="119" y1="74" x2="98" y2="86" stroke-width="8" stroke-opacity="0"/>\n\t<line id="function random() { [native code] }:Bond:1-0" class="event" x1="119" y1="50" x2="140" y2="38" stroke-width="8" stroke-opacity="0"/>\n\t<line id="function random() { [native code] }:Bond:3-2" class="event" x1="77" y1="50" x2="98" y2="38" stroke-width="8" stroke-opacity="0"/>\n\t<line id="function random() { [native code] }:Bond:5-4" class="event" x1="59" y1="90" x2="77" y2="74" stroke-width="8" stroke-opacity="0"/>\n\t<line id="function random() { [native code] }:Bond:6-5" class="event" x1="69" y1="111" x2="59" y2="90" stroke-width="8" stroke-opacity="0"/>\n\t<line id="function random() { [native code] }:Bond:7-6" class="event" x1="93" y1="109" x2="69" y2="111" stroke-width="8" stroke-opacity="0"/>\n\t<line id="function random() { [native code] }:Bond:8-7" class="event" x1="98" y1="86" x2="93" y2="109" stroke-width="8" stroke-opacity="0"/>\n\t<line id="function random() { [native code] }:Bond:8-4" class="event" x1="98" y1="86" x2="77" y2="74" stroke-width="8" stroke-opacity="0"/>\n\t<line id="function random() { [native code] }:Bond:9-1" class="event" x1="119" y1="74" x2="119" y2="50" stroke-width="8" stroke-opacity="0"/>\n\t<circle id="function random() { [native code] }:Atom:0" class="event" cx="140" cy="38" r="8" fill-opacity="0"/>\n\t<circle id="function random() { [native code] }:Atom:1" class="event" cx="119" cy="50" r="8" fill-opacity="0"/>\n\t<circle id="function random() { [native code] }:Atom:2" class="event" cx="98" cy="38" r="8" fill-opacity="0"/>\n\t<circle id="function random() { [native code] }:Atom:3" class="event" cx="77" cy="50" r="8" fill-opacity="0"/>\n\t<circle id="function random() { [native code] }:Atom:4" class="event" cx="77" cy="74" r="8" fill-opacity="0"/>\n\t<circle id="function random() { [native code] }:Atom:5" class="event" cx="59" cy="90" r="8" fill-opacity="0"/>\n\t<circle id="function random() { [native code] }:Atom:6" class="event" cx="69" cy="111" r="8" fill-opacity="0"/>\n\t<circle id="function random() { [native code] }:Atom:7" class="event" cx="93" cy="109" r="8" fill-opacity="0"/>\n\t<circle id="function random() { [native code] }:Atom:8" class="event" cx="98" cy="86" r="8" fill-opacity="0"/>\n\t<circle id="function random() { [native code] }:Atom:9" class="event" cx="119" cy="74" r="8" fill-opacity="0"/>\n</svg>