<svg id="function random() { [native code] }" xmlns="http://www.w3.org/2000/svg" version="1.1" width="200px" height="150px" viewBox="0 0 200 150">\n\t<style> #function random() { [native code] } {pointer-events:none; }  #function random() { [native code] } .event  { pointer-events:all;}  </style>\n\t<text x="52" y="62" font-family=" Helvetica" font-weight="900" font-size="14" fill="rgb(144,224,80)">F</text>\n\t<text x="43" y="29" font-family=" Helvetica" font-weight="900" font-size="14" fill="rgb(144,224,80)">F</text>\n\t<text x="76" y="20" font-family=" Helvetica" font-weight="900" font-size="14" fill="rgb(144,224,80)">F</text>\n\t<text x="130" y="113" font-family=" Helvetica" font-weight="900" font-size="14" fill="rgb(144,224,80)">F</text>\n\t<text x="106" y="137" font-family=" Helvetica" font-weight="900" font-size="14" fill="rgb(144,224,80)">F</text>\n\t<text x="82" y="113" font-family=" Helvetica" font-weight="900" font-size="14" fill="rgb(144,224,80)">F</text>\n\t<line x1="110" y1="37" x2="131" y2="49" style="stroke:rgb(0,0,0);stroke-width:1"/>\n\t<line x1="110" y1="41" x2="127" y2="51" style="stroke:rgb(0,0,0);stroke-width:1"/>\n\t<line x1="89" y1="73" x2="89" y2="49" style="stroke:rgb(0,0,0);stroke-width:1"/>\n\t<line x1="93" y1="70" x2="93" y2="51" style="stroke:rgb(0,0,0);stroke-width:1"/>\n\t<line x1="131" y1="73" x2="110" y2="85" style="stroke:rgb(0,0,0);stroke-width:1"/>\n\t<line x1="127" y1="71" x2="110" y2="80" style="stroke:rgb(0,0,0);stroke-width:1"/>\n\t<line x1="131" y1="49" x2="151" y2="37" style="stroke:rgb(0,0,0);stroke-width:1"/>\n\t<line x1="89" y1="49" x2="110" y2="37" style="stroke:rgb(0,0,0);stroke-width:1"/>\n\t<line x1="68" y1="37" x2="89" y2="49" style="stroke:rgb(0,0,0);stroke-width:1"/>\n\t<line x1="60" y1="51" x2="68" y2="37" style="stroke:rgb(0,0,0);stroke-width:1"/>\n\t<line x1="53" y1="28" x2="68" y2="37" style="stroke:rgb(0,0,0);stroke-width:1"/>\n\t<line x1="76" y1="23" x2="68" y2="37" style="stroke:rgb(0,0,0);stroke-width:1"/>\n\t<line x1="110" y1="85" x2="89" y2="73" style="stroke:rgb(0,0,0);stroke-width:1"/>\n\t<line x1="110" y1="109" x2="110" y2="85" style="stroke:rgb(0,0,0);stroke-width:1"/>\n\t<line x1="129" y1="109" x2="110" y2="109" style="stroke:rgb(0,0,0);stroke-width:1"/>\n\t<line x1="110" y1="126" x2="110" y2="109" style="stroke:rgb(0,0,0);stroke-width:1"/>\n\t<line x1="91" y1="109" x2="110" y2="109" style="stroke:rgb(0,0,0);stroke-width:1"/>\n\t<line x1="131" y1="73" x2="131" y2="49" style="stroke:rgb(0,0,0);stroke-width:1"/>\n\t<line id="function random() { [native code] }:Bond:2-1" class="event" x1="110" y1="37" x2="131" y2="49" stroke-width="8" stroke-opacity="0"/>\n\t<line id="function random() { [native code] }:Bond:8-3" class="event" x1="89" y1="73" x2="89" y2="49" stroke-width="8" stroke-opacity="0"/>\n\t<line id="function random() { [native code] }:Bond:14-9" class="event" x1="131" y1="73" x2="110" y2="85" stroke-width="8" stroke-opacity="0"/>\n\t<line id="function random() { [native code] }:Bond:1-0" class="event" x1="131" y1="49" x2="151" y2="37" stroke-width="8" stroke-opacity="0"/>\n\t<line id="function random() { [native code] }:Bond:3-2" class="event" x1="89" y1="49" x2="110" y2="37" stroke-width="8" stroke-opacity="0"/>\n\t<line id="function random() { [native code] }:Bond:4-3" class="event" x1="68" y1="37" x2="89" y2="49" stroke-width="8" stroke-opacity="0"/>\n\t<line id="function random() { [native code] }:Bond:5-4" class="event" x1="56" y1="58" x2="68" y2="37" stroke-width="8" stroke-opacity="0"/>\n\t<line id="function random() { [native code] }:Bond:6-4" class="event" x1="48" y1="25" x2="68" y2="37" stroke-width="8" stroke-opacity="0"/>\n\t<line id="function random() { [native code] }:Bond:7-4" class="event" x1="80" y1="16" x2="68" y2="37" stroke-width="8" stroke-opacity="0"/>\n\t<line id="function random() { [native code] }:Bond:9-8" class="event" x1="110" y1="85" x2="89" y2="73" stroke-width="8" stroke-opacity="0"/>\n\t<line id="function random() { [native code] }:Bond:10-9" class="event" x1="110" y1="109" x2="110" y2="85" stroke-width="8" stroke-opacity="0"/>\n\t<line id="function random() { [native code] }:Bond:11-10" class="event" x1="134" y1="109" x2="110" y2="109" stroke-width="8" stroke-opacity="0"/>\n\t<line id="function random() { [native code] }:Bond:12-10" class="event" x1="110" y1="133" x2="110" y2="109" stroke-width="8" stroke-opacity="0"/>\n\t<line id="function random() { [native code] }:Bond:13-10" class="event" x1="86" y1="109" x2="110" y2="109" stroke-width="8" stroke-opacity="0"/>\n\t<line id="function random() { [native code] }:Bond:14-1" class="event" x1="131" y1="73" x2="131" y2="49" stroke-width="8" stroke-opacity="0"/>\n\t<circle id="function random() { [native code] }:Atom:0" class="event" cx="151" cy="37" r="8" fill-opacity="0"/>\n\t<circle id="function random() { [native code] }:Atom:1" class="event" cx="131" cy="49" r="8" fill-opacity="0"/>\n\t<circle id="function random() { [native code] }:Atom:2" class="event" cx="110" cy="37" r="8" fill-opacity="0"/>\n\t<circle id="function random() { [native code] }:Atom:3" class="event" cx="89" cy="49" r="8" fill-opacity="0"/>\n\t<circle id="function random() { [native code] }:Atom:4" class="event" cx="68" cy="37" r="8" fill-opacity="0"/>\n\t<circle id="function random() { [native code] }:Atom:5" class="event" cx="56" cy="58" r="8" fill-opacity="0"/>\n\t<circle id="function random() { [native code] }:Atom:6" class="event" cx="48" cy="25" r="8" fill-opacity="0"/>\n\t<circle id="function random() { [native code] }:Atom:7" class="event" cx="80" cy="16" r="8" fill-opacity="0"/>\n\t<circle id="function random() { [native code] }:Atom:8" class="event" cx="89" cy="73" r="8" fill-opacity="0"/>\n\t<circle id="function random() { [native code] }:Atom:9" class="event" cx="110" cy="85" r="8" fill-opacity="0"/>\n\t<circle id="function random() { [native code] }:Atom:10" class="event" cx="110" cy="109" r="8" fill-opacity="0"/>\n\t<circle id="function random() { [native code] }:Atom:11" class="event" cx="134" cy="109" r="8" fill-opacity="0"/>\n\t<circle id="function random() { [native code] }:Atom:12" class="event" cx="110" cy="133" r="8" fill-opacity="0"/>\n\t<circle id="function random() { [native code] }:Atom:13" class="event" cx="86" cy="109" r="8" fill-opacity="0"/>\n\t<circle id="function random() { [native code] }:Atom:14" class="event" cx="131" cy="73" r="8" fill-opacity="0"/>\n</svg>