<svg id="function random() { [native code] }" xmlns="http://www.w3.org/2000/svg" version="1.1" width="200px" height="150px" viewBox="0 0 200 150">\n\t<style> #function random() { [native code] } {pointer-events:none; }  #function random() { [native code] } .event  { pointer-events:all;}  </style>\n\t<text x="105" y="79" font-family=" Helvetica" font-weight="900" font-size="14" fill="rgb(48,80,248)">N</text>\n\t<text x="84" y="115" font-family=" Helvetica" font-weight="900" font-size="14" fill="rgb(255,13,13)">O</text>\n\t<text x="63" y="79" font-family=" Helvetica" font-weight="900" font-size="14" fill="rgb(255,13,13)">O</text>\n\t<line x1="87" y1="85" x2="87" y2="104" style="stroke:rgb(0,0,0);stroke-width:1"/>\n\t<line x1="91" y1="85" x2="91" y2="104" style="stroke:rgb(0,0,0);stroke-width:1"/>\n\t<line x1="151" y1="50" x2="172" y2="38" style="stroke:rgb(0,0,0);stroke-width:1"/>\n\t<line x1="131" y1="39" x2="151" y2="50" style="stroke:rgb(0,0,0);stroke-width:1"/>\n\t<line x1="110" y1="51" x2="131" y2="39" style="stroke:rgb(0,0,0);stroke-width:1"/>\n\t<line x1="110" y1="68" x2="110" y2="51" style="stroke:rgb(0,0,0);stroke-width:1"/>\n\t<line x1="89" y1="87" x2="104" y2="78" style="stroke:rgb(0,0,0);stroke-width:1"/>\n\t<line x1="75" y1="78" x2="89" y2="87" style="stroke:rgb(0,0,0);stroke-width:1"/>\n\t<line x1="48" y1="87" x2="62" y2="78" style="stroke:rgb(0,0,0);stroke-width:1"/>\n\t<line x1="60" y1="107" x2="48" y2="87" style="stroke:rgb(0,0,0);stroke-width:1"/>\n\t<line x1="27" y1="99" x2="48" y2="87" style="stroke:rgb(0,0,0);stroke-width:1"/>\n\t<line x1="36" y1="66" x2="48" y2="87" style="stroke:rgb(0,0,0);stroke-width:1"/>\n\t<line x1="131" y1="87" x2="116" y2="78" style="stroke:rgb(0,0,0);stroke-width:1"/>\n\t<line x1="151" y1="74" x2="131" y2="87" style="stroke:rgb(0,0,0);stroke-width:1"/>\n\t<line x1="151" y1="74" x2="151" y2="50" style="stroke:rgb(0,0,0);stroke-width:1"/>\n\t<line id="function random() { [native code] }:Bond:6-5" class="event" x1="89" y1="111" x2="89" y2="87" stroke-width="8" stroke-opacity="0"/>\n\t<line id="function random() { [native code] }:Bond:1-0" class="event" x1="151" y1="50" x2="172" y2="38" stroke-width="8" stroke-opacity="0"/>\n\t<line id="function random() { [native code] }:Bond:2-1" class="event" x1="131" y1="39" x2="151" y2="50" stroke-width="8" stroke-opacity="0"/>\n\t<line id="function random() { [native code] }:Bond:3-2" class="event" x1="110" y1="51" x2="131" y2="39" stroke-width="8" stroke-opacity="0"/>\n\t<line id="function random() { [native code] }:Bond:4-3" class="event" x1="110" y1="75" x2="110" y2="51" stroke-width="8" stroke-opacity="0"/>\n\t<line id="function random() { [native code] }:Bond:5-4" class="event" x1="89" y1="87" x2="110" y2="75" stroke-width="8" stroke-opacity="0"/>\n\t<line id="function random() { [native code] }:Bond:7-5" class="event" x1="68" y1="75" x2="89" y2="87" stroke-width="8" stroke-opacity="0"/>\n\t<line id="function random() { [native code] }:Bond:8-7" class="event" x1="48" y1="87" x2="68" y2="75" stroke-width="8" stroke-opacity="0"/>\n\t<line id="function random() { [native code] }:Bond:9-8" class="event" x1="60" y1="107" x2="48" y2="87" stroke-width="8" stroke-opacity="0"/>\n\t<line id="function random() { [native code] }:Bond:10-8" class="event" x1="27" y1="99" x2="48" y2="87" stroke-width="8" stroke-opacity="0"/>\n\t<line id="function random() { [native code] }:Bond:11-8" class="event" x1="36" y1="66" x2="48" y2="87" stroke-width="8" stroke-opacity="0"/>\n\t<line id="function random() { [native code] }:Bond:12-4" class="event" x1="131" y1="87" x2="110" y2="75" stroke-width="8" stroke-opacity="0"/>\n\t<line id="function random() { [native code] }:Bond:13-12" class="event" x1="151" y1="74" x2="131" y2="87" stroke-width="8" stroke-opacity="0"/>\n\t<line id="function random() { [native code] }:Bond:13-1" class="event" x1="151" y1="74" x2="151" y2="50" stroke-width="8" stroke-opacity="0"/>\n\t<circle id="function random() { [native code] }:Atom:0" class="event" cx="172" cy="38" r="8" fill-opacity="0"/>\n\t<circle id="function random() { [native code] }:Atom:1" class="event" cx="151" cy="50" r="8" fill-opacity="0"/>\n\t<circle id="function random() { [native code] }:Atom:2" class="event" cx="131" cy="39" r="8" fill-opacity="0"/>\n\t<circle id="function random() { [native code] }:Atom:3" class="event" cx="110" cy="51" r="8" fill-opacity="0"/>\n\t<circle id="function random() { [native code] }:Atom:4" class="event" cx="110" cy="75" r="8" fill-opacity="0"/>\n\t<circle id="function random() { [native code] }:Atom:5" class="event" cx="89" cy="87" r="8" fill-opacity="0"/>\n\t<circle id="function random() { [native code] }:Atom:6" class="event" cx="89" cy="111" r="8" fill-opacity="0"/>\n\t<circle id="function random() { [native code] }:Atom:7" class="event" cx="68" cy="75" r="8" fill-opacity="0"/>\n\t<circle id="function random() { [native code] }:Atom:8" class="event" cx="48" cy="87" r="8" fill-opacity="0"/>\n\t<circle id="function random() { [native code] }:Atom:9" class="event" cx="60" cy="107" r="8" fill-opacity="0"/>\n\t<circle id="function random() { [native code] }:Atom:10" class="event" cx="27" cy="99" r="8" fill-opacity="0"/>\n\t<circle id="function random() { [native code] }:Atom:11" class="event" cx="36" cy="66" r="8" fill-opacity="0"/>\n\t<circle id="function random() { [native code] }:Atom:12" class="event" cx="131" cy="87" r="8" fill-opacity="0"/>\n\t<circle id="function random() { [native code] }:Atom:13" class="event" cx="151" cy="74" r="8" fill-opacity="0"/>\n</svg>