<svg id="function random() { [native code] }" xmlns="http://www.w3.org/2000/svg" version="1.1" width="200px" height="150px" viewBox="0 0 200 150">\n\t<style> #function random() { [native code] } {pointer-events:none; }  #function random() { [native code] } .event  { pointer-events:all;}  </style>\n\t<text x="73" y="59" font-family=" Helvetica" font-weight="900" font-size="14" fill="rgb(255,13,13)">O</text>\n\t<text x="66" y="92" font-family=" Helvetica" font-weight="900" font-size="14" fill="rgb(144,224,80)">F</text>\n\t<text x="33" y="83" font-family=" Helvetica" font-weight="900" font-size="14" fill="rgb(144,224,80)">F</text>\n\t<text x="42" y="50" font-family=" Helvetica" font-weight="900" font-size="14" fill="rgb(144,224,80)">F</text>\n\t<line x1="120" y1="55" x2="141" y2="67" style="stroke:rgb(0,0,0);stroke-width:1"/>\n\t<line x1="121" y1="59" x2="137" y2="69" style="stroke:rgb(0,0,0);stroke-width:1"/>\n\t<line x1="100" y1="91" x2="100" y2="67" style="stroke:rgb(0,0,0);stroke-width:1"/>\n\t<line x1="103" y1="88" x2="103" y2="69" style="stroke:rgb(0,0,0);stroke-width:1"/>\n\t<line x1="141" y1="91" x2="120" y2="103" style="stroke:rgb(0,0,0);stroke-width:1"/>\n\t<line x1="137" y1="89" x2="121" y2="98" style="stroke:rgb(0,0,0);stroke-width:1"/>\n\t<line x1="141" y1="67" x2="162" y2="55" style="stroke:rgb(0,0,0);stroke-width:1"/>\n\t<line x1="100" y1="67" x2="120" y2="55" style="stroke:rgb(0,0,0);stroke-width:1"/>\n\t<line x1="85" y1="59" x2="100" y2="67" style="stroke:rgb(0,0,0);stroke-width:1"/>\n\t<line x1="58" y1="67" x2="72" y2="59" style="stroke:rgb(0,0,0);stroke-width:1"/>\n\t<line x1="66" y1="81" x2="58" y2="67" style="stroke:rgb(0,0,0);stroke-width:1"/>\n\t<line x1="42" y1="76" x2="58" y2="67" style="stroke:rgb(0,0,0);stroke-width:1"/>\n\t<line x1="50" y1="53" x2="58" y2="67" style="stroke:rgb(0,0,0);stroke-width:1"/>\n\t<line x1="120" y1="103" x2="100" y2="91" style="stroke:rgb(0,0,0);stroke-width:1"/>\n\t<line x1="141" y1="91" x2="141" y2="67" style="stroke:rgb(0,0,0);stroke-width:1"/>\n\t<line id="function random() { [native code] }:Bond:2-1" class="event" x1="120" y1="55" x2="141" y2="67" stroke-width="8" stroke-opacity="0"/>\n\t<line id="function random() { [native code] }:Bond:9-3" class="event" x1="100" y1="91" x2="100" y2="67" stroke-width="8" stroke-opacity="0"/>\n\t<line id="function random() { [native code] }:Bond:11-10" class="event" x1="141" y1="91" x2="120" y2="103" stroke-width="8" stroke-opacity="0"/>\n\t<line id="function random() { [native code] }:Bond:1-0" class="event" x1="141" y1="67" x2="162" y2="55" stroke-width="8" stroke-opacity="0"/>\n\t<line id="function random() { [native code] }:Bond:3-2" class="event" x1="100" y1="67" x2="120" y2="55" stroke-width="8" stroke-opacity="0"/>\n\t<line id="function random() { [native code] }:Bond:4-3" class="event" x1="79" y1="55" x2="100" y2="67" stroke-width="8" stroke-opacity="0"/>\n\t<line id="function random() { [native code] }:Bond:5-4" class="event" x1="58" y1="67" x2="79" y2="55" stroke-width="8" stroke-opacity="0"/>\n\t<line id="function random() { [native code] }:Bond:6-5" class="event" x1="70" y1="88" x2="58" y2="67" stroke-width="8" stroke-opacity="0"/>\n\t<line id="function random() { [native code] }:Bond:7-5" class="event" x1="37" y1="79" x2="58" y2="67" stroke-width="8" stroke-opacity="0"/>\n\t<line id="function random() { [native code] }:Bond:8-5" class="event" x1="46" y1="46" x2="58" y2="67" stroke-width="8" stroke-opacity="0"/>\n\t<line id="function random() { [native code] }:Bond:10-9" class="event" x1="120" y1="103" x2="100" y2="91" stroke-width="8" stroke-opacity="0"/>\n\t<line id="function random() { [native code] }:Bond:11-1" class="event" x1="141" y1="91" x2="141" y2="67" stroke-width="8" stroke-opacity="0"/>\n\t<circle id="function random() { [native code] }:Atom:0" class="event" cx="162" cy="55" r="8" fill-opacity="0"/>\n\t<circle id="function random() { [native code] }:Atom:1" class="event" cx="141" cy="67" r="8" fill-opacity="0"/>\n\t<circle id="function random() { [native code] }:Atom:2" class="event" cx="120" cy="55" r="8" fill-opacity="0"/>\n\t<circle id="function random() { [native code] }:Atom:3" class="event" cx="100" cy="67" r="8" fill-opacity="0"/>\n\t<circle id="function random() { [native code] }:Atom:4" class="event" cx="79" cy="55" r="8" fill-opacity="0"/>\n\t<circle id="function random() { [native code] }:Atom:5" class="event" cx="58" cy="67" r="8" fill-opacity="0"/>\n\t<circle id="function random() { [native code] }:Atom:6" class="event" cx="70" cy="88" r="8" fill-opacity="0"/>\n\t<circle id="function random() { [native code] }:Atom:7" class="event" cx="37" cy="79" r="8" fill-opacity="0"/>\n\t<circle id="function random() { [native code] }:Atom:8" class="event" cx="46" cy="46" r="8" fill-opacity="0"/>\n\t<circle id="function random() { [native code] }:Atom:9" class="event" cx="100" cy="91" r="8" fill-opacity="0"/>\n\t<circle id="function random() { [native code] }:Atom:10" class="event" cx="120" cy="103" r="8" fill-opacity="0"/>\n\t<circle id="function random() { [native code] }:Atom:11" class="event" cx="141" cy="91" r="8" fill-opacity="0"/>\n</svg>