<svg id="function random() { [native code] }" xmlns="http://www.w3.org/2000/svg" version="1.1" width="200px" height="150px" viewBox="0 0 200 150">\n\t<style> #function random() { [native code] } {pointer-events:none; }  #function random() { [native code] } .event  { pointer-events:all;}  </style>\n\t<text x="73" y="103" font-family=" Helvetica" font-weight="900" font-size="14" fill="rgb(255,13,13)">O</text>\n\t<text x="54" y="67" font-family=" Helvetica" font-weight="900" font-size="14" fill="rgb(144,224,80)">F</text>\n\t<text x="33" y="103" font-family=" Helvetica" font-weight="900" font-size="14" fill="rgb(144,224,80)">F</text>\n\t<line x1="120" y1="51" x2="141" y2="62" style="stroke:rgb(0,0,0);stroke-width:1"/>\n\t<line x1="121" y1="55" x2="137" y2="64" style="stroke:rgb(0,0,0);stroke-width:1"/>\n\t<line x1="100" y1="87" x2="100" y2="63" style="stroke:rgb(0,0,0);stroke-width:1"/>\n\t<line x1="103" y1="84" x2="103" y2="65" style="stroke:rgb(0,0,0);stroke-width:1"/>\n\t<line x1="141" y1="86" x2="120" y2="99" style="stroke:rgb(0,0,0);stroke-width:1"/>\n\t<line x1="137" y1="85" x2="121" y2="94" style="stroke:rgb(0,0,0);stroke-width:1"/>\n\t<line x1="141" y1="62" x2="162" y2="50" style="stroke:rgb(0,0,0);stroke-width:1"/>\n\t<line x1="100" y1="63" x2="120" y2="51" style="stroke:rgb(0,0,0);stroke-width:1"/>\n\t<line x1="85" y1="95" x2="100" y2="87" style="stroke:rgb(0,0,0);stroke-width:1"/>\n\t<line x1="58" y1="87" x2="72" y2="95" style="stroke:rgb(0,0,0);stroke-width:1"/>\n\t<line x1="58" y1="70" x2="58" y2="87" style="stroke:rgb(0,0,0);stroke-width:1"/>\n\t<line x1="42" y1="95" x2="58" y2="87" style="stroke:rgb(0,0,0);stroke-width:1"/>\n\t<line x1="120" y1="99" x2="100" y2="87" style="stroke:rgb(0,0,0);stroke-width:1"/>\n\t<line x1="141" y1="86" x2="141" y2="62" style="stroke:rgb(0,0,0);stroke-width:1"/>\n\t<line id="function random() { [native code] }:Bond:2-1" class="event" x1="120" y1="51" x2="141" y2="62" stroke-width="8" stroke-opacity="0"/>\n\t<line id="function random() { [native code] }:Bond:4-3" class="event" x1="100" y1="87" x2="100" y2="63" stroke-width="8" stroke-opacity="0"/>\n\t<line id="function random() { [native code] }:Bond:10-9" class="event" x1="141" y1="86" x2="120" y2="99" stroke-width="8" stroke-opacity="0"/>\n\t<line id="function random() { [native code] }:Bond:1-0" class="event" x1="141" y1="62" x2="162" y2="50" stroke-width="8" stroke-opacity="0"/>\n\t<line id="function random() { [native code] }:Bond:3-2" class="event" x1="100" y1="63" x2="120" y2="51" stroke-width="8" stroke-opacity="0"/>\n\t<line id="function random() { [native code] }:Bond:5-4" class="event" x1="79" y1="99" x2="100" y2="87" stroke-width="8" stroke-opacity="0"/>\n\t<line id="function random() { [native code] }:Bond:6-5" class="event" x1="58" y1="87" x2="79" y2="99" stroke-width="8" stroke-opacity="0"/>\n\t<line id="function random() { [native code] }:Bond:7-6" class="event" x1="58" y1="63" x2="58" y2="87" stroke-width="8" stroke-opacity="0"/>\n\t<line id="function random() { [native code] }:Bond:8-6" class="event" x1="37" y1="99" x2="58" y2="87" stroke-width="8" stroke-opacity="0"/>\n\t<line id="function random() { [native code] }:Bond:9-4" class="event" x1="120" y1="99" x2="100" y2="87" stroke-width="8" stroke-opacity="0"/>\n\t<line id="function random() { [native code] }:Bond:10-1" class="event" x1="141" y1="86" x2="141" y2="62" stroke-width="8" stroke-opacity="0"/>\n\t<circle id="function random() { [native code] }:Atom:0" class="event" cx="162" cy="50" r="8" fill-opacity="0"/>\n\t<circle id="function random() { [native code] }:Atom:1" class="event" cx="141" cy="62" r="8" fill-opacity="0"/>\n\t<circle id="function random() { [native code] }:Atom:2" class="event" cx="120" cy="51" r="8" fill-opacity="0"/>\n\t<circle id="function random() { [native code] }:Atom:3" class="event" cx="100" cy="63" r="8" fill-opacity="0"/>\n\t<circle id="function random() { [native code] }:Atom:4" class="event" cx="100" cy="87" r="8" fill-opacity="0"/>\n\t<circle id="function random() { [native code] }:Atom:5" class="event" cx="79" cy="99" r="8" fill-opacity="0"/>\n\t<circle id="function random() { [native code] }:Atom:6" class="event" cx="58" cy="87" r="8" fill-opacity="0"/>\n\t<circle id="function random() { [native code] }:Atom:7" class="event" cx="58" cy="63" r="8" fill-opacity="0"/>\n\t<circle id="function random() { [native code] }:Atom:8" class="event" cx="37" cy="99" r="8" fill-opacity="0"/>\n\t<circle id="function random() { [native code] }:Atom:9" class="event" cx="120" cy="99" r="8" fill-opacity="0"/>\n\t<circle id="function random() { [native code] }:Atom:10" class="event" cx="141" cy="86" r="8" fill-opacity="0"/>\n</svg>