<svg id="function random() { [native code] }" xmlns="http://www.w3.org/2000/svg" version="1.1" width="200px" height="150px" viewBox="0 0 200 150">\n\t<style> #function random() { [native code] } {pointer-events:none; }  #function random() { [native code] } .event  { pointer-events:all;}  </style>\n\t<text x="64" y="42" font-family=" Helvetica" font-weight="900" font-size="14" fill="rgb(144,224,80)">F</text>\n\t<text x="43" y="79" font-family=" Helvetica" font-weight="900" font-size="14" fill="rgb(144,224,80)">F</text>\n\t<line x1="131" y1="75" x2="131" y2="99" style="stroke:rgb(0,0,0);stroke-width:1"/>\n\t<line x1="127" y1="77" x2="127" y2="96" style="stroke:rgb(0,0,0);stroke-width:1"/>\n\t<line x1="89" y1="75" x2="110" y2="63" style="stroke:rgb(0,0,0);stroke-width:1"/>\n\t<line x1="93" y1="76" x2="109" y2="67" style="stroke:rgb(0,0,0);stroke-width:1"/>\n\t<line x1="110" y1="111" x2="89" y2="99" style="stroke:rgb(0,0,0);stroke-width:1"/>\n\t<line x1="109" y1="106" x2="93" y2="97" style="stroke:rgb(0,0,0);stroke-width:1"/>\n\t<line x1="131" y1="99" x2="151" y2="111" style="stroke:rgb(0,0,0);stroke-width:1"/>\n\t<line x1="110" y1="63" x2="131" y2="75" style="stroke:rgb(0,0,0);stroke-width:1"/>\n\t<line x1="68" y1="63" x2="89" y2="75" style="stroke:rgb(0,0,0);stroke-width:1"/>\n\t<line x1="68" y1="45" x2="68" y2="63" style="stroke:rgb(0,0,0);stroke-width:1"/>\n\t<line x1="53" y1="71" x2="68" y2="63" style="stroke:rgb(0,0,0);stroke-width:1"/>\n\t<line x1="89" y1="99" x2="89" y2="75" style="stroke:rgb(0,0,0);stroke-width:1"/>\n\t<line x1="110" y1="111" x2="131" y2="99" style="stroke:rgb(0,0,0);stroke-width:1"/>\n\t<line id="function random() { [native code] }:Bond:2-1" class="event" x1="131" y1="75" x2="131" y2="99" stroke-width="8" stroke-opacity="0"/>\n\t<line id="function random() { [native code] }:Bond:4-3" class="event" x1="89" y1="75" x2="110" y2="63" stroke-width="8" stroke-opacity="0"/>\n\t<line id="function random() { [native code] }:Bond:9-8" class="event" x1="110" y1="111" x2="89" y2="99" stroke-width="8" stroke-opacity="0"/>\n\t<line id="function random() { [native code] }:Bond:1-0" class="event" x1="131" y1="99" x2="151" y2="111" stroke-width="8" stroke-opacity="0"/>\n\t<line id="function random() { [native code] }:Bond:3-2" class="event" x1="110" y1="63" x2="131" y2="75" stroke-width="8" stroke-opacity="0"/>\n\t<line id="function random() { [native code] }:Bond:5-4" class="event" x1="68" y1="63" x2="89" y2="75" stroke-width="8" stroke-opacity="0"/>\n\t<line id="function random() { [native code] }:Bond:6-5" class="event" x1="68" y1="38" x2="68" y2="63" stroke-width="8" stroke-opacity="0"/>\n\t<line id="function random() { [native code] }:Bond:7-5" class="event" x1="48" y1="75" x2="68" y2="63" stroke-width="8" stroke-opacity="0"/>\n\t<line id="function random() { [native code] }:Bond:8-4" class="event" x1="89" y1="99" x2="89" y2="75" stroke-width="8" stroke-opacity="0"/>\n\t<line id="function random() { [native code] }:Bond:9-1" class="event" x1="110" y1="111" x2="131" y2="99" stroke-width="8" stroke-opacity="0"/>\n\t<circle id="function random() { [native code] }:Atom:0" class="event" cx="151" cy="111" r="8" fill-opacity="0"/>\n\t<circle id="function random() { [native code] }:Atom:1" class="event" cx="131" cy="99" r="8" fill-opacity="0"/>\n\t<circle id="function random() { [native code] }:Atom:2" class="event" cx="131" cy="75" r="8" fill-opacity="0"/>\n\t<circle id="function random() { [native code] }:Atom:3" class="event" cx="110" cy="63" r="8" fill-opacity="0"/>\n\t<circle id="function random() { [native code] }:Atom:4" class="event" cx="89" cy="75" r="8" fill-opacity="0"/>\n\t<circle id="function random() { [native code] }:Atom:5" class="event" cx="68" cy="63" r="8" fill-opacity="0"/>\n\t<circle id="function random() { [native code] }:Atom:6" class="event" cx="68" cy="38" r="8" fill-opacity="0"/>\n\t<circle id="function random() { [native code] }:Atom:7" class="event" cx="48" cy="75" r="8" fill-opacity="0"/>\n\t<circle id="function random() { [native code] }:Atom:8" class="event" cx="89" cy="99" r="8" fill-opacity="0"/>\n\t<circle id="function random() { [native code] }:Atom:9" class="event" cx="110" cy="111" r="8" fill-opacity="0"/>\n</svg>