<svg id="function random() { [native code] }" xmlns="http://www.w3.org/2000/svg" version="1.1" width="200px" height="150px" viewBox="0 0 200 150">\n\t<style> #function random() { [native code] } {pointer-events:none; }  #function random() { [native code] } .event  { pointer-events:all;}  </style>\n\t<text x="125" y="55" font-family=" Helvetica" font-weight="900" font-size="14" fill="rgb(255,13,13)">O</text>\n\t<text x="125" y="103" font-family=" Helvetica" font-weight="900" font-size="14" fill="rgb(255,13,13)">O</text>\n\t<line x1="89" y1="50" x2="110" y2="63" style="stroke:rgb(0,0,0);stroke-width:1"/>\n\t<line x1="90" y1="55" x2="106" y2="64" style="stroke:rgb(0,0,0);stroke-width:1"/>\n\t<line x1="68" y1="86" x2="68" y2="62" style="stroke:rgb(0,0,0);stroke-width:1"/>\n\t<line x1="72" y1="84" x2="72" y2="65" style="stroke:rgb(0,0,0);stroke-width:1"/>\n\t<line x1="110" y1="87" x2="89" y2="98" style="stroke:rgb(0,0,0);stroke-width:1"/>\n\t<line x1="106" y1="85" x2="90" y2="94" style="stroke:rgb(0,0,0);stroke-width:1"/>\n\t<line x1="137" y1="54" x2="151" y2="63" style="stroke:rgb(0,0,0);stroke-width:1"/>\n\t<line x1="110" y1="63" x2="124" y2="54" style="stroke:rgb(0,0,0);stroke-width:1"/>\n\t<line x1="68" y1="62" x2="89" y2="50" style="stroke:rgb(0,0,0);stroke-width:1"/>\n\t<line x1="48" y1="98" x2="68" y2="86" style="stroke:rgb(0,0,0);stroke-width:1"/>\n\t<line x1="89" y1="98" x2="68" y2="86" style="stroke:rgb(0,0,0);stroke-width:1"/>\n\t<line x1="110" y1="87" x2="110" y2="63" style="stroke:rgb(0,0,0);stroke-width:1"/>\n\t<line x1="124" y1="95" x2="110" y2="87" style="stroke:rgb(0,0,0);stroke-width:1"/>\n\t<line x1="151" y1="87" x2="137" y2="95" style="stroke:rgb(0,0,0);stroke-width:1"/>\n\t<line id="function random() { [native code] }:Bond:3-2" class="event" x1="89" y1="50" x2="110" y2="63" stroke-width="8" stroke-opacity="0"/>\n\t<line id="function random() { [native code] }:Bond:5-4" class="event" x1="68" y1="86" x2="68" y2="62" stroke-width="8" stroke-opacity="0"/>\n\t<line id="function random() { [native code] }:Bond:8-7" class="event" x1="110" y1="87" x2="89" y2="98" stroke-width="8" stroke-opacity="0"/>\n\t<line id="function random() { [native code] }:Bond:1-0" class="event" x1="131" y1="51" x2="151" y2="63" stroke-width="8" stroke-opacity="0"/>\n\t<line id="function random() { [native code] }:Bond:2-1" class="event" x1="110" y1="63" x2="131" y2="51" stroke-width="8" stroke-opacity="0"/>\n\t<line id="function random() { [native code] }:Bond:4-3" class="event" x1="68" y1="62" x2="89" y2="50" stroke-width="8" stroke-opacity="0"/>\n\t<line id="function random() { [native code] }:Bond:6-5" class="event" x1="48" y1="98" x2="68" y2="86" stroke-width="8" stroke-opacity="0"/>\n\t<line id="function random() { [native code] }:Bond:7-5" class="event" x1="89" y1="98" x2="68" y2="86" stroke-width="8" stroke-opacity="0"/>\n\t<line id="function random() { [native code] }:Bond:8-2" class="event" x1="110" y1="87" x2="110" y2="63" stroke-width="8" stroke-opacity="0"/>\n\t<line id="function random() { [native code] }:Bond:9-8" class="event" x1="131" y1="99" x2="110" y2="87" stroke-width="8" stroke-opacity="0"/>\n\t<line id="function random() { [native code] }:Bond:10-9" class="event" x1="151" y1="87" x2="131" y2="99" stroke-width="8" stroke-opacity="0"/>\n\t<circle id="function random() { [native code] }:Atom:0" class="event" cx="151" cy="63" r="8" fill-opacity="0"/>\n\t<circle id="function random() { [native code] }:Atom:1" class="event" cx="131" cy="51" r="8" fill-opacity="0"/>\n\t<circle id="function random() { [native code] }:Atom:2" class="event" cx="110" cy="63" r="8" fill-opacity="0"/>\n\t<circle id="function random() { [native code] }:Atom:3" class="event" cx="89" cy="50" r="8" fill-opacity="0"/>\n\t<circle id="function random() { [native code] }:Atom:4" class="event" cx="68" cy="62" r="8" fill-opacity="0"/>\n\t<circle id="function random() { [native code] }:Atom:5" class="event" cx="68" cy="86" r="8" fill-opacity="0"/>\n\t<circle id="function random() { [native code] }:Atom:6" class="event" cx="48" cy="98" r="8" fill-opacity="0"/>\n\t<circle id="function random() { [native code] }:Atom:7" class="event" cx="89" cy="98" r="8" fill-opacity="0"/>\n\t<circle id="function random() { [native code] }:Atom:8" class="event" cx="110" cy="87" r="8" fill-opacity="0"/>\n\t<circle id="function random() { [native code] }:Atom:9" class="event" cx="131" cy="99" r="8" fill-opacity="0"/>\n\t<circle id="function random() { [native code] }:Atom:10" class="event" cx="151" cy="87" r="8" fill-opacity="0"/>\n</svg>